<?xml version="1.0" encoding="UTF-8" standalone="no"?>
<svg width="28px" height="28px" viewBox="0 0 28 28" version="1.1" xmlns="http://www.w3.org/2000/svg" xmlns:xlink="http://www.w3.org/1999/xlink">
    <!-- Generator: Sketch 3.8.1 (29687) - http://www.bohemiancoding.com/sketch -->
    <title>Pinterest Icon</title>
    <desc>Created with Sketch.</desc>
    <defs>
        <polygon id="path-1" points="0.0002625 28 28 28 28 0.0004375 0.0002625 0.0004375"></polygon>
    </defs>
    <g id="Welcome" stroke="none" stroke-width="1" fill="none" fill-rule="evenodd">
        <g id="Mobile-Menu" transform="translate(-144.000000, -371.000000)">
            <g id="Pinterest-Icon" transform="translate(144.000000, 371.000000)">
                <mask id="mask-2" fill="white">
                    <use xlink:href="#path-1"></use>
                </mask>
                <g id="Clip-2"></g>
                <path d="M15.4457625,17.1171875 C14.5777625,17.1171875 13.7605125,16.6490625 13.4813875,16.1153125 C13.4813875,16.1153125 13.0141375,17.9685625 12.9152625,18.3255625 C12.5670125,19.5899375 11.5423875,20.8543125 11.4636375,20.9575625 C11.4085125,21.0293125 11.2851375,21.0065625 11.2720125,20.9111875 C11.2501375,20.7501875 10.9885125,19.1559375 11.2965125,17.8556875 C11.4513875,17.2029375 12.3316375,13.4736875 12.3316375,13.4736875 C12.3316375,13.4736875 12.0735125,12.9609375 12.0735125,12.2023125 C12.0735125,11.0096875 12.7656375,10.1206875 13.6257625,10.1206875 C14.3572625,10.1206875 14.7090125,10.6693125 14.7090125,11.3273125 C14.7090125,12.0623125 14.2417625,13.1621875 14.0002625,14.1815625 C13.7981375,15.0338125 14.4272625,15.7294375 15.2690125,15.7294375 C16.7923875,15.7294375 17.8187625,13.7729375 17.8187625,11.4533125 C17.8187625,9.6919375 16.6313875,8.3724375 14.4727625,8.3724375 C12.0341375,8.3724375 10.5133875,10.1924375 10.5133875,12.2241875 C10.5133875,12.9250625 10.7207625,13.4185625 11.0445125,13.8000625 C11.1932625,13.9759375 11.2133875,14.0476875 11.1600125,14.2498125 C11.1206375,14.3968125 11.0331375,14.7538125 10.9955125,14.8938125 C10.9430125,15.0985625 10.7767625,15.1703125 10.5930125,15.0950625 C9.4695125,14.6374375 8.9462625,13.4071875 8.9462625,12.0229375 C8.9462625,9.7391875 10.8721375,6.9995625 14.6941375,6.9995625 C17.7645125,6.9995625 19.7848875,9.2220625 19.7848875,11.6073125 C19.7848875,14.7608125 18.0305125,17.1171875 15.4457625,17.1171875 M0.0002625,13.9995625 C0.0002625,21.7328125 6.2687625,28.0004375 14.0002625,28.0004375 C21.7317625,28.0004375 28.0002625,21.7328125 28.0002625,13.9995625 C28.0002625,6.2689375 21.7317625,0.0004375 14.0002625,0.0004375 C6.2687625,0.0004375 0.0002625,6.2689375 0.0002625,13.9995625 Z" id="Fill-1" fill="#FFFFFF" mask="url(#mask-2)"></path>
            </g>
        </g>
    </g>
</svg>