<?xml version="1.0" encoding="UTF-8" standalone="no"?>
<svg width="28px" height="28px" viewBox="0 0 28 28" version="1.1" xmlns="http://www.w3.org/2000/svg" xmlns:xlink="http://www.w3.org/1999/xlink">
    <!-- Generator: Sketch 3.8.1 (29687) - http://www.bohemiancoding.com/sketch -->
    <title>Vimeo Icon</title>
    <desc>Created with Sketch.</desc>
    <defs></defs>
    <g id="Welcome" stroke="none" stroke-width="1" fill="none" fill-rule="evenodd">
        <g id="Mobile-Menu" transform="translate(-189.000000, -371.000000)" fill="#FFFFFF">
            <path d="M209.93,381.824625 C209.146875,386.23025 204.777125,389.963 203.462,390.81525 C202.146875,391.668375 200.94725,390.474 200.51325,389.571875 C200.0145,388.541125 198.522625,382.96125 198.132375,382.49925 C197.74125,382.038125 196.567875,382.96125 196.567875,382.96125 L196,382.21575 C196,382.21575 198.380875,379.372 200.192125,379.01675 C202.113625,378.63875 202.111,381.966375 202.573875,383.8135 C203.021,385.599375 203.321125,386.62225 203.711375,386.62225 C204.1025,386.62225 204.848,385.625625 205.66525,384.099625 C206.483375,382.570125 205.63025,381.22 204.03075,382.179875 C204.6695,378.342125 210.71225,377.419 209.93,381.824625 M203,371 C195.2685,371 189,377.2685 189,385 C189,392.73325 195.2685,399 203,399 C210.7315,399 217,392.73325 217,385 C217,377.2685 210.7315,371 203,371" id="Vimeo-Icon"></path>
        </g>
    </g>
</svg>