<?xml version="1.0" encoding="utf-8"?>
<!-- Generator: Adobe Illustrator 19.2.1, SVG Export Plug-In . SVG Version: 6.00 Build 0)  -->
<svg version="1.1" id="Layer_1" xmlns="http://www.w3.org/2000/svg" xmlns:xlink="http://www.w3.org/1999/xlink" x="0px" y="0px"
	 viewBox="0 0 960 960" style="enable-background:new 0 0 960 960;" xml:space="preserve">
<style type="text/css">
	.st0{fill:#002F43;}
	.st1{fill:url(#SVGID_1_);}
	.st2{fill:#FDFDFD;}
	.st3{fill:#436B82;}
	.st4{fill:#4D738A;}
	.st5{fill:#65889E;}
	.st6{fill:#A9BFCF;}
	.st7{fill:#3B647B;}
	.st8{fill:#7A9AAE;}
	.st9{fill:#0D475C;}
	.st10{fill:#2A576E;}
	.st11{fill:#CB252C;}
	.st12{fill:#002B41;}
	.st13{fill:#FFFFFF;}
	.st14{fill:#E8CE97;}
	.st15{fill:#806946;}
	.st16{fill:#231F20;}
	.st17{fill:url(#SVGID_2_);}
	.st18{filter:url(#Adobe_OpacityMaskFilter);}
	.st19{fill:url(#SVGID_4_);}
	.st20{mask:url(#SVGID_3_);fill:#FFFFFF;}
	.st21{fill:url(#SVGID_5_);}
</style>
<path class="st0" d="M-13,972c0-328.7,0-657.3,0-986c329,0,658.1,0,987,0c0,328.7,0,657.3,0,986C645,972,315.9,972-13,972z"/>
<linearGradient id="SVGID_1_" gradientUnits="userSpaceOnUse" x1="661.7474" y1="827.5439" x2="219.5803" y2="188.0579">
	<stop  offset="0" style="stop-color:#A8BECD"/>
	<stop  offset="1" style="stop-color:#294C63"/>
</linearGradient>
<polygon class="st1" points="124,318 502.7,763.4 642,795.3 815.2,781.3 132.6,212.9 116.3,249.6 "/>
<path class="st2" d="M635,818.8c-19.2,0-223-2.8-223-2.8l91-53l134.3,22c0,0,34.7-16.3,90.4-20s109.9,20.2,108.9,38.8
	c-0.9,18.5-45.9,37.6-85.3,37.6C712,841.4,670,841,635,818.8z"/>
<g>
	<path class="st3" d="M93.2,318.4c0,0.2-0.1,0.5-0.2,0.7c-8.4,0.6-7.6,0.3-7.1-7.3c0.3-3.3,0.5-6.7,0.8-10c0.4-5.6,1-11.1,1.6-16.7
		c0-0.5,0.1-1,0.1-1.4c0.4-6.1,0.7-12.1,1.2-18.1c0.3-3.7,1-7.3,1-11c0-2.2-0.4-3.9-1.8-5.7c-6.1-7.4-8.8-16.1-9.9-25.5
		c-1-7.9,0-15.6,2-23.2c1.4-5.5,4-10.5,7.5-14.9c4.6-5.7,10.5-9.2,18.2-8.8c5.1,0.3,9.2,2.4,12.9,5.7c3.8,3.4,6.2,7.7,8.3,12.2
		c1.8,3.9,2.9,8.1,3.8,12.4c0.2,1.1,0,2.2,0,3.3c-1.1-0.3-2.1-0.6-3.2-0.9c-0.3-0.7-0.5-1.3-0.8-2c-0.8-6.8-3.3-12.9-7.3-18.4
		c-1.7-2.4-3.8-4.3-6.4-5.7c-4.3-2.4-8.8-2.6-13.3-0.8c-0.9,0.3-1.1,1-1.3,1.9c-1.1-0.3-2.1-0.2-3.1,0.6c-3.9,3.3-6.6,7.4-8.5,12
		c-3.6,8.6-4.6,17.6-3.5,26.8c1.2,9.4,4,18.1,11.2,24.9c0.8,0.7,0.9,1.6,0.9,2.6c-0.1,1.6-0.2,3.2-0.3,4.8c-0.5,6.1-1,12.1-1.5,18.2
		c-0.9,11.2-1.8,22.3-2.7,33.5c-0.2,2.4-0.2,4.8-0.3,7.2C92,315.9,92.6,317.1,93.2,318.4z"/>
	<path class="st4" d="M93.2,318.4c-0.6-1.2-1.2-2.5-1.8-3.7c4.4,0,8.7,0,13.1,0c3.7,0,7.3,0,11,0.1c5.8,0,5.7,0,5.6-5.9
		c0-0.5,0-1-0.1-1.4c-0.9-2.8-0.7-5.7-0.8-8.5c0-1.1,0.1-2.3-0.2-3.3c-0.7-2.3-0.7-4.7-0.7-7.1c0-5.4-1.4-10.7-1.1-16.2
		c0-0.2,0-0.3-0.1-0.5c-1-2.8-0.7-5.7-0.8-8.5c0-1.1,0.2-2.3-0.1-3.3c-1-3.4-0.7-7-0.9-10.5c1-1.1,1.9-2.2,2.9-3.2
		c1.7-1.7,3-3.7,4.1-5.9c4.9-9.9,6.5-20.3,4.9-31.2c1.1,0.3,2.1,0.6,3.2,0.9c0.2,0.9,0.4,1.8,0.6,2.7c-0.1,2.2-0.2,4.5-0.2,6.7
		c0,8.5-2,16.5-6.2,23.8c-1.1,1.9-2.4,3.8-3.8,5.5c-1.3,1.6-1.8,3.3-1.7,5.3c0.2,3.3-0.1,6.7,0.8,10c0.1,0.3,0.1,0.6,0.1,1
		c-0.3,5.5,0.5,10.9,1.2,16.2c0.8,6.2,0.6,12.4,1.5,18.6c0.6,4.4,0.9,8.9,1.2,13.3c0.1,1.1,0,2.2-0.1,3.4c-0.1,1.1-0.8,1.7-1.9,1.8
		c-0.3,0-0.6,0.1-1,0.1C112.4,318.5,102.8,318.4,93.2,318.4z"/>
	<path class="st5" d="M552.8,562.5c-0.7-0.1-1.3-0.5-1.5-1.2C552,561.4,552.5,561.8,552.8,562.5z"/>
	<path class="st6" d="M816.2,782.2c-0.6,0-1-0.2-1-0.8C815.8,781.3,816.1,781.6,816.2,782.2z"/>
	<path class="st5" d="M553.8,563.4c-0.3-0.2-0.5-0.5-0.8-0.7C553.3,562.9,553.6,563.1,553.8,563.4z"/>
	<path class="st5" d="M550.2,561.4c0-0.3,0-0.7,0-1c0.5,0.1,0.9,0.4,1,0.9C550.9,561.3,550.6,561.4,550.2,561.4z"/>
	<path class="st3" d="M410.3,813.8c0.2,0.4,0.5,0.7,0.7,1.1C410.8,814.5,410.5,814.2,410.3,813.8z"/>
	<path class="st5" d="M554.9,564.3c-0.3-0.3-0.6-0.5-0.9-0.8C554.5,563.6,554.8,563.8,554.9,564.3z"/>
	<path class="st7" d="M348.8,717.9c0.3,0.3,0.5,0.7,0.8,1C349.3,718.6,349.1,718.2,348.8,717.9z"/>
	<path class="st8" d="M699,684.3c-0.5-0.1-0.8-0.3-0.9-0.8C698.6,683.5,698.9,683.8,699,684.3z"/>
	<path class="st8" d="M697.9,683.4c-0.4,0-0.7-0.3-0.8-0.7C697.5,682.7,697.8,682.9,697.9,683.4z"/>
	<path class="st8" d="M693.2,679.5c-0.5-0.1-0.8-0.3-0.9-0.8C692.8,678.7,693.1,679,693.2,679.5z"/>
	<path class="st8" d="M692.1,678.6c-0.4,0-0.7-0.3-0.8-0.7C691.8,677.9,692,678.1,692.1,678.6z"/>
	<path class="st8" d="M687.4,674.7c-0.5-0.1-0.8-0.3-0.9-0.8C687.1,673.9,687.3,674.2,687.4,674.7z"/>
	<path class="st8" d="M696,673c-0.4,0-0.7-0.3-0.8-0.7C695.7,672.3,696,672.5,696,673z"/>
	<path class="st2" d="M104.5,314.6c-4.4,0-8.7,0-13.1,0c0.1-2.4,0.1-4.8,0.3-7.2c0.9-11.2,1.8-22.3,2.7-33.5
		c0.5-6.1,1-12.1,1.5-18.2c0.1-1.6,0.2-3.2,0.3-4.8c0.1-1-0.1-1.9-0.9-2.6c-7.1-6.8-10-15.5-11.2-24.9c-1.2-9.2-0.1-18.2,3.5-26.8
		c1.9-4.6,4.6-8.8,8.5-12c1-0.8,1.9-0.9,3.1-0.6c1.8,2,3.6,3.9,5.5,5.9c0.1,0.3,0.1,0.6,0.3,0.9c4.5,7.2,6.6,15.2,6.9,23.6
		c0.4,12.5-2.3,24.1-10.9,33.7c-1.3,0.5-1.5,1.5-1.4,2.7c0.6,8.1,1.3,16.2,2,24.3c0.8,9.8,1.7,19.7,2.5,29.5
		C104,307.9,104.2,311.3,104.5,314.6z"/>
	<path class="st9" d="M100.8,248.1c8.6-9.6,11.4-21.1,10.9-33.7c-0.3-8.4-2.4-16.4-6.9-23.6c-0.2-0.3-0.2-0.6-0.3-0.9
		c0.7,0.2,1.6,0.3,2.2,0.7c2,1.5,4,3.1,5.9,4.7c2.8,2.3,5.3,5,8.3,7c2.2,1.5,3.8,3.8,6.4,4.7c0.3,0.7,0.5,1.3,0.8,2
		c1.6,10.9,0.1,21.3-4.8,31.2c-1.1,2.2-2.4,4.1-4.1,5.9c-1,1-1.9,2.1-2.9,3.2c-3.9,0-7.8,0-11.7,0
		C103.2,249.4,101.7,249.4,100.8,248.1z"/>
	<path class="st0" d="M127.3,207.1c-2.6-0.9-4.2-3.2-6.4-4.7c-3-2-5.5-4.7-8.3-7c-1.9-1.6-3.9-3.2-5.9-4.7c-0.6-0.4-1.5-0.5-2.2-0.7
		c-1.8-2-3.6-3.9-5.5-5.9c0.1-0.8,0.4-1.5,1.3-1.9c4.6-1.8,9-1.6,13.3,0.8c2.5,1.4,4.7,3.3,6.4,5.7
		C124,194.2,126.5,200.4,127.3,207.1z"/>
	<path class="st10" d="M100.8,248.1c1,1.3,2.4,1.3,3.8,1.3c3.9,0,7.8,0,11.7,0c0.1,3.5-0.1,7,0.9,10.5c0.3,1,0.1,2.2,0.1,3.3
		c0,0,0,0,0,0s0,0,0,0s0,0,0,0c0.1,2.9-0.2,5.8,0.8,8.5c0.1,0.1,0.1,0.3,0.1,0.5c-0.3,5.4,1.1,10.8,1.1,16.2c0,2.4,0,4.8,0.7,7.1
		c0.3,1,0.2,2.2,0.2,3.3c0.1,2.9-0.1,5.7,0.8,8.5c0.1,0.4,0.1,0.9,0.1,1.4c0.1,5.9,0.3,6-5.6,5.9c-3.7,0-7.3,0-11-0.1
		c-0.2-3.3-0.4-6.7-0.7-10c-0.8-9.8-1.6-19.7-2.5-29.5c-0.7-8.1-1.3-16.2-2-24.3C99.3,249.6,99.5,248.6,100.8,248.1z"/>
	<g>
		<g>
			<polygon class="st11" points="605.9,642.2 600.8,665.9 610.9,672.8 610.4,676 591.5,675.8 581.1,668.7 565.3,677.8 567.1,733.3 
				548.1,787.6 542.6,786.7 549.3,739 545.3,713.8 544,743.1 532.5,787.1 528.5,787.2 527.3,738.9 515.1,679.7 524.2,657.7 
				550.4,627.8 566.2,622.5 			"/>
			<polygon class="st12" points="547.5,789 560.5,796.7 552.7,797.3 542.3,794.5 542.4,791 			"/>
			<polygon class="st12" points="534.3,789.6 537.5,798.9 527.5,799.4 527.5,791.6 528.8,789.6 			"/>
			<g>
				<polygon class="st12" points="594.7,638.4 582.5,652.8 578,654.7 589.2,653.6 				"/>
				<polygon class="st13" points="592.8,642.9 591.1,646 588.8,647.2 584.2,653.3 578,654.7 582.9,649.3 587.6,645.8 589.9,642.9 
									"/>
			</g>
			<g>
				<polygon class="st14" points="606.2,635.5 595.8,623.7 582.4,637.6 593.5,647.8 				"/>
				<g>
					<g>
						<path class="st15" d="M602.8,640.1l-0.6-1.7c1.4-0.5,5.2-2.2,5.3-4.7c0.1-4.5-2.8-6.3-6-8.3c-2.8-1.8-5.8-3.6-6-7.4l1.8-0.1
							c0.2,2.9,2.5,4.3,5.2,6c3.3,2,7,4.4,6.8,9.8C609.2,638,603.1,640,602.8,640.1z"/>
					</g>
					<g>
						<path class="st15" d="M593.1,626.7c0-0.5-0.4-4.9,0.7-7.2l1.6,0.7c-0.7,1.6-0.6,5.1-0.5,6.3L593.1,626.7z"/>
					</g>
				</g>
				<polygon class="st15" points="597.5,636.5 593.4,639.1 594.7,642.6 598.7,637.9 				"/>
			</g>
			<g>
				<g>
					<path class="st16" d="M611.6,644.8c14.2-4.3,27-3.2,28.7,2.4c0.3,1,1.5,4.9,1.8,6c1.7,5.6-8.5,13.5-22.6,17.8
						c-14.2,4.3-27,3.2-28.6-2.4c-0.1-0.2-0.1-0.5-0.3-0.9l-36.9,12c-1.7-1-2.8-4.1-1.8-6l37.5-10.1c-0.1-0.4-0.2-0.8-0.3-1
						C587.3,657,597.4,649,611.6,644.8z"/>
					
						<linearGradient id="SVGID_2_" gradientUnits="userSpaceOnUse" x1="6697.0098" y1="456.7752" x2="6734.5537" y2="456.7752" gradientTransform="matrix(0.8807 0.4736 -0.4736 0.8807 -5082.1943 -2923.0911)">
						<stop  offset="0" style="stop-color:#CDDCDB"/>
						<stop  offset="0.1736" style="stop-color:#C5D7D7"/>
						<stop  offset="0.4493" style="stop-color:#AEC9CB"/>
						<stop  offset="0.7907" style="stop-color:#88B1B9"/>
						<stop  offset="1" style="stop-color:#6EA1AC"/>
					</linearGradient>
					<path class="st17" d="M613.5,651.4c-13.2,4-22.9,11-21.5,15.6c1.4,4.6,13.3,5.2,26.5,1.2c13.2-4,22.9-11,21.5-15.6
						C638.7,647.9,626.8,647.4,613.5,651.4z"/>
				</g>
				<defs>
					<filter id="Adobe_OpacityMaskFilter" filterUnits="userSpaceOnUse" x="597.3" y="651" width="40.2" height="17.8">
						<feColorMatrix  type="matrix" values="1 0 0 0 0  0 1 0 0 0  0 0 1 0 0  0 0 0 1 0"/>
					</filter>
				</defs>
				<mask maskUnits="userSpaceOnUse" x="597.3" y="651" width="40.2" height="17.8" id="SVGID_3_">
					<g class="st18">
						
							<radialGradient id="SVGID_4_" cx="-7910.5322" cy="-2592.6389" r="44.8918" fx="-7910.481" fy="-2592.7058" gradientTransform="matrix(-0.817 0.1428 0.1554 -0.3526 -5451.1094 881.0214)" gradientUnits="userSpaceOnUse">
							<stop  offset="0" style="stop-color:#00121E"/>
							<stop  offset="0.1547" style="stop-color:#031521"/>
							<stop  offset="0.2701" style="stop-color:#0D1E29"/>
							<stop  offset="0.3727" style="stop-color:#1D2D37"/>
							<stop  offset="0.468" style="stop-color:#33424B"/>
							<stop  offset="0.5581" style="stop-color:#515D65"/>
							<stop  offset="0.6444" style="stop-color:#757F85"/>
							<stop  offset="0.7277" style="stop-color:#A0A7AB"/>
							<stop  offset="0.8064" style="stop-color:#D0D3D6"/>
							<stop  offset="0.8727" style="stop-color:#FFFFFF"/>
						</radialGradient>
						<path class="st19" d="M616.5,652.6c11.1-3.2,20.9-2.7,22,1c1.1,3.7-7,9.3-18.1,12.5c-11.1,3.2-20.9,2.7-22-1
							C597.3,661.4,605.4,655.8,616.5,652.6z"/>
					</g>
				</mask>
				<path class="st20" d="M615.4,653.1c11.1-3.2,20.9-2.7,22,1c1.1,3.7-7,9.3-18.1,12.5c-11.1,3.2-20.9,2.7-22-1
					C596.3,661.9,604.4,656.3,615.4,653.1z"/>
			</g>
			<polygon class="st14" points="583.8,661.8 588.3,664.8 591.5,668.2 584.5,672 581.1,668.7 579.4,663.4 			"/>
			<polygon class="st14" points="620.6,667.2 622.1,671.8 618.8,675.8 611.9,674.6 615,670.5 616.7,666.8 			"/>
		</g>
	</g>
</g>
<linearGradient id="SVGID_5_" gradientUnits="userSpaceOnUse" x1="440.1656" y1="764.4301" x2="129.802" y2="315.5654">
	<stop  offset="0" style="stop-color:#5F8298"/>
	<stop  offset="1" style="stop-color:#25455A"/>
</linearGradient>
<polygon class="st21" points="89,319 412,816 503,763 124,318 "/>
</svg>
