<?xml version="1.0" encoding="utf-8"?>
<!-- Generator: Adobe Illustrator 19.2.1, SVG Export Plug-In . SVG Version: 6.00 Build 0)  -->
<svg version="1.1" id="Layer_1" xmlns="http://www.w3.org/2000/svg" xmlns:xlink="http://www.w3.org/1999/xlink" x="0px" y="0px"
	 viewBox="0 0 960 960" style="enable-background:new 0 0 960 960;" xml:space="preserve">
<style type="text/css">
	.st0{fill:#002F43;}
	.st1{fill:url(#SVGID_1_);}
	.st2{fill:#FDFDFD;}
	.st3{fill:url(#SVGID_2_);}
	.st4{fill:#436B82;}
	.st5{fill:#4D738A;}
	.st6{fill:#65889E;}
	.st7{fill:#A9BFCF;}
	.st8{fill:#3B647B;}
	.st9{fill:#84A1B5;}
	.st10{fill:#7A9AAE;}
	.st11{fill:#CB252C;}
	.st12{fill:#0D475C;}
	.st13{fill:#97B0C1;}
	.st14{fill:#E0CF98;}
	.st15{fill:#786849;}
	.st16{fill:#2A576E;}
	.st17{fill:#7191A7;}
</style>
<path class="st0" d="M-13,972c0-328.7,0-657.3,0-986c329,0,658.1,0,987,0c0,328.7,0,657.3,0,986C645,972,315.9,972-13,972z"/>
<linearGradient id="SVGID_1_" gradientUnits="userSpaceOnUse" x1="724.6257" y1="432.1827" x2="126.6257" y2="-115.8173" gradientTransform="matrix(1 0 0 1 0 400)">
	<stop  offset="0" style="stop-color:#A8BECD"/>
	<stop  offset="1" style="stop-color:#294C63"/>
</linearGradient>
<path class="st1" d="M527.7,767.5c-0.4,1,26.9,3.4,26.6,4.4c6.5,1,13.1,2.1,19.6,3.1c1-0.1,2-0.1,2.8,0.6c1,0.1,2,0.2,3,0.3
	c1.3,0,2.7-0.3,3.8,0.8c0.7,0.1,1.3,0.1,2,0.2c1-0.1,2-0.1,2.8,0.7c1,0.1,2,0.2,3,0.3c1-0.1,2-0.1,2.8,0.6c1.9,0.2,3.8,0.5,5.7,0.7
	c0.4,0.2,0.9,0.4,1.3,0.5c11,1.9,22,3.7,33,5.6c2.3,0.4,4.4,0.3,6.5-0.9c4.6-2.6,9.6-4.3,14.7-5.9c12.3-3.7,24.8-6.2,37.4-8.4
	c5.5-0.9,11-1.9,16.5-2.6c6.3-0.8,12.7-1.6,19-2.1c4.6-0.4,9.3-0.1,13.9-0.3c9.9-0.3,19.8,0.7,29.6,2.4c13.9,2.4,27.3,6.5,40,12.9
	c1.3,0.6,2.5,1.5,4,1.3c-0.4-1.4-1.7-1.9-2.6-2.7c-28.2-23.5-56.4-47-84.7-70.5c-9.6-8-19.2-15.9-28.8-23.8
	c-0.5-0.1-0.8-0.3-0.9-0.8l-0.2-0.1c-0.4,0-0.7-0.3-0.8-0.7c-1.3-1.1-2.6-2.1-3.9-3.2c-0.5-0.1-0.8-0.3-0.9-0.8l-0.2-0.1
	c-0.4,0-0.7-0.3-0.8-0.7c-1.3-1.1-2.6-2.1-3.9-3.2c-0.5-0.1-0.8-0.3-0.9-0.8l-0.2-0.1c-0.4,0-0.7-0.3-0.8-0.7
	c-1-0.8-1.9-1.5-2.9-2.3c-0.5-0.6-1-1.2-1.6-1.7c-11.5-9.6-23-19.2-34.6-28.8c-5.5-4.6-11.1-9.1-16.7-13.6c-0.3-0.2-0.5-0.5-0.8-0.7
	l-0.3-0.2c-0.3-0.1-0.4-0.3-0.6-0.5c-0.3-0.2-0.6-0.4-0.8-0.6c-1-1.7-2.7-2.7-4.2-3.9c-14.5-12-28.9-24.1-43.4-36.1
	c-8.2-6.8-16.5-13.6-24.7-20.4c-0.3-0.3-0.6-0.5-0.9-0.8l-0.2-0.2c-0.3-0.2-0.5-0.5-0.8-0.7l-0.3-0.2c-0.7-0.1-1.3-0.5-1.5-1.2l0,0
	c-0.3,0-0.7,0.1-1,0.1c0-0.3,0-0.7,0-1c-6.5-5.5-12.9-11-19.4-16.4c-4.7-3.9-9.1-8-14.1-11.5c-0.5-0.6-1-1.2-1.6-1.7
	c-9.9-8.3-19.8-16.5-29.7-24.7c-3.7-3-7.4-6-11.1-9c-0.4-0.5-0.8-1-1.3-1.4c-11-9.2-21.9-18.4-32.9-27.5c-3.5-2.9-7.2-5.7-10.8-8.6
	c-0.3-0.4-0.5-0.8-0.9-1.1c-13.5-11.3-27-22.6-40.6-33.8c-2.7-2.2-5.1-4.8-8.2-6.5c-0.9-0.9-1.7-1.9-2.6-2.7
	c-11.5-9.6-22.9-19.2-34.4-28.6c-3.3-2.7-6.3-5.8-10.1-8l0,0c-0.6-0.7-1.2-1.5-1.9-2.1c-7.5-6.3-14.9-12.6-22.5-18.7
	c-3.4-2.7-6.4-5.8-10.1-8c-1.1-2.1-3.3-3-5-4.4c-6.7-5.7-13.4-11.3-20.1-17c-7.3-6.1-14.6-12.3-22.1-18.3c-3.5-2.8-6.6-6-10.5-8.3
	l0,0c-0.4-0.5-0.7-1.1-1.2-1.5c-4.3-3.6-8.6-7.1-12.8-10.7c-5-4.2-10-8.4-15.1-12.5c-3.7-3-7.1-6.4-11.2-8.9
	c-0.3-0.4-0.5-0.9-0.8-1.2c-4.5-3.8-9-7.5-13.6-11.3c-3.2-2.6-6.3-5.3-9.5-8c-2.8-2.4-5.5-4.8-8.4-7.1c-6.3-5.1-12.6-10.2-18.8-15.4
	c-4.7-3.9-9.2-7.8-13.8-11.8c-0.9-0.8-1.9-1-3.1-1.1c-0.1,2.2-0.2,4.5-0.2,6.7c0,8.5-2,16.5-6.2,23.8c-1.1,1.9-2.4,3.8-3.8,5.5
	c-1.3,1.6-1.8,3.3-1.7,5.3c0.2,3.3-0.1,6.7,0.8,10c0.1,0.3,0.1,0.6,0.1,1c-0.3,5.5,0.5,10.9,1.2,16.2c0.8,6.2,0.6,12.4,1.5,18.6
	c0.6,4.4,0.9,8.9,1.2,13.3c0.1,1.1,0,2.2-0.1,3.4c-0.1,1.1-0.8,1.7-1.9,1.8c-0.3,0-0.6,0.1-1,0.1c-9.6-0.1-19.2-0.1-28.8-0.2
	c0,0.2-0.1,0.5-0.2,0.7c0.4,0.1,0.8,0.3,1.2,0.5c9.2,0,18.4,0,27.6,0c2.4,0,4.1,0.6,5.6,2.7c2.5,3.4,5.6,6.4,8.4,9.7
	c1.9,2.2,3.6,4.4,5.4,6.6c0.5,0.7,1.2,1,2,1.2l0,0c0.1,2.1,2.1,3.1,2.9,4.8c0.7,0.6,1.6,1.1,2.2,1.8c2.7,3.1,5.2,6.4,7.8,9.5
	c1.9,2.3,3.8,4.6,5.8,6.9c2.6,2.9,5.2,6,7.7,9c2.6,3.2,5.8,5.9,7.9,9.4c0.2,0.4,0.7,0.6,1.1,0.8c3.6,5.1,7.9,9.5,11.9,14.3
	c3.5,4.1,6.8,8.4,10.2,12.6c1.1,0.9,2.3,1.7,3.2,2.8c3.6,4.2,7.1,8.5,10.7,12.7c3.2,3.8,6.3,7.5,9.5,11.2c1.1,1.3,2.3,2.6,3.5,3.9
	c2.4,2.9,4.9,5.8,7.3,8.8c2.4,2.9,4.8,5.9,7.3,8.8c2.4,2.9,4.9,5.8,7.4,8.7c0.7,0.8,1.4,1.7,2.1,2.6c1.3,0.6,2.2,1.7,2.9,2.9
	c0.9,1.6,2.2,2.9,3.8,3.9c3.5,4.5,7,9.1,10.8,13.3c4.4,4.8,8.3,10.1,12.5,15c5.1,6.1,10.4,12.1,15.6,18.1c0.3,0.3,0.9,0.4,1.3,0.5
	l0,0c0.2,1.7,1.4,2.8,2.5,3.9c3.1,3,5.5,6.5,8.2,9.8c2.5,3,5,6.1,7.7,9c2.4,2.5,4.5,5.3,6.5,8.1c0.7,0.6,1.6,1.1,2.1,1.8
	c3.1,4,6.2,7.9,9.7,11.5c2.1,2.3,3.6,5.2,6.4,6.9l0,0c0.7,1.1,1.2,2.3,2,3.2c2.8,3.3,5.7,6.4,8.5,9.7c2.1,2.4,4.1,4.8,6.1,7.3
	c0.4,0.5,0.5,1.2,0.7,1.8c1.2,1.1,2.5,2,3.5,3.2c2.8,3.2,5.4,6.7,8.3,9.8c2.8,3,15.7,18.6,19.8,23.1c2.4,2.7,4.8,5.5,7.1,8.3
	c4.3,5.1,8.4,10.3,12.7,15.4c1.9,2.3,4,4.4,6.1,6.6c2.4,2.9,4.7,5.8,7.2,8.6c1,1.2,2.3,2.1,2.5,3.8c1,0.8,2,1.5,2.9,2.5
	c2.7,3.1,5.1,6.5,8,9.4c3.2,3.3,5.5,7.4,9.2,10.2l0,0c2.8,4.4,6.4,8.1,9.8,12.1c2.2,2.7,4.4,5.3,6.6,8c2.4,2.7,4.9,5.3,7.3,8
	c3.8,4.4,7.4,9,11.2,13.5c0.2,0.2,0.5,0.3,0.8,0.5l0,0c4.6,5.4,9.2,10.8,13.7,16.3c2.4,2.9,5.3,5.5,6.7,9.1c1.1,0,2.2-0.2,3.3,0
	C513.5,765,520.6,766.3,527.7,767.5L527.7,767.5z M240.2,302.8c-0.5,0.1-1,0.3-1.4,0.5C239.2,303,239.7,302.9,240.2,302.8z"/>
<g>
	<path class="st2" d="M816.2,782.2c3.2,2.4,6.4,4.7,9.6,7.2c3.1,2.3,5.8,5,8,8.2c4.1,6.1,3.7,12.1-1.1,17.6
		c-2.3,2.7-5.1,4.8-8.1,6.7c-5.4,3.4-11.3,5.9-17.3,8.3c-17.1,6.7-35,9.9-53.3,10.8c-12.2,0.6-24.3,0.6-36.4-0.2
		c-19.5-1.2-38.8-3.8-57.6-9.5c-5.2-1.6-10.3-3.4-15.1-6c-2.4-1.3-4.8-2.6-6.8-4.4c-2-1.7-4.1-2.2-6.6-2.1c-6.4,0-12.8-0.1-19.2-0.2
		c-49.9-0.7-99.8-1.4-149.7-2.1c-15.8-0.2-31.7-0.5-47.5-0.7c-1,0-1.9-0.1-2.9-0.2c1-1.3,2.5-1.9,3.9-2.7
		c20.1-11.5,40.2-22.9,60.4-34.4c8.7-5,17.4-10,26.2-15.1c1.1,0,2.2-0.2,3.3,0c7.1,1.2,14.2,2.4,21.2,3.6c0.1,1.6,0.2,3.2,0.2,4.7
		c0.2,4.8,0.3,9.5,0.5,14.3c0,1,0.2,1.9,1.5,1.9c1.1,0,2.3,0.2,2.7-1.2c0.3-0.9,0.5-1.8,0.8-2.7c1.4-5,2.7-10.1,4.1-15.1
		c2.4,0.4,4.9,0.7,7.3,1.1c-0.1,1.3-0.2,2.5-0.4,3.8c-0.5,3.9-1.1,7.9-1.5,11.8c-0.2,1.5,0.3,2.1,1.7,2.3c0.6,0.1,1.3,0.1,1.9,0.2
		c1.1,0.1,1.8-0.3,2.2-1.4c0.3-0.9,0.6-1.8,1-2.7c1.5-4.2,3-8.3,4.6-12.5c6.5,1,13.1,2,19.6,3.1c0.8,0.8,1.7,0.9,2.8,0.6
		c1,0.1,2,0.2,3,0.3c1.1,1,2.4,0.9,3.8,0.8c0.7,0.1,1.3,0.1,2,0.2c0.8,0.8,1.7,0.9,2.8,0.7c1,0.1,2,0.2,3,0.3
		c0.8,0.8,1.7,0.9,2.8,0.6c1.9,0.2,3.8,0.5,5.7,0.7c0.4,0.2,0.9,0.4,1.3,0.5c11,1.9,22,3.7,33,5.6c2.3,0.4,4.4,0.3,6.5-0.9
		c4.6-2.6,9.6-4.3,14.7-5.9c12.3-3.7,24.8-6.2,37.4-8.4c5.5-0.9,11-1.9,16.5-2.6c6.3-0.8,12.7-1.6,19-2.1c4.6-0.4,9.3-0.1,13.9-0.3
		c9.9-0.3,19.8,0.7,29.6,2.4c13.9,2.4,27.3,6.5,40,12.9c1.3,0.6,2.5,1.5,4,1.3l0.1,0.1C815.2,782,815.6,782.2,816.2,782.2z"/>
	
		<linearGradient id="SVGID_2_" gradientUnits="userSpaceOnUse" x1="442.3077" y1="367.1776" x2="150.3076" y2="-72.8224" gradientTransform="matrix(1 0 0 1 0 400)">
		<stop  offset="0" style="stop-color:#5F8298"/>
		<stop  offset="1" style="stop-color:#25455A"/>
	</linearGradient>
	<path class="st3" d="M495.9,754.3c-4.5-5.5-9.2-10.9-13.7-16.3c-0.3-0.2-0.6-0.2-0.8-0.5c-3.7-4.5-7.4-9-11.2-13.5
		c-2.3-2.8-4.9-5.4-7.3-8c-2.2-2.7-4.4-5.4-6.6-8c-3.3-4-6.9-7.7-9.8-12.1c-3.8-2.8-6.1-6.9-9.2-10.2c-2.8-3-5.3-6.3-8-9.4
		c-0.8-0.9-1.9-1.7-2.9-2.5c-0.2-1.7-1.5-2.7-2.5-3.8c-2.4-2.9-4.8-5.7-7.2-8.6c-2-2.2-4.2-4.3-6.1-6.6c-4.3-5.1-8.5-10.3-12.7-15.4
		c-2.3-2.8-4.7-5.6-7.1-8.3c-4-4.5-7.9-9.1-11.5-13.9c-3.5-2.3-5.4-6.2-8.3-9.2c-3-3.1-5.5-6.6-8.3-9.8c-1-1.2-2.3-2.1-3.5-3.2
		c-0.3,1.6-0.9,3-1.7,4.4c0.8-1.4,1.4-2.8,1.7-4.4c-0.2-0.6-0.3-1.3-0.7-1.8c-2-2.5-4.1-4.9-6.1-7.3c-2.8-3.2-5.7-6.4-8.5-9.7
		c-0.8-1-1.3-2.2-2-3.2c-2.8-1.6-4.2-4.6-6.4-6.9c-3.4-3.7-6.6-7.6-9.7-11.5c-0.6-0.7-1.4-1.2-2.1-1.8c-2.1-2.8-4.1-5.5-6.5-8.1
		c-2.7-2.9-5.2-5.9-7.7-9c-2.7-3.3-5.1-6.8-8.2-9.8c-1.1-1.1-2.4-2.1-2.5-3.9c-0.4-0.2-1-0.2-1.3-0.5c-5.2-6-10.4-12.1-15.6-18.1
		c-4.2-5-8.2-10.2-12.5-15c-3.9-4.3-7.4-8.8-10.8-13.3c-1.6-0.9-2.9-2.2-3.8-3.9c-0.7-1.2-1.6-2.2-2.9-2.9c0,0.8-0.1,1.5-0.3,2.1
		c0.2-0.7,0.3-1.4,0.3-2.1c-0.7-0.9-1.4-1.7-2.1-2.6c-2.4-2.9-4.9-5.8-7.4-8.7c-2.4-2.9-4.8-5.9-7.3-8.8c-2.4-2.9-4.9-5.8-7.3-8.8
		c-1.2-1.3-2.3-2.6-3.5-3.9c-3.2-3.7-6.4-7.5-9.5-11.2c-3.6-4.2-7.1-8.5-10.7-12.7c-0.9-1.1-2.1-1.9-3.2-2.8
		c-3.4-4.2-6.8-8.4-10.2-12.6c-4-4.8-8.3-9.2-11.9-14.3c-0.4-0.3-0.9-0.5-1.1-0.8c-2.1-3.6-5.3-6.2-7.9-9.4c-2.5-3-5-6.1-7.7-9
		c-2-2.2-3.9-4.6-5.8-6.9c-2.7-3.1-5.2-6.4-7.8-9.5c-0.6-0.7-1.5-1.2-2.2-1.8c-0.8-1.7-2.8-2.6-2.9-4.8c-0.8-0.1-1.4-0.5-2-1.2
		c-1.8-2.2-3.5-4.5-5.4-6.6c-2.8-3.2-5.9-6.3-8.4-9.7c-1.5-2.1-3.2-2.7-5.6-2.7c-9.2,0.1-18.4,0-27.6,0c0.5,0.7,0.9,1.3,1.4,2
		c6.7,10.5,13.3,20.9,19.9,31.4c3.7,5.8,7.2,11.6,10.9,17.3c0.9,1.4,1.6,3.2,3.3,4c0.2,0.6,0.3,1.3,0.6,1.8
		c3.8,6.1,7.6,12.1,11.4,18.2c3.8,5.9,7.6,11.7,11.4,17.6c1.9,2.9,3.7,6,5.5,8.9c5.3,8.5,10.7,16.9,16.1,25.4c0.5,0.8,1.1,1.6,1.9,2
		c0.3,0.7,0.5,1.5,0.9,2.2c5.6,8.8,11.3,17.7,16.9,26.5c6,9.4,11.9,18.8,17.9,28.2c2.1,3.2,3.9,6.6,6.5,9.4
		c2.5,5.4,6.1,10.1,9.3,15.1c11.2,17.7,22.6,35.3,33.8,52.9c5.5,8.6,10.9,17.3,16.4,25.9c0.8,1.2,1.5,2.4,2.7,3.3
		c0.5,1.7,1.5,3.1,2.5,4.6c3.3,5.2,6.6,10.5,10,15.8c5.4,8.5,10.8,16.9,16.2,25.4c0.5,0.8,1.3,1.4,1.9,2.1c0.6,1.8,1.8,3.4,2.8,5
		c6.3,9.9,12.6,19.9,18.9,29.8c5,7.9,10.1,15.8,15.2,23.7c0.3,0.3,0.5,0.7,0.8,1c6.3,10,12.7,20,19,29.9c0.2,0.4,0.7,0.7,1,1
		c0-1.6,0.3-3.1,1-4.4c-0.6,1.4-1,2.8-1,4.4c0.4,0.8,0.8,1.7,1.3,2.5c6,9.4,11.9,18.8,17.9,28.1c3.7,5.7,7.5,11.4,11.2,17.1
		c3.4,5.4,6.8,10.8,10.3,16.3c0.2,0.4,0.5,0.7,0.7,1.1c0.2,0.5,0.6,0.9,1.2,0.7c1-1.3,2.5-1.9,3.9-2.7
		c20.1-11.5,40.2-22.9,60.4-34.4c8.7-5,17.4-10,26.2-15.1C501.2,759.7,498.3,757.2,495.9,754.3z M250.2,473c0.3-0.4,0.5-0.8,0.7-1.2
		C250.7,472.1,250.4,472.6,250.2,473z M357.3,599.9c-0.3,0.5-0.6,0.9-0.9,1.4C356.7,600.8,357,600.4,357.3,599.9z"/>
	<path class="st4" d="M93.2,318.4c0,0.2-0.1,0.5-0.2,0.7c-8.4,0.6-7.6,0.3-7.1-7.3c0.3-3.3,0.5-6.7,0.8-10c0.4-5.6,1-11.1,1.6-16.7
		c0-0.5,0.1-1,0.1-1.4c0.4-6.1,0.7-12.1,1.2-18.1c0.3-3.7,1-7.3,1-11c0-2.2-0.4-3.9-1.8-5.7c-6.1-7.4-8.8-16.1-9.9-25.5
		c-1-7.9,0-15.6,2-23.2c1.4-5.5,4-10.5,7.5-14.9c4.6-5.7,10.5-9.2,18.2-8.8c5.1,0.3,9.2,2.4,12.9,5.7c3.8,3.4,6.2,7.7,8.3,12.2
		c1.8,3.9,2.9,8.1,3.8,12.4c0.2,1.1,0,2.2,0,3.3c-1.1-0.3-2.1-0.6-3.2-0.9c-0.3-0.7-0.5-1.3-0.8-2c-0.8-6.8-3.3-12.9-7.3-18.4
		c-1.7-2.4-3.8-4.3-6.4-5.7c-4.3-2.4-8.8-2.6-13.3-0.8c-0.9,0.3-1.1,1-1.3,1.9c-1.1-0.3-2.1-0.2-3.1,0.6c-3.9,3.3-6.6,7.4-8.5,12
		c-3.6,8.6-4.6,17.6-3.5,26.8c1.2,9.4,4,18.1,11.2,24.9c0.8,0.7,0.9,1.6,0.9,2.6c-0.1,1.6-0.2,3.2-0.3,4.8c-0.5,6.1-1,12.1-1.5,18.2
		c-0.9,11.2-1.8,22.3-2.7,33.5c-0.2,2.4-0.2,4.8-0.3,7.2C92,315.9,92.6,317.1,93.2,318.4z"/>
	<path class="st5" d="M93.2,318.4c-0.6-1.2-1.2-2.5-1.8-3.7c4.4,0,8.7,0,13.1,0c3.7,0,7.3,0,11,0.1c5.8,0,5.7,0,5.6-5.9
		c0-0.5,0-1-0.1-1.4c-0.9-2.8-0.7-5.7-0.8-8.5c0-1.1,0.1-2.3-0.2-3.3c-0.7-2.3-0.7-4.7-0.7-7.1c0-5.4-1.4-10.7-1.1-16.2
		c0-0.2,0-0.3-0.1-0.5c-1-2.8-0.7-5.7-0.8-8.5c0-1.1,0.2-2.3-0.1-3.3c-1-3.4-0.7-7-0.9-10.5c1-1.1,1.9-2.2,2.9-3.2
		c1.7-1.7,3-3.7,4.1-5.9c4.9-9.9,6.5-20.3,4.9-31.2c1.1,0.3,2.1,0.6,3.2,0.9c0.2,0.9,0.4,1.8,0.6,2.7c-0.1,2.2-0.2,4.5-0.2,6.7
		c0,8.5-2,16.5-6.2,23.8c-1.1,1.9-2.4,3.8-3.8,5.5c-1.3,1.6-1.8,3.3-1.7,5.3c0.2,3.3-0.1,6.7,0.8,10c0.1,0.3,0.1,0.6,0.1,1
		c-0.3,5.5,0.5,10.9,1.2,16.2c0.8,6.2,0.6,12.4,1.5,18.6c0.6,4.4,0.9,8.9,1.2,13.3c0.1,1.1,0,2.2-0.1,3.4c-0.1,1.1-0.8,1.7-1.9,1.8
		c-0.3,0-0.6,0.1-1,0.1C112.4,318.5,102.8,318.4,93.2,318.4z"/>
	<path class="st6" d="M552.8,562.5c-0.7-0.1-1.3-0.5-1.5-1.2C552,561.4,552.5,561.8,552.8,562.5z"/>
	<path class="st7" d="M816.2,782.2c-0.6,0-1-0.2-1-0.8C815.8,781.3,816.1,781.6,816.2,782.2z"/>
	<path class="st6" d="M553.8,563.4c-0.3-0.2-0.5-0.5-0.8-0.7C553.3,562.9,553.6,563.1,553.8,563.4z"/>
	<path class="st6" d="M550.2,561.4c0-0.3,0-0.7,0-1c0.5,0.1,0.9,0.4,1,0.9C550.9,561.3,550.6,561.4,550.2,561.4z"/>
	<path class="st4" d="M410.3,813.8c0.2,0.4,0.5,0.7,0.7,1.1C410.8,814.5,410.5,814.2,410.3,813.8z"/>
	<path class="st6" d="M554.9,564.3c-0.3-0.3-0.6-0.5-0.9-0.8C554.5,563.6,554.8,563.8,554.9,564.3z"/>
	<path class="st8" d="M348.8,717.9c0.3,0.3,0.5,0.7,0.8,1C349.3,718.6,349.1,718.2,348.8,717.9z"/>
	<path class="st9" d="M628.6,625.8c-0.3-0.1-0.4-0.3-0.6-0.5C628.4,625.2,628.6,625.4,628.6,625.8z"/>
	<path class="st9" d="M629.8,626.7c-0.3-0.2-0.5-0.5-0.8-0.7C629.4,626,629.7,626.3,629.8,626.7z"/>
	<path class="st10" d="M699,684.3c-0.5-0.1-0.8-0.3-0.9-0.8C698.6,683.5,698.9,683.8,699,684.3z"/>
	<path class="st10" d="M697.9,683.4c-0.4,0-0.7-0.3-0.8-0.7C697.5,682.7,697.8,682.9,697.9,683.4z"/>
	<path class="st10" d="M693.2,679.5c-0.5-0.1-0.8-0.3-0.9-0.8C692.8,678.7,693.1,679,693.2,679.5z"/>
	<path class="st10" d="M692.1,678.6c-0.4,0-0.7-0.3-0.8-0.7C691.8,677.9,692,678.1,692.1,678.6z"/>
	<path class="st10" d="M687.4,674.7c-0.5-0.1-0.8-0.3-0.9-0.8C687.1,673.9,687.3,674.2,687.4,674.7z"/>
	<path class="st10" d="M686.3,673.8c-0.4,0-0.7-0.3-0.8-0.7C686,673.1,686.3,673.3,686.3,673.8z"/>
	<path class="st11" d="M568.4,675.8c-0.4,0.3-0.7,0.7-1.1,0.9c-2.2,1.1-2.5,2.9-2.4,5.2c0.3,6.5,0.5,13.1,0.7,19.6
		c0.3,9.4,0.6,18.8,0.9,28.2c0.1,2.9-0.4,5.6-1.3,8.4c-3.6,10-7.1,20.1-10.6,30.2c-0.4,1-0.6,2.1-0.9,3.2c-1.5,4.2-3,8.3-4.6,12.5
		c-0.3,0.9-0.6,1.8-1,2.7c-0.4,1.1-1.1,1.5-2.2,1.4c-0.6-0.1-1.3-0.1-1.9-0.2c-1.4-0.2-1.9-0.8-1.7-2.3c0.5-3.9,1-7.9,1.5-11.8
		c0.2-1.3,0.3-2.5,0.4-3.8c1-7.1,1.8-14.3,3.2-21.3c2-9.6-0.2-18.7-2.2-27.9c0.2-1.1,0-2.1-0.6-4.1c0,2,0,3.1,0,4.1
		c-0.3,6-0.8,12-1,18c-0.1,3.4-0.6,6.6-1.4,9.8c-1.8,6.7-3.5,13.5-5.2,20.2c-1.4,5-2.7,10.1-4.1,15.1c-0.2,0.9-0.5,1.8-0.8,2.7
		c-0.4,1.5-1.7,1.2-2.7,1.2c-1.3,0-1.5-0.9-1.5-1.9c-0.2-4.7-0.4-9.5-0.5-14.3c-0.1-1.6-0.2-3.2-0.2-4.7c-0.1-7.8-0.2-15.6-0.4-23.4
		c-0.1-3.4-0.6-6.6-1.3-9.9c-2.2-10.1-4.1-20.3-6.3-30.5c-0.8-3.7-1.1-7.6-2.6-11.2c0.1-2.8-0.8-5.4-1.4-8c-0.6-2.6-0.5-5,0.6-7.4
		c2.3-5.3,4.5-10.6,6.6-15.9c0.7-1.8,1.7-3.4,3-4.8c7.4-8.4,14.8-16.7,22.1-25.2c1.6-1.9,3.5-3.1,5.9-3.8c3.4-1,6.7-2.1,10-3.3
		c1.6-0.6,3-0.5,4.6,0.3c4.3,2.2,8.6,4.3,12.9,6.4c1.7,0.8,3.5,1.5,5.2,2.3c0,2-1.8,2.8-2.8,4.2c-0.5,0.8-0.6,1.4,0,2.1
		c1.8,1.8,3.6,3.5,5.4,5.3c-1.1,1.6-2.6,2.8-4.2,3.9c-2.4,1.7-4.3,3.7-6,6.2c4.2,0,4.9-0.2,6.7-2.6c1.6-2,2.9-4.2,5.2-5.5
		c2.8,1.5,2.8,1.5,5.1-0.5c1.3-1.2,2.5-2.4,3.7-3.6c0.8-0.8,1.6-1.5,2.8-1.7c0.2,0.2,0.5,0.4,0.7,0.7c0.3,0.2,0.5,0.4,0.8,0.5
		c1.2,0.6,2.1,1.4,1.6,3c-0.3,0.9-0.4,1.9,0.2,2.7c-2.1,1.1-4.1,2.3-6.2,3.4c-3,1.5-5.6,3.5-7.9,5.9c-1.6,1.6-2.7,3.4-2.7,5.8
		c0,1-0.1,1.9-0.9,2.6c-1.1-0.6-2.2-1.3-3.3-1.9c-1.3-0.7-3.8-0.3-4.7,0.8c-0.3,0.3-0.3,0.9-0.3,1.3c0.1,0.8,0.3,1.5,0.5,2.3
		c-1.5-0.3-2.8,0.1-4.2,0.5c-7.1,1.9-14.1,3.8-21.2,5.7c-0.8,0.2-1.5,0.4-2.3,0.7s-1.2,1-1.2,1.9c0,1,0.2,1.9,0.8,2.7s1.3,1.4,2.4,1
		c1.1-0.3,2.1-0.7,3.2-1C561.1,677.8,564.6,676.2,568.4,675.8z"/>
	<path class="st12" d="M708.2,795.7c0.4,0.1,1.1,0.2,1.2,0.4c2,4,3.9,8.1,5.7,12.1c0.3,0.6,0,1.3-0.8,1.4c-0.6,0.1-1.3,0.2-1.9,0.2
		c-10.4,0.7-20.7,1.3-31.1,2.2c-7.7,0.7-15.3,0-22.9-0.7c-8.7-0.8-17.5-1.5-26.3-2.2c-10.3-0.9-20.7-1.8-31-2.6
		c-8.8-0.7-17.5-1.4-26.3-2.2c-10.3-0.9-20.7-1.8-31-2.6c-2.1-0.2-4.1-0.3-6.2-0.4c-1.9-0.2-3.8-0.1-5.6-0.9
		c1.9-0.4,3.8-0.9,5.6-1.3c3.5,0.1,7,0.2,10.5,0.3c7.9,0.3,15.7,0.6,24.1,0.9c-2.9-1.2-5.3-1.6-7.8-1.7c-2.5-0.1-5.1,0.2-7.5-0.7
		c0.8-0.4,2.5,0.1,2-1.8c-0.1-0.5,0.5-0.7,1-0.7c1,0,1.9,0,2.9,0c46.9,0,93.8,0,140.7,0C705,795.3,706.6,795.1,708.2,795.7z"/>
	<path class="st13" d="M537.1,768.8c1.7-6.7,3.4-13.5,5.2-20.2c0.9-3.2,1.3-6.5,1.4-9.8c0.2-6,0.7-12,1-18h0.3l0.3-0.1
		c2,9.2,4.2,18.3,2.2,27.9c-1.4,7-2.2,14.2-3.2,21.3C541.9,769.5,539.5,769.2,537.1,768.8z"/>
	<path class="st0" d="M708.2,795.7c-1.5-0.6-3.2-0.4-4.7-0.4c-46.9,0-93.8,0-140.7,0c-1,0-1.9,0-2.9,0c-0.5,0-1.1,0.2-1,0.7
		c0.4,1.9-1.2,1.4-2,1.8c-2.2-0.1-4.4-0.2-6.6-0.3c-2.3-0.6-4.6-1.3-6.9-1.8c-1.1-0.3-1.6-0.8-1.7-2c0-1.2,0.3-2.2,1.5-2.7
		c0.7-0.3,1.5-0.5,2.2-0.9c1.1-0.5,2.1-0.3,3.2,0.3c1.8,1.1,3.6,2,5.3,3.2c1.9,1.3,4,1.8,6.3,1.7c1.3-0.1,2.6,0,3.8,0
		c46.3,0,92.6,0,138.9,0C704.7,795.5,706.4,795.6,708.2,795.7z"/>
	<path class="st0" d="M537.7,799.1c-1.9,0.4-3.8,0.9-5.6,1.3c-1.6,0.2-3.2,0.2-4.8-0.3c-0.6-2.5-0.4-5-0.2-7.5
		c0.1-1.4,1.1-2.1,2.6-2.3c0.5,0,1,0,1.4,0c2.5,0,2.7,0.1,3.5,2.3c0.7,1.9,1,4,2.3,5.7C536.9,798.8,537.4,798.9,537.7,799.1z"/>
	<path class="st7" d="M579.1,775.5c1.3,0,2.7-0.3,3.8,0.8C581.5,776.4,580.2,776.5,579.1,775.5z"/>
	<path class="st7" d="M573.3,774.5c1-0.1,2-0.1,2.8,0.6C575,775.4,574.1,775.3,573.3,774.5z"/>
	<path class="st7" d="M584.8,776.4c1-0.1,2-0.1,2.8,0.7C586.6,777.3,585.6,777.2,584.8,776.4z"/>
	<path class="st7" d="M590.6,777.4c1-0.1,2-0.1,2.8,0.6C592.3,778.3,591.4,778.2,590.6,777.4z"/>
	<path class="st0" d="M587.8,664.8c0.7-0.7,0.9-1.6,0.9-2.6c-0.1-2.4,1.1-4.2,2.7-5.8c2.3-2.4,4.9-4.4,7.9-5.9
		c2.1-1.1,4.1-2.3,6.2-3.4c2.5-0.9,4.9-1.7,7.4-2.6c3.7-0.8,7.5-1.6,11.3-1.9c3.4-0.3,6.7-0.2,10,0.6s5.9,2.4,6.5,6.1
		c0.1,0.8,0.4,1.5,0.7,2.3c1.4,3.4,0.3,6.2-2.1,8.7c-1.9,2-4,3.6-6.4,5c-3.6,2.2-7.3,3.8-11.3,5.2c-0.4-1.1-1-2.2,0.2-3.2
		c4.9-1.3,9.4-3.3,13.1-6.9c0.5-0.1,0.8-0.3,1-0.8c0.6-0.1,0.9-0.4,1-1l0,0c1.3-0.5,2-1.6,2.5-2.8c1-2.3,0.4-4-1.8-5.2
		c-1.8-1-3.9-1.5-5.9-1.6c-5.7-0.3-11.4,0.4-16.8,2.3c-0.1,0-0.2,0.2-0.3,0.4c-0.3,0-0.6,0-0.9,0.2c-0.9-0.3-1.7-0.1-2.4,0.6
		c-5.5,1.3-10.4,3.8-14.9,7.1c-1.3,0.9-2.5,2.1-3.4,3.3c-2.7,3.4-1.8,6.3,2.3,7.7c0.3,0.1,0.6,0.2,0.9,0.2c2.7,0.4,5.3,1,8,0.6
		c3-0.5,6-0.9,9-1.3c0.4-0.1,1.1-0.2,1.1,0.5c0,0.4-0.2,0.9-0.4,1.3c-0.5,0.9-1.6,1-2.3,1.6c-0.4,0.1-0.7,0.2-1.1,0.3
		c-3.6,0-7.3,0.1-10.9,0.1c-2.1,0-4.1-0.5-6-1.4c-1.5-0.7-2.7-1.7-2.9-3.5C590.5,666.9,588.6,666.2,587.8,664.8z"/>
	<path class="st14" d="M602.1,640.2c-1.1,0.2-2,1-2.8,1.7c-1.2,1.2-2.5,2.4-3.7,3.6c-2.2,2.1-2.2,2.1-5.1,0.5
		c-0.3-0.9-0.9-1.6-1.8-2c-1.8-1.8-3.6-3.5-5.4-5.3c-0.7-0.7-0.6-1.3,0-2.1c1-1.4,2.8-2.2,2.8-4.2c2.9-1.1,4.6-3.6,6.5-5.9
		c1.4,0.2,1.8-0.7,2-1.8c1,0.1,1.8,0.5,2.5,1.2c1.4,1.5,2.8,3,4,4.5c1.5,1.8,2.9,3.7,5,4.8c-0.6,1.4-1.8,2.2-3,2.9
		C602.4,638.7,602.1,639.4,602.1,640.2z M597.7,638c-0.2-0.2-0.5-0.5-0.7-0.5c-1.5,0-3.1,1.2-3.4,2.6c-0.1,0.6,0,1.3,0.5,1.7
		c0.6,0.5,1.1,0.2,1.5-0.4c0.7-0.9,1.4-1.7,2-2.6C597.8,638.7,597.7,638.3,597.7,638z"/>
	<path class="st15" d="M594.6,624.8c-0.2,1.1-0.6,2.1-2,1.8c0-0.5,0-1,0-1.4c0-4.1,0-4.1,3.9-6.6c1.3,1.3,2.4,2.8,3.9,4
		c1.4,1.2,3.1,2.2,4.7,3.3c1.4,0.9,2.4,2,3.1,3.5c1.6,3.4,1,6.5-1.8,9c-1.1,0.9-2.3,1.7-3.4,2.5c-0.2-0.2-0.5-0.4-0.7-0.7
		c0-0.8,0.3-1.5,1-2c1.2-0.7,2.4-1.5,3-2.9c1.1-1.2,0.9-2.6,0.5-4c-0.4-1.5-1.3-2.8-2.7-3.7c-2.6-1.7-5.3-3.5-7.4-5.7
		c-0.1-0.1-0.3-0.2-0.4-0.2c-0.5-0.2-0.9,0-1.2,0.4C594.4,622.9,594.4,623.8,594.6,624.8z"/>
	<path class="st7" d="M636.7,654.8c-2.3-0.3-4.7-0.4-7-1c-1.5-0.4-3.2-0.4-4.7-0.2c-4.2,0.7-8.5,0.8-12.5,2.3
		c-1.2,0.5-2.5,1.3-4.4,0.6c1.6-1.7,4.3-1.5,4.9-3.7c-0.6-0.2-1.1-0.3-1.7-0.5c-5.5,1.3-10.4,3.8-14.9,7.1c-1.3,0.9-2.5,2.1-3.4,3.3
		c-2.7,3.4-1.8,6.3,2.3,7.7c0.3,0.1,0.6,0.2,0.9,0.2c2.7,0.4,5.3,1,8,0.6c3-0.5,6-0.9,9-1.3l0,0c0.6-0.7,1.4-1.2,2.3-1.4
		c0.5-0.1,1-0.2,1.5-0.4c0.2-0.1,0.5-0.2,0.7-0.2c0.5-0.2,0.5-0.2-0.2,0.1c0.8-0.1,1.7-0.9,2.4-1.4c-1.1-0.5-1.4-1.2-1-2.2
		c0-0.2,0.1-0.3,0.2-0.5c2.2-5.7,5.6-7.2,11.3-5c1.5,0.6,2.9,1.2,4.6,1.3c0.5-0.1,0.8-0.3,1-0.8c0.1-0.6,0.5-0.9,1-1l0,0
		C636.8,657.3,636.8,656,636.7,654.8z"/>
	<path class="st0" d="M568.4,675.8c-3.8,0.5-7.4,2-11,3.1c-1.1,0.3-2.1,0.7-3.2,1c-1.1,0.3-1.8-0.2-2.4-1c-0.6-0.8-0.8-1.7-0.8-2.7
		c0-0.8,0.3-1.6,1.2-1.9c0.7-0.3,1.5-0.5,2.3-0.7c7.1-1.9,14.1-3.8,21.2-5.7c1.4-0.4,2.8-0.8,4.2-0.5c0.6,1.1,1.2,2.3,1.8,3.4
		C577.3,672.4,572.6,673.5,568.4,675.8z"/>
	<path class="st11" d="M590.7,668.8c0.3,1.8,1.5,2.8,2.9,3.5c1.9,0.9,3.9,1.4,6,1.4c3.6,0,7.3,0,10.9-0.1c0,0.8,0,1.7-0.6,2.2
		c-0.4,0.4-1.2,0.5-1.7,0.5c-4.9,0-9.9-0.1-14.8-0.1c-1.5,0-2.8-0.5-4-1.3s-2.2-1.9-3.7-2.2c0-0.8,0.3-1.5,1-1.9
		C587.9,670.1,589.3,669.5,590.7,668.8z"/>
	<path class="st14" d="M590.7,668.8c-1.4,0.7-2.8,1.4-4.1,2.1c-0.7,0.4-1,1.1-1,1.9c-1.6-0.2-2.5-1.5-3.8-2.1
		c-0.6-1.1-1.2-2.3-1.8-3.4c-0.2-0.8-0.4-1.5-0.5-2.3c0-0.4,0-1,0.3-1.3c0.9-1.1,3.5-1.5,4.7-0.8c1.1,0.6,2.2,1.2,3.3,1.9
		C588.6,666.2,590.5,666.9,590.7,668.8z"/>
	<path class="st2" d="M104.5,314.6c-4.4,0-8.7,0-13.1,0c0.1-2.4,0.1-4.8,0.3-7.2c0.9-11.2,1.8-22.3,2.7-33.5
		c0.5-6.1,1-12.1,1.5-18.2c0.1-1.6,0.2-3.2,0.3-4.8c0.1-1-0.1-1.9-0.9-2.6c-7.1-6.8-10-15.5-11.2-24.9c-1.2-9.2-0.1-18.2,3.5-26.8
		c1.9-4.6,4.6-8.8,8.5-12c1-0.8,1.9-0.9,3.1-0.6c1.8,2,3.6,3.9,5.5,5.9c0.1,0.3,0.1,0.6,0.3,0.9c4.5,7.2,6.6,15.2,6.9,23.6
		c0.4,12.5-2.3,24.1-10.9,33.7c-1.3,0.5-1.5,1.5-1.4,2.7c0.6,8.1,1.3,16.2,2,24.3c0.8,9.8,1.7,19.7,2.5,29.5
		C104,307.9,104.2,311.3,104.5,314.6z"/>
	<path class="st12" d="M100.8,248.1c8.6-9.6,11.4-21.1,10.9-33.7c-0.3-8.4-2.4-16.4-6.9-23.6c-0.2-0.3-0.2-0.6-0.3-0.9
		c0.7,0.2,1.6,0.3,2.2,0.7c2,1.5,4,3.1,5.9,4.7c2.8,2.3,5.3,5,8.3,7c2.2,1.5,3.8,3.8,6.4,4.7c0.3,0.7,0.5,1.3,0.8,2
		c1.6,10.9,0.1,21.3-4.8,31.2c-1.1,2.2-2.4,4.1-4.1,5.9c-1,1-1.9,2.1-2.9,3.2c-3.9,0-7.8,0-11.7,0
		C103.2,249.4,101.7,249.4,100.8,248.1z"/>
	<path class="st0" d="M127.3,207.1c-2.6-0.9-4.2-3.2-6.4-4.7c-3-2-5.5-4.7-8.3-7c-1.9-1.6-3.9-3.2-5.9-4.7c-0.6-0.4-1.5-0.5-2.2-0.7
		c-1.8-2-3.6-3.9-5.5-5.9c0.1-0.8,0.4-1.5,1.3-1.9c4.6-1.8,9-1.6,13.3,0.8c2.5,1.4,4.7,3.3,6.4,5.7
		C124,194.2,126.5,200.4,127.3,207.1z"/>
	<path class="st16" d="M100.8,248.1c1,1.3,2.4,1.3,3.8,1.3c3.9,0,7.8,0,11.7,0c0.1,3.5-0.1,7,0.9,10.5c0.3,1,0.1,2.2,0.1,3.3
		c0.1,2.9-0.2,5.8,0.8,8.5c0.1,0.1,0.1,0.3,0.1,0.5c-0.3,5.4,1.1,10.8,1.1,16.2c0,2.4,0,4.8,0.7,7.1c0.3,1,0.2,2.2,0.2,3.3
		c0.1,2.9-0.1,5.7,0.8,8.5c0.1,0.4,0.1,0.9,0.1,1.4c0.1,5.9,0.3,6-5.6,5.9c-3.7,0-7.3,0-11-0.1c-0.2-3.3-0.4-6.7-0.7-10
		c-0.8-9.8-1.6-19.7-2.5-29.5c-0.7-8.1-1.3-16.2-2-24.3C99.3,249.6,99.5,248.6,100.8,248.1z"/>
	<path class="st2" d="M588.8,644c0.8,0.5,1.5,1.1,1.8,2c-2.4,1.2-3.7,3.5-5.2,5.5c-1.9,2.4-2.6,2.6-6.7,2.6c1.7-2.5,3.7-4.6,6-6.2
		C586.2,646.8,587.6,645.6,588.8,644z"/>
	<path class="st17" d="M545.4,720.6l-0.3,0.1h-0.3c0-1,0-2.1,0-4.1C545.4,718.5,545.6,719.6,545.4,720.6z"/>
	<path class="st13" d="M621.7,667.2c-0.5-0.1-1-0.1-1.4-0.3c-1.5-0.5-1.9-1.2-1.5-2.4c0-0.2,0.1-0.3,0.2-0.5c2.2-5.7,5.6-7.2,11.3-5
		c1.5,0.6,2.9,1.2,4.6,1.3C631.1,663.9,626.6,666,621.7,667.2z"/>
	<path class="st2" d="M636.7,654.8c-2.3-0.3-4.7-0.4-7-1c-1.5-0.4-3.2-0.4-4.7-0.2c-4.2,0.7-8.5,0.8-12.5,2.3
		c-1.2,0.5-2.5,1.3-4.4,0.6c1.6-1.7,4.3-1.5,4.9-3.7c0.4-0.2,0.7-0.5,0.7-1.1c0.3-0.1,0.6-0.2,0.9-0.2l-0.3,0.1l0.1,0.3
		c1.2,1.6,1.2,1.6,2.6-0.2c2.8-0.2,5.5-0.3,8.3-0.5c2.2,0.4,4.4,0.3,6.6,0.1C633.8,652,636.1,652.2,636.7,654.8z"/>
	<path class="st13" d="M636.7,654.8c-0.7-2.6-2.9-2.8-4.9-3.3c-2.2-1.2-4.4-1.2-6.6-0.1c-2.8,0.2-5.5,0.3-8.3,0.5
		c-0.9,0.1-1.7,0.1-2.6,0.2l-0.1-0.3l0.3-0.1c0.1-0.1,0.2-0.3,0.3-0.4c5.5-1.9,11.1-2.6,16.8-2.3c2.1,0.1,4.1,0.5,5.9,1.6
		c2.2,1.2,2.8,2.9,1.8,5.2c-0.5,1.2-1.2,2.3-2.5,2.8C636.8,657.3,636.8,656,636.7,654.8z"/>
	<path class="st13" d="M613.7,651.8c0,0.5-0.3,0.8-0.7,1.1c-0.6-0.1-1.1-0.3-1.7-0.5C612,651.7,612.7,651.5,613.7,651.8z"/>
	<path class="st13" d="M635.8,659.6c0.1-0.6,0.5-0.9,1-1C636.8,659.1,636.4,659.4,635.8,659.6z"/>
	<path class="st9" d="M594.6,624.8c-0.2-0.9-0.3-1.9,0.3-2.7c0.3-0.4,0.7-0.6,1.2-0.4c0.1,0.1,0.3,0.1,0.4,0.2
		c2.2,2.3,4.8,4,7.4,5.7c1.4,0.9,2.3,2.2,2.7,3.7c0.4,1.4,0.6,2.8-0.5,4c-2.2-1.1-3.6-3-5-4.8c-1.3-1.6-2.7-3-4-4.5
		C596.4,625.2,595.6,624.8,594.6,624.8z"/>
	<path class="st5" d="M597.7,638c0,0.3,0.1,0.7-0.1,0.9c-0.6,0.9-1.3,1.7-2,2.6c-0.4,0.5-0.9,0.9-1.5,0.4c-0.5-0.4-0.7-1.1-0.5-1.7
		c0.3-1.4,1.9-2.6,3.4-2.6C597.3,637.5,597.5,637.8,597.7,638z"/>
	<path class="st7" d="M625.2,651.4c2.2-1.1,4.4-1.1,6.6,0.1C629.6,651.7,627.4,651.8,625.2,651.4z"/>
	<path class="st7" d="M614.3,652.1c0.9-0.1,1.7-0.1,2.6-0.2C615.5,653.7,615.5,653.7,614.3,652.1z"/>
</g>
<path class="st14" d="M620.1,674.8c-0.2-1.5-0.3-3.1-0.5-4.6c-0.1-0.8-0.7-1.4-1.4-1.6c0.7-1.4,2.3-1.8,3.3-2.8
	c1.3-0.2,2.6-0.3,3.8-0.5c0.8,0.1,1.6,0.2,2.3,0.4c0.4,0.1,0.9,0.4,1.1,0.7c0.7,1.2,0.1,3.8-1,4.7c-0.9,0.8-1.9,1.6-2.9,2.4
	C623.2,673.8,621.9,675.3,620.1,674.8z"/>
</svg>
