<?xml version="1.0" encoding="utf-8"?>
<!-- Generator: Adobe Illustrator 19.2.1, SVG Export Plug-In . SVG Version: 6.00 Build 0)  -->
<svg version="1.1" id="Layer_1" xmlns="http://www.w3.org/2000/svg" xmlns:xlink="http://www.w3.org/1999/xlink" x="0px" y="0px"
	 viewBox="0 0 960 960" style="enable-background:new 0 0 960 960;" xml:space="preserve">
<style type="text/css">
	.st0{fill:#9797AA;}
	.st1{fill:#D0453E;}
	.st2{fill:#FDFDF5;}
	.st3{fill:#E3DFDF;}
	.st4{fill:#2086A9;}
	.st5{fill:#D2CDBA;}
	.st6{fill:#ECEADF;}
	.st7{fill:#ECB64B;}
	.st8{fill:#191919;}
	.st9{fill:#A42D2C;}
	.st10{fill:#F9F9F1;}
	.st11{fill:#437F9C;}
	.st12{fill:#7A7884;}
	.st13{fill:#E4A346;}
	.st14{fill:#443E3E;}
	.st15{fill:#AAA997;}
	.st16{fill:#A95D30;}
</style>
<path class="st0" d="M972.4-19.7c0.4,0,0.8,0,1.1,0c0,0.8-0.1,1.5-0.1,2.3c0,328.3,0,656.5,0,984.8c0,0.9,0,1.8,0.1,2.7
	c-329,0-658,0-987,0c0-329.8,0-659.5,0-989.3c1.3,0,2.7,0,4,0c325.9,0,651.8,0,977.8,0c1,0,1.9,0,2.9,0
	C971.6-19.3,972.1-19.4,972.4-19.7z"/>
<g>
	<path class="st1" d="M826.7,585c9.1,0,18.2,0.1,27.2,0.1c1,0,2.1,0.1,3.1,0.1c-3.5,5.3-6.9,10.5-10.4,15.8
		c-1.1,1.7-1.6,3.4-1.6,5.4c0,28.1,0,56.3,0,84.4c0,5.8,0,11.5,0,17.3c0,1.2,0.2,2.3,1,3.3c3.6,4.4,7.2,8.7,11,12.9
		c-1,0-2.1,0.1-3.1,0.1c-22.7,0-45.4,0-68.2,0c-0.9,0-1.8,0-2.6,0.1c-4.5-0.1-8.9-0.2-13.4,0c-1,0-2.1-0.1-3.1-0.1
		c-19.4,0-38.9,0-58.3,0c-3.2,0-3,0.2-3-3c0-44.4,0-88.8,0-133.1c0-3.2-0.2-3,3-3c10.3,0,20.6,0,30.9,0c0,2.6,0.6,5.1,0.7,7.7
		c-1,3.8-0.3,6.2,2.4,8.2h-0.1c0.1,0.1,0.2,0.3,0.3,0.4c2,1.1,4.1,1.4,6.1,0c2.7-1.7,3.5-4.2,3.1-7.1c-0.4-2.9-2.2-4.8-5.1-5.6
		c-0.2-1.2-0.7-2.3-0.5-3.5c1,0,2.1,0,3.1,0c6.5,0,12.9-0.1,19.4-0.1c2.3,0.1,4.5,0.2,6.8-0.1c2.5,0.2,5.1,0.1,7.6,0.1
		c1.6,0,3.3,0.1,4.9,0.1c-0.6,1.9-1.6,3.6-2.5,5.3c-1.2,0.3-2,1.2-2.7,2.2c-1.8,2.5-1.6,6.2,0.4,8.2c1.7,2.7,3.9,3.3,6.6,2.1
		c1.9-0.2,2.9-1.6,3.6-3.1c1.2-2.5,0.9-4.9-0.6-7.2c1-2.9,2.5-5.4,4.7-7.6c6.9,0.1,13.8,0.2,20.7-0.1
		C821,585.2,823.8,585.1,826.7,585z"/>
	<path class="st2" d="M433.2,546.6c-0.6,1-0.4,2.2-0.5,3.3c-0.1,1.2-0.4,1.7-1.7,1.7c-3.1-0.1-3.1,0-3.8,3.1
		c-0.3,1.5-0.7,2.9-1.1,4.4c-0.4,1.6-0.3,1.8,1.3,2.3c3.2,0.9,2.7,1.2,1.8,3.8c-0.7,2-1.5,3.9-2.3,5.8c-0.4,1-0.9,1.3-2,0.8
		c-2.8-1.2-2.9-1.2-4.4,1.5c-0.8,1.5-1.6,2.9-2.5,4.4c-0.6,1-0.6,1.6,0.5,2.3c2.6,1.8,2.6,1.9,0.7,4.4c-1.2,1.7-2.6,3.2-3.9,4.9
		c-0.6,0.7-1.1,0.8-1.8,0.1c-0.1-0.1-0.2-0.2-0.4-0.3c-2.2-2.2-2.1-2.1-4.3,0.1c-1.4,1.4-2.8,2.7-4.2,3.9c-0.7,0.6-0.7,1.2-0.1,1.8
		c0.1,0.1,0.1,0.1,0.2,0.2c1.9,2.5,1.9,2.6-0.5,4.4c-1.6,1.2-3.3,2.3-4.9,3.4c-0.9,0.6-1.5,0.5-2.2-0.5c-0.5-0.8-0.8-2.3-1.9-2.3
		c-0.9,0-1.9,0.8-2.8,1.3c-1.4,0.7-2.8,1.5-4.3,2.1c-1.1,0.5-1.4,1-0.9,2.2c1.2,2.9,1.1,3-1.9,4c-1.9,0.7-3.8,1.2-5.7,1.9
		c-1.1,0.4-1.6,0-1.9-1.1c-0.9-3-0.9-3-3.9-2.5c-1.8,0.3-3.6,0.7-5.4,0.9c-1.1,0.1-1.3,0.7-1.2,1.6c0.1,1,0.8,2.1,0,3
		c-0.7,0.7-1.8,0.3-2.8,0.5c-2,0.4-4,0.2-6,0.2c-1.5,0-1.7-0.3-1.6-1.7c0.3-2.9,0.9-3-2.9-3.4c-1.8-0.2-3.5-0.4-5.2-0.6
		c-1.2-0.2-1.7,0.3-2,1.4c-0.8,2.9-0.8,2.9-3.9,2.1c-1.9-0.5-3.8-1.1-5.8-1.6c-1-0.3-1.2-0.8-0.9-1.8c0.9-3.2,0.8-3.1-2.1-4.3
		c-1.6-0.6-3.1-1.3-4.6-2.1c-1-0.5-1.6-0.3-2.1,0.7c-0.5,0.9-0.6,2.2-1.7,2.5c-1,0.2-1.8-0.8-2.7-1.3c-1.6-1-3.2-2.1-4.8-3.1
		c-1.1-0.6-1.1-1.3-0.5-2.3c1.6-2.5,1.6-2.5-0.8-4.5c-1.3-1.1-2.6-2.2-3.8-3.3c-0.8-0.7-1.3-1-2.2-0.1c-0.7,0.7-1.3,2-2.3,1.9
		c-1.2-0.1-1.8-1.4-2.6-2.3c-1.3-1.4-2.4-3-3.7-4.4c-0.6-0.7-0.5-1.2,0.2-1.8c0.8-0.7,2.2-1,2.2-2.3c0-1.1-1-1.8-1.5-2.7
		c-0.8-1.4-1.7-2.7-2.5-4.1c-0.5-0.9-1.1-1.1-2.1-0.6c-2.9,1.4-3,1.3-4.4-1.7c-0.8-1.7-1.5-3.4-2.2-5.1c-0.5-1.1-0.3-1.8,0.9-2.3
		c0.9-0.4,2.3-0.3,2.6-1.4c0.2-0.9-0.5-1.8-0.7-2.7c-0.5-1.7-0.9-3.4-1.3-5.1c-0.2-0.9-0.7-1.3-1.7-1.1c-3.4,0.6-3.3,0.5-3.8-2.8
		c-0.3-1.9-0.4-3.8-0.6-5.7c-0.2-1.2,0.2-1.6,1.4-1.7c3.1-0.3,3.1-0.3,3.1-3.6c0-1.6,0-3.2,0.1-4.8c0.1-1.2-0.2-1.9-1.5-1.8
		c-0.2,0-0.3,0-0.5,0c-2.5-0.4-2.7-0.6-2.2-3.1c0.4-2.2,0.9-4.4,1.2-6.6c0.2-1.1,0.7-1.2,1.7-1.1c1,0.2,2.2,1.2,3.1,0.3
		c0.7-0.7,0.7-1.9,1-2.9c0.5-1.5,1-3.1,1.6-4.5c0.4-1,0.3-1.6-0.8-2.1c-0.9-0.4-2.3-0.4-2.6-1.5c-0.3-1.1,0.6-2.1,1.1-3.1
		c0.8-1.7,1.8-3.4,2.6-5.1c0.5-0.9,1-1,1.9-0.6c1,0.5,1.9,1.7,2.9,1.1c0.8-0.4,1.2-1.6,1.8-2.5c1-1.4,1.9-2.8,2.9-4.1
		c0.6-0.7,0.5-1.3-0.2-1.8c-0.2-0.1-0.4-0.3-0.5-0.5c-2.1-1.9-2.1-1.9-0.3-3.9c1.4-1.5,2.9-3,4.3-4.5c0.8-0.9,1.5-0.9,2.4,0
		c2.1,2.1,2.1,2,4.5,0.2c1.4-1.1,2.8-2.2,4.2-3.2c1-0.7,1-1.3,0.4-2.2c0-0.1-0.1-0.1-0.1-0.2c-2-2.8-1.6-2.5,1.1-4.2
		c1.7-1.1,3.5-1.9,5.2-2.9c0.9-0.5,1.6-0.5,2.1,0.6c0.4,0.9,0.5,2.2,1.6,2.6c1,0.3,1.9-0.6,2.9-1c1.6-0.5,3.1-1.2,4.7-1.7
		c1-0.3,1.5-0.8,1.1-1.9c-1.2-3.2-1.1-3.2,2.4-4c1.9-0.4,3.7-0.9,5.6-1.3c1.5-0.3,1.6-0.1,1.9,1.4c0.1,0.3,0.1,0.6,0.1,1
		c0.4,1.9,0.6,2.2,2.5,1.8c2-0.4,4-0.3,6-0.4c1.7-0.1,1.7-0.2,1.9-1.8c0.1-0.9-0.7-2.1,0.2-2.7c0.8-0.6,2-0.2,3-0.2
		c2.1-0.1,4.1,0.4,6.2,0.5c0.9,0.1,1.3,0.5,1.1,1.4c0,0.1,0,0.2,0,0.2c-0.3,3.2-0.3,3.1,2.7,3.7c1.7,0.3,3.4,0.7,5.1,1.2
		c1,0.3,1.5-0.1,1.8-1c0-0.1,0-0.2,0.1-0.2c1.1-3,1.1-3,4-1.9c1.8,0.7,3.6,1.4,5.4,2.1c1.1,0.4,1.5,1,1,2.2
		c-0.4,0.9-1.4,1.8-0.9,2.8c0.4,0.8,1.6,1,2.4,1.4c1.5,0.8,3,1.6,4.4,2.5c1,0.6,1.6,0.6,2.4-0.5c1.8-2.5,1.9-2.5,4.4-0.7
		c1.7,1.2,3.3,2.6,4.9,3.9c0.8,0.6,0.8,1.2,0.1,2c-0.7,0.8-2.1,1.4-1.8,2.6c0.2,0.9,1.4,1.5,2.1,2.2c1.2,1.2,2.3,2.5,3.4,3.7
		c0.7,0.9,1.4,0.9,2.2,0.1c0.1-0.1,0.1-0.1,0.2-0.2c2.3-1.9,2.3-1.9,4.1,0.5c1.2,1.7,2.4,3.4,3.6,5.1c0.6,0.8,0.7,1.5-0.4,2.2
		c-0.9,0.5-2.2,0.8-2.4,1.8c-0.2,1,0.9,1.8,1.3,2.7c0.7,1.5,1.5,3,2.2,4.5c0.4,1,0.9,1.3,2,0.9c3.1-1.2,3.1-1.1,4.2,2
		c0.7,1.9,1.2,3.8,1.9,5.7c0.3,1,0,1.5-1,1.8s-2.4,0-2.9,1.2c-0.4,0.9,0.3,2,0.5,3c0.2,1.3,0.6,2.7,0.7,4s0.7,1.6,1.9,1.6
		c1,0,2.1-0.3,3,0.3c-0.2,1.6,0.5,3.1,0.5,4.7C433.1,540.8,433.2,543.7,433.2,546.6z M370.3,517.3c0-5.6-4.5-10.2-10.1-10.3
		c-5.7-0.1-10.4,4.6-10.4,10.3c0,5.6,4.7,10.2,10.3,10.2C365.7,527.5,370.3,522.9,370.3,517.3z M360,554.8
		c-5.7,0-10.2,4.5-10.2,10.1s4.5,10.2,10.2,10.2c5.8,0,10.4-4.5,10.3-10.3C370.2,559.2,365.7,554.8,360,554.8z"/>
	<path class="st2" d="M181.2,578.9c0,9.1,0,18.2,0,27.3c0,4.2-0.1,8.4-0.1,12.6c0,2.7-0.2,5.4,0.1,8.1c0,1.5-0.1,3-0.1,4.5
		c0,10.7,0.1,21.4,0.1,32.1c0,1.9-1.3,2.8-3.1,2.1c-0.3-0.1-0.5-0.4-0.6-0.7c-0.1-0.5-0.1-1-0.1-1.4c-0.1-2.4,0.3-2.5-2.5-2.6
		c-2,0-4,0.1-6-0.3c-1.1-0.2-1.6,0.3-1.7,1.4c-0.2,3.9-0.5,3.1-3.8,2.6c-2-0.2-3.9-0.8-5.8-1.3c-1-0.2-1.4-0.7-1-1.7
		c1.1-3.1,1.3-3.3-2.8-4.3c-0.9-0.4-1.7-0.8-2.6-1.1c-1-0.3-1.9-1.2-2.9-0.8s-0.9,1.6-1.3,2.4c-0.5,1.1-1.2,1.3-2.3,0.8
		c-1.4-0.7-2.8-1.4-4.3-2.1c-0.9-0.6-1.7-1.1-2.6-1.7c-0.8-0.5-0.9-1-0.4-1.8c0.1-0.1,0.2-0.3,0.2-0.4c1.5-2.5,1.4-2.5-1-4.3
		c-1.4-1-2.9-2.1-4.2-3.2c-0.9-0.7-1.5-0.7-2.2,0.2c0,0.1-0.1,0.1-0.2,0.2c-2,2.2-2.1,2.2-4.3,0c-1.4-1.4-2.8-2.9-4.2-4.3
		c-0.8-0.8-0.9-1.3,0-2.2c2.4-2.3,2.3-2.3,0.3-4.8c-1.1-1.4-2.1-2.8-3.1-4.3c-0.5-0.8-1-0.9-1.8-0.4c-0.1,0-0.1,0.1-0.2,0.1
		c-2.8,1.6-2.9,1.6-4.5-1.3c-1-1.7-1.8-3.6-2.7-5.3c-0.5-0.9-0.3-1.4,0.7-1.8c3-1.4,2.9-1.5,1.8-4.5c-0.6-1.6-1.1-3.2-1.6-4.8
		c-0.3-1-0.9-1.4-2-1.1c-1,0.3-2.1,1-2.9,0.4c-0.9-0.6-0.7-1.9-0.9-2.9c-0.4-1.8-0.8-3.6-1.1-5.4c-0.3-1.7-0.1-2,1.6-2.2
		c0.4-0.1,0.8-0.1,1.2-0.1c1.1,0,1.5-0.5,1.5-1.7c-0.1-2.5-0.2-4.9-0.3-7.4c0-0.7-0.3-1-0.9-1.1c-0.2,0-0.5,0-0.7,0
		c-3.4,0-3.1-0.1-2.9-3.3c0.1-2.1,0.5-4.3,0.7-6.4c0.1-0.9,0.5-1.2,1.5-1c1.1,0.2,2.4,0.9,3.2,0.2c0.6-0.6,0.6-1.9,0.8-2.9
		c0.4-1.6,0.8-3.3,1.3-4.9c0.3-1,0.1-1.6-1-2c-3.1-1.2-3.1-1.2-1.8-4.3c0.7-1.8,1.6-3.5,2.3-5.3c0.4-1,0.9-1.3,2-0.8
		c2.9,1.3,2.9,1.3,4.4-1.4c0.9-1.5,1.8-3,2.8-4.5c0.6-0.9,0.5-1.4-0.4-2c-0.1,0-0.1-0.1-0.2-0.1c-2.6-2-2.6-2-0.4-4.6
		c1.2-1.5,2.5-2.9,3.7-4.4c0.7-0.9,1.3-0.9,2.2-0.1c2.3,1.9,2.4,1.8,4.6-0.2c1.4-1.2,2.7-2.5,4.2-3.6c0.7-0.5,0.6-1,0.2-1.6
		c-0.7-0.9-1.9-1.7-1.7-2.7c0.3-1.2,1.8-1.7,2.8-2.5c1.4-1,3-1.9,4.4-2.9c0.9-0.6,1.5-0.5,2.1,0.5c1.6,3,1.4,2.8,4.5,1.3
		c1.6-0.8,3.2-1.5,4.8-2.2c0.8-0.3,1.1-0.8,0.8-1.7c-0.1-0.1-0.1-0.3-0.2-0.4c-1.2-3-0.9-2.9,1.9-3.8c2-0.7,4-1.2,6-1.8
		c1.1-0.3,1.6,0.1,1.9,1.1c0.2,1,0,2.3,1,2.8c0.9,0.4,1.8-0.2,2.8-0.3c1.7-0.2,3.3-0.5,5-0.7c1.2-0.1,1.7-0.6,1.6-1.9
		c-0.3-3.3-0.1-3.1,3.1-3.1c1.8,0,3.5,0,5.3,0c2.2,0,2.2,0.1,2.2,2.1c0,11.4-0.1,22.7-0.1,34.1c0,0.9,0.1,1.8,0.1,2.6
		C180.9,565.1,181,572,181.2,578.9z"/>
	<path class="st1" d="M258.1,415.3c-2-0.4-3.7-1.5-5.4-2.5c3.2-0.3,5.8-2,8.3-3.8c0.6-0.4,1-1,1.8-1c0.1,0.6-0.1,1.1-0.3,1.6
		c-0.4,1.6-0.6,3.2-0.7,4.9c-0.1,1,0.3,1.5,1.3,1.6c0.5,0,0.9,0,1.4,0.1c1.1,0.5,2.2,0.6,3.4,0.6c0.5,0.4,1,0.4,1.6,0.6
		s1.1,0.1,1.3-0.6c0.8-1.9,1.6-3.8,1.9-5.9c0.3-1.7-0.4-2.9-1.9-3.8c-2-1.1-4-1.4-6.2-0.8c0.3-1,1.1-1.6,1.8-2.2
		c3.6-3.4,7-7,10.2-10.8c5.8-7.2,11.3-14.6,16.3-22.4c6.2-9.5,11.9-19.3,16.5-29.6c3.1-7,6.4-14.1,5.6-22.1c3.8,2.2,6.7,5.4,9.3,8.9
		c5.2,7.1,8.1,15.1,9,23.8c1,9.1-0.2,17.8-3.4,26.3c-0.2,0.4-0.3,0.9-0.5,1.3c-0.4,1.1-0.3,1.8,0.7,2.6c5.1,4.1,10.1,8.3,15.2,12.4
		c4.5,3.7,9.1,7.3,13.6,10.9c5.7,4.6,11.3,9.3,17,14c1.1,0.9,2.3,1.8,3.4,2.7c0.7,0.6,1.5,1.2,2.1,1.9c1.8,2,1.9,4.4,0.6,6.4
		c-1.6,2.5-4.4,3.3-6.9,2.2c-2.3-1.1-4.6-2.1-6.8-3.4c-2.9-1.7-5.9-3.1-8.9-4.6c-7.9-4.2-15.9-8.4-23.8-12.6c-1.5-0.8-3-1.5-4.5-2.3
		c-4.5-2.3-9.1-4.6-13.5-7c-1.7-0.9-2.9-1-4.4,0.5c-4.8,4.4-10.2,7.9-16.2,10.5c-4.8,2.1-9.8,3.6-15.1,4.2c-3.3,0.3-6.5,0.5-9.8,0.4
		c-1.1,0-1.8,0.3-2.1,1.4c-1.1,3.6-2.6,7-4.1,10.5c-1.2,2.9-2.7,5.6-4.6,8.1c-1.5,2.1-3.5,3.3-6.2,3.6c-3.4,0.4-6.9,0.4-10.3,0.6
		c-2.3,0.1-2.3,0.1-2.9,2.3c-1.5,6.4-2.9,12.9-4.4,19.3c-0.5,2.3-1.3,4.6-1.9,6.9c-1,1.3-2.3,1.2-3.7,0.9c-5-1.1-9.9-2.2-14.9-3.4
		c-0.8-0.2-1.5-0.4-2.3-0.3c-0.3-1.3-0.3-2.7-0.2-4.1c0.6-9.5,1.3-18.9,3.1-28.3c0.5-2.6,0.8-5.3,1.7-7.9c1.3-3.7,2.5-7.3,5.4-10.2
		c1.5-1.5,3.4-1.7,5.3-1.9c0.9-0.1,1.6,0.6,2,1.4c1.2,2.3,3,4.3,4.6,6.4c0.3,0.4,0.6,0.6,1,0.9c0.6-0.6,0.3-1.2,0.3-1.7
		c0-2.3,0.2-2.4,2.5-1.9c0.9,2.2,1.8,4.4,2.7,6.6c0.3,0.8,1,0.9,1.7,1c2.4,0.4,4.9,0.7,7.3,1.2c1.1,0.2,1.6-0.1,2.1-1
		c1.8-3.2,3.7-6.3,5.5-9.5C261.6,416.3,261.6,416.3,258.1,415.3z"/>
	<path class="st3" d="M557,459.3c0.1-5.7,0.1-11.3,0.2-17c0-0.9-0.3-1.1-1.1-1.1c-1.7,0-3.4,0-5-0.1c-3-0.1-5.4-2.5-5.5-5.5
		c-0.1-1.7-0.4-3.5,0.8-5.1c1.3-1.7,3-2.5,5.1-2.8c0.6-0.1,1.1,0,1.7,0c14.3,0,28.6,0,42.9,0c2.2,0,4,0.6,5.6,2.1
		c2.1,2,2.4,4.4,1.5,7s-2.9,3.9-5.5,4.3c-1,0.1-2.1,0-3.1,0c-2.4,0-2.4,0-2.4,2.3c0,5.3,0,10.5,0,15.8c0,4.5,0,9,0,13.5
		c-0.6,4.4,0.9,8.2,3.2,11.9c4,6.6,7.5,13.4,11.2,20.1c4.9,9,9.7,18,14.8,26.9c4.5,8-1.5,17.1-9.9,17c-24-0.2-48-0.2-72,0
		c-7.8,0.1-14.4-8.5-10.2-16.6c7.4-14.2,14.7-28.4,22.1-42.6c1.6-3.1,3.3-6.2,5-9.3c0.6-1.1,1-2.2,0.9-3.4c-0.1-1.4,0-2.7,0-4.1
		C557,468.3,557,463.8,557,459.3z M572.9,539.4c1.1,0.2,2.2,0.5,3.3,0.4c13.4-0.3,21.6-11,21.1-21.9c-0.4-7.6-3.9-13.5-10.5-17.5
		c-2.7-1.6-5.8-2.2-8.8-2.8c-15-2.7-27.9,10.9-24.2,25.7c2.2,8.7,9.4,14.7,17.2,15.6C571.6,539.1,572.2,539.5,572.9,539.4z"/>
	<path class="st4" d="M482.2,674.6c-3.6-0.3-7.2-0.2-10.8-0.1c-3.2,0.1-5.5-1.3-7.4-3.7c-0.9-1.2-1.6-2.5-1.6-4.1c0-6,0-12,0-18
		c0-18.9,0-37.7,0-56.6c0-2.8,0.6-5.1,2.7-7.1c1.4-1.3,3-2,4.9-2.3c0.7-0.1,1.4-0.1,2.2-0.1c12.3,0,24.6,0,36.9,0
		c3.6,0,6.5,1.5,8.4,4.6c0.9,1.5,1.3,3.1,1.2,4.8c0,6.6,0,13.1,0,19.7c0,16.6-0.1,33.3,0,49.9c0,3.7-0.1,7.3-2.6,10.4
		c-0.5-0.2-0.6-0.7-0.8-1.1c-7.4-15.1-14.9-30.2-22.3-45.3c-0.4-0.7-0.7-1.4-1.2-2.1c-1.1-1.5-3-2-4.7-1.3c-2.2,0.9-3.1,3.3-2.1,5.6
		c1.1,2.4,2.3,4.7,3.5,7.1c6.4,13,12.8,26.1,19.2,39.1c-0.7,0.7-1.7,0.4-2.5,0.5c-3.3,0.1-6.6-0.2-9.8,0.2
		C491.1,674.4,486.6,674.5,482.2,674.6z M476.3,665.9c0-2-1.7-3.6-3.7-3.5c-2,0-3.4,1.5-3.4,3.5s1.7,3.7,3.7,3.6
		C474.7,669.4,476.3,667.7,476.3,665.9z M472.7,588.3c-2,0-3.5,1.4-3.5,3.4c-0.1,2.1,1.5,3.8,3.5,3.8s3.7-1.8,3.6-3.7
		C476.2,589.9,474.6,588.3,472.7,588.3z M512.2,591.9c0-1.9-1.6-3.5-3.5-3.6c-2.1-0.1-3.7,1.4-3.7,3.5c0,2,1.4,3.6,3.4,3.7
		C510.4,595.6,512.2,593.9,512.2,591.9z"/>
	<path class="st5" d="M140.4,656.6c1.4,0.7,2.8,1.4,4.3,2.1c1.1,0.5,1.8,0.3,2.3-0.8c0.4-0.8,0.4-2.1,1.3-2.4c1-0.4,1.9,0.6,2.9,0.8
		c0.9,0.3,1.8,0.7,2.6,1.1c0,20.9,0,41.8,0,62.6c0,3.4-0.3,3.3,3.2,3.3c16.4,0,32.8,0,49.2,0c3.3,0,3.3,0,3.3-3.4
		c0-15.6,0-31.2,0-46.8c0-5.3,2.6-7.9,8-7.9c14.2,0,28.3,0,42.5,0c-0.6,4.5-1.1,8.9-0.9,13.5c-11,0-22.1,0-33.1,0c-3,0-3,0-3,3.1
		c0,15.6,0,31.2,0,46.8c0,1.1,0,2.2-0.3,3.3c-1,2.9-3.1,4.6-6.2,4.9c-0.4,0-0.8,0-1.2,0c-22.4,0-44.8,0-67.2,0
		c-3.4,0-5.9-1.3-7.3-4.4c-0.4-1-0.4-2-0.4-3.1c0-8.6,0-17.1,0-25.7C140.4,688,140.4,672.3,140.4,656.6z"/>
	<path class="st2" d="M621.4,604.6c2.3,1.3,3.9,3.3,5.6,5.2c7.4,8.6,11.7,18.6,12.7,29.9c1.4,15.6-3.2,29.1-13.6,40.8
		c-7.3,8.3-16.5,13.5-27.2,16.1c-0.8,0.2-1.6,0.3-2.4,0.3c-0.5-4.3-1.5-8.5-2.3-12.7c-2.5-13.2-5-26.5-7.6-39.7
		c0.1-0.1,0.1-0.2,0.1-0.2c1-0.4,1.6-1.3,2.2-2.1C599.8,629.6,610.6,617.1,621.4,604.6z"/>
	<path class="st4" d="M737.4,809.3c0.8,1.3,2.1,1.9,3.2,2.8c4.5,3.8,8.6,7.8,12,12.6c2.5,3.6,4.4,7.4,4.7,11.8
		c0.4,5.6-3.1,9.8-8.2,11.5c-4.4,1.5-9,1.9-13.7,1.6c-5.1-0.4-10.1-0.9-15.1-2.1c-4.9-1.3-9.7-3-14.3-4.9c-4.7-2-9.3-4.2-13.5-7.1
		c-6.4-4.4-11.8-9.9-16.4-16.2c-0.8-1.2-1.6-2.3-2.5-3.5c-0.5-0.7-0.5-1.2,0.3-1.8c4.3-2.9,6.8-7.1,8.1-11.9c0.8-2.9,0.7-6-0.5-9.1
		c10.8-1.2,21.3-0.3,31.5,3c5.1,1.5,9.7,4.1,14.2,6.7C730.9,804.8,734.1,807.2,737.4,809.3z"/>
	<path class="st4" d="M647.9,776.1c-0.4-2.4-1.7-4.4-2.6-6.6c-2.1-5.3-3.3-10.7-3.9-16.3c-0.9-7.9,0-15.6,0.8-23.4
		c0.5-4.6,1.4-9.1,2.8-13.4c1.6-5.3,3.8-10.3,7.1-14.7c1.8-2.3,3.8-4.7,6.8-5.9c4.8-1.8,9.1-0.8,12.9,2.5c2.2,1.9,3.9,4.2,5.3,6.7
		c3.5,6,5.6,12.5,7,19.2c1.6,7.8,2.3,15.8,2.1,23.8c-0.2,7-1.7,13.7-4.1,20.3c-1.7,4.5-3.8,8.8-6.2,12.9c-1,1.8-1.1,1.7-3.1,0.7
		c-3.6-2-7.3-3.3-11.6-3c-2.1,0.2-4,0.9-6,1.6C652.8,779.3,650.3,777.8,647.9,776.1z"/>
	<path class="st4" d="M643.6,796.7c-0.7,7.6,2.3,13.5,8.3,18c1.5,1.1,1.6,1.2,0.5,2.7c-4.9,6.9-10.7,12.9-17.6,17.8
		c-5.6,4-11.9,6.8-18.3,9.2c-5,1.9-10,3.5-15.3,4.4c-2.5,0.4-5.1,0.5-7.6,0.9c-3.7,0.5-7.4,0.2-11-0.2c-4.7-0.6-8.9-2.3-11.6-6.6
		c-0.4-0.7-0.9-1.4-0.9-2.1c-0.4-3.5-0.5-6.9,1-10.3c2.7-6.1,7-11,11.7-15.5c2.1-2,4.5-3.7,6.8-5.6c1-0.1,1.7-0.9,2.4-1.4
		c6.9-4.7,14.1-9,22-11.8c2-0.7,4.1-1.3,6.2-1.8c5.6-1.3,11.3-1.6,17-1.9C639.6,793.7,641.7,795,643.6,796.7z"/>
	<path class="st6" d="M557,459.3c0,4.5,0,9,0,13.5c-17.3,0-34.5,0-51.8,0c-2.4,0-2.4,0-2.4,2.6c0,21.2,0,42.4,0,63.5
		c0,0.9,0,1.8-0.1,2.6c-0.2,3.6-3.4,6.3-6.7,6.2c-6.1-0.1-12.2,0.2-18.2-0.2c-7-0.5-14.1,0-21.1-0.5c-7.9-0.5-15.8-0.3-23.7-0.5
		c0-2.9,0-5.8,0-8.7c0-1.6-0.7-3.1-0.5-4.7c6.3,0,12.6-0.2,19,0.1c7.9,0.4,15.8,0.1,23.7,0.5c4.1,0.2,8.1,0.2,12.2,0.3
		c1.7,0.1,1.7-0.1,1.8-1.7c0-0.6,0-1.3,0-1.9c0-21.1,0-42.2,0-63.4c0-1.1,0-2.2,0.3-3.3c0.7-2.6,2.5-4.2,5.2-4.5
		c0.9-0.1,1.8,0,2.6,0C517.3,459.3,537.2,459.3,557,459.3z"/>
	<path class="st7" d="M621.4,604.6c-10.8,12.5-21.6,25-32.4,37.5c-0.7,0.8-1.2,1.7-2.2,2.1c-0.3-0.1-0.6-0.2-0.9-0.3
		c-15.7-7.4-31.4-14.8-47-22.3c1-3.1,2.9-5.7,4.7-8.3c6.5-9.1,15.1-15.3,25.5-19c6.4-2.3,13.2-3.4,20-3c11.8,0.7,22.4,4.6,31.6,12.3
		C621,604,621.2,604.2,621.4,604.6z"/>
	<path class="st8" d="M215,468c0.8-0.2,1.6,0.1,2.3,0.3c5,1.1,9.9,2.3,14.9,3.4c1.4,0.3,2.7,0.4,3.7-0.9c1.2,1,1.7,2.5,2.4,3.8
		c4.5,7.9,9.1,15.6,13.4,23.6c1.7,3.2,2.8,6.6,3.2,10.1c1,7.1,1.6,14.1,2.1,21.2c0.2,3.2,0.5,6.4,0.7,9.6c0.1,1.3,0.6,1.8,1.9,1.8
		c1.6-0.1,3.2,0,4.8,0c1.7,0,2.6,0.6,2.6,1.5c0,1-0.7,1.7-2.3,2c-3.3,0.6-6.7,1.2-10.1,1.8c-0.9,0.2-2,0-2.1,1.4
		c-0.1,0.5-0.7,0.6-1.1,0.7c-0.8,0.3-1.7,0.5-2.5,0.7c-1.5,0.3-1.7,0.3-1.9-1.2c-0.2-1.3-0.5-2.7-1.4-3.7c-0.5-0.6-0.5-1.3-0.5-2
		c-1-10-2-20-2.9-30.1c-0.2-2.1-0.9-4-2.2-5.6c-2.3-2.8-4-6.1-6.2-9c-1.4-1.9-2.7-3.9-4.1-5.8c0-0.2-0.1-0.4-0.1-0.6
		c-0.1,0.2-0.1,0.4-0.2,0.6c-0.8,2-0.7,4.2-1,6.4c-0.6,4.2-1.2,8.4-1.8,12.6c-0.4,2.8-1.5,5.3-2.9,7.8c-5.3,9.6-11.2,18.8-17.3,27.9
		c-0.7,1-0.6,1.5,0.2,2.1c1,0.7,2,1.4,2.9,2.1c0.6,0.5,1.2,1,1.8,1.6c0.5,0.5,0.9,1.1,0.4,1.9c-0.5,0.7-1.3,1-2.1,0.8
		c-0.5-0.1-1-0.4-1.5-0.7c-2.8-1.4-5.6-2.7-8.3-4.1c-1-0.5-1.8-0.9-3.1-0.5c-1.4,0.5-2.6-0.9-3.9-1.2c-0.3-0.1-0.5-0.3-0.8-0.4
		c-0.9-0.3-1.3-0.8-0.5-1.7c1.4-1.7,2.2-3.7,3.3-5.7c1.5-2.8,3.3-5.5,5-8.3c2-3.3,4-6.6,6-9.9c2.1-3.4,4.1-6.7,6.2-10
		c0.4-0.7,0.6-1.3,0.6-2c0.4-9.6,0.8-19.2,1.2-28.8c0-0.4,0.1-0.9,0-1.2c-1.4-2.4-0.7-4.8-0.1-7.1C213.8,471.4,214.5,469.7,215,468z
		"/>
	<path class="st4" d="M586.6,644.5c2.5,13.2,5.1,26.5,7.6,39.7c0.8,4.2,1.8,8.4,2.3,12.7c-2,0.9-4.2,0.9-6.3,1
		c-7.8,0.4-15.6-0.4-23-3.2c-5.3-2-10.1-4.9-14.5-8.4c-4.6-3.6-8.3-8.1-11.4-13c-2.7-4.4-4.8-9.1-6.2-14c-0.1-0.4,0-1,0-1.4
		c0.4-0.1,0.7-0.2,0.9-0.5c8.7-2.2,17.4-4.4,26-6.6C570.2,648.6,578.4,646.5,586.6,644.5z"/>
	<path class="st9" d="M262.9,408c-0.8-0.1-1.3,0.5-1.8,1c-2.5,1.8-5.1,3.5-8.3,3.8c-1.7-0.3-2.3-1.4-2.4-3
		c-0.4-4.7,0.7-9.1,2.3-13.5c2.6-7.2,6.1-14,9.7-20.7c4.1-7.6,8.7-15,13.6-22.1c5.1-7.2,10.3-14.3,16.2-20.9
		c3.9-4.4,8-8.7,12.7-12.2c1.7-1.3,3.5-2.3,5.7-2.9c1.6-0.4,3-0.3,4.1,1.1c0.2,0.2,0.3,0.3,0.5,0.5V319c0.8,8.1-2.5,15.1-5.6,22.1
		c-4.6,10.4-10.3,20.1-16.5,29.6c-5.1,7.7-10.5,15.2-16.3,22.4c-3.1,3.8-6.6,7.4-10.2,10.8c-0.7,0.7-1.5,1.2-1.8,2.2
		c-0.4,0.4-0.9,0.8-1.3,1.2C263.2,407.7,263,407.9,262.9,408C262.8,408,262.9,408,262.9,408z"/>
	<path class="st2" d="M525.8,691.7c1.2,0.2,2.1-0.6,3.2-0.9c0.4-0.1,0.7-0.4,0.7-0.9c-0.3-1.6,1-1.6,1.9-1.8s1.7-0.5,2.5,0.7
		c0.7,1.2,3.2,0.8,3.8-0.5s1.6-0.8,2.5-0.8c0.7,0,1.5-0.1,1.9,1c0.6,1.6,2.9,2.2,4,1s2.1-0.2,3,0.1c0.8,0.2,1.3,0.5,1.1,1.7
		s2.6,2.7,3.4,1.9c0.7-0.7,1.2-0.6,1.8-0.1s1.1,0.9,1.7,1.3c0.3,0.3,0.7,0.6,0.3,1c-1,1.1-0.1,1.7,0.6,2.3c0.6,0.6,1.1,1.4,2.4,0.9
		c1.2-0.4,3,2.4,2.2,3.5c-0.6,0.8-0.5,1.3-0.1,1.9c0.5,0.8,0.6,1.9,1.9,1.8c1.6-0.1,1.4,1.3,1.8,2.1c0.3,0.7,0.5,1.4-0.4,2.1
		c-1,0.7-0.6,3.6,0.6,3.9c1.2,0.3,1.3,0.9,1.4,1.9c0,1.2,0.1,2.4-0.1,3.6c-0.1,1-0.1,2-1.6,2.3c-1.2,0.2-1.6,3.1-0.5,3.7
		c1.1,0.7,0.5,1.3,0.3,2c-0.4-0.2-0.7-0.3-1.1-0.5c-7.8-4.7-15.6-9.4-23.4-14c-0.5-0.3-0.9-0.6-1.4-0.8c-3.7-1.7-7.7,1-7.7,5.1
		c0,2.1,1.1,3.6,2.8,4.7c3.6,2.4,7.1,4.9,10.6,7.4c3.8,2.7,7.9,5.2,11.6,8.1c-0.5,0.4-1.4,0.9-1.1,1.4c1.3,2.2-0.8,2.4-1.8,3.3
		c-0.4,0.4-0.9,0.3-1.5,0c-1.3-0.8-3.5,0.1-3.7,1.7c-0.1,1-0.6,1.4-1.4,1.6c-0.8,0.2-1.5,0.4-2.3,0.6c-0.7-0.6-1-1.8-2.4-1.2
		c-0.9,0.4-1.8,0.2-2.3,1.5c-0.7,1.6-3.3,1.4-4.1-0.2c-0.4-0.7-1-1-1.7-1.2c-1.5-0.4-2.4,0.5-3.2,1.5c-0.9-0.2-1.7-0.4-2.5-0.7
		c-0.6-0.2-1.1-0.4-0.9-1.1c0.3-1-0.3-1.3-1-1.6c-0.8-0.3-1.7-1.3-2.6-0.3c-1,1.1-1.7,0.2-2.5-0.2c-0.7-0.5-1.7-0.8-1.3-2.2
		c0.4-1.3-1.7-3.1-3-2.5c-1.5,0.6-1.8-0.5-2.5-1.2c-0.6-0.6-1.1-1.2-0.4-2.2c0.7-1-0.9-3.6-2.2-3.3c-1.5,0.4-1.6-0.7-1.9-1.5
		s-1.4-1.7,0.2-2.6c0.9-0.6,0.1-3.5-1.1-3.7c-1.8-0.3-1.4-1.7-1.6-2.7c-0.2-0.9,0.1-1.4,1.1-1.8c1.1-0.4,1.1-3.5-0.1-4
		c-1.5-0.6-0.8-1.5-0.7-2.4c0.1-0.9-0.2-1.9,1.3-2.1c1.5-0.2,2.2-2.5,1.2-3.7c-1.1-1.3,0-2,0.4-3c0.3-0.7,0.6-1.3,1.7-1.1
		c1.2,0.3,3-2.1,2.3-3c-0.8-1-0.3-1.6,0.3-2.2c0.5-0.6,1.1-1.2,1.6-1.8c1.4,1.2,1.8,3,2.6,4.5c1.3,2.4,2.4,4.9,3.7,7.3
		c1.1,2.1,3.3,2.7,5.3,1.8c1.9-0.8,2.7-2.9,2.1-5.1c-0.2-0.6-0.5-1.2-0.8-1.7C529.2,698.6,527.3,695.2,525.8,691.7z"/>
	<path class="st10" d="M592.1,472.8c0-4.5,0-9,0-13.5c19.3,0,38.5,0,57.8,0c1.1,0,2.2,0,3.4,0c3.7,0.1,6.3,2.5,6.5,6.3
		c0.1,0.9,0.1,1.8,0.1,2.6c0,15.4,0,30.9,0,46.3c0,3.1-0.2,2.9,2.8,2.9c6.6,0,13.3,0.1,19.9,0.1c0.1,3.2,0.7,6.5,0.4,9.7
		c-0.1,1,0.3,1.6,1.3,1.5c1.4-0.2,3.2,0.9,4.3-1c0.1-0.2,0.6-0.1,0.9-0.1c2.6,0.4,5.2,0.2,7.8,0.9c0,0.7,0,1.5,0,2.2
		c-0.9,0-1.8,0.1-2.6,0.1c-13.5,0-27-0.1-40.5,0.1c-4.9,0.1-7.8-2.9-7.7-7.8c0.2-15.8,0.1-31.5,0.1-47.3c0-3.2,0.2-3-2.9-3
		C626.3,472.8,609.2,472.8,592.1,472.8z"/>
	<path class="st8" d="M680.8,459.4c0-2.6-0.1-5.1-0.1-7.7c0-0.8,0-1.6-0.7-2.2c-1.3-0.9-1.5-2.4-1.6-3.8c0-0.6-0.1-1.1,0-1.7
		c1-5.6-0.1-11.1-0.6-16.6c-1-10.1-1.7-20.2-0.6-30.4c0.4-3.6,0.7-7.2,2-10.7c1.2-3,3.1-5.2,6.5-5.9c1.1-0.2,1.7,0,2.3,0.8
		c1.8,2.7,4.5,4.5,6.9,6.6c0.2,0.3,0.4,0.7,0.8,0.6c0.4-0.1,0.3-0.4,0.1-0.7c-0.2-0.9-1.1-1.5-0.8-2.7c0.2-0.5,0.1-1.2,0.7-1.4
		c0.5-0.2,1.2,0.1,1.5,0.5c1,1.2,2,2.3,2.7,3.6c2.2,3.7,3.6,7.7,3.8,12.1c0.2,4.9,0.7,9.7,1,14.6c0.1,1.3,0.5,1.9,1.9,2.2
		c3.4,0.8,6.7,2,10,3c1,0.3,2,0.4,2.9-0.2c1-0.7,2.3-1,3.4-1.6c1.5-0.8,3.2-0.8,4.8-0.1c1.1,0.5,2.3,1.1,3.4,1.6
		c0,0.6-0.1,1.3-0.1,1.9c-0.8,0-1.4-0.8-2.4-0.6c0.2,1.2,0.3,2.5,0.5,3.7c0.6,0.3,1.3,0.1,1.9,0.2c0,0.6,0,1.3,0,1.9
		c-2.9-0.5-5.7,0.1-8.4,0.8c-2.2,0.6-4.4,0.8-6.6,0.5c-4.1-0.6-8.2-1.1-12.2-2.2c-1.8-0.5-1.8-0.4-2,1.5c-0.2,2.5-0.2,5.1-0.9,7.6
		c-0.7,2.3-0.8,4.5-1,6.8c-0.1,2.2-0.3,4.5-0.4,6.7c-0.1,3.8-0.7,7.6-0.5,11.5c-0.9,0.1-1.8,0-2.6,0.7s-1.6,0.2-1.6-1
		c-0.1-0.8,0-1.6,0-2.4c0-0.4,0.2-1-0.7-1c-0.4,1-0.2,2-0.2,3c0,1.2-0.5,1.7-1.7,1.7c-2.9-0.1-5.7-0.1-8.6-0.1
		c0.3-1.2-0.4-2.6,1.1-3.4c0.4-0.2,0.4-0.7,0.2-1.1s-0.6-0.4-1-0.4c-0.5,0-0.7,0.3-0.7,0.7c0,1.4,0,2.7,0,4.1
		C681.6,461.1,680.8,460.7,680.8,459.4z M691.5,455.5c-0.1-1.5-0.4-3-0.5-4.6c-0.1-1.3-1-1.2-1.7-0.9c-1,0.4-2.9-0.8-3.1,1.2
		c-0.2,1.9,0.2,3.8,0.7,5.7c0.3,1.2,3.4,1.9,4.3,1c0.1-0.2,0.2-0.4,0.2-0.7C691.5,456.6,691.5,456.1,691.5,455.5z M718.8,423.8
		c0,0.3,0,0.5,0,0.7c-0.1,1.2,0.4,1.6,1.5,1.3c1.5-0.4,3.1-0.6,4.6-1.1c1.6-0.4,1.8-0.8,1.5-2.4c-0.5-2.4-1.3-2.8-3.5-1.9
		c-1,0.4-2,1-3,1.4C719.1,422.2,718.5,422.7,718.8,423.8z"/>
	<path class="st6" d="M482.2,674.6c4.4-0.1,8.8-0.2,13.3,0c0,1.8,0.1,3.7,0.1,5.5c0,16.3,0,32.6,0,48.9c0,1.8-0.3,3.5-1.4,5
		c-1.3,1.8-3.2,2.6-5.4,2.7c-0.5,0-1,0-1.4,0c-25.1,0-50.2,0-75.3,0c-1,0-1.9-0.1-2.9-0.1c-0.7-4.4-0.8-8.8,0-13.2
		c5.2,0,10.4-0.1,15.6-0.1c17.9,0,35.8,0,53.7,0c0.2,0,0.5,0,0.7,0c2.9,0,2.9,0,2.9-2.9c0-14.2,0-28.4,0-42.7
		C482.1,676.7,482.2,675.7,482.2,674.6z"/>
	<path class="st2" d="M737.4,809.3c-3.4-2.1-6.6-4.5-10-6.5c-4.6-2.6-9.2-5.2-14.2-6.7c1-0.6,2-0.4,3-0.4c16.9,0,33.7,0,50.6,0
		c3.2,0,2.9,0.2,2.9-3c0-22.8,0-45.6,0-68.4c4.5-0.2,8.9-0.1,13.4,0c0,1.5,0,3,0,4.6c0,24.4,0,48.9,0,73.3c0,2.7-1.2,5.4-4.2,6.6
		c-1,0.4-2,0.4-3.1,0.4c-11.9,0-23.8,0-35.7,0C739.3,809.2,738.4,809.3,737.4,809.3z"/>
	<path class="st3" d="M409.2,723.4c-0.8,4.4-0.7,8.8,0,13.2c-3.3,0.3-6.7,0.1-10.1,0.1c-4.9,0-9.7,0-14.6,0c-5,0-7.6-2.5-7.9-7.5
		c0-0.6,0-1.3,0-1.9c0-14.8,0-29.5,0-44.3c0-0.5,0-1,0-1.4c0-2.8,0-2.8-2.7-2.8c-8.3,0-16.6,0-24.9,0c-1,0-2.1,0-3.1,0
		c0.2-4.5-0.2-9-0.9-13.4c12.5,0,24.9,0,37.4,0c1.9,0,3.6,0.2,5.2,1.5s2.6,2.9,2.5,5.1c-0.1,5.9,0,11.8,0,17.7c0,9.9,0,19.8,0,29.7
		c0,0.5,0,1,0,1.4c0,2.4,0.1,2.5,2.6,2.5c1.6,0,3.2,0,4.8,0C401.4,723.3,405.3,723.4,409.2,723.4z"/>
	<path class="st6" d="M532,746c0.8-1,1.7-1.9,3.2-1.5c0.7,0.2,1.3,0.4,1.7,1.2c0.9,1.5,3.5,1.7,4.1,0.2c0.5-1.3,1.4-1.1,2.3-1.5
		c1.5-0.5,1.7,0.6,2.4,1.2c-0.3,0.8-0.2,1.7-0.2,2.6c0,14.9,0,29.7,0,44.6c0,3.1-0.2,3,3,3c20.9,0,41.7,0,62.6,0c1,0,2.1-0.3,3,0.4
		c-7.9,2.8-15.1,7-22,11.8c-0.8,0.5-1.4,1.3-2.4,1.4c-2,0-4-0.1-6-0.1c-14.9,0-29.7-0.1-44.6,0.1c-4.2,0.1-7.2-3.3-7.2-7.2
		c0.2-17.7,0.1-35.3,0.1-53C532,748.1,532,747.1,532,746z"/>
	<path class="st11" d="M730.8,421.4c0-0.6,0.1-1.3,0.1-1.9c3.5-1.2,6.9-2.5,10.4-3.5c1.7-0.5,2.4-1.6,2.4-3.1
		c0.2-4.2,0.3-8.5-0.2-12.7c-0.4-3-0.4-6.1-0.1-9.1c0.2-2.4,1.4-4.5,2.6-6.6c0.7-1.3,1.7-2.5,2.6-3.7c0.5-0.6,1.1-1.6,2.2-1
		c1,0.5,0.7,1.5,0.5,2.3s-0.7,1.4-0.4,2.5c2.6-2.5,5.1-4.9,7.5-7.4c0.9-0.9,1.6-1.1,2.7-0.8c2.6,0.7,4.3,2.4,5.5,4.6s1.8,4.6,2.2,7
		c1.3,7.9,1.2,15.9,0.9,23.9c-0.2,5.6-0.9,11.3-1.4,16.9c-0.1,0.9-0.2,1.9-1,2.6c-0.8,0.5-0.8,1.3-1,2.1c-1,3.9-2.2,7.8-3.5,11.6
		c-0.4,1.3-1.1,1.9-2.4,1.7c-1.6-0.2-3.1-0.3-4.7-0.5c-1.4-0.7-0.7-2-0.7-3c0.2-2.9,0.5-5.9,0.7-8.8c0.2-2.1,0.1-2.2-2-2.1
		c-0.6,0-1.3,0.1-1.9,0.2c-1.7,0.1-3.3,0.3-5-0.3c-1.2-1.6-1.2-3.6-1.4-5.4c-0.3-2.9-0.2-2.9-3-2.2c-3.8,0.9-7.6,1.9-11.5,1.8
		c0-0.6,0-1.3,0-1.9C730.9,423.7,731,422.6,730.8,421.4z"/>
	<path class="st9" d="M857,724.2c-3.8-4.2-7.4-8.5-11-12.9c-0.8-1-1-2.1-1-3.3c0-5.8,0-11.5,0-17.3c0-28.1,0-56.3,0-84.4
		c0-2,0.5-3.7,1.6-5.4c3.5-5.2,6.9-10.5,10.4-15.8c0.8,0.8,0.4,1.8,0.4,2.7c0,28.8,0,57.7,0,86.5c0,15.7,0,31.5,0,47.2
		C857.4,722.5,857.8,723.5,857,724.2z"/>
	<path class="st7" d="M740,592.8c-0.1-2.6-0.7-5.1-0.7-7.7c0.3-2.8-0.1-5.7,0.6-8.6c2.2-9.6,7.9-15.9,17.1-19.2
		c3.4-1.2,7-2.1,10.7-2.5c0.7-0.1,1.4-0.3,2.1-0.4c3.4,0.1,6.8-0.1,10.1,0.4c1.1,0.2,2.3,0.8,3.5,0.4c2.1,1.3,4.2,1.8,6.8,1
		c5.2-1.5,10.6-2.2,16.1-1.8c7.4,0.6,14.3,2.8,19.4,8.6c4.5,5.1,5.9,11,3.6,17.5c-0.6,1.6-1.9,2.8-2.4,4.4c-2.9,0.1-5.7,0.1-8.6,0
		c0.1-1.2,0.9-2,1.5-2.9s1.4-1.7,2-2.7c2.3-3.4,2.5-6-0.1-9.7c-1.9-2.7-4.5-4.7-7.7-5.8c-2.4-0.9-4.9-1.5-7.4-1.7
		c-3.4-0.3-6.7-0.3-10,0.6c0.1,1,0.8,1.5,1.2,2.2c3.7,5.3,4.6,12.5,0.6,18.4c-0.4,0.5-0.6,1.1-0.8,1.7c-2.2,2.1-3.8,4.7-4.7,7.6
		c-1.1,1.4-1.5,3.1-1.9,4.8c-0.5,1.8-0.7,3.7-1.1,5.6c-2.7,1.3-4.9,0.6-6.6-2.1c0.1-0.7,0.1-1.4,0.2-2.1c0.5-2.8,1.4-5.5,2.1-8.3
		c0.9-1.8,1.9-3.4,2.5-5.3c1.7-2.3,3.4-4.6,5-7c0.5-0.7,0.6-1.4,0.7-2.3c0.3-3.1-0.7-5.6-2.8-7.8c-3.3-3.4-4-3.4-7.9-0.7
		c-2.6,1.8-4.5,4.2-5.8,7.1c-1.5,3.3-1.7,6.9-1.7,10.4c-2.3,0.2-4.5,0.2-6.8,0.1c-0.2-3.7,0.4-7.3,1-11c0.1-0.2,0.3-0.4,0.4-0.6
		c1.4-3.9,3.5-7.3,6.4-10.3c0.2-0.2,0.4-0.5,0-1.1c-2.2,0-4.5-0.5-6.8,0.4c-3.2-0.1-6.2,0.7-9.1,1.6c-4.8,1.4-8.9,4-11.6,8.3
		c-2.4,3.9-3,8.2-2.7,12.6c-0.2,1.2,0.3,2.4,0.5,3.5c0,2.8,0.9,5.5,1.8,8.1c0.5,1.6,0.7,3.1,0.2,4.6c-2.1,1.4-4.1,1.1-6.1,0
		c0-0.2-0.1-0.4-0.3-0.4h0.1C741.8,598.2,741,595.5,740,592.8z"/>
	<path class="st8" d="M760.3,446.9c1.3,0.2,2-0.4,2.4-1.7c1.3-3.8,2.5-7.7,3.5-11.6c0.2-0.8,0.2-1.6,1-2.1c0.4,2.8,0.9,5.5,1,8.3
		c0.1,1.9-0.2,3.7-1.7,5c-0.8,0.8-0.7,1.7-0.7,2.7c-0.2,8.1-0.4,16.3-0.7,24.4c-0.4,14.1-0.9,28.3-1.3,42.4c0,0.9-0.2,1.8,0.1,2.6
		c-0.3,1.1-0.7,2.3-0.6,3.5c0.1,1,0,2.1,0,3.1c0,0.3,0,0.6-0.3,0.9c-0.5,0.3-4.5,0.2-4.8-0.3c-0.5-0.9-1.2-0.7-1.8-0.6
		c-3.1,0.3-6.2,0.6-9.3,0.9c-0.4,0-0.8,0.1-1.2,0.1c-0.9,0.1-1.6-0.4-1.9-1.2c-0.4-0.9,0.2-1.5,1-1.9c1.7-0.8,3.5-1.1,5.2-1.7
		c0.8-0.3,1.9-0.2,2.4-1.4c-2.7-0.1-5.2,0.4-7.7,0.6c-1.3,0.1-2.2-0.2-2.7-1.4c0.4-1.3,1.5-1.7,2.7-2.1c1.5-0.4,3.1-0.9,4.6-1.3
		c1.1-0.3,1.4-1,1.4-2.1c-0.3-4.7-0.5-9.4-0.8-14.1c-0.6-10.6-1.2-21.2-1.8-31.8c-0.4-6.5-0.8-12.9-1.1-19.4
		c-0.2-4.7-0.8-9.4-0.7-14.1c1.6,0.5,3.3,0.4,5,0.3c0.6,0,1.3-0.1,1.9-0.2c2.1-0.1,2.2,0,2,2.1c-0.2,2.9-0.6,5.9-0.7,8.8
		c-0.1,1-0.7,2.2,0.7,3c-0.2,2-0.3,4-0.5,5.9c0,0.5-0.1,0.9,0.3,1.3c1.4,1.1,3.8,0.2,4.3-1.6C760.1,450.4,760.1,448.7,760.3,446.9z"
		/>
	<path class="st2" d="M742.5,517.6c0.5,1.2,1.4,1.5,2.7,1.4c2.5-0.1,5-0.7,7.7-0.6c-0.4,1.2-1.5,1.1-2.4,1.4
		c-1.7,0.6-3.6,0.9-5.2,1.7c-0.8,0.4-1.4,1-1,1.9c0.3,0.8,0.9,1.3,1.9,1.2c0.4,0,0.8-0.1,1.2-0.1c3.1-0.3,6.2-0.6,9.3-0.9
		c0.7-0.1,1.3-0.3,1.8,0.6c0.3,0.5,4.3,0.6,4.8,0.3c0.3-0.2,0.3-0.5,0.3-0.9c0-1,0-2.1,0-3.1c-0.1-1.2,0.3-2.3,0.6-3.5
		c3.2,0.4,6.4,0.1,9.5,0.2c1.3,0,2.5,0.1,3.8,0.3c3.4,0.6,5.4,2.6,5.9,6c0.1,0.5,0.1,1.1,0.1,1.7c0,10,0,20.1,0,30.1
		c-1.2,0.4-2.3-0.2-3.5-0.4c-3.4-0.5-6.8-0.4-10.1-0.4c0-6.9,0-13.7,0-20.6c0-0.6,0-1.3,0-1.9c0-0.7-0.4-1-1-1c-0.7,0-1.4,0-2.2,0
		c-22,0-44,0-65.9,0c-1.1,0-2.2-0.1-3.3-0.1c0-0.7,0-1.5,0-2.2c1.1-0.2,2.2,0.1,3.3,0.1c0.9,0.1,1.6-0.5,1.8-1.3
		c0.3-0.8-0.3-1.4-1-1.7c-0.6-0.3-1.2-0.5-1.8-0.7c-1.5-0.5-3.1-0.9-4.6-1.4c-0.5-0.2-1.3-0.3-1.2-1.2c0.4,0,0.8,0.1,1.2,0.1
		c2.2,0.2,4.4,0.4,6.7,0.7c1.1,0.1,2-0.2,2.2-1.3s-0.7-1.6-1.5-1.9c-0.7-0.3-1.6-0.4-2.3-0.6c-1.6-0.5-3.3-0.6-4.6-1.9
		c15.2,0,30.3,0,45.5,0C741.5,517.4,742,517.5,742.5,517.6z"/>
	<path class="st12" d="M181.2,626.9c-0.3-2.7-0.1-5.4-0.1-8.1c0-4.2,0.1-8.4,0.1-12.6c17.5,0,35,0.1,52.5,0c5.2,0,10,3.2,10.7,9.5
		c0.4,3.5-1.1,6.5-4,8.8c-2.4,1.8-5.1,2.5-8.1,2.5c-16,0-32,0-48,0C183.3,626.8,182.3,626.9,181.2,626.9z"/>
	<path class="st12" d="M181.2,578.9c-0.2-6.9-0.2-13.8,0-20.6c17.2,0,34.4,0,51.6,0c3.6,0,6.7,1.1,9.2,3.8c3.1,3.2,3.3,9.7,0,13.1
		c-2.5,2.6-5.3,3.8-8.9,3.8C215.7,578.8,198.4,578.9,181.2,578.9z"/>
	<path class="st1" d="M586.6,644.5c-8.2,2.1-16.4,4.1-24.6,6.2c-8.7,2.2-17.4,4.4-26,6.6c-0.3,0-0.7,0-1,0c-0.7-1.2-0.8-2.5-1-3.8
		c-0.4-3.6-0.6-7.3-0.5-11c0.1-6.6,1.4-13,4.1-19.1c0.3-0.6,0.6-1.3,1.3-1.7c15.7,7.4,31.4,14.9,47,22.3c0.3,0.1,0.6,0.2,0.9,0.3
		C586.7,644.3,586.7,644.4,586.6,644.5z"/>
	<path class="st8" d="M344.9,665.3c0.7,4.4,1.1,8.9,0.9,13.4c-0.8,5.9-2.3,11.7-5.2,17c-3,5.4-6.8,10.1-11.7,13.9
		c-5.1,3.9-10.7,6.6-16.9,8c-4.8,1.1-9.6,1.2-14.5,0.7c-3.3-0.3-6.6-0.9-9.8-2c-11.1-4-19.2-11.3-24.4-21.9
		c-1.6-3.2-2.9-6.5-3.6-10.1c-0.4-1.9-0.1-3.8-0.7-5.7c-0.2-4.5,0.3-9,0.9-13.5c1.1-4.4,2.5-8.7,5.1-12.5c2.1-3.1,4.2-6.2,6.8-8.8
		c6-5.8,13.1-9.5,21.2-11.2c5.8-1.3,11.7-1.4,17.6-0.2c7.9,1.6,14.8,5,20.8,10.4c6.5,5.9,10.9,13,13,21.5
		C344.5,664.8,344.8,665,344.9,665.3z M302.4,715.3c22.1,0.3,40.3-18.2,40.2-40.2c-0.1-22.2-17.9-40.1-40.1-40.1s-40.1,17.9-40.2,40
		C262.2,697.5,280.6,715.5,302.4,715.3z"/>
	<path class="st13" d="M525.8,691.7c1.4,3.6,3.3,6.9,5,10.4c0.3,0.6,0.6,1.1,0.8,1.7c0.6,2.2-0.2,4.2-2.1,5.1
		c-2,0.9-4.2,0.3-5.3-1.8c-1.3-2.4-2.4-4.9-3.7-7.3c-0.8-1.5-1.2-3.3-2.6-4.5c-2.5-5.7-5.3-11.3-8.1-16.9c-0.7-1.4-1.3-2.9-2-4.3
		c-6.4-13-12.8-26.1-19.2-39.1c-1.2-2.4-2.4-4.7-3.5-7.1c-1-2.3-0.1-4.7,2.1-5.6c1.7-0.7,3.6-0.2,4.7,1.3c0.5,0.6,0.8,1.4,1.2,2.1
		c7.4,15.1,14.9,30.2,22.3,45.3c0.2,0.4,0.2,1,0.8,1.1c0,0.8,0.5,1.5,0.9,2.2c2.3,4.9,5,9.7,7.2,14.7c0.2,0.6,0.5,1.2,1.2,1.4
		C525.5,690.8,525.5,691.3,525.8,691.7L525.8,691.7z"/>
	<path class="st8" d="M695.5,517.4c1.2,1.3,3,1.3,4.6,1.9c0.8,0.3,1.6,0.3,2.3,0.6c0.8,0.3,1.7,0.8,1.5,1.9
		c-0.2,1.1-1.1,1.5-2.2,1.3c-2.2-0.2-4.4-0.4-6.7-0.7c-0.4,0-0.8-0.1-1.2-0.1c-0.1,1,0.6,1.1,1.2,1.2c1.5,0.5,3.1,0.9,4.6,1.4
		c0.6,0.2,1.2,0.4,1.8,0.7c0.7,0.3,1.3,0.9,1,1.7s-0.9,1.3-1.8,1.3c-1.1-0.1-2.2-0.3-3.3-0.1c-2.6-0.7-5.2-0.5-7.8-0.9
		c-0.3,0-0.8-0.1-0.9,0.1c-1.1,1.9-2.8,0.8-4.3,1c-1,0.2-1.4-0.5-1.3-1.5c0.3-3.3-0.3-6.5-0.4-9.7c-0.3-11.2-0.6-22.4-0.9-33.6
		c5.2,0,10.5,0,15.7,0c-0.7,10.9-1.3,21.8-2,32.7C695.3,516.9,695.2,517.2,695.5,517.4z"/>
	<path class="st14" d="M697.3,483.9c-5.2,0-10.5,0-15.7,0c-2.6,0-5.3,0-7.9-0.1c-0.3-6.4-0.1-12.8-0.1-19.2c0-1.2,0.6-1.8,1.7-1.9
		c0.6-0.1,1.1-0.1,1.7-0.1c7.8,0,15.5,0,23.3,0c0.6,0,1.1,0,1.7,0.1c1.1,0.1,1.7,0.7,1.7,1.9c-0.1,6.4,0.2,12.8-0.1,19.2
		C701.4,483.8,699.3,483.8,697.3,483.9z"/>
	<path class="st1" d="M557.5,737.1c-3.7-2.9-7.7-5.4-11.6-8.1c-3.5-2.5-7.1-4.9-10.6-7.4c-1.7-1.2-2.7-2.6-2.8-4.7
		c-0.1-4.1,4-6.7,7.7-5.1c0.5,0.2,1,0.6,1.4,0.8c7.8,4.7,15.6,9.4,23.4,14c0.3,0.2,0.7,0.4,1.1,0.5c4.1,2.8,8.5,5.2,12.8,7.8
		c10.9,6.6,21.8,13.1,32.8,19.7c8.6,5.2,17.3,10.3,25.9,15.4c2.9,1.7,5.7,3.4,8.6,5.2c0.5,0.3,1.1,0.7,1.7,0.8
		c2.4,1.6,4.8,3.1,7.4,4.4c2.7,2.1,5.8,3.6,8.7,5.4c1.8,1.2,3.6,2.3,5.4,3.4c4.1,2.7,5,7.5,4,10.9c-1.3,4.7-5.5,7.7-9.8,7.6
		c-2.9-0.1-5.3-0.9-7.7-2.6c-3.1-2.3-6.3-4.5-9.6-6.6c-1-0.6-1.8-1.5-2.9-2.1c-1.9-1.6-4-3-6.2-4.2c-0.4-0.3-0.9-0.7-1.3-1
		c-14.8-10.3-29.7-20.5-44.5-30.8C580.2,752.8,568.8,745,557.5,737.1z M650.7,779.5c0-0.2-0.2-0.4-0.4-0.4c-0.8-0.4-1.5-0.9-2.3-1.3
		c-27-16.1-53.9-32.3-80.9-48.4c-0.5-0.3-1.1-0.7-1.7-0.7c-0.4-0.8-1.2-1.1-1.8-1.5c-1.9-1.2-3.8-2.3-5.8-3.4
		c-4.9-2.9-9.8-5.8-14.6-8.6c-1-0.6-2-1.3-3-1.9c-2-1.1-4.4-0.6-5.6,1c-1.4,1.9-1.2,4.1,0.7,5.8c0.9,0.8,1.8,1.6,3,1.9
		c0.2,0.2,0.3,0.4,0.5,0.5c7.2,4.8,14.1,10.2,21.6,14.6c0.2,0.7,0.8,0.9,1.4,1.3c12.7,8.8,25.4,17.5,38,26.3
		c8.2,5.7,16.4,11.4,24.6,17c5.3,3.7,10.7,7.3,16,10.9c1,1.1,2.2,1.9,3.5,2.5c2.5,1.7,4.9,3.5,7.4,5.2c1.1,0.8,2.1,1.8,3.5,2
		c1.4,1.7,3.2,2.8,5.2,3.7c3.8,1.6,8,0.6,10.6-2.6c2.6-3.2,2.8-7.4,0.5-10.9c-1.5-2.3-3.8-3.6-6.3-4.6c-3.5-2.5-7.3-4.5-11.1-6.7
		C652.8,780.4,651.9,779.7,650.7,779.5L650.7,779.5z"/>
	<path class="st13" d="M558.2,332.2c-8.1-0.4-14.9-3.4-19.4-10.4c-6-9.6-3.2-21.9,5.8-28.3c5.1-3.6,10.7-4.7,16.8-3.4
		c4.1,0.9,8,2.3,11.2,5c3.7,3.1,5.9,7.1,6.9,11.7c1.4,7-0.6,13.1-5,18.5c-2.4,2.8-5.5,4.6-9,5.8
		C563.2,331.9,560.8,332.4,558.2,332.2z M558.7,291.8c-1.5,0-2.9,0.1-4.4,0.4c-9.6,2-15.1,9.3-15.5,18.2c-0.3,6.7,2.7,12,8.1,16
		c1.8,1.3,3.7,2.6,5.8,3.2c2.7,0.7,5.5,0.6,8.2,0c5.9-1.4,10.4-4.8,13.1-10.2c2.2-4.4,2.7-9.1,1.2-13.9c-0.8-2.7-2.1-5.1-4-7.2
		C567.9,294.3,564.1,291.5,558.7,291.8z"/>
	<path class="st13" d="M554.2,375.4c8,0.6,15.2,2.9,19.9,10.1c8.4,12.9,0.7,29.6-13.8,32.1c-7.9,1.4-15-0.6-20.8-6
		c-3.3-3.1-5.2-7.1-6-11.7c-1.9-11,5.7-21.2,15.3-23.7C550.5,375.7,552.3,375.3,554.2,375.4z M556.8,377.7c-6.1,0-11.1,1.7-15.1,6.1
		c-4.5,5-6,10.6-4.8,17.2c1.5,7.8,11.1,16.5,20.1,14.7c4.1-0.8,7.9-2.1,10.8-5.1c3.9-4,6-9.1,5.9-14.7c-0.1-3.5-0.8-7.1-3.2-10.1
		c-0.6-0.7-1.1-1.3-1.7-2C565.5,380,561.7,377.5,556.8,377.7z"/>
	<path class="st13" d="M610.7,334.1c-9-0.6-16.4-4-20.5-12.5c-3.5-7.5-2.7-14.8,2.1-21.5c3.5-4.8,8.3-7.6,14.2-8.3
		c7.1-0.8,13.6,0.8,18.9,5.6c5.9,5.4,8.3,12.4,6.4,20.4c-2.2,9-8.2,14-17,16.1C613.5,334.2,612.1,334,610.7,334.1z M591.6,312.7
		c-0.5,7,3.5,12.9,8.5,16.2c3,2,6,3.6,9.7,3.3c4.5-0.4,8.5-1.9,12-4.8c7-5.7,8.6-15.7,4.7-23.2c-2.1-4.1-5-7.4-9.3-9.2
		c-1.8-0.8-3.8-1.6-5.7-1.4c-1.5,0.1-3,0.5-4.5,0.6C598.5,295.2,590.8,304.8,591.6,312.7z"/>
	<path class="st13" d="M585.8,398.4c-0.5-10.1,7.9-19.5,17.8-20.7c7.3-0.9,13.8,0.9,19.4,5.6c3.4,2.9,5.6,6.9,6.5,11.4
		c1.4,6.8-0.4,12.9-4.8,18c-3.8,4.4-8.8,7-14.8,7.2c-4.2,0.2-8.2-0.8-12.1-2.4C590.7,414.4,585.3,406.3,585.8,398.4z M608.5,379.6
		c-6.8,0.3-12.6,2.7-16.4,8.7c-3.2,4.9-4,10.3-2.3,16c1.1,3.8,3.3,7,6.4,9.4c2.2,1.7,4.4,3.4,7.2,4c3.6,0.7,7.1,0.2,10.5-1.1
		c7.8-3,12.6-10.3,12.3-18.7c-0.1-4.2-1.5-7.9-4.2-11.2C618.5,382.3,614.3,379.4,608.5,379.6z"/>
	<path class="st13" d="M562.3,268.6c-0.5-9.2,7.3-19,18-20.3c7.4-0.9,14.4,0.9,19.8,6.3c4.7,4.7,6.9,10.5,6,17.4
		c-0.9,7.1-4.4,12.2-10.3,15.8c-4.4,2.7-9.3,3.2-14.3,2.4c-3.9-0.6-7.6-1.7-10.8-4.2C565.2,281.8,562.2,276.3,562.3,268.6z
		 M583.4,288.5c6.1,0.2,10.9-2.6,14.7-6.8c3-3.4,4.2-7.8,4.5-12.4c0.2-2.8-0.6-5.5-1.7-8.1c-2.4-5.5-6.7-8.7-12.1-10.7
		c-1.8-0.7-3.6-0.1-5.4,0c-6.5,0.2-11.3,3.4-14.9,8.7c-2.1,3.1-3.2,6.7-3.1,10.4c0.1,4.1,1.3,8,3.9,11.3
		C572.9,285.5,577.5,288.2,583.4,288.5z"/>
	<path class="st13" d="M577.7,375.8c-8.7-1.1-15.7-7.5-17.6-16.4c-2.5-12,5.2-23.4,17.3-25.1c7.5-1.1,14.5,0.7,20.1,6.1
		c3.5,3.4,5.5,7.6,6.2,12.6c1.3,11-6.4,21.3-16.6,23.1c-2.6,0.5-5.4,0.7-8-0.2c1.3-0.2,2.7,0.3,4-0.5
		C581.3,375.8,579.4,374.8,577.7,375.8z M580.7,374.4c5.2,0.1,9.5-1.7,13.2-5.2c3.3-3.1,5.3-7,6-11.6c0.8-4.7-0.5-8.9-2.7-12.8
		c-2.5-4.5-6.8-7-11.7-8.6c-0.5-0.2-1.1-0.2-1.7-0.2c-2.1,0.2-4.1,0.3-6.2,0.7c-4.2,0.8-7.4,3.2-10.2,6.2c-2.2,2.4-3.5,5.2-4.2,8.2
		c-0.4,1.8-0.9,3.7-0.5,5.7c0.9,5.7,3.2,10.7,8.2,14C574,372.8,577.1,374.7,580.7,374.4z"/>
	<path class="st8" d="M696.3,379.2c-3.9,0.1-7.1-1.8-10-4.1c-0.4-0.3-0.7-0.8-1-1.3c-1.8-3.5-2.9-7.1-3.1-11
		c-0.1-2.4,0.7-4.4,2.6-6.1c3.3-2.9,10-4.6,14.2-1c2.2,1.8,3.7,4.1,3.4,7c-0.2,2.8-0.2,5.4,1.3,7.9c0.7,1.1,0.4,1.5-1.1,1.8
		c-0.8,0.1-1.1,0.4-1.2,1.2c-0.1,0.9-0.4,1.7-0.6,2.6c-0.5,2.7-1,3-3.6,3C696.9,379.2,696.6,379.2,696.3,379.2z M690.3,370.6
		c0-1.1,0.1-2,0-2.9c-0.1-1.3-1-2-2-1.8c-1.1,0.2-1.7,1.2-1.4,2.4c0.2,0.9,0.5,1.7,0.8,2.5c0.1,0.4,0.4,0.9-0.1,1.3
		c-0.8,0.7-0.2,1.1,0.3,1.5c2.6,2.2,5.6,3.6,9.1,3.7c1.7,0,1.7,0,1.8-1.7c0.1-1,0.7-2,0.7-3c0-1.5,0.7-2.1,2.3-2.3
		c-2.2-3.1-0.7-6.5-1.6-9.7c-1.4,3.4-4.3,4-7.3,4.2c0,1.1,0,1.9,0,2.8C692.9,369.7,692.9,369.7,690.3,370.6z"/>
	<path class="st8" d="M229.2,399.6c0-3.7,2.5-7,6.3-7.8c3.4-0.8,6.8-0.7,9.9,1.3c2.8,1.8,4.6,6.1,3.5,9.2c-0.7,2.1-0.6,4-0.1,6.1
		s0.5,2.1-1.6,2.9c-0.5,0.2-0.8,0.4-1,0.9c-0.1,0.3-0.1,0.6-0.3,0.9c-0.7,1.1-0.4,2.9-1.8,3.5c-1.6,0.7-3.4,0.3-4.9-0.2
		c-3.5-1.1-6.4-3.2-8.4-6.4c-0.1-0.2-0.3-0.4-0.3-0.6C230,406,229.2,402.9,229.2,399.6z M236,407.3c0.1-0.6,0.1-1,0.2-1.4
		c0.1-0.5,0.2-0.9,0.2-1.4c0-1.2-0.6-1.9-1.6-2c-1,0-1.7,0.6-1.7,1.8c0,0.3,0.1,0.6,0.1,1c0,1.1,1.1,2.3-0.3,3.3
		c-0.3,0.2,0.2,0.7,0.4,1c2.2,2.6,4.9,4.3,8.2,5c1,0.2,1.5,0.1,1.7-1.2c0.4-1.9,0.6-4.1,2.9-4.9c0.5-0.2,0.3-0.7,0.2-1
		c-0.5-1.9-0.3-3.8,0.4-5.6c0.3-0.7,0.4-1.5,0-2.5c-1.7,2.3-3.9,3.2-6.5,2.8c-0.6-0.1-0.9,0.1-1,0.7s-0.3,1.1-0.3,1.6
		C238.8,406.9,238.3,407,236,407.3z"/>
	<path class="st8" d="M749.3,375.2c-0.3,0-0.6-0.1-1-0.1c-2.3-0.3-2.4-0.3-2.6-2.5c-0.1-1.2-0.8-2.2-1-3.4c-0.2-0.8-0.9-0.5-1.3-0.7
		c-1.2-0.4-1.5-0.8-0.9-1.9c0.5-1.1,0.7-2.2,1.4-3.2c0.7-0.9,0.5-2.2,0.2-3.3c-1.5-6.3,3.9-11.2,10.5-10.4c3.3,0.4,6.1,1.9,8.1,4.6
		c1.4,1.8,2.1,3.8,1.4,6c-0.8,2.7-1.5,5.3-2.3,8c-0.2,0.8-0.7,1.4-1.3,2C757.5,373.3,753.8,375,749.3,375.2z M756.1,366.4
		c-2.4-0.6-2.4-0.6-2.4-2.7c0-0.7,0-1.4,0-2.2c0-0.7-0.3-1-1-1c-3,0.1-5-1.4-6.3-4.1c-0.7,1.2-0.7,2.3-0.4,3.4
		c0.4,1.4,0.2,2.8-0.2,4.2c-0.3,1-1.5,2.4,0.8,2.8c0.1,0,0.2,0.3,0.2,0.4c-0.1,1.5,0.9,2.7,0.9,4.1c0,1.9,0.3,2.1,2,1.9
		c3-0.3,5.8-1.2,8.2-3.1c0.8-0.6,2.4-1.1,0.9-2.6c-0.2-0.2,0.1-0.7,0.2-1.1c0.2-0.8,0.6-1.7,0.7-2.5c0.2-1.2-0.4-1.9-1.4-2.1
		c-1-0.1-1.8,0.5-2,1.6C756.1,364.5,756.4,365.4,756.1,366.4z"/>
	<path class="st12" d="M703.4,483.8c0.3-6.4,0.1-12.8,0.1-19.2c0-1.2-0.6-1.8-1.7-1.9c-0.6-0.1-1.1-0.1-1.7-0.1
		c-7.8,0-15.5,0-23.3,0c-0.6,0-1.1,0-1.7,0.1c-1.1,0.1-1.7,0.7-1.7,1.9c0.1,6.4-0.2,12.8,0.1,19.2c-1.9-0.4-1.9-0.4-1.9-2.3
		c0-3.9,0-7.8,0-11.7c0-2.2,0-4.5,0-6.7c0-2.1,0.3-2.3,2.4-2.3c1.4,0,2.8,0.2,3.9-1.1c0.5-0.7,1.8-0.2,2.8-0.3
		c0,1.4,0.7,1.7,1.9,1.4c0.2,0,0.3,0,0.5,0c2.9,0,5.7,0,8.6,0.1c1.2,0,1.7-0.5,1.7-1.7c0-1-0.2-2,0.2-3c0.9-0.1,0.6,0.6,0.7,1
		c0.1,0.8,0,1.6,0,2.4c0.1,1.2,0.8,1.7,1.6,1c0.9-0.7,1.7-0.7,2.6-0.7c1.4,1,2.9,0.9,4.5,0.9c1.7,0,2.1,0.4,2.1,2.1
		c0,1.8,0,3.7,0,5.5c0,4.4,0,8.8,0,13.1C705.3,483.4,705.3,483.4,703.4,483.8z"/>
	<path class="st12" d="M374.9,457.4c-3.3-0.1-5.5-2.2-5.6-5.5c-0.1-2.7,0.7-5.2,2.1-7.4c1.1-1.7,2.1-3.4,3.1-5.1
		c0.4-0.7,0.9-0.6,1.3,0c1.8,3.3,4.1,6.3,5.2,9.9C382.4,453.5,379.3,457.5,374.9,457.4z"/>
	<path class="st14" d="M258.1,415.3c3.5,0.9,3.5,0.9,1.8,4c-1.8,3.2-3.7,6.3-5.5,9.5c-0.5,0.9-1,1.2-2.1,1c-2.4-0.5-4.8-0.9-7.3-1.2
		c-0.7-0.1-1.4-0.2-1.7-1c-0.9-2.2-1.8-4.4-2.7-6.6c3.4,0.6,6.9,1.1,10.3,1.7c2.7,0.4,2.7,0.2,3.8-1.7
		C255.8,419.1,256.7,417.1,258.1,415.3z"/>
	<path class="st7" d="M577.7,375.8c1.7-0.9,3.6,0,5.4-0.4c-1.3,0.8-2.7,0.3-4,0.5C578.6,375.8,578.1,375.8,577.7,375.8z"/>
	<path class="st2" d="M525.9,691.7c-0.3-0.4-0.4-0.9-0.5-1.3C525.5,690.8,525.7,691.3,525.9,691.7z"/>
	<path class="st12" d="M695.6,387.9c0.2,0.3,0.2,0.6-0.1,0.7c-0.4,0-0.6-0.3-0.8-0.6C695,387.9,695.3,387.9,695.6,387.9z"/>
	<path class="st12" d="M535,657.2c0.3,0,0.7,0,1,0c-0.2,0.3-0.6,0.4-0.9,0.5C535,657.6,535,657.4,535,657.2z"/>
	<path class="st12" d="M229.3,491.5c0.1-0.2,0.1-0.4,0.2-0.6c0,0.2,0.1,0.4,0.1,0.6h-0.2H229.3z"/>
	<path class="st1" d="M315.2,319.2c-0.2-0.2-0.3-0.3-0.5-0.5C314.9,318.8,315.1,318.9,315.2,319.2z"/>
	<path class="st15" d="M797.4,585c0.3-0.6,0.5-1.2,0.8-1.7c4-5.9,3.1-13.1-0.6-18.4c-0.4-0.6-1.2-1.1-1.2-2.2c3.3-1,6.7-0.9,10-0.6
		c2.5,0.2,5,0.8,7.4,1.7c3.2,1.2,5.8,3.1,7.7,5.8c2.6,3.8,2.4,6.3,0.1,9.7c-0.6,0.9-1.4,1.7-2,2.7c-0.6,0.9-1.5,1.7-1.5,2.9
		C811.2,585.2,804.3,585.1,797.4,585z"/>
	<path class="st15" d="M769.8,574c-0.6,3.6-1.3,7.3-1,11c-6.5,0-12.9,0.1-19.4,0.1c-1,0-2.1,0-3.1,0c-0.3-4.5,0.4-8.8,2.7-12.6
		c2.7-4.4,6.8-6.9,11.6-8.3c3-0.9,6-1.7,9.1-1.6C769.7,566.4,769.8,570.2,769.8,574z"/>
	<path class="st15" d="M783,567.4c3.9-2.8,4.6-2.7,7.9,0.7c2.1,2.2,3.2,4.7,2.8,7.8c-0.1,0.8-0.2,1.6-0.7,2.3c-1.7,2.3-3.3,4.6-5,7
		c-1.6,0-3.3-0.1-4.9-0.1C783.2,579.2,783.3,573.3,783,567.4z"/>
	<path class="st2" d="M783,567.4c0.3,5.9,0.2,11.7,0.1,17.6c-2.5,0.1-5.1,0.2-7.6-0.1c0-3.6,0.3-7.1,1.7-10.4
		C778.5,571.6,780.5,569.3,783,567.4z"/>
	<path class="st8" d="M748.8,601.4c0.5-1.6,0.3-3.1-0.2-4.6c-0.9-2.6-1.8-5.2-1.8-8.1c2.9,0.7,4.7,2.6,5.1,5.6
		C752.3,597.1,751.5,599.7,748.8,601.4z"/>
	<path class="st8" d="M789.7,602.9c0.3-1.9,0.6-3.7,1.1-5.6c0.4-1.7,0.7-3.4,1.9-4.8c1.5,2.3,1.8,4.7,0.6,7.2
		C792.6,601.3,791.7,602.7,789.7,602.9z"/>
	<path class="st8" d="M785.5,590.5c-0.7,2.8-1.7,5.4-2.1,8.3c-0.1,0.7-0.1,1.4-0.2,2.1c-2-1.9-2.3-5.6-0.4-8.2
		C783.5,591.7,784.3,590.8,785.5,590.5z"/>
	<path class="st8" d="M740,592.8c1,2.7,1.8,5.4,2.4,8.2C739.7,599,739,596.6,740,592.8z"/>
	<path class="st8" d="M742.3,600.9c0.2,0,0.3,0.2,0.3,0.4C742.5,601.2,742.4,601.1,742.3,600.9z"/>
	<path class="st14" d="M370.3,517.3c0,5.6-4.6,10.2-10.3,10.2c-5.6,0-10.2-4.6-10.3-10.2c0-5.7,4.7-10.4,10.4-10.3
		S370.3,511.7,370.3,517.3z"/>
	<path class="st14" d="M360,554.8c5.7,0,10.2,4.4,10.3,10.1c0.1,5.7-4.5,10.3-10.3,10.3c-5.7,0-10.2-4.6-10.2-10.2
		C349.8,559.3,354.4,554.8,360,554.8z"/>
	<path class="st8" d="M263.4,407.5c0.4-0.4,0.9-0.8,1.3-1.2c2.2-0.6,4.3-0.3,6.2,0.8c1.5,0.8,2.2,2.1,1.9,3.8
		c-0.4,2.1-1.2,4-1.9,5.9c-0.3,0.7-0.7,0.8-1.3,0.6c-0.5-0.2-1.1-0.2-1.6-0.6c0.6-1.7,1.3-3.4,1.9-5.2c0.2-0.6,0.5-1.3,0.1-1.8
		c-0.9-0.9-2.1-1.1-3.3-1c-1,0-1.2,0.9-1.4,1.7c-0.5,1.9-0.5,3.8-0.7,5.7c-0.5,0-0.9,0-1.4-0.1c-1-0.1-1.3-0.6-1.3-1.6
		c0.1-1.6,0.3-3.3,0.7-4.9c0.1-0.5,0.4-1,0.3-1.6h-0.1C263.2,408.1,263.3,407.8,263.4,407.5z"/>
	<path class="st10" d="M264.6,416.1c0.1-1.9,0.2-3.8,0.7-5.7c0.2-0.8,0.4-1.7,1.4-1.7c1.2,0,2.4,0.1,3.3,1c0.5,0.5,0.1,1.2-0.1,1.8
		c-0.6,1.7-1.2,3.4-1.9,5.2C266.8,416.7,265.7,416.7,264.6,416.1z"/>
	<path class="st13" d="M571,539c-7.8-1-15.1-6.9-17.2-15.6c-3.7-14.8,9.2-28.4,24.2-25.7c3.1,0.6,6.1,1.2,8.8,2.8
		c6.6,3.9,10.2,9.8,10.5,17.5c0.5,11-7.8,21.7-21.1,21.9c-1.1,0-2.2-0.2-3.3-0.4C572.5,538.3,571.8,538.4,571,539z M556.6,518.7
		c-0.3,3.6,0.9,7,2.8,10.2c2.5,4.1,6.4,6.5,10.6,8.2c3.3,1.3,6.8,0.8,10.1-0.3c5.3-1.8,9.4-5.1,11.7-10.5c2.9-6.9,2.3-13.4-2.1-19.4
		c-4.4-6.1-10.4-8.6-17.9-7.1C562.7,501.5,556,509.9,556.6,518.7z M579.4,538c-1.3,0.2-2.6,0.5-4,0.7
		C576.8,539.1,578.2,539.2,579.4,538z"/>
	<path class="st7" d="M571,539c0.8-0.5,1.5-0.7,1.9,0.4C572.2,539.5,571.6,539.1,571,539z"/>
	<path class="st5" d="M476.3,665.9c0,1.9-1.6,3.5-3.5,3.6c-2,0.1-3.7-1.6-3.7-3.6c0-2.1,1.4-3.5,3.4-3.5
		C474.6,662.3,476.3,663.9,476.3,665.9z"/>
	<path class="st5" d="M472.7,588.3c1.9,0,3.5,1.6,3.6,3.5s-1.7,3.7-3.6,3.7c-2,0-3.6-1.7-3.5-3.8
		C469.2,589.7,470.7,588.3,472.7,588.3z"/>
	<path class="st5" d="M512.2,591.9c0,1.9-1.8,3.7-3.8,3.6c-1.9-0.1-3.4-1.7-3.4-3.7c0-2.1,1.6-3.6,3.7-3.5
		C510.7,588.4,512.3,590.1,512.2,591.9z"/>
	<path class="st1" d="M263.4,407.5c-0.1,0.3-0.3,0.5-0.6,0.5C263,407.9,263.2,407.7,263.4,407.5z"/>
	<path class="st10" d="M691.5,455.5c0,0.6,0,1.1,0,1.6c0,0.2-0.1,0.5-0.2,0.7c-0.9,0.9-4,0.3-4.3-1c-0.5-1.9-0.9-3.8-0.7-5.7
		c0.2-2,2-0.8,3.1-1.2c0.7-0.3,1.6-0.3,1.7,0.9C691.1,452.5,691.3,454,691.5,455.5z"/>
	<path class="st10" d="M718.8,423.8c-0.3-1.1,0.2-1.6,1.2-1.9c1-0.4,2-1,3-1.4c2.2-0.9,3-0.4,3.5,1.9c0.3,1.6,0.1,1.9-1.5,2.4
		c-1.5,0.4-3.1,0.7-4.6,1.1c-1.2,0.3-1.7-0.1-1.5-1.3C718.9,424.3,718.8,424,718.8,423.8z"/>
	<path class="st6" d="M730.8,421.4c0.2,1.1,0.1,2.2,0,3.3c-0.6-0.1-1.3,0.2-1.9-0.2c-0.2-1.2-0.3-2.5-0.5-3.7
		C729.4,420.7,730,421.4,730.8,421.4z"/>
	<path class="st15" d="M683.3,460.8c-0.2,0-0.3,0-0.5,0c0-1.4,0-2.7,0-4.1c0-0.5,0.3-0.7,0.7-0.7s0.8,0,1,0.4s0.2,0.9-0.2,1.1
		C682.8,458.2,683.5,459.7,683.3,460.8z"/>
	<path class="st10" d="M760.3,446.9c-0.2,1.7-0.2,3.5-0.6,5.2c-0.4,1.7-2.9,2.6-4.3,1.6c-0.5-0.4-0.4-0.8-0.3-1.3
		c0.2-2,0.3-4,0.5-5.9C757.1,446.6,758.7,446.8,760.3,446.9z"/>
	<path class="st10" d="M769.8,574c0-3.8-0.1-7.7-0.1-11.5c2.3-0.8,4.7-0.3,6.8-0.4c0.4,0.5,0.3,0.8,0,1.1c-2.9,2.9-5,6.4-6.4,10.3
		C770.1,573.7,769.9,573.8,769.8,574z"/>
	<path class="st4" d="M654.7,802.3c-0.3-1.4-0.8-2.7-0.8-4.2c-0.1-5.7,3.8-9.8,9.4-10.1c0.5,0,0.9-0.1,1.4-0.1
		c2.5,1,4.7,2.4,6.3,4.6c2.4,3.5,2.2,7.7-0.5,10.9c-2.6,3.2-6.8,4.2-10.6,2.6C658,805.2,656.2,804,654.7,802.3z"/>
	<path class="st2" d="M565.3,728.6c-0.1,0.5-0.3,1-0.9,0.7c-0.9-0.4-1.4-0.1-1.7,0.7c-0.3,0.9-1.6,1.6-0.6,2.7
		c0.7,0.7,0.4,1.2,0,1.8c-0.6,0.8-1.3,1.6-1.9,2.4c-7.5-4.3-14.4-9.7-21.6-14.6c-0.2-0.1-0.3-0.3-0.5-0.5c3.6-0.5,5-2.1,5-5.7
		c0-0.4,0-0.8,0-1.2c4.9,2.9,9.8,5.8,14.6,8.6c1.9,1.1,3.8,2.3,5.8,3.4C564.2,727.6,565,727.8,565.3,728.6z"/>
	<path class="st5" d="M543.1,715.1c0,0.4,0,0.8,0,1.2c0,3.6-1.3,5.2-5,5.7c-1.2-0.4-2.1-1.1-3-1.9c-1.8-1.7-2.1-3.9-0.7-5.8
		c1.2-1.7,3.6-2.1,5.6-1C541.1,713.7,542.1,714.4,543.1,715.1z"/>
	<path class="st11" d="M640.3,792.6c0.5,0,1.1-0.1,1.6,0c2.3,0.1,2.4,0.2,1.9,2.5C642.5,794.5,641.3,793.7,640.3,792.6z"/>
	<path class="st11" d="M653.7,781.3c-2.1,1.4-2.5,1.1-3.1-1.8C651.9,779.7,652.8,780.4,653.7,781.3z"/>
	<path class="st11" d="M650.7,779.5c-0.1-0.1-0.3-0.3-0.4-0.4C650.5,779.2,650.6,779.3,650.7,779.5z"/>
	<path class="st7" d="M558.7,291.8c5.3-0.3,9.2,2.4,12.6,6.3c1.9,2.1,3.2,4.5,4,7.2c1.5,4.8,1,9.6-1.2,13.9
		c-2.7,5.4-7.3,8.8-13.1,10.2c-2.7,0.7-5.6,0.8-8.2,0c-2.1-0.6-4-1.9-5.8-3.2c-5.4-3.9-8.4-9.3-8.1-16c0.4-8.8,5.9-16.2,15.5-18.2
		C555.8,291.9,557.2,291.8,558.7,291.8z"/>
	<path class="st7" d="M556.8,377.7c4.9-0.3,8.8,2.3,12,6.1c0.6,0.7,1.1,1.3,1.7,2c2.4,2.9,3.2,6.5,3.2,10.1c0.1,5.6-2,10.6-5.9,14.7
		c-2.9,3-6.7,4.3-10.8,5.1c-8.9,1.8-18.6-6.9-20.1-14.7c-1.3-6.6,0.3-12.3,4.8-17.2C545.6,379.4,550.7,377.7,556.8,377.7z"/>
	<path class="st7" d="M591.6,312.7c-0.8-7.9,6.9-17.5,15.5-18.6c1.5-0.2,3-0.5,4.5-0.6c2-0.2,3.9,0.7,5.7,1.4
		c4.3,1.8,7.2,5.1,9.3,9.2c3.9,7.5,2.2,17.5-4.7,23.2c-3.5,2.9-7.5,4.4-12,4.8c-3.7,0.3-6.8-1.3-9.7-3.3
		C595.1,325.6,591.1,319.7,591.6,312.7z"/>
	<path class="st7" d="M608.5,379.6c5.8-0.2,10,2.7,13.5,6.9c2.7,3.3,4,7.1,4.2,11.2c0.3,8.4-4.4,15.7-12.3,18.7
		c-3.4,1.3-6.9,1.9-10.5,1.1c-2.8-0.6-5.1-2.3-7.2-4c-3.1-2.4-5.2-5.6-6.4-9.4c-1.7-5.7-0.8-11,2.3-16
		C595.9,382.4,601.6,379.9,608.5,379.6z"/>
	<path class="st7" d="M583.4,288.5c-5.9-0.4-10.5-3.1-14.2-7.7c-2.7-3.3-3.8-7.2-3.9-11.3c-0.1-3.7,1-7.3,3.1-10.4
		c3.6-5.3,8.4-8.4,14.9-8.7c1.8-0.1,3.6-0.7,5.4,0c5.4,2,9.8,5.2,12.1,10.7c1.1,2.6,1.9,5.2,1.7,8.1c-0.3,4.6-1.5,9-4.5,12.4
		C594.4,286,589.5,288.7,583.4,288.5z"/>
	<path class="st7" d="M580.7,374.4c-3.6,0.3-6.7-1.6-9.7-3.5c-5-3.3-7.2-8.3-8.2-14c-0.3-1.9,0.1-3.9,0.5-5.7c0.7-3,2-5.8,4.2-8.2
		c2.9-3.1,6.1-5.4,10.2-6.2c2-0.4,4.1-0.5,6.2-0.7c0.5,0,1.1,0,1.7,0.2c4.8,1.6,9.1,4.1,11.7,8.6c2.2,3.9,3.5,8.1,2.7,12.8
		c-0.8,4.6-2.7,8.5-6,11.6C590.2,372.7,585.8,374.5,580.7,374.4z"/>
	<path class="st10" d="M690.3,370.6c2.6-0.9,2.6-0.9,2.6-3c0-0.9,0-1.7,0-2.8c3.1-0.3,5.9-0.9,7.3-4.2c0.8,3.2-0.7,6.6,1.6,9.7
		c-1.6,0.2-2.2,0.8-2.3,2.3c0,1-0.6,1.9-0.7,3c-0.1,1.8-0.1,1.8-1.8,1.7c-3.5-0.1-6.5-1.5-9.1-3.7c-0.5-0.4-1.1-0.8-0.3-1.5
		c0.5-0.4,0.2-0.9,0.1-1.3c-0.3-0.8-0.6-1.7-0.8-2.5c-0.3-1.2,0.3-2.2,1.4-2.4c1-0.2,1.9,0.5,2,1.8
		C690.3,368.6,690.3,369.5,690.3,370.6z M699.3,366.4c-0.1-0.7-0.3-1.2-1.2-1.2c-0.8,0-1.2,0.5-1.2,1.2s0.4,1.2,1.2,1.3
		C698.9,367.7,699.2,367.2,699.3,366.4z"/>
	<path class="st10" d="M236,407.3c2.3-0.3,2.8-0.4,2.9-2.9c0-0.6,0.2-1.1,0.3-1.6c0.1-0.6,0.4-0.8,1-0.7c2.7,0.4,4.8-0.4,6.5-2.8
		c0.4,1.1,0.3,1.8,0,2.5c-0.7,1.8-0.9,3.7-0.4,5.6c0.1,0.4,0.3,0.8-0.2,1c-2.3,0.8-2.5,3-2.9,4.9c-0.3,1.3-0.8,1.4-1.7,1.2
		c-3.3-0.7-6-2.4-8.2-5c-0.2-0.3-0.7-0.8-0.4-1c1.3-1,0.3-2.2,0.3-3.3c0-0.3-0.1-0.6-0.1-1c0-1.2,0.7-1.9,1.7-1.8c1,0,1.6,0.8,1.6,2
		c0,0.5-0.2,0.9-0.2,1.4C236.1,406.3,236,406.7,236,407.3z M243.9,405.6c0.8,0,1.2-0.4,1.2-1.2c0-0.6-0.3-1.1-0.9-1.2
		c-0.8-0.1-1.2,0.3-1.3,1C242.8,405.1,243.2,405.5,243.9,405.6z"/>
	<path class="st10" d="M756.1,366.4c0.3-0.9,0-1.9,0.2-2.8c0.2-1.1,0.9-1.8,2-1.6c1,0.1,1.6,0.9,1.4,2.1c-0.1,0.9-0.5,1.7-0.7,2.5
		c-0.1,0.4-0.4,1-0.2,1.1c1.5,1.5-0.1,2-0.9,2.6c-2.4,1.9-5.2,2.8-8.2,3.1c-1.7,0.2-2-0.1-2-1.9c0-1.5-1-2.7-0.9-4.1
		c0-0.1-0.1-0.4-0.2-0.4c-2.3-0.4-1.1-1.8-0.8-2.8c0.4-1.4,0.6-2.8,0.2-4.2c-0.3-1.1-0.3-2.2,0.4-3.4c1.3,2.7,3.3,4.2,6.3,4.1
		c0.7,0,1,0.3,1,1s0,1.4,0,2.2C753.7,365.8,753.7,365.8,756.1,366.4z M748.4,361.1c-0.7,0.2-1.2,0.5-1.2,1.3s0.5,1.2,1.2,1.2
		s1.2-0.4,1.2-1.2C749.6,361.6,749.1,361.2,748.4,361.1z"/>
	<path class="st7" d="M556.6,518.7c-0.6-8.8,6.1-17.2,15.2-18.9c7.5-1.4,13.5,1.1,17.9,7.1s5,12.5,2.1,19.4
		c-2.3,5.4-6.4,8.7-11.7,10.5c-3.3,1.1-6.8,1.6-10.1,0.3c-4.2-1.6-8.1-4.1-10.6-8.2C557.4,525.7,556.3,522.3,556.6,518.7z"/>
	<path class="st7" d="M579.4,538c-1.1,1.2-2.5,1-4,0.7C576.7,538.5,578.1,538.3,579.4,538z"/>
	<path class="st8" d="M296.5,645c1-0.6,0.3-1.4,0.3-2.1c0-0.7-0.3-1.4-0.4-2.1c-0.1-0.5-0.2-1,0.5-1.1c0.8-0.1,0.8,0.6,0.9,1.1
		c0.2,1.2,0.3,2.4,0.5,3.6c0.1,0.4,0.3,1,0.9,0.4l0,0c0.1,2.1,0.7,4.1,1.1,6.1c1.2,6.9,2.6,13.8,3.9,20.7c0.8,0.4,1.2-0.2,1.7-0.6
		c3.2-2.2,6.4-4.5,9.6-6.8c1.8-1.3,2.6-1.4,3.3-0.4c0.7,0.9,0.3,1.9-1.4,3c-3.8,2.7-7.6,5.3-11.4,8c-1.1-2.1-2.8-2.9-5.1-2.2
		c-1.5-8.2-3-16.3-4.5-24.5C296.3,647,296.1,646,296.5,645L296.5,645z"/>
	<path class="st16" d="M301,672.5c2.3-0.7,4,0.1,5.1,2.2c-0.2,1-0.5,2-0.7,2.9c-1.1,0.2-2,0.8-3.1,0.7c-0.3-0.1-0.7-0.1-1-0.2
		c-0.6-0.8-1.5-1.6-1.5-2.7S300.6,673.5,301,672.5z M304.6,675.4c0-1-0.8-1.9-1.8-1.8c-0.9,0-1.6,0.8-1.6,1.8c0,0.9,0.7,1.8,1.5,1.8
		C303.6,677.2,304.5,676.3,304.6,675.4z"/>
	<path class="st8" d="M302.2,678.3c1.1,0.1,2.1-0.5,3.1-0.7c0.2,0.8,0.4,1.7,0.5,2.5c0.1,0.9-0.1,1.6-1,1.9c-1,0.3-1.7-0.1-2.1-1
		C302.3,680.2,302.1,679.3,302.2,678.3z"/>
	<path class="st8" d="M299.7,675.4c0.1,1.2,0.9,1.9,1.5,2.7c-0.5,0.4-1,0.8-1.6,1.1c-0.8,0.4-1.6,0.2-2.1-0.5
		c-0.5-0.8-0.4-1.5,0.3-2.1C298.5,676.1,299.1,675.8,299.7,675.4z"/>
	<path class="st14" d="M699.3,366.4c-0.1,0.7-0.5,1.3-1.2,1.2c-0.8,0-1.2-0.6-1.2-1.3c0-0.7,0.5-1.2,1.2-1.2
		C699,365.2,699.2,365.8,699.3,366.4z"/>
	<path class="st14" d="M243.9,405.6c-0.7-0.1-1.1-0.6-1-1.3c0.1-0.7,0.6-1.2,1.3-1c0.6,0.1,1,0.6,0.9,1.2
		C245.1,405.3,244.7,405.6,243.9,405.6z"/>
	<path class="st14" d="M748.4,361.1c0.7,0.1,1.2,0.5,1.2,1.2c0,0.8-0.5,1.2-1.2,1.2s-1.2-0.4-1.2-1.2
		C747.2,361.6,747.7,361.2,748.4,361.1z"/>
	<path class="st8" d="M304.6,675.4c0,1-0.9,1.8-1.9,1.8c-0.9-0.1-1.6-0.9-1.5-1.8c0-0.9,0.8-1.7,1.6-1.8
		C303.7,673.5,304.6,674.3,304.6,675.4z"/>
</g>
</svg>
