<?xml version="1.0" encoding="utf-8"?>
<!-- Generator: Adobe Illustrator 19.2.1, SVG Export Plug-In . SVG Version: 6.00 Build 0)  -->
<svg version="1.1" id="Layer_1" xmlns="http://www.w3.org/2000/svg" xmlns:xlink="http://www.w3.org/1999/xlink" x="0px" y="0px"
	 viewBox="0 0 560 560" style="enable-background:new 0 0 560 560;" xml:space="preserve">
<style type="text/css">
	.st0{fill:#2E8489;}
	.st1{fill:#FFFFFF;}
	.st2{fill:#CCCBCA;}
	.st3{fill:#06B2B8;}
	.st4{fill:#FFBB33;}
	.st5{fill:#242D3C;}
	.st6{fill:#21D8DE;}
	.st7{fill:#131A26;}
	.st8{fill:#374863;}
	.st9{fill:#FFD85C;}
	.st10{fill:#FFCA40;}
	.st11{fill:#3E4959;}
	.st12{fill:#EEEEED;}
	.st13{fill:#DDDCDC;}
	.st14{fill:#E6E5E5;}
</style>
<g>
	<rect x="-3.5" y="-3.5" class="st0" width="566.9" height="566.9"/>
	<g>
		<g>
			<g>
				<path class="st1" d="M499.5,393.3c-0.5,0-0.9-0.4-0.9-0.9v-74.8c0-0.5,0.4-0.9,0.9-0.9c0.5,0,0.9,0.4,0.9,0.9v74.8
					C500.4,392.9,500,393.3,499.5,393.3z"/>
				<path class="st1" d="M509.1,328.1c-0.2,0-0.5-0.1-0.6-0.3l-9-9l-9,9c-0.4,0.4-0.9,0.4-1.3,0c-0.4-0.4-0.4-0.9,0-1.3l9.6-9.6
					c0.4-0.4,0.9-0.4,1.3,0l9.6,9.6c0.4,0.4,0.4,0.9,0,1.3C509.6,328.1,509.4,328.1,509.1,328.1z"/>
			</g>
			<g>
				<path class="st1" d="M335,190.5c-0.5,0-0.9-0.4-0.9-0.9v-23.7c0-0.5,0.4-0.9,0.9-0.9c0.5,0,0.9,0.4,0.9,0.9v23.7
					C335.9,190.1,335.5,190.5,335,190.5z"/>
				<path class="st1" d="M344.7,176.4c-0.2,0-0.5-0.1-0.6-0.3l-9-9l-9,9c-0.4,0.4-0.9,0.4-1.3,0c-0.4-0.4-0.4-0.9,0-1.3l9.6-9.6
					c0.4-0.4,0.9-0.4,1.3,0l9.6,9.6c0.4,0.4,0.4,0.9,0,1.3C345.1,176.3,344.9,176.4,344.7,176.4z"/>
			</g>
			<g>
				<path class="st1" d="M67,408.8c-0.5,0-0.9-0.4-0.9-0.9v-44c0-0.5,0.4-0.9,0.9-0.9c0.5,0,0.9,0.4,0.9,0.9v44
					C67.9,408.4,67.5,408.8,67,408.8z"/>
				<path class="st1" d="M76.6,374.4c-0.2,0-0.5-0.1-0.6-0.3l-9-9l-9,9c-0.4,0.4-0.9,0.4-1.3,0c-0.4-0.4-0.4-0.9,0-1.3l9.6-9.6
					c0.4-0.4,0.9-0.4,1.3,0l9.6,9.6c0.4,0.4,0.4,0.9,0,1.3C77.1,374.3,76.9,374.4,76.6,374.4z"/>
			</g>
			<g>
				<path class="st1" d="M405.8,244.9h-21.4c-0.5,0-0.9-0.4-0.9-0.9v-21.4c0-0.5,0.4-0.9,0.9-0.9c0.5,0,0.9,0.4,0.9,0.9v20.5h20.5
					c0.5,0,0.9,0.4,0.9,0.9C406.7,244.5,406.3,244.9,405.8,244.9z"/>
				<path class="st1" d="M399.6,260c-0.2,0-0.5-0.1-0.6-0.3l-15.1-15.1c-0.3-0.3-0.3-0.7-0.2-1c0.1-0.3,0.5-0.6,0.8-0.6h21.4
					c0.5,0,0.9,0.4,0.9,0.9c0,0.5-0.4,0.9-0.9,0.9h-19.2l13.6,13.6c0.4,0.4,0.4,0.9,0,1.3C400,259.9,399.8,260,399.6,260z"/>
				<path class="st1" d="M384.5,266.3c-12.3,0-22.3-10-22.3-22.3c0-12.3,10-22.3,22.3-22.3c12.3,0,22.3,10,22.3,22.3
					C406.7,256.3,396.7,266.3,384.5,266.3z M384.5,223.5c-11.3,0-20.5,9.2-20.5,20.5c0,11.3,9.2,20.5,20.5,20.5
					c11.3,0,20.5-9.2,20.5-20.5C404.9,232.7,395.7,223.5,384.5,223.5z"/>
			</g>
			<g>
				<path class="st1" d="M473.4,270.7h-7.9c-0.5,0-0.9-0.4-0.9-0.9v-3.5c-1.5-0.4-3-1-4.4-1.8l-2.4,2.4c-0.4,0.4-0.9,0.4-1.3,0
					l-5.6-5.6c-0.2-0.2-0.3-0.4-0.3-0.6c0-0.2,0.1-0.5,0.3-0.6l2.4-2.4c-0.8-1.4-1.4-2.9-1.8-4.4h-3.5c-0.5,0-0.9-0.4-0.9-0.9v-7.9
					c0-0.5,0.4-0.9,0.9-0.9h3.5c0.4-1.5,1-3,1.8-4.4l-2.4-2.4c-0.2-0.2-0.3-0.4-0.3-0.6c0-0.2,0.1-0.5,0.3-0.6l5.6-5.6
					c0.3-0.3,0.9-0.3,1.3,0l2.4,2.4c1.4-0.8,2.9-1.4,4.4-1.8V227c0-0.5,0.4-0.9,0.9-0.9h7.9c0.5,0,0.9,0.4,0.9,0.9v3.4
					c1.5,0.4,3,1,4.4,1.8l2.4-2.4c0.2-0.2,0.4-0.3,0.6-0.3l0,0c0.2,0,0.5,0.1,0.6,0.3l5.6,5.6c0.4,0.4,0.4,0.9,0,1.3l-2.4,2.4
					c0.8,1.4,1.4,2.9,1.8,4.4h3.5c0.5,0,0.9,0.4,0.9,0.9v7.9c0,0.5-0.4,0.9-0.9,0.9h-3.5c-0.4,1.5-1,3-1.8,4.4l2.4,2.4
					c0.4,0.4,0.4,0.9,0,1.3l-5.6,5.6c-0.4,0.4-0.9,0.4-1.3,0l-2.4-2.4c-1.4,0.8-2.9,1.4-4.4,1.8v3.5
					C474.3,270.3,473.9,270.7,473.4,270.7z M466.4,268.9h6v-3.3c0-0.4,0.3-0.8,0.7-0.9c1.8-0.4,3.6-1.1,5.2-2.1
					c0.4-0.2,0.8-0.2,1.1,0.1l2.3,2.3l4.3-4.3l-2.3-2.3c-0.3-0.3-0.4-0.8-0.1-1.1c1-1.6,1.7-3.3,2.1-5.2c0.1-0.4,0.5-0.7,0.9-0.7
					h3.3v-6.1h-3.3c-0.4,0-0.8-0.3-0.9-0.7c-0.4-1.8-1.1-3.6-2.1-5.2c-0.2-0.4-0.2-0.8,0.1-1.1l2.3-2.3l-4.3-4.3l-2.3,2.3
					c-0.3,0.3-0.8,0.3-1.1,0.1c-1.6-1-3.3-1.7-5.2-2.1c-0.4-0.1-0.7-0.5-0.7-0.9v-3.3h-6v3.3c0,0.4-0.3,0.8-0.7,0.9
					c-1.8,0.4-3.6,1.1-5.2,2.1c-0.4,0.2-0.8,0.2-1.1-0.1l-2.3-2.3l-4.3,4.3l2.3,2.3c0.3,0.3,0.4,0.8,0.1,1.1c-1,1.6-1.7,3.3-2.1,5.2
					c-0.1,0.4-0.5,0.7-0.9,0.7H449v6.1h3.3c0.4,0,0.8,0.3,0.9,0.7c0.4,1.8,1.1,3.6,2.1,5.2c0.2,0.4,0.2,0.8-0.1,1.1l-2.3,2.3
					l4.3,4.3l2.3-2.3c0.3-0.3,0.8-0.4,1.1-0.1c1.6,1,3.3,1.7,5.2,2.1c0.4,0.1,0.7,0.5,0.7,0.9V268.9z"/>
				<path class="st1" d="M469.4,258c-5.3,0-9.6-4.3-9.6-9.6c0-5.3,4.3-9.6,9.6-9.6s9.6,4.3,9.6,9.6C479.1,253.7,474.7,258,469.4,258
					z M469.4,240.6c-4.3,0-7.8,3.5-7.8,7.8c0,4.3,3.5,7.8,7.8,7.8c4.3,0,7.8-3.5,7.8-7.8C477.3,244.1,473.7,240.6,469.4,240.6z"/>
			</g>
			<g>
				<path class="st1" d="M188.5,295.6c-0.2,0-0.4-0.1-0.6-0.3c-0.3-0.3-0.3-0.9,0-1.2l22.7-22.7c0.3-0.3,0.9-0.3,1.2,0
					c0.3,0.3,0.3,0.9,0,1.2l-22.7,22.7C188.9,295.6,188.7,295.6,188.5,295.6z"/>
				<g>
					<path class="st1" d="M206.9,295.6c-2.8,0-5.1-2.3-5.1-5.1c0-2.8,2.3-5.1,5.1-5.1c2.8,0,5.1,2.3,5.1,5.1
						C212,293.3,209.7,295.6,206.9,295.6z M206.9,287.1c-1.9,0-3.4,1.5-3.4,3.4c0,1.9,1.5,3.4,3.4,3.4c1.9,0,3.4-1.5,3.4-3.4
						C210.3,288.6,208.8,287.1,206.9,287.1z"/>
					<path class="st1" d="M192.8,281.5c-2.8,0-5.1-2.3-5.1-5.1s2.3-5.1,5.1-5.1c2.8,0,5.1,2.3,5.1,5.1S195.6,281.5,192.8,281.5z
						 M192.8,273c-1.9,0-3.4,1.5-3.4,3.4s1.5,3.4,3.4,3.4c1.9,0,3.4-1.5,3.4-3.4S194.6,273,192.8,273z"/>
				</g>
			</g>
			<g>
				<path class="st1" d="M184,174.5c-0.3,0-0.6-0.2-0.7-0.4l-8.6-14.8l-8.6,14.8c-0.3,0.5-1.2,0.5-1.5,0l-4.2-7.3l-3.2,5.6l-1.5-0.9
					l4-6.9c0.3-0.5,1.2-0.5,1.5,0l4.2,7.3l8.6-14.8c0.3-0.5,1.2-0.5,1.5,0l8.6,14.8l9-15.6l1.5,0.9l-9.7,16.8
					C184.6,174.3,184.3,174.5,184,174.5z"/>
				<path class="st1" d="M196.3,159.1c-0.1,0-0.3,0-0.4-0.1l-5.2-3c-0.3-0.2-0.4-0.4-0.4-0.7c0-0.3,0.2-0.6,0.4-0.7l5.2-3
					c0.3-0.2,0.6-0.2,0.9,0c0.3,0.2,0.4,0.4,0.4,0.7v6c0,0.3-0.2,0.6-0.4,0.7C196.6,159.1,196.4,159.1,196.3,159.1z M192.8,155.3
					l2.6,1.5v-3L192.8,155.3z"/>
				<path class="st1" d="M155.5,176.4c-1.5,0-2.8-1.3-2.8-2.8c0-1.5,1.3-2.8,2.8-2.8c1.5,0,2.8,1.3,2.8,2.8
					C158.3,175.1,157,176.4,155.5,176.4z M155.5,172.5c-0.6,0-1.1,0.5-1.1,1.1c0,0.6,0.5,1.1,1.1,1.1c0.6,0,1.1-0.5,1.1-1.1
					C156.6,173,156.1,172.5,155.5,172.5z"/>
			</g>
			<g>
				<g>
					<path class="st1" d="M255,203.9h-34.4c-0.5,0-1-0.4-1-1v-19.1c0-0.5,0.4-1,1-1H255c0.5,0,1,0.4,1,1v19.1
						C256,203.4,255.6,203.9,255,203.9z M221.3,202.2h33v-17.7h-33V202.2z"/>
					<path class="st1" d="M237.8,199.3c-3.3,0-6-2.7-6-6c0-3.3,2.7-6,6-6c3.3,0,6,2.7,6,6C243.9,196.6,241.2,199.3,237.8,199.3z
						 M237.8,188.9c-2.4,0-4.4,2-4.4,4.4c0,2.4,2,4.4,4.4,4.4s4.4-2,4.4-4.4C242.2,190.9,240.2,188.9,237.8,188.9z"/>
					<g>
						<path class="st1" d="M255.2,189.6c-3.3,0-6-2.7-6-6h1.7c0,2.4,2,4.4,4.4,4.4V189.6z"/>
						<path class="st1" d="M220.5,189.6V188c2.4,0,4.4-2,4.4-4.4h1.7C226.5,186.9,223.8,189.6,220.5,189.6z"/>
						<path class="st1" d="M250.8,203h-1.7c0-3.3,2.7-6,6-6v1.7C252.8,198.7,250.8,200.6,250.8,203z"/>
						<path class="st1" d="M226.5,203h-1.7c0-2.4-2-4.4-4.4-4.4V197C223.8,197,226.5,199.7,226.5,203z"/>
					</g>
					<g>
						<path class="st1" d="M249.9,194.1h-4.2c-0.5,0-0.8-0.4-0.8-0.8c0-0.5,0.4-0.8,0.8-0.8h4.2c0.5,0,0.8,0.4,0.8,0.8
							C250.8,193.8,250.4,194.1,249.9,194.1z"/>
						<path class="st1" d="M229.9,194.1h-4.2c-0.5,0-0.8-0.4-0.8-0.8c0-0.5,0.4-0.8,0.8-0.8h4.2c0.5,0,0.8,0.4,0.8,0.8
							C230.7,193.8,230.4,194.1,229.9,194.1z"/>
					</g>
				</g>
			</g>
			<g>
				<path class="st1" d="M416.6,185.6h-8.1c-0.5,0-0.9-0.4-0.9-0.9v-6.4c0-0.5,0.4-0.9,0.9-0.9h8.1c0.5,0,0.9,0.4,0.9,0.9v6.4
					C417.5,185.2,417.1,185.6,416.6,185.6z M409.4,183.9h6.4v-4.7h-6.4V183.9z"/>
				<path class="st1" d="M428.2,185.6h-8.1c-0.5,0-0.9-0.4-0.9-0.9v-22.2c0-0.5,0.4-0.9,0.9-0.9h8.1c0.5,0,0.9,0.4,0.9,0.9v22.2
					C429,185.2,428.6,185.6,428.2,185.6z M420.9,183.9h6.4v-20.5h-6.4V183.9z"/>
				<path class="st1" d="M439.7,185.6h-8.1c-0.5,0-0.9-0.4-0.9-0.9V168c0-0.5,0.4-0.9,0.9-0.9h8.1c0.5,0,0.9,0.4,0.9,0.9v16.7
					C440.6,185.2,440.2,185.6,439.7,185.6z M432.5,183.9h6.4v-15h-6.4V183.9z"/>
				<path class="st1" d="M451.3,185.6h-8.1c-0.5,0-0.9-0.4-0.9-0.9v-35.4c0-0.5,0.4-0.9,0.9-0.9h8.1c0.5,0,0.9,0.4,0.9,0.9v35.4
					C452.1,185.2,451.7,185.6,451.3,185.6z M444,183.9h6.4v-33.7H444V183.9z"/>
			</g>
			<g>
				<path class="st1" d="M112.2,237.9c-4.2,0-7.6-3.4-7.6-7.6c0-4.2,3.4-7.6,7.6-7.6s7.6,3.4,7.6,7.6
					C119.8,234.5,116.4,237.9,112.2,237.9z M112.2,224.5c-3.2,0-5.8,2.6-5.8,5.8c0,3.2,2.6,5.8,5.8,5.8c3.2,0,5.8-2.6,5.8-5.8
					C118.1,227.1,115.5,224.5,112.2,224.5z"/>
				<path class="st1" d="M91.6,242.1c-2.1,0-3.8-1.7-3.8-3.8c0-2.1,1.7-3.8,3.8-3.8c2.1,0,3.8,1.7,3.8,3.8
					C95.4,240.4,93.7,242.1,91.6,242.1z M91.6,236.3c-1.1,0-2.1,0.9-2.1,2.1s0.9,2.1,2.1,2.1c1.1,0,2.1-0.9,2.1-2.1
					S92.7,236.3,91.6,236.3z"/>
				<path class="st1" d="M90.3,265.2c-2.8,0-5.1-2.3-5.1-5.1c0-2.8,2.3-5.1,5.1-5.1c2.8,0,5.1,2.3,5.1,5.1
					C95.4,262.9,93.1,265.2,90.3,265.2z M90.3,256.8c-1.9,0-3.4,1.5-3.4,3.4c0,1.9,1.5,3.4,3.4,3.4c1.9,0,3.4-1.5,3.4-3.4
					C93.6,258.3,92.1,256.8,90.3,256.8z"/>
				<path class="st1" d="M118.2,258.6c-3.1,0-5.6-2.5-5.6-5.6c0-3.1,2.5-5.6,5.6-5.6c3.1,0,5.6,2.5,5.6,5.6
					C123.8,256.1,121.3,258.6,118.2,258.6z M118.2,249.1c-2.1,0-3.9,1.7-3.9,3.9c0,2.1,1.7,3.9,3.9,3.9c2.1,0,3.9-1.7,3.9-3.9
					C122.1,250.8,120.4,249.1,118.2,249.1z"/>
				<path class="st1" d="M126.8,237.3c-1.6,0-2.9-1.3-2.9-2.9c0-1.6,1.3-2.9,2.9-2.9c1.6,0,2.9,1.3,2.9,2.9
					C129.6,236,128.4,237.3,126.8,237.3z M126.8,233.3c-0.6,0-1.2,0.5-1.2,1.2c0,0.6,0.5,1.2,1.2,1.2c0.6,0,1.2-0.5,1.2-1.2
					C127.9,233.8,127.4,233.3,126.8,233.3z"/>
				<path class="st1" d="M117,249.3c-0.4,0-0.7-0.3-0.8-0.6l-3.1-11.6c-0.1-0.5,0.2-0.9,0.6-1c0.5-0.1,0.9,0.2,1,0.6l3.1,11.6
					c0.1,0.5-0.2,0.9-0.6,1C117.2,249.2,117.1,249.3,117,249.3z"/>
				<path class="st1" d="M124.8,234.7c-0.1,0-0.2,0-0.2,0l-6.1-1.7c-0.5-0.1-0.7-0.6-0.6-1.1c0.1-0.5,0.6-0.7,1.1-0.6l6.1,1.7
					c0.5,0.1,0.7,0.6,0.6,1.1C125.6,234.5,125.2,234.7,124.8,234.7z"/>
				<path class="st1" d="M92.8,257.6c-0.2,0-0.4-0.1-0.5-0.2c-0.4-0.3-0.5-0.8-0.2-1.2l15.5-21c0.3-0.4,0.8-0.5,1.2-0.2
					c0.4,0.3,0.5,0.8,0.2,1.2l-15.5,21C93.3,257.5,93,257.6,92.8,257.6z"/>
				<path class="st1" d="M94.3,238.2c-0.3,0-0.7-0.2-0.8-0.5c-0.2-0.4,0-0.9,0.5-1.1l11.7-4.6c0.4-0.2,0.9,0,1.1,0.5
					c0.2,0.4,0,0.9-0.5,1.1l-11.7,4.6C94.5,238.1,94.4,238.2,94.3,238.2z"/>
			</g>
		</g>
		<g>
			<g>
				<path class="st1" d="M430.8,320.1v118.7c0,11.4-9.2,20.6-20.6,20.6H227.3c-10.8,0-19.5,8.7-19.5,19.5V339.6c0-5,1.9-10,5.7-13.8
					c3.8-3.8,8.8-5.7,13.8-5.7H430.8z"/>
				<g>
					<g>
						<g>
							<g>
								<polygon class="st2" points="269.5,356.7 269,356.1 289.1,343.4 289.5,344 								"/>
								<polygon class="st2" points="289.1,378.5 269,365.8 269.5,365.3 289.5,378 								"/>
								<rect x="320.1" y="343.5" class="st2" width="19.4" height="0.7"/>
								<rect x="320.1" y="377.7" class="st2" width="19.4" height="0.7"/>
							</g>
						</g>
						<rect x="246.2" y="350.7" class="st3" width="23.3" height="20.5"/>
						<rect x="289" y="337" class="st4" width="31.1" height="13.7"/>
						<rect x="289" y="371.2" class="st4" width="31.1" height="13.7"/>
						<rect x="339.5" y="337" class="st4" width="31.1" height="13.7"/>
						<rect x="339.5" y="371.2" class="st4" width="31.1" height="13.7"/>
						<g>
							<rect x="294.8" y="341.1" class="st1" width="19.4" height="0.9"/>
							<rect x="294.8" y="343.4" class="st1" width="19.4" height="0.9"/>
							<rect x="294.8" y="345.7" class="st1" width="9.7" height="0.9"/>
						</g>
						<g>
							<rect x="294.8" y="375.3" class="st1" width="19.4" height="0.9"/>
							<rect x="294.8" y="377.6" class="st1" width="19.4" height="0.9"/>
							<rect x="294.8" y="379.9" class="st1" width="9.7" height="0.9"/>
						</g>
						<g>
							<rect x="345.4" y="375.3" class="st1" width="19.4" height="0.9"/>
							<rect x="345.4" y="377.6" class="st1" width="19.4" height="0.9"/>
							<rect x="345.4" y="379.9" class="st1" width="9.7" height="0.9"/>
						</g>
						<g>
							<rect x="345.4" y="341.1" class="st1" width="19.4" height="0.9"/>
							<rect x="345.4" y="343.4" class="st1" width="19.4" height="0.9"/>
							<rect x="345.4" y="345.7" class="st1" width="9.7" height="0.9"/>
						</g>
						<g>
							<rect x="249.7" y="358.2" class="st1" width="16.3" height="0.9"/>
							<rect x="249.7" y="360.5" class="st1" width="16.3" height="0.9"/>
							<rect x="249.7" y="362.8" class="st1" width="8.2" height="0.9"/>
						</g>
					</g>
					<g>
						<rect x="246.2" y="420.1" class="st5" width="49.8" height="1.7"/>
						<rect x="246.2" y="395.6" class="st4" width="9.8" height="21.7"/>
						<rect x="259.5" y="407.3" class="st2" width="9.8" height="10.1"/>
						<rect x="272.9" y="399.1" class="st5" width="9.8" height="18.2"/>
						<rect x="286.2" y="413.3" class="st6" width="9.8" height="4"/>
					</g>
					<g>
						<polygon class="st4" points="346.1,393.4 328.2,417.3 364,417.3 						"/>
						<polygon class="st6" points="357.6,400 344.6,417.3 370.7,417.3 						"/>
						<polygon class="st3" points="344.6,417.3 364,417.3 354.3,404.4 						"/>
						<polygon class="st5" points="330.4,404.7 320.9,417.3 339.8,417.3 						"/>
						<polygon class="st7" points="328.2,417.3 339.8,417.3 334,409.6 						"/>
						<rect x="320.9" y="420.1" class="st5" width="49.8" height="1.7"/>
					</g>
					<g>
						<rect x="286.2" y="430.7" class="st5" width="84.5" height="2"/>
						<rect x="286.2" y="435.6" class="st2" width="84.5" height="2"/>
						<rect x="286.2" y="440.5" class="st2" width="42.2" height="1.9"/>
						<rect x="246.2" y="430.7" class="st5" width="31.5" height="11.7"/>
					</g>
				</g>
				<path class="st8" d="M207.8,478.9c0,10.8,8.7,19.5,19.5,19.5v-39C216.6,459.4,207.8,468.1,207.8,478.9z"/>
				<path class="st8" d="M410.1,299.5c-11.4,0-20.6,9.2-20.6,20.6v118.7c0-11.4,9.2-20.6,20.6-20.6c11.4,0,20.6,9.2,20.6,20.6V320.1
					C430.8,308.7,421.5,299.5,410.1,299.5z"/>
			</g>
			<g>
				<polygon class="st1" points="274.8,498.4 260.8,491.4 274.8,484.4 				"/>
				<rect x="274.8" y="484.4" class="st4" width="155.9" height="14"/>
				<rect x="274.8" y="484.4" class="st9" width="155.9" height="7"/>
				<polygon class="st5" points="266.3,494.2 260.8,491.4 266.3,488.7 				"/>
				<rect x="414.1" y="484.4" class="st1" width="4.9" height="14"/>
				<rect x="419" y="484.4" class="st5" width="11.7" height="14"/>
			</g>
			<g>
				<path class="st8" d="M452.6,498.4h20.1V320.1h-20.1V498.4z M466.1,493.7c0,1.1-0.9,2-2,2c-1.1,0-2-0.9-2-2c0-1.1,0.9-2,2-2
					C465.2,491.7,466.1,492.6,466.1,493.7z"/>
				<g>
					<g>
						<g>
							<rect x="452.6" y="495.3" class="st1" width="3.5" height="0.4"/>
							<rect x="452.6" y="489.6" class="st1" width="3.5" height="0.4"/>
							<rect x="452.6" y="483.8" class="st1" width="3.5" height="0.4"/>
							<rect x="452.6" y="478.1" class="st1" width="3.5" height="0.4"/>
							<rect x="452.6" y="472.3" class="st1" width="3.5" height="0.4"/>
							<rect x="452.6" y="466.6" class="st1" width="3.5" height="0.4"/>
							<rect x="452.6" y="460.8" class="st1" width="3.5" height="0.4"/>
							<rect x="452.6" y="455.1" class="st1" width="3.5" height="0.4"/>
							<rect x="452.6" y="449.3" class="st1" width="3.5" height="0.4"/>
							<rect x="452.6" y="443.6" class="st1" width="3.5" height="0.4"/>
							<rect x="452.6" y="437.8" class="st1" width="3.5" height="0.4"/>
							<rect x="452.6" y="432.1" class="st1" width="3.5" height="0.4"/>
							<rect x="452.6" y="426.3" class="st1" width="3.5" height="0.4"/>
							<rect x="452.6" y="420.5" class="st1" width="3.5" height="0.4"/>
							<rect x="452.6" y="414.8" class="st1" width="3.5" height="0.4"/>
							<rect x="452.6" y="409" class="st1" width="3.5" height="0.4"/>
							<rect x="452.6" y="403.3" class="st1" width="3.5" height="0.4"/>
							<rect x="452.6" y="397.5" class="st1" width="3.5" height="0.4"/>
							<rect x="452.6" y="391.8" class="st1" width="3.5" height="0.4"/>
							<rect x="452.6" y="386" class="st1" width="3.5" height="0.4"/>
							<rect x="452.6" y="380.3" class="st1" width="3.5" height="0.4"/>
							<rect x="452.6" y="374.5" class="st1" width="3.5" height="0.4"/>
							<rect x="452.6" y="368.8" class="st1" width="3.5" height="0.4"/>
							<rect x="452.6" y="363" class="st1" width="3.5" height="0.4"/>
							<rect x="452.6" y="357.3" class="st1" width="3.5" height="0.4"/>
							<rect x="452.6" y="351.5" class="st1" width="3.5" height="0.4"/>
							<rect x="452.6" y="345.8" class="st1" width="3.5" height="0.4"/>
							<rect x="452.6" y="340" class="st1" width="3.5" height="0.4"/>
							<rect x="452.6" y="334.3" class="st1" width="3.5" height="0.4"/>
							<rect x="452.6" y="328.5" class="st1" width="3.5" height="0.4"/>
							<rect x="452.6" y="322.8" class="st1" width="3.5" height="0.4"/>
						</g>
						<g>
							<rect x="452.6" y="492.5" class="st1" width="1.7" height="0.2"/>
							<rect x="452.6" y="486.8" class="st1" width="1.7" height="0.2"/>
							<rect x="452.6" y="481" class="st1" width="1.7" height="0.2"/>
							<rect x="452.6" y="475.3" class="st1" width="1.7" height="0.2"/>
							<rect x="452.6" y="469.5" class="st1" width="1.7" height="0.2"/>
							<rect x="452.6" y="463.8" class="st1" width="1.7" height="0.2"/>
							<rect x="452.6" y="458" class="st1" width="1.7" height="0.2"/>
							<rect x="452.6" y="452.3" class="st1" width="1.7" height="0.2"/>
							<rect x="452.6" y="446.5" class="st1" width="1.7" height="0.2"/>
							<rect x="452.6" y="440.8" class="st1" width="1.7" height="0.2"/>
							<rect x="452.6" y="435" class="st1" width="1.7" height="0.2"/>
							<rect x="452.6" y="429.3" class="st1" width="1.7" height="0.2"/>
							<rect x="452.6" y="423.5" class="st1" width="1.7" height="0.2"/>
							<rect x="452.6" y="417.8" class="st1" width="1.7" height="0.2"/>
							<rect x="452.6" y="412" class="st1" width="1.7" height="0.2"/>
							<rect x="452.6" y="406.3" class="st1" width="1.7" height="0.2"/>
							<rect x="452.6" y="400.5" class="st1" width="1.7" height="0.2"/>
							<rect x="452.6" y="394.8" class="st1" width="1.7" height="0.2"/>
							<rect x="452.6" y="389" class="st1" width="1.7" height="0.2"/>
							<rect x="452.6" y="383.2" class="st1" width="1.7" height="0.2"/>
							<rect x="452.6" y="377.5" class="st1" width="1.7" height="0.2"/>
							<rect x="452.6" y="371.7" class="st1" width="1.7" height="0.2"/>
							<rect x="452.6" y="366" class="st1" width="1.7" height="0.2"/>
							<rect x="452.6" y="360.2" class="st1" width="1.7" height="0.2"/>
							<rect x="452.6" y="354.5" class="st1" width="1.7" height="0.2"/>
							<rect x="452.6" y="348.7" class="st1" width="1.7" height="0.2"/>
							<rect x="452.6" y="343" class="st1" width="1.7" height="0.2"/>
							<rect x="452.6" y="337.2" class="st1" width="1.7" height="0.2"/>
							<rect x="452.6" y="331.5" class="st1" width="1.7" height="0.2"/>
							<rect x="452.6" y="325.7" class="st1" width="1.7" height="0.2"/>
						</g>
					</g>
				</g>
			</g>
			<g>
				<g>
					<path class="st9" d="M178.4,329.3c0,25.2-20.4,45.6-45.6,45.6c-25.2,0-45.5-20.4-45.5-45.6c0-25.2,20.4-45.6,45.5-45.6
						C158,283.8,178.4,304.2,178.4,329.3z"/>
					<path class="st10" d="M132.8,365.2c-10.1,0-19.8-4.3-26.6-11.9c-0.7-0.8-0.7-2,0.1-2.7c0.8-0.7,2-0.7,2.7,0.1
						c6.1,6.7,14.7,10.6,23.8,10.6c17.7,0,32-14.4,32-32c0-1.1,0.9-1.9,1.9-1.9c1.1,0,1.9,0.9,1.9,1.9
						C168.7,349.1,152.6,365.2,132.8,365.2z"/>
					<path class="st10" d="M98.8,331.2c-1.1,0-1.9-0.9-1.9-1.9c0-19.8,16.1-35.9,35.9-35.9c1.1,0,1.9,0.9,1.9,1.9
						c0,1.1-0.9,1.9-1.9,1.9c-17.7,0-32,14.4-32,32C100.8,330.4,99.9,331.2,98.8,331.2z"/>
					<rect x="112.3" y="369.9" class="st4" width="41" height="11.4"/>
					<rect x="110" y="381.3" class="st11" width="45.5" height="28.4"/>
					<rect x="107.7" y="384.4" class="st5" width="50.2" height="3.2"/>
					<rect x="107.7" y="390.7" class="st5" width="50.2" height="3.2"/>
					<rect x="107.7" y="397" class="st5" width="50.2" height="3.2"/>
					<rect x="107.7" y="403.4" class="st5" width="50.2" height="3.2"/>
					<rect x="118.3" y="409.7" class="st5" width="29" height="7.7"/>
					<g>
						<rect x="125.1" y="332.9" class="st1" width="1.9" height="48.3"/>
						<rect x="138.6" y="332.9" class="st1" width="1.9" height="48.3"/>
					</g>
					<rect x="116.4" y="331" class="st1" width="32.8" height="1.9"/>
				</g>
				<g>
					<rect x="96.2" y="403.3" class="st1" width="73.2" height="95.1"/>
					<rect x="132.8" y="403.3" class="st12" width="36.6" height="95.1"/>
					<rect x="151.1" y="403.3" class="st13" width="18.3" height="95.1"/>
					<path class="st12" d="M178.2,477.6h-8.8v-8h8.8c1.9,0,3.6-0.7,4.9-2c1.3-1.3,2-3.1,2-4.9v-23.4c0-1.8-0.7-3.6-2-4.9
						c-1.3-1.3-3.1-2-4.9-2h-8.8v-8h8.8c4,0,7.8,1.6,10.6,4.4c2.8,2.8,4.4,6.6,4.4,10.6v23.4c0,4-1.6,7.8-4.4,10.6
						C185.9,476,182.2,477.6,178.2,477.6z"/>
					<g>
						<g>
							<path class="st4" d="M106.2,403.3v7.4c0,1.5-1.2,2.8-2.8,2.8c-1.5,0-2.8-1.2-2.8-2.8v-7.4H106.2z"/>
							<path class="st4" d="M111.7,403.3v7.4c0-1.5-1.2-2.8-2.8-2.8c-1.5,0-2.8,1.2-2.8,2.8v-7.4H111.7z"/>
							<path class="st4" d="M117.3,403.3v29.2c0,1.5-1.2,2.8-2.8,2.8c-1.5,0-2.8-1.2-2.8-2.8v-29.2H117.3z"/>
							<path class="st4" d="M128.3,403.3v18.5c0,1.5-1.2,2.8-2.8,2.8c-1.5,0-2.8-1.2-2.8-2.8v-18.5H128.3z"/>
							<path class="st4" d="M122.8,403.3v5c0-1.5-1.2-2.8-2.8-2.8c-1.5,0-2.8,1.2-2.8,2.8v-5H122.8z"/>
						</g>
					</g>
				</g>
			</g>
			<g>
				<g>
					<polygon class="st14" points="268.3,244.3 273.8,274.7 355.4,216.4 					"/>
					<polygon class="st1" points="276.9,249.4 308.3,267.7 355.4,216.4 					"/>
					<polygon class="st1" points="249.2,233.1 268.3,244.3 355.4,216.4 					"/>
					<polygon class="st2" points="273.8,274.7 276.9,249.4 294.7,259.8 					"/>
				</g>
				<g>
					<path class="st1" d="M269,311.4c-0.2,0-0.4-0.1-0.5-0.2c-0.3-0.3-0.3-0.8,0-1.1l2.7-2.9c0.3-0.3,0.8-0.3,1.1,0
						c0.3,0.3,0.3,0.8,0,1.1l-2.7,2.9C269.4,311.3,269.2,311.4,269,311.4z"/>
					<path class="st1" d="M277.5,302.1c-0.2,0-0.4-0.1-0.5-0.2c-0.3-0.3-0.3-0.8,0-1.1l5.9-6.4c0.3-0.3,0.8-0.3,1.1,0
						c0.3,0.3,0.3,0.8,0,1.1l-5.9,6.4C278,302,277.7,302.1,277.5,302.1z M289.3,289.3c-0.2,0-0.4-0.1-0.5-0.2
						c-0.3-0.3-0.3-0.8,0-1.1l5.9-6.4c0.3-0.3,0.8-0.3,1.1,0c0.3,0.3,0.3,0.8,0,1.1l-5.9,6.4C289.7,289.2,289.5,289.3,289.3,289.3z"
						/>
					<path class="st1" d="M301,276.5c-0.2,0-0.4-0.1-0.5-0.2c-0.3-0.3-0.3-0.8,0-1.1l2.7-2.9c0.3-0.3,0.8-0.3,1.1,0
						c0.3,0.3,0.3,0.8,0,1.1l-2.7,2.9C301.5,276.4,301.3,276.5,301,276.5z"/>
				</g>
				<g>
					<path class="st1" d="M241.5,235.2c-0.4,0-0.7-0.3-0.8-0.7c-0.1-0.4,0.2-0.8,0.7-0.9l3.9-0.6c0.5-0.1,0.8,0.2,0.9,0.7
						c0.1,0.4-0.2,0.8-0.7,0.9l-3.9,0.6C241.6,235.2,241.5,235.2,241.5,235.2z"/>
					<path class="st1" d="M206.8,240.6c-0.4,0-0.7-0.3-0.8-0.7c-0.1-0.4,0.2-0.8,0.7-0.9l8.7-1.4c0.4-0.1,0.8,0.2,0.9,0.7
						c0.1,0.4-0.2,0.8-0.7,0.9l-8.7,1.4C206.9,240.6,206.8,240.6,206.8,240.6z M224.1,237.9c-0.4,0-0.7-0.3-0.8-0.7
						c-0.1-0.4,0.2-0.8,0.7-0.9l8.7-1.4c0.4-0.1,0.8,0.2,0.9,0.7c0.1,0.4-0.2,0.8-0.7,0.9l-8.7,1.4
						C224.2,237.9,224.2,237.9,224.1,237.9z"/>
					<path class="st1" d="M194.2,242.6c-0.4,0-0.7-0.3-0.8-0.7c-0.1-0.4,0.2-0.8,0.7-0.9l3.9-0.6c0.5-0.1,0.8,0.2,0.9,0.7
						c0.1,0.4-0.2,0.8-0.7,0.9l-3.9,0.6C194.3,242.6,194.2,242.6,194.2,242.6z"/>
				</g>
			</g>
		</g>
	</g>
</g>
</svg>
