<?xml version="1.0" encoding="utf-8"?>
<!-- Generator: Adobe Illustrator 19.2.1, SVG Export Plug-In . SVG Version: 6.00 Build 0)  -->
<svg version="1.1" id="Layer_1" xmlns="http://www.w3.org/2000/svg" xmlns:xlink="http://www.w3.org/1999/xlink" x="0px" y="0px"
	 viewBox="0 0 960 480" style="enable-background:new 0 0 960 480;" xml:space="preserve">
<style type="text/css">
	.st0{fill:#AAA997;}
	.st1{fill:#FDFDF5;}
	.st2{fill:#9ABC4C;}
	.st3{fill:#9C9A9B;}
	.st4{fill:#D87741;}
	.st5{fill:#808A7F;}
	.st6{fill:#E09346;}
	.st7{fill:#7D777B;}
	.st8{fill:#F8F8EF;}
	.st9{fill:#6E6465;}
	.st10{fill:#427F9B;}
	.st11{fill:#695E60;}
	.st12{fill:#CD453E;}
	.st13{fill:#B3AB94;}
	.st14{fill:#ECB94C;}
</style>
<path class="st0" d="M958.9-4.8c0.4,0,0.7,0,1.1,0c0,0.4-0.1,0.7-0.1,1.1c0,162.4,0,324.7,0,487.1c0,0.4,0,0.9,0.1,1.3
	c-321.6,0-643.1,0-964.7,0c0-163.1,0-326.3,0-489.3c0.5,0,0.9,0,1.4,0c319.6,0,639.1,0,958.7,0c0.7,0,1.5,0,2.2,0
	C958.1-4.6,958.6-4.7,958.9-4.8z"/>
<g>
	<path class="st0" d="M677.9,144.1c-0.1,1.4-0.1,1.4,1.1,1.7c0.7,0.2,1.4,0.4,2.1,0.6c0.6,0.1,0.8-0.1,0.9-0.7
		c0.2,0,0.5,0.1,0.7,0.1c6.4,1.3,12.4-1.4,15.8-6.9c3.1-5.1,3-13-2.5-18.2c-6.6-6.2-16.7-4.9-21.7,1.4c-4.1,5.3-4.3,12.7-0.4,18.1
		C675,141.7,676.6,142.7,677.9,144.1z M302.4,402.7c-2.6,0-5.1,0-7.6,0.5c-10.1,2.2-17.5,10.2-18.9,20.5c-1,7.9,1.3,14.7,6.9,20.3
		c5.3,5.3,11.8,7.7,19.4,6.9c7-0.7,12.6-3.8,16.8-9.3c3.9-5.1,5.6-10.9,4.9-17.3c-0.7-6.2-3.4-11.4-8-15.6c-2.7-2.4-5.8-4-9.2-5.1
		c0.3-2.5,0.7-2.5-1.9-2.7C302.7,400.7,302.7,400.7,302.4,402.7z M508.7,256.8c-2,0.3-2,0.3-1.6,2.2c0.1,0.4,0.2,0.9,0.2,1.3
		c0.1,0.8,0.5,1.1,1.2,0.9c0.3-0.1,0.6-0.1,0.8-0.1c0.1,0.3,0.3,0.6,0.4,0.9c1.3,4.1,3.5,7.5,6.6,10.5c0.3,0.3,0.7,0.6,0.8,1.1
		c-2,1.5-2,2-0.1,3.4c0.4,0.3,0.8,0.6,1.2,0.9c0.3,0.2,0.6,0.2,0.8,0c0.5-0.6,1.3-1.2,0.9-2.2c0.8,0.1,1.5,0.6,2.2,0.9
		c4.4,2.1,9.1,2.9,13.9,2.2c2.2-0.3,4.2-1,6.3-1.6c1.1,1.8,1.1,1.8,3,0.8c1.8-1,1.8-1,1-2.8c0.3-0.6,0.9-0.9,1.4-1.3
		c7.3-6,10.4-13.8,8.9-23.1c-2-12.8-14-21.5-26.6-20c-10.9,1.3-19.7,9.8-21.2,20.6C508.7,253.2,508.8,255,508.7,256.8z M501.8,418.1
		c0.6,0.6,0.1,1.2,0,1.7c-1.1,3.6-1.3,7.3-0.7,11c0.9,5.2,3.2,9.8,7.1,13.5c5.9,5.5,12.9,7.5,20.8,6.4c6.2-0.9,11.3-4.1,15.2-9
		c4.2-5.5,5.7-11.7,4.7-18.5c-0.9-6-3.7-10.9-8.4-14.8c-5.4-4.5-11.7-6.4-18.6-5.4c-8.3,1.1-14.6,5.5-18.5,13
		c-0.3,0.5-0.4,1.1-1.1,1.2c0-0.3,0-0.6,0.1-0.8c0.5-0.8,0.1-1.2-0.7-1.5c-1.2-0.5-1.3-0.5-1.9,0.9c-0.3,0.6-0.5,1.3-0.8,1.9
		c-0.2,0.4-0.1,0.7,0.4,1C500.5,419.2,500.9,419.1,501.8,418.1z M316.5,207.6c0.8-0.1,1.7-0.3,2.5-0.4c9.7-1.6,17.5-6.2,23.6-13.8
		c5.6-7.1,8.2-15.2,7.9-24.3c-0.3-9.3-3.6-17.5-10-24.2c-8.6-9-19.1-12.8-31.5-11.5c-8.7,0.9-16.2,4.6-22.3,10.8
		c-8.3,8.6-11.9,18.9-10.4,30.7c1.5,12.2,7.8,21.4,18.3,27.7c5.4,3.2,11.3,4.8,17.5,5c0,2.1,0,2.1,2.1,2.1c0.2,0,0.3,0,0.5,0
		c1.7-0.1,1.7-0.1,1.7-1.7C316.5,207.9,316.5,207.8,316.5,207.6z M625.4,362.8c-0.7-0.1-1.3-0.4-1.9-0.7c-7.9-3.1-16-3.6-24.2-1.3
		c-1.9,0.5-3.8,1.3-5.6,1.9c-1.3,0-3.1,0.9-3.9,2.1c-0.3,0.5-0.9,0.7-1.3,1c-1.8,1.2-3.5,2.6-5,4.1c-8.7,8.9-12.5,19.6-10.8,31.9
		c2.6,19.8,21.4,34.8,42.6,31.6c16.2-2.5,30-15.8,31.4-33.9c0.9-11.2-2.7-21-10.6-29.1c-2.1-2.1-4.5-3.9-6.8-5.7c1-2,1-2-0.9-3
		C626.2,360.7,626.6,360.7,625.4,362.8z M628.5,223.1c0.4,0.7,0.7,1.4,1.1,2.1c2.5,5.2,6.2,9.6,10.8,13c10.5,7.8,22,9.6,34.4,5.6
		c7.2-2.3,13-6.6,17.5-12.5c6.4-8.3,8.9-17.7,7.5-28.1c-1.2-8.5-4.9-15.8-11.2-21.7c-9.2-8.6-20.1-11.8-32.4-9.7
		c-7.8,1.3-14.5,4.9-20,10.7c-9.2,9.7-12.4,21.2-9.7,34.3c0.1,0.7,0.4,1.4,0.3,2.2c-0.4,0.2-0.8,0.4-0.6,0.9c0.3,1,0.7,1.9,1,2.9
		C627.6,223.4,628.1,223.2,628.5,223.1z M350.5,317.8c0-0.5,0.2-0.9,0.5-1.2c3.6-5.3,6.1-11,7.1-17.4s0.6-12.7-1.3-18.9
		c-2.1-6.6-5.6-12.4-10.6-17.3c-3.8-3.7-8-6.6-12.8-8.6c-6.2-2.5-12.7-3.8-19.5-3.1c-5,0.5-9.8,1.6-14.3,3.8
		c-8.2,4-14.6,9.9-18.9,18c-2.7,5.1-4.4,10.5-4.8,16.2c-0.5,7.9,0.9,15.4,4.7,22.4c4.2,7.8,10.2,13.7,18.1,17.8
		c3.6,1.9,7.5,3,11.5,3.9c0.8,0.8,2.8,1.1,4.3,0.7c2.7,0.1,5.5-0.1,8.2-0.5c9.2-1.3,17.3-5.1,23.9-11.8c0.5-0.5,0.9-1,1.7-1.1
		c1.5,2,1.8,2.1,3.3,0.2c0.1-0.1,0.2-0.3,0.3-0.4c1.1-1.4,1.1-1.5-0.4-2.5C351.1,317.9,350.8,317.8,350.5,317.8z M381.6,400.1
		c-0.8,0.3-1.3,0.8-0.9,1.8c0.2,0.5,0.4,1.1,0.5,1.6c0.2,1.1,0.8,1.2,1.7,0.9c0.2,0.5,0.5,0.9,0.7,1.4c2.8,7.1,7.1,13.1,12.9,17.9
		c7.5,6.2,16.2,9.5,25.9,10.1c4.8,0.3,9.5-0.3,14.2-1.7c11.9-3.5,20.8-10.8,26.7-21.7c4.4-8.2,5.9-16.9,4.7-26.1
		c-0.7-5.8-2.6-11.3-5.5-16.4c-1.1-1.9-2.5-3.5-3.4-5.5c0.1-0.5,0.7-1,0-1.5c-1-0.7-1.9-1.6-3.1-1.9c-0.5-0.1-0.9-0.5-1.2-0.9
		c-10.2-9.5-22.2-13.3-35.9-11.7c-9.6,1.1-17.9,5.3-24.8,12c-6,5.8-10.1,12.8-12,20.9c-1.1,4.5-1.6,9-1.2,13.7
		C381,395.3,381.6,397.7,381.6,400.1z M397.5,148.6c0.3,0.8,0.2,1.6,0.2,2.3c0,19.4,0,38.7,0,58.1c0,2.9-0.2,2.6,2.5,2.6
		c61.3,0,122.6,0,183.8,0c2.5,0,2.5,0.3,2.5-2.5c0-61.3,0-122.6,0-183.8c0-0.5,0-0.9,0-1.4c0-0.8-0.3-1.2-1.1-1.1c-0.3,0-0.7,0-1,0
		c-61.4,0-122.9,0-184.3,0c-0.4,0-0.8,0-1.2,0c-0.8,0-1.2,0.3-1.1,1.1c0,0.6,0,1.1,0,1.7c0,39.5,0,79,0,118.6c0,0.7,0.1,1.4-0.1,2.2
		c-0.6-0.4-0.5-1-0.7-1.4c-0.1-0.3-0.3-0.5-0.6-0.5c-1.3-0.1-2,0.6-1.6,1.9c0,0.2,0.1,0.3,0.1,0.5
		C395.3,148.9,395.3,148.9,397.5,148.6z M663.8,259.5c-20.3-0.3-37.4,16.2-37.4,37.3c0,21.2,17.1,37.2,37.1,37.3
		c20.6,0.1,37.5-16.6,37.6-37.2C701.1,275.5,683.7,259.2,663.8,259.5z M651.3,139.3c0.4-12-9.3-24.2-24.1-24.3
		c-14.5,0-24.1,11.9-24.2,24.1c0,12.7,10.1,24.2,24.2,24.3C641.2,163.4,651.5,151.8,651.3,139.3z M314.6,234.7c0.6,0,0.9,0,1.3-0.1
		c1.2-0.1,1.4-0.3,1.3-1.4c0-1-0.2-1.2-1.2-1.2c-0.7,0-1.5,0.1-2.2,0.1c-0.6,0-0.9,0.4-0.9,1c-0.1,1.4,0.1,1.6,1.5,1.6
		C314.5,234.7,314.7,234.7,314.6,234.7z M495.2,262.8c0-0.2,0-0.3-0.1-0.5c-0.1-0.7-0.3-1.3-0.3-2c-0.1-0.8-0.5-1-1.3-0.9
		c-1.3,0.2-1.4,0.3-1.2,1.6c0.1,0.7,0.2,1.5,0.4,2.2c0.2,0.8,0.8,0.6,1.4,0.5C494.5,263.6,495.2,263.7,495.2,262.8z M488.6,264.6
		c1.5-0.1,1.8-0.3,1.5-1.9c-0.1-0.6-0.2-1.2-0.3-1.8c-0.2-0.9-0.9-0.7-1.5-0.6c-0.7,0.1-1.2,0.3-1.1,1.2c0.2,0.8,0.3,1.7,0.4,2.5
		C487.8,264.5,488.1,264.7,488.6,264.6z M465.7,267.7c-0.1-0.7-0.2-1.5-0.4-2.2c-0.2-1.2-0.3-1.2-1.5-1s-1.3,0.3-1.1,1.6
		c0.1,0.7,0.3,1.3,0.4,2c0.1,0.9,0.8,0.8,1.4,0.7C465.2,268.7,465.9,268.7,465.7,267.7z M441.1,272c-0.2-0.9-0.3-1.8-0.5-2.7
		c-0.2-1-0.9-0.6-1.5-0.5s-1.2,0.1-1,1s0.3,1.8,0.5,2.7c0.2,0.9,0.9,0.7,1.5,0.6S441.3,272.8,441.1,272z M429.6,270.4
		c-0.3,0.3-1.4-0.2-1.3,0.8c0,1,0.2,2,0.5,3c0.2,0.9,1,0.5,1.6,0.4c0.5-0.1,1-0.2,0.9-1c-0.2-0.9-0.3-1.8-0.5-2.7
		C430.7,270.5,430.4,270.3,429.6,270.4z M554.2,289.8c0-1.1-1.1-1.9-2.1-1.5c-0.6,0.3-1.1,0.6-1.6,0.9c-1,0.6-1,0.7-0.5,1.7
		c0.6,1.1,0.7,1.1,1.8,0.6c0.7-0.3,1.3-0.7,1.9-1.1C554,290.3,554.2,290.2,554.2,289.8z M314.9,227.1L314.9,227.1
		c-0.5,0-0.9,0-1.4,0c-0.4,0-0.6,0.1-0.8,0.5c-0.5,1.2,0.1,2.1,1.4,2.1c0.7,0,1.4,0,2-0.1c0.3,0,0.7-0.1,0.8-0.5
		c0.5-1.2-0.1-2.1-1.4-2.1C315.4,227.1,315.2,227.1,314.9,227.1z M585,346.9c0.1-1.1-1.1-2-2-1.5c-0.7,0.4-1.4,0.8-2.1,1.1
		c-0.8,0.4-0.4,0.9-0.1,1.4c0.3,0.5,0.5,1.3,1.3,0.8c0.9-0.4,1.7-0.9,2.5-1.4C584.8,347.3,585,347.2,585,346.9z M367.4,284.4
		c-0.1-0.6-0.3-1.5-0.5-2.3c-0.1-0.3-0.2-0.5-0.5-0.6c-1.1-0.4-2.1,0.4-1.9,1.6c0.1,0.7,0.3,1.3,0.3,2c0.1,0.9,0.8,0.8,1.4,0.7
		C366.8,285.7,367.6,285.7,367.4,284.4z M478.3,334.9c0.7-0.3,1-1,1.3-1.5s-0.1-0.7-0.4-1c-0.6-0.5-1.3-0.9-1.9-1.4
		c-0.7-0.5-1.1-0.3-1.5,0.3c-0.8,1.1-0.8,1.2,0.3,2c0.4,0.3,0.7,0.5,1.1,0.8C477.5,334.4,477.8,334.6,478.3,334.9z M564,245.4
		c-0.2-0.7-0.5-1.5-0.8-2.2c-0.5-1.3-0.5-1.3-1.8-0.8c-0.8,0.3-1.1,0.7-0.7,1.5c0.3,0.7,0.5,1.5,0.8,2.2c0.2,0.7,0.7,0.7,1.2,0.4
		C563.2,246.2,564,246.3,564,245.4z M482.6,329c0-0.4-0.3-0.5-0.5-0.7c-0.6-0.5-1.3-0.9-1.9-1.4c-0.7-0.5-1.1-0.3-1.5,0.3
		c-0.8,1.1-0.8,1.2,0.3,2c0.5,0.4,1,0.7,1.5,1.1c0.3,0.2,0.6,0.6,1,0.3C482,330.2,482.4,329.6,482.6,329z M505,261
		c-0.2-0.9-0.3-1.8-0.5-2.7c-0.1-0.4-0.2-0.6-0.7-0.7c-1.4-0.2-2,0.4-1.8,1.8c0.1,0.7,0.2,1.3,0.4,2c0.2,1,0.9,0.6,1.5,0.5
		C504.6,261.9,505.1,261.8,505,261z M574.5,335.8c0.1,0,0.3,0,0.3-0.1c0.9-0.5,1.8-0.9,2.7-1.4c0.3-0.2,0.4-0.5,0.3-0.9
		c-0.4-1.4-1-1.7-2.3-1c-0.6,0.3-1.2,0.7-1.8,1c-0.4,0.2-0.6,0.6-0.3,1C573.7,334.9,573.8,335.6,574.5,335.8z M494.1,312.7
		c-0.1-0.1-0.2-0.3-0.3-0.4c-0.8-0.6-1.6-1.2-2.5-1.8c-0.3-0.2-0.5-0.2-0.8,0c-1.2,0.8-1.2,1.8,0,2.6c0.5,0.3,0.9,0.7,1.4,1
		c0.4,0.2,0.8,0.6,1.2,0.2C493.6,313.8,494,313.3,494.1,312.7z M312.3,339.2C312.3,339.2,312.3,339.1,312.3,339.2c0.1,0,0.2,0,0.3,0
		c0.8,0.2,1.2-0.1,1.3-1c0.1-1.2,0.1-1.3-1-1.5c-0.7-0.1-1.4-0.1-2-0.2c-0.9-0.1-1.2,0.2-1.3,1.1c-0.1,1.2-0.1,1.4,1.1,1.6
		C311.3,339.1,311.8,339.1,312.3,339.2z M579.1,336.3c-0.2,0-0.3,0-0.4,0.1c-0.9,0.5-1.8,1-2.7,1.4c-0.2,0.1-0.4,0.3-0.3,0.5
		c0.1,0.6,0.4,1.2,0.8,1.6c0.5,0.5,0.9,0,1.4-0.3c0.6-0.3,1.2-0.6,1.8-1c0.3-0.2,0.8-0.4,0.5-0.9
		C579.9,337.3,579.7,336.6,579.1,336.3z M374.1,336.7c-0.2,0.1-0.3,0.1-0.4,0.2c-0.7,0.9-1.4,1.8-2.1,2.6c-0.1,0.1-0.1,0.3,0,0.5
		c0.4,1,1.8,1.3,2.5,0.5c0.4-0.5,0.9-1,1.3-1.6c0.2-0.3,0.6-0.6,0.3-1C375.3,337.3,374.8,336.9,374.1,336.7z M482.3,262.2
		c0.2,0.9,0.3,1.8,0.5,2.7c0.1,0.4,0.3,0.6,0.7,0.7c1.4,0.2,2-0.4,1.8-1.8c-0.1-0.7-0.2-1.3-0.4-2c-0.2-1-0.9-0.6-1.5-0.5
		C482.8,261.2,482.2,261.3,482.3,262.2z M455.9,269.6c-0.1-0.6-0.2-1.1-0.3-1.7c-0.1-0.4-0.2-0.8-0.2-1.2c-0.1-0.3-0.2-0.5-0.5-0.6
		c-1.2-0.3-2,0.5-1.9,1.7c0.1,0.7,0.2,1.5,0.4,2.2c0.2,0.9,0.9,0.5,1.4,0.5C455.3,270.4,455.9,270.4,455.9,269.6z M449.6,267
		c-1.5,0-1.8,0.4-1.5,1.9c0.1,0.5,0.1,1,0.3,1.5c0.2,1.1,0.4,1.2,1.5,1s1.2-0.3,1-1.5c-0.1-0.7-0.3-1.4-0.4-2.2
		C450.4,267.2,450.2,266.9,449.6,267z M433.1,270.3c0.1,0.6,0.1,0.8,0.2,1c0.1,0.6,0.2,1.2,0.3,1.8c0.1,0.7,0.5,0.9,1.2,0.8
		c1.3-0.2,1.5-0.4,1.3-1.6c-0.1-0.7-0.2-1.5-0.4-2.2c-0.2-0.9-0.9-0.6-1.5-0.5C433.6,269.7,433,269.8,433.1,270.3z M416.6,276.2
		c-0.1-0.8-0.3-1.7-0.4-2.5s-0.6-0.9-1.2-0.8c-1.3,0.2-1.4,0.3-1.2,1.6c0.1,0.7,0.3,1.3,0.3,2c0.1,1,0.8,0.8,1.4,0.7
		C416,277.2,416.7,277.2,416.6,276.2z M511.5,288.3c-0.1-0.1-0.2-0.3-0.3-0.4c-0.8-0.6-1.6-1.2-2.5-1.8c-0.3-0.2-0.6-0.2-0.9,0.1
		c-1.1,1-1.1,1.6,0.1,2.5c0.5,0.3,0.9,0.7,1.4,1c0.3,0.2,0.7,0.6,1.1,0.3C510.9,289.6,511.3,289,511.5,288.3z M548.4,287.6
		c0.3-0.1,0.5-0.2,0.7-0.3c0.6-0.3,1.1-0.6,1.7-0.9c1.3-0.7,1.4-1.1,0.4-2.3c-0.3-0.4-0.6-0.6-1-0.3c-0.8,0.5-1.7,0.9-2.5,1.4
		c-0.4,0.2-0.5,0.6-0.3,1C547.7,286.6,547.8,287.3,548.4,287.6z M361.1,282.3c-1.4,0.1-1.7,0.3-1.5,1.7c0.1,0.6,0.2,1.2,0.3,1.8
		c0.1,0.8,0.6,1,1.3,0.8c0.6-0.2,1.4-0.1,1.2-1.2c-0.2-0.8-0.3-1.7-0.4-2.5C362,282.4,361.6,282.2,361.1,282.3z M372.3,283.9
		c-0.1-0.8-0.3-1.6-0.4-2.3c-0.1-0.8-0.5-1-1.3-0.9c-1.3,0.2-1.4,0.4-1.3,1.6c0.1,0.7,0.2,1.3,0.4,2c0.2,0.9,0.8,0.8,1.4,0.7
		C371.8,284.8,372.5,284.9,372.3,283.9z M400.4,275.5c-1.5,0-1.7,0.3-1.5,1.8c0.1,0.5,0.1,1,0.3,1.5c0.3,1.1,0.4,1.2,1.5,1
		s1.2-0.3,1-1.5c-0.1-0.7-0.3-1.5-0.4-2.2C401.3,275.7,401,275.4,400.4,275.5z M377.3,283.1c-0.1-0.8-0.3-1.7-0.4-2.5
		c-0.1-0.7-0.6-0.9-1.2-0.8c-1.2,0.2-1.6,0.2-1.3,1.6c0.2,0.7,0.2,1.5,0.4,2.2c0.2,1,0.9,0.6,1.5,0.5
		C376.8,284,377.4,283.9,377.3,283.1z M390.7,277.2c-1.5,0-1.8,0.3-1.6,1.8c0.1,0.6,0.2,1.2,0.3,1.8c0.1,0.3,0.2,0.6,0.6,0.8
		c1.2,0.3,2.1-0.5,1.9-1.7c-0.1-0.7-0.2-1.3-0.3-2C391.5,277.4,391.2,277.1,390.7,277.2z M379.1,280c0.2,0.9,0.3,1.8,0.5,2.7
		c0.2,0.8,0.7,0.7,1.3,0.6c0.6-0.1,1.4-0.1,1.2-1.1c-0.1-0.9-0.3-1.8-0.5-2.7c-0.2-1-0.9-0.6-1.5-0.5
		C379.6,279.1,379,279.2,379.1,280z M326.6,420.4c-0.2-0.7-0.4-1.5-0.7-2.3c-0.4-1.1-0.5-1.1-1.6-0.7c-0.8,0.2-1.2,0.5-0.9,1.4
		c0.2,0.6,0.3,1.2,0.5,1.8c0.4,1.1,1.6,1.4,2.5,0.6C326.6,421,326.6,420.8,326.6,420.4z M677.7,147.9c-0.9,0.1-0.8,0.8-1,1.3
		s-0.3,1,0.4,1.3c0.9,0.3,1.9,0.5,2.8,0.8c0.7,0.2,0.9-0.4,1-0.9s0.6-1.2-0.2-1.5C679.7,148.4,678.6,148.2,677.7,147.9z M498,413.7
		c0-0.2-0.1-0.4-0.2-0.5c-0.5-0.4-1.1-0.7-1.7-0.7c-0.7,0-0.7,0.6-0.9,1.1c-0.2,0.5-0.4,0.9-0.6,1.4c-0.5,1.3-0.5,1.3,0.8,1.8
		c0.4,0.2,0.9,0.5,1.2,0C497.2,415.8,497.5,414.8,498,413.7z M348.9,414.5c0.3-0.1,0.9-0.2,1.4-0.5c0.4-0.2,0.2-0.7,0.1-1.1
		c-0.4-1-0.2-2.3-1.2-2.9c-0.5-0.3-1.2,0.1-1.7,0.5c-0.5,0.3-0.2,0.8-0.1,1.2c0.2,0.7,0.4,1.4,0.7,2.1
		C348.1,414.2,348.2,414.5,348.9,414.5z M678.5,156c1,0.1,1-0.6,1.2-1.2c0.1-0.5,0.4-1.1-0.3-1.3c-1-0.3-2-0.6-3-0.8
		c-0.7-0.2-0.8,0.5-0.9,1c-0.1,0.5-0.6,1.2,0.3,1.5C676.7,155.6,677.7,155.8,678.5,156z M475,404c-0.2-0.8-0.9-0.8-1.4-1
		s-0.9-0.1-1.1,0.4c-0.3,0.8-0.7,1.7-1,2.5c-0.2,0.5-0.1,0.9,0.4,1.1c0.6,0.2,1.2,0.8,1.7,0.2C474.3,406.3,474.6,405.1,475,404z
		 M674,159.1c-0.2,0.5,0.1,0.8,0.6,1c0.7,0.2,1.4,0.4,2.1,0.6c1.2,0.3,1.2,0.2,1.5-0.9c0.3-1.1,0.3-1.2-0.8-1.6
		c-0.5-0.2-1-0.3-1.5-0.4C674.5,157.4,674.2,157.6,674,159.1z M308.5,378.9c0.1,0,0.5,0,0.7-0.1c0.5-0.5,0.4-1.1,0.4-1.7
		c0-0.5-0.4-0.6-0.8-0.7c-0.8-0.1-1.6-0.2-2.4-0.3c-0.8-0.1-1.1,0.2-1.2,1c-0.1,1.3-0.1,1.4,1.2,1.6
		C307.1,378.7,307.8,378.8,308.5,378.9z M672.7,167.3c-0.5-0.1-0.7,0-0.9,0.2c-0.8,0.9-0.5,2.1,0.7,2.5c0.7,0.2,1.4,0.4,2.1,0.5
		c0.9,0.2,0.9-0.5,1-1s0.5-1.2-0.3-1.4C674.4,167.7,673.4,167.4,672.7,167.3z M645.1,170.3c-0.7,0.4-1.5,0.8-2.3,1.2
		c-1,0.6-1,0.7-0.5,1.7c0.6,1,0.7,1.1,1.7,0.6c0.6-0.3,1.1-0.6,1.7-0.9c1.1-0.6,1.1-0.7,0.5-1.8
		C645.9,170.8,645.8,170.3,645.1,170.3z M309.9,364c1.1,0.1,1.2,0,1.4-1c0.2-1.3,0.1-1.5-1.2-1.6c-0.7-0.1-1.3-0.2-2-0.2
		c-0.3,0-0.7,0-0.9,0.4c-0.6,1.2-0.2,2.1,1.1,2.3C308.7,363.8,309.3,363.9,309.9,364z M632.4,358.9c0-0.2,0-0.5-0.3-0.6
		c-0.9-0.5-1.9-1-2.8-1.5c-0.2-0.1-0.4,0-0.6,0.1c-1.1,0.8-1,1.9,0.2,2.6c0.4,0.2,0.8,0.4,1.2,0.6
		C631.3,360.7,632.3,360.2,632.4,358.9z M461,359.2c0.7-0.4,1-1,1.3-1.6c0.2-0.5-0.2-0.7-0.5-0.9c-0.6-0.5-1.3-0.9-1.9-1.4
		c-0.9-0.7-1.2,0.1-1.6,0.6s-0.7,1,0.1,1.5c0.7,0.5,1.4,1,2.1,1.5C460.5,359,460.8,359.1,461,359.2z M623.4,220.4
		c-1.3-0.1-1.9,0.8-1.6,2c0.2,0.6,0.4,1.3,0.7,1.9c0.1,0.3,0.3,0.6,0.7,0.6c1.3,0.1,2-0.8,1.6-2c-0.2-0.6-0.4-1.3-0.7-1.9
		C624,220.7,623.9,220.3,623.4,220.4z M641.9,341.3c0-0.3-0.1-0.5-0.3-0.6c-0.9-0.5-1.8-1-2.7-1.4c-0.3-0.1-0.5-0.1-0.8,0.1
		c-1,0.8-0.9,1.9,0.2,2.5c0.4,0.3,0.9,0.5,1.3,0.7c0.4,0.2,0.9,0.7,1.4,0.3C641.5,342.5,641.7,341.9,641.9,341.3z M385.8,346.1
		c-0.1,0-0.3,0.1-0.3,0.1c-0.7,0.9-1.4,1.7-2.1,2.6c-0.2,0.2-0.1,0.4,0,0.6c0.7,1.2,1.7,1.3,2.6,0.2c0.4-0.4,0.7-0.9,1.1-1.3
		c0.3-0.4,0.6-0.7,0.2-1.2C386.8,346.7,386.4,346.2,385.8,346.1z M334.3,418.8c1.4,0.1,2-0.7,1.6-2c-0.2-0.6-0.4-1.3-0.6-1.9
		c-0.3-0.8-0.9-0.6-1.4-0.4s-1.3,0.2-1.1,1.2c0.3,0.9,0.5,1.8,0.8,2.7C333.8,418.6,334,418.8,334.3,418.8z M546.2,283.1
		c1.1-0.5,2.2-1,3.2-1.8c0.1-0.1,0.1-0.2,0.1-0.3c0-1.1-1.1-1.9-2.1-1.4c-0.7,0.4-1.4,0.7-2.1,1.1c-0.5,0.3-0.4,0.7-0.2,1.2
		C545.4,282.4,545.5,283,546.2,283.1z M582.6,342.4c-0.2-0.6-0.4-1.2-1-1.6c-0.4-0.3-0.8,0.1-1.2,0.3c-0.7,0.3-1.3,0.7-1.9,1
		c-0.8,0.4-0.4,0.9-0.1,1.4c0.3,0.5,0.5,1.3,1.3,0.8c0.9-0.4,1.7-0.9,2.5-1.4C582.4,342.9,582.6,342.8,582.6,342.4z M313.5,342.6
		c0.1-0.6-0.2-0.9-0.8-1c-0.8-0.1-1.7-0.2-2.5-0.3c-0.4,0-0.7,0-0.8,0.4c-0.6,1.1-0.1,2.1,1.1,2.2c0.4,0.1,0.9,0.1,1.3,0.2
		C313.2,344.3,313.5,344,313.5,342.6z M644.3,337c0.1-0.4-0.2-0.6-0.5-0.8c-0.6-0.4-1.3-0.7-1.9-1.1c-1.1-0.5-1.1-0.5-1.7,0.5
		c-0.6,1.1-0.6,1.2,0.5,1.8c0.4,0.3,0.9,0.5,1.3,0.7C643.2,338.8,644.1,338.3,644.3,337z M488.8,409.8c0-0.3-0.2-0.4-0.3-0.6
		c-1.2-0.9-1.8-0.7-2.4,0.6c-0.3,0.6-0.5,1.2-0.8,1.9c-0.2,0.4-0.2,0.8,0.3,1c0.6,0.2,1.3,0.9,1.8,0.3
		C488.1,412.1,488.4,410.9,488.8,409.8z M353.4,408.6c-0.3,0.3-1.4,0-1.4,0.9c0,1.1,0.5,2.2,0.9,3.3c0.1,0.1,0.2,0.3,0.4,0.3
		c0.6,0,1.3-0.2,1.8-0.5s0.2-0.8,0-1.2c-0.2-0.7-0.4-1.4-0.6-2.1C354.3,408.8,354.1,408.5,353.4,408.6z M636.3,343.5
		c-0.2,0-0.3,0-0.4,0.1c-0.5,0.5-0.9,1.1-0.9,1.8c0,0.5,0.6,0.6,0.9,0.9c0.6,0.3,1.2,0.7,1.8,1c0.4,0.2,0.8,0.4,1,0
		c0.3-0.6,1.1-1.2,0.6-1.8C638.6,344.4,637.3,344.1,636.3,343.5z M482.4,411.3c0.3,0,0.4-0.1,0.5-0.3c0.4-0.9,0.8-1.9,1.2-2.8
		c0.1-0.4,0-0.6-0.3-0.9c-1.2-0.9-1.8-0.7-2.4,0.6c-0.2,0.5-0.4,0.9-0.6,1.4C480.4,410.4,481.2,411.4,482.4,411.3z M310.8,349
		c0.6,0,1,0.1,1.3,0.1s0.5-0.1,0.7-0.4c0.6-1.1,0.1-2.1-1.1-2.3c-0.6-0.1-1.2-0.1-1.9-0.2c-0.7-0.1-1,0.1-1.2,0.8
		c-0.2,1.3-0.1,1.6,1.3,1.8C310.2,349,310.6,349,310.8,349z M368.1,331.9c-0.1-0.2-0.1-0.3-0.1-0.4c-0.6-1.2-1.7-1.3-2.6-0.3
		c-0.4,0.5-0.9,1-1.3,1.6c-0.2,0.2-0.3,0.5-0.2,0.8c0.4,1.1,1.7,1.4,2.5,0.5c0.5-0.6,0.9-1.1,1.4-1.7
		C367.9,332.3,368,332.1,368.1,331.9z M470.3,402.2c0-0.2,0-0.3-0.1-0.4c-0.5-0.5-1.1-0.8-1.8-0.8c-0.5,0-0.5,0.5-0.7,0.8
		c-0.3,0.7-0.6,1.5-0.9,2.2c-0.2,0.4-0.2,0.8,0.3,1c0.6,0.2,1.3,0.9,1.8,0.3C469.7,404.4,470,403.2,470.3,402.2z M304.9,390.9
		c-0.5-0.1-0.9-0.1-1.1,0.4c-0.5,1.3-0.1,2,1.2,2.2c0.6,0.1,1.2,0.1,1.9,0.2c0.6,0.1,0.9-0.2,1.1-0.8c0.3-1.4,0.1-1.7-1.3-1.8
		C306,391,305.4,391,304.9,390.9z M466.6,351c0.7-0.2,0.9-0.8,1.3-1.3c0.3-0.4,0.1-0.8-0.2-1c-0.8-0.6-1.5-1.1-2.3-1.7
		c-0.2-0.2-0.5-0.2-0.8,0c-1.2,0.8-1.2,1.8,0,2.6c0.5,0.4,1,0.7,1.5,1.1C466.2,350.9,466.4,350.9,466.6,351z M357.7,328.6
		c0.3-0.1,0.5-0.3,0.7-0.5c0.5-0.6,1-1.2,1.5-1.8c0.6-0.6,0.3-1.1-0.2-1.5c-1-0.8-1.2-0.8-2,0.2c-0.4,0.5-0.8,1-1.2,1.4
		c-0.2,0.3-0.6,0.6-0.3,1C356.6,328,357.1,328.4,357.7,328.6z M556.6,294.2c-0.1-1.4-1.1-2-2.3-1.4c-0.6,0.3-1.1,0.6-1.6,0.9
		c-0.6,0.3-0.7,0.7-0.4,1.4c0.6,1.3,0.8,1.4,2.2,0.7c0.6-0.3,1.2-0.6,1.8-1C556.4,294.7,556.6,294.5,556.6,294.2z M573.1,324.9
		c-0.2-0.6-0.4-1.2-0.9-1.6c-0.4-0.4-0.9,0-1.2,0.2c-0.6,0.3-1.1,0.6-1.7,0.9c-0.4,0.2-0.9,0.4-0.8,1c0.2,0.6,0.4,1.2,0.9,1.6
		C570,327.2,573.1,325.4,573.1,324.9z M354.9,321c-0.4,0-0.6,0.2-0.7,0.4c-0.4,0.5-0.8,0.9-1.2,1.4c-0.9,1.2-0.9,1.5,0.4,2.4
		c0.5,0.3,0.8,0.3,1.2-0.1c0.5-0.6,1-1.2,1.5-1.8c0.3-0.3,0.7-0.7,0.3-1.2C355.9,321.6,355.4,321.2,354.9,321z M505.7,296.4
		c-0.1-0.1-0.2-0.3-0.3-0.4c-0.8-0.6-1.6-1.2-2.5-1.8c-0.2-0.2-0.5-0.2-0.8,0c-1.1,0.7-1.1,1.8-0.1,2.5c0.4,0.3,0.9,0.7,1.4,1
		c0.4,0.2,0.7,0.7,1.2,0.3C505.1,297.7,505.5,297.1,505.7,296.4z M633.8,347.9c-0.7,0.3-0.8,0.9-1.1,1.5c-0.3,0.4-0.1,0.8,0.3,1
		c0.7,0.4,1.5,0.8,2.2,1.2c0.6,0.4,1,0.2,1.4-0.4c0.7-1.1,0.7-1.4-0.4-2c-0.6-0.3-1.2-0.7-1.8-1C634.2,348,634,348,633.8,347.9z
		 M557.9,305.1c0.1,0,0.3,0,0.4-0.1c0.9-0.5,1.8-0.9,2.7-1.5c0.7-0.5,0.2-1,0-1.5c-0.3-0.5-0.6-1.1-1.3-0.7
		c-0.8,0.4-1.6,0.8-2.4,1.3c-0.4,0.2-0.6,0.5-0.4,1C557.1,304.1,557.2,304.8,557.9,305.1z M496.8,302.2c-0.2,0-0.3,0-0.4,0.1
		c-1.1,0.6-1.2,1.9-0.2,2.6c0.5,0.4,1.1,0.8,1.7,1.2c0.3,0.2,0.6,0.3,0.9,0.1c1.1-0.7,1.2-1.7,0.1-2.5c-0.5-0.4-1.1-0.8-1.7-1.2
		C497.2,302.4,497,302.3,496.8,302.2z M562.3,305.6c-0.7,0.4-1.4,0.7-2.1,1.1c-1.3,0.7-1.4,1.3-0.4,2.5c0.3,0.3,0.5,0.4,0.9,0.2
		c0.9-0.5,1.8-1,2.7-1.5c0.5-0.3,0.3-0.8,0.1-1.2C563.1,306.2,563,305.6,562.3,305.6z M491.2,316.8c0-0.1-0.1-0.3-0.2-0.4
		c-0.9-0.7-1.8-1.3-2.7-2c-0.1-0.1-0.4,0-0.5,0c-0.5,0.4-0.9,0.9-1.1,1.5c-0.2,0.7,0.5,0.8,0.9,1.1c0.4,0.4,0.9,0.7,1.4,1
		C489.9,318.7,491.1,318,491.2,316.8z M395.2,354c0-0.2,0-0.3-0.1-0.4c-0.5-1.2-1.8-1.4-2.6-0.4c-0.5,0.6-0.9,1.1-1.4,1.7
		c-0.2,0.2-0.3,0.5-0.1,0.8c0.6,1.2,1.8,1.3,2.6,0.3c0.4-0.5,0.8-1,1.2-1.5C395,354.3,395.1,354.1,395.2,354z M309.3,351.2
		c-0.8-0.2-1.1,0.2-1.2,1c-0.2,1.3-0.1,1.5,1.2,1.6c0.7,0.1,1.3,0.2,2,0.2c0.6,0.1,0.9-0.2,1-0.8c0.3-1.4,0.1-1.7-1.3-1.8
		C310.4,351.4,309.8,351.3,309.3,351.2z M587.3,351.2c-0.1-1.3-1.1-1.9-2.3-1.3c-0.6,0.3-1.2,0.6-1.8,1c-0.2,0.1-0.5,0.3-0.5,0.6
		c0.1,0.6,0.4,1.2,0.8,1.6c0.5,0.5,0.9-0.1,1.4-0.3c0.7-0.3,1.3-0.7,1.9-1C587.2,351.7,587.4,351.5,587.3,351.2z M462.1,351
		c-0.5,0.1-0.7,0.5-0.9,0.8c-0.8,1-0.7,1.1,0.3,1.9c0.6,0.4,1.2,0.9,1.8,1.3c0.2,0.2,0.5,0.3,0.8,0.2c1-0.5,1.3-1.9,0.4-2.5
		c-0.6-0.4-1.2-0.9-1.8-1.3C462.5,351.1,462.3,351,462.1,351z M638.4,165.3c0.5,0,3.2-1.4,3.3-1.6c0.4-0.7-0.2-1.2-0.5-1.7
		c-0.2-0.4-0.5-0.6-1-0.4c-0.9,0.4-1.7,0.9-2.6,1.3c-0.4,0.2-0.5,0.6-0.3,1C637.8,164.4,637.9,165.1,638.4,165.3z M677.2,163.9
		c0-0.4-0.2-0.7-0.5-0.8c-0.9-0.3-1.9-0.5-2.8-0.7c-0.3-0.1-0.5,0-0.7,0.3c-0.8,1.1-0.5,2.1,0.8,2.4c0.5,0.1,1,0.3,1.5,0.4
		C676.6,165.8,677.2,165.3,677.2,163.9z M475.5,265.7c-0.1-0.4-0.2-1-0.3-1.7c-0.3-1.4-0.5-1.4-1.8-1.1c-0.6,0.1-0.9,0.4-0.8,1
		c0.1,0.8,0.3,1.7,0.4,2.5s0.6,0.9,1.2,0.7C474.8,267,475.6,267,475.5,265.7z M568.7,243.6c-0.3-0.9-0.6-1.8-1-2.8
		c-0.4-0.9-1.1-0.3-1.6-0.1c-0.5,0.1-1,0.4-0.7,1.1c0.3,0.9,0.6,1.8,1,2.7c0.3,0.7,0.9,0.4,1.3,0.2S568.8,244.6,568.7,243.6z
		 M571.7,243.3c1.4-0.1,1.9-0.7,1.4-2.1c-0.2-0.5-0.4-1.1-0.6-1.6c-0.2-0.7-0.6-1-1.4-0.7c-1.3,0.4-1.4,0.6-1,1.8
		c0.2,0.7,0.5,1.4,0.8,2.1C571.1,243.1,571.3,243.3,571.7,243.3z M444.5,272.3c1.5-0.1,1.6-0.3,1.4-1.8c-0.1-0.7-0.2-1.3-0.4-2
		c-0.1-0.3-0.2-0.5-0.5-0.6c-1.2-0.3-2.1,0.4-1.9,1.7c0.1,0.7,0.2,1.3,0.3,2C443.6,272.2,443.9,272.4,444.5,272.3z M426.4,274.6
		c-0.2-0.9-0.3-1.8-0.5-2.7c-0.1-0.5-0.5-0.7-1-0.6c-1.5,0.3-1.8,0.3-1.4,1.8c0.2,0.7,0.2,1.3,0.4,2c0.2,1,0.9,0.6,1.5,0.5
		C425.9,275.5,426.5,275.4,426.4,274.6z M614,223.7c-1.4,0-1.9,0.7-1.5,2c0.2,0.6,0.5,1.3,0.7,1.9c0.3,0.9,1,0.5,1.6,0.3
		c0.5-0.2,1.2-0.3,0.9-1.1c-0.3-0.9-0.6-1.7-0.9-2.6C614.6,223.9,614.4,223.7,614,223.7z M410.2,273.8c-1.4,0-1.7,0.4-1.5,1.7
		c0.1,0.7,0.2,1.3,0.4,2c0.2,0.9,0.9,0.7,1.5,0.6c0.7-0.1,1.3-0.2,1.1-1.1c-0.2-0.8-0.3-1.7-0.4-2.5
		C411.1,274,410.8,273.7,410.2,273.8z M611,229c0-0.4-0.9-3.1-1.1-3.3c-0.6-0.6-1.2,0-1.7,0.1s-0.7,0.5-0.5,1
		c0.3,0.9,0.6,1.7,0.9,2.6c0.2,0.6,0.6,0.7,1.1,0.5C610.1,229.6,610.9,229.7,611,229z M581.1,235.4c-1.3,0-1.9,0.8-1.5,2
		c0.2,0.6,0.4,1.2,0.6,1.8c0.3,0.8,0.8,0.9,1.5,0.6c0.6-0.3,1.4-0.4,1-1.4c-0.3-0.8-0.6-1.6-0.9-2.4
		C581.7,235.6,581.5,235.3,581.1,235.4z M596.9,233.7c-0.3-0.7-0.6-1.6-0.8-2.5c-0.2-0.8-0.7-0.9-1.4-0.7c-1.3,0.4-1.4,0.5-1,1.8
		c0.2,0.7,0.5,1.4,0.7,2.1c0.2,0.6,0.6,0.7,1.1,0.4C596,234.6,596.8,234.6,596.9,233.7z M599.8,228.7c-1.5,0.1-1.9,0.7-1.4,2.1
		c0.2,0.5,0.4,1.1,0.6,1.6c0.2,0.7,0.6,1,1.4,0.7c1.2-0.4,1.4-0.6,1-1.8c-0.2-0.7-0.5-1.4-0.7-2.1
		C600.5,228.9,600.3,228.7,599.8,228.7z M482.4,322.5c-0.2,0-0.3,0-0.4,0.1c-0.5,0.4-0.9,0.9-1.1,1.5s0.5,0.8,0.8,1.1
		c0.5,0.4,1.1,0.8,1.7,1.2c0.3,0.2,0.7,0.5,1,0c0.4-0.5,1.2-1.1,0.8-1.7C484.6,323.7,483.4,323.2,482.4,322.5z M373.7,154.5
		c-0.3-0.9-0.5-1.9-1-2.9c-0.3-0.7-1-0.2-1.5-0.1c-0.5,0.1-1,0.3-0.8,1c0.2,0.9,0.5,1.9,0.8,2.8c0.2,0.7,0.8,0.5,1.3,0.4
		C373,155.5,373.6,155.5,373.7,154.5z M367.2,152.7c-1.4,0.1-1.8,0.6-1.4,1.9c0.2,0.7,0.4,1.3,0.6,2c0.2,0.8,0.8,0.6,1.4,0.5
		c0.6-0.2,1.3-0.2,1.1-1.2c-0.2-0.9-0.5-1.7-0.7-2.6C368,152.8,367.7,152.6,367.2,152.7z M364.2,328.8c-0.2-0.8-0.8-1.1-1.4-1.5
		c-0.4-0.3-0.7,0.1-1,0.4c-0.5,0.6-1.1,1.3-1.6,2c-0.2,0.3-0.4,0.5-0.2,0.9c0.7,1.2,1.7,1.3,2.6,0.2c0.4-0.4,0.7-0.9,1.1-1.3
		C363.9,329.3,364,329.1,364.2,328.8z M572.3,331.4c1-0.5,2.2-0.9,3.1-1.8c0.5-0.5-0.2-1-0.4-1.5c-0.2-0.4-0.5-0.8-1.1-0.5
		c-0.9,0.4-1.7,0.9-2.6,1.4c-0.5,0.3-0.4,0.8-0.2,1.2C571.4,330.7,571.5,331.3,572.3,331.4z M589.7,355.5c-0.1-1.3-1.1-1.8-2.2-1.2
		c-0.6,0.3-1.1,0.6-1.6,0.9c-0.8,0.4-0.7,0.8-0.4,1.5c0.6,1.2,0.7,1.2,1.9,0.6c0.6-0.3,1.2-0.6,1.8-1
		C589.4,356.1,589.7,355.9,589.7,355.5z M359.3,158.7c-0.2-0.8-0.5-1.6-0.7-2.4c-0.2-0.9-0.7-1-1.5-0.7c-1.1,0.4-1.2,0.4-0.9,1.7
		c0.2,0.7,0.4,1.4,0.6,2.1c0.3,0.8,0.9,0.6,1.4,0.4C358.7,159.6,359.4,159.6,359.3,158.7z M380.9,347.4c0.4,0,0.5-0.2,0.7-0.4
		c0.5-0.6,1-1.2,1.5-1.8c0.5-0.6,0.4-1-0.2-1.5c-1-0.9-1.2-0.9-2,0.1c-0.4,0.5-0.8,0.9-1.2,1.4c-0.2,0.3-0.6,0.6-0.4,1
		C379.8,346.8,380.3,347.2,380.9,347.4z M314.6,224.7C314.6,224.7,314.6,224.6,314.6,224.7c0.5-0.1,1-0.1,1.5-0.1
		c0.8,0,0.8-0.6,0.8-1.2c0-0.6,0-1.3-0.9-1.3c-0.8,0-1.7,0-2.5,0.1c-0.7,0-1,0.4-1,1.1c0,1.3,0.1,1.5,1.5,1.5
		C314.3,224.7,314.4,224.7,314.6,224.7z M476.8,337.2c0-0.4-0.2-0.6-0.4-0.7c-0.7-0.5-1.4-1-2.1-1.5c-0.9-0.6-1.2,0.1-1.6,0.6
		s-0.7,1,0.1,1.5c0.6,0.4,1.1,0.8,1.7,1.2c0.4,0.2,0.7,0.7,1.2,0.5C476.2,338.4,476.5,337.8,476.8,337.2z M604.6,227.1
		c-1.4,0-1.9,0.7-1.4,2c0.2,0.6,0.5,1.3,0.7,1.9c0.3,0.8,0.9,0.6,1.4,0.3c0.5-0.2,1.3-0.3,1-1.2s-0.6-1.7-0.9-2.6
		C605.2,227.3,605,227,604.6,227.1z M592.2,235.3c-0.3-0.9-0.6-2-1.2-3c-0.4-0.6-1-0.1-1.5,0.1c-0.5,0.1-0.9,0.4-0.7,0.9
		c0.3,1,0.6,1.9,1,2.9c0.3,0.7,0.9,0.3,1.3,0.2C591.6,236.2,592.2,236.2,592.2,235.3z M587.5,237.2c-0.3-1.1-0.6-2.2-1.2-3.2
		c-0.4-0.7-1-0.1-1.5,0c-0.4,0.1-1,0.3-0.7,0.9c0.3,1,0.6,1.9,1,2.9c0.2,0.6,0.7,0.5,1.2,0.3C586.7,237.9,587.4,237.9,587.5,237.2z
		 M620.4,225.3c-0.2-0.7-0.5-1.4-0.8-2.2c-0.4-1.1-1.7-1.3-2.5-0.4c-0.2,0.2-0.2,0.4-0.2,0.6c0.3,1,0.6,1.9,1,2.9
		c0.3,0.7,0.8,0.4,1.3,0.2C619.8,226.2,620.5,226.2,620.4,225.3z M362.2,154.1c-0.2,0.1-0.8,0.2-1.2,0.5c-0.5,0.3-0.2,0.8-0.1,1.2
		c0.3,0.9,0.2,2.2,1.1,2.7c0.5,0.3,1.2-0.1,1.7-0.4c0.5-0.3,0.2-0.8,0.1-1.2c-0.2-0.7-0.4-1.4-0.6-2.1
		C363.2,154.3,363,153.9,362.2,154.1z M515.7,282c0.2,0,0.3,0,0.4-0.1c1-0.4,1.3-1.8,0.4-2.5c-0.6-0.4-1.2-0.9-1.8-1.3
		c-0.3-0.2-0.7-0.5-1-0.1c-0.4,0.5-1.2,1.1-0.9,1.7C513.5,280.8,514.7,281.3,515.7,282z M396.8,279.2c-0.1-0.5-0.2-1.3-0.4-2.1
		c-0.1-0.6-0.5-0.8-1.1-0.7c-1.3,0.2-1.6,0.4-1.4,1.7c0.1,0.6,0.2,1.2,0.3,1.8c0.1,0.8,0.6,1,1.3,0.8
		C396.3,280.6,397,280.6,396.8,279.2z M329.7,415.7c-1.4,0.1-1.8,0.6-1.5,1.9c0.2,0.7,0.4,1.3,0.6,2c0.1,0.3,0.2,0.5,0.5,0.6
		c1.1,0.3,2.1-0.7,1.8-1.7c-0.2-0.7-0.4-1.4-0.6-2.1C330.4,415.9,330.2,415.6,329.7,415.7z M405.1,279.1c1.5-0.1,1.7-0.3,1.5-1.7
		c-0.1-0.6-0.2-1.1-0.3-1.7c-0.1-0.8-0.5-1.2-1.4-1c-1.2,0.3-1.3,0.3-1.2,1.4c0.1,0.7,0.3,1.4,0.4,2.2
		C404.2,278.8,404.5,279.2,405.1,279.1z M511.2,281.9c-0.6,0.3-0.9,0.9-1.2,1.4c-0.3,0.4-0.1,0.7,0.2,1c0.7,0.5,1.5,1.1,2.2,1.6
		c0.2,0.2,0.5,0.4,0.8,0.2c0.5-0.4,0.9-0.9,1.1-1.5c0.2-0.6-0.4-0.8-0.7-1c-0.6-0.5-1.2-0.9-1.8-1.3
		C511.6,282.1,511.4,282,511.2,281.9z M418.5,273.3c0.1,0.8,0.3,1.7,0.4,2.5c0.1,0.3,0.2,0.6,0.6,0.7c1.2,0.3,2-0.5,1.8-1.7
		c-0.1-0.6-0.2-1.2-0.3-1.8c-0.1-0.8-0.6-1-1.3-0.8C419.1,272.3,418.4,272.3,418.5,273.3z M507.1,294.2c0.2,0,0.3,0,0.4-0.1
		c0.5-0.4,0.9-0.9,1.1-1.5s-0.4-0.8-0.7-1c-0.6-0.4-1.2-0.9-1.8-1.3c-0.3-0.2-0.7-0.5-1,0c-0.4,0.5-1.2,1.1-0.8,1.7
		C504.9,293,506,293.5,507.1,294.2z M459.2,269.7c1.4,0,1.7-0.4,1.5-1.8c-0.1-0.6-0.2-1.2-0.3-1.8c-0.1-0.9-0.7-0.9-1.3-0.8
		c-0.7,0.1-1.4,0.2-1.2,1.2c0.1,0.8,0.3,1.7,0.4,2.5C458.3,269.6,458.7,269.8,459.2,269.7z M558.9,298.5c-0.1-1.3-1.1-1.9-2.2-1.3
		c-0.6,0.3-1.1,0.6-1.6,0.9c-0.7,0.4-0.8,0.8-0.4,1.5c0.6,1.2,0.7,1.3,1.9,0.6c0.6-0.3,1.2-0.6,1.8-1
		C558.6,299.1,558.9,298.9,558.9,298.5z M308.9,368.9c1.6,0.1,1.7,0,1.9-1.2c0.1-0.9-0.2-1.3-1-1.3c-0.7,0-1.5-0.1-2.2-0.2
		s-1,0.3-1.1,0.9c-0.2,1.3-0.1,1.5,1.2,1.7C308.1,368.8,308.6,368.8,308.9,368.9z M469.3,263.6c-1.5,0-1.8,0.3-1.5,1.9
		c0.1,0.5,0.2,1,0.3,1.5c0.2,1.1,0.4,1.2,1.5,1s1.2-0.3,1-1.5c-0.1-0.7-0.3-1.4-0.4-2.2C470.1,263.8,469.8,263.5,469.3,263.6z
		 M562.6,313.8c0.6,0,3.2-1.4,3.3-1.7c0.1-0.1,0.1-0.3,0.1-0.5c-0.1-1.3-1.1-1.8-2.2-1.2c-0.6,0.3-1.2,0.7-1.8,1
		c-0.5,0.3-0.7,0.6-0.4,1.1C561.9,313,562,313.7,562.6,313.8z M383.2,151.8c-0.2-0.7-0.4-1.6-0.7-2.4c-0.3-1-0.4-1-1.5-0.7
		c-1.2,0.3-1.3,0.4-0.9,1.7c0.2,0.7,0.4,1.4,0.6,2.1c0.2,0.7,0.7,0.6,1.2,0.5C382.5,152.7,383.3,152.8,383.2,151.8z M488.4,320.9
		c0-0.3-0.2-0.5-0.5-0.7c-0.7-0.5-1.4-1-2.1-1.5c-0.7-0.6-1.1-0.1-1.5,0.4c-0.4,0.6-0.9,1.1,0,1.7c0.6,0.4,1.2,0.9,1.8,1.3
		c0.3,0.2,0.6,0.6,1,0.4C487.7,322.1,488.1,321.5,488.4,320.9z M588.8,362.2c1.1-0.5,2.3-1,3.1-1.8c0.5-0.5-0.1-1-0.4-1.5
		c-0.2-0.5-0.6-0.7-1.1-0.4c-0.9,0.4-1.7,0.9-2.5,1.4c-0.4,0.2-0.4,0.6-0.2,1C588,361.3,588.1,362,588.8,362.2z M354.5,160
		c-0.2-0.8-0.4-1.6-0.7-2.4c-0.3-1-0.5-1-1.5-0.7c-1.2,0.3-1.2,0.4-0.9,1.7c0.2,0.7,0.4,1.4,0.6,2.1c0.3,0.8,0.9,0.6,1.4,0.4
		C353.9,161,354.6,160.9,354.5,160z M306.7,388.7L306.7,388.7c0.2,0,0.5,0,0.7,0.1c0.8,0.2,1.1-0.3,1.1-1s0.3-1.4-0.8-1.5
		c-0.8-0.1-1.7-0.2-2.5-0.3c-0.5,0-0.8,0.2-0.9,0.7c-0.3,1.4-0.1,1.7,1.3,1.9C305.9,388.6,306.3,388.7,306.7,388.7z M314.6,217.1
		L314.6,217.1c-0.4,0-0.8,0.1-1.2,0c-0.7,0-1,0.3-1,1c0,1.2,0.1,1.5,1,1.6c0.8,0,1.6,0,2.4-0.1c0.6,0,0.9-0.3,0.9-0.9
		c0.1-1.3-0.2-1.6-1.5-1.6C315.1,217.1,314.9,217.1,314.6,217.1z M633.4,356.2c0.2,0,0.3,0,0.4-0.1c0.5-0.4,0.8-1,0.9-1.6
		c0.1-0.6-0.4-0.8-0.8-1c-0.7-0.4-1.4-0.7-2.1-1.1c-0.4-0.2-0.8-0.1-1,0.3c-0.2,0.5-1,1.1-0.5,1.7
		C631.2,355.3,632.4,355.6,633.4,356.2z M374.3,406c-0.3-0.9-0.6-1.8-0.9-2.8c-0.1-0.3-0.3-0.4-0.7-0.4c-1.4,0-1.9,0.7-1.5,2
		c0.2,0.7,0.4,1.3,0.6,1.9c0.2,0.7,0.7,0.6,1.2,0.4C373.6,407,374.4,407.1,374.3,406z M306,398.7c0.4,0,0.9,0.2,1.2-0.3
		c0.6-1,0.1-2.1-1-2.3c-0.7-0.1-1.5-0.2-2.2-0.2c-0.6-0.1-0.8,0.3-0.9,0.8c-0.3,1.3-0.1,1.7,1.2,1.8
		C304.9,398.6,305.4,398.6,306,398.7z M308.9,373.9c1,0,1.2-0.1,1.3-1.1c0.1-1.1,0-1.3-1-1.5c-0.7-0.1-1.3-0.1-2-0.2
		c-0.8-0.1-1.1,0.2-1.2,1c-0.2,1.2,0,1.5,1.2,1.7C307.6,373.8,308.2,373.8,308.9,373.9z M377.4,405.9c1.4,0,1.9-0.7,1.5-2
		c-0.2-0.6-0.3-1.2-0.5-1.8c-0.1-0.3-0.2-0.6-0.7-0.7c-1.2-0.2-2,0.7-1.7,1.9c0.2,0.7,0.4,1.4,0.6,2.1
		C376.8,405.8,377,406,377.4,405.9z M306.2,381c-1.2-0.1-1.4,0-1.5,1c-0.1,1.1,0,1.4,1.2,1.5c0.6,0.1,1.1,0.2,1.7,0.2
		c1.1,0.1,1.3-0.1,1.4-1.2s0-1.3-1.1-1.4C307.3,381.1,306.8,381.1,306.2,381z M309.2,356.2c-1.6-0.1-1.7,0-1.8,1.2
		c-0.1,1,0,1.2,1.2,1.4c0.6,0.1,1.3,0.1,1.9,0.2c0.8,0.1,1.1-0.2,1.2-1c0.1-1.1,0-1.4-1-1.6C310.2,356.3,309.6,356.3,309.2,356.2z
		 M641,169.8c0.8-0.4,1.6-0.8,2.4-1.2c1.1-0.6,1.1-0.7,0.5-1.7c-0.5-1.1-0.7-1.1-1.7-0.6c-0.7,0.3-1.4,0.7-2.1,1.1
		c-0.4,0.2-0.5,0.6-0.3,1C640.1,168.8,640.1,169.6,641,169.8z M392.8,149c-0.3-0.8-0.5-1.8-0.8-2.8c-0.3-0.8-0.9-0.4-1.4-0.3
		c-0.5,0.1-1.2,0.3-1,1.1c0.2,0.9,0.5,1.7,0.7,2.6c0.2,0.7,0.6,0.7,1.2,0.5C392,150,392.8,150,392.8,149z M386.2,151.6
		c1.3,0.1,1.9-0.7,1.6-2c-0.2-0.7-0.4-1.3-0.6-2c-0.2-0.8-0.8-0.6-1.4-0.4c-0.6,0.2-1.3,0.2-1.1,1.1c0.2,0.9,0.5,1.8,0.8,2.8
		C385.7,151.5,385.9,151.7,386.2,151.6z M340.9,416.1c-0.2-0.7-0.4-1.5-0.7-2.3c-0.3-1-0.5-1.1-1.6-0.8c-0.8,0.2-1.2,0.5-0.9,1.4
		c0.3,0.7,0.5,1.5,0.7,2.3c0.2,0.6,0.6,0.8,1.2,0.5C340.1,417.1,340.9,417.1,340.9,416.1z M480.4,265.1c0-0.3-0.1-0.5-0.1-0.7
		c-0.1-0.4-0.2-0.9-0.3-1.3c-0.2-1.1-0.4-1.2-1.5-1.1c-1.1,0.2-1.2,0.3-1.1,1.5c0.1,0.7,0.3,1.3,0.3,2c0.1,1,0.8,0.9,1.5,0.8
		C480.1,266.1,480.6,265.9,480.4,265.1z M493.9,306.3c-0.7,0.3-1.1,0.9-1.3,1.5c-0.2,0.5,0.2,0.7,0.5,0.9c0.7,0.5,1.4,1,2.1,1.5
		c0.3,0.2,0.6,0.3,0.9,0c1.1-0.9,1.1-1.8,0-2.6c-0.5-0.3-0.9-0.7-1.4-1C494.4,306.5,494.1,306.4,493.9,306.3z M497.1,259.6
		c0.1,0.7,0.2,1.5,0.4,2.2c0.2,1.1,0.4,1.2,1.5,1s1.2-0.4,1.1-1.5c-0.1-0.7-0.3-1.5-0.4-2.2c-0.2-0.8-0.7-0.8-1.3-0.6
		C497.7,258.7,497,258.7,497.1,259.6z M565.1,318.2c0.2-0.1,0.4-0.2,0.6-0.3c0.7-0.3,1.3-0.7,2-1.1c0.9-0.5,0.9-0.7,0.4-1.6
		c-0.6-1.1-0.7-1.1-1.8-0.5c-0.7,0.3-1.3,0.7-2,1.1c-0.4,0.2-0.6,0.6-0.3,1C564.2,317.3,564.4,318,565.1,318.2z M343.9,415.9
		c1.4,0.1,1.9-0.7,1.6-2c-0.2-0.7-0.4-1.3-0.6-1.9c-0.3-0.8-0.8-0.6-1.4-0.4s-1.3,0.3-1.1,1.2c0.2,0.9,0.5,1.7,0.8,2.6
		C343.3,415.7,343.5,416,343.9,415.9z M567.4,322.6c0.1,0,0.2,0,0.3-0.1c0.9-0.5,1.8-0.9,2.7-1.5c0.7-0.5,0.2-1-0.1-1.5
		s-0.5-1.1-1.3-0.7s-1.6,0.9-2.4,1.3c-0.4,0.2-0.6,0.5-0.4,1C566.6,321.7,566.7,322.4,567.4,322.6z M489.7,413.9
		c0.1,0.2,0,0.4,0.1,0.5c0.5,0.5,1.1,0.7,1.7,0.8c0.6,0.1,0.7-0.5,0.9-0.9c0.3-0.7,0.6-1.5,0.9-2.2c0.2-0.6-0.1-0.9-0.6-1
		c-0.5-0.2-1.2-0.9-1.7-0.1C490.5,411.8,490.1,412.9,489.7,413.9z M376.9,149.9c-1.4,0-1.9,0.6-1.5,2c0.2,0.6,0.3,1.2,0.5,1.8
		s0.5,0.8,1.1,0.7c1.4-0.3,1.6-0.6,1.2-1.9c-0.2-0.7-0.4-1.3-0.6-1.9C377.5,150.1,377.3,149.9,376.9,149.9z M358.4,407.2
		c-1.4,0-1.8,0.6-1.4,1.9c0.2,0.7,0.4,1.3,0.6,2c0.2,0.5,0.5,0.7,1,0.6c1.5-0.3,1.7-0.5,1.2-2c-0.2-0.6-0.4-1.2-0.5-1.8
		C359.1,407.4,358.9,407.1,358.4,407.2z M643.4,330.4c-0.2,0.1-0.3,0.1-0.4,0.2c-1,0.8-1,1.9,0.1,2.5c0.6,0.3,1.2,0.6,1.8,1
		c0.5,0.3,0.9,0.3,1.1-0.3c0.2-0.5,1-1.1,0.5-1.7C645.7,331.3,644.5,330.9,643.4,330.4z M559.3,247.1c-0.3-0.8-0.5-1.6-0.8-2.4
		c-0.4-1.1-0.6-1.1-1.6-0.8c-1.1,0.4-1.2,0.5-0.8,1.6c0.2,0.7,0.5,1.4,0.7,2.1c0.2,0.5,0.5,0.8,1,0.6
		C558.4,248,559.2,248,559.3,247.1z M363.1,410.2c1.4-0.1,1.9-0.7,1.5-2.1c-0.1-0.5-0.3-1-0.4-1.5c-0.4-1.1-0.5-1.2-1.6-0.8
		c-1.1,0.3-1.2,0.5-0.9,1.6c0.2,0.8,0.4,1.5,0.7,2.3C362.4,410.1,362.7,410.3,363.1,410.2z M367.7,336.5c0.2,0.7,0.9,1,1.4,1.4
		c0.4,0.3,0.6,0,0.9-0.3c0.6-0.7,1.1-1.4,1.7-2.1c0.2-0.2,0.4-0.5,0.2-0.8c-0.3-0.5-0.8-1-1.4-1.2c-0.6-0.3-0.8,0.4-1.2,0.8
		c-0.5,0.5-0.9,1-1.3,1.6C367.9,336.1,367.8,336.3,367.7,336.5z M576.4,237.1c-1.3,0-1.9,0.8-1.5,2c0.2,0.6,0.4,1.2,0.6,1.8
		c0.3,1,1,0.7,1.6,0.5s1.2-0.5,0.9-1.3s-0.6-1.6-0.9-2.4C577,237.3,576.8,237,576.4,237.1z M470.8,338.8c-0.7,0.3-1,0.9-1.4,1.5
		c-0.3,0.5,0.2,0.7,0.5,0.9c0.6,0.4,1.2,0.9,1.8,1.3c0.9,0.6,1.1,0.5,1.9-0.6c0.6-0.8,0.2-1.2-0.4-1.6s-1.1-0.8-1.7-1.2
		C471.2,339,471,338.9,470.8,338.8z M378.1,339.9c-0.3-0.1-0.5,0.1-0.7,0.4c-0.5,0.6-1,1.2-1.5,1.8c-0.6,0.8-0.6,1,0.4,1.7
		c0.9,0.7,0.9,0.7,1.6-0.1c0.4-0.5,0.9-1,1.3-1.6C379.8,341.3,379.3,340,378.1,339.9z M471,345.3c0-0.1-0.1-0.3-0.2-0.4
		c-0.9-0.7-1.8-1.3-2.7-2c-0.2-0.1-0.4-0.1-0.6,0.1c-1.1,0.8-1.1,1.8,0,2.6c0.4,0.3,0.8,0.6,1.2,0.9
		C469.6,347.1,470.8,346.5,471,345.3z M369.5,407.5c-0.2-0.7-0.5-1.6-0.7-2.5c-0.2-0.7-0.7-0.8-1.3-0.6c-1.3,0.3-1.4,0.5-1.1,1.7
		c0.2,0.7,0.4,1.4,0.6,2.1c0.3,0.8,0.8,0.6,1.4,0.4S369.7,408.4,369.5,407.5z M315.1,244.6c0.4,0,0.8,0,1.1,0
		c1.2-0.1,1.3-0.2,1.3-1.4c-0.1-1-0.1-1.1-1.2-1.1c-0.7,0-1.4,0-2,0c-0.7,0-1,0.3-1,1c-0.1,1.3,0.1,1.5,1.5,1.6
		C314.8,244.6,315,244.6,315.1,244.6z M388.7,353.7c0.4,0,0.6-0.2,0.7-0.4c0.5-0.6,1.1-1.3,1.6-2c0.7-0.8,0-1.2-0.5-1.6
		s-1-0.8-1.5,0c-0.4,0.6-0.9,1.1-1.4,1.7c-0.2,0.3-0.7,0.7-0.4,1.2C387.6,353.1,388.1,353.5,388.7,353.7z M479.6,406.1
		c-0.1-0.2,0-0.4-0.1-0.5c-0.5-0.5-1.1-0.7-1.7-0.8c-0.6-0.1-0.7,0.5-0.9,0.9c-0.3,0.7-0.6,1.5-0.9,2.2c-0.2,0.7,0.3,0.9,0.8,1.1
		s1.1,0.8,1.5,0C478.8,408.1,479.1,407.1,479.6,406.1z M501.3,302.3c0.7-0.3,1-0.9,1.3-1.5c0.3-0.4-0.1-0.7-0.4-1
		c-0.6-0.5-1.3-0.9-1.9-1.4s-1.1-0.3-1.5,0.3c-0.8,1.1-0.8,1.2,0.3,2c0.4,0.3,0.7,0.5,1.1,0.8C500.6,301.8,501,302.1,501.3,302.3z
		 M315.4,249.6L315.4,249.6c0.4,0,0.8,0,1.2,0c1-0.1,1.1-0.3,1.1-1.3s-0.2-1.2-1.2-1.3c-0.8,0-1.6,0-2.4,0.1c-0.3,0-0.7,0.1-0.8,0.5
		c-0.4,1.2,0.1,2,1.4,2C314.9,249.6,315.1,249.6,315.4,249.6z M663.5,246.2L663.5,246.2c-0.5,0-0.9,0-1.4,0c-0.6,0-0.9,0.3-1,0.9
		c-0.1,1.3,0.1,1.6,1.4,1.7c0.5,0,1,0,1.5,0c1.2-0.1,1.4-0.3,1.4-1.4c0-1-0.2-1.2-1.3-1.2C663.9,246.2,663.7,246.2,663.5,246.2z
		 M387,281.1c0,0,0-0.4-0.1-0.7c-0.1-0.6-0.2-1.1-0.3-1.7c-0.1-0.4-0.4-0.6-0.9-0.6c-1.4,0-1.7,0.4-1.5,1.9c0.1,0.6,0.2,1.2,0.3,1.8
		c0.1,0.8,0.7,0.7,1.3,0.7C386.4,282.3,387.1,282.3,387,281.1z M314.9,239.7C314.9,239.6,314.9,239.6,314.9,239.7c0.4,0,0.8,0,1.2,0
		c1.1-0.1,1.2-0.3,1.2-1.4c0-1-0.2-1.2-1.2-1.2c-0.6,0-1.2,0-1.9,0c-1.2,0.1-1.3,0.2-1.3,1.3s0.2,1.3,1.3,1.3
		C314.5,239.7,314.7,239.7,314.9,239.7z M314.3,214.7L314.3,214.7c0.5-0.1,1,0,1.5-0.1c0.3,0,0.5-0.1,0.7-0.4
		c0.5-1.1-0.1-2.1-1.3-2.1c-0.5,0-1,0-1.5,0c-1.2,0.1-1.4,0.2-1.4,1.2c0,1.2,0.2,1.4,1.4,1.4C313.9,214.7,314.1,214.7,314.3,214.7z
		 M663.3,258.7L663.3,258.7c0.4,0,0.8,0,1.2,0c0.9-0.1,1.1-0.3,1.1-1.3c0-1.1-0.1-1.2-1.1-1.3c-0.7,0-1.4,0-2,0
		c-0.8,0-1.1,0.3-1.2,1.1c0,1.3,0.1,1.5,1.4,1.5C662.8,258.8,663.1,258.7,663.3,258.7z M663.2,253.7L663.2,253.7c0.4,0,0.8,0,1.2,0
		c0.8,0,1.1-0.4,1.1-1.1c0-1.2-0.1-1.4-1.3-1.4c-0.7,0-1.5,0-2.2,0c-0.4,0-0.6,0.1-0.8,0.5c-0.4,1.2,0.1,2,1.3,2
		C662.8,253.7,663,253.7,663.2,253.7z"/>
	<path class="st1" d="M397.5,148.6c-2.2,0.3-2.2,0.3-2.8-1.8c0-0.2-0.1-0.3-0.1-0.5c-0.3-1.3,0.4-2.1,1.6-1.9c0.3,0,0.5,0.3,0.6,0.5
		c0.2,0.4,0.1,1,0.7,1.4c0.2-0.8,0.1-1.5,0.1-2.2c0-39.5,0-79,0-118.6c0-0.6,0-1.1,0-1.7c0-0.8,0.4-1.1,1.1-1.1c0.4,0,0.8,0,1.2,0
		c61.4,0,122.9,0,184.3,0c0.3,0,0.7,0,1,0c0.8,0,1.2,0.3,1.1,1.1c0,0.5,0,0.9,0,1.4c0,61.3,0,122.6,0,183.8c0,2.9,0,2.5-2.5,2.5
		c-61.3,0-122.6,0-183.8,0c-2.8,0-2.5,0.2-2.5-2.6c0-19.4,0-38.7,0-58.1C397.7,150.2,397.8,149.4,397.5,148.6z M492,208.2
		c5.3,0,12.5-0.7,17.8-1.8c17-3.5,32-11,44.6-23.1c19.3-18.5,28.8-41.2,28.5-68c-0.1-9.4-1.7-18.6-4.8-27.5
		c-8.4-23.9-24-41.6-46.8-52.7c-17.2-8.4-35.4-10.7-54.2-7.7c-11.7,1.9-22.5,5.9-32.6,12.1C431,47.9,420.4,59,412.6,72.9
		c-7.1,12.6-10.8,26.1-11.5,40.5c-0.3,7.3,0.3,14.6,1.7,21.7c0.4,2,0.9,3.9,1.4,5.8c0.1,0.4,0.2,1.1,0.8,0.9
		c1.3-0.5,1.4,0.4,1.6,1.2c0.1,0.4,0.2,0.9,0.4,1.3c0.2,0.7,0.4,1.3-0.6,1.5c-0.5,0.1-0.6,0.5-0.4,0.9c0.1,0.3,0.2,0.6,0.3,1
		c3.1,8.7,7.3,16.7,12.9,24C437.7,195.5,462,207.4,492,208.2z"/>
	<path class="st2" d="M459.1,362.4c1,1.9,2.4,3.6,3.4,5.5c2.9,5.1,4.8,10.5,5.5,16.4c1.2,9.2-0.3,17.9-4.7,26.1
		c-5.9,10.9-14.8,18.2-26.7,21.7c-4.6,1.4-9.4,2-14.2,1.7c-9.7-0.6-18.4-3.8-25.9-10.1c-5.9-4.9-10.1-10.9-12.9-17.9
		c-0.2-0.5-0.4-0.9-0.7-1.4c-0.3-1.5-0.6-3-1.3-4.3c-0.1-2.4-0.6-4.7-0.8-7.1c-0.4-4.7,0.1-9.2,1.2-13.7c2-8.1,6-15.1,12-20.9
		c6.9-6.7,15.2-10.8,24.8-12c13.7-1.6,25.8,2.2,35.9,11.7c0.4,0.3,0.7,0.8,1.2,0.9C456.8,360.3,457.8,361.5,459.1,362.4z
		 M422.1,374.5c1.2,1.9,2.2,3.7,3.3,5.6c0.8,1.3,0.8,1.3-0.5,2.1c-4.6,2.8-9.3,5.6-13.9,8.4c-5.2,3.1-10.3,6.2-15.5,9.3
		c-1.2,0.7-1.2,0.8-0.5,2c1.7,2.9,3.5,5.8,5.2,8.6c0.8,1.3,0.8,1.3,2,0.5c4.7-2.8,9.5-5.7,14.2-8.5c5.1-3.1,10.1-6.1,15.2-9.1
		c1.2-0.7,1.3-0.7,2,0.4c0.8,1.2,1.5,2.4,2.2,3.7c0.4,0.6,0.7,1.4,1.4,2c4.7-8.5,9.4-16.9,14.1-25.4
		C449.9,373.7,424,374.1,422.1,374.5z"/>
	<path class="st3" d="M348.2,320.7c-0.8,0-1.2,0.6-1.7,1.1c-6.6,6.7-14.6,10.5-23.9,11.8c-2.7,0.4-5.4,0.6-8.2,0.5
		c-1.4-0.6-2.8-0.5-4.3-0.7c-4-0.8-7.8-2-11.5-3.9c-7.9-4.1-13.9-10-18.1-17.8c-3.8-7-5.2-14.5-4.7-22.4c0.4-5.7,2-11.1,4.8-16.2
		c4.3-8.1,10.7-14.1,18.9-18c4.5-2.2,9.3-3.3,14.3-3.8c6.8-0.6,13.3,0.6,19.5,3.1c4.8,2,9.1,4.9,12.8,8.6c5,4.9,8.5,10.7,10.6,17.3
		c1.9,6.2,2.4,12.5,1.3,18.9c-1,6.4-3.5,12.1-7.1,17.4c-0.3,0.4-0.5,0.8-0.5,1.2C349.8,318.8,349,319.7,348.2,320.7z M346.6,292.5
		c-2.2-1.6-30.2-17.7-31.5-18.1c-0.2,0.3-0.2,0.6-0.2,1c0,1,0,1.9,0,2.9c-0.1,2,0.3,4-0.3,5.9c-2,0.4-4,0.2-5.9,0.2
		c-6.4,0-12.9,0-19.3,0c-1.7,0-1.7,0-1.7,1.7c0,4.2,0,8.3-0.1,12.5c0,1.8-0.4,2,2,2c1.5,0,3,0,4.4,0c6.3,0,12.5,0,18.8,0
		c2,0,2,0,2,1.9c0,2.3,0,4.6,0,6.8c0,0.4-0.2,0.9,0.3,1.3C316.7,310.1,345.4,293.5,346.6,292.5z"/>
	<path class="st2" d="M627,219c0.1-0.8-0.2-1.5-0.3-2.2c-2.7-13.1,0.5-24.6,9.7-34.3c5.5-5.8,12.2-9.4,20-10.7
		c12.3-2.1,23.2,1.1,32.4,9.7c6.3,5.9,10,13.2,11.2,21.7c1.4,10.3-1.1,19.8-7.5,28.1c-4.6,5.9-10.4,10.2-17.5,12.5
		c-12.4,3.9-24,2.1-34.4-5.6c-4.6-3.4-8.3-7.8-10.8-13c-0.3-0.7-0.7-1.4-1.1-2.1C628,221.8,627.8,220.3,627,219z M655.6,216.5
		c1.4-1.1,2.3-2.4,3.3-3.4c0.8-0.8,0.8-0.9,1.7,0c2.6,2.4,5.2,4.8,7.8,7.2c1.5,1.4,2.9,2.7,4.4,4.1c0.5,0.4,0.8,0.5,1.3,0
		c1.8-2,3.6-3.9,5.4-5.9c0.3-0.4,0.4-0.7,0-1c-0.2-0.2-0.4-0.4-0.6-0.6c-3.7-3.4-7.4-6.8-11-10.2c-0.3-0.3-0.7-0.6-1-0.9
		c-0.4-0.4-0.4-0.8,0-1.2c0.7-0.7,1.4-1.5,2.1-2.3c0.4-0.5,1.1-0.8,1.1-1.7c-6.9-1.5-13.7-3.2-20.9-4.7
		C651.4,202.9,653.4,209.6,655.6,216.5z"/>
	<path class="st4" d="M629.3,364.9c2.4,1.8,4.7,3.5,6.8,5.7c7.9,8.1,11.5,17.9,10.6,29.1c-1.4,18.1-15.2,31.4-31.4,33.9
		c-21.3,3.2-40-11.8-42.6-31.6c-1.6-12.4,2.1-23,10.8-31.9c1.5-1.5,3.2-2.9,5-4.1c0.5-0.3,1-0.6,1.3-1c1.4-0.5,2.7-1.3,3.9-2.1
		c1.9-0.7,3.7-1.4,5.6-1.9c8.2-2.3,16.3-1.8,24.2,1.3c0.6,0.2,1.2,0.6,1.9,0.7C626.6,363.6,627.9,364.3,629.3,364.9z M616.8,404.7
		c-0.3-0.8-0.8-1.1-1.3-1.4c-0.8-0.7-1.7-1.4-2.5-2.1c-0.5-0.4-0.5-0.7-0.1-1.1c0.3-0.3,0.5-0.6,0.8-0.9c3.7-4.5,7.4-8.9,11.1-13.4
		c1.3-1.6,1.4-1.2-0.3-2.7c-1.5-1.2-3-2.5-4.5-3.7c-1.6-1.3-1.3-1.3-2.6,0.2c-3.3,3.9-6.5,7.9-9.8,11.8c-0.7,0.8-1.4,1.6-2.1,2.5
		c-0.4,0.5-0.8,0.5-1.3,0.1c-0.9-0.8-1.8-1.5-2.8-2.3c-0.3-0.3-0.6-0.7-1.3-0.6c-1.2,6.9-2.4,13.8-3.5,21
		C603.6,409.6,610.2,407.2,616.8,404.7z"/>
	<path class="st5" d="M663.8,259.5c20-0.2,37.3,16,37.3,37.4c0,20.6-16.9,37.3-37.6,37.2c-20-0.1-37.1-16.1-37.1-37.3
		C626.3,275.7,643.5,259.2,663.8,259.5z M685.9,296.9c-2-1.6-16.7-10-18-10.2c0,1.3,0,2.5,0,3.8c0,1.7,0,1.7-1.7,1.7s-3.4,0-5.1,0
		c-6.1,0-12.2,0-18.3-0.1c-1.4,0-1.4,0-1.4,1.4c0,2,0,4.1,0,6.1c0,1.7,0,1.7,1.7,1.7c0.1,0,0.2,0,0.3,0c7.5,0,14.9,0,22.4,0.1
		c2.5,0,2.2,0.1,2.2,2.3c0,1.1-0.1,2.2,0.2,3.5C674.1,303.7,679.9,300.3,685.9,296.9z"/>
	<path class="st4" d="M312.2,207.7c-6.3-0.2-12.2-1.8-17.5-5c-10.5-6.3-16.8-15.5-18.3-27.7c-1.5-11.9,2.1-22.2,10.4-30.7
		c6.1-6.3,13.6-9.9,22.3-10.8c12.4-1.3,22.9,2.6,31.5,11.5c6.4,6.7,9.7,14.9,10,24.2c0.3,9.1-2.3,17.2-7.9,24.3
		c-6,7.6-13.9,12.3-23.6,13.8c-0.8,0.1-1.7,0.3-2.5,0.4C315.1,207.7,313.7,207.7,312.2,207.7z M305.1,158.1c1.1,1.8,2.3,3.1,3.4,4.4
		c1.6,2,1.6,2-0.5,3.7c-6.1,4.9-12.2,9.9-18.3,14.8c-1.5,1.2-1.4,1-0.2,2.5c1.9,2.3,3.7,4.6,5.6,6.9c1.5,1.8,1.5,1.8,3.3,0.4
		c6.2-5,12.5-10.1,18.7-15.1c1.2-0.9,1.2-0.9,2.1,0.2c1.2,1.4,2.3,2.8,3.4,4.2c0.2,0.3,0.4,0.8,1,0.6c3.4-8.9,6.9-17.8,10.4-27.1
		C324.3,155.1,314.9,156.6,305.1,158.1z"/>
	<path class="st6" d="M651.3,139.3c0.2,12.5-10,24.1-24.1,24.1S603,151.8,603,139.1c0-12.2,9.7-24.1,24.2-24.1
		C641.9,115.1,651.6,127.3,651.3,139.3z M628.3,149.7c0.1-1.6,0.3-2.8,0.4-4.1c0.1-1.7,0.1-1.7,1.8-1.6c3.6,0.2,7.3,0.5,10.9,0.8
		c1.3,0.1,1.3,0.1,1.4-1.2c0.2-2.1,0.3-4.2,0.5-6.3c0.1-1.6,0.1-1.7-1.6-1.8c-2.1-0.1-4.2-0.3-6.3-0.4c-1.6-0.1-3.2-0.3-4.8-0.4
		c-0.8,0-1.1-0.4-1-1.2c0.1-0.5,0.1-0.9,0.1-1.4c0-1,0-2.1,0-3.3c-6.2,3-12.3,5.9-18.7,9C616.8,141.9,622.4,145.7,628.3,149.7z"/>
	<path class="st7" d="M502.2,417.1c0.7-0.1,0.8-0.7,1.1-1.2c3.9-7.5,10.2-11.9,18.5-13c6.9-0.9,13.2,0.9,18.6,5.4
		c4.6,3.9,7.5,8.8,8.4,14.8c1,6.8-0.5,13-4.7,18.5c-3.9,5-8.9,8.1-15.2,9c-7.9,1.2-14.9-0.8-20.8-6.4c-3.9-3.7-6.2-8.3-7.1-13.5
		c-0.6-3.7-0.4-7.4,0.7-11c0.2-0.5,0.7-1.1,0-1.7C501.9,417.7,502.1,417.4,502.2,417.1z M530.1,437.6c2.5-7.1,4.8-13.9,7.2-20.7
		c0.1-0.2,0.1-0.4,0.1-0.7c0,0,0-0.1-0.1-0.1c0,0-0.1-0.1-0.3-0.2c-7.2,1.4-14.4,2.8-21.7,4.2c0,0.6,0.4,0.9,0.6,1.2
		c0.8,1,1.7,2,2.6,3c0.6,0.6,0.5,1.1-0.1,1.5c-0.3,0.2-0.6,0.5-0.9,0.8c-2.6,2.2-5.2,4.5-7.8,6.7c-0.7,0.6-0.7,1-0.1,1.7
		c1.7,1.9,3.4,4,5.1,5.9c0.8,0.9,0.8,0.9,1.7,0.1c2.7-2.3,5.4-4.7,8.1-7c1.2-1.1,1.2-1.1,2.4,0.2
		C527.9,435.2,528.9,436.3,530.1,437.6z"/>
	<path class="st4" d="M542.4,277.1c-2.1,0.6-4.1,1.3-6.3,1.6c-4.9,0.7-9.5-0.2-13.9-2.2c-0.7-0.3-1.3-0.9-2.2-0.9
		c-0.6-0.4-1.2-0.7-1.7-1.2c-0.2-0.3-0.4-0.5-0.8-0.5l0,0c0-0.2-0.2-0.3-0.4-0.3l0,0c-0.1-0.5-0.5-0.7-0.8-1.1
		c-3.1-2.9-5.3-6.4-6.6-10.5c-0.1-0.3-0.3-0.6-0.4-0.9c-0.1-1.5-0.4-2.9-0.7-4.3c0.1-1.8,0-3.6,0.3-5.5
		c1.5-10.8,10.3-19.3,21.2-20.6c12.5-1.5,24.6,7.2,26.6,20c1.5,9.3-1.6,17-8.9,23.1c-0.5,0.4-1.1,0.6-1.4,1.3
		C545,275.5,543.7,276.4,542.4,277.1z M540.3,245.6c-0.6,0.1-0.9,0.4-1.2,0.6c-1,0.7-2,1.5-3,2.3c-1,0.7-1,0.7-1.7-0.3
		c-0.2-0.3-0.5-0.6-0.7-1c-2-2.7-4.1-5.3-6-8c-0.5-0.7-0.9-0.8-1.6-0.2c-2.1,1.6-4.2,3.2-6.3,4.7c-0.9,0.7-0.9,0.8-0.2,1.7
		c2,2.7,4.1,5.4,6.2,8.2c1.5,2,1.5,1.5-0.4,3c-1,0.8-2.1,1.6-3.4,2.6c7.2,3,14.1,5.9,21.3,9C542.1,260.4,541.2,253,540.3,245.6z"/>
	<path class="st6" d="M306.7,403.7c3.4,1.1,6.5,2.7,9.2,5.1c4.6,4.2,7.3,9.3,8,15.6c0.7,6.4-0.9,12.2-4.9,17.3
		c-4.2,5.5-9.9,8.6-16.8,9.3c-7.6,0.7-14.1-1.6-19.4-6.9c-5.5-5.6-7.9-12.4-6.9-20.3c1.4-10.3,8.8-18.3,18.9-20.5
		c2.5-0.6,5.1-0.6,7.6-0.5C303.8,403,305.2,403.3,306.7,403.7z M299.9,438.5c6.8-3.9,13.3-7.6,19.8-11.4c-2-1.6-18.5-11-19.7-11.3
		c-0.2,1.5-0.1,3.1-0.1,4.6c0,1.4,0,1.4-1.4,1.5c-2.3,0-4.7,0-7,0c-3.3,0-6.6,0-9.9,0c-1.7,0-1.7,0-1.8,1.8c0,1.9,0,3.8,0,5.6
		c0,3.2-0.4,2.7,2.7,2.8c5.3,0,10.6,0,15.9,0c1.5,0,1.5,0,1.5,1.5C299.9,435,299.9,436.5,299.9,438.5z"/>
	<path class="st7" d="M677.9,144.1c-1.3-1.4-2.9-2.4-4-3.9c-3.9-5.4-3.7-12.8,0.4-18.1c5-6.3,15.1-7.6,21.7-1.4
		c5.5,5.2,5.6,13.1,2.5,18.2c-3.4,5.6-9.4,8.2-15.8,6.9c-0.2,0-0.5-0.1-0.7-0.1C680.6,145.2,679.3,144.4,677.9,144.1z M693.5,124.7
		c-4.7,0.9-9.1,1.7-13.5,2.6c0.2,0.9,0.9,1.4,1.3,1.9c0.9,1.1,0.9,1.1-0.2,2.1c-1.5,1.3-2.9,2.5-4.4,3.8c-0.6,0.5-0.6,0.8-0.1,1.4
		c1,1.1,1.9,2.1,2.8,3.2c0.5,0.6,0.8,0.6,1.4,0.1c1-0.9,2-1.7,3-2.6c0.9-0.7,1.6-1.5,2.5-2.1c1.1,0.7,1.5,2,2.8,2.5
		C690.5,133.4,691.9,129.2,693.5,124.7z"/>
	<path class="st8" d="M314.6,234.7c0.1,0-0.1,0-0.2,0c-1.4,0-1.6-0.2-1.5-1.6c0-0.6,0.3-1,0.9-1c0.7,0,1.5-0.1,2.2-0.1
		c1.1,0,1.2,0.1,1.2,1.2c0.1,1.2-0.1,1.3-1.3,1.4C315.5,234.6,315.2,234.7,314.6,234.7z"/>
	<path class="st8" d="M518.4,274.3c0.5,0.6,1.1,0.8,1.7,1.2c0.4,1-0.4,1.5-0.9,2.2c-0.2,0.3-0.5,0.2-0.8,0c-0.4-0.3-0.8-0.6-1.2-0.9
		c-1.9-1.4-1.9-1.9,0.1-3.4l0,0c0,0.2,0.2,0.3,0.4,0.3l0,0C517.7,274.2,518,274.3,518.4,274.3z"/>
	<path class="st8" d="M495.2,262.8c0.1,0.9-0.6,0.8-1.2,0.9c-0.5,0.1-1.2,0.3-1.4-0.5c-0.2-0.7-0.3-1.4-0.4-2.2
		c-0.2-1.4-0.1-1.4,1.2-1.6c0.8-0.1,1.2,0.1,1.3,0.9c0.1,0.7,0.2,1.3,0.3,2C495.1,262.5,495.2,262.6,495.2,262.8z"/>
	<path class="st8" d="M488.6,264.6c-0.5,0.1-0.8-0.1-0.9-0.7c-0.1-0.8-0.3-1.7-0.4-2.5c-0.2-0.9,0.4-1.1,1.1-1.2
		c0.6-0.1,1.3-0.3,1.5,0.6c0.1,0.6,0.2,1.2,0.3,1.8C490.4,264.3,490.2,264.6,488.6,264.6z"/>
	<path class="st8" d="M465.7,267.7c0.2,1-0.5,1-1.2,1.1c-0.6,0.1-1.3,0.2-1.4-0.7c-0.1-0.7-0.3-1.3-0.4-2c-0.2-1.3-0.1-1.4,1.1-1.6
		c1.1-0.2,1.2-0.2,1.5,1C465.5,266.3,465.6,267,465.7,267.7z"/>
	<path class="st8" d="M441.1,272c0.1,0.8-0.4,0.9-1,1s-1.3,0.3-1.5-0.6s-0.3-1.8-0.5-2.7c-0.2-0.8,0.5-0.9,1-1
		c0.6-0.1,1.3-0.4,1.5,0.5C440.8,270.2,441,271.1,441.1,272z"/>
	<path class="st8" d="M429.6,270.4c0.7-0.1,1.1,0,1.2,0.6c0.1,0.9,0.3,1.8,0.5,2.7c0.1,0.7-0.4,0.9-0.9,1c-0.6,0.1-1.3,0.5-1.6-0.4
		c-0.3-1-0.5-2-0.5-3C428.3,270.2,429.3,270.7,429.6,270.4z"/>
	<path class="st8" d="M554.2,289.8c0,0.3-0.2,0.5-0.5,0.6c-0.6,0.4-1.3,0.7-1.9,1.1c-1.2,0.6-1.2,0.5-1.8-0.6
		c-0.5-1-0.5-1.1,0.5-1.7c0.5-0.3,1.1-0.6,1.6-0.9C553.1,287.9,554.2,288.7,554.2,289.8z"/>
	<path class="st8" d="M314.9,227.1c0.2,0,0.5,0,0.7,0c1.3,0,1.9,0.9,1.4,2.1c-0.2,0.4-0.5,0.5-0.8,0.5c-0.7,0-1.4,0.1-2,0.1
		c-1.3,0-1.9-0.9-1.4-2.1c0.2-0.4,0.4-0.5,0.8-0.5C314,227.1,314.5,227.1,314.9,227.1L314.9,227.1z"/>
	<path class="st8" d="M585,346.9c0,0.3-0.2,0.4-0.4,0.5c-0.8,0.5-1.7,0.9-2.5,1.4c-0.9,0.5-1-0.3-1.3-0.8s-0.7-1,0.1-1.4
		c0.7-0.4,1.4-0.8,2.1-1.1C583.9,344.9,585.1,345.8,585,346.9z"/>
	<path class="st8" d="M367.4,284.4c0.2,1.3-0.5,1.3-1.1,1.4s-1.3,0.2-1.4-0.7c-0.1-0.7-0.2-1.3-0.3-2c-0.2-1.2,0.8-2,1.9-1.6
		c0.3,0.1,0.4,0.3,0.5,0.6C367.1,283,367.3,283.9,367.4,284.4z"/>
	<path class="st8" d="M478.3,334.9c-0.4-0.3-0.8-0.5-1.2-0.8c-0.4-0.3-0.7-0.5-1.1-0.8c-1.1-0.8-1.1-0.9-0.3-2
		c0.5-0.6,0.9-0.8,1.5-0.3s1.3,0.9,1.9,1.4c0.3,0.2,0.7,0.5,0.4,1C479.2,333.9,478.9,334.6,478.3,334.9z"/>
	<path class="st8" d="M564,245.4c0,0.9-0.8,0.9-1.3,1.1c-0.5,0.2-1,0.2-1.2-0.4c-0.3-0.7-0.5-1.5-0.8-2.2c-0.3-0.8-0.1-1.2,0.7-1.5
		c1.3-0.4,1.3-0.4,1.8,0.8C563.5,243.9,563.8,244.7,564,245.4z"/>
	<path class="st8" d="M482.6,329c-0.2,0.6-0.6,1.2-1.1,1.6c-0.4,0.3-0.7-0.1-1-0.3c-0.5-0.3-1-0.7-1.5-1.1c-1.1-0.8-1.1-0.9-0.3-2
		c0.4-0.6,0.9-0.8,1.5-0.3s1.3,0.9,1.9,1.4C482.3,328.5,482.5,328.7,482.6,329z"/>
	<path class="st8" d="M348.2,320.7c0.8-1,1.6-2,2.4-2.9c0.3,0,0.5,0.1,0.8,0.2c1.5,1,1.5,1.1,0.4,2.5c-0.1,0.1-0.2,0.3-0.3,0.4
		C350,322.8,349.7,322.7,348.2,320.7z"/>
	<path class="st8" d="M505,261c0.1,0.8-0.5,0.9-1,1c-0.6,0.1-1.3,0.4-1.5-0.5c-0.1-0.7-0.3-1.3-0.4-2c-0.2-1.4,0.4-2,1.8-1.8
		c0.4,0.1,0.6,0.3,0.7,0.7C504.7,259.2,504.9,260.1,505,261z"/>
	<path class="st8" d="M574.5,335.8c-0.7-0.2-0.8-0.9-1-1.4c-0.2-0.4-0.1-0.8,0.3-1c0.6-0.3,1.2-0.7,1.8-1c1.3-0.7,1.9-0.4,2.3,1
		c0.1,0.4,0,0.7-0.3,0.9c-0.9,0.5-1.8,1-2.7,1.4C574.7,335.7,574.6,335.8,574.5,335.8z"/>
	<path class="st8" d="M494.1,312.7c-0.1,0.7-0.6,1.1-1,1.6s-0.8,0.1-1.2-0.2c-0.5-0.3-0.9-0.6-1.4-1c-1.2-0.8-1.1-1.8,0-2.6
		c0.3-0.2,0.5-0.2,0.8,0c0.8,0.6,1.7,1.2,2.5,1.8C494,312.4,494,312.5,494.1,312.7z"/>
	<path class="st8" d="M312.3,339.2c-0.5-0.1-1-0.1-1.5-0.2c-1.2-0.2-1.3-0.3-1.1-1.6c0.1-0.9,0.4-1.2,1.3-1.1c0.7,0.1,1.4,0.1,2,0.2
		c1.1,0.2,1.1,0.3,1,1.5c-0.1,0.9-0.4,1.2-1.3,1C312.6,339.2,312.5,339.2,312.3,339.2C312.3,339.1,312.3,339.2,312.3,339.2z"/>
	<path class="st8" d="M579.1,336.3c0.6,0.3,0.8,1,1,1.6c0.2,0.5-0.2,0.7-0.5,0.9c-0.6,0.3-1.2,0.7-1.8,1c-0.4,0.2-0.9,0.7-1.4,0.3
		c-0.4-0.4-0.7-1-0.8-1.6c0-0.2,0.1-0.4,0.3-0.5c0.9-0.5,1.8-1,2.7-1.4C578.8,336.3,578.9,336.3,579.1,336.3z"/>
	<path class="st8" d="M374.1,336.7c0.6,0.2,1.1,0.7,1.6,1.2c0.3,0.4,0,0.7-0.3,1c-0.4,0.5-0.8,1.1-1.3,1.6c-0.7,0.8-2.1,0.5-2.5-0.5
		c-0.1-0.1-0.1-0.4,0-0.5c0.7-0.9,1.4-1.8,2.1-2.6C373.8,336.7,374,336.7,374.1,336.7z"/>
	<path class="st8" d="M482.3,262.2c-0.1-0.8,0.4-0.9,1-1s1.3-0.4,1.5,0.5c0.1,0.7,0.3,1.3,0.4,2c0.2,1.4-0.4,2-1.8,1.8
		c-0.4-0.1-0.6-0.3-0.7-0.7C482.6,264,482.5,263.1,482.3,262.2z"/>
	<path class="st8" d="M455.9,269.6c0.1,0.9-0.6,0.9-1.1,0.9c-0.5,0.1-1.2,0.4-1.4-0.5c-0.2-0.7-0.3-1.4-0.4-2.2
		c-0.2-1.3,0.6-2,1.9-1.7c0.3,0.1,0.5,0.3,0.5,0.6c0.1,0.4,0.2,0.8,0.2,1.2C455.7,268.4,455.8,269,455.9,269.6z"/>
	<path class="st8" d="M449.6,267c0.6-0.1,0.8,0.2,0.9,0.7c0.1,0.7,0.3,1.4,0.4,2.2c0.2,1.2,0.1,1.3-1,1.5s-1.3,0.1-1.5-1
		c-0.1-0.5-0.2-1-0.3-1.5C447.8,267.4,448.1,267,449.6,267z"/>
	<path class="st8" d="M433.1,270.3c-0.1-0.5,0.5-0.6,1.1-0.7s1.3-0.4,1.5,0.5c0.2,0.7,0.3,1.4,0.4,2.2c0.2,1.3,0,1.4-1.3,1.6
		c-0.7,0.1-1.1,0-1.2-0.8c-0.1-0.6-0.2-1.2-0.3-1.8C433.3,271.1,433.2,270.9,433.1,270.3z"/>
	<path class="st8" d="M416.6,276.2c0.1,1-0.6,1-1.2,1.1s-1.3,0.3-1.4-0.7c-0.1-0.7-0.2-1.3-0.3-2c-0.2-1.3-0.1-1.4,1.2-1.6
		c0.7-0.1,1.1,0,1.2,0.8C416.2,274.6,416.4,275.4,416.6,276.2z"/>
	<path class="st8" d="M511.5,288.3c-0.2,0.7-0.6,1.2-1.2,1.7c-0.4,0.3-0.7-0.1-1.1-0.3c-0.5-0.3-0.9-0.6-1.4-1
		c-1.2-0.9-1.2-1.5-0.1-2.5c0.3-0.3,0.6-0.3,0.9-0.1c0.8,0.6,1.7,1.2,2.5,1.8C511.4,288,511.4,288.2,511.5,288.3z"/>
	<path class="st8" d="M548.4,287.6c-0.6-0.3-0.7-1-1.1-1.5c-0.2-0.4-0.2-0.8,0.3-1c0.8-0.5,1.7-0.9,2.5-1.4c0.4-0.2,0.7-0.1,1,0.3
		c0.9,1.2,0.9,1.6-0.4,2.3c-0.5,0.3-1.1,0.6-1.7,0.9C548.9,287.4,548.7,287.5,548.4,287.6z"/>
	<path class="st8" d="M361.1,282.3c0.5-0.1,0.9,0.1,1,0.7c0.1,0.8,0.3,1.7,0.4,2.5c0.2,1.1-0.6,1-1.2,1.2c-0.7,0.2-1.2,0-1.3-0.8
		c-0.1-0.6-0.2-1.2-0.3-1.8C359.4,282.6,359.6,282.4,361.1,282.3z"/>
	<path class="st8" d="M372.3,283.9c0.2,1-0.6,0.9-1.2,1.1c-0.7,0.2-1.3,0.2-1.4-0.7c-0.1-0.7-0.3-1.3-0.4-2c-0.2-1.3,0-1.4,1.3-1.6
		c0.8-0.1,1.2,0.1,1.3,0.9C372.1,282.3,372.2,283.1,372.3,283.9z"/>
	<path class="st8" d="M400.4,275.5c0.5-0.1,0.8,0.1,0.9,0.7c0.1,0.7,0.3,1.4,0.4,2.2c0.2,1.2,0.1,1.3-1,1.5s-1.2,0.1-1.5-1
		c-0.1-0.5-0.2-1-0.3-1.5C398.7,275.8,398.9,275.5,400.4,275.5z"/>
	<path class="st8" d="M377.3,283.1c0.1,0.8-0.5,1-1,1c-0.6,0-1.3,0.5-1.5-0.5c-0.1-0.7-0.2-1.5-0.4-2.2c-0.3-1.4,0.1-1.4,1.3-1.6
		c0.7-0.1,1.1,0,1.2,0.8C376.9,281.4,377.1,282.2,377.3,283.1z"/>
	<path class="st8" d="M390.7,277.2c0.6-0.1,0.8,0.2,0.9,0.7c0.1,0.7,0.2,1.3,0.3,2c0.2,1.2-0.7,2-1.9,1.7c-0.4-0.1-0.5-0.4-0.6-0.8
		c-0.1-0.6-0.2-1.2-0.3-1.8C388.9,277.5,389.1,277.2,390.7,277.2z"/>
	<path class="st8" d="M379.1,280c-0.1-0.8,0.5-0.9,1.1-1s1.3-0.4,1.5,0.5s0.3,1.8,0.5,2.7c0.1,0.9-0.6,0.9-1.2,1.1
		c-0.6,0.1-1.2,0.2-1.3-0.6C379.4,281.8,379.3,280.9,379.1,280z"/>
	<path class="st8" d="M326.6,420.4c0,0.4,0,0.6-0.2,0.7c-0.9,0.8-2.1,0.5-2.5-0.6c-0.2-0.6-0.3-1.2-0.5-1.8
		c-0.4-0.9,0.1-1.2,0.9-1.4c1.2-0.3,1.3-0.3,1.6,0.7C326.2,418.9,326.4,419.7,326.6,420.4z"/>
	<path class="st8" d="M677.7,147.9c0.9,0.3,2,0.5,3,0.9c0.8,0.3,0.3,1,0.2,1.5s-0.2,1.1-1,0.9c-0.9-0.2-1.9-0.5-2.8-0.8
		c-0.7-0.2-0.6-0.8-0.4-1.3C676.9,148.7,676.8,148,677.7,147.9z"/>
	<path class="st8" d="M498,413.7c-0.4,1-0.8,2.1-1.4,3.1c-0.3,0.5-0.8,0.2-1.2,0c-1.3-0.5-1.3-0.5-0.8-1.8c0.2-0.5,0.4-0.9,0.6-1.4
		c0.2-0.4,0.2-1.1,0.9-1.1c0.6,0,1.2,0.3,1.7,0.7C497.9,413.4,498,413.5,498,413.7z"/>
	<path class="st8" d="M348.9,414.5c-0.6,0-0.8-0.3-0.9-0.6c-0.2-0.7-0.5-1.4-0.7-2.1c-0.1-0.4-0.4-0.9,0.1-1.2
		c0.5-0.4,1.3-0.7,1.7-0.5c1,0.6,0.8,1.9,1.2,2.9c0.1,0.3,0.3,0.8-0.1,1.1C349.8,414.3,349.2,414.4,348.9,414.5z"/>
	<path class="st8" d="M678.5,156c-0.8-0.2-1.8-0.5-2.8-0.8c-0.8-0.3-0.4-0.9-0.3-1.5c0.1-0.5,0.2-1.1,0.9-1c1,0.2,2,0.5,3,0.8
		c0.7,0.2,0.4,0.8,0.3,1.3C679.5,155.4,679.5,156.1,678.5,156z"/>
	<path class="st8" d="M475,404c-0.4,1.1-0.7,2.3-1.4,3.2c-0.5,0.6-1.1-0.1-1.7-0.2c-0.5-0.2-0.6-0.6-0.4-1.1c0.3-0.8,0.7-1.7,1-2.5
		c0.2-0.5,0.6-0.7,1.1-0.4C474.1,403.3,474.8,403.2,475,404z"/>
	<path class="st8" d="M674,159.1c0.2-1.5,0.5-1.7,2-1.3c0.5,0.1,1,0.2,1.5,0.4c1.1,0.4,1.1,0.5,0.8,1.6s-0.4,1.2-1.5,0.9
		c-0.7-0.2-1.4-0.4-2.1-0.6C674.1,160,673.9,159.7,674,159.1z"/>
	<path class="st8" d="M308.5,378.9c-0.8-0.1-1.4-0.1-2-0.2c-1.3-0.2-1.4-0.3-1.2-1.6c0.1-0.8,0.3-1.1,1.2-1c0.8,0.1,1.6,0.2,2.4,0.3
		c0.4,0.1,0.8,0.2,0.8,0.7c0,0.6,0.1,1.3-0.4,1.7C309,378.9,308.7,378.8,308.5,378.9z"/>
	<path class="st8" d="M672.7,167.3c0.7,0.2,1.7,0.4,2.7,0.7c0.8,0.3,0.5,0.9,0.3,1.4c-0.1,0.5-0.2,1.2-1,1c-0.7-0.2-1.4-0.3-2.1-0.5
		c-1.2-0.3-1.5-1.6-0.7-2.5C672,167.2,672.2,167.2,672.7,167.3z"/>
	<path class="st8" d="M645.1,170.3c0.7,0,0.8,0.5,1,0.9c0.6,1.1,0.6,1.2-0.5,1.8c-0.5,0.3-1.1,0.6-1.7,0.9c-1,0.5-1.1,0.4-1.7-0.6
		c-0.5-1-0.5-1.1,0.5-1.7C643.6,171.1,644.4,170.7,645.1,170.3z"/>
	<path class="st8" d="M309.9,364c-0.6-0.1-1.1-0.1-1.7-0.2c-1.3-0.2-1.7-1.1-1.1-2.3c0.2-0.4,0.5-0.4,0.9-0.4c0.7,0.1,1.4,0.1,2,0.2
		c1.3,0.2,1.4,0.3,1.2,1.6C311.1,364,311,364.1,309.9,364z"/>
	<path class="st8" d="M632.4,358.9c-0.1,1.3-1.1,1.9-2.3,1.2c-0.4-0.2-0.8-0.4-1.2-0.6c-1.2-0.7-1.3-1.8-0.2-2.6
		c0.2-0.1,0.4-0.2,0.6-0.1c0.9,0.5,1.9,1,2.8,1.5C632.4,358.4,632.4,358.6,632.4,358.9z"/>
	<path class="st8" d="M461,359.2c-0.2-0.1-0.4-0.2-0.6-0.3c-0.7-0.5-1.4-1-2.1-1.5c-0.8-0.5-0.5-1-0.1-1.5s0.7-1.3,1.6-0.6
		c0.6,0.5,1.3,0.9,1.9,1.4c0.3,0.2,0.8,0.4,0.5,0.9C462,358.2,461.6,358.8,461,359.2z"/>
	<path class="st8" d="M623.4,220.4c0.5,0,0.6,0.3,0.7,0.6c0.2,0.6,0.5,1.3,0.7,1.9c0.4,1.2-0.3,2.1-1.6,2c-0.4,0-0.6-0.3-0.7-0.6
		c-0.2-0.6-0.5-1.3-0.7-1.9C621.5,221.1,622.2,220.3,623.4,220.4z"/>
	<path class="st8" d="M641.9,341.3c-0.2,0.5-0.4,1.1-0.9,1.5s-0.9-0.1-1.4-0.3c-0.5-0.2-0.9-0.5-1.3-0.7c-1.1-0.6-1.2-1.6-0.2-2.5
		c0.2-0.2,0.5-0.2,0.8-0.1c0.9,0.5,1.8,0.9,2.7,1.4C641.8,340.8,641.9,341,641.9,341.3z"/>
	<path class="st8" d="M385.8,346.1c0.6,0.2,1,0.6,1.4,1.1s0,0.8-0.2,1.2c-0.3,0.5-0.7,0.9-1.1,1.3c-0.9,1.1-1.9,1-2.6-0.2
		c-0.1-0.2-0.2-0.4,0-0.6c0.7-0.9,1.4-1.7,2.1-2.6C385.5,346.2,385.6,346.1,385.8,346.1z"/>
	<path class="st8" d="M334.3,418.8c-0.3,0-0.5-0.2-0.6-0.5c-0.3-0.9-0.6-1.8-0.8-2.7c-0.3-0.9,0.5-1,1.1-1.2
		c0.5-0.2,1.1-0.4,1.4,0.4c0.2,0.6,0.4,1.3,0.6,1.9C336.3,418.1,335.7,418.9,334.3,418.8z"/>
	<path class="st8" d="M546.2,283.1c-0.7-0.1-0.8-0.8-1.1-1.2c-0.3-0.4-0.3-0.9,0.2-1.2c0.7-0.4,1.4-0.8,2.1-1.1
		c1-0.5,2.1,0.3,2.1,1.4c0,0.1,0,0.3-0.1,0.3C548.4,282.1,547.3,282.6,546.2,283.1z"/>
	<path class="st8" d="M582.6,342.4c0,0.4-0.1,0.5-0.4,0.6c-0.8,0.5-1.7,0.9-2.5,1.4c-0.9,0.4-1-0.3-1.3-0.8s-0.7-1,0.1-1.4
		c0.6-0.3,1.3-0.7,1.9-1c0.4-0.2,0.8-0.7,1.2-0.3C582.2,341.2,582.4,341.9,582.6,342.4z"/>
	<path class="st8" d="M313.5,342.6c0,1.4-0.3,1.7-1.7,1.5c-0.5-0.1-0.9-0.1-1.3-0.2c-1.3-0.2-1.7-1.1-1.1-2.2
		c0.2-0.4,0.5-0.4,0.8-0.4c0.8,0.1,1.7,0.2,2.5,0.3C313.3,341.7,313.6,342,313.5,342.6z"/>
	<path class="st8" d="M644.3,337c-0.1,1.3-1.1,1.8-2.3,1.2c-0.4-0.2-0.9-0.5-1.3-0.7c-1.1-0.6-1.1-0.7-0.5-1.8c0.6-1,0.6-1,1.7-0.5
		c0.7,0.3,1.3,0.7,1.9,1.1C644.1,336.4,644.4,336.6,644.3,337z"/>
	<path class="st8" d="M488.8,409.8c-0.4,1.1-0.7,2.3-1.4,3.2c-0.5,0.6-1.2-0.1-1.8-0.3c-0.5-0.2-0.5-0.6-0.3-1
		c0.3-0.6,0.5-1.2,0.8-1.9c0.6-1.3,1.3-1.5,2.4-0.6C488.6,409.4,488.7,409.6,488.8,409.8z"/>
	<path class="st8" d="M353.4,408.6c0.7-0.1,0.9,0.2,1.1,0.6c0.2,0.7,0.5,1.4,0.6,2.1c0.1,0.4,0.5,0.9,0,1.2
		c-0.5,0.3-1.1,0.5-1.8,0.5c-0.1,0-0.3-0.2-0.4-0.3c-0.4-1-0.9-2.1-0.9-3.3C352,408.6,353.1,409,353.4,408.6z"/>
	<path class="st8" d="M636.3,343.5c1,0.6,2.3,0.9,3.1,1.9c0.4,0.5-0.3,1.2-0.6,1.8c-0.3,0.5-0.7,0.2-1,0c-0.6-0.3-1.2-0.6-1.8-1
		c-0.4-0.2-1-0.3-0.9-0.9c0.1-0.7,0.4-1.3,0.9-1.8C636,343.6,636.1,343.6,636.3,343.5z"/>
	<path class="st8" d="M482.4,411.3c-1.2,0.1-2-0.9-1.6-2c0.2-0.5,0.4-0.9,0.6-1.4c0.6-1.3,1.2-1.5,2.4-0.6c0.3,0.2,0.4,0.5,0.3,0.9
		c-0.4,0.9-0.8,1.9-1.2,2.8C482.8,411.2,482.6,411.3,482.4,411.3z"/>
	<path class="st8" d="M310.8,349c-0.1,0-0.5,0-0.9-0.1c-1.3-0.2-1.5-0.4-1.3-1.8c0.1-0.7,0.5-0.9,1.2-0.8c0.6,0.1,1.2,0.1,1.9,0.2
		c1.3,0.2,1.7,1.2,1.1,2.3c-0.2,0.3-0.4,0.4-0.7,0.4C311.7,349.1,311.4,349.1,310.8,349z"/>
	<path class="st8" d="M368.1,331.9c-0.1,0.2-0.2,0.4-0.3,0.5c-0.5,0.6-0.9,1.2-1.4,1.7c-0.7,0.8-2.1,0.5-2.5-0.5
		c-0.1-0.3,0-0.6,0.2-0.8c0.4-0.5,0.8-1.1,1.3-1.6c0.9-1,1.9-0.9,2.6,0.3C368,331.7,368,331.8,368.1,331.9z"/>
	<path class="st8" d="M470.3,402.2c-0.4,1.1-0.7,2.3-1.4,3.1c-0.5,0.6-1.2-0.1-1.8-0.3c-0.5-0.2-0.5-0.6-0.3-1
		c0.3-0.7,0.6-1.5,0.9-2.2c0.2-0.3,0.2-0.9,0.7-0.8c0.7,0,1.3,0.3,1.8,0.8C470.3,401.8,470.3,402,470.3,402.2z"/>
	<path class="st8" d="M304.9,390.9c0.6,0.1,1.1,0.1,1.7,0.2c1.4,0.2,1.6,0.5,1.3,1.8c-0.1,0.6-0.4,0.9-1.1,0.8
		c-0.6-0.1-1.2-0.1-1.9-0.2c-1.4-0.2-1.8-0.9-1.2-2.2C304,390.8,304.4,390.9,304.9,390.9z"/>
	<path class="st8" d="M466.6,351c-0.2-0.1-0.4-0.2-0.6-0.3c-0.5-0.3-1-0.7-1.5-1.1c-1.2-0.8-1.1-1.8,0-2.6c0.3-0.2,0.5-0.2,0.8,0
		c0.8,0.5,1.6,1.1,2.3,1.7c0.4,0.3,0.5,0.6,0.2,1C467.6,350.2,467.4,350.9,466.6,351z"/>
	<path class="st8" d="M357.7,328.6c-0.6-0.2-1.1-0.7-1.5-1.2c-0.3-0.4,0.1-0.7,0.3-1c0.4-0.5,0.8-1,1.2-1.4c0.8-1,1-1,2-0.2
		c0.6,0.5,0.8,0.9,0.2,1.5c-0.5,0.6-1,1.2-1.5,1.8C358.3,328.4,358.1,328.6,357.7,328.6z"/>
	<path class="st8" d="M556.6,294.2c0,0.2-0.2,0.4-0.4,0.6c-0.6,0.3-1.2,0.7-1.8,1c-1.4,0.7-1.5,0.6-2.2-0.7c-0.3-0.7-0.2-1,0.4-1.4
		c0.6-0.3,1.1-0.6,1.6-0.9C555.4,292.3,556.5,292.9,556.6,294.2z"/>
	<path class="st8" d="M573.1,324.9c0,0.5-3.1,2.3-3.6,2c-0.5-0.4-0.8-1-0.9-1.6c-0.2-0.6,0.4-0.8,0.8-1c0.5-0.3,1.1-0.6,1.7-0.9
		c0.4-0.2,0.8-0.6,1.2-0.2C572.7,323.8,573,324.3,573.1,324.9z"/>
	<path class="st8" d="M354.9,321c0.6,0.2,1,0.6,1.4,1.1s-0.1,0.8-0.3,1.2c-0.5,0.6-1,1.2-1.5,1.8c-0.3,0.4-0.7,0.4-1.2,0.1
		c-1.3-0.9-1.3-1.1-0.4-2.4c0.4-0.5,0.8-1,1.2-1.4C354.3,321.2,354.5,321,354.9,321z"/>
	<path class="st8" d="M505.7,296.4c-0.2,0.7-0.6,1.3-1.1,1.7c-0.5,0.4-0.8-0.1-1.2-0.3c-0.5-0.3-0.9-0.6-1.4-1
		c-1-0.8-0.9-1.8,0.1-2.5c0.3-0.2,0.5-0.1,0.8,0c0.8,0.6,1.7,1.2,2.5,1.8C505.6,296.1,505.6,296.3,505.7,296.4z"/>
	<path class="st8" d="M633.8,347.9c0.2,0.1,0.4,0.2,0.6,0.3c0.6,0.3,1.2,0.6,1.8,1c1.1,0.6,1.1,0.9,0.4,2c-0.4,0.6-0.8,0.8-1.4,0.4
		c-0.7-0.4-1.5-0.8-2.2-1.2c-0.4-0.2-0.6-0.5-0.3-1C633,348.8,633.1,348.2,633.8,347.9z"/>
	<path class="st8" d="M557.9,305.1c-0.6-0.3-0.7-0.9-1-1.5c-0.3-0.4,0-0.8,0.4-1c0.8-0.4,1.6-0.9,2.4-1.3c0.7-0.4,1,0.2,1.3,0.7
		c0.2,0.5,0.8,1,0,1.5c-0.9,0.5-1.8,1-2.7,1.5C558.1,305,558,305,557.9,305.1z"/>
	<path class="st8" d="M496.8,302.2c0.2,0.1,0.4,0.2,0.5,0.3c0.6,0.4,1.1,0.8,1.7,1.2c1,0.8,1,1.8-0.1,2.5c-0.3,0.2-0.6,0.1-0.9-0.1
		c-0.6-0.4-1.1-0.8-1.7-1.2c-1-0.8-0.9-2,0.2-2.6C496.6,302.3,496.7,302.2,496.8,302.2z"/>
	<path class="st8" d="M562.3,305.6c0.8,0,0.9,0.7,1.1,1.1c0.2,0.4,0.5,0.9-0.1,1.2c-0.9,0.5-1.8,1-2.7,1.5c-0.3,0.2-0.6,0.1-0.9-0.2
		c-1-1.2-0.9-1.7,0.4-2.5C560.9,306.3,561.6,305.9,562.3,305.6z"/>
	<path class="st8" d="M491.2,316.8c-0.1,1.2-1.3,1.9-2.2,1.3c-0.5-0.3-0.9-0.6-1.4-1c-0.4-0.3-1-0.4-0.9-1.1
		c0.2-0.6,0.6-1.1,1.1-1.5c0.1-0.1,0.4-0.1,0.5,0c0.9,0.6,1.8,1.3,2.7,2C491.1,316.5,491.2,316.7,491.2,316.8z"/>
	<path class="st8" d="M395.2,354c-0.1,0.2-0.2,0.4-0.3,0.5c-0.4,0.5-0.8,1-1.2,1.5c-0.8,1-2,0.9-2.6-0.3c-0.2-0.3-0.1-0.5,0.1-0.8
		c0.4-0.6,0.9-1.2,1.4-1.7c0.8-1,2.1-0.8,2.6,0.4C395.1,353.7,395.1,353.8,395.2,354z"/>
	<path class="st8" d="M309.3,351.2c0.6,0.1,1.1,0.1,1.7,0.2c1.5,0.2,1.6,0.4,1.3,1.8c-0.1,0.6-0.4,0.9-1,0.8c-0.7-0.1-1.3-0.2-2-0.2
		c-1.3-0.2-1.3-0.3-1.2-1.6C308.1,351.4,308.5,351.1,309.3,351.2z"/>
	<path class="st8" d="M587.3,351.2c0,0.3-0.1,0.5-0.4,0.6c-0.6,0.3-1.3,0.7-1.9,1c-0.4,0.2-0.9,0.7-1.4,0.3c-0.4-0.4-0.7-1-0.8-1.6
		c-0.1-0.3,0.2-0.5,0.5-0.6c0.6-0.3,1.2-0.7,1.8-1C586.2,349.3,587.2,349.9,587.3,351.2z"/>
	<path class="st8" d="M462.1,351c0.2,0.1,0.4,0.2,0.6,0.3c0.6,0.4,1.2,0.8,1.8,1.3c0.9,0.7,0.6,2.1-0.4,2.5c-0.3,0.1-0.5,0-0.8-0.2
		c-0.6-0.4-1.2-0.8-1.8-1.3c-1-0.8-1-0.9-0.3-1.9C461.4,351.4,461.6,351,462.1,351z"/>
	<path class="st8" d="M638.4,165.3c-0.5-0.2-0.7-0.8-0.9-1.4c-0.2-0.4-0.2-0.8,0.3-1c0.8-0.5,1.7-0.9,2.6-1.3c0.4-0.2,0.8-0.1,1,0.4
		s0.8,1,0.5,1.7C641.6,163.9,638.9,165.3,638.4,165.3z"/>
	<path class="st8" d="M677.2,163.9c0,1.4-0.5,1.9-1.8,1.6c-0.5-0.1-1-0.2-1.5-0.4c-1.2-0.4-1.5-1.4-0.8-2.4c0.2-0.3,0.5-0.3,0.7-0.3
		c0.9,0.2,1.9,0.5,2.8,0.7C677,163.3,677.2,163.5,677.2,163.9z"/>
	<path class="st8" d="M475.5,265.7c0.2,1.3-0.6,1.3-1.3,1.4c-0.6,0.2-1.1,0.1-1.2-0.7c-0.1-0.8-0.3-1.7-0.4-2.5
		c-0.1-0.6,0.2-0.9,0.8-1c1.4-0.3,1.6-0.2,1.8,1.1C475.3,264.7,475.4,265.3,475.5,265.7z"/>
	<path class="st8" d="M568.7,243.6c0.1,0.9-0.6,0.9-1.1,1.1c-0.5,0.2-1,0.4-1.3-0.2c-0.4-0.9-0.7-1.8-1-2.7
		c-0.3-0.7,0.2-0.9,0.7-1.1c0.5-0.1,1.2-0.7,1.6,0.1C568.1,241.8,568.4,242.8,568.7,243.6z"/>
	<path class="st8" d="M571.7,243.3c-0.4,0.1-0.6-0.2-0.8-0.5c-0.3-0.7-0.5-1.4-0.8-2.1c-0.4-1.2-0.3-1.4,1-1.8
		c0.8-0.3,1.2,0,1.4,0.7c0.2,0.5,0.4,1.1,0.6,1.6C573.6,242.5,573.1,243.2,571.7,243.3z"/>
	<path class="st8" d="M444.5,272.3c-0.6,0.1-1-0.1-1.1-0.7c-0.1-0.7-0.3-1.3-0.3-2c-0.2-1.2,0.7-2,1.9-1.7c0.3,0.1,0.5,0.3,0.5,0.6
		c0.1,0.7,0.3,1.3,0.4,2C446.2,271.9,446,272.1,444.5,272.3z"/>
	<path class="st8" d="M426.4,274.6c0.1,0.8-0.4,0.9-1,1s-1.3,0.4-1.5-0.5c-0.1-0.7-0.2-1.3-0.4-2c-0.3-1.5-0.1-1.5,1.4-1.8
		c0.5-0.1,0.9,0.1,1,0.6C426.1,272.8,426.2,273.7,426.4,274.6z"/>
	<path class="st8" d="M614,223.7c0.4-0.1,0.6,0.2,0.7,0.6c0.3,0.9,0.6,1.7,0.9,2.6c0.3,0.8-0.3,1-0.9,1.1c-0.6,0.2-1.2,0.6-1.6-0.3
		c-0.2-0.6-0.5-1.3-0.7-1.9C612.1,224.5,612.6,223.8,614,223.7z"/>
	<path class="st8" d="M410.2,273.8c0.5-0.1,0.8,0.1,0.9,0.7c0.2,0.8,0.3,1.7,0.4,2.5c0.2,0.9-0.4,1-1.1,1.1
		c-0.6,0.1-1.3,0.3-1.5-0.6c-0.1-0.7-0.3-1.3-0.4-2C408.5,274.2,408.8,273.9,410.2,273.8z"/>
	<path class="st8" d="M611,229c-0.2,0.7-0.9,0.6-1.4,0.9c-0.5,0.2-0.9,0.1-1.1-0.5c-0.3-0.9-0.6-1.7-0.9-2.6c-0.2-0.5,0-0.9,0.5-1
		c0.6-0.1,1.1-0.7,1.7-0.1C610.1,225.9,611,228.6,611,229z"/>
	<path class="st8" d="M581.1,235.4c0.4,0,0.6,0.2,0.8,0.6c0.3,0.8,0.6,1.6,0.9,2.4c0.4,1-0.4,1.1-1,1.4c-0.7,0.3-1.2,0.2-1.5-0.6
		c-0.2-0.6-0.4-1.2-0.6-1.8C579.2,236.2,579.8,235.4,581.1,235.4z"/>
	<path class="st8" d="M596.9,233.7c-0.1,1-0.9,0.9-1.4,1.2c-0.5,0.2-0.9,0.1-1.1-0.4c-0.2-0.7-0.5-1.4-0.7-2.1
		c-0.4-1.2-0.3-1.4,1-1.8c0.8-0.3,1.2-0.1,1.4,0.7C596.3,232.1,596.6,232.9,596.9,233.7z"/>
	<path class="st8" d="M599.8,228.7c0.4-0.1,0.6,0.1,0.8,0.5c0.2,0.7,0.5,1.4,0.7,2.1c0.4,1.2,0.3,1.4-1,1.8c-0.8,0.3-1.2,0-1.4-0.7
		c-0.2-0.5-0.4-1.1-0.6-1.6C598,229.4,598.4,228.8,599.8,228.7z"/>
	<path class="st8" d="M482.4,322.5c1,0.6,2.2,1.2,2.9,2.2c0.4,0.6-0.4,1.2-0.8,1.7c-0.3,0.4-0.7,0.2-1,0c-0.6-0.4-1.1-0.8-1.7-1.2
		c-0.4-0.3-1-0.5-0.8-1.1s0.6-1.1,1.1-1.5C482.1,322.6,482.3,322.6,482.4,322.5z"/>
	<path class="st8" d="M373.7,154.5c0,1-0.7,1-1.2,1.1s-1,0.4-1.3-0.4c-0.3-0.9-0.6-1.8-0.8-2.8c-0.2-0.7,0.3-0.9,0.8-1
		s1.2-0.6,1.5,0.1C373.2,152.6,373.4,153.7,373.7,154.5z"/>
	<path class="st8" d="M367.2,152.7c0.5-0.1,0.8,0.2,0.9,0.6c0.3,0.9,0.5,1.7,0.7,2.6c0.2,0.9-0.5,1-1.1,1.2s-1.1,0.4-1.4-0.5
		c-0.2-0.7-0.4-1.3-0.6-2C365.4,153.3,365.8,152.8,367.2,152.7z"/>
	<path class="st8" d="M364.2,328.8c-0.1,0.2-0.3,0.5-0.4,0.7c-0.3,0.4-0.7,0.9-1.1,1.3c-0.9,1.1-1.9,1-2.6-0.2
		c-0.2-0.4-0.1-0.6,0.2-0.9c0.5-0.7,1.1-1.3,1.6-2c0.3-0.3,0.5-0.7,1-0.4C363.4,327.7,364,328.1,364.2,328.8z"/>
	<path class="st8" d="M572.3,331.4c-0.8-0.1-0.8-0.8-1.1-1.2c-0.3-0.4-0.4-0.9,0.2-1.2c0.8-0.5,1.7-0.9,2.6-1.4
		c0.5-0.3,0.9,0,1.1,0.5c0.2,0.5,0.9,1,0.4,1.5C574.5,330.5,573.3,330.9,572.3,331.4z"/>
	<path class="st8" d="M589.7,355.5c0.1,0.4-0.2,0.6-0.5,0.8c-0.6,0.3-1.2,0.7-1.8,1c-1.2,0.6-1.3,0.6-1.9-0.6
		c-0.4-0.7-0.4-1.1,0.4-1.5c0.6-0.3,1.1-0.6,1.6-0.9C588.6,353.7,589.6,354.2,589.7,355.5z"/>
	<path class="st8" d="M359.3,158.7c0.1,0.9-0.6,0.9-1.1,1.1c-0.5,0.2-1.1,0.4-1.4-0.4c-0.2-0.7-0.4-1.4-0.6-2.1
		c-0.3-1.2-0.2-1.3,0.9-1.7c0.8-0.3,1.3-0.1,1.5,0.7S359.1,157.9,359.3,158.7z"/>
	<path class="st8" d="M380.9,347.4c-0.6-0.3-1.1-0.7-1.5-1.2c-0.3-0.4,0.2-0.7,0.4-1c0.4-0.5,0.8-1,1.2-1.4c0.8-1,1-1,2-0.1
		c0.6,0.5,0.7,0.9,0.2,1.5s-1,1.2-1.5,1.8C381.5,347.2,381.3,347.4,380.9,347.4z"/>
	<path class="st8" d="M314.6,224.7c-0.2,0-0.3,0-0.5,0c-1.4,0-1.6-0.2-1.5-1.5c0-0.7,0.3-1,1-1.1c0.8,0,1.7-0.1,2.5-0.1
		c0.9,0,0.9,0.7,0.9,1.3s0,1.2-0.8,1.2C315.6,224.6,315.1,224.6,314.6,224.7C314.6,224.6,314.6,224.7,314.6,224.7z"/>
	<path class="st8" d="M476.8,337.2c-0.3,0.6-0.6,1.2-1.2,1.6c-0.5,0.3-0.8-0.2-1.2-0.5c-0.6-0.4-1.1-0.8-1.7-1.2
		c-0.8-0.5-0.5-1-0.1-1.5s0.7-1.2,1.6-0.6c0.7,0.5,1.4,1,2.1,1.5C476.5,336.7,476.8,336.8,476.8,337.2z"/>
	<path class="st8" d="M604.6,227.1c0.4-0.1,0.6,0.2,0.8,0.5c0.3,0.8,0.6,1.7,0.9,2.6c0.3,0.9-0.5,1-1,1.2s-1.1,0.4-1.4-0.3
		c-0.2-0.6-0.5-1.3-0.7-1.9C602.7,227.8,603.2,227.1,604.6,227.1z"/>
	<path class="st8" d="M592.2,235.3c0,0.9-0.6,0.9-1.1,1.1c-0.5,0.2-1,0.5-1.3-0.2c-0.4-0.9-0.7-1.9-1-2.9c-0.2-0.6,0.3-0.8,0.7-0.9
		c0.5-0.1,1.2-0.7,1.5-0.1C591.6,233.3,591.9,234.4,592.2,235.3z"/>
	<path class="st8" d="M587.5,237.2c-0.1,0.7-0.8,0.7-1.3,0.9c-0.4,0.2-0.9,0.3-1.2-0.3c-0.4-0.9-0.7-1.9-1-2.9
		c-0.2-0.6,0.3-0.8,0.7-0.9c0.5-0.2,1.1-0.7,1.5,0C586.9,235,587.2,236.1,587.5,237.2z"/>
	<path class="st8" d="M620.4,225.3c0.1,0.9-0.6,0.9-1.1,1.1c-0.5,0.2-1,0.5-1.3-0.2c-0.4-0.9-0.7-1.9-1-2.9c-0.1-0.2,0-0.4,0.2-0.6
		c0.8-0.9,2.1-0.7,2.5,0.4C619.9,223.8,620.1,224.6,620.4,225.3z"/>
	<path class="st8" d="M362.2,154.1c0.8-0.1,1,0.2,1.1,0.6c0.2,0.7,0.4,1.4,0.6,2.1c0.1,0.4,0.4,0.9-0.1,1.2
		c-0.5,0.4-1.3,0.7-1.7,0.4c-1-0.5-0.8-1.8-1.1-2.7c-0.1-0.4-0.4-0.9,0.1-1.2C361.5,154.3,362,154.2,362.2,154.1z"/>
	<path class="st8" d="M515.7,282c-1-0.7-2.2-1.2-2.9-2.2c-0.4-0.6,0.5-1.2,0.9-1.7c0.3-0.4,0.7-0.2,1,0.1c0.6,0.4,1.2,0.8,1.8,1.3
		c0.9,0.7,0.6,2.1-0.4,2.5C516,281.9,515.9,281.9,515.7,282z"/>
	<path class="st8" d="M396.8,279.2c0.2,1.4-0.5,1.4-1.2,1.6c-0.7,0.1-1.2,0-1.3-0.8c-0.1-0.6-0.2-1.2-0.3-1.8
		c-0.2-1.3,0-1.6,1.4-1.7c0.6-0.1,1,0.1,1.1,0.7C396.6,277.9,396.7,278.7,396.8,279.2z"/>
	<path class="st8" d="M329.7,415.7c0.5-0.1,0.7,0.2,0.9,0.6c0.2,0.7,0.4,1.4,0.6,2.1c0.3,1.1-0.7,2-1.8,1.7
		c-0.3-0.1-0.4-0.3-0.5-0.6c-0.2-0.6-0.4-1.3-0.6-2C327.9,416.3,328.3,415.8,329.7,415.7z"/>
	<path class="st8" d="M405.1,279.1c-0.6,0.1-0.9-0.2-1-0.8c-0.1-0.7-0.3-1.4-0.4-2.2c-0.1-1.1,0-1.1,1.2-1.4c0.9-0.2,1.3,0.1,1.4,1
		c0.1,0.6,0.2,1.1,0.3,1.7C406.8,278.7,406.6,279,405.1,279.1z"/>
	<path class="st8" d="M511.2,281.9c0.2,0.1,0.5,0.2,0.6,0.3c0.6,0.4,1.2,0.8,1.8,1.3c0.3,0.3,0.9,0.4,0.7,1s-0.6,1.1-1.1,1.5
		c-0.3,0.2-0.5,0-0.8-0.2c-0.7-0.5-1.5-1-2.2-1.6c-0.4-0.3-0.5-0.6-0.2-1C510.3,282.7,510.6,282.2,511.2,281.9z"/>
	<path class="st8" d="M502.2,417.1c-0.2,0.3-0.3,0.7-0.5,1c-0.9,1.1-1.2,1.1-2.4,0.4c-0.4-0.3-0.5-0.5-0.4-1
		c0.3-0.6,0.5-1.3,0.8-1.9c0.6-1.3,0.6-1.3,1.9-0.9c0.8,0.3,1.2,0.7,0.7,1.5C502.2,416.5,502.3,416.8,502.2,417.1z"/>
	<path class="st8" d="M418.5,273.3c-0.1-1,0.6-1,1.3-1.2c0.7-0.2,1.2,0,1.3,0.8c0.1,0.6,0.2,1.2,0.3,1.8c0.2,1.2-0.6,2-1.8,1.7
		c-0.4-0.1-0.5-0.4-0.6-0.7C418.8,275,418.6,274.1,418.5,273.3z"/>
	<path class="st8" d="M507.1,294.2c-1-0.6-2.2-1.2-2.9-2.2c-0.4-0.6,0.5-1.2,0.8-1.7c0.3-0.4,0.7-0.2,1,0c0.6,0.4,1.2,0.8,1.8,1.3
		c0.3,0.3,0.9,0.4,0.7,1c-0.2,0.6-0.6,1.1-1.1,1.5C507.4,294.2,507.2,294.1,507.1,294.2z"/>
	<path class="st8" d="M459.2,269.7c-0.5,0.1-0.9-0.1-1-0.7c-0.2-0.8-0.3-1.7-0.4-2.5c-0.2-1,0.5-1.1,1.2-1.2s1.2-0.1,1.3,0.8
		c0.1,0.6,0.2,1.2,0.3,1.8C460.9,269.3,460.6,269.7,459.2,269.7z"/>
	<path class="st8" d="M558.9,298.5c0.1,0.4-0.2,0.6-0.5,0.8c-0.6,0.3-1.2,0.7-1.8,1c-1.2,0.6-1.3,0.5-1.9-0.6
		c-0.4-0.7-0.3-1.1,0.4-1.5c0.6-0.3,1.1-0.6,1.6-0.9C557.8,296.6,558.8,297.2,558.9,298.5z"/>
	<path class="st8" d="M308.9,368.9c-0.3,0-0.8-0.1-1.3-0.1c-1.3-0.2-1.4-0.4-1.2-1.7c0.1-0.7,0.4-1,1.1-0.9s1.5,0.2,2.2,0.2
		c0.9,0.1,1.2,0.5,1,1.3C310.6,368.9,310.5,369,308.9,368.9z"/>
	<path class="st8" d="M469.3,263.6c0.5-0.1,0.8,0.2,0.9,0.7c0.1,0.7,0.3,1.4,0.4,2.2c0.2,1.1,0,1.3-1,1.5c-1.1,0.2-1.3,0.1-1.5-1
		c-0.1-0.5-0.2-1-0.3-1.5C467.5,263.9,467.7,263.6,469.3,263.6z"/>
	<path class="st8" d="M562.6,313.8c-0.5-0.1-0.6-0.8-1-1.3c-0.3-0.5-0.1-0.8,0.4-1.1c0.6-0.3,1.2-0.7,1.8-1c1.1-0.6,2.1-0.1,2.2,1.2
		c0,0.2,0,0.3-0.1,0.5C565.8,312.4,563.1,313.8,562.6,313.8z"/>
	<path class="st8" d="M383.2,151.8c0,1-0.7,0.9-1.3,1.1c-0.5,0.2-1,0.2-1.2-0.5s-0.4-1.4-0.6-2.1c-0.3-1.2-0.3-1.3,0.9-1.7
		c1.1-0.3,1.2-0.3,1.5,0.7C382.8,150.2,383,151,383.2,151.8z"/>
	<path class="st8" d="M488.4,320.9c-0.3,0.6-0.6,1.2-1.2,1.6c-0.4,0.3-0.7-0.1-1-0.4c-0.6-0.4-1.2-0.9-1.8-1.3
		c-0.9-0.6-0.4-1.1,0-1.7s0.8-1,1.5-0.4c0.7,0.5,1.4,1,2.1,1.5C488.1,320.4,488.3,320.6,488.4,320.9z"/>
	<path class="st8" d="M588.8,362.2c-0.7-0.2-0.8-0.9-1.1-1.4c-0.2-0.4-0.2-0.8,0.2-1c0.8-0.5,1.7-0.9,2.5-1.4c0.5-0.3,0.9,0,1.1,0.4
		c0.2,0.5,0.9,1,0.4,1.5C591,361.2,589.9,361.6,588.8,362.2z"/>
	<path class="st8" d="M354.5,160c0.1,0.9-0.6,0.9-1.1,1.1c-0.5,0.2-1.1,0.4-1.4-0.4c-0.2-0.7-0.4-1.4-0.6-2.1
		c-0.3-1.2-0.2-1.3,0.9-1.7c1-0.3,1.2-0.2,1.5,0.7C354.1,158.5,354.3,159.3,354.5,160z"/>
	<path class="st8" d="M306.7,388.7c-0.4,0-0.8-0.1-1.2-0.1c-1.4-0.2-1.6-0.5-1.3-1.9c0.1-0.5,0.4-0.8,0.9-0.7
		c0.8,0.1,1.7,0.2,2.5,0.3c1.1,0.1,0.8,0.8,0.8,1.5s-0.3,1.2-1.1,1C307.1,388.7,306.9,388.7,306.7,388.7L306.7,388.7z"/>
	<path class="st8" d="M314.6,217.1c0.2,0,0.5,0,0.7,0c1.3,0,1.6,0.3,1.5,1.6c0,0.7-0.3,0.9-0.9,0.9c-0.8,0-1.6,0.1-2.4,0.1
		c-0.9,0-1-0.3-1-1.6c0-0.7,0.3-1,1-1C313.8,217.2,314.2,217.1,314.6,217.1L314.6,217.1z"/>
	<path class="st8" d="M633.4,356.2c-1-0.5-2.2-0.9-3-1.7c-0.5-0.5,0.2-1.1,0.5-1.7c0.2-0.4,0.5-0.6,1-0.3c0.7,0.4,1.4,0.7,2.1,1.1
		c0.4,0.2,0.9,0.4,0.8,1c-0.1,0.6-0.4,1.2-0.9,1.6C633.7,356.2,633.6,356.1,633.4,356.2z"/>
	<path class="st8" d="M374.3,406c0.1,1-0.7,1-1.2,1.2s-1,0.2-1.2-0.4s-0.4-1.3-0.6-1.9c-0.4-1.3,0.1-2,1.5-2c0.3,0,0.6,0.1,0.7,0.4
		C373.8,404.2,374.1,405.2,374.3,406z"/>
	<path class="st8" d="M306,398.7c-0.6-0.1-1.1-0.1-1.7-0.2c-1.3-0.2-1.5-0.6-1.2-1.8c0.1-0.5,0.4-0.8,0.9-0.8
		c0.7,0.1,1.5,0.1,2.2,0.2c1.1,0.2,1.6,1.3,1,2.3C306.9,398.9,306.4,398.7,306,398.7z"/>
	<path class="st8" d="M308.9,373.9c-0.6-0.1-1.2-0.1-1.8-0.2c-1.2-0.2-1.4-0.4-1.2-1.7c0.1-0.8,0.5-1.1,1.2-1s1.3,0.1,2,0.2
		c1,0.2,1.2,0.4,1,1.5C310,373.8,309.8,373.9,308.9,373.9z"/>
	<path class="st8" d="M377.4,405.9c-0.4,0.1-0.6-0.2-0.7-0.5c-0.2-0.7-0.4-1.4-0.6-2.1c-0.3-1.2,0.4-2,1.7-1.9
		c0.4,0.1,0.5,0.4,0.7,0.7c0.2,0.6,0.4,1.2,0.5,1.8C379.3,405.3,378.8,405.9,377.4,405.9z"/>
	<path class="st8" d="M306.2,381c0.6,0.1,1.1,0.1,1.7,0.2c1.1,0.2,1.3,0.4,1.1,1.4c-0.1,1.1-0.3,1.3-1.4,1.2c-0.6,0-1.1-0.1-1.7-0.2
		c-1.2-0.2-1.4-0.4-1.2-1.5C304.8,381,305,380.9,306.2,381z"/>
	<path class="st8" d="M309.2,356.2c0.3,0,0.9,0.1,1.6,0.2c1,0.2,1.1,0.4,1,1.6c-0.1,0.8-0.4,1.1-1.2,1c-0.6-0.1-1.2-0.1-1.9-0.2
		c-1.2-0.2-1.3-0.3-1.2-1.4C307.5,356.3,307.7,356.2,309.2,356.2z"/>
	<path class="st8" d="M641,169.8c-0.8-0.2-0.9-0.9-1.2-1.4c-0.2-0.4-0.1-0.8,0.3-1c0.7-0.4,1.4-0.8,2.1-1.1c1-0.5,1.1-0.4,1.7,0.6
		c0.5,1,0.5,1.1-0.5,1.7C642.5,169,641.7,169.4,641,169.8z"/>
	<path class="st8" d="M392.8,149c0,1-0.8,1-1.3,1.2s-1,0.1-1.2-0.5c-0.2-0.9-0.5-1.7-0.7-2.6c-0.2-0.8,0.4-0.9,1-1.1
		c0.5-0.1,1.2-0.5,1.4,0.3C392.3,147.2,392.6,148.2,392.8,149z"/>
	<path class="st8" d="M386.2,151.6c-0.3,0-0.5-0.2-0.6-0.5c-0.3-0.9-0.6-1.8-0.8-2.8c-0.2-0.9,0.5-0.9,1.1-1.1
		c0.6-0.2,1.1-0.3,1.4,0.4c0.2,0.6,0.4,1.3,0.6,2C388.2,151,387.5,151.7,386.2,151.6z"/>
	<path class="st8" d="M340.9,416.1c0,1-0.8,1-1.3,1.2c-0.6,0.2-1,0.1-1.2-0.5c-0.2-0.8-0.4-1.5-0.7-2.3c-0.3-0.9,0.1-1.2,0.9-1.4
		c1.1-0.3,1.3-0.3,1.6,0.8C340.5,414.6,340.7,415.4,340.9,416.1z"/>
	<path class="st8" d="M480.4,265.1c0.2,0.8-0.3,1-1,1.1s-1.4,0.2-1.5-0.8c-0.1-0.7-0.3-1.3-0.3-2c-0.2-1.1,0-1.3,1.1-1.5
		s1.2,0,1.5,1.1c0.1,0.4,0.2,0.9,0.3,1.3C480.3,264.6,480.4,264.8,480.4,265.1z"/>
	<path class="st8" d="M493.9,306.3c0.2,0.1,0.5,0.2,0.7,0.4c0.5,0.3,0.9,0.6,1.4,1c1.2,0.9,1.2,1.7,0,2.6c-0.3,0.3-0.6,0.2-0.9,0
		c-0.7-0.5-1.4-1-2.1-1.5c-0.3-0.2-0.7-0.5-0.5-0.9C492.8,307.2,493.2,306.6,493.9,306.3z"/>
	<path class="st8" d="M497.1,259.6c-0.1-0.9,0.6-1,1.2-1.1s1.2-0.1,1.3,0.6c0.1,0.7,0.3,1.4,0.4,2.2c0.2,1.1,0,1.3-1.1,1.5
		s-1.3,0-1.5-1C497.3,261.1,497.2,260.4,497.1,259.6z"/>
	<path class="st8" d="M565.1,318.2c-0.7-0.2-0.8-0.9-1.1-1.4c-0.3-0.4-0.1-0.8,0.3-1c0.6-0.4,1.3-0.7,2-1.1c1.1-0.6,1.3-0.5,1.8,0.5
		s0.5,1.1-0.4,1.6c-0.6,0.4-1.3,0.7-2,1.1C565.5,318.1,565.3,318.2,565.1,318.2z"/>
	<path class="st8" d="M343.9,415.9c-0.4,0-0.6-0.2-0.7-0.6c-0.3-0.9-0.5-1.7-0.8-2.6c-0.2-0.9,0.5-1,1.1-1.2
		c0.5-0.2,1.1-0.4,1.4,0.4c0.2,0.6,0.4,1.3,0.6,1.9C345.8,415.2,345.2,416,343.9,415.9z"/>
	<path class="st8" d="M567.4,322.6c-0.7-0.3-0.8-0.9-1.1-1.5c-0.3-0.5,0-0.8,0.4-1c0.8-0.4,1.6-0.9,2.4-1.3c0.8-0.4,1,0.2,1.3,0.7
		c0.2,0.5,0.8,1,0.1,1.5c-0.9,0.5-1.8,1-2.7,1.5C567.6,322.6,567.5,322.6,567.4,322.6z"/>
	<path class="st8" d="M489.7,413.9c0.4-1,0.8-2,1.3-2.9c0.5-0.8,1.1-0.1,1.7,0.1c0.5,0.1,0.8,0.4,0.6,1c-0.3,0.7-0.6,1.5-0.9,2.2
		c-0.2,0.4-0.2,1-0.9,0.9c-0.6-0.1-1.2-0.3-1.7-0.8C489.7,414.3,489.8,414.1,489.7,413.9z"/>
	<path class="st8" d="M376.9,149.9c0.4,0,0.6,0.2,0.7,0.6c0.2,0.6,0.4,1.3,0.6,1.9c0.4,1.4,0.2,1.6-1.2,1.9c-0.7,0.1-1-0.1-1.1-0.7
		c-0.2-0.6-0.3-1.2-0.5-1.8C375,150.5,375.6,149.8,376.9,149.9z"/>
	<path class="st8" d="M358.4,407.2c0.5-0.1,0.7,0.2,0.9,0.6c0.2,0.6,0.4,1.2,0.5,1.8c0.4,1.5,0.3,1.8-1.2,2c-0.5,0.1-0.9,0-1-0.6
		c-0.2-0.7-0.4-1.3-0.6-2C356.6,407.8,357,407.2,358.4,407.2z"/>
	<path class="st8" d="M643.4,330.4c1.1,0.5,2.3,0.9,3.1,1.8c0.5,0.5-0.2,1.1-0.5,1.7c-0.2,0.5-0.7,0.5-1.1,0.3
		c-0.6-0.3-1.2-0.6-1.8-1c-1.1-0.6-1.1-1.7-0.1-2.5C643.1,330.5,643.3,330.4,643.4,330.4z"/>
	<path class="st8" d="M559.3,247.1c-0.1,0.9-0.9,0.9-1.5,1.1c-0.5,0.2-0.8-0.1-1-0.6c-0.2-0.7-0.5-1.4-0.7-2.1
		c-0.3-1.1-0.2-1.2,0.8-1.6c1.1-0.4,1.2-0.3,1.6,0.8C558.8,245.5,559,246.3,559.3,247.1z"/>
	<path class="st8" d="M363.1,410.2c-0.4,0.1-0.6-0.2-0.7-0.5c-0.2-0.8-0.5-1.5-0.7-2.3c-0.3-1.1-0.2-1.2,0.9-1.6
		c1.1-0.3,1.2-0.3,1.6,0.8c0.2,0.5,0.3,1,0.4,1.5C364.9,409.6,364.5,410.2,363.1,410.2z"/>
	<path class="st8" d="M367.7,336.5c0.1-0.2,0.2-0.4,0.4-0.6c0.4-0.5,0.8-1.1,1.3-1.6c0.3-0.3,0.5-1,1.2-0.8c0.6,0.2,1.1,0.6,1.4,1.2
		c0.2,0.3,0,0.5-0.2,0.8c-0.6,0.7-1.1,1.4-1.7,2.1c-0.2,0.3-0.5,0.5-0.9,0.3C368.6,337.5,367.9,337.2,367.7,336.5z"/>
	<path class="st8" d="M576.4,237.1c0.4-0.1,0.6,0.2,0.7,0.6c0.3,0.8,0.6,1.6,0.9,2.4c0.3,0.9-0.2,1.1-0.9,1.3s-1.3,0.5-1.6-0.5
		c-0.2-0.6-0.4-1.2-0.6-1.8C574.5,237.8,575,237.1,576.4,237.1z"/>
	<path class="st8" d="M470.8,338.8c0.2,0.1,0.5,0.2,0.7,0.4c0.6,0.4,1.1,0.8,1.7,1.2c0.6,0.4,1,0.8,0.4,1.6c-0.8,1-0.9,1.2-1.9,0.6
		c-0.6-0.4-1.2-0.8-1.8-1.3c-0.3-0.2-0.8-0.4-0.5-0.9C469.7,339.7,470,339.1,470.8,338.8z"/>
	<path class="st8" d="M378.1,339.9c1.1,0.1,1.7,1.4,1.1,2.3c-0.4,0.5-0.8,1.1-1.3,1.6c-0.7,0.8-0.8,0.8-1.6,0.1
		c-1-0.8-1-0.9-0.4-1.7c0.5-0.6,1-1.2,1.5-1.8C377.6,340,377.8,339.8,378.1,339.9z"/>
	<path class="st8" d="M471,345.3c-0.1,1.2-1.3,1.9-2.3,1.2c-0.4-0.3-0.8-0.6-1.2-0.9c-1.1-0.8-1.1-1.8,0-2.6
		c0.2-0.1,0.4-0.2,0.6-0.1c0.9,0.6,1.8,1.3,2.7,2C470.9,345,470.9,345.2,471,345.3z"/>
	<path class="st8" d="M369.5,407.5c0.1,0.9-0.5,1-1.1,1.2c-0.5,0.2-1.1,0.4-1.4-0.4c-0.2-0.7-0.5-1.4-0.6-2.1
		c-0.3-1.2-0.2-1.4,1.1-1.7c0.6-0.2,1.1-0.1,1.3,0.6C369.1,405.8,369.3,406.7,369.5,407.5z"/>
	<path class="st1" d="M315.1,244.6c-0.1,0-0.2,0-0.4,0c-1.4,0-1.5-0.2-1.5-1.6c0-0.7,0.4-1,1-1c0.7,0,1.4,0,2,0
		c1.1,0,1.2,0.1,1.2,1.1c0.1,1.2-0.1,1.3-1.3,1.4C315.9,244.6,315.5,244.6,315.1,244.6z"/>
	<path class="st8" d="M388.7,353.7c-0.6-0.2-1.1-0.6-1.4-1.1c-0.4-0.5,0.1-0.8,0.4-1.2c0.4-0.6,0.9-1.1,1.4-1.7c0.5-0.8,1-0.4,1.5,0
		s1.2,0.8,0.5,1.6c-0.6,0.6-1.1,1.3-1.6,2C389.2,353.5,389,353.7,388.7,353.7z"/>
	<path class="st8" d="M479.6,406.1c-0.4,1-0.8,2-1.3,2.9c-0.4,0.7-1,0.2-1.5,0s-1-0.4-0.8-1.1c0.3-0.7,0.6-1.5,0.9-2.2
		c0.2-0.4,0.3-1,0.9-0.9s1.2,0.3,1.7,0.8C479.5,405.7,479.5,405.9,479.6,406.1z"/>
	<path class="st8" d="M501.3,302.3c-0.4-0.2-0.8-0.5-1.1-0.7c-0.4-0.3-0.7-0.5-1.1-0.8c-1-0.8-1-0.9-0.3-2c0.5-0.6,0.9-0.8,1.5-0.3
		s1.3,0.9,1.9,1.4c0.3,0.2,0.7,0.5,0.4,1C502.3,301.4,502.1,302.1,501.3,302.3z"/>
	<path class="st8" d="M315.4,249.6c-0.2,0-0.5,0-0.7,0c-1.2,0-1.8-0.8-1.4-2c0.1-0.4,0.4-0.5,0.8-0.5c0.8,0,1.6-0.1,2.4-0.1
		c1,0,1.1,0.2,1.2,1.3c0,1.1-0.1,1.2-1.1,1.3C316.2,249.6,315.8,249.6,315.4,249.6L315.4,249.6z"/>
	<path class="st8" d="M663.5,246.2c0.2,0,0.5,0,0.7,0c1.2,0,1.3,0.2,1.3,1.2c0,1.1-0.2,1.3-1.4,1.4c-0.5,0-1,0-1.5,0
		c-1.3,0-1.5-0.3-1.4-1.7c0.1-0.6,0.3-0.9,1-0.9C662.6,246.2,663,246.2,663.5,246.2L663.5,246.2z"/>
	<path class="st8" d="M387,281.1c0.1,1.2-0.6,1.3-1.2,1.4s-1.2,0.2-1.3-0.7c-0.1-0.6-0.2-1.2-0.3-1.8c-0.2-1.4,0.1-1.9,1.5-1.9
		c0.5,0,0.8,0.2,0.9,0.6c0.1,0.6,0.2,1.1,0.3,1.7C387,280.7,387,281,387,281.1z"/>
	<path class="st8" d="M314.9,239.7c-0.2,0-0.5,0-0.7,0c-1.1,0-1.3-0.2-1.3-1.3s0.1-1.2,1.3-1.3c0.6,0,1.2-0.1,1.9,0
		c1,0,1.1,0.2,1.2,1.2c0,1.1-0.1,1.3-1.2,1.4C315.7,239.7,315.3,239.6,314.9,239.7C314.9,239.6,314.9,239.6,314.9,239.7z"/>
	<path class="st8" d="M314.3,214.7c-0.2,0-0.5,0-0.7,0c-1.2,0-1.4-0.2-1.4-1.4c0-1,0.1-1.1,1.4-1.2c0.5,0,1,0,1.5,0
		c1.2,0,1.9,1,1.3,2.1c-0.1,0.3-0.4,0.4-0.7,0.4C315.4,214.7,314.8,214.7,314.3,214.7L314.3,214.7z"/>
	<path class="st8" d="M663.3,258.7c-0.2,0-0.5,0-0.7,0c-1.3,0-1.4-0.3-1.4-1.5c0-0.8,0.4-1.1,1.2-1.1c0.7,0,1.4,0,2,0
		c1,0.1,1.1,0.2,1.1,1.3c0,1.1-0.1,1.3-1.1,1.3C664.1,258.8,663.7,258.7,663.3,258.7L663.3,258.7z"/>
	<path class="st8" d="M663.2,253.7c-0.2,0-0.5,0-0.7,0c-1.2,0-1.8-0.8-1.3-2c0.1-0.4,0.4-0.5,0.8-0.5c0.7,0,1.5-0.1,2.2,0
		c1.2,0,1.3,0.2,1.3,1.4c0,0.8-0.3,1.2-1.1,1.1C664,253.7,663.6,253.7,663.2,253.7L663.2,253.7z"/>
	<path class="st8" d="M306.7,403.7c-1.4-0.3-2.8-0.6-4.3-0.9c0.3-2,0.3-2,2.4-1.8C307.3,401.2,307,401.1,306.7,403.7z"/>
	<path class="st8" d="M629.3,364.9c-1.4-0.6-2.6-1.3-3.9-2.1c1.2-2,0.8-2.1,3-0.9C630.2,362.9,630.2,362.9,629.3,364.9z"/>
	<path class="st8" d="M542.4,277.1c1.3-0.8,2.6-1.6,4-2.1c0.8,1.9,0.8,1.9-1,2.8C543.6,278.9,543.6,278.9,542.4,277.1z"/>
	<path class="st8" d="M312.2,207.7c1.4,0,2.9,0,4.3,0c0,0.1,0,0.2,0,0.3c0,1.6,0,1.6-1.7,1.7c-0.2,0-0.3,0-0.5,0
		C312.2,209.8,312.2,209.8,312.2,207.7z"/>
	<path class="st8" d="M508.7,256.8c0.3,1.4,0.6,2.9,0.7,4.3c-0.3,0-0.6,0-0.8,0.1c-0.8,0.2-1.2-0.1-1.2-0.9c0-0.4-0.2-0.9-0.2-1.3
		C506.7,257.1,506.8,257.1,508.7,256.8z"/>
	<path class="st8" d="M381.6,400.1c0.8,1.3,1,2.8,1.3,4.3c-0.9,0.3-1.5,0.2-1.7-0.9c-0.1-0.6-0.2-1.1-0.5-1.6
		C380.3,400.8,380.8,400.4,381.6,400.1z"/>
	<path class="st8" d="M677.9,144.1c1.4,0.3,2.7,1.1,4.1,1.6c0,0.6-0.3,0.8-0.9,0.7c-0.7-0.2-1.4-0.4-2.1-0.6
		C677.8,145.5,677.8,145.5,677.9,144.1z"/>
	<path class="st8" d="M627,219c0.8,1.3,1.1,2.7,1.6,4.1c-0.4,0.1-0.9,0.3-1.2-0.3c-0.4-1-0.7-1.9-1-2.9
		C626.2,219.4,626.6,219.2,627,219z"/>
	<path class="st8" d="M459.1,362.4c-1.3-0.9-2.3-2.1-3.1-3.4c1.2,0.3,2.1,1.3,3.1,1.9C459.8,361.4,459.2,361.9,459.1,362.4z"/>
	<path class="st8" d="M310.2,333.3c1.4,0.2,2.9,0.1,4.3,0.7C313,334.4,311,334.1,310.2,333.3z"/>
	<path class="st8" d="M593.7,362.7c-1.2,0.8-2.5,1.6-3.9,2.1C590.6,363.7,592.4,362.7,593.7,362.7z"/>
	<path class="st9" d="M492,208.2c-29.9-0.8-54.3-12.7-72.7-36.5c-5.6-7.2-9.8-15.3-12.9-24c-0.1-0.3-0.2-0.7-0.3-1
		c-0.2-0.5-0.1-0.8,0.4-0.9c1-0.2,0.9-0.8,0.6-1.5c-0.2-0.4-0.3-0.9-0.4-1.3c-0.2-0.8-0.3-1.8-1.6-1.2c-0.6,0.2-0.7-0.5-0.8-0.9
		c-0.5-1.9-1-3.9-1.4-5.8c-1.4-7.2-2-14.4-1.7-21.7c0.7-14.4,4.4-27.9,11.5-40.5c7.8-13.8,18.4-24.9,31.9-33.3
		c10-6.2,20.9-10.3,32.6-12.1c18.9-3,37-0.7,54.2,7.7c22.8,11.1,38.4,28.8,46.8,52.7c3.1,8.9,4.7,18,4.8,27.5
		c0.3,26.8-9.2,49.5-28.5,68c-12.6,12-27.5,19.6-44.6,23.1C504.5,207.5,497.3,208.2,492,208.2z M580.4,117.2
		c-0.2-49.5-40.1-88.4-88.4-88.4c-48.9,0-88.3,39.7-88.3,88.4s39.5,88.2,88.2,88.3C540.2,205.5,580.2,166.7,580.4,117.2z"/>
	<path class="st1" d="M422.1,374.5c1.9-0.3,27.8-0.8,29.2-0.5c-4.7,8.4-9.3,16.8-14.1,25.4c-0.8-0.6-1-1.4-1.4-2
		c-0.8-1.2-1.5-2.4-2.2-3.7c-0.7-1.2-0.8-1.2-2-0.4c-5.1,3-10.2,6.1-15.2,9.1c-4.7,2.8-9.5,5.7-14.2,8.5c-1.2,0.7-1.3,0.7-2-0.5
		c-1.7-2.9-3.5-5.8-5.2-8.6c-0.7-1.2-0.7-1.2,0.5-2c5.2-3.1,10.3-6.2,15.5-9.3c4.6-2.8,9.3-5.6,13.9-8.4c1.3-0.8,1.3-0.8,0.5-2.1
		C424.4,378.2,423.3,376.4,422.1,374.5z"/>
	<path class="st1" d="M346.6,292.5c-1.2,1-29.9,17.6-31.4,18.1c-0.4-0.3-0.3-0.8-0.3-1.3c0-2.3,0-4.6,0-6.8c0-1.9,0-1.9-2-1.9
		c-6.3,0-12.5,0-18.8,0c-1.5,0-3,0-4.4,0c-2.5,0-2.1-0.2-2-2c0-4.2,0-8.3,0.1-12.5c0-1.7,0.1-1.7,1.7-1.7c6.4,0,12.9,0,19.3,0
		c2,0,4,0.3,5.9-0.2c0.6-1.9,0.1-3.9,0.3-5.9c0.1-1,0-1.9,0-2.9c0-0.3,0-0.7,0.2-1C316.4,274.8,344.4,290.9,346.6,292.5z"/>
	<path class="st1" d="M655.6,216.5c-2.1-6.9-4.2-13.6-6.4-20.6c7.2,1.5,14,3.1,20.9,4.7c0,0.9-0.7,1.2-1.1,1.7
		c-0.6,0.8-1.4,1.5-2.1,2.3c-0.4,0.4-0.4,0.8,0,1.2c0.3,0.3,0.7,0.6,1,0.9c3.7,3.4,7.4,6.8,11,10.2c0.2,0.2,0.4,0.4,0.6,0.6
		c0.4,0.3,0.4,0.7,0,1c-1.8,2-3.6,3.9-5.4,5.9c-0.5,0.5-0.8,0.4-1.3,0c-1.4-1.4-2.9-2.7-4.4-4.1c-2.6-2.4-5.2-4.8-7.8-7.2
		c-0.9-0.8-0.9-0.8-1.7,0C657.9,214.1,657,215.4,655.6,216.5z"/>
	<path class="st1" d="M616.8,404.7c-6.6,2.5-13.2,4.9-20.1,7.5c1.1-7.2,2.3-14.2,3.5-21c0.7-0.1,0.9,0.3,1.3,0.6
		c0.9,0.7,1.9,1.5,2.8,2.3c0.5,0.4,0.8,0.4,1.3-0.1c0.7-0.8,1.4-1.7,2.1-2.5c3.3-3.9,6.5-7.9,9.8-11.8c1.3-1.5,1-1.5,2.6-0.2
		c1.5,1.2,3,2.5,4.5,3.7c1.7,1.4,1.6,1,0.3,2.7c-3.7,4.5-7.4,9-11.1,13.4c-0.3,0.3-0.5,0.6-0.8,0.9c-0.4,0.4-0.3,0.8,0.1,1.1
		c0.8,0.7,1.7,1.4,2.5,2.1C616,403.6,616.5,403.9,616.8,404.7z"/>
	<path class="st1" d="M685.9,296.9c-6,3.4-11.8,6.8-17.8,10.3c-0.3-1.3-0.1-2.4-0.2-3.5c0-2.2,0.3-2.3-2.2-2.3
		c-7.5,0-14.9,0-22.4-0.1c-0.1,0-0.2,0-0.3,0c-1.7,0-1.7,0-1.7-1.7c0-2,0-4.1,0-6.1c0-1.4,0-1.4,1.4-1.4c6.1,0,12.2,0,18.3,0.1
		c1.7,0,3.4,0,5.1,0c1.7,0,1.7,0,1.7-1.7c0-1.2,0-2.5,0-3.8C669.2,286.9,683.9,295.2,685.9,296.9z"/>
	<path class="st1" d="M305.1,158.1c9.7-1.5,19.2-3,29-4.6c-3.6,9.2-7,18.2-10.4,27.1c-0.6,0.2-0.8-0.3-1-0.6
		c-1.2-1.4-2.3-2.8-3.4-4.2c-0.9-1.1-0.9-1.1-2.1-0.2c-6.2,5-12.5,10.1-18.7,15.1c-1.8,1.5-1.8,1.5-3.3-0.4
		c-1.9-2.3-3.7-4.6-5.6-6.9c-1.2-1.5-1.3-1.3,0.2-2.5c6.1-4.9,12.2-9.9,18.3-14.8c2.1-1.7,2.1-1.7,0.5-3.7
		C307.5,161.2,306.2,159.9,305.1,158.1z"/>
	<path class="st1" d="M628.3,149.7c-5.9-4-11.5-7.8-17.3-11.8c6.4-3.1,12.5-6,18.7-9c0,1.2,0,2.3,0,3.3c0,0.5,0,0.9-0.1,1.4
		c-0.1,0.8,0.3,1.1,1,1.2c1.6,0.1,3.2,0.2,4.8,0.4c2.1,0.1,4.2,0.3,6.3,0.4c1.7,0.1,1.7,0.2,1.6,1.8c-0.2,2.1-0.3,4.2-0.5,6.3
		c-0.1,1.3-0.1,1.3-1.4,1.2c-3.6-0.3-7.3-0.5-10.9-0.8c-1.6-0.1-1.6-0.1-1.8,1.6C628.5,146.9,628.4,148.1,628.3,149.7z"/>
	<path class="st1" d="M530.1,437.6c-1.2-1.4-2.2-2.5-3.1-3.6c-1.1-1.3-1.1-1.3-2.4-0.2c-2.7,2.3-5.4,4.7-8.1,7
		c-0.9,0.8-1,0.8-1.7-0.1c-1.7-2-3.4-4-5.1-5.9c-0.6-0.7-0.6-1.1,0.1-1.7c2.6-2.2,5.2-4.4,7.8-6.7c0.3-0.3,0.6-0.5,0.9-0.8
		c0.7-0.5,0.7-0.9,0.1-1.5c-0.9-1-1.7-2-2.6-3c-0.3-0.3-0.6-0.6-0.6-1.2c7.3-1.4,14.6-2.8,21.7-4.2c0.2,0.1,0.3,0.2,0.3,0.2l0.1,0.1
		c0,0.2,0,0.5-0.1,0.7C534.9,423.7,532.5,430.5,530.1,437.6z"/>
	<path class="st1" d="M540.3,245.6c0.9,7.4,1.8,14.9,2.8,22.7c-7.2-3-14.1-6-21.3-9c1.3-1,2.3-1.8,3.4-2.6c2-1.5,1.9-1.1,0.4-3
		c-2-2.7-4.1-5.4-6.2-8.2c-0.7-1-0.7-1,0.2-1.7c2.1-1.6,4.2-3.1,6.3-4.7c0.7-0.6,1.1-0.5,1.6,0.2c2,2.7,4,5.4,6,8
		c0.2,0.3,0.5,0.6,0.7,1c0.8,1,0.8,1,1.7,0.3c1-0.7,2-1.5,3-2.3C539.3,245.9,539.6,245.6,540.3,245.6z"/>
	<path class="st0" d="M518.4,274.3c-0.4,0-0.6-0.1-0.8-0.5C518,273.8,518.2,274,518.4,274.3z"/>
	<path class="st0" d="M517.6,273.9c-0.2,0-0.3-0.1-0.4-0.3C517.4,273.5,517.6,273.7,517.6,273.9z"/>
	<path class="st1" d="M299.9,438.5c0-1.9,0-3.4,0-4.9s0-1.5-1.5-1.5c-5.3,0-10.6,0-15.9,0c-3.1,0-2.6,0.4-2.7-2.8c0-1.9,0-3.8,0-5.6
		c0-1.8,0-1.8,1.8-1.8c3.3,0,6.6,0,9.9,0c2.3,0,4.7,0,7,0c1.4,0,1.4,0,1.4-1.5s-0.1-3,0.1-4.6c1.3,0.3,17.7,9.7,19.7,11.3
		C313.1,430.8,306.7,434.5,299.9,438.5z"/>
	<path class="st1" d="M693.5,124.7c-1.6,4.6-3,8.7-4.5,13c-1.2-0.5-1.6-1.8-2.8-2.5c-0.9,0.5-1.7,1.4-2.5,2.1c-1,0.8-2,1.7-3,2.6
		c-0.6,0.5-0.9,0.4-1.4-0.1c-0.9-1.1-1.8-2.2-2.8-3.2c-0.5-0.6-0.4-0.9,0.1-1.4c1.5-1.2,2.9-2.5,4.4-3.8c1.1-1,1.1-1,0.2-2.1
		c-0.5-0.6-1.1-1-1.3-1.9C684.4,126.4,688.8,125.6,693.5,124.7z"/>
	<path class="st1" d="M580.4,117.2c-0.2,49.5-40.2,88.3-88.4,88.3c-48.7-0.1-88.2-39.6-88.2-88.3s39.4-88.4,88.3-88.4
		C540.3,28.8,580.2,67.8,580.4,117.2z M492.1,195.1c44.3-0.3,78-36.2,77.9-78.2s-34-77.7-78-77.7c-43.6,0-77.9,35.2-77.9,78
		C414.2,160.2,448.8,195,492.1,195.1z"/>
	<path class="st9" d="M492.1,195.1c-43.4-0.1-78-34.9-78-77.9c0-42.8,34.3-77.9,77.9-78c44.1,0,77.9,35.7,78,77.7
		S536.4,194.9,492.1,195.1z M567.3,116.7c-0.1-2.5-0.2-5.4-0.5-8.2c-1.2-10-4.2-19.3-9.1-28.1c-7.6-13.5-18.4-23.8-32.3-30.7
		c-13-6.4-26.7-8.9-41.1-7.4c-9.6,1-18.7,3.7-27.3,8.3c-14.8,7.9-25.9,19.5-33.2,34.7c-3.6,7.5-5.7,15.3-6.7,23.5
		c-0.7,5.9-0.6,11.8,0.1,17.7c0.4,3.5,1.1,6.8,2,10.2c0.1,0.4,0.4,0.9-0.3,1.1c-0.8,0.2-0.7,0.7-0.5,1.3c0.2,0.8,0.5,1.5,0.7,2.3
		c0.1,0.4,0.3,0.7,0.7,0.6c1.1-0.3,1.2,0.4,1.5,1.1c1.3,3.5,2.8,6.8,4.6,10.1c14.2,25.9,42.1,41.3,71.4,39.1
		c8.9-0.7,17.5-2.8,25.7-6.5C550,173.6,567.4,146.7,567.3,116.7z"/>
	<path class="st1" d="M567.3,116.7c0,30-17.3,56.9-44.3,69.1c-8.2,3.7-16.7,5.8-25.7,6.5c-29.4,2.1-57.3-13.2-71.4-39.1
		c-1.8-3.3-3.3-6.6-4.6-10.1c-0.3-0.7-0.4-1.5-1.5-1.1c-0.4,0.1-0.6-0.2-0.7-0.6c-0.2-0.8-0.4-1.5-0.7-2.3c-0.2-0.6-0.3-1.1,0.5-1.3
		c0.7-0.2,0.4-0.7,0.3-1.1c-0.9-3.4-1.5-6.8-2-10.2c-0.7-5.9-0.8-11.8-0.1-17.7c0.9-8.2,3.1-16.1,6.7-23.5
		c7.2-15.2,18.3-26.8,33.2-34.7c8.5-4.6,17.7-7.3,27.3-8.3c14.4-1.4,28.1,1,41.1,7.4c13.9,6.9,24.7,17.2,32.3,30.7
		c4.9,8.7,7.9,18.1,9.1,28.1C567.2,111.3,567.2,114.2,567.3,116.7z M427.4,135.1c0.2,1.6,0.7,3,1.4,4.4c0,0.2,0.1,0.3,0.1,0.5
		c11.9,32.5,46.2,50.9,80.2,42.1c32.7-8.5,53.7-39.9,49.6-73.1c-1.6-13-6.6-24.6-14.9-34.6C527.5,54.7,502,46,477.1,51.7
		c-18.9,4.4-33.3,15.1-43.2,31.8c-5,8.4-7.9,17.6-8.7,27.4C424.5,119.1,425.1,127.2,427.4,135.1z"/>
	<path class="st9" d="M427.4,135.1c-2.2-7.9-2.9-16-2.1-24.2c0.9-9.8,3.7-19,8.7-27.4c9.9-16.6,24.3-27.4,43.2-31.8
		c24.8-5.7,50.4,3,66.6,22.6C552.1,84.4,557,96,558.7,109c4.1,33.2-16.9,64.6-49.6,73.1c-34,8.9-68.3-9.6-80.2-42.1
		c-0.1-0.2-0.1-0.3-0.1-0.5c0.1-0.1,0.2-0.2,0.3-0.3c0.7-0.1,1.4-0.3,2.1-0.4c0.3,0.8,0.7,1.6,1,2.3c3.6,8.9,8.9,16.6,15.9,23.2
		c5.4,5.1,11.5,9.1,18.3,12c6.8,3,13.9,4.7,21.3,5.2c7.5,0.5,15-0.3,22.3-2.4c9.5-2.8,17.9-7.5,25.3-14.1c5.1-4.6,9.3-9.9,12.8-15.9
		c5.2-9,7.9-18.7,8.4-29.1c0.3-5.8-0.3-11.5-1.6-17.1c-3.3-14.5-10.8-26.5-22.3-35.8c-13.7-11-29.4-15.7-47-14.1
		c-8,0.7-15.5,3-22.7,6.6c-6.9,3.5-12.9,8-18.2,13.7c-3.9,4.3-7.3,8.9-9.9,14c-3.7,7.1-6.1,14.6-6.9,22.6c-0.6,5.7-0.5,11.4,0.3,17
		c0.4,2.6,1,5.1,1.5,7.7c-0.6,0.2-1.2,0.4-1.7,0.5C427.9,135.2,427.6,135.1,427.4,135.1z"/>
	<path class="st0" d="M429.1,139.3c-0.1,0.1-0.2,0.2-0.3,0.3c-0.7-1.4-1.2-2.9-1.4-4.4c0.2,0,0.5,0,0.7,0
		C428,136.6,428.6,138,429.1,139.3z"/>
	<path class="st10" d="M429.8,134.6c-0.5-2.6-1.2-5.1-1.5-7.7c-0.8-5.7-0.9-11.3-0.3-17c0.8-8,3.2-15.5,6.9-22.6
		c2.7-5.1,6-9.8,9.9-14c5.2-5.7,11.3-10.2,18.2-13.7c7.1-3.6,14.7-5.8,22.7-6.6c17.6-1.6,33.3,3,47,14.1c11.5,9.3,19,21.3,22.3,35.8
		c1.3,5.6,1.9,11.4,1.6,17.1c-0.5,10.3-3.2,20.1-8.4,29.1c-3.4,6-7.7,11.3-12.8,15.9c-7.3,6.6-15.8,11.3-25.3,14.1
		c-7.3,2.1-14.7,2.9-22.3,2.4c-7.4-0.5-14.5-2.2-21.3-5.2s-12.9-7-18.3-12c-7-6.6-12.3-14.3-15.9-23.2c-0.3-0.8-0.7-1.6-1-2.3
		C431,137.3,430.8,135.9,429.8,134.6z M438,132.3c-0.4,0.2-0.7,0.3-0.5,0.9c0.3,0.8,0.6,1.7,0.7,2.6c0.1,0.9,0.7,0.8,1.3,0.8
		c0.5,2.6,1.8,4.9,3,7.2c4.9,9,11.7,16.3,20.6,21.6c4,2.4,8.3,4.4,12.8,5.7c4,1.1,8.1,1.8,12.2,2.2c5.2,0.4,10.3,0.1,15.3-1
		c11.9-2.5,22.1-8.3,30.3-17.4c3.6-4,6.6-8.4,8.9-13.3c3.3-6.9,5.2-14.1,5.5-21.7c0.1-2.1,0-4.1,0-6.1c0-2.8-0.5-5.6-1.1-8.3
		c-1.3-6.3-3.7-12.2-7.1-17.7c-2.5-4.1-5.4-7.8-8.8-11c-4.8-4.6-10.3-8.4-16.5-11.1c-9.3-4-19-5.5-29-4.3c-4.4,0.5-8.7,1.5-12.9,3.1
		c-9.1,3.4-16.8,8.7-23.1,16c-6.8,7.8-11,16.9-12.8,27.1C435.3,115.9,435.7,124.1,438,132.3z M434.4,133.4c-0.1,0-0.3,0.1-0.6,0.1
		c-1.3,0.3-1.3,0.3-1,1.6c0.2,0.8,0.4,1.5,0.7,2.3c0.1,0.3,0.2,0.5,0.6,0.5c1.4,0.1,2-0.7,1.7-2c-0.2-0.6-0.4-1.3-0.5-1.9
		C435.1,133.6,434.9,133.4,434.4,133.4z"/>
	<path class="st8" d="M429.8,134.6c1,1.2,1.2,2.7,1.3,4.2c-0.7,0.1-1.4,0.3-2.1,0.4c-0.5-1.3-1.1-2.6-1-4.1
		C428.7,135,429.2,134.8,429.8,134.6z"/>
	<path class="st11" d="M438,132.3c-2.3-8.1-2.7-16.3-1.3-24.7c1.8-10.2,6.1-19.3,12.8-27.1c6.3-7.3,14-12.6,23.1-16
		c4.2-1.6,8.5-2.6,12.9-3.1c10-1.1,19.7,0.3,29,4.3c6.2,2.7,11.7,6.4,16.5,11.1c3.4,3.3,6.4,7,8.8,11c3.4,5.5,5.7,11.4,7.1,17.7
		c0.6,2.7,1,5.5,1.1,8.3c0,2,0.1,4.1,0,6.1c-0.3,7.6-2.2,14.8-5.5,21.7c-2.3,4.9-5.3,9.2-8.9,13.3c-8.2,9.1-18.3,14.9-30.3,17.4
		c-5,1.1-10.1,1.4-15.3,1c-4.2-0.4-8.2-1.1-12.2-2.2c-4.5-1.3-8.7-3.3-12.8-5.7c-8.9-5.3-15.7-12.6-20.6-21.6
		c-1.2-2.3-2.6-4.6-3-7.2c1.4-0.6,1.4-0.6,1-2.1c-0.2-0.6-0.3-1.2-0.5-1.8c-0.1-0.4-0.3-0.7-0.8-0.6
		C438.7,132.1,438.4,132.1,438,132.3z M438.6,117.2c-0.2,29.1,23.6,53.5,53.4,53.5c29.4,0,53.6-23.6,53.5-53.6
		c-0.1-29.7-23.8-53.3-53.6-53.4C462.3,63.7,438.4,87.9,438.6,117.2z"/>
	<path class="st8" d="M434.4,133.4c0.5,0,0.7,0.2,0.8,0.6c0.2,0.7,0.4,1.3,0.5,1.9c0.4,1.3-0.3,2.1-1.7,2c-0.3,0-0.5-0.2-0.6-0.5
		c-0.2-0.8-0.5-1.5-0.7-2.3c-0.3-1.2-0.3-1.3,1-1.6C434,133.5,434.2,133.4,434.4,133.4z"/>
	<path class="st8" d="M438,132.3c0.4-0.2,0.7-0.2,1.1-0.3c0.5-0.1,0.7,0.2,0.8,0.6c0.2,0.6,0.3,1.2,0.5,1.8c0.4,1.4,0.4,1.4-1,2.1
		c-0.6,0.1-1.2,0.1-1.3-0.8c-0.1-0.9-0.4-1.7-0.7-2.6C437.3,132.6,437.6,132.4,438,132.3z"/>
	<path class="st10" d="M438.6,117.2c-0.2-29.3,23.7-53.5,53.4-53.5c29.7,0,53.5,23.7,53.6,53.4c0.1,30.1-24.1,53.6-53.5,53.6
		C462.2,170.7,438.4,146.3,438.6,117.2z M448.2,133.8c0.1,0.4,0.2,0.8,0.3,1.1c2.9,7.2,7.4,13.4,13.4,18.3
		c8.6,7.1,18.6,10.8,29.9,10.9c5.1,0,10-0.7,14.8-2.3c8.2-2.7,15.2-7.3,20.9-13.9c3.5-4,6.2-8.4,8.2-13.3c2.7-6.8,3.7-13.8,3.2-21.1
		c-0.6-7.2-2.7-13.9-6.3-20.2c-2.9-5-6.6-9.3-11.1-12.9c-5.6-4.5-12-7.6-19.1-9.2c-7-1.6-14-1.5-21,0c-4.1,0.9-8,2.5-11.8,4.5
		c-5.8,3.1-10.7,7.3-14.7,12.5c-2.6,3.3-4.7,6.9-6.3,10.7c-1.3,3-2.1,6.1-2.8,9.3c-0.9,4-0.9,8.2-0.7,12.2c0.2,3.1,0.5,6.2,1.7,9.2
		C447.4,131.1,447.5,132.6,448.2,133.8z M442.4,132c0.1,0.4,0.3,1.1,0.5,1.8c0.4,1.5,0.5,1.5,2,1c0.7-0.2,0.8-0.6,0.6-1.1
		c-0.2-0.6-0.3-1.2-0.5-1.8c-0.2-0.4,0-1.1-0.7-1.2c-0.6-0.1-1.2,0.2-1.8,0.4C442.2,131.2,442.2,131.5,442.4,132z"/>
	<path class="st11" d="M446.9,129.8c-1.2-2.9-1.5-6.1-1.7-9.2c-0.2-4.1-0.2-8.2,0.7-12.2c0.7-3.2,1.6-6.3,2.8-9.3
		c1.6-3.9,3.7-7.4,6.3-10.7c4.1-5.2,8.9-9.4,14.7-12.5c3.7-2,7.6-3.5,11.8-4.5c7-1.6,14-1.6,21,0c7.1,1.6,13.4,4.7,19.1,9.2
		c4.5,3.6,8.2,7.9,11.1,12.9c3.6,6.2,5.7,12.9,6.3,20.2s-0.5,14.3-3.2,21.1c-1.9,4.9-4.7,9.3-8.2,13.3c-5.7,6.6-12.7,11.2-20.9,13.9
		c-4.8,1.6-9.7,2.3-14.8,2.3c-11.3-0.1-21.2-3.8-29.9-10.9c-6-4.9-10.5-11.1-13.4-18.3c-0.1-0.4-0.2-0.8-0.3-1.1
		c0.8-0.2,1.6-0.3,2.3-0.8c0.2,0.1,0.3,0.2,0.5,0.4c0,0.3,0.1,0.5,0.3,0.8c0.1,0.2,0.2,0.5,0.3,0.7c0.1,0.2,0.2,0.5,0.4,0.7
		c0.1,0.2,0.2,0.5,0.3,0.7c0.1,0.2,0.2,0.5,0.3,0.7c0.1,0.7,0.5,1.3,0.8,1.9c2,3.4,4.3,6.6,7.1,9.4c4.2,4.3,9.2,7.7,14.8,10
		c7.5,3.1,15.4,4,23.5,2.8c5.2-0.7,10.2-2.4,14.8-5c5.9-3.2,10.8-7.6,14.7-13c4.8-6.7,7.6-14.1,8.2-22.3c0.6-8.2-0.9-16.1-4.6-23.5
		c-4.3-8.4-10.5-14.8-18.8-19.2c-8.5-4.6-17.7-6.1-27.3-4.7c-8.3,1.2-15.7,4.5-22.1,10c-7.6,6.5-12.6,14.6-14.8,24.4
		c-0.8,3.4-1.1,6.9-1,10.3c0.1,3.8,0.6,7.5,1.6,11.1C448.5,129.4,447.7,129.6,446.9,129.8z"/>
	<path class="st8" d="M442.4,132c-0.1-0.6-0.1-0.8,0.1-0.9c0.6-0.2,1.2-0.5,1.8-0.4c0.7,0.1,0.5,0.8,0.7,1.2
		c0.2,0.6,0.4,1.2,0.5,1.8c0.2,0.6,0.1,0.9-0.6,1.1c-1.5,0.5-1.6,0.5-2-1C442.6,133.1,442.5,132.4,442.4,132z"/>
	<path class="st8" d="M446.9,129.8c0.8-0.2,1.6-0.4,2.3-0.6h0.1c0.2,0.4,0.2,0.9,0.5,1.2c0,0.4,0.1,0.8,0.3,1.1
		c0.1,0.3,0.2,0.7,0.3,1c0,0.2,0.1,0.4,0.1,0.6c-0.7,0.5-1.5,0.6-2.3,0.8C447.5,132.6,447.4,131.1,446.9,129.8z"/>
	<path class="st12" d="M449.3,129.2h-0.1c-0.9-3.7-1.5-7.4-1.6-11.1c-0.1-3.5,0.2-6.9,1-10.3c2.2-9.8,7.1-17.9,14.8-24.4
		c6.4-5.4,13.8-8.8,22.1-10c9.6-1.4,18.8,0.1,27.3,4.7c8.3,4.4,14.5,10.9,18.8,19.2c3.8,7.4,5.3,15.3,4.6,23.5
		c-0.6,8.2-3.4,15.6-8.2,22.3c-3.9,5.5-8.8,9.8-14.7,13c-4.6,2.6-9.6,4.2-14.8,5c-8.1,1.1-15.9,0.3-23.5-2.8
		c-5.6-2.3-10.5-5.7-14.8-10c-2.8-2.8-5.1-6-7.1-9.4c-0.3-0.6-0.7-1.2-0.8-1.9c0.1-0.1,0.2-0.1,0.3-0.2c1.3,1.7,2.6,3.5,4.1,5
		c2.5,2.4,5.5,4,8.6,5.4c0.2,0.1,0.3,0.2,0.5,0.3l0,0c0.3,0.7,0.9,1,1.4,1.4c2.4,1.8,5,3.4,7.7,4.7c8.4,3.9,17.2,4.8,26.2,2.7
		c8-1.9,14.9-5.9,20.4-12c9-10.1,12.2-21.8,9.7-35c-1.9-10-7.2-18.1-15.4-24.2c-9.6-7.1-20.4-9.6-32-7.1
		c-13.5,2.9-23.1,10.8-28.8,23.4c-1.6,3.5-2.7,7.1-2.9,11c-0.7,1.7-1.5,3.4-2,5.2c-1.1,3.7-1.1,7.5-0.6,11.3
		C449.6,129,449.5,129.1,449.3,129.2z"/>
	<path class="st12" d="M450.5,133.1c0-0.2-0.1-0.4-0.1-0.6c0.1,0,0.1-0.1,0.2-0.1c0.3,0.2,0.4,0.6,0.4,1l-0.1,0.1
		C450.8,133.3,450.6,133.2,450.5,133.1z"/>
	<path class="st12" d="M452.5,136.9c-0.1-0.2-0.2-0.5-0.3-0.7c0.1-0.1,0.1-0.1,0.2-0.2c0.1,0.2,0.3,0.4,0.4,0.6
		C452.7,136.8,452.6,136.9,452.5,136.9z"/>
	<path class="st12" d="M451.2,134.2c-0.2-0.2-0.2-0.5-0.3-0.8l0.1-0.1c0.2,0.2,0.3,0.4,0.3,0.7C451.3,134.1,451.2,134.1,451.2,134.2
		z"/>
	<path class="st12" d="M451.5,134.9c-0.1-0.2-0.2-0.5-0.3-0.7c0.1,0,0.1-0.1,0.2-0.1c0.2,0.2,0.3,0.4,0.3,0.7
		C451.6,134.8,451.6,134.8,451.5,134.9z"/>
	<path class="st12" d="M452.2,136.2c-0.1-0.2-0.2-0.5-0.3-0.7c0.1,0,0.1-0.1,0.2-0.1c0.2,0.2,0.3,0.4,0.4,0.7
		C452.3,136.1,452.2,136.2,452.2,136.2z"/>
	<path class="st12" d="M451.8,135.6c-0.1-0.2-0.2-0.5-0.4-0.7c0.1,0,0.1-0.1,0.2-0.1c0.2,0.2,0.3,0.4,0.3,0.7
		C452,135.5,451.9,135.5,451.8,135.6z"/>
	<path class="st12" d="M449.8,130.4c-0.3-0.3-0.3-0.8-0.5-1.2c0.1-0.1,0.2-0.2,0.4-0.3C449.9,129.3,450,129.8,449.8,130.4
		L449.8,130.4z"/>
	<path class="st12" d="M450.4,132.5c-0.1-0.3-0.2-0.7-0.3-1c0.1,0,0.1-0.1,0.2-0.1c0.4,0.3,0.4,0.6,0.3,1
		C450.5,132.4,450.5,132.5,450.4,132.5z"/>
	<path class="st12" d="M450.1,131.5c-0.2-0.3-0.3-0.7-0.3-1.1l0.1-0.1c0.4,0.2,0.3,0.6,0.3,1C450.2,131.4,450.2,131.4,450.1,131.5z"
		/>
	<path class="st13" d="M450.3,131.4c0-0.4,0.1-0.8-0.3-1c0.1-0.5,0-1-0.2-1.5c-0.5-3.8-0.5-7.6,0.6-11.3c0.5-1.8,1.4-3.5,2-5.2
		c1.2-1.7,2.5-3.4,3.7-5.1c1.7-1.3,3.2-2.8,5.1-3.9c1.1-0.6,2.2-1.2,3.3-1.8c1.3-0.4,2.5-0.7,3.8-1.1c3-0.5,5.9-0.9,8.9-0.2
		c1.3,0.3,2.6,0.5,3.8,0.7c1,0.6,2,1.1,3.2,1.2c0.4,0.3,0.7,0.6,1.1,0.8c2.7,1.5,5.1,3.4,7,5.9c4.2,5.3,6.1,11.3,5.3,18.2
		c-0.3,2.3-1,4.4-1.6,6.6c-0.6,0.9-1,1.9-1.5,2.8c-1.7,2.5-3.5,4.9-5.9,6.7c-1,0.8-2.1,1.5-3.2,2.3c-1.3,0.4-2.5,1-3.7,1.6
		c-3.4,1-6.8,1.4-10.3,1.3c-1.8-0.4-3.6-0.8-5.4-1l0,0c-0.1-0.2-0.3-0.3-0.5-0.3c-3.1-1.4-6.1-3-8.6-5.4c-1.6-1.5-2.8-3.2-4.1-5
		c-0.1-0.2-0.3-0.4-0.4-0.6c-0.1-0.3-0.1-0.5-0.4-0.7c0-0.3-0.1-0.5-0.3-0.7c0-0.3-0.1-0.5-0.3-0.7c0-0.3-0.1-0.5-0.3-0.7
		c-0.1-0.4-0.1-0.7-0.4-1C450.6,132,450.6,131.6,450.3,131.4z M489.2,119.3c-0.5-0.4-1-0.5-1.5-0.6c-2.4-0.5-4.8-1.1-7.2-1.6
		c-4-0.9-8-1.8-12-2.6c-1.2-0.3-1.4,0-1.1,1.1c0.3,1.2,0.7,2.4,1.1,3.6c0.3,0.8,0,1.3-0.8,1.5c-0.5,0.1-1,0.3-1.5,0.5
		c-3,1-6.1,1.9-9.1,2.9c-1.2,0.4-1.2,0.5-0.9,1.6c0.8,2.5,1.6,5,2.3,7.5c0.3,0.9,0.7,1,1.5,0.7c2.3-0.7,4.6-1.4,6.8-2.2
		c1.1-0.3,2.2-0.7,3.3-1c1.7-0.5,1.8-0.5,2.3,1.1c0.3,1,0.6,2.1,1,3.1c0.1,0.4,0.1,0.8,0.6,0.9C475.4,134.8,488.2,120.8,489.2,119.3
		z"/>
	<path class="st11" d="M466,147.4c1.8,0.2,3.6,0.6,5.4,1c7.8,5.2,16.4,7.1,25.7,5.9c9.7-1.3,17.7-5.8,23.9-13.3
		c6.7-8.2,9.5-17.6,8.3-28.2c-1.1-10-5.7-18.2-13.3-24.6c-8.4-6.9-18.2-9.8-29-8.2c-14,2.1-23.8,9.9-29.5,22.8
		c-0.6,1.4-1.3,2.8-1.3,4.4c-1.2,1.7-2.5,3.4-3.7,5.1c0.2-3.9,1.3-7.5,2.9-11c5.7-12.6,15.3-20.6,28.8-23.4c11.6-2.5,22.4,0,32,7.1
		c8.2,6.1,13.5,14.2,15.4,24.2c2.5,13.2-0.7,25-9.7,35c-5.5,6.2-12.4,10.2-20.4,12c-9,2.1-17.7,1.2-26.2-2.7
		c-2.8-1.3-5.3-2.8-7.7-4.7C466.8,148.4,466.2,148.1,466,147.4z"/>
	<path class="st11" d="M465.5,147.1c0.2,0,0.4,0.1,0.5,0.3C465.8,147.3,465.7,147.2,465.5,147.1z"/>
	<path class="st12" d="M456.1,107.3c0-1.6,0.7-3,1.3-4.4c5.8-12.9,15.5-20.7,29.5-22.8c10.8-1.6,20.6,1.3,29,8.2
		c7.7,6.3,12.2,14.6,13.3,24.6c1.2,10.6-1.6,20-8.3,28.2c-6.2,7.5-14.2,12-23.9,13.3c-9.3,1.2-17.9-0.7-25.7-5.9
		c3.5,0.1,6.9-0.4,10.3-1.3c0.4,0.3,0.9,0.5,1.4,0.6c8,2.2,15.8,1.6,23.2-2.1c13.8-6.9,21-22.9,16-38.1
		c-6.7-20.6-30.6-27.9-47.6-16.8c-4.3,2.8-7.8,6.4-10.2,11c-1.1,0.6-2.2,1.2-3.3,1.8C459.3,104.4,457.7,105.9,456.1,107.3z"/>
	<path class="st14" d="M481,101c-1.3-0.2-2.6-0.5-3.8-0.7c-3-0.6-6-0.2-8.9,0.2c1.4-2.4,3.4-4.3,5.5-6c10-8,23.3-8.6,34.1-1.8
		c10.2,6.5,15.5,19.4,12.5,31.1c-3,11.6-10.4,18.9-21.9,21.8c-4.3,1.1-8.8,1.1-13.2-0.1c1.1-0.8,2.1-1.5,3.2-2.3
		c2.5-1.8,4.2-4.2,5.9-6.7c0.5,0,1,0,1.5-0.1c10.5-2,17.5-12.6,15.3-23.2C508.3,99.6,492.7,93.1,481,101z"/>
	<path class="st1" d="M489.2,119.3c-1,1.5-13.9,15.5-15.1,16.4c-0.5-0.1-0.5-0.5-0.6-0.9c-0.3-1-0.6-2.1-1-3.1
		c-0.5-1.7-0.6-1.7-2.3-1.1c-1.1,0.3-2.2,0.7-3.3,1c-2.3,0.7-4.6,1.4-6.8,2.2c-0.8,0.3-1.2,0.2-1.5-0.7c-0.7-2.5-1.6-5-2.3-7.5
		c-0.3-1.1-0.3-1.2,0.9-1.6c3-1,6.1-1.9,9.1-2.9c0.5-0.2,1-0.3,1.5-0.5c0.8-0.2,1.1-0.7,0.8-1.5c-0.4-1.2-0.8-2.4-1.1-3.6
		c-0.3-1.1-0.1-1.3,1.1-1.1c4,0.9,8,1.8,12,2.6c2.4,0.5,4.8,1.1,7.2,1.6C488.2,118.8,488.7,118.8,489.2,119.3z"/>
	<path class="st14" d="M495.9,133.7c0.7-2.2,1.4-4.3,1.6-6.6c0.8-6.8-1.1-12.8-5.3-18.2c-1.9-2.4-4.3-4.4-7-5.9
		c-0.4-0.2-0.7-0.5-1.1-0.8c10.8-5.9,24.4,1.8,24.9,14.2C509.3,124.7,504,131.6,495.9,133.7z"/>
	<path class="st11" d="M485.3,145.4c4.4,1.3,8.8,1.3,13.2,0.1c11.5-2.9,19-10.2,21.9-21.8c3-11.7-2.3-24.6-12.5-31.1
		c-10.8-6.9-24.2-6.2-34.1,1.8c-2.1,1.7-4.1,3.6-5.5,6c-1.3,0.4-2.5,0.7-3.8,1.1c2.4-4.6,5.9-8.2,10.2-11
		c17-11.1,40.9-3.8,47.6,16.8c5,15.2-2.2,31.3-16,38.1c-7.5,3.7-15.2,4.3-23.2,2.1c-0.5-0.1-1-0.3-1.4-0.6
		C482.8,146.5,484,145.8,485.3,145.4z"/>
	<path class="st11" d="M495.9,133.7c8.1-2,13.4-9,13.1-17.3c-0.4-12.3-14.1-20.1-24.9-14.2c-1.1-0.2-2.2-0.6-3.2-1.2
		c11.7-7.9,27.3-1.4,30.2,12.2c2.2,10.5-4.8,21.2-15.3,23.2c-0.5,0.1-1,0.1-1.5,0.1C494.8,135.5,495.3,134.6,495.9,133.7z"/>
</g>
</svg>
