<?xml version="1.0" encoding="utf-8"?>
<!-- Generator: Adobe Illustrator 19.2.1, SVG Export Plug-In . SVG Version: 6.00 Build 0)  -->
<svg version="1.1" xmlns="http://www.w3.org/2000/svg" xmlns:xlink="http://www.w3.org/1999/xlink" x="0px" y="0px"
	 viewBox="0 0 800 400" style="enable-background:new 0 0 800 400;" xml:space="preserve">
<style type="text/css">
	.st0{fill:#AAA997;}
	.st1{fill:#7C7C7C;}
	.st2{fill:#002F44;}
</style>
<g id="πœ_xBA_h_2">
	<path class="st0" d="M805-5.6c0.3,0,0.6,0,0.9,0c0,0.3-0.1,0.6-0.1,0.9c0,137.1,0,274.2,0,411.3c0,0.3,0,0.8,0.1,1.1
		c-271.3,0-542.4,0-813.7,0c0-137.7,0-275.5,0-413.1c0.4,0,0.8,0,1.2,0c269.6,0,539,0,808.6,0c0.6,0,1.3,0,1.9,0
		C804.4-5.4,804.8-5.5,805-5.6z"/>
</g>
<g id="πœ_xBA_h_1">
	<g>
		<g>
			<g>
				<path class="st1" d="M656.4,254.7c-4.1-0.2-9,0.3-12.2,1.2c-0.6,0.2-1.2,0.3-1.9,0.4c2.5,2.1,7,4.3,11.3,5.6
					c2.5,0.3,4.7,0.7,10.3,1c10.4,0.4,12.2-2.2,9.9-4.2C671.6,256.7,664,255,656.4,254.7z"/>
				<path class="st1" d="M639.8,256.5c-1.6,0.1-3.3,0.1-4.9,0.2c-5.4,0.2-9.8,1.2-7.9,3.3c3.7,4.2,13,1.9,19.3,1.6
					C643.4,259.9,641.1,258.2,639.8,256.5z"/>
			</g>
			<g>
				<path class="st1" d="M748.1,273.6c-1.3-1.9-8-4.3-18-3.5c-5.4,0.4-6.9,0.9-9,1.3c-2.4,1.4-3.6,3.6-2.8,5.7
					c0.9,0.1,1.7,0.1,2.6,0.3c5,0.7,11.3,1,15.5,0.6C744.1,277.3,749.3,275.4,748.1,273.6z"/>
				<path class="st1" d="M714,272c-7.1,0-20.2-1.8-17.8,2.3c1.2,2.1,7.3,2.8,13.5,2.7c1.9,0,3.7-0.1,5.6-0.1
					C713.9,275.3,713.5,273.6,714,272z"/>
			</g>
		</g>
		<g>
			<g>
				<path class="st1" d="M538.8,254.7c-4-0.2-9.2,0.3-12.8,1.2c-0.6,0.2-1.3,0.3-2,0.4c1.6,2.1,5.1,4.3,8.9,5.6
					c2.4,0.3,4.4,0.7,9.8,1c10.3,0.4,13.2-2.2,11.8-4.2C553.1,256.7,546.2,255,538.8,254.7z"/>
				<path class="st1" d="M521.4,256.5c-1.6,0.1-3.3,0.1-5,0.2c-5.5,0.2-10.3,1.2-9.4,3.3c1.8,4.2,12.1,1.9,18.6,1.6
					C523.5,259.9,522,258.2,521.4,256.5z"/>
			</g>
			<g>
				<path class="st1" d="M621.9,273.6c-1.3-1.9-8-4.3-18-3.5c-5.4,0.4-6.9,0.9-9,1.3c-2.4,1.4-3.6,3.6-2.8,5.7
					c0.9,0.1,1.7,0.1,2.6,0.3c5,0.7,11.3,1,15.5,0.6C617.9,277.3,623.1,275.4,621.9,273.6z"/>
				<path class="st1" d="M587.8,272c-7.1,0-20.2-1.8-17.8,2.3c1.2,2.1,7.3,2.8,13.5,2.7c1.9,0,3.7-0.1,5.6-0.1
					C587.7,275.3,587.3,273.6,587.8,272z"/>
			</g>
		</g>
		<g>
			<g>
				<path class="st1" d="M421.2,254.7c-3.9-0.2-9.3,0.3-13.3,1.2c-0.7,0.2-1.4,0.3-2.2,0.4c0.6,2.1,3.2,4.3,6.4,5.6
					c2.2,0.3,4,0.7,9.4,1c10.1,0.4,14.2-2.2,13.7-4.2C434.7,256.7,428.5,255,421.2,254.7z"/>
				<path class="st1" d="M403,256.5c-1.7,0.1-3.4,0.1-5.1,0.2c-5.6,0.2-10.8,1.2-10.9,3.3c-0.1,4.2,11.3,1.9,17.9,1.6
					C403.5,259.9,402.8,258.2,403,256.5z"/>
			</g>
			<g>
				<path class="st1" d="M495.9,273.6c-1.3-1.9-8-4.3-18-3.5c-5.4,0.4-6.9,0.9-9,1.3c-2.4,1.4-3.6,3.6-2.8,5.7
					c0.9,0.1,1.7,0.1,2.6,0.3c5,0.7,11.3,1,15.5,0.6C491.9,277.3,497.1,275.4,495.9,273.6z"/>
				<path class="st1" d="M461.9,272c-7.1,0-20.2-1.8-17.8,2.3c1.2,2.1,7.3,2.8,13.5,2.7c1.9,0,3.7-0.1,5.6-0.1
					C461.7,275.3,461.3,273.6,461.9,272z"/>
			</g>
		</g>
		<g>
			<g>
				<path class="st1" d="M303.6,254.7c-3.9-0.2-9.5,0.3-13.9,1.2c-0.8,0.2-1.5,0.3-2.3,0.4c-0.4,2.1,1.3,4.3,3.9,5.6
					c2.1,0.3,3.7,0.7,9,1c9.9,0.4,15.2-2.2,15.6-4.2C316.2,256.7,310.8,255,303.6,254.7z"/>
				<path class="st1" d="M279.5,256.6c-5.7,0.2-11.3,1.2-12.3,3.3c-2,4.2,10.4,1.9,17.2,1.6c-0.8-1.6-0.7-3.3,0.3-5
					C283,256.6,281.3,256.6,279.5,256.6z"/>
			</g>
			<g>
				<path class="st1" d="M370.2,273.6c-1.3-1.9-8-4.3-18-3.5c-5.4,0.4-6.9,0.9-9,1.3c-2.4,1.4-3.6,3.6-2.8,5.7
					c0.9,0.1,1.7,0.1,2.6,0.3c5,0.7,11.3,1,15.5,0.6C366.2,277.3,371.4,275.4,370.2,273.6z"/>
				<path class="st1" d="M336.2,272c-7.1,0-20.2-1.8-17.8,2.3c1.2,2.1,7.3,2.8,13.5,2.7c1.9,0,3.7-0.1,5.6-0.1
					C336,275.3,335.6,273.6,336.2,272z"/>
			</g>
		</g>
		<g>
			<g>
				<path class="st1" d="M175.4,254.7c-3.9-0.2-9.3,0.3-13.3,1.2c-0.7,0.2-1.4,0.3-2.2,0.4c0.6,2.1,3.2,4.3,6.4,5.6
					c2.2,0.3,4,0.7,9.4,1c10.1,0.4,14.2-2.2,13.7-4.2C188.9,256.7,182.7,255,175.4,254.7z"/>
				<path class="st1" d="M157.2,256.5c-1.7,0.1-3.4,0.1-5.1,0.2c-5.6,0.2-10.8,1.2-10.9,3.3c-0.1,4.2,11.3,1.9,17.9,1.6
					C157.7,259.9,157,258.2,157.2,256.5z"/>
			</g>
			<g>
				<path class="st1" d="M250.1,273.6c-1.3-1.9-8-4.3-18-3.5c-5.4,0.4-6.9,0.9-9,1.3c-2.4,1.4-3.6,3.6-2.8,5.7
					c0.9,0.1,1.7,0.1,2.6,0.3c5,0.7,11.3,1,15.5,0.6C246.1,277.3,251.3,275.4,250.1,273.6z"/>
				<path class="st1" d="M216,272c-7.1,0-20.2-1.8-17.8,2.3c1.2,2.1,7.3,2.8,13.5,2.7c1.9,0,3.7-0.1,5.6-0.1
					C215.9,275.3,215.5,273.6,216,272z"/>
			</g>
		</g>
		<g>
			<g>
				<path class="st1" d="M57.8,254.7c-3.9-0.2-9.5,0.3-13.9,1.2c-0.8,0.2-1.5,0.3-2.3,0.4c-0.4,2.1,1.3,4.3,3.9,5.6
					c2.1,0.3,3.7,0.7,9,1c9.9,0.4,15.2-2.2,15.6-4.2C70.4,256.7,65,255,57.8,254.7z"/>
				<path class="st1" d="M33.7,256.6c-5.7,0.2-11.3,1.2-12.3,3.3c-2,4.2,10.4,1.9,17.2,1.6c-0.8-1.6-0.7-3.3,0.3-5
					C37.2,256.6,35.4,256.6,33.7,256.6z"/>
			</g>
			<g>
				<path class="st1" d="M124.4,273.6c-1.3-1.9-8-4.3-18-3.5c-5.4,0.4-6.9,0.9-9,1.3c-2.4,1.4-3.6,3.6-2.8,5.7
					c0.9,0.1,1.7,0.1,2.6,0.3c5,0.7,11.3,1,15.5,0.6C120.4,277.3,125.6,275.4,124.4,273.6z"/>
				<path class="st1" d="M90.3,272c-7.1,0-20.2-1.8-17.8,2.3c1.2,2.1,7.3,2.8,13.5,2.7c1.9,0,3.7-0.1,5.6-0.1
					C90.2,275.3,89.8,273.6,90.3,272z"/>
			</g>
		</g>
	</g>
	<path class="st2" d="M740.6-6.9c8.8,0,17.7-2,26.5-2c4.3,0,8.7,2,13,2c-0.6,5.3-18.2,130-19,135.2c-0.7,4.3-10.5,51.3-11.5,55.5
		c-5,21.3-12.5,40.1-17.5,61.4c-0.4,1.8-0.1,1.5-1.9,1.5c-1.5,0.1-2.9,0-4.4,0c-0.1,0.7,0.3,1.2,0.6,1.7c2.7,4.8,6.2,8.7,11,11.5
		c3.7,2.1,7.6,4,11.4,5.9c0.6,0.3,1.3,0.6,1.9,1c1.8,1.2,1.9,3.1,0.1,4.5c-0.7,0.6-1.6,0.9-2.5,1.1c-0.6,0.1-1.3,0.2-1.9,0.3
		c-1.3-0.1-2.6-0.3-3.9-0.6c-4.8-0.9-9.4-2.3-13.9-4c-2.6-1.1-5.2-2.3-7.7-3.7c-2.8-1.6-5.5-3.5-7.9-5.6c-0.3-0.3-0.6-0.7-1.1-0.8
		c-1.1,1.6-1.7,3.4-2.4,5.2c-0.6,1.5-0.5,1.5-2.1,1.1c-3.3-0.7-6.6-1.4-10-2.1c-0.8-0.1-1-0.4-0.9-1.2c0.3-5.3,2-10.2,4.6-14.8
		c0.2-0.4,0.5-0.7,0.7-1.1c0.2-0.4,0.4-0.7,0.8-1.3c-2-0.5-4-1-5.9-1.5c-2.2-0.5-4.4-1.1-6.5-1.6c-1.1-0.3-1.1-0.3-0.8-1.4
		c1.5-5.4,3.3-10.8,5.2-16.1c4-11.5,8.2-22.9,11.5-34.6c2.3-8,13.3-55.2,14.5-63.5C720.8,121.5,740.3-3.1,740.6-6.9z"/>
</g>
</svg>
