<?xml version="1.0" encoding="UTF-8" standalone="no"?>
<svg width="28px" height="28px" viewBox="0 0 28 28" version="1.1" xmlns="http://www.w3.org/2000/svg" xmlns:xlink="http://www.w3.org/1999/xlink">
    <!-- Generator: Sketch 3.8.1 (29687) - http://www.bohemiancoding.com/sketch -->
    <title>Github Icon</title>
    <desc>Created with Sketch.</desc>
    <defs>
        <polygon id="path-1" points="0.000424242424 27.802775 27.6427879 27.802775 27.6427879 0 0.000424242424 0"></polygon>
    </defs>
    <g id="Welcome" stroke="none" stroke-width="1" fill="none" fill-rule="evenodd">
        <g id="Mobile-Menu" transform="translate(-234.000000, -371.000000)">
            <g id="Github-Icon" transform="translate(234.000000, 371.000000)">
                <mask id="mask-2" fill="white">
                    <use xlink:href="#path-1"></use>
                </mask>
                <g id="Clip-2"></g>
                <path d="M13.8205455,0 C6.18842424,0 0.000424242424,6.381375 0.000424242424,14.25375 C0.000424242424,20.551125 3.96030303,25.893 9.45254545,27.778625 C10.1440606,27.909 10.3960606,27.468875 10.3960606,27.090875 C10.3960606,26.753125 10.3841818,25.85625 10.3773939,24.667125 C6.53290909,25.528125 5.72175758,22.756125 5.72175758,22.756125 C5.0930303,21.11025 4.18684848,20.671 4.18684848,20.671 C2.93193939,19.78725 4.28187879,19.80475 4.28187879,19.80475 C5.66915152,19.905375 6.39884848,21.273875 6.39884848,21.273875 C7.63169697,23.45175 9.63412121,22.822625 10.4215152,22.458625 C10.5470909,21.53725 10.9034545,20.909 11.2988485,20.552875 C8.22987879,20.19325 5.00309091,18.97 5.00309091,13.50825 C5.00309091,11.9525 5.54187879,10.68025 6.426,9.683625 C6.28345455,9.323125 5.80915152,7.874125 6.56090909,5.9115 C6.56090909,5.9115 7.72163636,5.52825 10.3621212,7.37275 C11.464303,7.056 12.6470909,6.8985 13.8222424,6.89325 C14.995697,6.8985 16.1784848,7.056 17.2823636,7.37275 C19.9211515,5.52825 21.0793333,5.9115 21.0793333,5.9115 C21.8336364,7.874125 21.3593333,9.323125 21.2167879,9.683625 C22.1026061,10.68025 22.638,11.9525 22.638,13.50825 C22.638,18.984 19.4061212,20.188875 16.3269697,20.5415 C16.8233333,20.981625 17.2653939,21.851375 17.2653939,23.181375 C17.2653939,25.08625 17.2484242,26.623625 17.2484242,27.090875 C17.2484242,27.472375 17.4970303,27.916 18.1987273,27.776875 C23.6867273,25.88775 27.6432121,20.549375 27.6432121,14.25375 C27.6432121,6.381375 21.4543636,0 13.8205455,0" id="Fill-1" fill="#FEFEFE" mask="url(#mask-2)"></path>
            </g>
        </g>
    </g>
</svg>