<?xml version="1.0" encoding="utf-8"?>
<!-- Generator: Adobe Illustrator 19.2.1, SVG Export Plug-In . SVG Version: 6.00 Build 0)  -->
<svg version="1.1" id="Layer_1" xmlns="http://www.w3.org/2000/svg" xmlns:xlink="http://www.w3.org/1999/xlink" x="0px" y="0px"
	 viewBox="0 0 1000 500" style="enable-background:new 0 0 1000 500;" xml:space="preserve">
<style type="text/css">
	.st0{fill:#788FAB;}
	.st1{fill:#657D96;}
	.st2{fill:#94927F;}
	.st3{fill:#FFDD00;}
	.st4{fill:#F1B70F;}
	.st5{fill:#BEBBA1;}
	.st6{fill:#FFF350;}
	.st7{fill:#E39F15;}
	.st8{fill:#9CCCE3;}
</style>
<rect x="-16.7" y="-12.1" class="st0" width="1034.8" height="522"/>
<path class="st1" d="M600.8,194.9L600.8,194.9c-21.7-21.7-51.6-37.6-85.2-41.7l-16-16l-0.6-0.6c-0.2-0.1-0.3-0.1-0.5-0.1
	c-3.1,0-3.2,15.1-3.2,15.8c-66.2,1.5-120.9,49.2-132.9,101.2l0,0l254.1,254.1l162.7-0.7l131.6-1.9L600.8,194.9z"/>
<g>
	<path class="st2" d="M502,246.8v93.6c-0.8,0-6.2,0-7.1,0v-93.6c1.2-0.1,2.4-0.1,3.6-0.1C499.7,246.7,500.8,246.7,502,246.8z"/>
	<path class="st2" d="M498.5,136.5c3.1,0,3.2,15.1,3.2,15.8c-1.1,0-2.1,0-3.2,0s-2.1,0-3.2,0C495.3,151.6,495.3,136.5,498.5,136.5z"
		/>
	<path class="st3" d="M533.2,363.2c0,1.9,0,4.3,0,7.2c0,7.3-4.7,19.5-19.9,19.5s-20.7-11.5-20.7-20s0-23.7,0-26
		c0-2.2,0.5-3.6,2.4-3.6c0.9,0,6.4,0,7.1,0c0.8,0,2.5,0.4,2.5,3.6s0,22.6,0,25.4c0,4.2,2.2,8.7,8.7,8.7s8.4-4.1,8.4-8.5
		c0-4.8,0-5.2,0-6.4c0-1.1,1.3-4.8,5.9-4.8C532.2,358.5,533.2,361.4,533.2,363.2z"/>
	<path class="st3" d="M501.7,152.2c66.1,1.5,120.8,49.1,132.8,101c-0.7-1.7-8.5-6.3-17-5.1c-6.9,0.9-15.9,7.1-19.1,12.4
		c-5.3-5.1-15.9-12.3-30.4-11.5c-11.6,0.6-23.6,7.6-29.2,13.3c-4.6-5.1-19.1-14.3-36.8-15.5c-1.2-0.1-2.4-0.1-3.6-0.1
		s-2.4,0-3.6,0.1c-17.7,1.1-32.2,10.4-36.8,15.5c-5.6-5.7-16.7-13.5-29.2-13.3c-14.5,0.3-25.1,6.4-30.4,11.5
		c-3.2-5.3-10.5-11.2-19.1-12.4c-7.8-1.1-16.6,3.4-17.1,5.3c12-52,66.7-99.7,132.9-101.2c1.1,0,2.1,0,3.2,0
		C499.5,152.2,500.6,152.2,501.7,152.2z"/>
	<path class="st4" d="M527.5,358.5c0,1.3,0,7.3,0,10.3c0,3.4-0.2,15.6-14.3,15.6c-14.1,0-14.8-13.4-14.8-17.2c0-3.8,0-22.9,0-25.4
		v-1.4c1.6,0,3.2,0,3.6,0c0.8,0,2.5,0.4,2.5,3.6s0,22.6,0,25.4c0,4.2,2.2,8.7,8.7,8.7c6.5,0,8.4-4.1,8.4-8.5c0-4.8,0-5.2,0-6.4
		C521.6,362.2,522.9,358.5,527.5,358.5z"/>
	<path class="st5" d="M498.5,246.7v93.7c-1.5,0-3.1,0-3.6,0v-93.6C496.1,246.7,497.3,246.7,498.5,246.7z"/>
	<path class="st5" d="M498.5,136.5v15.7c-0.7,0-1.4,0-2.1,0c-0.4,0-0.8,0-1.1,0C495.3,151.6,495.3,136.5,498.5,136.5z"/>
	<path class="st6" d="M494.9,246.8c-17.6,1.1-32.2,10.4-36.8,15.5c-0.9-66.1,26.1-106,38.3-110l0,0c0.7,0,1.4,0,2.1,0v94.5
		C497.3,246.7,496.1,246.7,494.9,246.8z"/>
	<path class="st6" d="M486.7,152.7L486.7,152.7c-4.8,0.5-82.1,8.6-107.2,95.4c-7.8-1.1-16.6,3.4-17.1,5.3
		C373.8,203.7,424.4,157.9,486.7,152.7z"/>
	<path class="st6" d="M495.3,152.2C495.3,152.3,495.3,152.3,495.3,152.2l-0.1,0.1c0,0-52.6,13.7-66.3,96.6
		c-14.5,0.3-25.1,6.4-30.4,11.5l0,0l0,0c11.7-90.7,87.9-107.2,92.2-108.1C492.2,152.3,493.7,152.3,495.3,152.2z"/>
	<path class="st4" d="M510.5,152.7c7.4,0.7,82.3,10.2,106.9,95.4c-6.9,0.9-15.9,7.1-19.1,12.4c-11.9-92.6-91.1-107.9-92.4-108.1
		c1.4,0.1,2.7,0.2,4.1,0.3C510.2,152.7,510.3,152.7,510.5,152.7z"/>
	<path class="st4" d="M501.7,152.3c0,0,52.7,13.7,66.3,96.7c-11.6,0.6-23.6,7.6-29.2,13.3c0.9-66.1-26.1-106.1-38.3-110l0,0
		C500.9,152.2,501.3,152.2,501.7,152.3L501.7,152.3z"/>
	<path class="st7" d="M598.4,260.5c-5.3-5.1-15.9-12.3-30.4-11.5c-13.6-83-66.3-96.7-66.3-96.7l0,0c1.4,0,2.9,0.1,4.3,0.2l0,0
		C507.2,152.6,586.4,167.9,598.4,260.5z"/>
	<path class="st7" d="M634.5,253.2c-0.7-1.7-8.5-6.3-17-5.1c-24.6-85.2-99.5-94.6-106.9-95.4C572.6,158,623,203.7,634.5,253.2z"/>
	<path class="st3" d="M502,246.8c-1.2-0.1-2.4-0.1-3.6-0.1v-94.5c0.7,0,1.4,0,2.1,0l0,0c12.2,3.9,39.2,43.9,38.3,110
		C534.2,257.2,519.7,247.9,502,246.8z"/>
</g>
<path class="st8" d="M509.9,98.7c0,0.5-0.6,0.9-1.4,0.9l0,0c-0.8,0-1.4-0.4-1.4-0.9V88.3c0-0.5,0.6-0.9,1.4-0.9l0,0
	c0.8,0,1.4,0.4,1.4,0.9V98.7z"/>
<path class="st8" d="M509.9,118.7c0,0.5-0.6,0.9-1.4,0.9l0,0c-0.8,0-1.4-0.4-1.4-0.9v-10.4c0-0.5,0.6-0.9,1.4-0.9l0,0
	c0.8,0,1.4,0.4,1.4,0.9V118.7z"/>
<path class="st8" d="M509.9,139c0,0.5-0.6,0.9-1.4,0.9l0,0c-0.8,0-1.4-0.4-1.4-0.9v-10.4c0-0.5,0.6-0.9,1.4-0.9l0,0
	c0.8,0,1.4,0.4,1.4,0.9V139z"/>
<path class="st8" d="M509.9,55.7c0,0.5-0.6,0.9-1.4,0.9l0,0c-0.8,0-1.4-0.4-1.4-0.9V45.3c0-0.5,0.6-0.9,1.4-0.9l0,0
	c0.8,0,1.4,0.4,1.4,0.9V55.7z"/>
<path class="st8" d="M509.9,76.1c0,0.5-0.6,0.9-1.4,0.9l0,0c-0.8,0-1.4-0.4-1.4-0.9V65.7c0-0.5,0.6-0.9,1.4-0.9l0,0
	c0.8,0,1.4,0.4,1.4,0.9V76.1z"/>
<path class="st8" d="M459.5,65.3c0,0.5-0.6,0.9-1.4,0.9l0,0c-0.8,0-1.4-0.4-1.4-0.9V54.9c0-0.5,0.6-0.9,1.4-0.9l0,0
	c0.8,0,1.4,0.4,1.4,0.9V65.3z"/>
<path class="st8" d="M459.5,45.3c0,0.5-0.6,0.9-1.4,0.9l0,0c-0.8,0-1.4-0.4-1.4-0.9V34.9c0-0.5,0.6-0.9,1.4-0.9l0,0
	c0.8,0,1.4,0.4,1.4,0.9V45.3z"/>
<path class="st8" d="M459.5,87.9c0,0.5-0.6,0.9-1.4,0.9l0,0c-0.8,0-1.4-0.4-1.4-0.9V77.5c0-0.5,0.6-0.9,1.4-0.9l0,0
	c0.8,0,1.4,0.4,1.4,0.9V87.9z"/>
<path class="st8" d="M459.5,110.5c0,0.5-0.6,0.9-1.4,0.9l0,0c-0.8,0-1.4-0.4-1.4-0.9v-10.4c0-0.5,0.6-0.9,1.4-0.9l0,0
	c0.8,0,1.4,0.4,1.4,0.9V110.5z"/>
<path class="st8" d="M459.5,133.1c0,0.5-0.6,0.9-1.4,0.9l0,0c-0.8,0-1.4-0.4-1.4-0.9v-10.4c0-0.5,0.6-0.9,1.4-0.9l0,0
	c0.8,0,1.4,0.4,1.4,0.9V133.1z"/>
<path class="st8" d="M459.5,155.7c0,0.5-0.6,0.9-1.4,0.9l0,0c-0.8,0-1.4-0.4-1.4-0.9v-10.4c0-0.5,0.6-0.9,1.4-0.9l0,0
	c0.8,0,1.4,0.4,1.4,0.9V155.7z"/>
<path class="st8" d="M563.7,73.1c0,0.5-0.6,0.9-1.4,0.9l0,0c-0.8,0-1.4-0.4-1.4-0.9V62.7c0-0.5,0.6-0.9,1.4-0.9l0,0
	c0.8,0,1.4,0.4,1.4,0.9V73.1z"/>
<path class="st8" d="M563.7,95.7c0,0.5-0.6,0.9-1.4,0.9l0,0c-0.8,0-1.4-0.4-1.4-0.9V85.3c0-0.5,0.6-0.9,1.4-0.9l0,0
	c0.8,0,1.4,0.4,1.4,0.9V95.7z"/>
<path class="st8" d="M563.7,118.3c0,0.5-0.6,0.9-1.4,0.9l0,0c-0.8,0-1.4-0.4-1.4-0.9v-10.4c0-0.5,0.6-0.9,1.4-0.9l0,0
	c0.8,0,1.4,0.4,1.4,0.9V118.3z"/>
<path class="st8" d="M563.7,140.9c0,0.5-0.6,0.9-1.4,0.9l0,0c-0.8,0-1.4-0.4-1.4-0.9v-10.4c0-0.5,0.6-0.9,1.4-0.9l0,0
	c0.8,0,1.4,0.4,1.4,0.9V140.9z"/>
<path class="st8" d="M563.7,163.5c0,0.5-0.6,0.9-1.4,0.9l0,0c-0.8,0-1.4-0.4-1.4-0.9v-10.4c0-0.5,0.6-0.9,1.4-0.9l0,0
	c0.8,0,1.4,0.4,1.4,0.9V163.5z"/>
<path class="st8" d="M563.7,50.5c0,0.5-0.6,0.9-1.4,0.9l0,0c-0.8,0-1.4-0.4-1.4-0.9V40.1c0-0.5,0.6-0.9,1.4-0.9l0,0
	c0.8,0,1.4,0.4,1.4,0.9V50.5z"/>
<path class="st8" d="M418.7,88.7c0,0.5-0.6,0.9-1.4,0.9l0,0c-0.8,0-1.4-0.4-1.4-0.9V78.3c0-0.5,0.6-0.9,1.4-0.9l0,0
	c0.8,0,1.4,0.4,1.4,0.9V88.7z"/>
<path class="st8" d="M418.7,110.1c0,0.5-0.6,0.9-1.4,0.9l0,0c-0.8,0-1.4-0.4-1.4-0.9V99.7c0-0.5,0.6-0.9,1.4-0.9l0,0
	c0.8,0,1.4,0.4,1.4,0.9V110.1z"/>
<path class="st8" d="M418.7,131.5c0,0.5-0.6,0.9-1.4,0.9l0,0c-0.8,0-1.4-0.4-1.4-0.9v-10.4c0-0.5,0.6-0.9,1.4-0.9l0,0
	c0.8,0,1.4,0.4,1.4,0.9V131.5z"/>
<path class="st8" d="M418.7,152.9c0,0.5-0.6,0.9-1.4,0.9l0,0c-0.8,0-1.4-0.4-1.4-0.9v-10.4c0-0.5,0.6-0.9,1.4-0.9l0,0
	c0.8,0,1.4,0.4,1.4,0.9V152.9z"/>
<path class="st8" d="M418.7,174.3c0,0.5-0.6,0.9-1.4,0.9l0,0c-0.8,0-1.4-0.4-1.4-0.9v-10.4c0-0.5,0.6-0.9,1.4-0.9l0,0
	c0.8,0,1.4,0.4,1.4,0.9V174.3z"/>
<path class="st8" d="M418.7,67.3c0,0.5-0.6,0.9-1.4,0.9l0,0c-0.8,0-1.4-0.4-1.4-0.9V56.9c0-0.5,0.6-0.9,1.4-0.9l0,0
	c0.8,0,1.4,0.4,1.4,0.9V67.3z"/>
<path class="st8" d="M418.7,45.9c0,0.5-0.6,0.9-1.4,0.9l0,0c-0.8,0-1.4-0.4-1.4-0.9V35.5c0-0.5,0.6-0.9,1.4-0.9l0,0
	c0.8,0,1.4,0.4,1.4,0.9V45.9z"/>
<path class="st8" d="M375,50.8c0,0.5-0.6,0.9-1.4,0.9l0,0c-0.8,0-1.4-0.4-1.4-0.9V40.4c0-0.5,0.6-0.9,1.4-0.9l0,0
	c0.8,0,1.4,0.4,1.4,0.9V50.8z"/>
<path class="st8" d="M375,92.8c0,0.5-0.6,0.9-1.4,0.9l0,0c-0.8,0-1.4-0.4-1.4-0.9V82.4c0-0.5,0.6-0.9,1.4-0.9l0,0
	c0.8,0,1.4,0.4,1.4,0.9V92.8z"/>
<path class="st8" d="M375,113.8c0,0.5-0.6,0.9-1.4,0.9l0,0c-0.8,0-1.4-0.4-1.4-0.9v-10.4c0-0.5,0.6-0.9,1.4-0.9l0,0
	c0.8,0,1.4,0.4,1.4,0.9V113.8z"/>
<path class="st8" d="M375,134.8c0,0.5-0.6,0.9-1.4,0.9l0,0c-0.8,0-1.4-0.4-1.4-0.9v-10.4c0-0.5,0.6-0.9,1.4-0.9l0,0
	c0.8,0,1.4,0.4,1.4,0.9V134.8z"/>
<path class="st8" d="M375,155.8c0,0.5-0.6,0.9-1.4,0.9l0,0c-0.8,0-1.4-0.4-1.4-0.9v-10.4c0-0.5,0.6-0.9,1.4-0.9l0,0
	c0.8,0,1.4,0.4,1.4,0.9V155.8z"/>
<path class="st8" d="M375,176.8c0,0.5-0.6,0.9-1.4,0.9l0,0c-0.8,0-1.4-0.4-1.4-0.9v-10.4c0-0.5,0.6-0.9,1.4-0.9l0,0
	c0.8,0,1.4,0.4,1.4,0.9V176.8z"/>
<path class="st8" d="M375,197.8c0,0.5-0.6,0.9-1.4,0.9l0,0c-0.8,0-1.4-0.4-1.4-0.9v-10.4c0-0.5,0.6-0.9,1.4-0.9l0,0
	c0.8,0,1.4,0.4,1.4,0.9V197.8z"/>
<path class="st8" d="M375,218.8c0,0.5-0.6,0.9-1.4,0.9l0,0c-0.8,0-1.4-0.4-1.4-0.9v-10.4c0-0.5,0.6-0.9,1.4-0.9l0,0
	c0.8,0,1.4,0.4,1.4,0.9V218.8z"/>
<path class="st8" d="M375,71.8c0,0.5-0.6,0.9-1.4,0.9l0,0c-0.8,0-1.4-0.4-1.4-0.9V61.4c0-0.5,0.6-0.9,1.4-0.9l0,0
	c0.8,0,1.4,0.4,1.4,0.9V71.8z"/>
<path class="st8" d="M599.7,63.5c0,0.5-0.6,0.9-1.4,0.9l0,0c-0.8,0-1.4-0.4-1.4-0.9V53.2c0-0.5,0.6-0.9,1.4-0.9l0,0
	c0.8,0,1.4,0.4,1.4,0.9V63.5z"/>
<path class="st8" d="M599.7,40.5c0,0.5-0.6,0.9-1.4,0.9l0,0c-0.8,0-1.4-0.4-1.4-0.9V30.1c0-0.5,0.6-0.9,1.4-0.9l0,0
	c0.8,0,1.4,0.4,1.4,0.9V40.5z"/>
<path class="st8" d="M599.7,84.6c0,0.5-0.6,0.9-1.4,0.9l0,0c-0.8,0-1.4-0.4-1.4-0.9V74.2c0-0.5,0.6-0.9,1.4-0.9l0,0
	c0.8,0,1.4,0.4,1.4,0.9V84.6z"/>
<path class="st8" d="M599.7,105.6c0,0.5-0.6,0.9-1.4,0.9l0,0c-0.8,0-1.4-0.4-1.4-0.9V95.2c0-0.5,0.6-0.9,1.4-0.9l0,0
	c0.8,0,1.4,0.4,1.4,0.9V105.6z"/>
<path class="st8" d="M599.7,126.6c0,0.5-0.6,0.9-1.4,0.9l0,0c-0.8,0-1.4-0.4-1.4-0.9v-10.4c0-0.5,0.6-0.9,1.4-0.9l0,0
	c0.8,0,1.4,0.4,1.4,0.9V126.6z"/>
<path class="st8" d="M599.7,147.6c0,0.5-0.6,0.9-1.4,0.9l0,0c-0.8,0-1.4-0.4-1.4-0.9v-10.4c0-0.5,0.6-0.9,1.4-0.9l0,0
	c0.8,0,1.4,0.4,1.4,0.9V147.6z"/>
<path class="st8" d="M599.7,168.6c0,0.5-0.6,0.9-1.4,0.9l0,0c-0.8,0-1.4-0.4-1.4-0.9v-10.4c0-0.5,0.6-0.9,1.4-0.9l0,0
	c0.8,0,1.4,0.4,1.4,0.9V168.6z"/>
<path class="st8" d="M599.7,189.6c0,0.5-0.6,0.9-1.4,0.9l0,0c-0.8,0-1.4-0.4-1.4-0.9v-10.4c0-0.5,0.6-0.9,1.4-0.9l0,0
	c0.8,0,1.4,0.4,1.4,0.9V189.6z"/>
<path class="st8" d="M634.5,57.8c0,0.5-0.6,0.9-1.4,0.9l0,0c-0.8,0-1.4-0.4-1.4-0.9V47.4c0-0.5,0.6-0.9,1.4-0.9l0,0
	c0.8,0,1.4,0.4,1.4,0.9V57.8z"/>
<path class="st8" d="M634.5,37.8c0,0.5-0.6,0.9-1.4,0.9l0,0c-0.8,0-1.4-0.4-1.4-0.9V27.4c0-0.5,0.6-0.9,1.4-0.9l0,0
	c0.8,0,1.4,0.4,1.4,0.9V37.8z"/>
<path class="st8" d="M634.5,80c0,0.5-0.6,0.9-1.4,0.9l0,0c-0.8,0-1.4-0.4-1.4-0.9V69.6c0-0.5,0.6-0.9,1.4-0.9l0,0
	c0.8,0,1.4,0.4,1.4,0.9V80z"/>
<path class="st8" d="M634.5,102.2c0,0.5-0.6,0.9-1.4,0.9l0,0c-0.8,0-1.4-0.4-1.4-0.9V91.9c0-0.5,0.6-0.9,1.4-0.9l0,0
	c0.8,0,1.4,0.4,1.4,0.9V102.2z"/>
<path class="st8" d="M634.5,124.5c0,0.5-0.6,0.9-1.4,0.9l0,0c-0.8,0-1.4-0.4-1.4-0.9v-10.4c0-0.5,0.6-0.9,1.4-0.9l0,0
	c0.8,0,1.4,0.4,1.4,0.9V124.5z"/>
<path class="st8" d="M634.5,146.7c0,0.5-0.6,0.9-1.4,0.9l0,0c-0.8,0-1.4-0.4-1.4-0.9v-10.4c0-0.5,0.6-0.9,1.4-0.9l0,0
	c0.8,0,1.4,0.4,1.4,0.9V146.7z"/>
<path class="st8" d="M634.5,168.9c0,0.5-0.6,0.9-1.4,0.9l0,0c-0.8,0-1.4-0.4-1.4-0.9v-10.4c0-0.5,0.6-0.9,1.4-0.9l0,0
	c0.8,0,1.4,0.4,1.4,0.9V168.9z"/>
<path class="st8" d="M634.5,191.1c0,0.5-0.6,0.9-1.4,0.9l0,0c-0.8,0-1.4-0.4-1.4-0.9v-10.4c0-0.5,0.6-0.9,1.4-0.9l0,0
	c0.8,0,1.4,0.4,1.4,0.9V191.1z"/>
<path class="st8" d="M509.9,34.7c0,0.5-0.6,0.9-1.4,0.9l0,0c-0.8,0-1.4-0.4-1.4-0.9V24.3c0-0.5,0.6-0.9,1.4-0.9l0,0
	c0.8,0,1.4,0.4,1.4,0.9V34.7z"/>
<path class="st8" d="M507.1-31.2v2.9c0,0.5,0.6,0.9,1.4,0.9s1.4-0.4,1.4-0.9v-2.9H507.1z"/>
<path class="st8" d="M509.9-8.3c0,0.5-0.6,0.9-1.4,0.9l0,0c-0.8,0-1.4-0.4-1.4-0.9v-10.4c0-0.5,0.6-0.9,1.4-0.9l0,0
	c0.8,0,1.4,0.4,1.4,0.9V-8.3z"/>
<path class="st8" d="M509.9,12c0,0.5-0.6,0.9-1.4,0.9l0,0c-0.8,0-1.4-0.4-1.4-0.9V1.6c0-0.5,0.6-0.9,1.4-0.9l0,0
	c0.8,0,1.4,0.4,1.4,0.9V12z"/>
<path class="st8" d="M459.5,1.3c0,0.5-0.6,0.9-1.4,0.9l0,0c-0.8,0-1.4-0.4-1.4-0.9V-9.1c0-0.5,0.6-0.9,1.4-0.9l0,0
	c0.8,0,1.4,0.4,1.4,0.9V1.3z"/>
<path class="st8" d="M459.5,23.9c0,0.5-0.6,0.9-1.4,0.9l0,0c-0.8,0-1.4-0.4-1.4-0.9V13.5c0-0.5,0.6-0.9,1.4-0.9l0,0
	c0.8,0,1.4,0.4,1.4,0.9V23.9z"/>
<path class="st8" d="M456.7-31.2v9.8c0,0.5,0.6,0.9,1.4,0.9s1.4-0.4,1.4-0.9v-9.8H456.7z"/>
<path class="st8" d="M563.7,9.1c0,0.5-0.6,0.9-1.4,0.9l0,0c-0.8,0-1.4-0.4-1.4-0.9V-1.3c0-0.5,0.6-0.9,1.4-0.9l0,0
	c0.8,0,1.4,0.4,1.4,0.9V9.1z"/>
<path class="st8" d="M563.7,29.7c0,0.5-0.6,0.9-1.4,0.9l0,0c-0.8,0-1.4-0.4-1.4-0.9V19.3c0-0.5,0.6-0.9,1.4-0.9l0,0
	c0.8,0,1.4,0.4,1.4,0.9V29.7z"/>
<path class="st8" d="M563.7-13.5c0,0.5-0.6,0.9-1.4,0.9l0,0c-0.8,0-1.4-0.4-1.4-0.9v-10.4c0-0.5,0.6-0.9,1.4-0.9l0,0
	c0.8,0,1.4,0.4,1.4,0.9V-13.5z"/>
<path class="st8" d="M418.7,24.6c0,0.5-0.6,0.9-1.4,0.9l0,0c-0.8,0-1.4-0.4-1.4-0.9V14.2c0-0.5,0.6-0.9,1.4-0.9l0,0
	c0.8,0,1.4,0.4,1.4,0.9V24.6z"/>
<path class="st8" d="M418.7,3.2c0,0.5-0.6,0.9-1.4,0.9l0,0c-0.8,0-1.4-0.4-1.4-0.9V-7.2c0-0.5,0.6-0.9,1.4-0.9l0,0
	c0.8,0,1.4,0.4,1.4,0.9V3.2z"/>
<path class="st8" d="M418.7-18.2c0,0.5-0.6,0.9-1.4,0.9l0,0c-0.8,0-1.4-0.4-1.4-0.9v-10.4c0-0.5,0.6-0.9,1.4-0.9l0,0
	c0.8,0,1.4,0.4,1.4,0.9V-18.2z"/>
<path class="st8" d="M375-13.3c0,0.5-0.6,0.9-1.4,0.9l0,0c-0.8,0-1.4-0.4-1.4-0.9v-10.4c0-0.5,0.6-0.9,1.4-0.9l0,0
	c0.8,0,1.4,0.4,1.4,0.9V-13.3z"/>
<path class="st8" d="M375,28.7c0,0.5-0.6,0.9-1.4,0.9l0,0c-0.8,0-1.4-0.4-1.4-0.9V18.3c0-0.5,0.6-0.9,1.4-0.9l0,0
	c0.8,0,1.4,0.4,1.4,0.9V28.7z"/>
<path class="st8" d="M375,7.7c0,0.5-0.6,0.9-1.4,0.9l0,0c-0.8,0-1.4-0.4-1.4-0.9V-2.7c0-0.5,0.6-0.9,1.4-0.9l0,0
	c0.8,0,1.4,0.4,1.4,0.9V7.7z"/>
<path class="st8" d="M599.7-0.5c0,0.5-0.6,0.9-1.4,0.9l0,0c-0.8,0-1.4-0.4-1.4-0.9v-10.4c0-0.5,0.6-0.9,1.4-0.9l0,0
	c0.8,0,1.4,0.4,1.4,0.9V-0.5z"/>
<path class="st8" d="M599.7,20.5c0,0.5-0.6,0.9-1.4,0.9l0,0c-0.8,0-1.4-0.4-1.4-0.9V10.1c0-0.5,0.6-0.9,1.4-0.9l0,0
	c0.8,0,1.4,0.4,1.4,0.9V20.5z"/>
<path class="st8" d="M597-31.2v9.7c0,0.5,0.6,0.9,1.4,0.9c0.8,0,1.4-0.4,1.4-0.9v-9.7H597z"/>
<path class="st8" d="M634.5-6.3c0,0.5-0.6,0.9-1.4,0.9l0,0c-0.8,0-1.4-0.4-1.4-0.9v-10.4c0-0.5,0.6-0.9,1.4-0.9l0,0
	c0.8,0,1.4,0.4,1.4,0.9V-6.3z"/>
<path class="st8" d="M634.5,16c0,0.5-0.6,0.9-1.4,0.9l0,0c-0.8,0-1.4-0.4-1.4-0.9V5.6c0-0.5,0.6-0.9,1.4-0.9l0,0
	c0.8,0,1.4,0.4,1.4,0.9V16z"/>
<path class="st8" d="M631.8-31.2v2.7c0,0.5,0.6,0.9,1.4,0.9s1.4-0.4,1.4-0.9v-2.7H631.8z"/>
<path class="st8" d="M634.5,213.3c0,0.5-0.6,0.9-1.4,0.9l0,0c-0.8,0-1.4-0.4-1.4-0.9V203c0-0.5,0.6-0.9,1.4-0.9l0,0
	c0.8,0,1.4,0.4,1.4,0.9V213.3z"/>
<path class="st8" d="M634.5,235.6c0,0.5-0.6,0.9-1.4,0.9l0,0c-0.8,0-1.4-0.4-1.4-0.9v-10.4c0-0.5,0.6-0.9,1.4-0.9l0,0
	c0.8,0,1.4,0.4,1.4,0.9V235.6z"/>
<path class="st8" d="M646.2,244.4c-0.4-0.3-0.3-1.1,0.2-1.7l0,0c0.5-0.6,1.2-0.8,1.6-0.4l8,6.7c0.4,0.3,0.3,1.1-0.2,1.7l0,0
	c-0.5,0.6-1.2,0.8-1.6,0.4L646.2,244.4z"/>
<path class="st8" d="M413.9,174.4c0.4,0.3,0.4,1,0,1.7l0,0c-0.4,0.6-1.1,0.9-1.5,0.6l-8.6-5.7c-0.4-0.3-0.4-1,0-1.7l0,0
	c0.4-0.6,1.1-0.9,1.5-0.6L413.9,174.4z"/>
<path class="st8" d="M510.1,151.3c-0.4,0.4-1.1,0.2-1.6-0.3l0,0c-0.5-0.5-0.7-1.3-0.3-1.6l4.8-4.8c0.4-0.4,1.1-0.2,1.6,0.3l0,0
	c0.5,0.5,0.7,1.3,0.3,1.6L510.1,151.3z"/>
<path class="st8" d="M521,142.5c-0.5,0.2-1.1-0.2-1.4-0.9l0,0c-0.3-0.7-0.1-1.4,0.4-1.6l6.3-2.4c0.5-0.2,1.1,0.2,1.4,0.9l0,0
	c0.3,0.7,0.1,1.4-0.4,1.6L521,142.5z"/>
<path class="st8" d="M566,166c-0.3,0.4-1.1,0.3-1.7-0.1l0,0c-0.6-0.5-0.8-1.2-0.5-1.6l4.3-5.2c0.3-0.4,1.1-0.3,1.7,0.1l0,0
	c0.6,0.5,0.8,1.2,0.5,1.6L566,166z"/>
<path class="st8" d="M509.9,150.6c0,0.5-0.6,0.9-1.4,0.9l0,0c-0.8,0-1.4-0.4-1.4-0.9v-4c0-0.5,0.6-0.9,1.4-0.9l0,0
	c0.8,0,1.4,0.4,1.4,0.9V150.6z"/>
<path class="st8" d="M534.1,137.5c0,0,4.5-3.7,10.7-2.9c5.2,0.7,3.9,5.3,1.7,5.7C541.3,141.3,540.4,136.7,534.1,137.5z"/>
<path class="st8" d="M632.5,237.2c-0.5-0.2-0.6-1-0.2-1.6l0,0c0.3-0.7,1-1,1.5-0.8l6.1,3c0.5,0.2,0.6,1,0.2,1.6l0,0
	c-0.3,0.7-1,1-1.5,0.8L632.5,237.2z"/>
<path class="st8" d="M661.9,256.2c0,0,5.7,1.4,8.6,6.9c2.5,4.6-2,6.2-3.6,4.7C663.1,264.2,666.3,260.7,661.9,256.2z"/>
<path class="st8" d="M572.9,155.9c0,0,1.2-5.1,5.9-7.1c4-1.6,5.5,2.8,4.2,4.1C579.9,156,576.8,152.5,572.9,155.9z"/>
<path class="st8" d="M399.7,166.6c0,0-2.7-3.7-7.2-3.5c-3.7,0.2-3.3,4.3-1.9,4.9C394.2,169.3,395.4,165.3,399.7,166.6z"/>
</svg>
