<?xml version="1.0" encoding="utf-8"?>
<!-- Generator: Adobe Illustrator 19.2.1, SVG Export Plug-In . SVG Version: 6.00 Build 0)  -->
<svg version="1.1" id="Layer_1" xmlns="http://www.w3.org/2000/svg" xmlns:xlink="http://www.w3.org/1999/xlink" x="0px" y="0px"
	 viewBox="0 0 960 480" style="enable-background:new 0 0 960 480;" xml:space="preserve">
<style type="text/css">
	.st0{fill:#C9B495;}
	.st1{fill:#A42C2B;}
	.st2{fill:#4C8E9C;}
	.st3{fill:#D0453E;}
	.st4{fill:#63B0C2;}
	.st5{fill:#7EB851;}
	.st6{fill:#772026;}
	.st7{fill:#2F5967;}
	.st8{fill:#5A733C;}
	.st9{fill:#6D974B;}
	.st10{fill:#181818;}
	.st11{fill:#121413;}
	.st12{fill:#7FB650;}
	.st13{fill:#1D1C1B;}
	.st14{fill:#F8F9F9;}
	.st15{fill:#9D8173;}
</style>
<path class="st0" d="M-11.5,494.6c0-167.5,0-335,0-502.6c327.8,0,655.6,0,983.4,0c0,167.5,0,335,0,502.6
	C644.1,494.6,316.3,494.6-11.5,494.6z"/>
<g>
	<path class="st1" d="M592.9,80.8c0,0.7,0.1,1.4,0.1,2.1c0,42,0,84,0,126.1c0,0.8,0,1.5,0,2.3c0,3,0,6,0.1,9.1
		c0,0.5-0.1,1.1-0.1,1.6c0,9.1,0,18.3,0,27.4c0,0.5,0,1.1,0.1,1.6c0,0.1,0,0.1,0,0.2c0,0-0.1,0.1-0.1,0.1c0,0.1,0,0.1,0,0.2
		c0,0.8,0,1.6,0,2.4c0,13.1,0,26.1,0,39.2c0,1.3-0.1,2.6,0,3.9c0,0.7-0.2,1.1-0.8,1.4c-1,0.5-2,1.1-3,1.7c-0.7-0.8-1.2-1.8-1.8-2.8
		c-0.3-0.4-0.3-0.9-0.3-1.5c-0.1-2.6-0.1-5.1-0.3-7.7c-0.2-3.7-0.2-7.3-0.5-11c-0.2-2.6,0-5.2-0.4-7.8c-0.1-0.4,0.1-0.8,0.3-1.1
		c0.7-1.3,0.7-2.6,0.4-4c-0.6-2.4-1.3-4.7-1.9-7.1c0.3-0.5,0.3-1.1,0.3-1.6c0-3.4-0.3-6.7-0.5-10c-0.2-3-0.6-6.1-0.9-9.1
		c-0.6-4.9-1.4-9.7-2.8-14.4c-0.8-2.8-1.8-5.6-3.5-8.1c-1.4-2.1-3.3-3.4-6-3.4c-0.7,0-1.2,0.2-1.5,0.8c-0.7,1.5-1.8,2.8-2.8,4.1
		c-0.8,1.1-1.6,2.3-2.8,3.2c-0.3-1-0.1-1.9-0.1-2.8c0-0.4,0.1-0.9-0.4-1c-0.5-0.2-1-0.1-1.3,0.4c-0.3,0.4-0.6,0.8-0.8,1.3
		c-1.8,3.6-3.1,7.4-2.9,11.5c0.1,2,0.1,4,0.2,6c0.2,2.9,0,5.9,0.1,8.9c0,0.7-0.3,1.1-0.9,1.3c-4.2,1.6-8.4,3.2-12.6,4.8
		c-0.9-0.4-1.8-0.7-2.6-1.1c-1.2-0.5-2.4-0.8-3.8-0.8c-1.2,0-2.1,0.5-2.7,1.6c-0.7,1.2-1,2.5-1,3.9c0,1.7,0.7,2.6,2.3,3.1
		c2.5,0.7,5.1,1.1,7.7,1.1c0.6,0,1.3,0.1,1.9,0c5.5-1.1,10.9-2.3,16.1-4.5c0.8-0.4,1-0.2,1.2,0.9c0.3,1.8,0.8,3.5,1.4,5.2
		c0.2,0.5,0.3,0.9,0.3,1.5c-0.3,0.5-0.5,1.1-0.8,1.6c-4.1,7.3-8.3,14.5-12.4,21.8c-1.5,2.7-2.9,5.3-3.4,8.4
		c-1,6.5-1.6,13.1-2.1,19.7c-0.1,1.6-0.2,3.2-0.3,4.8c-0.2,2.5-0.4,4.9-0.4,7.5c-1.6,0.2-3.2,0.1-4.8,0.1c-0.5,0-1.1,0-1.6,0.1
		c-0.9,0.3-1.4,0.7-1.4,1.4c0,0.6,0.6,1.4,1.4,1.6c0.5,0.1,1,0.2,1.5,0.3c-3.3,2.1-6.8,4-10.2,5.9c-2,1.1-3.9,2.4-6,3.3
		c0-0.7,0-1.3,0-2c0-46.9,0-93.8,0-140.6c0-0.6-0.1-1.3-0.1-1.9c0-0.3,0-0.6,0-0.9c0-0.2,0-0.4,0-0.6c0-23.9,0-47.8,0-71.7
		c0-0.1,0-0.2,0-0.3c0.6-0.1,1.2,0,1.7-0.3c2.7-1.4,5.2-3,7.8-4.4c2.4-1.3,4.8-2.6,7.1-4.2c0.5-0.4,1.2-0.5,1.7-0.9
		c1.9-1.3,3.9-2.3,5.9-3.5c2.1-1.2,4.3-2.3,6.4-3.6c1.9-1.2,4-2.3,6-3.4c2.3-1.3,4.4-2.6,6.7-3.9c2.4-1.3,4.8-2.6,7.1-4.1
		c0.5-0.3,1.1-0.5,1.6-0.8c1.8-1.3,3.9-2.2,5.8-3.4c2.5-1.6,5.2-2.8,7.8-4.5C591.4,81.1,592.1,80.8,592.9,80.8z M572,196.2
		c0.1-1.5-0.2-2.9-1.1-4.1c-2.6-3.6-8.1-4.8-12.2-3c-3.6,1.7-5.4,6.6-4,9.5c0.7,1.5,0.4,2.9,0.1,4.4c-0.1,0.5-0.3,1.1-0.4,1.6
		c-0.2,0.9,0.2,1.5,1.1,1.3c1.1-0.3,1.3,0.3,1.6,1c0.3,0.9,0.8,1.7,1,2.6c0.2,1.2,1,1.6,2.4,1.5c3.9-0.4,7-2.3,9.5-5.2
		c0.6-0.6,1.1-1.3,1.2-2.2C571.4,201.2,571.7,198.7,572,196.2z"/>
	<path class="st2" d="M525.2,191.8c0,0.6,0.1,1.3,0.1,1.9c0,46.9,0,93.8,0,140.6c0,0.7,0,1.3,0,2c-1.8,1.3-3.8,2.3-5.8,3.3
		c-0.6-3.5-0.8-7-1.2-10.6c-0.5-4.4-0.9-8.8-1.4-13.3c-0.1-0.8,0.1-1.7-0.5-2.5c0.4-1.2,0.5-2.5,0.6-3.8c0.1-1.6,0.2-3.3,0.4-4.9
		c0.4-2.9,0.2-5.8,0.4-8.7c0.3-3.6-0.2-7.3-0.5-10.9c-0.2-2.8-0.9-5.5-1.8-8.2c-0.9-2.5-2.5-4.3-5.2-4.9c-1-0.2-1.3-0.1-1.8,0.8
		c-0.6,1-1.3,2-2,3c-1.2,1.8-2.7,3.2-4.2,4.6c-0.3,0.3-0.8,0.6-1.2,0.4c-0.5-0.3-0.2-0.8-0.1-1.2c0.3-1,0.8-1.8,1.2-2.7
		c0.2-0.5,0.4-0.9,0.3-1.4c-0.1-0.7-0.7-0.9-1.2-0.6c-0.5,0.3-0.9,0.7-1.1,1.2c-0.3,0.6-0.8,0.8-1.4,1c-5.2,0.9-10.4,1.8-15.6,2.7
		c-2.3,0.4-2.2,0.4-3.1-1.8c-1.5-3.6-3-7.1-4.5-10.7c-0.2-0.4-0.2-0.9-0.8-0.9c0-0.1,0.1-0.1,0.1-0.1c0-0.4,0.1-0.9-0.6-0.6
		c-1-1.5-1.6-3.2-2.5-4.8c-1-1.7-2-2.1-3.8-1.2c-0.4,0.2-0.8,0.4-1.2,0.7c-1.5,1.1-1.7,2-0.9,3.6c0.3,0.6,0.8,1.2,1.2,1.7
		c0.6,0.9,1.3,1.7,1.9,2.7c-0.1,0.5,0,0.9,0.2,1.3c1.3,3.5,2.7,6.9,4.4,10.3c0.2,0.4,0.5,0.9,0.5,1.4c-1.9,0.7-2.6,2.2-2.9,4
		c-0.2,0.9,0.1,1.6,0.9,2c2.1,1,4.2,1.9,6.5,2.2c1.2,1.1,2.7,1.7,4,2.7c2.9,2.2,6,4.1,9.3,5.7c1.8,0.8,3.6,1.6,5.6,0.7
		c0.4-0.2,0.7-0.1,0.8,0.4c0.1,0.3,0.2,0.7,0.3,1c0.5,2.7,1,5.4,1.4,8.1c0.3,1.8,0.8,3.6,0.8,5.5c-0.1,4.4-0.7,8.7-1,13
		c-0.4,5.3-0.9,10.7-1.4,16c-0.3,3.3-0.6,6.7-1,10c-4,2.3-8,4.5-12,6.8c-6,3.4-12,6.9-18,10.3c-1.7,1-3.3,2-5.1,2.8
		c-0.1-0.2-0.2-0.3-0.3-0.5c-1.1-3.6-2.2-7.2-3.6-10.8c-0.1-0.3-0.1-0.6-0.1-0.9c0-0.2,0.1-0.5,0.1-0.7c0-18.8,0-37.6,0-56.4
		c0-0.4,0.1-0.9-0.3-1.3c0-0.1,0-0.1,0-0.2c0.4-0.4,0.3-0.9,0.3-1.4c0-23,0-46,0-69c0-0.6,0-1.1-0.3-1.6c0.6,0,1.1-0.2,1.5-0.5
		c1.1-0.7,2.2-1.3,3.4-1.9c3.8-2.2,7.6-4.3,11.3-6.5c3.9-2.3,7.9-4.5,11.8-6.8c3.8-2.2,7.6-4.3,11.3-6.5c3.9-2.3,7.9-4.5,11.8-6.8
		c3.2-1.8,6.3-3.7,9.5-5.4C520.8,194.2,522.8,192.7,525.2,191.8z M515.3,261.9C515.3,261.9,515.3,261.9,515.3,261.9
		c0-1.9,0-3.7,0.1-5.6c0-1.5-0.4-2.8-1.2-3.9c-2.2-3.3-7.5-4.8-11.2-3.3c-2.6,1.1-5,4.4-4.6,7c0.4,2.3,0,4.3-0.9,6.2
		c-0.6,1.3-0.4,1.6,0.9,1.8c0.5,0.1,0.8,0.2,0.9,0.8c0.2,0.9,0.4,1.8,0.5,2.8c0.1,1.4,0.7,1.9,2.1,1.9c1,0,1.9,0.1,2.8-0.1
		c1.8-0.5,3.7-0.5,5.5-0.5c1.3,0,2.5,0,3.8,0c1.2,0,1.2,0,1.2-1.3C515.3,265.7,515.3,263.8,515.3,261.9z"/>
	<path class="st3" d="M592.9,80.8c-0.8,0.1-1.4,0.4-2.1,0.8c-2.5,1.6-5.2,2.9-7.8,4.5c-1.9,1.2-4,2.1-5.8,3.4
		c-0.5,0.3-1.1,0.5-1.6,0.8c-2.3,1.5-4.7,2.9-7.1,4.1c-2.3,1.2-4.5,2.6-6.7,3.9c-2,1.1-4,2.2-6,3.4c-2.1,1.3-4.3,2.3-6.4,3.6
		c-2,1.2-4,2.1-5.9,3.5c-0.5,0.4-1.2,0.5-1.7,0.9c-2.3,1.5-4.7,2.9-7.1,4.2c-2.6,1.4-5.1,3-7.8,4.4c-0.6,0.3-1.2,0.3-1.7,0.3
		c-1.4-0.8-2.8-1.6-4.1-2.4c-4.5-2.5-9-5.1-13.4-7.6c-4.1-2.3-8.1-4.7-12.2-7c-3.4-1.9-6.8-3.8-10.2-5.8c-3.3-1.9-6.6-3.8-9.9-5.7
		c-3.9-2.3-7.9-4.6-11.9-6.8c-1.6-0.9-3-2-4.8-2.4c-0.3-0.7,0.1-1,0.6-1.3c2.4-1.3,4.7-2.7,7.1-4c8.2-4.7,16.4-9.4,24.5-14
		c7.3-4.2,14.6-8.4,21.9-12.5c3.9-2.2,7.8-4.4,11.6-6.7c1-0.6,1.8-0.6,2.9,0c11.9,6.8,23.7,13.6,35.6,20.4c8.8,5,17.6,10,26.4,15.1
		c1.1,0.6,2.1,1.3,3.3,1.9C593.4,79.9,593.3,80.3,592.9,80.8z"/>
	<path class="st4" d="M525.2,191.8c-2.3,0.9-4.4,2.4-6.6,3.6c-3.2,1.8-6.3,3.6-9.5,5.4c-3.9,2.3-7.9,4.5-11.8,6.8
		c-3.8,2.2-7.6,4.3-11.3,6.5c-3.9,2.3-7.9,4.5-11.8,6.8c-3.8,2.2-7.6,4.3-11.3,6.5c-1.1,0.6-2.3,1.3-3.4,1.9c-0.5,0.3-1,0.5-1.5,0.5
		c-6.8-3.9-13.7-7.8-20.5-11.7c-6.7-3.8-13.4-7.7-20.1-11.5c-6.7-3.8-13.4-7.7-20.1-11.5c-2.2-1.2-4.3-2.7-6.6-3.6
		c0.9-1,2.2-1.4,3.3-2.1c8.8-5.1,17.6-10.1,26.4-15.1c0.4-0.2,0.8-0.5,1.2-0.8c0.3-0.1,0.5-0.3,0.8-0.4c5.6-3.2,11.2-6.4,16.8-9.6
		c2.7-1.6,5.5-3,8.2-4.8c1.8-0.7,3.3-1.8,5-2.7c1.9-1,3.7-2.3,5.6-3.1c0.2,0.7,0.9,0.8,1.4,1.1c17.1,9.6,34.2,19.2,51.3,28.7
		c4.9,2.7,9.8,5.5,14.7,8.2C525.2,191.3,525.2,191.5,525.2,191.8z"/>
	<path class="st5" d="M457.8,301.8c0,0.1,0,0.1,0,0.2c-1.6,1.4-3.6,2.3-5.5,3.3c-6.7,3.9-13.4,7.6-20,11.5c-0.9,0.5-2,0.7-2.5,1.8
		c-0.2,0-0.4,0-0.6,0.1c-0.4-0.1-0.9-0.1-1.2,0.2c-2.6,0.4-4.4,1.8-5.8,4c-0.4,0-0.7,0.1-1,0.3c-3.7,2.1-7.4,4.3-11.1,6.4
		c-6.1,3.5-12.2,6.9-18.3,10.4c-0.4,0.2-0.8,0.4-1.2,0.4c-3.7-2.1-7.4-4.2-11.1-6.3c-4.7-2.6-9.3-5.3-14-8
		c-3.8-2.2-7.6-4.3-11.4-6.5c-4.7-2.7-9.3-5.3-14-8c-3.9-2.2-7.7-4.5-11.6-6.6c-1.8-1-3.5-2.2-5.4-2.9c0.2-0.5,0.7-0.6,1.2-0.9
		c5.3-3.1,10.6-6.1,16-9.1c2.4-1.4,4.8-2.7,7.2-4.1c0.4-0.2,0.8-0.5,1.3-0.8c6-3.4,11.9-6.8,17.9-10.2c0.2-0.1,0.4-0.3,0.5-0.5
		c1.3-0.3,2.3-1.1,3.5-1.8c4.7-2.6,9.3-5.3,13.9-8c1.8-1,3.6-2.2,5.5-3c0.2,0.3,0.5,0.6,0.9,0.8c1.7,0.9,3.3,1.9,5,2.8
		c5.4,3,10.8,6.1,16.3,9.1c7.1,4,14.2,8,21.4,12c4.6,2.6,9.3,5.2,13.9,7.8C451,298,454.4,299.9,457.8,301.8z"/>
	<path class="st6" d="M525.2,191c-4.9-2.7-9.8-5.4-14.7-8.2c-17.1-9.6-34.2-19.2-51.3-28.7c-0.5-0.3-1.1-0.4-1.4-1.1
		c0-0.4,0-0.7,0-1c0.1-16.3,0.1-32.6,0.2-48.8c0-7,0-14,0.1-21c0-0.5-0.3-1.2,0.6-1.3c1.8,0.4,3.2,1.5,4.8,2.4
		c4,2.2,7.9,4.5,11.9,6.8c3.3,1.9,6.6,3.8,9.9,5.7c3.4,1.9,6.8,3.8,10.2,5.8c4.1,2.3,8.1,4.7,12.2,7c4.5,2.6,9,5.1,13.4,7.6
		c1.4,0.8,2.8,1.6,4.1,2.4c0,0.1,0,0.2,0,0.3c0,23.9,0,47.8,0,71.7C525.3,190.6,525.2,190.8,525.2,191z"/>
	<path class="st7" d="M457.8,301.8c-3.4-1.9-6.8-3.8-10.2-5.7c-4.6-2.6-9.3-5.2-13.9-7.8c-7.1-4-14.2-8-21.4-12
		c-5.4-3-10.8-6.1-16.3-9.1c-1.7-0.9-3.3-1.9-5-2.8c-0.4-0.2-0.7-0.4-0.9-0.8c0-0.3,0.1-0.7,0.1-1c0-6,0-12,0-18c0-0.6,0-1.2,0-1.8
		c0-1,0-1.9,0-2.9c0-0.7,0-1.3,0-2c0-4,0-8.1-0.1-12.1c0-1.3,0.1-2.6,0.1-3.9c0-9.7,0-19.3,0.1-29c0-0.5,0-1,0.1-1.5
		c2.3,0.9,4.4,2.4,6.6,3.6c6.7,3.8,13.4,7.7,20.1,11.5c6.7,3.8,13.4,7.7,20.1,11.5c6.8,3.9,13.7,7.8,20.5,11.7
		c0.3,0.5,0.3,1,0.3,1.6c0,23,0,46,0,69C458.1,300.9,458.2,301.4,457.8,301.8z"/>
	<path class="st8" d="M323.3,302c1.9,0.8,3.6,1.9,5.4,2.9c3.9,2.2,7.7,4.4,11.6,6.6c4.6,2.7,9.3,5.3,14,8c3.8,2.2,7.6,4.3,11.4,6.5
		c4.7,2.7,9.3,5.3,14,8c3.7,2.1,7.4,4.2,11.1,6.3c0,0.7,0,1.3,0,2c0,22.6,0,45.3,0,67.9c0,0.7,0,1.4,0,2.1c0,0,0,0,0,0
		c-0.1,0-0.2,0-0.3,0c-4.8-2.7-9.6-5.3-14.3-8c-6.4-3.6-12.8-7.2-19.1-10.7c-0.5-0.3-1.2-0.5-1.5-1.2c0.8-0.1,1.5,0.5,2.3,0.3
		c0.2,0.1,0.3,0.3,0.5,0.3c2.3,0.1,4.7,0,7-0.5c1.6-0.4,2.1-1,2.2-2.6c0.1-1-0.2-2-0.5-2.9c-0.4-1.3-1.3-1.9-2.6-2
		c-1.4-0.1-2.8,0.3-4.1,0.8c-0.6,0.2-1.1,0.4-1.7,0.4c-0.1-0.8-0.8-0.8-1.4-0.9c-2.9-0.5-5.3-2-7.9-3.2c-2.9-1.3-3-1.6-2.2-4.6
		c0,0,0.1-0.1,0.1-0.1c0.4,0,0.5,0.3,0.7,0.5c1.5,1.2,2.9,2.5,4.4,3.6c1.9,1.4,3.8,1.4,5.8,0.5c1.5-0.7,2.9-1.4,4.2-2.3
		c3.7-2.3,7.1-5.1,10.8-7.3c0.4-0.2,0.9-0.5,1-1.1c0.4,0.3,0.7,0.2,1.1,0c1.1-0.4,2.3-0.8,3.4-1.2c0.7-0.3,1.5-0.6,2.2-1
		c1.1-0.6,1.6-1.5,1.4-2.8c-0.3-1.4-0.9-2.8-2-3.8c-0.7-0.7-1.6-1.1-2.6-0.6c-2.2,1-4.3,2.2-6.2,3.6c-0.7-0.1-1.2,0.4-1.7,0.8
		c-3.8,2.5-7.9,4.5-11.9,6.7c-1,0.5-1,0.5-1.7-0.4c-1.9-2.7-3.8-5.4-5.8-8c-0.6-0.8-0.9-1.6-1.1-2.6c-0.1-0.7-0.2-1.5-0.4-2.2
		c-0.5-1.9-1.3-3.7-2.5-5.5c-0.9,1.6-0.1,3.3-0.6,4.9c-0.3-0.4-0.6-0.6-0.8-0.9c-1.5-2.2-3.1-4.3-4.3-6.7c-0.2-0.4-0.4-0.9-1-1
		c-1.2-0.1-2.3,0-3.3,0.7c-1.5,1-2.5,2.2-3.5,3.7c-1.6,2.5-2.6,5.3-3.6,8.1c-1.4,3.9-2.4,7.9-3.2,11.9c-0.1,0.4-0.2,0.8-0.6,1
		c-2.9-1.6-2.4-0.7-2.4-3.9c0-12,0-23.9,0-35.9c0-1.4,0.2-2.9,0.3-4.3c0.2,0,0.5-0.1,0.7-0.1c1.5,0.4,3.1,0.3,4.6,0.2
		c1.5,0,2-0.4,2.4-1.8c0.4-1.3,0.4-2.6,0.1-3.9c-0.2-1-0.8-1.6-1.7-1.9c-1.1-0.4-2.3-0.3-3.4-0.2c-0.9,0.1-1.8,0.5-2.8,0.4
		c0-0.2-0.1-0.4-0.1-0.7c0.1-1.2,0.1-2.3,0-3.5c0.2-2.9,0.1-5.9,0.1-8.8C323.2,308.4,323.3,305.2,323.3,302z M347.8,333.1
		c-2.1,0.2-4.4,0.8-6.2,2.7c-1.5,1.5-2.2,3.2-1.8,5.5c0.3,1.8,0.7,3.5,0.9,5.3c0.2,1.7,1.2,2.8,2.3,3.9c0.3,0.3,0.7,0.6,1.1,0.8
		c2.2,1.5,4.5,2.6,7.2,2.6c1.1,0,1.8-0.4,1.9-1.5c0.1-0.9,0.6-1.6,0.7-2.4c0.1-0.6,0.5-0.9,1.1-0.9c1.1-0.1,1.4-0.5,1.1-1.6
		c-0.1-0.3-0.2-0.7-0.3-1c-0.5-1.5-0.7-3-0.1-4.6c0.3-0.8,0.3-1.6,0.1-2.4C355.3,335.6,352.2,333.1,347.8,333.1z"/>
	<path class="st9" d="M390.7,412.3c0-0.7,0-1.4,0-2.1c0-22.6,0-45.3,0-67.9c0-0.7,0-1.3,0-2c0.5,0,0.8-0.2,1.2-0.4
		c6.1-3.5,12.2-6.9,18.3-10.4c3.7-2.1,7.4-4.2,11.1-6.4c0.3-0.2,0.6-0.3,1-0.3c-0.7,2-1.2,4-0.2,6c0.6,1.2,0.7,2.4,0.6,3.7
		c-0.1,0.6-0.2,1.2-0.3,1.8c-0.1,0.9,0.3,1.5,1.1,1.3c0.9-0.2,1.3,0.3,1.6,0.9c0.3,0.5,0.5,1,0.7,1.5c0.8,1.8,1.3,2.1,3.2,1.6
		c2.9-0.7,5.2-2.4,7.1-4.8c1-1.3,1.6-2.7,1.5-4.4c-0.1-1.6,0-3.3,0-5c0.1-2.3-1-3.9-2.8-5.2c-1.5-1.1-3.3-1.4-5.1-1.6
		c0.5-1.1,1.6-1.3,2.5-1.8c6.7-3.9,13.4-7.6,20-11.5c1.9-1.1,3.8-1.9,5.5-3.3c0.4,0.4,0.3,0.8,0.3,1.3c0,18.8,0,37.6,0,56.4
		c0,0.2,0,0.5-0.1,0.7c-0.3-0.3-0.4-0.7-0.5-1.1c-2.1-5.2-4.1-10.5-6.9-15.5c-1.5-2.7-3.2-5.3-5.5-7.5c-1.6-1.6-3.5-2.1-5.6-1.9
		c-0.4,0-0.8,0.2-0.9,0.6c-0.4,1.7-1.3,3.2-2,4.9c-0.6,1.4-1.1,2.8-2.1,3.9c-0.9-1.4,0.1-3.2-1.1-4.4c-0.4,0.1-0.5,0.3-0.5,0.4
		c-1,2.3-1.4,4.7-1.2,7.2c0.1,1-0.1,2-0.7,2.9c-1.6,2.8-3,5.7-4.4,8.5c-0.7,1.4-0.7,1.4-2.2,0.9c-4.2-1.3-8.3-2.9-12.4-4.6
		c-0.6-0.3-1.2-0.7-2-0.7c-0.4-0.1-0.7-0.3-1.1-0.4c-1.5-0.6-3-1.2-4.6-1.8c-1.8-0.6-2.9-0.2-3.9,1.5c-0.3,0.6-0.5,1.2-0.7,1.8
		c-0.7,2.4,0.1,3.8,2.4,4.3c1.9,0.4,3.9,0.8,5.9,1.2c3.7,1.4,7.2,3.3,10.7,5c2.2,1.1,4.5,2,6.8,2.7c2.3,0.7,4.2,0.4,5.8-1.5
		c1.2-1.4,2.7-2.6,3.7-4.1c0.2-0.2,0.3-0.6,0.7-0.5c0.4,0.1,0.3,0.4,0.4,0.7c0.1,0.5,0.1,1,0.3,1.5c0.4,0.9,0,1.4-0.7,1.8
		c-3,1.8-5.7,4.2-9.1,5.4c-0.6,0.2-0.8,0.6-0.8,1.2c-0.4-0.1-0.8-0.2-1.2-0.2c-1.3-0.2-2.6-0.5-4-0.4c-2,0.1-3,1.1-3.1,3.1
		c-0.1,0.8-0.1,1.6,0.1,2.4c0.4,1.7,1.1,2.2,2.8,2.3c2,0.1,4-0.3,6-0.4c0.4,0,0.8,0,1.1-0.4c0.5,0,0.9-0.2,1.3-0.4
		c3.5-1.8,7.1-3.4,10.5-5.4c1-0.6,1.2-0.5,1.6,0.6c0.3,0.8,0.7,1.5,1.3,2.1c-0.6,0.5-0.6,1.2-0.9,1.9c-0.8,2.4-1.5,4.9-2.4,7.2
		c-0.1,0.1-0.2,0.2-0.3,0.3l0,0c-0.4,0-0.7,0.1-1,0.3c-6.6,3.8-13.1,7.5-19.7,11.3c-6.7,3.8-13.3,7.6-20,11.4c-1.7,1-3.5,2-5.2,3
		C392.1,411.8,391.5,412.3,390.7,412.3z"/>
	<path class="st10" d="M308.9,196.4c4.6,8.1,9.2,16.1,13.8,24.2c2,3.6,3,7.4,3.5,11.4c1,8.2,1.7,16.4,2.2,24.6
		c0.1,1.2,0.4,2.5,0,3.8c1.1,0.3,2.1,0.2,3.2,0.2c1,0,2-0.1,3,0c1,0.1,1.7,0.7,1.8,1.3c0,0.8-0.7,1.5-1.7,1.7
		c-3.3,0.6-6.6,1.2-9.9,1.7c-0.7,0.1-1.5,0-1.3,1.1c0,0.3-0.3,0.4-0.5,0.4c-1.6,0.4-3.3,0.9-5,1.4c-0.2-2.2-0.5-4.3-0.4-6.4
		c0.1-1.4-0.2-2.9-0.3-4.3c-0.5-4.6-0.9-9.2-1.4-13.8c-0.4-4-0.8-8.1-1.2-12.1c0-0.5-0.2-0.9-0.4-1.3c-3.6-5.3-7.3-10.6-10.9-15.9
		c-0.1-0.1-0.1-0.1-0.3-0.3c-0.5,1.5-0.5,3-0.7,4.5c-0.7,4.7-1.3,9.3-1.9,14c-0.3,2.3-1.3,4.3-2.3,6.3c-2.4,4.6-5.1,9-7.9,13.3
		c-2.4,3.8-4.9,7.6-7.3,11.4c-0.4,0.6-0.7,1.2-1.5,1.6c0.6,0.9,1.4,1.4,2.1,2c0.8,0.6,1.6,1.2,2.4,1.8c0.4,0.3,0.7,0.5,1,0.9
		c0.4,0.6,0.7,1.1,0.2,1.8c-0.4,0.6-1.4,0.8-2.2,0.4c-3-1.5-6-3.1-9-4.6c-0.3-0.2-0.6-0.3-0.9-0.5c-0.2-0.1-0.6-0.2-0.7,0.1
		c-0.4,0.9-1,0.5-1.6,0.3c-1.4-0.6-2.8-1.1-4.1-1.6c0-0.5,0.3-0.8,0.5-1.1c6-10,12.1-20,18.2-30c0.6-0.9,0.8-1.9,0.9-3
		c0.3-8.5,0.7-17,1.1-25.6c0-0.6-0.1-1.2-0.3-1.7c-0.5-1.1-0.6-2.2-0.3-3.4c0.6-2.5,1.2-5.1,2.1-7.5c2.2,0.6,4.4,1.1,6.6,1.7
		c3.1,0.7,6.2,1.5,9.4,2C307.5,197.5,308.3,197.3,308.9,196.4z"/>
	<path class="st10" d="M685.4,260.1c0.7,2.5,1.3,4.9,2,7.4c0.3,1,0.3,2.1-0.2,2.9c-0.6,1.1-0.5,2.2-0.4,3.4
		c0.3,5.8,0.5,11.5,0.8,17.3c0.1,2.5,0.2,5,0.3,7.5c0,0.8,0.2,1.5,0.7,2.3c4.9,8,9.7,15.9,14.5,23.9c1.4,2.4,2.8,4.7,4.3,7.2
		c-1.6,0.9-3.3,1.4-5,2.1c-0.2,0.1-0.5,0.1-0.5-0.1c-0.5-1.1-1.2-0.4-1.7-0.1c-3,1.5-6,3.1-9,4.6c-0.4,0.2-0.7,0.4-1.1,0.3
		c-1.4-0.2-1.8-1.2-1.1-2.4c0.4-0.6,1-1,1.6-1.4c1.4-1,2.8-1.9,4-3.2c-0.5-0.4-0.9-0.8-1.3-1.3c-5-7.6-10-15.3-14.4-23.3
		c-1.3-2.4-2.7-4.7-3.2-7.4c-0.6-3.8-1.1-7.5-1.6-11.3c-0.4-2.6-0.7-5.2-1-7.9c-0.6,0.1-0.7,0.5-0.9,0.8c-3.4,5-6.8,9.9-10.2,14.9
		c-0.5,0.7-0.7,1.4-0.7,2.2c-0.3,3.4-0.7,6.8-1,10.2c-0.6,5.7-1.1,11.4-1.7,17.1c-0.1,1-0.1,2.1-0.1,3.1c0,1.6-0.2,3.3-0.3,4.9
		c0,0.5-0.2,0.6-0.7,0.5c-1.5-0.4-3-0.8-4.5-1.2c-0.3-0.1-0.6-0.3-0.5-0.6c0.1-0.7-0.4-0.8-0.9-0.9c-3.5-0.6-6.9-1.2-10.4-1.8
		c-0.6-0.1-1-0.3-1.4-0.8c-0.6-0.9-0.4-1.6,0.6-2.1c0.5-0.2,1.1-0.3,1.6-0.2c1.4,0,2.8,0,4.2,0c1.1,0,1-0.1,1-1.1
		c0.1-2.6,0.2-5.1,0.4-7.7c0.3-4.1,0.7-8.3,1.1-12.4c0.4-4,0.8-8,1.6-11.9c0.3-1.7,1-3.4,1.8-4.9c4.2-7.8,8.7-15.4,13.1-23
		c0.5-1,1.1-1.9,1.7-2.9c0.7,0.8,1.6,1,2.7,0.8c2-0.4,3.9-0.8,5.9-1.2C678.7,261.6,682,260.9,685.4,260.1z"/>
	<path class="st10" d="M584.6,257.1c0.6,2.4,1.3,4.7,1.9,7.1c0.3,1.3,0.3,2.7-0.4,4c-0.2,0.4-0.3,0.7-0.3,1.1
		c0.4,2.6,0.2,5.2,0.4,7.8c0.3,3.6,0.2,7.3,0.5,11c0.2,2.6,0.2,5.1,0.3,7.7c0,0.5,0.1,1,0.3,1.5c0.5,1,1,1.9,1.8,2.8
		c1.2,2.4,2.7,4.6,4.1,6.8c3.1,5.2,6.2,10.3,9.3,15.4c1.3,2.2,2.7,4.5,4.1,6.8c-1.6,0.8-3.3,1.4-5,2c-0.2,0.1-0.4,0.1-0.5-0.1
		c-0.5-1-1.1-0.4-1.7-0.1c-3,1.5-6,3-9,4.6c-0.2,0.1-0.4,0.3-0.7,0.3c-0.7,0.1-1.3-0.1-1.7-0.6c-0.4-0.5-0.2-1,0.1-1.6
		c0.3-0.5,0.7-0.8,1.1-1.2c1.1-0.8,2.1-1.5,3.1-2.3c0.5-0.4,1-0.7,1.3-1.4c-0.8-0.4-1.2-1.2-1.6-1.9c-4.3-6.6-8.6-13.3-12.6-20.1
		c-0.2-0.3-0.3-0.6-0.6-0.8c-0.1-0.2-0.2-0.5-0.3-0.7c-2.3-3.8-3.9-7.8-4.3-12.3c-0.3-3.7-1-7.4-1.4-11.2c-0.2-1.4-0.1-2.8-0.7-4.1
		c-0.2,0.1-0.3,0.2-0.4,0.3c-3.6,5.2-7.2,10.5-10.8,15.7c-0.2,0.3-0.4,0.7-0.5,1.1c-0.3,3.1-0.6,6.2-0.9,9.3
		c-0.3,2.6-0.6,5.3-0.8,7.9c-0.1,1.8-0.6,3.7-0.4,5.5c-0.5,1.4-0.3,3-0.6,4.4c-0.4,2.2,0,4.5-0.3,6.7c-0.1,0.9-0.1,1.9-0.4,2.9
		c-1.6-0.4-3.3-0.9-4.9-1.3c-0.3-0.1-0.7-0.2-0.6-0.7c0.1-0.7-0.3-0.8-0.8-0.8c-3.1-0.5-6.2-1.2-9.3-1.5c-0.5-0.1-1-0.1-1.5-0.3
		c-0.8-0.2-1.4-0.9-1.4-1.6c0-0.6,0.5-1.1,1.4-1.4c0.5-0.2,1.1-0.1,1.6-0.1c1.6,0,3.2,0.1,4.8-0.1c0-2.5,0.2-5,0.4-7.5
		c0.1-1.6,0.2-3.2,0.3-4.8c0.5-6.6,1.1-13.1,2.1-19.7c0.5-3.1,1.9-5.8,3.4-8.4c4.1-7.3,8.3-14.5,12.4-21.8c0.3-0.5,0.5-1.1,0.8-1.6
		c1,0.9,2.1,1.2,3.5,0.7c0.4-0.1,0.9-0.2,1.3-0.3C575.4,259.4,580,258.2,584.6,257.1z"/>
	<path class="st10" d="M438.9,385.1c1-2.4,1.6-4.8,2.4-7.2c0.2-0.6,0.2-1.4,0.9-1.9c0.5,0.2,1.1,0.1,1.6,0c1.7-0.2,3.4-0.5,5-0.7
		c4.2-0.6,8.4-1.3,12.6-1.9c3.1,10.2,6.1,20.3,9.2,30.5c0.3,1.1,0.8,2,1.6,2.8c6.2,6.6,12.4,13.2,18.5,19.7c0.6,0.7,1.5,1.2,1.2,2.4
		c-0.1,0.3,0.4,0.6,0.6,0.8c0.9,0.9,1.8,1.9,2.8,2.9c-1.5,1-2.9,1.9-4.3,2.9c-0.2,0.2-0.5,0.3-0.7,0c-0.6-0.8-1-0.2-1.5,0.2
		c-2.5,2-5.1,4.1-7.6,6.1c-0.2,0.2-0.4,0.4-0.7,0.6c-0.7,0.3-1.3,0.1-1.8-0.3c-0.5-0.4-0.4-1-0.2-1.5c0.2-0.6,0.7-1.1,1.1-1.6
		c1-1,1.9-2.1,2.8-3.2c0.5-0.6,0.5-1-0.1-1.6c-5.9-5.7-11.7-11.6-17.2-17.7c-0.7-0.7-1.3-1.5-2-2.3c-2.1-2.4-3.8-5-5.1-7.9
		c-1.8-4.3-3.8-8.6-5.7-12.9c-0.2-0.4-0.3-0.9-0.7-1.3c-0.4,0.2-0.5,0.6-0.6,1c-2,4.9-4,9.7-6,14.6c-0.3,0.8-0.4,1.5-0.3,2.3
		c0.6,5.1,1.1,10.2,1.7,15.2c0.6,5.7,1.2,11.5,2,17.2c0.1,0.8,0.2,1.6,0.3,2.5c-1.8-0.1-3.4-0.2-5.1-0.3c-0.3,0-0.6-0.1-0.6-0.3
		c-0.1-1.1-0.9-0.8-1.6-0.8c-3.3,0.1-6.5,0.2-9.8,0.3c-0.4,0-0.8,0.1-1.2-0.2c-1.1-0.7-1.1-1.8,0-2.5c0.7-0.4,1.5-0.5,2.3-0.7
		c1.3-0.3,2.6-0.4,3.8-0.9c-0.6-1.9-0.7-3.8-1-5.7c-0.9-6.3-1.7-12.5-2.3-18.8c-0.3-2.8-0.5-5.7-0.5-8.6c0-1.5,0.4-2.9,0.8-4.3
		c1.5-5.1,3.1-10.1,4.7-15.2c0.2-0.5,0.5-1,0.3-1.6c0,0,0,0,0,0C438.9,385.6,438.8,385.3,438.9,385.1z"/>
	<path class="st10" d="M343.2,391.9c3.9,7.7,7.7,15.5,11.6,23.3c1.5,3.1,2.3,6.4,2.5,9.8c0.4,5.7,0.6,11.4,0.7,17.1
		c0,2.7,0.1,5.4,0.1,8.1c0,1.2,0.1,2.4-0.2,3.6c1.6,0.4,3.1,0.2,4.6,0.4c0.5,0.1,1.1,0,1.6,0.2c0.6,0.3,1.2,0.6,1.1,1.4
		c-0.1,0.7-0.7,1.4-1.5,1.5c-1.9,0.2-3.9,0.4-5.8,0.6c-1.6,0.2-3.2,0.4-4.8,0.6c-0.5,0-0.8,0.1-0.7,0.7c0,0.5-0.3,0.6-0.6,0.7
		c-1.6,0.3-3.2,0.7-4.9,1c-0.1-1.9-0.1-3.6-0.2-5.4c-0.2-5.3-0.4-10.6-0.6-15.9c-0.2-4.6-0.4-9.2-0.6-13.8c0-0.7-0.1-1.4-0.5-2
		c-2.9-4.7-5.7-9.5-8.5-14.2c-0.1-0.2-0.2-0.4-0.5-0.6c-0.6,1.3-0.8,2.7-1.2,4c-1.2,4.2-2.3,8.4-3.5,12.6c-0.4,1.7-1.1,3.2-2,4.7
		c-3.1,5.4-6.8,10.4-10.4,15.5c-2.5,3.4-5,6.8-7.5,10.3c0.5,0.9,1.3,1.5,2.1,2.2c0.7,0.6,1.4,1.1,2.1,1.7c0.4,0.3,0.7,0.6,0.9,1
		c0.3,0.5,0.5,1.1,0,1.7c-0.4,0.5-1.3,0.7-1.9,0.4c-0.2-0.1-0.4-0.3-0.6-0.4c-2.8-1.7-5.6-3.3-8.4-5c-0.5-0.3-0.9-0.7-1.4,0.1
		c-0.2,0.3-0.5,0.2-0.8,0.1c-1.5-0.7-3-1.4-4.6-2.2c0.8-1.1,1.5-2.1,2.2-3.1c0.2-0.3,0.7-0.6,0.5-1c-0.4-1,0.3-1.6,0.7-2.3
		c5.2-7.6,10.4-15.1,15.6-22.7c0.6-0.8,0.9-1.6,1.1-2.6c0.8-5.9,1.7-11.8,2.5-17.7c0.7-4.7,1.4-9.4,2-14.1c5.2,0,10.4,0,15.6,0
		C340.4,392.1,341.8,392.2,343.2,391.9z"/>
	<path class="st10" d="M307,327.9c2.9,8.7,5.7,17.4,8.4,26.2c1,3.3,0.8,6.5,0.5,9.8c-0.6,8.1-1.7,16-2.9,24c-0.1,1-0.3,2-0.5,2.9
		c-0.1,0.5,0,0.7,0.5,0.8c1.3,0.3,2.6,0.6,4,0.8c0.4,0.1,0.8,0.2,1.2,0.3c1,0.4,1.4,1,1.2,1.7c-0.2,0.8-0.9,1.2-1.9,1.2
		c-1.9-0.1-3.7-0.1-5.6-0.2c-1.6-0.1-3.1-0.1-4.7-0.2c-0.5,0-1.1-0.1-1.1,0.8c0,0.4-0.4,0.4-0.7,0.4c-1.4,0.1-2.8,0.2-4.2,0.3
		c-0.6,0-0.8-0.2-0.8-0.8c0.2-1.2,0.2-2.5,0.4-3.7c0.7-4.8,1.1-9.7,1.7-14.5c0.6-5.2,1.2-10.5,1.8-15.7c0.1-1,0.1-1.9-0.3-2.8
		c-2-4.7-3.9-9.4-5.9-14.2c-0.2-0.4-0.4-0.8-0.7-1.4c-0.3,0.5-0.4,0.8-0.6,1.2c-2,4.5-4.1,8.9-6,13.5c-1.2,2.8-2.8,5.2-4.7,7.5
		c-4,4.7-8.3,9.1-12.6,13.5c-2.3,2.3-4.6,4.6-6.9,6.9c-0.5,0.5-0.5,0.8-0.1,1.2c0.8,1.1,1.8,2.2,2.7,3.2c0.4,0.4,0.8,0.9,1.1,1.4
		c0.4,0.9,0.4,1.5-0.1,1.9c-0.6,0.5-1.5,0.5-2.2-0.1c-1.2-1-2.4-2-3.6-2.9c-1.5-1.2-3-2.5-4.6-3.7c-0.4-0.3-0.7-0.6-1.1,0
		c-0.3,0.4-0.6,0.2-0.9,0c-1.3-0.9-2.7-1.8-4.2-2.8c0.9-1,1.8-1.8,2.6-2.7c0.4-0.4,0.8-0.8,0.7-1.5c-0.1-0.7,0.5-1.1,1-1.6
		c4.8-5.1,9.5-10.2,14.3-15.2c1.6-1.7,3.2-3.5,4.8-5.1c0.5-0.6,0.9-1.2,1.1-1.9c3-9.9,6-19.9,9-29.8c0.1-0.4,0.3-0.9,0.4-1.3
		c5.1,0.8,10.2,1.6,15.3,2.4C304.2,327.9,305.5,328.2,307,327.9z"/>
	<path class="st10" d="M593,251.1c0.1-0.1,0.1-0.1,0-0.2c0.5-0.3,0.6-0.9,0.9-1.4c4.6-8.5,9.6-16.9,14.4-25.4c0.7,0.8,1.6,1,2.6,0.8
		c0.5-0.1,1-0.1,1.5-0.2c4.9-1,9.7-2.2,14.5-3.4c0.7,2.5,1.3,4.9,2,7.4c0.3,1.2,0.2,2.3-0.3,3.4c-0.3,0.7-0.4,1.3-0.4,2
		c0.3,6.2,0.6,12.4,0.8,18.6c0.1,2.4,0.2,4.8,0.3,7.2c0,0.8,0.3,1.5,0.7,2.2c4.8,7.8,9.5,15.7,14.3,23.5c1.4,2.2,2.7,4.5,4,6.7
		c0.5,0.9,0.5,0.9-0.5,1.3c-1.2,0.5-2.4,1-3.6,1.4c-0.3,0.1-0.7,0.4-1,0c-0.4-0.8-0.9-0.5-1.5-0.2c-2.7,1.4-5.4,2.7-8,4.1
		c-0.4,0.2-0.9,0.5-1.3,0.7c-0.7,0.4-1.7,0.2-2.2-0.4c-0.4-0.5-0.3-1.1,0.3-1.9c0.4-0.5,1-0.9,1.5-1.3c1.3-1,2.7-1.9,3.9-3.2
		c-1-0.7-1.5-1.8-2.2-2.8c-4.6-7.1-9.2-14.1-13.3-21.5c-0.1-0.1-0.1-0.3-0.2-0.4c-2.3-3.6-3.4-7.5-3.8-11.7
		c-0.5-4.9-1.3-9.8-1.9-14.8c-0.5-0.1-0.6,0.3-0.8,0.6c-3.5,5-6.9,10.1-10.4,15.1c-0.5,0.7-0.6,1.4-0.7,2.1c-0.3,3.3-0.7,6.7-1,10
		c-0.6,5.7-1.2,11.5-1.7,17.2c-0.1,1-0.1,2.1-0.1,3.1c0.1,1.7-0.2,3.4-0.3,5.1c0,0.5-0.3,0.6-0.7,0.4c-1.4-0.4-2.9-0.8-4.3-1.2
		c-0.4-0.1-0.6-0.3-0.6-0.7c0.1-0.8-0.4-0.8-0.9-0.8c0-13.1,0-26.1,0-39.2c0-0.8,0-1.6,0-2.4C593,251.3,593,251.2,593,251.1z"/>
	<path class="st10" d="M668.3,116.1c0.6,2.1,1.2,4.1,1.7,6.2c0.3,1.1,0.3,2.2-0.3,3.2c-0.3,0.6-0.3,1.2-0.3,1.8
		c0.3,6.6,0.7,13.2,0.8,19.8c0.1,2.6,0.7,4.8,2.1,7c3.9,6.2,7.7,12.6,11.5,18.9c1.2,2,2.4,4,3.6,6c-1.4,0.8-2.9,1.2-4.3,1.8
		c-0.2,0.1-0.4,0.1-0.5-0.1c-0.5-0.9-1.1-0.3-1.6,0c-2.5,1.2-4.9,2.5-7.4,3.8c-0.3,0.1-0.5,0.3-0.8,0.4c-0.6,0.2-1.2,0-1.6-0.5
		c-0.5-0.5-0.2-1,0.1-1.5c0.3-0.5,0.8-0.8,1.3-1.2c1.2-0.9,2.4-1.6,3.4-2.7c-3.6-5.2-6.9-10.6-10.2-15.9c-1.3-2.2-2.5-4.4-3.8-6.6
		c-1.5-2.6-2.4-5.4-2.7-8.4c-0.5-4.2-1.1-8.4-1.6-12.5c-0.1-0.5-0.2-1-0.3-1.5c-0.5,0.1-0.6,0.5-0.9,0.8c-2.9,4.2-5.8,8.4-8.7,12.7
		c-0.4,0.6-0.7,1.3-0.8,2.1c-0.8,8-1.6,16.1-2.4,24.1c-0.2,1.8,0.1,3.7-0.2,5.5c-0.1,0.4-0.1,0.9-0.1,1.3c0,0.4-0.2,0.7-0.7,0.5
		c-1.2-0.4-2.5-0.7-3.8-1c-0.3-0.1-0.5-0.2-0.5-0.5c0.1-1-0.8-0.9-1.3-1c-2.8-0.5-5.5-1-8.3-1.5c-0.2,0-0.5,0-0.7-0.1
		c-0.7-0.2-0.9-0.8-1-1.4c0-0.6,0.4-0.9,0.9-1.1c0.6-0.3,1.2-0.2,1.8-0.2c1.3,0,2.7,0,4.1,0c0.2-6,0.7-11.8,1.3-17.6
		c0.3-3.7,0.7-7.4,1.4-11c0.3-1.6,0.9-3.2,1.6-4.7c3.6-6.6,7.4-13.1,11.1-19.6c0.6-1,1.2-2,1.7-3c0.7,0.7,1.5,0.9,2.4,0.7
		c0.8-0.2,1.6-0.3,2.3-0.5C660.6,117.9,664.5,117,668.3,116.1z"/>
	<path class="st3" d="M685.4,260.1c-3.4,0.8-6.7,1.6-10.1,2.3c-1.9,0.4-3.9,0.8-5.9,1.2c-1.1,0.2-1.9,0-2.7-0.8
		c-0.6-2.4-1.2-4.7-1.9-7.1c-0.2-0.8-0.7-0.7-1.3-0.4c-2.4,1-4.9,1.8-7.4,2.5c-3.1,0.9-6.3,1.4-9.5,2.1c-0.3,0.1-0.7,0.1-1,0
		c0-0.7,0.1-1.4-0.1-2c0.3-1.2,0.1-2.5,0.3-3.7c0-0.7,0.1-1.4-0.1-2.1c4.2-1.6,8.3-3.2,12.5-4.8c1.2-0.5,1.1-0.5,1.1-1.7
		c-0.1-3.1-0.1-6.2-0.1-9.3c0-2,0-4,0-6c-0.1-4,1.2-7.7,3.1-11.1c0.2-0.3,0.4-0.7,0.7-1c0.3-0.3,0.6-0.5,1.1-0.3
		c0.4,0.2,0.6,0.5,0.6,0.9c0,0.7-0.1,1.4-0.1,2.1c0,0.3-0.2,0.7-0.1,1c0.4,0.1,0.6-0.3,0.8-0.6c1.8-2.3,3.7-4.5,5.2-7
		c0.4-0.7,1-0.8,1.8-0.8c2.7,0.3,4.5,1.7,5.9,3.9c1.8,2.9,2.9,6.1,3.7,9.3c1.2,4.5,1.9,9.1,2.5,13.7c0.6,4.8,1.1,9.5,1.2,14.4
		c0,1.2,0.2,2.4,0.2,3.6C685.7,258.8,685.6,259.5,685.4,260.1z"/>
	<path class="st4" d="M308.9,196.4c-0.6,0.9-1.5,1.1-2.5,0.9c-3.2-0.5-6.3-1.3-9.4-2c-2.2-0.5-4.4-1.1-6.6-1.7
		c-0.3-0.3-0.4-0.7-0.4-1.1c0-1.4,0-2.8,0.1-4.2c0.2-2.6,0.3-5.3,0.6-7.9c0.3-3.4,0.7-6.8,1.2-10.1c0.6-3.8,1.3-7.6,2.3-11.3
		c0.7-2.5,1.6-4.9,2.8-7.1c1.1-2,2.5-3.8,4.9-4.4c0.4-0.1,0.8-0.2,1.2-0.2c1.1-0.2,1.9,0.1,2.5,1.3c1.2,2.2,2.9,4.1,4.5,6
		c0.2,0.3,0.4,0.6,0.9,0.6c0-0.8,0-1.5,0-2.3c0-0.5-0.2-1.2,0.6-1.4c0.6-0.2,1,0.2,1.3,0.7c1.2,1.8,2,3.7,2.6,5.7
		c0.7,2.4,0.9,4.7,0.8,7.2c-0.3,4.8-0.1,9.6-0.2,14.4c0,0.9,0.5,1.2,1.2,1.5c2.8,1.1,5.5,2.1,8.3,3.2c1.4,0.5,2.7,1,4.1,1.5
		c0,0.4,0,0.9,0,1.3c0,0.5,0.3,0.6,0.7,0.6c-0.4,0.3-0.7,0.6-0.6,1.2c0.1,0.9,0,1.8,0,2.7c0,0.7,0.1,1.4,0.1,2
		c-1.6,0.2-3.2-0.4-4.7-0.7c-4.5-0.9-9-2-13.2-3.8c-0.9-0.4-1-0.3-1.3,0.8C310.2,192,309.7,194.2,308.9,196.4z"/>
	<path class="st11" d="M516.5,313.4c0.5,0.7,0.4,1.6,0.5,2.5c0.5,4.4,0.9,8.8,1.4,13.3c0.4,3.5,0.6,7.1,1.2,10.6
		c0,2.8,0.5,5.5,0.7,8.2c0.3,3,0.6,6.1,0.9,9.1c0,0.2,0.1,0.6-0.1,0.7c-1.1,0.3-0.5,1-0.4,1.6c0.3,1.8,1.1,3.4,2,5
		c0.8,1.5,1.4,3.1,1.7,4.8c0.6,2.6,1.2,5.3,2.1,7.8c0.4,1.3,0.9,2.4,2.2,3.1c0.6,0.3,1,0.9,1.1,1.7c0.2,1.5,0.5,3,0.8,4.4
		c0.1,0.6-0.4,0.6-0.7,0.8c-0.5,0.2-0.6-0.1-0.7-0.5c-0.2-0.6-0.4-1.2-0.6-2c-1,1.2-2,2.3-2.8,3.4c-1.5,2-3.6,3.1-6,3.8
		c-0.6,0.2-1.3,0.6-1.6-0.1c-0.3-0.7,0.4-1.1,0.9-1.3c2.3-1.3,3.3-3.6,4.3-5.8c0.3-0.8,0-1.4-0.3-2c-3.5-7.3-7-14.5-10.6-21.8
		c-0.3-0.7-0.7-1.3-1-2c-0.3-0.6-0.7-0.7-1.3-0.7c-0.5,0-0.8,0.2-0.8,0.7c0.1,2.9-1,5.6-0.4,8.5c0.4,2.3-0.2,4.6-0.6,6.8
		c-0.4,2.2-0.7,4.4-1,6.7c-0.1,1.1,0,2.2,0.7,3.1c0.6,0.7,0.7,1.6,0.5,2.6c-0.4,1.3-0.7,2.6-1,3.9c-0.1,0.5-0.5,0.5-0.9,0.5
		c-0.5,0-0.6-0.3-0.5-0.7c0.1-0.6,0.1-1.2,0.1-1.7c-0.4-0.3-0.7,0-1,0.1c-1.4,0.7-2.8,1.4-4.2,2c-2.1,0.9-4.2,0.6-6.4,0.4
		c-0.3,0-0.7-0.2-0.7-0.6c0-0.4,0.3-0.6,0.7-0.7c0.2-0.1,0.4-0.1,0.6-0.1c2.5-0.2,4.2-1.7,6-3.2c0.8-0.7,1-1.5,1-2.5
		c-0.3-7.5-0.6-15-0.8-22.5c0-0.6,0-1.2,0-1.8c0-1.6,0.1-1.5-1.6-1.5c-0.6,0-1.2,0-1.8,0c-0.7,0-0.8-0.3-0.8-0.9
		c0-1.4,0.4-2.8,0.3-4.2c0.3-3.3,0.6-6.7,1-10c0.5-5.3,1-10.7,1.4-16c0.3-4.3,0.9-8.7,1-13c0.6-0.2,1.2-0.1,1.8-0.1
		C507.1,313.4,511.8,313.4,516.5,313.4z M499.7,388.6c0.7,0.4,1.2,0,1.7-0.3c1.6-1,2.9-2.3,4.4-3.4c0.4-0.4,0.4-0.7,0.3-1.2
		c-0.2-1-0.4-2.1-0.2-3.1c0.3-2.2,0.5-4.5,1-6.7c0.6-2.6,1-5.2,0.6-7.9c-0.2-1.3-0.1-2.6,0.2-3.9c0.3-1.2,0.2-2.4,0.3-3.6
		c0-0.5-0.2-0.7-0.7-0.7c-1.1,0-2.2,0-3.3,0c-1.5,0-1.3,0-1.3,1.3c0,0.2,0,0.4,0,0.6c0.3,7.7,0.5,15.4,0.8,23.2
		c0,1.2-0.3,2.4-1.2,3.3C501.4,386.8,500.6,387.7,499.7,388.6z M513,357.9c0.1,0.7,0.4,1.2,0.6,1.7c3.4,7,6.8,14.1,10.2,21.1
		c0.7,1.3,0.8,2.6,0.2,4c-0.4,1-0.9,2-1.1,3.1c1-0.4,1-0.3,1.5-1.1c0.9-1.5,1.7-3.1,2.4-4.7c0.2-0.5,0.2-0.8-0.1-1.2
		c-1.1-1.3-1.6-2.9-2-4.5c-0.5-1.6-0.9-3.2-1.3-4.8c-0.6-2.2-0.9-4.4-2.1-6.4c-0.9-1.6-1.8-3.2-2.1-5.1c-0.1-0.4-0.3-0.8-0.4-1.3
		c-0.2-0.5-0.5-0.8-1.1-0.8C516.2,357.9,514.6,357.9,513,357.9z"/>
	<path class="st12" d="M461.4,373.4c-4.2,0.7-8.4,1.3-12.6,1.9c-1.7,0.3-3.4,0.5-5,0.7c-0.5,0.1-1.1,0.1-1.6,0
		c-0.6-0.6-1-1.3-1.3-2.1c-0.4-1.1-0.6-1.2-1.6-0.6c-3.4,2-7,3.6-10.5,5.4c-0.4,0.2-0.8,0.4-1.3,0.4c-0.1-1.2-0.7-2.3-0.9-3.5
		c-0.1-0.4-0.3-0.9-0.4-1.3c-0.1-0.5-0.2-1-0.3-1.4c0-0.6,0.2-1,0.8-1.2c3.4-1.1,6.1-3.5,9.1-5.4c0.7-0.4,1.2-0.9,0.7-1.8
		c-0.2-0.4-0.2-1-0.3-1.5c-0.1-0.3,0-0.6-0.4-0.7c-0.4-0.1-0.5,0.2-0.7,0.5c-1.1,1.5-2.5,2.7-3.7,4.1c-1.6,1.9-3.5,2.2-5.8,1.5
		c-2.4-0.7-4.6-1.6-6.8-2.7c-3.5-1.7-7-3.6-10.7-5c0.2-0.8,0.7-1.6,0.7-2.5c0.2-0.5,0.4-1.1,0.6-1.6c0.5-0.8,0.7-1.6,0.7-2.5
		c0.7,0,1.3,0.5,2,0.7c4,1.8,8.2,3.3,12.4,4.6c1.5,0.5,1.5,0.5,2.2-0.9c1.5-2.9,2.8-5.8,4.4-8.5c0.5-0.9,0.7-1.8,0.7-2.9
		c-0.1-2.5,0.3-4.9,1.2-7.2c0.1-0.2,0.2-0.4,0.5-0.4c1.2,1.2,0.2,3,1.1,4.4c1-1.1,1.5-2.5,2.1-3.9c0.7-1.6,1.6-3.1,2-4.9
		c0.1-0.5,0.5-0.6,0.9-0.6c2.2-0.2,4,0.3,5.6,1.9c2.3,2.2,3.9,4.8,5.5,7.5c2.8,4.9,4.8,10.2,6.9,15.5c0.1,0.4,0.3,0.8,0.5,1.1
		c0,0.3,0,0.6,0.1,0.9c1.3,3.5,2.4,7.2,3.6,10.8c0.1,0.2,0.2,0.3,0.3,0.5C462,373,462,373.4,461.4,373.4z"/>
	<path class="st12" d="M343.2,391.9c-1.4,0.3-2.8,0.2-4.2,0.2c-5.2,0-10.4,0-15.6,0c-0.9-0.4-0.6-1.1-0.5-1.7
		c0.5-3.1,1.1-6.3,1.6-9.4c0.3-1.4,0.5-2.8,0.8-4.2c0.1-0.4,0.1-0.7-0.1-1c0.4-0.2,0.5-0.6,0.6-1c0.9-4,1.9-8,3.2-11.9
		c1-2.8,2-5.6,3.6-8.1c0.9-1.5,2-2.7,3.5-3.7c1-0.7,2.2-0.7,3.3-0.7c0.6,0,0.8,0.5,1,1c1.2,2.4,2.9,4.5,4.3,6.7
		c0.2,0.3,0.4,0.5,0.8,0.9c0.4-1.6-0.3-3.3,0.6-4.9c1.2,1.8,2,3.6,2.5,5.5c0.2,0.7,0.2,1.5,0.4,2.2c0.2,0.9,0.5,1.8,1.1,2.6
		c2,2.6,3.9,5.4,5.8,8c0.7,0.9,0.7,1,1.7,0.4c4-2.1,8.1-4.2,11.9-6.7c0.5-0.3,1-0.9,1.7-0.8c0.4,0.7,0.6,1.6,1.2,2.1
		c0.2,0.5,0.4,1,0.7,1.5c0.3,0.7,0.6,1.4,0.9,2.1c-0.1,0.6-0.6,0.8-1,1.1c-3.8,2.2-7.2,4.9-10.8,7.3c-1.4,0.9-2.8,1.6-4.2,2.3
		c-2,0.9-3.9,0.9-5.8-0.5c-1.5-1.1-2.9-2.4-4.4-3.6c-0.2-0.2-0.4-0.5-0.7-0.5c0,0-0.1,0.1-0.1,0.1c-0.8,3-0.7,3.4,2.2,4.6
		c2.6,1.2,5.1,2.6,7.9,3.2c0.5,0.1,1.3,0.1,1.4,0.9c0,0.6,0,1.1-0.1,1.7c-0.2,0.4,0,0.8-0.3,1.1c0.4,0.2,0.4,0.6,0.2,0.9
		c-0.6,0.9-0.5,1.9-0.6,2.8c-0.8,0.2-1.5-0.3-2.3-0.3c0,0,0,0,0,0c-0.2-0.4-0.6-0.3-0.9-0.3c0,0,0,0,0,0c-0.1-0.2-0.2-0.2-0.3-0.1
		c-2-1.1-4.3-1.4-6.4-2.3c-0.8-0.3-1.6-0.6-2.4-0.9c-1.1-0.5-1.2-0.4-1.5,0.7C343.7,390.3,343.4,391.1,343.2,391.9z"/>
	<path class="st3" d="M626.9,221.4c-4.8,1.2-9.7,2.4-14.5,3.4c-0.5,0.1-1,0.1-1.5,0.2c-1,0.2-1.9-0.1-2.6-0.8
		c-0.5-2.1-1.1-4.1-1.6-6.2c-0.4-1.7-0.4-1.7-2.2-1.1c-3.7,1.5-7.6,2.6-11.5,3.3c0-3,0-6-0.1-9.1c2.4-0.7,4.8-1.8,7.2-2.7
		c0.8-0.3,0.8-0.8,0.8-1.4c0-3.4,0-6.8-0.1-10.2c0-1.8,0-3.5,0-5.3c-0.1-4,1.1-7.7,3-11.1c0.2-0.4,0.5-0.9,0.9-1.2
		c0.7-0.6,1.4-0.3,1.5,0.6c0.1,0.8,0,1.6-0.2,2.4c-0.1,0.3,0,0.6,0,1.1c1.7-1.7,2.9-3.5,4.2-5.2c0.6-0.8,1.2-1.6,1.7-2.5
		c0.4-0.8,1.1-0.9,1.9-0.9c2.6,0.3,4.4,1.7,5.8,3.8c1.7,2.6,2.7,5.5,3.5,8.4c1.3,4.8,2.2,9.8,2.8,14.7c0.6,4.8,1.1,9.6,1.2,14.5
		c0,1.1,0.2,2.3,0.2,3.4C627.3,220.3,627.3,220.9,626.9,221.4z"/>
	<path class="st4" d="M390.3,225.9c0,4,0,8.1,0.1,12.1c-1.1,0.6-2.1,1.2-3.2,1.8c-0.5,0.3-0.6,0.6-0.3,1.1c0.2,0.2,0.2,0.6,0.5,0.7
		c-0.1,0.8,0.6,1.3,0.7,2c0.2,0.5,0.4,0.9,0.6,1.4c-2.7,1.8-5.4,3.7-8.1,5.4c-2,1.3-4,2.5-6.2,3.3c-1.7,0.6-3.3,1.1-5,0
		c-0.1,0-0.2,0-0.3,0c-0.9,4.9-1.7,9.9-2.6,14.9c-5.3,0-10.6,0-15.8,0c-0.5-1.3-0.4-2.7-0.6-4c-0.7-6.8-0.9-13.6-0.6-20.4
		c0.2-4.3,0.6-8.5,2.4-12.5c0.9-2,2.2-3.7,4.5-4.3c1.4-0.4,1.9-0.3,2.6,1c1.2,2.1,2.7,4,4.2,5.8c0.6,0.7,1.4,1.3,2.2,1.8
		c0.3,0.2,0.6,0.4,1,0.1c0.3-0.2,0.1-0.6,0-0.8c-0.4-1.2-0.9-2.3-1.5-3.5c-0.1-0.3-0.3-0.5-0.4-0.8c-0.1-0.7,0.5-1.3,1.2-1
		c0.4,0.2,0.8,0.5,1,0.9c0.4,0.9,1.2,1.1,2.1,1.3c3.1,0.5,6.2,1.1,9.3,1.6c2.1,0.4,4.1,0.7,6.2,1.1c0.2,0,0.5,0.1,0.7,0.1
		c1.1,0.1,1.2,0.1,1.7-1c1.1-2.5,2.1-5.1,3.2-7.6C390,226.3,390.2,226.1,390.3,225.9z M380.8,242.8c-2.6-0.6-5.1-0.8-7.5-1.2
		c-0.4-0.1-0.8,0-1.2-0.1c-0.2,0-0.4,0.1-0.5,0.3c-0.2,0.4-0.1,1.7,0.2,2c0.6,0.5,1.2,1,1.7,1.4c0.3,0.2,0.5,0.2,0.9,0.1
		C376.5,244.5,378.7,243.6,380.8,242.8z"/>
	<path class="st12" d="M307,327.9c-1.4,0.2-2.8-0.1-4.2-0.3c-5.1-0.8-10.2-1.6-15.3-2.4c-0.4,0-0.6-0.2-0.5-0.7
		c0.3-0.8,0.5-1.6,0.7-2.4c2.1-6.8,4.5-13.5,7.4-20c1.6-3.6,3.4-7.2,5.7-10.4c1.3-1.9,2.9-3.7,5-4.9c1.3-0.7,2.5-0.5,3.8-0.4
		c0.5,0,0.5,0.5,0.7,0.9c1,2.9,2.5,5.7,4,8.5c1-1.4,0-3.3,1.3-4.6c1,1.6,1.4,3.4,1.6,5.1c0.2,1.3,0.4,2.7,0.3,4
		c0,0.6,0.2,1.1,0.5,1.6c1.6,2.8,2.9,5.7,4.4,8.5c0.2,0.4,0.3,0.8,0.8,1.1c0.1,2.9,0.2,5.9-0.1,8.8c-2.5,0.7-4.4-0.2-6.1-2.1
		c-1.3-1.4-2.6-2.9-3.9-4.5c-0.6,0.9-0.5,1.9-0.8,2.8c-0.3,0.7,0,1.1,0.6,1.5c2,1.3,4,2.7,6,4c1.3,0.8,2.7,1.5,4.2,1.9
		c0,0.2,0.1,0.4,0.1,0.7c-0.4,0.5-0.5,1-0.6,1.6c-0.1,0.5-0.3,1-0.4,1.5c-0.4,1.1-0.6,2.3-1.2,3.3c-0.4,0-0.7-0.1-1-0.3
		c-3.6-1.9-7.4-3.5-10.9-5.7c-0.2-0.1-0.4-0.2-0.6-0.3C308.1,325.8,307.5,326.9,307,327.9z"/>
	<path class="st3" d="M668.3,116.1c-3.8,0.9-7.7,1.8-11.5,2.7c-0.8,0.2-1.6,0.3-2.3,0.5c-0.9,0.2-1.8,0-2.4-0.7
		c-0.5-2-1.1-4-1.6-6.1c-0.2-0.7-0.6-0.8-1.2-0.5c-4.7,1.9-9.6,3-14.6,3.9c-0.3,0.1-0.7,0.1-1,0c0-0.6,0.1-1.2-0.1-1.8
		c0.2-1.1,0.1-2.2,0.1-3.3c0-0.6,0.1-1.2,0.1-1.8c3.3-1.3,6.6-2.6,9.9-3.9c0.2-0.1,0.5-0.2,0.7-0.3c1.3-0.6,1.2-0.5,1.2-2
		c-0.1-2.2-0.1-4.3-0.1-6.5c0-2.3,0-4.5,0-6.8c0-3.6,1.1-6.8,2.9-9.8c0.1-0.2,0.2-0.3,0.3-0.5c0.3-0.4,0.6-0.5,1.1-0.3
		c0.4,0.1,0.5,0.5,0.5,0.8c0,0.5-0.1,1-0.1,1.5c0,0.3-0.2,0.7,0,1c0.4,0,0.6-0.3,0.8-0.6c1.4-1.8,2.9-3.5,4-5.4
		c0.5-0.9,1.1-1.2,2.2-1.1c1.8,0.2,3.1,1.1,4.2,2.4c1.8,2.1,2.7,4.7,3.4,7.3c1.4,4.7,2.2,9.6,2.8,14.4c0.6,4.9,1,9.8,1.2,14.7
		C668.6,114.8,668.6,115.5,668.3,116.1z"/>
	<path class="st3" d="M447.2,158.8c-2.7,1.7-5.4,3.2-8.2,4.8c-5.6,3.2-11.2,6.4-16.8,9.6c-0.3,0.1-0.5,0.3-0.8,0.4
		c-0.2-1.2-0.1-2.5,0.1-3.7c0.4-3.8,0.8-7.6,1.4-11.3c0.8-4.7,1.8-9.4,3.5-13.9c0.7-1.8,1.6-3.4,2.8-4.9c1.3-1.6,3-2.4,5-2.6
		c0.9-0.1,1.5,0.2,1.9,1c1.6,2.7,3.5,5.1,5.6,7.4c0.1,0.1,0.1,0.1,0.1,0.1c0,0-0.1,0-0.1,0c0.2-1,0-1.9,0-2.8c0-0.5,0-1.1,0.6-1.3
		c0.6-0.2,1,0.2,1.4,0.7c1.4,2.1,2.2,4.4,3,6.9C447.7,152.2,447.1,155.5,447.2,158.8z"/>
	<path class="st1" d="M558.4,317.4c-0.2-1.9,0.3-3.7,0.4-5.5c0.2-2.6,0.5-5.3,0.8-7.9c0.3-3.1,0.6-6.2,0.9-9.3
		c0-0.4,0.2-0.8,0.5-1.1c3.6-5.2,7.2-10.5,10.8-15.7c0.1-0.1,0.2-0.2,0.4-0.3c0.5,1.4,0.5,2.8,0.7,4.1c0.5,3.7,1.1,7.4,1.4,11.2
		c0.4,4.5,2,8.5,4.3,12.3c0.1,0.2,0.2,0.5,0.3,0.7c-6.5,3.7-12.9,7.4-19.4,11.1C559.1,317.2,558.8,317.4,558.4,317.4z"/>
	<path class="st11" d="M350.7,268.7c5.3,0,10.6,0,15.8,0c0.3,2.6,0.5,5.2,0.8,7.8c-0.2,0.2-0.3,0.4-0.5,0.5
		c-6,3.4-11.9,6.8-17.9,10.2c-0.2-1.9,0.2-3.7,0.4-5.5c0.3-3.9,0.8-7.8,1.2-11.7C350.5,269.5,350.6,269.1,350.7,268.7z"/>
	<path class="st13" d="M606,152.6c1.7,0,4.1,0.8,6,2.5c1.7,1.5,2.5,3.5,2.2,5.8c-0.3,2-0.5,4.1-0.8,6.1c-0.1,1-0.5,1.9-1.1,2.7
		c-2.6,3.2-5.8,5.2-9.9,5.5c-1.4,0.1-1.9-0.3-2.3-1.6c-0.2-1-0.7-1.8-1-2.8c-0.2-0.6-0.4-0.9-1.1-0.8c-1.4,0.1-1.6-0.2-1.3-1.5
		c0.2-0.9,0.5-1.8,0.6-2.8c0.1-0.9,0-1.7-0.2-2.5C595.3,157.6,599.1,152.5,606,152.6z M598.4,168.3c1.6,0.1,1.6,0.1,2.1,1.5
		c0,0.1,0,0.3,0.1,0.4c0.7,0.8,1,1.8,1,2.9c0,0.6,0.4,0.7,0.9,0.7c3.8-0.5,6.7-2.4,9-5.6c-1.1-0.3-1.2-1-0.9-1.8
		c0.2-0.7,0.3-1.4,0.3-2.1c0-1.1-0.7-1.7-1.7-1.6c-0.8,0.1-1.4,0.7-1.3,1.7c0.1,0.8,0.2,1.7,0.4,2.5c-2.2-0.1-2.3-0.2-2.6-2.1
		c-0.1-0.9-0.3-1.8-0.4-2.7c-2.9,0.7-5.2,0-7-2.8c-0.2,1.1-0.3,1.9,0.1,2.6C599.2,164,599.1,166.1,598.4,168.3z"/>
	<path class="st13" d="M663.5,191.2c2.6,0.1,4.9,0.8,6.8,2.4c1.9,1.6,2.7,3.6,2.4,6c-0.3,2-0.5,4.1-0.8,6.1c-0.1,0.9-0.4,1.8-1,2.5
		c-2.5,3.3-5.8,5.3-10,5.7c-1.5,0.1-2-0.2-2.3-1.7c-0.1-0.7-0.5-1.3-0.7-2c-0.3-0.9-0.6-1.9-2-1.5c-0.6,0.2-0.9-0.3-0.9-0.9
		c0.1-0.7,0.3-1.4,0.5-2c0.3-1.4,0.4-2.7,0-4.1c-1.6-4.9,1.6-9.8,6.7-10.4C662.6,191.2,663.1,191.2,663.5,191.2z M656.9,206.9
		c0.7,0.1,1.6-0.2,1.8,0.5c0.3,1.5,1.6,2.7,1.4,4.3c0,0.5,0.2,0.7,0.8,0.6c3.9-0.5,6.8-2.4,9.2-5.6c-1.1-0.2-1.2-0.9-1-1.7
		c0.2-0.6,0.2-1.3,0.3-1.9c0.1-1.2-0.4-1.8-1.4-1.9c-1.1,0-1.7,0.7-1.6,1.9c0.1,0.8,0.2,1.6,0.3,2.3c-0.4,0.2-0.7,0-0.9,0
		c-1.1-0.1-1.5-0.7-1.6-1.8c-0.1-1-0.3-2-0.5-3c-1.4,0.4-2.7,0.4-3.9,0c-1.3-0.4-2.1-1.4-3-2.7c-0.2,1-0.3,1.8,0,2.5
		C657.6,202.5,657.6,204.6,656.9,206.9z"/>
	<path class="st13" d="M312.2,125c4.4,0,7.4,2.3,8.4,6.5c0.3,1.2,0.3,2.3-0.1,3.4c-0.8,1.8-0.6,3.6-0.1,5.4c0.1,0.3,0.2,0.6,0.2,0.9
		c0.3,1.1,0,1.6-1.2,1.4c-0.9-0.2-1.1,0.2-1.3,0.9c-0.3,0.9-0.8,1.8-1,2.8c-0.2,1.1-0.9,1.6-2.1,1.5c-4.4-0.4-7.8-2.4-10.4-5.9
		c-0.4-0.5-0.6-1-0.7-1.6c-0.3-2.3-0.7-4.7-0.9-7c-0.3-2.9,1-4.9,3.3-6.5C308.1,125.5,310.1,125,312.2,125z M309.2,139.2
		c-0.2-0.5,0-1,0.1-1.5c0.1-0.4,0.2-0.9,0.1-1.3c0-0.9-0.7-1.5-1.5-1.5c-0.8,0-1.5,0.7-1.5,1.6c0.1,0.9,0.2,1.9,0.4,2.8
		c0.1,0.4,0.1,0.7-0.4,0.8c-0.7,0.2-0.5,0.6-0.2,1c1.3,1.7,3,3,4.9,3.9c1.2,0.6,2.4,0.9,3.7,1c0.4,0,0.8,0,0.8-0.5
		c-0.2-1.6,1.1-2.8,1.4-4.3c0.1-0.4,0.4-0.6,0.8-0.6c0.3,0,0.7,0.2,1-0.3c-0.7-2.2-0.6-4.4,0.3-6.5c0.3-0.7,0.2-1.4-0.2-2.1
		c-0.7,1.2-1.6,2.1-2.8,2.6c-1.3,0.5-2.6,0.3-4,0.2c-0.1,0.8-0.2,1.6-0.4,2.3c-0.3,2.1-0.3,2.1-2.4,2.5
		C309.3,139.3,309.2,139.3,309.2,139.2z"/>
	<path class="st13" d="M442.9,115c4.4,0,7.4,2.3,8.4,6.4c0.3,1.2,0.3,2.3-0.1,3.4c-0.8,1.8-0.6,3.6-0.1,5.4c0.1,0.3,0.2,0.7,0.3,1
		c0.2,1-0.1,1.4-1.1,1.3c-1-0.2-1.3,0.3-1.6,1.1c-0.3,0.9-0.8,1.7-0.9,2.6c-0.2,1.1-0.9,1.5-2.1,1.5c-3-0.1-5.5-1.3-7.8-3.2
		c-0.7-0.6-1.3-1.2-1.9-1.9c-0.8-0.9-1.3-2-1.5-3.2c-0.2-1.9-0.5-3.8-0.8-5.7c-0.4-3.4,0.9-5.8,3.9-7.4
		C439.3,115.4,441.1,115,442.9,115z M449.6,121.8c-1.5,2.3-3.5,3.3-6.2,2.7c-0.5-0.1-0.6,0.2-0.7,0.6c-0.1,0.8-0.3,1.6-0.4,2.4
		c-0.3,1.3-0.4,1.5-1.8,1.8c-0.6,0.1-0.8-0.1-0.7-0.6c0.1-0.7,0.3-1.4,0.3-2.1c0-0.9-0.5-1.4-1.4-1.5c-1.1-0.1-1.7,0.7-1.6,1.8
		c0.1,0.8,0.2,1.7,0.4,2.5c0.1,0.4,0.1,0.7-0.4,0.8c-0.8,0.2-0.4,0.6-0.1,1c2.1,2.7,4.9,4.4,8.3,4.9c0.7,0.1,1.1-0.1,1.1-0.8
		c0-1.5,1.2-2.6,1.4-4c0-0.3,0.4-0.4,0.7-0.5c0.3-0.1,0.7,0.2,1.1-0.3c-0.8-2.2-0.6-4.4,0.3-6.7
		C450.1,123.1,450.1,122.5,449.6,121.8z"/>
	<path class="st13" d="M364.6,224.9c-3.7-0.1-6.9-1.5-9.5-4.1c-0.5-0.5-0.8-1.1-1-1.8c-0.6-1.9-1.1-3.8-1.7-5.8
		c-0.7-2.4-0.1-4.6,1.6-6.3c2.7-2.6,5.9-3.6,9.6-2.7c3.7,0.9,6.1,5.4,5.2,8.4c-0.4,1.4,0.1,2.7,0.6,3.9c0.1,0.3,0.3,0.5,0.4,0.8
		c0.2,0.5,0.6,1,0.4,1.5c-0.3,0.7-0.9,0.5-1.5,0.5c-0.3,0-0.5,0.2-0.6,0.5c-0.2,0.9-0.4,1.8-0.6,2.8c-0.2,1.8-0.6,2.1-2.3,2.2
		C365,224.9,364.8,224.9,364.6,224.9z M367.3,210.4c-1.7,1.7-2.8,2.4-4.4,2.5c-0.6,0.1-1.4-0.3-1.8,0.2c-0.4,0.5-0.1,1.3-0.2,1.9
		c0,0.1,0,0.3,0,0.5c0,1.3,0,1.3-1.3,1.7c-0.2,0.1-0.5,0.1-0.7,0.1c-0.2-0.6-0.1-1.2-0.1-1.8c-0.1-1-0.8-1.5-1.6-1.4
		c-0.8,0.1-1.3,0.8-1.1,1.8c0.1,0.5,0.3,1,0.5,1.6c0.2,0.4,0,0.7-0.4,0.8c-0.2,0.1-0.5,0.1-0.6,0.4c0.1,0.6,0.5,1.1,1,1.5
		c1.8,1.7,3.9,2.7,6.4,3.1c0.8,0.1,1.6,0.2,2.4,0.1c0.3,0,0.7-0.1,0.6-0.5c-0.2-1.2,0.3-2.3,0.5-3.4c0.2-1.1,0.4-1.8,1.9-1.6
		C366.8,215.3,367.2,212.9,367.3,210.4z"/>
	<path class="st13" d="M311.2,279.8c0-0.9,0-1.7,0-2.6c-0.1-2.2,0.9-3.8,2.6-5c3.1-2.1,6.5-2.4,9.8-0.7c3.2,1.6,4.7,5.6,3.3,8.8
		c-0.7,1.7-0.8,3.3-0.5,5c0,0.2,0.1,0.5,0.1,0.7c0.1,0.9-0.3,1.4-1.2,1.2c-0.9-0.3-1.2,0.2-1.4,0.8c-0.3,0.7-0.7,1.3-1,2
		c-0.4,1.2-1.1,1.6-2.3,1.4c-3.9-0.7-6.8-3-8.8-6.4c-0.6-1.1-0.5-2.3-0.6-3.5C311.2,281.1,311.2,280.4,311.2,279.8
		C311.2,279.8,311.2,279.8,311.2,279.8z M324.4,285.2c0-1.1,0-2.1,0-3.1c0-1,0.7-1.9,1-2.8c0.1-0.5,0.4-0.9,0-1.5
		c-1.5,1.8-3.4,2.3-5.5,1.7c-0.5-0.1-0.7,0-0.8,0.5c-0.2,0.8-0.4,1.6-0.6,2.5c-0.1,0.3-0.2,0.6-0.5,0.7c-0.6,0.1-1.1,0.4-1.8,0.2
		c0.2-0.8,0.4-1.6,0.6-2.4c0.1-0.9-0.4-1.5-1.2-1.6c-0.8-0.1-1.4,0.4-1.5,1.3c0,0.7,0,1.4,0.1,2.1c0,0.4,0.2,0.9-0.3,1.1
		c-0.6,0.3-0.3,0.6-0.1,0.9c1.3,1.9,2.9,3.4,5,4.4c0.6,0.3,1.2,0.5,1.9,0.6c0.3,0.1,0.6,0.1,0.7-0.3c0.2-1,0.8-1.9,1.3-2.8
		C323,285.7,323.3,285,324.4,285.2z"/>
	<path class="st13" d="M657.2,63.3c-0.1,1.5-0.4,3.5-0.7,5.6c-0.1,0.6-0.3,1.2-0.7,1.7c-2.2,3-5.2,4.8-8.9,5.2
		c-1.3,0.1-1.7-0.2-2-1.5c-0.2-0.9-0.8-1.7-1-2.6c-0.1-0.5-0.5-0.4-0.8-0.4c-1.4,0-1.5-0.1-1.2-1.4c0.1-0.6,0.3-1.3,0.5-1.9
		c0.1-0.8,0.1-1.7-0.1-2.5c-1.7-5.5,2.1-10,7.8-9.5c1.8,0.2,3.5,0.8,5,2C656.6,59.2,657.3,60.6,657.2,63.3z M652,68.4
		c-0.4-0.1-0.7-0.2-0.9-0.3c-1-0.1-1.3-0.7-1.4-1.6c-0.1-0.6-0.2-1.2-0.3-1.8c-0.1-0.5-0.3-0.7-0.8-0.6c-2.2,0.4-4-0.3-5.3-2.3
		c-0.4,1-0.5,1.1-0.2,1.8c0.8,1.9,0.8,3.9,0.2,5.8c0.6,0.3,1.4-0.2,1.6,0.7c0.2,1.3,1.2,2.3,1.2,3.6c0,0.4,0.2,0.6,0.7,0.5
		c3.2-0.4,5.6-1.9,7.6-4.4c0.1-0.2,0.4-0.5,0.1-0.6c-1-0.3-0.5-1-0.5-1.6c0.1-0.5,0.2-1.1,0.2-1.6c0-0.9-0.5-1.5-1.3-1.5
		c-0.8,0-1.3,0.6-1.3,1.5C651.7,66.8,651.8,67.5,652,68.4z"/>
	<path class="st13" d="M330.1,193.6c0-0.7-0.1-1.4-0.1-2c2.2-0.3,4.5-0.5,6.7-1c1.3-0.3,1.5-0.7,1.3-2c-0.1-0.3-0.1-0.6-0.2-0.9
		c-0.5-1.8-1-2.1-2.8-1.6c-1.5,0.4-2.9,1.2-4.3,1.6c-0.4,0-0.7-0.1-0.7-0.6c0-0.4,0-0.9,0-1.3c1.7-0.7,3.4-1.5,5.2-1.9
		c2.2-0.4,3.4,0.3,4.3,2.3c0.4,0.9,0.6,1.8,0.7,2.8c0.2,1.8-0.6,2.9-2.4,3.4c-0.8,0.2-1.6,0.4-2.3,0.5
		C333.5,193.2,331.8,193.4,330.1,193.6z"/>
	<path class="st13" d="M645.9,251.9c0.2,0.7,0,1.4,0.1,2.1c-1.5-0.3-2.9-1.1-4.4-1.6c-2.5-0.8-3.4-0.2-3.7,2.4c0,0.1,0,0.3,0,0.4
		c-0.1,0.8,0.2,1.2,1,1.4c2.2,0.5,4.5,0.9,6.8,1.1c0.2,0.7,0.1,1.4,0.1,2c-2.4-0.2-4.8-0.5-7.1-1.1c-2.3-0.6-3.1-1.7-2.8-4
		c0.1-0.8,0.3-1.6,0.6-2.3c0.8-1.9,2.2-2.7,4.2-2.3c1,0.2,1.9,0.5,2.9,0.9C644.3,251.3,645.1,251.6,645.9,251.9z"/>
	<path class="st13" d="M633.5,114.1c0.2,0.6,0.1,1.2,0.1,1.8c-2-0.1-4.1-0.4-6.1-0.8c-2.2-0.5-2.9-1.5-2.6-3.8c0,0,0-0.1,0-0.1
		c0.5-3.3,2.3-4.5,5.5-3.4c1.1,0.4,2.2,0.9,3.3,1.3c0,0.6-0.1,1.2-0.1,1.8c-0.7-0.2-1.3-0.4-2-0.7c-0.9-0.4-1.8-0.8-2.8-1
		c-1-0.2-1.4,0.1-1.8,1c-0.1,0.4-0.3,0.8-0.3,1.1c-0.3,1.4-0.1,1.7,1.3,2C629.9,113.7,631.7,113.8,633.5,114.1z"/>
	<path class="st13" d="M321.1,331c0.5-1.1,0.8-2.2,1.2-3.3c0,0.5,0,1-0.1,1.5c-0.1,0.5,0.1,0.7,0.5,0.7c2,0.2,4,0.5,6,0.4
		c0.4,0,0.8-0.1,0.9-0.6c0.4-1.2,0.6-2.4-0.1-3.5c-0.6-0.9-1.7-0.6-2.6-0.5c-0.6,0.1-1.3,0.2-1.9,0.3c-0.7,0.1-1.5,0.3-2.2,0.2
		c0.1-0.6,0.2-1.1,0.6-1.6c1,0.1,1.9-0.3,2.8-0.4c1.2-0.2,2.3-0.2,3.4,0.2c0.9,0.3,1.6,0.9,1.7,1.9c0.2,1.3,0.3,2.6-0.1,3.9
		c-0.4,1.4-0.9,1.7-2.4,1.8c-1.5,0-3.1,0.1-4.6-0.2c-0.2-0.1-0.5,0.1-0.7,0.1C322.6,331.3,321.7,331.6,321.1,331z"/>
	<path class="st8" d="M354.5,392.1c0.3,0,0.7-0.1,0.9,0.3C355.1,392.5,354.8,392.4,354.5,392.1z"/>
	<path class="st8" d="M354.3,392c0.1-0.1,0.2-0.1,0.3,0.1C354.5,392.1,354.4,392,354.3,392z"/>
	<path class="st9" d="M390.4,412.2c0.1,0,0.2,0,0.3,0C390.6,412.4,390.5,412.4,390.4,412.2z"/>
	<path class="st3" d="M584.6,257.1c-4.6,1.1-9.2,2.3-13.9,3.2c-0.4,0.1-0.9,0.1-1.3,0.3c-1.3,0.4-2.4,0.2-3.5-0.7
		c0.1-0.5-0.1-1-0.3-1.5c-0.6-1.7-1-3.4-1.4-5.2c-0.2-1.1-0.4-1.2-1.2-0.9c-5.2,2.2-10.6,3.4-16.1,4.5c-0.6,0.1-1.3,0-1.9,0
		c0-0.7,0.3-1.4-0.2-2c0.5-1,0.5-2.5,0.1-3.7c0.5-0.6,0.3-1.4,0.3-2.1c4.2-1.6,8.4-3.2,12.6-4.8c0.7-0.3,0.9-0.6,0.9-1.3
		c0-3,0.1-5.9-0.1-8.9c-0.2-2-0.1-4-0.2-6c-0.2-4.1,1.1-7.9,2.9-11.5c0.2-0.4,0.5-0.9,0.8-1.3c0.3-0.5,0.8-0.6,1.3-0.4
		c0.5,0.2,0.4,0.6,0.4,1c0,0.9-0.1,1.8,0.1,2.8c1.2-1,2-2.2,2.8-3.2c1-1.3,2.1-2.6,2.8-4.1c0.3-0.6,0.8-0.8,1.5-0.8
		c2.7,0,4.6,1.3,6,3.4c1.7,2.5,2.7,5.3,3.5,8.1c1.4,4.7,2.2,9.5,2.8,14.4c0.4,3,0.7,6,0.9,9.1c0.2,3.3,0.6,6.7,0.5,10
		C584.9,256,584.9,256.6,584.6,257.1z"/>
	<path class="st13" d="M572,196.2c-0.2,2.5-0.5,5-1,7.4c-0.2,0.9-0.7,1.6-1.2,2.2c-2.5,2.9-5.6,4.8-9.5,5.2
		c-1.3,0.2-2.2-0.3-2.4-1.5c-0.2-1-0.7-1.8-1-2.6c-0.2-0.7-0.5-1.3-1.6-1c-0.9,0.2-1.3-0.3-1.1-1.3c0.1-0.5,0.3-1.1,0.4-1.6
		c0.3-1.5,0.6-2.9-0.1-4.4c-1.3-2.9,0.4-7.8,4-9.5c4.1-1.9,9.6-0.6,12.2,3C571.8,193.3,572.1,194.7,572,196.2z M556.3,204
		c1.5,0,1.5,0,1.8,1.2c0.1,0.3,0.1,0.6,0.3,0.8c0.6,0.6,0.7,1.5,0.8,2.3c0.2,1,0.1,1.1,1.2,1c3.5-0.5,6.2-2.2,8.3-4.9
		c0.3-0.4,0.5-0.8-0.2-0.9c-0.5-0.1-0.4-0.5-0.3-0.9c0.1-0.9,0.3-1.9,0.4-2.8c0-0.9-0.7-1.6-1.5-1.6c-0.8,0-1.5,0.7-1.5,1.6
		c0,0.4,0.1,0.9,0.2,1.3c0.1,0.5,0.3,1,0.1,1.5c-0.3-0.1-0.7-0.2-1-0.2c-0.9-0.1-1.3-0.6-1.4-1.6c-0.1-1-0.1-2.1-0.6-3
		c-2.8,0.6-5.2-0.1-6.7-2.7c-0.4,1.2-0.2,2.1,0.1,3.1c0.6,1.5,0.5,3,0.2,4.6C556.4,203.1,556.2,203.4,556.3,204z"/>
	<path class="st13" d="M544.8,254.8c0.5,0.6,0.3,1.3,0.2,2c-2.6-0.1-5.2-0.4-7.7-1.1c-1.6-0.5-2.3-1.4-2.3-3.1c0-1.4,0.3-2.7,1-3.9
		c0.6-1,1.5-1.5,2.7-1.6c1.3,0,2.6,0.3,3.8,0.8c0.9,0.3,1.8,0.7,2.6,1.1c-0.1,0.7,0.2,1.4-0.3,2.1c-1.3-0.5-2.6-1.1-3.9-1.5
		c-2.6-0.9-3.3-0.5-3.8,2.2c-0.3,1.5-0.1,1.8,1.3,2.1C540.6,254.3,542.7,254.5,544.8,254.8z"/>
	<path class="st3" d="M593,251.1c0,0.1,0,0.2-0.1,0.3C592.9,251.4,592.9,251.3,593,251.1C592.9,251.2,593,251.2,593,251.1z"/>
	<path class="st4" d="M516.5,313.4c-4.7,0-9.4,0-14.1,0c-0.6,0-1.2-0.1-1.8,0.1c0-1.9-0.5-3.6-0.8-5.5c-0.4-2.7-0.9-5.4-1.4-8.1
		c-0.1-0.3-0.2-0.7-0.3-1c-0.1-0.4-0.4-0.6-0.8-0.4c-2,0.9-3.8,0.2-5.6-0.7c-3.3-1.6-6.4-3.5-9.3-5.7c-1.3-1-2.8-1.6-4-2.7
		c0.2-0.5,0.3-0.9,0.5-1.4c0.3-0.6,0.8-1.1,0.8-1.9c0.4-0.1,0.5-0.5,0.6-0.8c0.2-0.4,0.2-0.6-0.2-0.9c-2-1.1-3.9-2.6-6.2-3.3
		c0-0.5-0.3-1-0.5-1.4c-1.7-3.3-3.1-6.8-4.4-10.3c-0.2-0.4-0.2-0.9-0.2-1.3c0.1,0.2,0.3,0.3,0.4,0.5c0.8,1.2,0.9,1.2,2.2,0.6
		c0.7-0.3,1.4-0.8,2.2-1.1c0.9-0.4,1.3-1,1.1-2c0.6,0,0.7,0.5,0.8,0.9c1.5,3.5,3,7.1,4.5,10.7c0.9,2.1,0.9,2.2,3.1,1.8
		c5.2-0.9,10.4-1.8,15.6-2.7c0.6-0.1,1.1-0.4,1.4-1c0.3-0.5,0.7-0.9,1.1-1.2c0.6-0.4,1.1-0.1,1.2,0.6c0.1,0.5-0.1,1-0.3,1.4
		c-0.4,0.9-1,1.8-1.2,2.7c-0.1,0.4-0.4,0.9,0.1,1.2c0.4,0.3,0.9-0.1,1.2-0.4c1.6-1.4,3.1-2.9,4.2-4.6c0.7-1,1.3-2,2-3
		c0.6-0.9,0.8-1,1.8-0.8c2.7,0.6,4.3,2.4,5.2,4.9c1,2.6,1.6,5.3,1.8,8.2c0.3,3.6,0.8,7.3,0.5,10.9c-0.2,2.9-0.1,5.8-0.4,8.7
		c-0.2,1.6-0.2,3.3-0.4,4.9C517,310.9,517,312.2,516.5,313.4z M486.9,287.4c0.3,0.4,0.8,0.5,1.2,0.7c1.3,0.5,2.7,1.1,4,1.6
		c1.8,0.7,3.8-0.8,3.6-2.8c-0.1-0.7-0.3-0.8-1-0.7c-2.3,0.3-4.6,0.7-7,0.8C487.5,287,487.2,287,486.9,287.4z"/>
	<path class="st13" d="M515.3,261.9c0,1.9,0,3.8,0,5.7c0,1.3,0,1.3-1.2,1.3c-1.3,0-2.5,0-3.8,0c-1.9,0-3.7,0-5.5,0.5
		c-0.9,0.2-1.9,0.1-2.8,0.1c-1.5-0.1-2-0.5-2.1-1.9c-0.1-0.9-0.4-1.9-0.5-2.8c-0.1-0.5-0.4-0.7-0.9-0.8c-1.4-0.2-1.6-0.5-0.9-1.8
		c1-2,1.3-4,0.9-6.2c-0.4-2.5,1.9-5.9,4.6-7c3.7-1.5,8.9,0,11.2,3.3c0.8,1.2,1.3,2.5,1.2,3.9C515.3,258.2,515.3,260.1,515.3,261.9
		C515.3,261.9,515.3,261.9,515.3,261.9z M499.1,262.3c0.7,0.3,1.7,0.1,1.7,1c0,1.4,0.9,2.6,0.6,4.1c-0.1,0.4,0.1,0.6,0.6,0.7
		c1.3,0.1,2.6-0.1,3.8-0.5c0.4-0.1,0.6-0.3,0.6-0.7c0-2.9-0.1-5.8-0.1-8.7c0-0.5-0.3-0.6-0.7-0.5c-2.3,0.3-4.2-0.6-5.6-2.5
		C500.1,257.5,500.5,260,499.1,262.3z"/>
	<path class="st13" d="M474.8,266.4c0.3,1-0.1,1.6-1.1,2c-0.7,0.3-1.4,0.7-2.2,1.1c-1.3,0.6-1.3,0.6-2.2-0.6
		c-0.1-0.2-0.3-0.3-0.4-0.5c-0.5-1-1.2-1.8-1.9-2.7c-0.4-0.6-0.8-1.1-1.2-1.7c-0.9-1.6-0.6-2.5,0.9-3.6c0.4-0.3,0.8-0.5,1.2-0.7
		c1.9-0.9,2.8-0.5,3.8,1.2c0.9,1.5,1.5,3.3,2.5,4.8c0.1,0.3,0.1,0.7,0.6,0.6C474.9,266.3,474.8,266.3,474.8,266.4z M472.9,266.7
		c-0.1-0.2-0.2-0.4-0.3-0.6c-0.7-1.4-1.4-2.8-2.1-4.2c-0.7-1.3-0.8-1.3-2.1-0.7c-0.2,0.1-0.4,0.2-0.5,0.3c-0.9,0.6-1,0.9-0.4,1.8
		c0.8,1.2,1.6,2.3,2.4,3.4c1,1.4,0.7,1.2,2.2,0.5c0.2-0.1,0.4-0.2,0.5-0.3C472.8,267,472.9,266.8,472.9,266.7z"/>
	<path class="st13" d="M474.1,281.4c2.3,0.7,4.1,2.2,6.2,3.3c0.4,0.2,0.4,0.5,0.2,0.9c-0.2,0.3-0.3,0.7-0.6,0.8
		c-1.6-1-3.2-2-4.9-2.9c-0.9-0.5-1-0.4-1.5,0.4c-0.2,0.2-0.3,0.5-0.4,0.8c-0.4,1.1-0.3,1.3,0.8,1.8c1.7,0.7,3.4,1.3,5.2,1.8
		c-0.2,0.5-0.3,0.9-0.5,1.4c-2.3-0.3-4.4-1.2-6.5-2.2c-0.8-0.4-1.1-1.2-0.9-2C471.5,283.6,472.2,282,474.1,281.4z"/>
	<path class="st4" d="M475,266.3c-0.5,0.1-0.5-0.3-0.6-0.6C475,265.4,474.9,265.9,475,266.3z"/>
	<path class="st13" d="M429.8,318.6c1.8,0.3,3.6,0.6,5.1,1.6c1.8,1.2,2.9,2.9,2.8,5.2c-0.1,1.7-0.1,3.3,0,5c0.1,1.7-0.5,3.1-1.5,4.4
		c-1.9,2.3-4.2,4-7.1,4.8c-1.9,0.5-2.4,0.2-3.2-1.6c-0.2-0.5-0.5-1-0.7-1.5c-0.3-0.6-0.7-1.1-1.6-0.9c-0.9,0.2-1.2-0.4-1.1-1.3
		c0.1-0.6,0.2-1.2,0.3-1.8c0.1-1.3,0-2.5-0.6-3.7c-1-2-0.5-4,0.2-6c1.3-2.2,3.2-3.6,5.8-4c0.4,0.1,0.9,0.1,1.2-0.2
		C429.4,318.6,429.6,318.6,429.8,318.6z M424.5,333.2c0.5,0.2,1.3-0.1,1.5,0.5c0.4,1.2,1.5,2.1,1.7,3.4c0.1,0.8,0.5,0.7,1,0.6
		c2.6-0.7,4.7-2.2,6.3-4.4c0.3-0.5,1.2-1.1,0-1.6c-0.1-0.1,0-0.5,0-0.7c0-0.7,0.1-1.4,0-2.1c0-1-0.7-1.6-1.5-1.5
		c-0.8,0.1-1.3,0.8-1.2,1.8c0.1,0.4,0.2,0.8,0.3,1.2c0.1,0.4,0.4,0.7,0.1,1.1c-1.5,0.1-2.3-0.6-2.5-2.1c0-0.4-0.2-0.8-0.3-1.2
		c-0.1-0.6-0.3-0.8-1-0.6c-2,0.5-3.8,0.2-5.2-1.5c-0.1-0.1-0.2-0.1-0.4,0c-0.1,1.2,0.7,2.3,1,3.4C424.7,330.7,424.5,332,424.5,333.2
		z"/>
	<path class="st8" d="M429.3,318.6c-0.4,0.3-0.8,0.3-1.2,0.2C428.4,318.5,428.8,318.6,429.3,318.6z"/>
	<path class="st14" d="M388.2,243.6c-0.1-0.7-0.8-1.2-0.7-2c1-0.5,1.8-1.2,2.9-1.6c0,1,0,1.9,0,2.9
		C389.7,243.1,388.9,243.4,388.2,243.6z"/>
	<path class="st13" d="M390.3,240c-1.1,0.3-1.9,1.1-2.9,1.6c-0.3-0.1-0.4-0.4-0.5-0.7c-0.3-0.5-0.3-0.8,0.3-1.1
		c1.1-0.6,2.1-1.2,3.2-1.8C390.4,238.7,390.4,239.4,390.3,240z"/>
	<path class="st13" d="M388.2,243.6c0.7-0.2,1.5-0.5,2.2-0.7c0,0.6,0,1.2,0,1.8c-0.5,0.1-1,0.2-1.5,0.3
		C388.6,244.5,388.4,244,388.2,243.6z"/>
	<path class="st13" d="M347.8,333.1c4.4,0,7.5,2.5,8.2,6.4c0.1,0.8,0.2,1.6-0.1,2.4c-0.6,1.5-0.4,3,0.1,4.6c0.1,0.3,0.2,0.7,0.3,1
		c0.3,1.1,0,1.5-1.1,1.6c-0.7,0.1-1,0.4-1.1,0.9c-0.1,0.8-0.6,1.6-0.7,2.4c-0.1,1-0.8,1.5-1.9,1.5c-2.7,0-5.1-1-7.2-2.6
		c-0.4-0.3-0.7-0.5-1.1-0.8c-1.2-1.1-2.1-2.2-2.3-3.9c-0.3-1.8-0.6-3.5-0.9-5.3c-0.4-2.2,0.3-3.9,1.8-5.5
		C343.4,333.9,345.7,333.2,347.8,333.1z M354,339.3c-0.5-2.4-2-3.7-4.3-4.2c-1.6-0.3-3.1-0.1-4.5,0.5c-2.9,1.2-3.9,2.9-3.5,6
		c0.3,1.9,0.4,3.9,1.2,5.7c0.5,1.3,1.6,2,2.6,2.7c1.6,1.1,3.3,1.8,5.3,2c0.3,0,0.8,0.1,0.8-0.4c0-1.1,0.5-2,0.8-3
		c0.3-1,0.5-1.7,1.8-1.7c-0.7-2.1-0.7-4,0-5.9C354.4,340.5,354.3,339.8,354,339.3z"/>
	<path class="st13" d="M372.6,367.7c-0.6-0.6-0.8-1.4-1.2-2.1c1.9-1.5,4-2.6,6.2-3.6c1-0.5,1.9-0.1,2.6,0.6c1.1,1,1.7,2.3,2,3.8
		c0.3,1.2-0.3,2.2-1.4,2.8c-0.7,0.4-1.4,0.7-2.2,1c-1.1,0.4-2.3,0.8-3.4,1.2c-0.4,0.2-0.8,0.2-1.1,0c-0.3-0.7-0.6-1.4-0.9-2.1
		c2-0.5,3.9-1.3,5.8-2c0.6-0.2,0.7-0.6,0.5-1.2c-0.1-0.3-0.2-0.6-0.4-0.8c-0.6-0.9-0.7-1-1.6-0.5
		C375.8,365.7,374.2,366.6,372.6,367.7z"/>
	<path class="st13" d="M357.8,392.6c0.1-1,0-2,0.6-2.8c0.2-0.3,0.2-0.7-0.2-0.9c0.3,0.6,0.1,1.2,0.2,1.8c0,0.4,0.1,0.7,0.6,0.7
		c2-0.1,4.1-0.1,6.1-0.5c0.4-0.1,0.6-0.3,0.7-0.7c0.1-1.2,0.2-2.4-0.5-3.3c-0.8-0.9-1.9-0.4-2.8-0.2c-0.7,0.1-1.3,0.4-2,0.6
		c-0.6,0.2-1.2,0.4-1.9,0.5c0-0.6,0-1.1,0.1-1.7c0.6,0,1.2-0.2,1.7-0.4c1.3-0.5,2.6-0.9,4.1-0.8c1.4,0.1,2.2,0.7,2.6,2
		c0.3,1,0.5,1.9,0.5,2.9c-0.1,1.6-0.6,2.3-2.2,2.6c-2.3,0.5-4.6,0.6-7,0.5C358.1,392.9,358,392.7,357.8,392.6z"/>
	<path class="st0" d="M323.2,324c-1.5-0.4-2.9-1-4.2-1.9c-2-1.3-4-2.7-6-4c-0.6-0.4-0.9-0.8-0.6-1.5c0.3-0.9,0.2-1.9,0.8-2.8
		c1.3,1.6,2.6,3.1,3.9,4.5c1.7,1.9,3.6,2.8,6.1,2.1C323.2,321.6,323.2,322.8,323.2,324z"/>
	<path class="st13" d="M408.8,358.2c0,0.9-0.5,1.7-0.7,2.5c-2-0.4-3.9-0.8-5.9-1.2c-2.3-0.5-3.2-1.9-2.4-4.3
		c0.2-0.6,0.4-1.2,0.7-1.8c0.9-1.7,2-2.1,3.9-1.5c1.6,0.5,3.1,1.2,4.6,1.8c0.4,0.1,0.7,0.3,1.1,0.4c-0.1,0.9-0.3,1.7-0.7,2.5
		c-1.9-0.7-3.7-1.5-5.6-2.2c-0.6-0.3-0.9-0.1-1.2,0.5c-0.1,0.2-0.2,0.5-0.3,0.7c-0.4,1.2-0.3,1.4,0.9,1.7
		C405,357.6,406.9,358,408.8,358.2z"/>
	<path class="st13" d="M426.6,375.6c0.2,1.2,0.8,2.3,0.9,3.5c-0.2,0.4-0.7,0.4-1.1,0.4c-2,0.2-4,0.5-6,0.4c-1.7-0.1-2.4-0.6-2.8-2.3
		c-0.2-0.8-0.2-1.6-0.1-2.4c0.1-2,1.1-3,3.1-3.1c1.4-0.1,2.7,0.2,4,0.4c0.4,0.1,0.8,0.2,1.2,0.2c0.1,0.5,0.2,1,0.3,1.4
		c-1.4,0.1-2.8-0.4-4.1-0.5c-2.3-0.3-3.3,0.2-2.9,3c0.2,1.4,0.4,1.6,1.8,1.6c1.6,0,3.3-0.2,4.9-0.4c1-0.2,1-0.2,0.8-1.2
		C426.6,376.4,426.6,376,426.6,375.6z"/>
	<path class="st0" d="M438.9,385.1c0,0.2,0,0.4-0.3,0.3C438.7,385.4,438.8,385.2,438.9,385.1z"/>
	<path class="st14" d="M645.6,257.7c-2.3-0.2-4.5-0.6-6.8-1.1c-0.8-0.2-1.1-0.6-1-1.4c0-0.1,0-0.3,0-0.4c0.3-2.6,1.2-3.2,3.7-2.4
		c1.5,0.5,2.8,1.3,4.4,1.6C645.8,255.3,646,256.5,645.6,257.7z"/>
	<path class="st14" d="M330.5,187.7c1.5-0.5,2.8-1.3,4.3-1.6c1.8-0.4,2.3-0.1,2.8,1.6c0.1,0.3,0.1,0.6,0.2,0.9c0.2,1.3,0,1.7-1.3,2
		c-2.2,0.5-4.4,0.7-6.7,1c0-0.9,0-1.8,0-2.7C329.8,188.3,330.1,188,330.5,187.7z"/>
	<path class="st14" d="M499.7,388.6c0.9-0.9,1.7-1.7,2.5-2.5c1-0.9,1.3-2,1.2-3.3c-0.3-7.7-0.5-15.4-0.8-23.2c0-0.2,0-0.4,0-0.6
		c0-1.3-0.2-1.3,1.3-1.3c1.1,0,2.2,0,3.3,0c0.5,0,0.7,0.2,0.7,0.7c-0.1,1.2,0,2.4-0.3,3.6c-0.3,1.3-0.4,2.6-0.2,3.9
		c0.4,2.7,0,5.3-0.6,7.9c-0.5,2.2-0.7,4.4-1,6.7c-0.1,1.1,0,2.1,0.2,3.1c0.1,0.5,0.1,0.8-0.3,1.2c-1.4,1.2-2.8,2.4-4.4,3.4
		C500.9,388.6,500.5,389,499.7,388.6z"/>
	<path class="st14" d="M513,357.9c1.6,0,3.2,0,4.7,0c0.6,0,0.9,0.2,1.1,0.8c0.1,0.4,0.4,0.8,0.4,1.3c0.3,1.9,1.1,3.5,2.1,5.1
		c1.2,2,1.5,4.2,2.1,6.4c0.4,1.6,0.8,3.2,1.3,4.8c0.5,1.6,1,3.2,2,4.5c0.3,0.4,0.4,0.7,0.1,1.2c-0.8,1.6-1.5,3.2-2.4,4.7
		c-0.5,0.8-0.5,0.8-1.5,1.1c0.2-1.1,0.7-2.1,1.1-3.1c0.6-1.4,0.5-2.7-0.2-4c-3.4-7-6.8-14-10.2-21.1
		C513.4,359.1,513.1,358.6,513,357.9z"/>
	<path class="st14" d="M426.6,375.6c0,0.4,0,0.8,0.1,1.2c0.1,1,0.1,1.1-0.8,1.2c-1.6,0.3-3.3,0.4-4.9,0.4c-1.4,0-1.6-0.1-1.8-1.6
		c-0.4-2.9,0.7-3.3,2.9-3c1.4,0.2,2.7,0.6,4.1,0.5C426.3,374.7,426.5,375.2,426.6,375.6z"/>
	<path class="st14" d="M408.8,358.2c-1.9-0.2-3.8-0.6-5.6-1c-1.2-0.3-1.3-0.5-0.9-1.7c0.1-0.2,0.2-0.5,0.3-0.7
		c0.2-0.6,0.6-0.7,1.2-0.5c1.8,0.8,3.7,1.5,5.6,2.2C409.1,357.1,409,357.7,408.8,358.2z"/>
	<path class="st14" d="M358.5,387.8c0.7-0.1,1.3-0.2,1.9-0.5c0.7-0.2,1.3-0.5,2-0.6c1-0.2,2.1-0.8,2.8,0.2c0.8,0.9,0.7,2.2,0.5,3.3
		c0,0.4-0.3,0.6-0.7,0.7c-2,0.4-4.1,0.4-6.1,0.5c-0.5,0-0.5-0.3-0.6-0.7c-0.1-0.6,0.1-1.2-0.2-1.8
		C358.5,388.6,358.3,388.2,358.5,387.8z"/>
	<path class="st14" d="M372.6,367.7c1.6-1.1,3.2-2,4.9-2.9c0.9-0.5,1.1-0.5,1.6,0.5c0.2,0.3,0.3,0.5,0.4,0.8c0.2,0.5,0.2,1-0.5,1.2
		c-1.9,0.7-3.8,1.5-5.8,2C373,368.7,372.8,368.2,372.6,367.7z"/>
	<path class="st14" d="M322.7,326.2c0.8,0.1,1.5-0.1,2.2-0.2c0.6-0.1,1.3-0.2,1.9-0.3c0.9-0.1,2-0.4,2.6,0.5
		c0.7,1.1,0.5,2.3,0.1,3.5c-0.1,0.4-0.5,0.6-0.9,0.6c-2,0.1-4-0.2-6-0.4c-0.4,0-0.6-0.2-0.5-0.7c0.1-0.5,0.2-1,0.1-1.5
		C322.4,327.2,322.6,326.7,322.7,326.2z"/>
	<path class="st14" d="M633.5,114.1c-1.8-0.3-3.7-0.4-5.5-0.8c-1.4-0.3-1.6-0.6-1.3-2c0.1-0.4,0.2-0.8,0.3-1.1
		c0.4-0.9,0.8-1.1,1.8-1c1,0.2,1.9,0.6,2.8,1c0.6,0.3,1.3,0.5,2,0.7C633.7,111.9,633.7,113,633.5,114.1z"/>
	<path class="st0" d="M441.9,145.5c0,0,0.1,0,0.1,0C442,145.6,441.9,145.6,441.9,145.5C441.9,145.5,441.9,145.5,441.9,145.5z"/>
	<path class="st14" d="M598.4,168.3c0.7-2.2,0.8-4.3-0.1-6.4c-0.3-0.7-0.2-1.5-0.1-2.6c1.8,2.8,4.1,3.5,7,2.8
		c0.2,0.9,0.3,1.8,0.4,2.7c0.3,1.9,0.4,2,2.6,2.1c-0.1-0.8-0.3-1.7-0.4-2.5c-0.1-1,0.5-1.6,1.3-1.7c1-0.1,1.7,0.6,1.7,1.6
		c0,0.7-0.1,1.4-0.3,2.1c-0.3,0.9-0.2,1.5,0.9,1.8c-2.3,3.2-5.2,5.1-9,5.6c-0.5,0.1-0.9,0-0.9-0.7c0-1.1-0.3-2-1-2.9
		c-0.1-0.1-0.1-0.3-0.1-0.4C600.1,168.4,600.1,168.4,598.4,168.3z M602,164.3c0-0.6-0.5-1.1-1-1.1c-0.5,0-1,0.5-1,1.1
		c0,0.6,0.5,1,1,1C601.6,165.4,602,164.9,602,164.3z"/>
	<path class="st14" d="M656.9,206.9c0.7-2.3,0.7-4.4-0.2-6.5c-0.3-0.7-0.2-1.4,0-2.5c0.9,1.3,1.8,2.3,3,2.7c1.3,0.4,2.5,0.5,3.9,0
		c0.2,1.1,0.4,2,0.5,3c0.1,1,0.6,1.7,1.6,1.8c0.3,0,0.6,0.2,0.9,0c-0.1-0.7-0.2-1.5-0.3-2.3c-0.1-1.2,0.5-1.9,1.6-1.9
		c1,0,1.5,0.7,1.4,1.9c-0.1,0.6-0.1,1.3-0.3,1.9c-0.2,0.8-0.1,1.4,1,1.7c-2.4,3.2-5.3,5.2-9.2,5.6c-0.5,0.1-0.8-0.1-0.8-0.6
		c0.1-1.6-1.1-2.8-1.4-4.3C658.5,206.6,657.6,207,656.9,206.9z M659.4,203.9c0.6,0,1.1-0.4,1.1-1c0-0.5-0.4-1.1-1-1.1
		c-0.5,0-1.1,0.5-1.1,1C658.3,203.4,658.8,203.9,659.4,203.9z"/>
	<path class="st14" d="M309.2,139.2c0.1,0,0.1,0.1,0.1,0.1c2.1-0.4,2.1-0.4,2.4-2.5c0.1-0.7,0.2-1.5,0.4-2.3c1.4,0.1,2.7,0.3,4-0.2
		c1.3-0.5,2.1-1.4,2.8-2.6c0.4,0.7,0.4,1.4,0.2,2.1c-0.8,2.2-1,4.4-0.3,6.5c-0.3,0.5-0.7,0.2-1,0.3c-0.4,0-0.7,0.3-0.8,0.6
		c-0.2,1.5-1.5,2.7-1.4,4.3c0,0.4-0.4,0.5-0.8,0.5c-1.3-0.1-2.6-0.5-3.7-1c-1.9-0.9-3.6-2.2-4.9-3.9c-0.3-0.4-0.5-0.8,0.2-1
		c0.4-0.1,0.4-0.4,0.4-0.8c-0.2-0.9-0.3-1.9-0.4-2.8c0-0.9,0.6-1.5,1.5-1.6c0.9,0,1.5,0.6,1.5,1.5c0,0.4-0.1,0.9-0.1,1.3
		C309.2,138.3,309,138.7,309.2,139.2z M316.3,135.7c-0.5,0-1,0.5-0.9,1.1c0,0.6,0.4,1,1,1c0.5,0,1-0.5,1-1.1
		C317.4,136.1,316.8,135.6,316.3,135.7z"/>
	<path class="st15" d="M449.6,121.8c0.5,0.7,0.5,1.3,0.3,1.9c-0.8,2.2-1.1,4.5-0.3,6.7c-0.4,0.4-0.7,0.2-1.1,0.3
		c-0.3,0.1-0.7,0.2-0.7,0.5c-0.2,1.4-1.4,2.5-1.4,4c0,0.7-0.4,0.9-1.1,0.8c-3.4-0.5-6.2-2.2-8.3-4.9c-0.3-0.4-0.6-0.8,0.1-1
		c0.5-0.1,0.4-0.5,0.4-0.8c-0.1-0.8-0.3-1.7-0.4-2.5c-0.1-1.2,0.6-1.9,1.6-1.8c0.8,0.1,1.3,0.6,1.4,1.5c0,0.7-0.1,1.4-0.3,2.1
		c-0.1,0.5,0.1,0.7,0.7,0.6c1.3-0.2,1.5-0.4,1.8-1.8c0.1-0.8,0.3-1.6,0.4-2.4c0.1-0.4,0.2-0.7,0.7-0.6
		C446.1,125.1,448.1,124.1,449.6,121.8z M448.1,126.6c0-0.6-0.6-1-1.1-0.9c-0.6,0.1-0.9,0.6-0.9,1.2c0.1,0.6,0.4,0.9,1,0.9
		C447.6,127.7,448.1,127.1,448.1,126.6z"/>
	<path class="st14" d="M367.3,210.4c-0.2,2.5-0.6,4.9,1,7.3c-1.5-0.1-1.7,0.5-1.9,1.6c-0.2,1.1-0.7,2.2-0.5,3.4
		c0.1,0.4-0.3,0.4-0.6,0.5c-0.8,0.1-1.6,0.1-2.4-0.1c-2.4-0.4-4.5-1.5-6.4-3.1c-0.4-0.4-0.9-0.9-1-1.5c0.1-0.2,0.4-0.3,0.6-0.4
		c0.4-0.1,0.5-0.4,0.4-0.8c-0.2-0.5-0.4-1-0.5-1.6c-0.2-1,0.2-1.7,1.1-1.8c0.8-0.1,1.5,0.4,1.6,1.4c0.1,0.6-0.1,1.2,0.1,1.8
		c0.2,0,0.5,0,0.7-0.1c1.3-0.3,1.3-0.3,1.3-1.7c0-0.2,0-0.3,0-0.5c0-0.6-0.3-1.4,0.2-1.9c0.4-0.5,1.2-0.1,1.8-0.2
		C364.5,212.8,365.6,212.2,367.3,210.4z M366.2,214.2c0-0.5-0.5-0.9-1-0.9c-0.5,0-1,0.5-1,1.1c0.1,0.6,0.4,0.9,1,0.9
		C365.8,215.3,366.3,214.8,366.2,214.2z"/>
	<path class="st14" d="M324.4,285.2c-1.2-0.2-1.5,0.5-1.9,1.4c-0.5,0.9-1.1,1.7-1.3,2.8c-0.1,0.4-0.4,0.4-0.7,0.3
		c-0.6-0.1-1.3-0.3-1.9-0.6c-2.1-0.9-3.8-2.4-5-4.4c-0.2-0.3-0.5-0.7,0.1-0.9c0.5-0.2,0.3-0.7,0.3-1.1c0-0.7-0.1-1.4-0.1-2.1
		c0.1-0.9,0.7-1.4,1.5-1.3c0.8,0.1,1.3,0.7,1.2,1.6c-0.1,0.8-0.4,1.5-0.6,2.4c0.7,0.2,1.2-0.2,1.8-0.2c0.4,0,0.4-0.4,0.5-0.7
		c0.2-0.8,0.5-1.6,0.6-2.5c0.1-0.5,0.3-0.6,0.8-0.5c2.2,0.6,4,0.1,5.5-1.7c0.4,0.6,0.1,1,0,1.5c-0.3,1-0.9,1.8-1,2.8
		C324.4,283.1,324.4,284.1,324.4,285.2z M323.8,281.7c0-0.5-0.4-1-0.9-1c-0.5,0-0.9,0.5-0.9,1c0,0.5,0.3,0.8,0.8,0.9
		C323.3,282.6,323.7,282.2,323.8,281.7z"/>
	<path class="st14" d="M652,68.4c-0.1-1-0.3-1.7-0.3-2.4c0-0.9,0.5-1.5,1.3-1.5c0.8,0,1.3,0.6,1.3,1.5c0,0.5-0.1,1.1-0.2,1.6
		c-0.1,0.6-0.5,1.3,0.5,1.6c0.3,0.1,0.1,0.4-0.1,0.6c-1.9,2.5-4.4,4-7.6,4.4c-0.5,0.1-0.7-0.1-0.7-0.5c0-1.4-1-2.4-1.2-3.6
		c-0.2-0.8-1-0.4-1.6-0.7c0.6-2,0.5-3.9-0.2-5.8c-0.3-0.7-0.2-0.7,0.2-1.8c1.2,2,3,2.7,5.3,2.3c0.5-0.1,0.7,0.1,0.8,0.6
		c0.1,0.6,0.2,1.2,0.3,1.8c0.1,0.9,0.4,1.5,1.4,1.6C651.3,68.2,651.5,68.3,652,68.4z M646.5,66.1c0-0.5-0.5-1-1-0.9
		c-0.5,0.1-0.8,0.4-0.8,0.9c0,0.5,0.4,0.9,1,0.9C646.2,66.9,646.4,66.5,646.5,66.1z"/>
	<path class="st14" d="M544.8,254.8c-2.1-0.3-4.2-0.5-6.2-0.9c-1.4-0.3-1.6-0.6-1.3-2.1c0.5-2.7,1.2-3.1,3.8-2.2
		c1.3,0.5,2.6,1,3.9,1.5C545.3,252.3,545.2,253.8,544.8,254.8z"/>
	<path class="st14" d="M556.3,204c-0.1-0.5,0-0.9,0.1-1.3c0.3-1.5,0.3-3.1-0.2-4.6c-0.4-0.9-0.6-1.9-0.1-3.1
		c1.5,2.7,3.9,3.3,6.7,2.7c0.5,1,0.5,2,0.6,3c0.1,1,0.5,1.4,1.4,1.6c0.3,0,0.7,0.2,1,0.2c0.2-0.5,0-1-0.1-1.5
		c-0.1-0.4-0.2-0.9-0.2-1.3c0-0.9,0.7-1.6,1.5-1.6c0.8,0,1.5,0.7,1.5,1.6c0,0.9-0.2,1.9-0.4,2.8c-0.1,0.4-0.1,0.7,0.3,0.9
		c0.7,0.2,0.6,0.5,0.2,0.9c-2.1,2.7-4.8,4.5-8.3,4.9c-1.1,0.1-1,0.1-1.2-1c-0.1-0.8-0.2-1.7-0.8-2.3c-0.2-0.2-0.3-0.5-0.3-0.8
		C557.8,204,557.8,204,556.3,204z M558.7,201c0.6,0,1-0.6,0.9-1.1c-0.1-0.6-0.5-1-1.2-0.9c-0.6,0.1-0.9,0.5-0.9,1
		C557.6,200.6,558.2,201.1,558.7,201z"/>
	<path class="st2" d="M486.9,287.4c0.3-0.4,0.6-0.4,0.9-0.4c2.3,0,4.6-0.5,7-0.8c0.7-0.1,0.9,0,1,0.7c0.2,1.9-1.8,3.5-3.6,2.8
		c-1.3-0.5-2.7-1-4-1.6C487.7,287.9,487.2,287.8,486.9,287.4z"/>
	<path class="st14" d="M479,288.2c-1.8-0.5-3.5-1.1-5.2-1.8c-1.1-0.5-1.2-0.7-0.8-1.8c0.1-0.3,0.3-0.5,0.4-0.8
		c0.6-0.9,0.7-0.9,1.5-0.4c1.6,0.9,3.2,1.9,4.9,2.9C479.8,287.1,479.3,287.6,479,288.2z"/>
	<path class="st14" d="M499.1,262.3c1.5-2.3,1.1-4.8,1-7.2c1.4,2,3.3,2.8,5.6,2.5c0.4-0.1,0.7,0,0.7,0.5c0,2.9,0.1,5.8,0.1,8.7
		c0,0.4-0.2,0.6-0.6,0.7c-1.3,0.4-2.5,0.6-3.8,0.5c-0.5,0-0.7-0.3-0.6-0.7c0.3-1.4-0.6-2.7-0.6-4.1
		C500.7,262.4,499.8,262.6,499.1,262.3z M502.1,258c-0.6,0-0.9,0.4-0.9,1c0,0.6,0.3,0.9,0.9,1c0.6,0,1-0.4,1-1
		C503,258.3,502.6,258.1,502.1,258z"/>
	<path class="st14" d="M472.9,266.7c-0.1,0.1-0.1,0.3-0.2,0.4c-0.2,0.1-0.3,0.2-0.5,0.3c-1.6,0.7-1.2,0.9-2.2-0.5
		c-0.8-1.1-1.7-2.3-2.4-3.4c-0.6-1-0.5-1.2,0.4-1.8c0.2-0.1,0.3-0.2,0.5-0.3c1.2-0.6,1.4-0.6,2.1,0.7c0.7,1.4,1.4,2.8,2.1,4.2
		C472.8,266.3,472.8,266.5,472.9,266.7z"/>
	<path class="st14" d="M424.5,333.2c0-1.2,0.3-2.5-0.1-3.7c-0.3-1.1-1.1-2.1-1-3.4c0.1-0.2,0.3-0.1,0.4,0c1.4,1.6,3.2,2,5.2,1.5
		c0.7-0.2,0.9,0,1,0.6c0.1,0.4,0.3,0.8,0.3,1.2c0.2,1.5,0.9,2.2,2.5,2.1c0.3-0.4-0.1-0.7-0.1-1.1c-0.1-0.4-0.2-0.8-0.3-1.2
		c-0.1-1,0.4-1.7,1.2-1.8c0.8-0.1,1.5,0.5,1.5,1.5c0,0.7,0,1.4,0,2.1c0,0.2-0.1,0.7,0,0.7c1.1,0.6,0.3,1.2,0,1.6
		c-1.6,2.2-3.6,3.7-6.3,4.4c-0.5,0.1-0.9,0.2-1-0.6c-0.1-1.3-1.3-2.2-1.7-3.4C425.7,333.1,425,333.4,424.5,333.2z M426.2,330.7
		c0.5,0,0.9-0.5,0.8-1c-0.1-0.5-0.4-0.8-0.9-0.8c-0.5,0-0.9,0.5-0.9,1C425.2,330.3,425.6,330.7,426.2,330.7z"/>
	<path class="st3" d="M342.8,347.3c-0.8-1.8-0.9-3.8-1.2-5.7c-0.4-3.1,0.6-4.8,3.5-6c1.5-0.6,3-0.8,4.5-0.5c2.3,0.5,3.8,1.8,4.3,4.2
		c-0.4,0.5-0.8,1.2-1.3,1.6c-1,0.7-2,1-3.2,1c-1.4,0-1.4,0-1.5,1.4c-0.1,0.5-0.2,1.1-0.2,1.6c0,0.6-0.3,0.9-0.8,1
		c-0.4,0.1-0.7,0.4-1.1,0.2c-0.2-0.7,0.2-1.3,0.2-1.9c0-1.1-0.6-1.8-1.5-1.8c-0.9,0-1.4,0.7-1.3,1.8c0.1,0.7,0.2,1.4,0.4,2.1
		C343.5,346.7,343.4,347.2,342.8,347.3z"/>
	<path class="st14" d="M342.8,347.3c0.6-0.1,0.7-0.5,0.6-1c-0.1-0.7-0.3-1.4-0.4-2.1c-0.1-1.1,0.4-1.8,1.3-1.8
		c0.9-0.1,1.5,0.7,1.5,1.8c0,0.6-0.3,1.3-0.2,1.9c0.4,0.2,0.8-0.1,1.1-0.2c0.5-0.1,0.8-0.4,0.8-1c0-0.5,0.1-1.1,0.2-1.6
		c0.2-1.4,0.2-1.4,1.5-1.4c1.2,0,2.3-0.2,3.2-1c0.6-0.4,0.9-1.1,1.3-1.6c0.3,0.5,0.4,1.2,0.2,1.7c-0.7,1.9-0.7,3.8,0,5.9
		c-1.3,0-1.5,0.7-1.8,1.7c-0.3,1-0.8,1.9-0.8,3c0,0.5-0.4,0.4-0.8,0.4c-2-0.1-3.7-0.8-5.3-2C344.4,349.3,343.3,348.5,342.8,347.3z
		 M351.9,344.6c0.5,0,1-0.4,1-0.9c0-0.5-0.3-0.9-0.8-1c-0.5-0.1-1,0.3-1.1,0.8C351,344.1,351.4,344.6,351.9,344.6z"/>
	<path class="st13" d="M602,164.3c0,0.6-0.4,1-1,1.1c-0.6,0-1-0.5-1-1c0-0.6,0.5-1.1,1-1.1C601.5,163.3,602,163.8,602,164.3z"/>
	<path class="st13" d="M659.4,203.9c-0.6,0-1-0.5-1-1.1c0-0.5,0.6-1,1.1-1c0.5,0,1,0.6,1,1.1C660.4,203.6,660,204,659.4,203.9z"/>
	<path class="st13" d="M316.3,135.7c0.5,0,1.1,0.5,1.1,1c0,0.5-0.4,1-1,1.1c-0.6,0-1-0.4-1-1C315.4,136.2,315.8,135.7,316.3,135.7z"
		/>
	<path class="st13" d="M448.1,126.6c0,0.5-0.4,1.1-1,1.1c-0.6,0-0.9-0.3-1-0.9c-0.1-0.6,0.3-1.1,0.9-1.2
		C447.5,125.6,448,126,448.1,126.6z"/>
	<path class="st13" d="M366.2,214.2c0,0.5-0.5,1.1-1,1.1c-0.6,0-0.9-0.4-1-0.9c-0.1-0.6,0.4-1.1,1-1.1
		C365.7,213.3,366.2,213.7,366.2,214.2z"/>
	<path class="st13" d="M323.8,281.7c0,0.5-0.5,0.9-1,0.9c-0.5,0-0.8-0.4-0.8-0.9c0-0.5,0.4-1,0.9-1
		C323.3,280.7,323.8,281.2,323.8,281.7z"/>
	<path class="st13" d="M646.5,66.1c-0.1,0.4-0.3,0.8-0.8,0.9c-0.5,0-1-0.3-1-0.9c0-0.5,0.3-0.8,0.8-0.9
		C645.9,65.1,646.5,65.6,646.5,66.1z"/>
	<path class="st13" d="M558.7,201c-0.6,0-1.1-0.4-1.1-1c0-0.6,0.3-1,0.9-1c0.6-0.1,1.1,0.3,1.2,0.9C559.7,200.5,559.3,201,558.7,201
		z"/>
	<path class="st13" d="M502.1,258c0.6,0,0.9,0.3,1,0.9c0.1,0.6-0.4,1.1-1,1c-0.6,0-0.9-0.4-0.9-1C501.2,258.4,501.4,258.1,502.1,258
		z"/>
	<path class="st13" d="M426.2,330.7c-0.5,0-1-0.4-1-0.9c0-0.5,0.4-1,0.9-1c0.5,0,0.8,0.3,0.9,0.8
		C427.1,330.2,426.7,330.7,426.2,330.7z"/>
	<path class="st13" d="M351.9,344.6c-0.5,0-0.9-0.5-0.9-1c0.1-0.5,0.6-0.9,1.1-0.8c0.5,0.1,0.8,0.4,0.8,1
		C352.9,344.3,352.4,344.7,351.9,344.6z"/>
</g>
</svg>
