<?xml version="1.0" encoding="utf-8"?>
<!-- Generator: Adobe Illustrator 19.2.1, SVG Export Plug-In . SVG Version: 6.00 Build 0)  -->
<svg version="1.1" id="Layer_1" xmlns="http://www.w3.org/2000/svg" xmlns:xlink="http://www.w3.org/1999/xlink" x="0px" y="0px"
	 viewBox="0 0 960 960" style="enable-background:new 0 0 960 960;" xml:space="preserve">
<style type="text/css">
	.st0{fill:#F1EBCB;}
	.st1{fill:#386F96;}
	.st2{fill:#CF4882;}
	.st3{fill:#DF8E45;}
	.st4{fill:#89B9CD;}
	.st5{fill:#706530;}
	.st6{fill:#C8BF96;}
	.st7{fill:#A3AB45;}
	.st8{fill:#FCFBF4;}
	.st9{fill:#49848F;}
	.st10{fill:#532B68;}
	.st11{fill:#253A59;}
	.st12{fill:#FDFDF5;}
	.st13{fill:#201D1C;}
	.st14{fill:#D14C42;}
	.st15{fill:#0E100F;}
</style>
<path class="st0" d="M734.7-11.4L734.7-11.4c-170.2,0-340.4,0-510.7,0h0c-77.5,0-154.9,0-232.4,0c0,137.3,0,274.6,0,411.8
	c0,52.8,0,106.7,0,159.5c0,137.4,0,274.8,0,412.2c78,0,156.1,0,234.1,0h0c170.2,0,340.4,0,510.7,0h0c77.5,0,154.9,0,232.4,0
	c0-60,0-229,0-411.8c0-52.8,0-106.7,0-159.5c0-183,0-352.2,0-412.2C890.8-11.4,812.7-11.4,734.7-11.4z"/>
<g>
	<path class="st1" d="M284.4,748.4c0.7,8.9,1.3,17.9,2,26.8c0.9,11.3,1.8,22.6,2.6,34c0.6,8.1,1.2,16.2,1.8,24.2
		c0.6,7.8,1.2,15.6,1.8,23.4c0.5,6.3,0.9,12.6,1.4,18.9c0.6,7.8,1.2,15.6,1.8,23.4c0.5,6.2,0.9,12.5,1.4,18.7
		c0.5,6.2,1,12.3,1.4,18.5c0.5,6,0.9,12.1,1.3,18.1c0.2,2.9,0.5,5.8,0.7,8.7c0.1,1.3,0.1,2.5,0.1,3.8c-55,0-257.7,0-312.7,0
		c0-185.9,0-371.7,0-557.6c10.9,0.9,169.3,2.2,180,4.4c11.7,2.4,23.2,5.7,34.2,10.6c7.6,3.5,14.4,8.2,21,13.3
		c19,14.6,32.9,33.2,43.3,54.7c6.3,13.1,11.1,26.7,15.6,40.5c9.5,29.2,19.5,58.2,29.3,87.3c8.2,24.2,16.3,48.3,24.5,72.5
		c5.4,16,10.9,32.1,16.3,48.1c0.7,2,0.7,2-1.5,2.1c-6.3,0.5-12.6,1-18.9,1.4c-6.1,0.5-12.2,0.9-18.3,1.4c-3.3,0.3-6.6,0.5-9.9,0.8
		c-1.5,0-3-0.2-4.4,0.4c-3.7,0.3-7.4,0.6-11.2,0.8c-0.9,0-1.8,0-2.7,0C284.8,747.7,284.4,747.8,284.4,748.4z M256.1,635.1
		c0.5,0.1,1.1,0,1.5-0.3c3.1-0.6,6-1.6,8.9-2.9c4.5-2.1,8.7-4.7,12-8.4c3.4-3.8,3.3-6.1-0.2-9.8c-2-2.1-4.3-3.9-6.9-5.4
		c-5.9-3.4-12.2-5.5-19-5.8c-3.2-0.7-6.4-0.6-9.6,0c-2.6,0-5.1,0.6-7.6,1.3c-6.1,1.6-11.7,4.2-16.5,8.4c-1.5,1.3-2.7,2.7-3.7,4.4
		c-0.8,1.5-0.8,2.9,0,4.3c0.8,1.3,1.7,2.5,2.8,3.6c2.5,2.5,5.4,4.5,8.5,6.2c5.3,2.8,10.9,4.6,16.8,5c2.4,0.7,4.7,0.4,7.1,0.3
		c2,0.1,3.9-0.1,5.8-0.7L256.1,635.1z"/>
	<path class="st2" d="M660.9,967c0.4-4.9,0.7-9.8,1.1-14.7c0.3-4.2,0.6-8.3,0.9-12.5c0.5-6.6,1-13.1,1.5-19.7
		c0.3-4.4,0.6-8.9,0.9-13.3c0.5-6.6,1-13.1,1.5-19.7c0.3-4.2,0.6-8.3,0.9-12.5c0.5-6.5,1-13,1.5-19.5c0.3-4.4,0.6-8.9,0.9-13.3
		c0.5-6.6,1-13.1,1.5-19.7c0.3-4.1,0.6-8.2,0.9-12.3c0.5-6.8,1-13.6,1.5-20.5c0.3-4,0.6-8.1,0.9-12.1c0.5-6.8,1-13.5,1.5-20.3
		c0.2-2.6,0.3-5.3,0.5-8c0.1-0.9-0.2-1.3-1.2-1.4c-3.6-0.2-7.3-0.5-10.9-0.8c-6.7-0.5-13.4-1-20.1-1.5c-4.2-0.3-8.5-0.6-12.7-0.9
		c-6.2-0.5-12.4-1-18.7-1.5c-0.9-0.1-1.9-0.1-2.8-0.1c-2.6-0.1-2.6-0.1-1.8-2.5c1.9-5.5,3.8-11.1,5.7-16.6
		c5.4-15.6,10.7-31.3,16.1-46.9c7.7-22.6,15.4-45.1,23.1-67.7c10-29.2,19.9-58.5,29.7-87.8c5.1-15.3,11.6-30.1,20-44
		c6.4-10.6,13.9-20.3,22.9-28.8c8.4-8.1,17.5-15.4,27.7-21.1c8-4.5,16.7-7.6,25.5-10.1c10.6-3,21.4-5.1,32.4-6.4
		c3.8-0.5,7.6-1,11.5-1.2c0.5,0,144.3,0,144.8,0.1c0,185.7,0,371.4,0,557.2C913.4,967,715.5,967,660.9,967z M708,602.4
		c-3.1,0.1-6,0.8-9,1.7c-6,1.8-11.6,4.6-16.1,9.1c-1,1-2,2.2-2.6,3.5c-0.6,1.3-0.6,2.5,0,3.8c0.7,1.4,1.7,2.7,2.9,3.8
		c6.5,6.2,14.3,9.7,23.2,10.9c0.8,0.5,1.8,0.2,2.6,0.4c3,0.5,6,0.5,8.9-0.1c1.1,0,2.2-0.2,3.4-0.4c7.5-1.4,14.4-4.3,20.2-9.2
		c1.4-1.2,2.7-2.5,3.8-4.1c1.7-2.6,1.7-4-0.1-6.5c-1-1.4-2.2-2.7-3.6-3.8c-6.7-5.4-14.5-8.2-23-9.1c-1-0.6-2-0.2-3-0.3
		c-1.7-0.1-3.3-0.1-5,0C709.7,602.2,708.8,601.8,708,602.4z"/>
	<path class="st3" d="M439.8,234.3c4.1-2.4,8.5-4,13-5.5c7.9-2.7,16-4.3,24.3-4.9c2.7-0.2,5.4-0.3,8.2-0.3c40.3,0,80.6,0,120.8,0
		c14.1,0,27.7,3.1,40.5,9c11.8,5.4,22.2,12.9,31,22.4c12.9,13.9,21.1,30.1,24.8,48.7c1.7,8.5,2,17.2,1.5,25.8
		c-0.7,11.2-3.5,22-8,32.3c-5.2,11.9-12.5,22.3-21.9,31.4c-8.5,8.2-18.2,14.7-29,19.4c-0.5,0.2-1,0.5-1.5,0.6
		c-1,0.3-1.1,0.9-0.8,1.8c1.3,3.6,2.9,7,5.3,10c3.4,4.5,7.8,8,12.3,11.2c6,4.3,12.3,7.9,18.7,11.3c0.5,0.3,1.1,0.4,1.5,1.1
		c-2.2,0.8-4.5,1-6.7,1.3c-3.7,0.5-7.5,0.8-11.3,0.7c-11.3-0.2-22.2-2.2-32.3-7.5c-8-4.3-14.4-10.3-19.7-17.7
		c-0.8-1.1-1.6-2.3-2.3-3.5c-0.5-0.9-1.2-1.3-2.3-1.2c-0.5,0.1-0.9,0-1.4,0c-24.7,0-49.3,0-74,0c0-0.1-0.1-0.3-0.1-0.4
		c0.4-0.5,1-0.7,1.5-1c11.1-6,20.5-14,28.5-23.6c5.4-6.5,9.8-13.5,13.4-21.2c5.8-12.3,8.7-25.2,9.3-38.6c0.3-6.2-0.2-12.5-1.2-18.6
		c-2-12.5-6.3-24.1-12.7-35c-6.5-10.8-14.8-20.1-24.8-27.8c-7.8-6-16.3-10.7-25.5-14.1c-11-4.1-22.4-6.1-34.1-6.2
		c-14.2-0.1-28.4,0-42.7,0C441.3,234.4,440.6,234.4,439.8,234.3z M638.1,332.2c0-3.6-0.6-7.2-2.1-10.5c-3.3-7.4-10.2-11.4-18-10.5
		c-8,0.8-13.7,6.7-15.1,14.7c-1.9,10.6,7.6,21.6,19.2,20c1.1-0.1,2.1-0.3,3.2-0.3c2-0.1,2.9,0.7,2.9,2.7c0.1,2.4-0.4,4.6-1.2,6.8
		c-2.4,6.6-6.6,11.9-12.3,16.1c-2.2,1.6-2.2,1.7-0.2,3.5c0.5,0.4,0.8,0.5,1.4,0.1c3.4-2.6,6.7-5.2,9.5-8.5c3-3.6,5.1-7.6,7.2-11.7
		C636,347.4,637.9,340,638.1,332.2z M643.7,328.2c0,1.1,0.1,2.2,0.3,3.4c1.7,9,10.6,15.5,19.7,14.1c0.9-0.1,1.8-0.3,2.8-0.3
		c2-0.1,2.8,0.8,2.9,2.7c0,1.3-0.1,2.5-0.3,3.8c-1.2,5.6-4.2,10.3-7.9,14.5c-1.7,1.9-3.7,3.6-5.9,5.1c-1.5,1-1.4,1-0.2,2.3
		c0.1,0.1,0.2,0.2,0.3,0.3c0.7,0.9,1.3,0.8,2.1,0.1c3.7-2.9,7.2-5.9,10-9.6c6.6-9.1,11.1-19,11.5-30.4c0.2-4.2-0.1-8.2-1.8-12.1
		c-3.5-8.3-11.2-12.2-19.8-10.6C649.6,312.8,643.7,320,643.7,328.2z"/>
	<path class="st4" d="M528.9,421c-2.7,1.7-5.6,2.8-8.5,3.9c-7.4,3-15,4.9-22.9,5.9c-4.5,0.6-9,0.9-13.5,0.9
		c-40.1,0-80.1,0-120.2-0.1c-1.8,0-2.9,0.5-3.8,2.1c-2.3,3.9-5.2,7.4-8.4,10.6c-7.5,7.5-16.5,12.4-26.8,14.9
		c-4.6,1.1-9.2,1.7-13.9,2.1c-7,0.6-13.8-0.2-20.6-1.3c-0.7-0.1-1.3-0.3-2-0.6c0.3-0.8,1.1-0.9,1.7-1.2c7.6-4.1,15.1-8.4,21.9-13.7
		c5.2-4.1,9.8-8.6,12.5-14.7c0.5-1.2,1.1-2.4,1.5-3.7c0.5-1.5,0.5-1.6-1-2.2c-2.2-0.9-4.4-2-6.5-3.1c-7.6-3.8-14.5-8.6-20.8-14.3
		c-10.5-9.3-18.5-20.3-24.3-33c-3.5-7.6-5.9-15.6-7.3-23.9c-0.7-4.3-1-8.7-1.3-13c-0.3-3.9,0-7.8,0.2-11.7
		c0.4-6.4,1.7-12.7,3.4-18.9c2.7-9.5,6.7-18.5,12.2-26.7c4.9-7.5,10.7-14.3,17.6-20.3c7.1-6.2,14.8-11.3,23.2-15.3
		c7.8-3.7,16.1-6.3,24.6-7.8c6.1-1.1,12.2-1.6,18.4-1.6c24.1,0,48.1,0,72.2,0c0.9,0,1.7,0.1,2.6,0.1c-1.2,0.7-2.4,1.4-3.6,2.1
		c-16.7,9.7-29.7,23-38.6,40.1c-9.3,17.9-12.8,37-10.5,57.1c1.3,11.2,4.4,21.8,9.4,32c6.2,12.6,14.7,23.4,25.5,32.3
		c9.9,8.3,21,14.3,33.4,18.2c10,3.2,20.3,4.6,30.8,4.6c13.8,0,27.5,0,41.3,0C527.4,420.9,528.1,421,528.9,421z M293.5,324.3
		c0,2.2,0.1,4.4,0.5,6.5c1.1,5,3.3,9.3,7.5,12.3c9.1,6.7,24.4,2.4,26.9-10.9c2.2-11.9-7.6-23.7-21.4-20.6c-0.4,0.1-0.9,0.2-1.4,0.2
		c-1.5,0-2.2-0.6-2.3-2.1c-0.1-1.1,0-2.1,0.1-3.2c0.9-5.3,3.6-9.8,6.8-14c2.1-2.8,4.8-4.9,7.5-7.1c0.8-0.6,1.1-1.1,0.2-1.9
		c-0.2-0.1-0.3-0.3-0.4-0.4c-1.1-1.2-1.1-1.2-2.3-0.3c-5.2,3.9-9.7,8.5-13.1,14C296.9,305.3,293.6,314.3,293.5,324.3z M359.6,284.4
		c-0.4-0.5-0.7-0.9-1.1-1.4c-0.9-1.1-0.9-1.1-2-0.3c-1.7,1.4-3.4,2.7-5.1,4.2c-5.6,4.9-9.3,11.2-12.4,17.9
		c-3.4,7.4-5.1,15.2-4.4,23.4c0.4,4.2,1.7,8,4.3,11.4c7.1,9.5,21.3,8.2,27.4-0.2c3-4.1,3.8-8.7,3.1-13.6
		c-1.4-9.7-10.9-16.3-20.4-14.2c-0.7,0.2-1.4,0.2-2.2,0.2c-1.9,0-2.5-0.6-2.6-2.4c-0.1-2.1,0.3-4.1,1-6.1
		c2.5-7.1,6.8-12.9,12.8-17.4C358.6,285.5,359.2,285.1,359.6,284.4z"/>
	<path class="st5" d="M528.9,421c-0.7,0-1.5-0.1-2.2-0.1c-13.8,0-27.5,0-41.3,0c-10.5,0-20.8-1.4-30.8-4.6
		c-12.3-3.9-23.4-10-33.4-18.2c-10.8-9-19.3-19.8-25.5-32.3c-5-10.1-8.1-20.7-9.4-32c-2.3-20.1,1.1-39.2,10.5-57.1
		c8.9-17.1,21.9-30.4,38.6-40.1c1.2-0.7,2.4-1.4,3.6-2.1c0.3,0,0.5-0.1,0.8-0.1c0.7,0,1.5,0.1,2.2,0.1c14.2,0,28.4-0.1,42.7,0
		c11.7,0.1,23.1,2.1,34.1,6.2c9.2,3.4,17.7,8.1,25.5,14.1c10,7.7,18.3,16.9,24.8,27.8c6.5,10.8,10.7,22.5,12.7,35
		c1,6.2,1.5,12.4,1.2,18.6c-0.6,13.5-3.5,26.4-9.3,38.6c-3.6,7.6-8,14.7-13.4,21.2c-8,9.6-17.5,17.6-28.5,23.6
		c-0.5,0.3-1.1,0.5-1.5,1c-0.3,0.1-0.5,0.3-0.8,0.4C529.3,420.9,529.1,421,528.9,421z M466.9,354.4c0.1,7.7,0.1,15.4,0,23.1
		c-2,0-4,0-5.9,0.1c-0.6,0-1.3-0.2-1.9,0.3c0,1.2,0,2.4-0.1,3.6c0,0.9,0.3,1.3,1.3,1.3c1.7,0,3.3,0,5,0c1.7,0,1.9,0,1.7,1.8
		c-0.3,2.5,0.9,3.7,3,4.5c0.6,0.2,1.1,0.4,1.7,0.6c2.8,0.9,5.7,1.1,8.6,1.4c5.5,0.4,10.9,0,16.1-1.6c3.5-1.1,3.9-1.6,4.1-5.3
		c0-1.1,0.5-1.3,1.5-1.3c1.6,0,3.2,0,4.8,0c1.1,0,1.4-0.4,1.4-1.4c-0.1-1.1-0.1-2.3-0.1-3.4c-0.4-0.6-1.1-0.4-1.6-0.4
		c-1.9,0-3.8,0-5.8,0c0-0.9-0.1-1.7-0.1-2.6c0-6.7,0-13.5-0.1-20.2c0.7-0.4,1.4-0.7,2.1-1.1c17.2-8.1,26.9-26.7,23.8-45.4
		c-4-23.9-26.8-40-50.9-34.6c-16.7,3.7-27.9,14.2-32.2,30.8c-4.4,16.8,0.5,31.3,13.4,43.1c3,2.7,6.4,4.7,10,6.5
		C466.8,354.1,466.8,354.3,466.9,354.4z"/>
	<path class="st4" d="M299.1,746.8c1.4-0.6,2.9-0.4,4.4-0.4C302.1,747,300.6,746.9,299.1,746.8z"/>
	<path class="st4" d="M284.4,748.4c0-0.6,0.4-0.8,0.9-0.8c0.9,0,1.8,0,2.7,0C286.9,748.3,285.5,747.7,284.4,748.4z"/>
	<path class="st6" d="M529.5,420.9c0.3-0.1,0.5-0.3,0.8-0.4c0,0.1,0.1,0.3,0.1,0.4C530.2,420.9,529.9,420.9,529.5,420.9z"/>
	<path class="st7" d="M242.7,602.5c3.2-0.6,6.4-0.7,9.6,0c0.7,0.3,1.3,0.5,2,0.8c7.8,3.3,12,12,9.7,20.1c-1.5,5.4-4.9,9.1-10,11.3
		c-1.3,0.4-2.6,0.7-3.9,1.1c-2.4,0.2-4.8,0.4-7.1-0.3c-0.7-0.3-1.5-0.6-2.2-0.9c-6.4-3-10-8.1-10.2-15.1c-0.2-7.1,3.1-12.4,9.4-15.8
		C240.9,603.2,241.8,602.9,242.7,602.5z M255.3,619c0-4.2-3.5-7.7-7.7-7.7c-4.1,0-7.6,3.5-7.7,7.6c0,4.2,3.5,7.8,7.7,7.8
		C251.8,626.7,255.3,623.3,255.3,619z"/>
	<path class="st8" d="M242.7,602.5c-0.9,0.4-1.8,0.8-2.7,1.2c-6.3,3.4-9.6,8.7-9.4,15.8c0.2,7.1,3.9,12.1,10.2,15.1
		c0.7,0.3,1.4,0.6,2.2,0.9c-6-0.4-11.6-2.2-16.8-5c-3.1-1.6-6-3.6-8.5-6.2c-1.1-1.1-2-2.3-2.8-3.6c-0.8-1.5-0.8-2.9,0-4.3
		c1-1.7,2.2-3.1,3.7-4.4c4.8-4.2,10.4-6.8,16.5-8.4C237.6,603.1,240.1,602.4,242.7,602.5z"/>
	<path class="st8" d="M254,634.8c5.1-2.2,8.5-6,10-11.3c2.3-8.2-1.9-16.8-9.7-20.1c-0.7-0.3-1.3-0.6-2-0.8c6.8,0.4,13.1,2.5,19,5.8
		c2.6,1.4,4.9,3.2,6.9,5.4c3.5,3.8,3.6,6,0.2,9.8c-3.3,3.8-7.4,6.4-12,8.4c-2.8,1.3-5.8,2.3-8.9,2.9c-0.5-0.1-1.1-0.1-1.5,0.3
		c0,0-0.1,0-0.1,0C255.3,635,254.6,635.5,254,634.8z"/>
	<path class="st6" d="M254,634.8c0.5,0.8,1.3,0.2,1.9,0.4c-1.9,0.6-3.8,0.8-5.8,0.7C251.4,635.5,252.7,635.1,254,634.8z"/>
	<path class="st6" d="M256.1,635.1c0.4-0.4,1-0.4,1.5-0.3C257.1,635.1,256.6,635.2,256.1,635.1z"/>
	<path class="st9" d="M717.9,635.6c-3,0.6-6,0.6-8.9,0.1c-0.8-0.6-1.7-0.7-2.6-0.9c-0.6-0.3-1.2-0.6-1.7-1
		c-5.8-3.6-8.9-8.8-8.5-15.6c0.4-7.6,4.5-12.8,11.7-15.4c0.9-0.2,1.8-0.3,2.7-0.7c1.7-0.1,3.3-0.1,5,0c1,0.4,2,0.6,3,0.7
		c0.2,0.1,0.5,0.2,0.7,0.3c6.7,2.7,10.9,8.9,10.8,15.9c0,7.1-4.3,13.3-11.1,16C718.7,635.2,718.2,635.2,717.9,635.6z M720.8,618.9
		c0.2-3.9-3.1-7.5-7.6-7.6c-4.2,0-7.7,3.5-7.6,7.8c0,4.2,3.5,7.7,7.6,7.6C717.9,626.5,721,622.7,720.8,618.9z"/>
	<path class="st8" d="M717.9,635.6c0.3-0.4,0.8-0.4,1.2-0.6c6.8-2.7,11.1-8.9,11.1-16c0-7-4.2-13.2-10.8-15.9
		c-0.2-0.1-0.5-0.2-0.7-0.3c0-0.2,0-0.3,0-0.5c8.5,0.9,16.3,3.7,23,9.1c1.4,1.1,2.6,2.3,3.6,3.8c1.8,2.6,1.8,4,0.1,6.5
		c-1.1,1.5-2.3,2.9-3.8,4.1c-5.9,5-12.7,7.8-20.2,9.2C720.1,635.4,719,635.6,717.9,635.6z"/>
	<path class="st8" d="M707.9,602.8c-7.2,2.6-11.3,7.8-11.7,15.4c-0.4,6.8,2.7,12,8.5,15.6c0.6,0.3,1.1,0.7,1.7,1
		c0,0.2,0,0.3-0.1,0.5c-8.9-1.2-16.7-4.7-23.2-10.9c-1.1-1.1-2.1-2.4-2.9-3.8c-0.7-1.3-0.7-2.5,0-3.8c0.7-1.3,1.6-2.5,2.6-3.5
		c4.5-4.5,10.1-7.3,16.1-9.1c2.9-0.9,5.9-1.6,9-1.7C707.9,602.5,707.9,602.7,707.9,602.8z"/>
	<path class="st0" d="M706.3,635.3c0-0.2,0-0.3,0.1-0.5c0.9,0.2,1.8,0.4,2.6,0.9C708.1,635.5,707.1,635.8,706.3,635.3z"/>
	<path class="st6" d="M718.6,602.4c0,0.2,0,0.3,0,0.5c-1-0.1-2-0.4-3-0.7C716.6,602.2,717.7,601.8,718.6,602.4z"/>
	<path class="st6" d="M707.9,602.8c0-0.1,0-0.3,0-0.4c0.8-0.6,1.8-0.2,2.7-0.3C709.8,602.5,708.8,602.6,707.9,602.8z"/>
	<path class="st10" d="M638.1,332.2c-0.2,7.9-2.1,15.2-5.6,22.1c-2.1,4.1-4.2,8.1-7.2,11.7c-2.7,3.3-6,6-9.5,8.5
		c-0.5,0.4-0.9,0.3-1.4-0.1c-2-1.8-2-1.9,0.2-3.5c5.7-4.1,9.9-9.4,12.3-16.1c0.8-2.2,1.3-4.5,1.2-6.8c-0.1-1.9-1-2.8-2.9-2.7
		c-1.1,0.1-2.1,0.2-3.2,0.3c-11.6,1.6-21-9.4-19.2-20c1.4-8,7.2-13.8,15.1-14.7c7.7-0.8,14.6,3.1,18,10.5
		C637.5,325,638.1,328.6,638.1,332.2z"/>
	<path class="st10" d="M643.7,328.2c0-8.2,5.9-15.5,13.6-16.9c8.6-1.6,16.3,2.3,19.8,10.6c1.6,3.9,1.9,7.9,1.8,12.1
		c-0.4,11.5-4.9,21.4-11.5,30.4c-2.8,3.8-6.3,6.8-10,9.6c-0.8,0.7-1.5,0.8-2.1-0.1c-0.1-0.1-0.2-0.2-0.3-0.3
		c-1.3-1.3-1.3-1.3,0.2-2.3c2.1-1.5,4.1-3.1,5.9-5.1c3.8-4.2,6.8-8.9,7.9-14.5c0.3-1.2,0.3-2.5,0.3-3.8c0-1.9-0.9-2.8-2.9-2.7
		c-0.9,0-1.9,0.2-2.8,0.3c-9.1,1.4-18-5.1-19.7-14.1C643.8,330.5,643.7,329.4,643.7,328.2z"/>
	<path class="st11" d="M293.5,324.3c0.1-10,3.4-19,8.6-27.4c3.4-5.6,7.9-10.1,13.1-14c1.3-0.9,1.3-0.9,2.3,0.3
		c0.1,0.2,0.2,0.3,0.4,0.4c0.9,0.7,0.6,1.3-0.2,1.9c-2.7,2.1-5.4,4.3-7.5,7.1c-3.2,4.2-5.8,8.7-6.8,14c-0.2,1.1-0.2,2.1-0.1,3.2
		c0.1,1.5,0.8,2.1,2.3,2.1c0.5,0,0.9-0.1,1.4-0.2c13.8-3.1,23.6,8.8,21.4,20.6c-2.4,13.3-17.8,17.5-26.9,10.9
		c-4.2-3-6.4-7.3-7.5-12.3C293.5,328.6,293.5,326.5,293.5,324.3z"/>
	<path class="st11" d="M359.6,284.4c-0.3,0.8-1,1.1-1.6,1.5c-6.1,4.5-10.3,10.2-12.8,17.4c-0.7,2-1.1,4-1,6.1
		c0.1,1.9,0.7,2.5,2.6,2.4c0.7,0,1.4-0.1,2.2-0.2c9.5-2.1,19,4.6,20.4,14.2c0.7,5-0.2,9.5-3.1,13.6c-6.1,8.4-20.3,9.7-27.4,0.2
		c-2.5-3.4-3.9-7.2-4.3-11.4c-0.7-8.2,0.9-16,4.4-23.4c3.1-6.7,6.8-12.9,12.4-17.9c1.6-1.4,3.4-2.8,5.1-4.2c1.1-0.8,1.1-0.8,2,0.3
		C358.9,283.4,359.2,283.9,359.6,284.4z"/>
	<path class="st12" d="M466.7,354c-3.5-1.8-7-3.8-10-6.5c-12.9-11.7-17.8-26.2-13.4-43.1c4.3-16.6,15.4-27.1,32.2-30.8
		c24.1-5.3,46.9,10.8,50.9,34.6c3.1,18.7-6.6,37.3-23.8,45.4c-0.7,0.3-1.4,0.7-2.1,1.1c-0.6,0.2-1.1,0.3-1.7,0.5
		c-3.1,1.1-6.4,2-9.6,2.2c-7.6,0.6-15.1-0.2-22.1-3.5C466.9,354,466.8,354,466.7,354z M471.1,327.3c0.2,0,0.5,0,0.7,0
		c0.2,0.4,0.4,0.8,0.7,1.2c1.6,2.5,4,3,6.4,1.3c0.9-0.6,1.5-1.4,2.1-2.4c0.7-1.3,1.3-2.6,1.6-4c0.8-3,1.1-6.1,1.2-9.2
		c0.2,0,0.4,0,0.6,0c0,2,0,4,0.1,6c0.2,3,0.7,6,2.4,8.6c1.9,3,5.2,3.1,7.4,0.3c0.9-1.2,1.4-2.5,1.8-4c1.1-4,1.1-8.2,0.7-12.3
		c-0.4-4.4-1.5-8.6-3.8-12.5c-0.8-1.3-0.5-1.8,1.1-1.8c0.2,0,0.4,0,0.6,0.1c2.1,0.3,3.2,1.7,3.9,3.6c1,2.7,1.1,5.5,0.9,8.3
		c-0.3,4.8-1,9.5-2.1,14.2c-1.9,8.2-4.4,16.3-7.2,24.2c-0.3,0.7-0.6,1.5-0.6,2.3c0,0.7,0.4,1.1,1,1.3c0.6,0.2,1.1,0,1.4-0.5
		c0.3-0.4,0.5-0.9,0.7-1.4c3.2-8.9,6-18,8-27.3c1.1-5.3,2-10.6,1.7-16c-0.1-2.7-0.5-5.4-1.9-7.9c-1.8-3.3-6.3-4.9-9.4-2.9
		c-0.8,0.5-1.3,0.2-2-0.2c-2.9-1.8-6-1.9-9.1-0.5c-1,0.5-1.9,0.6-3,0.2c-3.5-1.3-6.6-0.2-8.6,3c-1,1.5-1.5,3.2-1.9,5
		c-1.2,5.7-0.7,11.4,0.2,17c1.6,9.9,4.4,19.5,7.8,29c0.2,0.5,0.3,1,0.6,1.5c0.4,0.6,0.9,0.9,1.7,0.6c0.7-0.3,1-0.9,0.9-1.6
		c-0.1-0.6-0.4-1.3-0.6-1.9C474.8,341.4,472.6,334.5,471.1,327.3z"/>
	<path class="st6" d="M467,354.1c7,3.3,14.5,4.1,22.1,3.5c3.3-0.3,6.5-1.1,9.6-2.2c0.6-0.2,1.1-0.4,1.7-0.5c0,6.7,0,13.5,0.1,20.2
		c0,0.9,0.1,1.7,0.1,2.6c0.5,0.6,1.2,0.3,1.9,0.4c1.8,0,3.7,0,5.5,0.1c0,1.1,0,2.3,0.1,3.4c0.1,1-0.3,1.5-1.4,1.4
		c-1.6-0.1-3.2,0-4.8,0c-1,0-1.4,0.2-1.5,1.3c-0.2,3.7-0.5,4.2-4.1,5.3c-5.3,1.6-10.7,2-16.1,1.6c-2.9-0.2-5.8-0.5-8.6-1.4
		c-0.6-0.2-1.1-0.4-1.7-0.6c-2.1-0.7-3.3-2-3-4.5c0.2-1.7,0-1.8-1.7-1.8c-1.7,0-3.3,0-5,0c-1,0-1.3-0.4-1.3-1.3
		c0.1-1.2,0.1-2.4,0.1-3.6c2.1,0,4.1,0,6.2,0c0.6,0,1.2,0.2,1.6-0.4c0.1-7.7,0.1-15.4,0-23.1C467,354.3,467,354.2,467,354.1z"/>
	<path class="st7" d="M466.9,377.5c-0.4,0.6-1,0.4-1.6,0.4c-2.1,0-4.2,0-6.2,0c0.6-0.5,1.3-0.3,1.9-0.3
		C463,377.5,464.9,377.5,466.9,377.5z"/>
	<path class="st7" d="M508,378c-1.8,0-3.7,0-5.5-0.1c-0.6,0-1.3,0.2-1.9-0.4c1.9,0,3.8,0,5.8,0C506.9,377.6,507.6,377.3,508,378z"/>
	<path class="st7" d="M467,354.1c0,0.1,0,0.2-0.1,0.4c-0.1-0.1-0.1-0.3-0.2-0.4C466.8,354,466.9,354,467,354.1z"/>
	<path class="st13" d="M255.3,619c0,4.2-3.5,7.7-7.7,7.7c-4.2,0-7.7-3.6-7.7-7.8c0-4.1,3.5-7.6,7.7-7.6
		C251.8,611.3,255.3,614.8,255.3,619z M247.5,614.8c-2.2,0-4.2,2-4.2,4.2c0,2.2,2.1,4.2,4.4,4.2c1.6,0.1,4.1-2.4,4-4.2
		C251.6,616.8,249.8,614.9,247.5,614.8z"/>
	<path class="st13" d="M720.8,618.9c0.2,3.9-2.8,7.7-7.6,7.8c-4.1,0.1-7.6-3.4-7.6-7.6c0-4.3,3.4-7.8,7.6-7.8
		C717.6,611.3,721,615,720.8,618.9z M709.1,619c-0.3,2.5,2.3,4.2,4.1,4.2c2.3-0.1,4.3-2.1,4.2-4.2c0-2.1-2-4.1-4.1-4.2
		C711.4,614.7,708.8,616.6,709.1,619z"/>
	<path class="st14" d="M483.8,314.1c-0.2,3.1-0.4,6.2-1.2,9.2c-0.4,1.4-0.9,2.8-1.6,4c-0.5,0.9-1.2,1.7-2.1,2.4
		c-2.4,1.7-4.9,1.3-6.4-1.3c-0.2-0.4-0.5-0.8-0.7-1.2c-0.5-2.1-1-4.2-1.3-6.4c0-2.2-0.1-4.5,0.1-6.7c0.5-5.5,1.8-10.7,5.2-15.2
		c0.1-0.1,0.1-0.4,0.1-0.5c-2.6-0.5-3.9,0.1-5.1,2.2c-0.7,1.2-1.1,2.5-1.3,3.9c-1,5.5-0.5,10.9,0.5,16.4c0.2,2.2,0.6,4.3,1.2,6.4
		c1.5,7.2,3.7,14.1,6.1,21c0.2,0.6,0.5,1.2,0.6,1.9c0.1,0.7-0.2,1.3-0.9,1.6c-0.8,0.3-1.3,0-1.7-0.6c-0.3-0.4-0.4-1-0.6-1.5
		c-3.4-9.5-6.2-19.1-7.8-29c-0.9-5.7-1.4-11.3-0.2-17c0.4-1.8,0.9-3.5,1.9-5c2-3.2,5.1-4.3,8.6-3c1.1,0.4,1.9,0.3,3-0.2
		c3.1-1.4,6.2-1.3,9.1,0.5c0.6,0.4,1.2,0.7,2,0.2c3.1-2,7.6-0.4,9.4,2.9c1.4,2.5,1.8,5.1,1.9,7.9c0.2,5.4-0.6,10.7-1.7,16
		c-1.9,9.3-4.8,18.4-8,27.3c-0.2,0.5-0.4,1-0.7,1.4c-0.3,0.4-0.8,0.7-1.4,0.5c-0.6-0.2-1-0.6-1-1.3c0-0.8,0.4-1.5,0.6-2.3
		c2.8-8,5.3-16,7.2-24.2c1.1-4.7,1.8-9.4,2.1-14.2c0.1-2.8,0-5.6-0.9-8.3c-0.7-1.9-1.7-3.3-3.9-3.6c-0.2,0-0.4-0.1-0.6-0.1
		c-1.6,0-1.9,0.5-1.1,1.8c2.3,3.8,3.4,8.1,3.8,12.5c0.4,4.1,0.4,8.2-0.7,12.3c-0.4,1.4-0.9,2.8-1.8,4c-2.2,2.8-5.5,2.8-7.4-0.3
		c-1.7-2.6-2.1-5.6-2.4-8.6c-0.1-2-0.1-4-0.1-6c0.1-0.4,0.2-0.8,0-1.3c0.4-4.1,1-8.2,2.8-12c1-2.1,0.9-2.4-1.3-3.1
		c-0.4-0.1-0.9-0.2-1.4-0.3c-0.3-0.2-0.6-0.2-0.9,0c-0.6,0.1-1.2,0.2-1.7,0.4c-0.8,0.2-1.2,0.6-0.7,1.5c0.9,1.7,1.4,3.6,1.7,5.4
		c0.5,2.7,0.7,5.3,0.9,8C483.8,313.3,483.8,313.7,483.8,314.1z M478.5,300.6c-1.3,1.1-2,2.6-2.6,4c-2.4,5.6-2.9,11.4-2.3,17.3
		c0.1,1.6,0.4,3.2,1.2,4.6c0.7,1.5,1.7,1.7,2.9,0.5c0.5-0.5,0.8-1,1.1-1.6c0.7-1.3,1.1-2.8,1.4-4.3c0.9-4.5,1-9.1,0.3-13.6
		C480.1,305.1,479.8,302.7,478.5,300.6z M490.4,301.6c-0.4,0.3-0.6,0.8-0.8,1.2c-2.7,7.2-3,14.5-1.3,21.9c0.2,0.9,0.6,1.8,1.2,2.5
		c0.8,1.1,1.6,1.1,2.4,0.1c0.8-0.9,1.2-2.1,1.5-3.2c1.4-5.9,1-11.7-0.7-17.5C492.2,304.8,491.6,303.1,490.4,301.6z"/>
	<path class="st0" d="M471.1,327.3c-0.6-2.1-1.1-4.2-1.2-6.4c0.2,0,0.4,0,0.6,0c0.2,2.2,0.7,4.3,1.3,6.4
		C471.6,327.3,471.3,327.3,471.1,327.3z"/>
	<path class="st0" d="M483.8,314.1c0-0.4,0-0.8,0-1.2c0.2,0,0.4,0,0.6,0c0.1,0.4,0.1,0.8,0,1.3C484.3,314.1,484,314.1,483.8,314.1z"
		/>
	<path class="st15" d="M247.5,614.8c2.2,0,4,2,4.2,4.2c0.1,1.9-2.4,4.3-4,4.2c-2.3-0.1-4.4-2-4.4-4.2
		C243.3,616.8,245.3,614.8,247.5,614.8z"/>
	<path class="st15" d="M709.1,619c-0.3-2.5,2.2-4.3,4.3-4.2c2.1,0.1,4,2,4.1,4.2c0,2.2-2,4.1-4.2,4.2
		C711.4,623.3,708.8,621.5,709.1,619z"/>
	<path class="st8" d="M478.5,300.6c1.3,2.2,1.7,4.5,2,6.9c0.7,4.6,0.6,9.1-0.3,13.6c-0.3,1.5-0.7,3-1.4,4.3
		c-0.3,0.6-0.7,1.2-1.1,1.6c-1.2,1.2-2.2,1-2.9-0.5c-0.7-1.4-1-3-1.2-4.6c-0.5-5.9,0-11.8,2.3-17.3
		C476.5,303.1,477.1,301.7,478.5,300.6z"/>
	<path class="st8" d="M490.4,301.6c1.2,1.5,1.8,3.2,2.3,5c1.6,5.8,2.1,11.6,0.7,17.5c-0.3,1.2-0.7,2.3-1.5,3.2c-0.9,1-1.6,1-2.4-0.1
		c-0.6-0.7-0.9-1.6-1.2-2.5c-1.7-7.4-1.4-14.7,1.3-21.9C489.8,302.4,490,301.9,490.4,301.6z"/>
	<path class="st8" d="M470.5,320.9c-0.2,0-0.4,0-0.6,0c-1-5.4-1.4-10.9-0.5-16.4c0.2-1.4,0.7-2.7,1.3-3.9c1.2-2.2,2.5-2.7,5.1-2.2
		c0,0.2,0,0.4-0.1,0.5c-3.4,4.5-4.6,9.8-5.2,15.2C470.4,316.4,470.6,318.6,470.5,320.9z"/>
	<path class="st12" d="M484.5,312.9c-0.2,0-0.4,0-0.6,0c-0.1-2.7-0.3-5.4-0.9-8c-0.4-1.9-0.8-3.7-1.7-5.4c-0.5-1-0.1-1.3,0.7-1.5
		c0.6-0.2,1.2-0.2,1.7-0.4c0.3,0.2,0.6,0.2,0.9,0c0.5,0.1,0.9,0.1,1.4,0.3c2.2,0.6,2.3,1,1.3,3.1
		C485.5,304.7,484.9,308.8,484.5,312.9z"/>
	<path class="st6" d="M484.6,297.5c-0.3,0.2-0.6,0.2-0.9,0C484,297.4,484.3,297.4,484.6,297.5z"/>
</g>
</svg>
