<?xml version="1.0" encoding="utf-8"?>
<!-- Generator: Adobe Illustrator 19.2.1, SVG Export Plug-In . SVG Version: 6.00 Build 0)  -->
<svg version="1.1" id="Layer_1" xmlns="http://www.w3.org/2000/svg" xmlns:xlink="http://www.w3.org/1999/xlink" x="0px" y="0px"
	 viewBox="0 0 960 960" style="enable-background:new 0 0 960 960;" xml:space="preserve">
<style type="text/css">
	.st0{fill:#F1E6A9;}
	.st1{fill:#DF8E45;}
	.st2{fill:#386F96;}
	.st3{fill:#89B9CD;}
	.st4{fill:#A3AB45;}
	.st5{fill:#FCFBF4;}
	.st6{fill:#C8BF96;}
	.st7{fill:#201D1C;}
	.st8{fill:#0E100F;}
	.st9{fill:#CF4882;}
	.st10{fill:#49848F;}
	.st11{fill:#F1EBCB;}
	.st12{fill:#706530;}
</style>
<path class="st0" d="M-8.4-11.4c0,60,0,229.2,0,412.2c0,52.8,0,106.7,0,159.5c0,182.8,0,351.8,0,411.8c77.5,0,154.9,0,232.4,0l0,0
	c170.3,0,340.5,0,510.7,0l0,0c78,0,156.1,0,234.1,0c0-137.4,0-274.8,0-412.2c0-52.8,0-106.7,0-159.5c0-137.2,0-274.5,0-411.8
	c-77.5,0-154.9,0-232.4,0l0,0c-170.3,0-340.5,0-510.7,0l0,0C147.7-11.4,69.6-11.4-8.4-11.4z"/>
<path class="st1" d="M766,354.9L766,354.9c0-63.7-52.1-115.8-115.8-115.8H503.3c-46.4,0-86.6,27.6-105.1,67.2h106.9
	c63.7,0,115.8,52.1,115.8,115.8l0,0c0,17.3-3.9,33.8-10.8,48.6h39.3c0.1,0.2,0.2,0.3,0.3,0.5c2.7,4.6,6.1,8.7,9.9,12.5
	c8.8,8.8,19.5,14.6,31.6,17.6c5.4,1.3,10.8,2,16.4,2.5c8.3,0.7,16.3-0.2,24.3-1.5c0.8-0.1,1.5-0.4,2.4-0.7c-0.4-0.9-1.3-1.1-2-1.4
	c-9-4.8-17.8-9.9-25.8-16.2c-6.1-4.8-11.6-10.1-14.7-17.3c-0.4-1-0.9-2.1-1.3-3.1C734.4,447,766,404.5,766,354.9z"/>
<g>
	<path class="st2" d="M693.3,816.9c-0.9,0-1.7,0-2.5,0c-3.5-0.2-6.8-0.4-10.2-0.7c-1.3-0.6-2.6-0.4-4-0.4c-3-0.2-6-0.4-9-0.7
		c-5.6-0.5-11.1-0.8-16.7-1.3c-5.7-0.4-11.5-0.8-17.2-1.3c-2-0.1-2-0.1-1.4-1.9c5-14.6,10-29.3,14.9-43.9
		c7.4-22.1,14.8-44,22.3-66.1c8.9-26.5,18-53,26.7-79.6c4.1-12.6,8.5-25,14.2-36.9c9.5-19.6,22.2-36.6,39.5-49.9
		c6.1-4.6,12.3-8.9,19.2-12.1c10-4.5,20.5-7.5,31.2-9.7c9.8-2,154.3-3.2,164.2-4c0,169.5,0,339,0,508.5c-50.2,0-235,0-285.2,0
		c0-1.2,0-2.3,0.1-3.5c0.1-2.6,0.4-5.3,0.6-7.9c0.4-5.5,0.7-11,1.2-16.5c0.4-5.7,0.8-11.2,1.3-16.9c0.5-5.7,0.8-11.4,1.3-17.1
		c0.5-7.1,1.1-14.2,1.6-21.3c0.5-5.7,0.8-11.5,1.3-17.2c0.5-7.1,1.1-14.2,1.6-21.3c0.5-7.3,1.1-14.7,1.6-22.1
		c0.8-10.4,1.6-20.7,2.4-31c0.6-8.1,1.2-16.3,1.8-24.4C694.1,817.1,693.7,817,693.3,816.9z M719.9,714.8c1.7,0.5,3.5,0.7,5.3,0.6
		c2.2,0.1,4.3,0.3,6.5-0.3c5.4-0.4,10.5-2,15.3-4.6c2.9-1.6,5.5-3.4,7.8-5.7c1-1,1.9-2.1,2.6-3.3c0.7-1.3,0.7-2.5,0-3.9
		c-0.9-1.5-2-2.8-3.4-4c-4.3-3.9-9.4-6.2-15-7.7c-2.2-0.7-4.5-1.2-6.9-1.2c-3-0.5-5.9-0.6-8.8,0c-6.2,0.3-11.9,2.2-17.3,5.3
		c-2.4,1.3-4.5,3-6.3,4.9c-3.2,3.3-3.3,5.4-0.2,8.9c3,3.4,6.8,5.8,10.9,7.7c2.6,1.1,5.3,2.1,8.1,2.6c0.4,0.3,0.9,0.4,1.4,0.3V714.8z
		"/>
	<path class="st3" d="M676.7,815.8c1.4,0,2.7-0.1,4,0.4C679.3,816.3,678,816.4,676.7,815.8z"/>
	<path class="st3" d="M690.8,817c0.9,0,1.7,0,2.5,0c0.4,0,0.8,0.2,0.8,0.7C693.1,817,691.8,817.6,690.8,817z"/>
	<path class="st4" d="M734.6,685.6c5.8,3.1,8.8,7.9,8.6,14.4c-0.2,6.4-3.5,11.1-9.3,13.8c-0.6,0.3-1.4,0.5-2,0.8
		c-2.1,0.7-4.3,0.5-6.5,0.3c-1.2-0.4-2.4-0.6-3.6-1c-4.6-2-7.7-5.4-9.1-10.3c-2.1-7.4,1.7-15.3,8.8-18.3c0.6-0.2,1.2-0.4,1.8-0.7
		c3-0.6,5.9-0.5,8.8,0C732.9,685,733.8,685.3,734.6,685.6z M727.6,706.7c3.8,0,7-3.3,7-7.1c-0.1-3.7-3.3-6.9-7-6.9c-3.8,0-7,3.2-7,7
		C720.6,703.6,723.8,706.7,727.6,706.7z"/>
	<path class="st5" d="M739.2,685.5c5.5,1.5,10.6,3.9,15,7.7c1.4,1.2,2.5,2.4,3.4,4c0.7,1.3,0.7,2.5,0,3.9c-0.8,1.2-1.6,2.3-2.6,3.3
		c-2.3,2.4-5,4.2-7.8,5.7c-4.7,2.6-9.8,4.2-15.3,4.6c0.7-0.3,1.4-0.5,2-0.8c5.7-2.8,9.1-7.3,9.3-13.8c0.2-6.5-2.9-11.3-8.6-14.4
		c-0.9-0.4-1.7-0.7-2.5-1.1C734.5,684.5,736.8,685.2,739.2,685.5z"/>
	<path class="st5" d="M720,714.5L720,714.5c-0.5-0.4-1-0.4-1.5-0.3c-2.8-0.5-5.5-1.4-8.1-2.6c-4.2-1.9-7.9-4.2-10.9-7.7
		c-3.1-3.4-3-5.4,0.2-8.9c1.8-2,3.9-3.6,6.3-4.9c5.4-3,11.1-4.9,17.3-5.3c-0.6,0.2-1.2,0.4-1.8,0.7c-7.1,3-10.9,10.8-8.8,18.3
		c1.3,4.8,4.4,8.3,9.1,10.3C721.3,714.7,720.6,714.3,720,714.5z"/>
	<path class="st6" d="M725.4,715.1c-1.8,0.1-3.6-0.1-5.3-0.6c0.5-0.2,1.2,0.3,1.7-0.4C723,714.4,724.2,714.7,725.4,715.1z"/>
	<path class="st6" d="M718.5,714.1c0.5-0.1,1-0.1,1.4,0.3C719.5,714.5,719,714.4,718.5,714.1z"/>
	<path class="st7" d="M727.6,692.7c3.8,0,7,3.2,7,6.9c0,3.8-3.2,7.1-7,7.1s-7-3.2-7-7C720.6,695.8,723.8,692.7,727.6,692.7z
		 M723.9,699.6c-0.1,1.6,2.1,3.9,3.6,3.8c2.1,0,4-1.8,4-3.8s-1.8-3.8-3.8-3.8C725.7,695.9,724,697.7,723.9,699.6z"/>
	<path class="st8" d="M731.5,699.6c0,2-1.9,3.7-4,3.8c-1.4,0.1-3.7-2.1-3.6-3.8c0.2-2,1.8-3.8,3.8-3.8
		C729.8,695.8,731.6,697.7,731.5,699.6z"/>
</g>
<g>
	<path class="st9" d="M-3.8,1016.9c0-169.4,0-338.7,0-508.1c0.5-0.1,131.6-0.1,132.1-0.1c3.6,0.2,7,0.6,10.5,1.1
		c10,1.1,19.8,3.1,29.5,5.8c8.1,2.3,16,5.1,23.3,9.2c9.3,5.2,17.6,11.8,25.3,19.2c8.2,7.8,15.1,16.6,20.9,26.3
		c7.6,12.6,13.5,26.1,18.2,40.1c9,26.8,18,53.5,27.1,80.1c7.1,20.6,14.1,41.1,21.1,61.7c4.9,14.3,9.8,28.6,14.7,42.8
		c1.7,5,3.5,10.1,5.2,15.1c0.8,2.2,0.8,2.2-1.6,2.3c-0.9,0-1.8,0-2.6,0.1c-5.8,0.5-11.4,0.9-17.1,1.4c-3.8,0.3-7.8,0.5-11.6,0.8
		c-6.1,0.5-12.2,0.9-18.3,1.4c-3.2,0.2-6.6,0.5-9.9,0.7c-0.9,0.1-1.2,0.5-1.1,1.3c0.2,2.5,0.3,4.9,0.5,7.3
		c0.5,6.2,0.9,12.3,1.4,18.5c0.3,3.6,0.5,7.4,0.8,11c0.5,6.3,0.9,12.5,1.4,18.7c0.3,3.7,0.5,7.5,0.8,11.2c0.5,6.1,0.9,12,1.4,18
		c0.3,4,0.5,8.1,0.8,12.1c0.5,5.9,0.9,11.9,1.4,17.8c0.3,3.8,0.5,7.6,0.8,11.4c0.5,6.1,0.9,12,1.4,18c0.3,4,0.5,8.1,0.8,12.1
		c0.5,6.1,0.9,12,1.4,18c0.3,3.8,0.5,7.6,0.8,11.4c0.4,4.5,0.6,8.9,1,13.4C226.8,1017,46.3,1017-3.8,1016.9z M231.3,684.3
		c-1.6-0.1-3-0.1-4.6,0c-0.9,0.1-1.8-0.2-2.7,0.3c-7.8,0.8-14.9,3.4-21,8.3c-1.3,1-2.4,2.2-3.3,3.5c-1.7,2.3-1.7,3.5-0.1,5.9
		c1,1.4,2.2,2.6,3.5,3.7c5.3,4.5,11.6,7.1,18.4,8.4c1.1,0.2,2.1,0.4,3.1,0.4c2.6,0.6,5.4,0.6,8.1,0.1c0.8-0.2,1.7,0.1,2.4-0.4
		c8.2-1.1,15.3-4.2,21.2-9.9c1-1,2-2.2,2.6-3.5c0.5-1.2,0.5-2.3,0-3.5c-0.6-1.2-1.5-2.3-2.4-3.2c-4.1-4.1-9.2-6.7-14.7-8.3
		c-2.7-0.9-5.4-1.5-8.2-1.6C232.9,684,232,684.4,231.3,684.3z"/>
	<path class="st10" d="M223.7,714.4c-6.2-2.5-10.1-8.1-10.1-14.6c-0.1-6.4,3.7-12,9.8-14.5c0.1-0.1,0.4-0.2,0.6-0.3
		c0.9-0.1,1.8-0.2,2.7-0.6c1.6-0.1,3-0.1,4.6,0c0.9,0.3,1.7,0.4,2.5,0.6c6.6,2.3,10.3,7.1,10.7,14c0.3,6.2-2.5,10.9-7.8,14.2
		c-0.5,0.4-1.1,0.6-1.6,0.9c-0.8,0.2-1.7,0.3-2.4,0.8c-2.6,0.4-5.4,0.4-8.1-0.1C224.3,714.5,223.8,714.5,223.7,714.4z M228.8,706.7
		c3.7,0.1,6.9-3.1,6.9-6.9c0.1-3.9-3.1-7.1-6.9-7.1c-4.1,0.1-7.1,3.3-6.9,6.9C221.7,703.1,224.6,706.5,228.8,706.7z"/>
	<path class="st5" d="M221.3,714.2c-6.8-1.3-13-3.8-18.4-8.4c-1.4-1.1-2.5-2.3-3.5-3.7c-1.5-2.3-1.5-3.5,0.1-5.9
		c0.9-1.4,2-2.5,3.3-3.5c6.1-4.9,13.2-7.5,21-8.3c0,0.2,0,0.3,0,0.5c-0.1,0.1-0.4,0.2-0.6,0.3c-6,2.5-9.8,8.1-9.8,14.5
		c0,6.5,3.9,12.1,10.1,14.6c0.4,0.1,0.8,0.1,1.1,0.5C223.6,714.8,222.6,714.6,221.3,714.2z"/>
	<path class="st5" d="M233.6,684.5c2.8,0.1,5.6,0.8,8.2,1.6c5.5,1.6,10.6,4.2,14.7,8.3c0.9,0.9,1.8,2,2.4,3.2s0.6,2.3,0,3.5
		c-0.7,1.3-1.6,2.5-2.6,3.5c-6,5.6-13.1,8.8-21.2,9.9c-0.1-0.2-0.1-0.3-0.1-0.5c0.6-0.3,1.1-0.6,1.6-0.9c5.3-3.3,8.2-8,7.8-14.2
		c-0.4-6.9-4.1-11.6-10.7-14C233.7,684.8,233.7,684.6,233.6,684.5z"/>
	<path class="st11" d="M232.6,714.8c0.8-0.4,1.6-0.6,2.4-0.8c0.1,0.2,0.1,0.3,0.1,0.5C234.4,715,233.5,714.7,232.6,714.8z"/>
	<path class="st6" d="M226.6,684.4c-0.9,0.2-1.8,0.5-2.7,0.6c0-0.2,0-0.3,0-0.5C224.8,684,225.8,684.4,226.6,684.4z"/>
	<path class="st6" d="M231.2,684.2c0.9,0.1,1.8-0.2,2.5,0.3c0,0.1,0,0.3,0,0.4C232.9,684.7,232,684.6,231.2,684.2z"/>
	<path class="st7" d="M228.8,692.7c3.8,0,6.9,3.2,6.9,7.1c0,3.8-3.2,7-6.9,6.9c-4.3-0.1-7.1-3.5-6.9-7.1
		C221.7,696,224.8,692.7,228.8,692.7z M228.8,695.9c-1.9,0.1-3.7,1.9-3.7,3.8c-0.1,1.9,1.7,3.7,3.8,3.8c1.6,0,4-1.5,3.7-3.8
		C232.9,697.5,230.5,695.8,228.8,695.9z"/>
	<path class="st8" d="M228.8,703.5c-2-0.1-3.8-1.8-3.8-3.8c0.1-2,1.8-3.7,3.7-3.8c1.9-0.1,4.2,1.5,3.9,3.8
		C232.9,702,230.5,703.6,228.8,703.5z"/>
</g>
<g>
	<path class="st9" d="M682.8,335.4c-0.2,7.8-2.1,14.9-5.5,21.7c-2.1,4-4.1,8-7.1,11.5c-2.7,3.2-5.9,5.9-9.3,8.4
		c-0.5,0.4-0.9,0.3-1.4-0.1c-2-1.8-2-1.9,0.2-3.4c5.6-4,9.7-9.2,12.1-15.8c0.8-2.2,1.3-4.4,1.2-6.7c-0.1-1.9-1-2.8-2.8-2.7
		c-1.1,0.1-2.1,0.2-3.1,0.3c-11.4,1.6-20.6-9.2-18.9-19.7c1.4-7.9,7.1-13.6,14.8-14.4c7.6-0.8,14.3,3,17.7,10.3
		C682.2,328.3,682.8,331.9,682.8,335.4z"/>
	<path class="st9" d="M688.3,331.5c0-8.1,5.8-15.2,13.4-16.6c8.5-1.6,16,2.3,19.5,10.4c1.6,3.8,1.9,7.8,1.8,11.9
		c-0.4,11.3-4.8,21-11.3,29.9c-2.8,3.7-6.2,6.7-9.8,9.4c-0.8,0.7-1.5,0.8-2.1-0.1c-0.1-0.1-0.2-0.2-0.3-0.3
		c-1.3-1.3-1.3-1.3,0.2-2.3c2.1-1.5,4-3,5.8-5c3.7-4.1,6.7-8.7,7.8-14.2c0.3-1.2,0.3-2.5,0.3-3.7c0-1.9-0.9-2.8-2.8-2.7
		c-0.9,0-1.9,0.2-2.8,0.3c-8.9,1.4-17.7-5-19.4-13.9C688.4,333.7,688.3,332.6,688.3,331.5z"/>
</g>
<path class="st12" d="M505.1,306.2H398.2c-6.9,14.8-10.8,31.3-10.8,48.6l0,0c0,63.7,52.1,115.8,115.8,115.8h106.9
	c6.9-14.8,10.8-31.3,10.8-48.6l0,0C620.9,358.4,568.8,306.2,505.1,306.2z"/>
<g>
	<path class="st3" d="M387.5,354.9L387.5,354.9c0-17.3,3.9-33.8,10.8-48.6h-40c-63.7,0-115.8,52.1-115.8,115.8l0,0
		c0,49.6,31.6,92.2,75.6,108.6c-0.4,1.1-0.9,2.1-1.3,3.1c-3.2,7.2-8.6,12.5-14.7,17.3c-8,6.2-16.9,11.3-25.8,16.2
		c-0.7,0.4-1.7,0.5-2,1.4c0.8,0.4,1.5,0.6,2.4,0.7c8,1.3,16,2.2,24.3,1.5c5.5-0.5,11-1.2,16.4-2.5c12.1-2.9,22.8-8.7,31.6-17.6
		c3.8-3.8,7.2-7.9,9.9-12.5c0.1-0.2,0.2-0.3,0.3-0.5h145.9c46.4,0,86.6-27.6,105.1-67.2H503.3C439.6,470.7,387.5,418.6,387.5,354.9z
		"/>
</g>
<g>
	<path class="st2" d="M294.5,420c0.1-9.8,3.3-18.7,8.5-26.9c3.3-5.5,7.8-9.9,12.9-13.8c1.3-0.9,1.3-0.9,2.3,0.3
		c0.1,0.2,0.2,0.3,0.4,0.4c0.9,0.7,0.6,1.3-0.2,1.9c-2.7,2.1-5.3,4.2-7.4,7c-3.1,4.1-5.7,8.5-6.7,13.8c-0.2,1.1-0.2,2.1-0.1,3.1
		c0.1,1.5,0.8,2.1,2.3,2.1c0.5,0,0.9-0.1,1.4-0.2c13.6-3,23.2,8.6,21,20.2c-2.4,13.1-17.5,17.2-26.4,10.7c-4.1-2.9-6.3-7.2-7.4-12.1
		C294.5,424.2,294.5,422.1,294.5,420z"/>
	<path class="st2" d="M359.4,380.8c-0.3,0.8-1,1.1-1.6,1.5c-6,4.4-10.1,10-12.6,17.1c-0.7,2-1.1,3.9-1,6c0.1,1.9,0.7,2.5,2.6,2.4
		c0.7,0,1.4-0.1,2.2-0.2c9.3-2.1,18.7,4.5,20,14c0.7,4.9-0.2,9.3-3,13.4c-6,8.3-19.9,9.5-26.9,0.2c-2.5-3.3-3.8-7.1-4.2-11.2
		c-0.7-8.1,0.9-15.7,4.3-23c3-6.6,6.7-12.7,12.2-17.6c1.6-1.4,3.3-2.8,5-4.1c1.1-0.8,1.1-0.8,2,0.3
		C358.8,379.8,359,380.3,359.4,380.8z"/>
</g>
</svg>
