<?xml version="1.0" encoding="UTF-8" standalone="no"?>
<svg width="14px" height="14px" viewBox="0 0 14 14" version="1.1" xmlns="http://www.w3.org/2000/svg" xmlns:xlink="http://www.w3.org/1999/xlink">
    <!-- Generator: Sketch 3.8.1 (29687) - http://www.bohemiancoding.com/sketch -->
    <title>Group</title>
    <desc>Created with Sketch.</desc>
    <defs></defs>
    <g id="Welcome" stroke="none" stroke-width="1" fill="none" fill-rule="evenodd">
        <g id="Mobile-Home" transform="translate(-182.000000, -1013.000000)" fill="#FFFFFF">
            <g id="Group" transform="translate(182.000000, 1013.000000)">
                <path d="M10.9836923,8.32892308 L12.9333846,6.37892308 C14.3556923,4.95692308 14.3556923,2.64261538 12.9333846,1.22061538 C11.5112308,-0.201846154 9.19707692,-0.201846154 7.77492308,1.22061538 L4.96123077,4.03430769 C3.53892308,5.45630769 3.53892308,7.77061538 4.96123077,9.19261538 C5.17123077,9.40276923 5.40107692,9.58092308 5.64430769,9.72892308 L7.15061538,8.22246154 C6.86369231,8.15384615 6.59153846,8.00907692 6.36815385,7.78584615 C5.72169231,7.13938462 5.72169231,6.08738462 6.36815385,5.44107692 L9.18184615,2.62738462 C9.82830769,1.98092308 10.8803077,1.98092308 11.5266154,2.62738462 C12.1730769,3.27384615 12.1730769,4.32569231 11.5266154,4.97215385 L10.7,5.79892308 C11.0406154,6.60061538 11.1347692,7.48230769 10.9836923,8.32892308 L10.9836923,8.32892308 Z" id="Shape"></path>
                <path d="M3.17030769,5.82492308 L1.22061538,7.77476923 C-0.201846154,9.19692308 -0.201846154,11.5110769 1.22061538,12.9332308 C2.64261538,14.3555385 4.95692308,14.3555385 6.37907692,12.9332308 L9.19261538,10.1195385 C10.6149231,8.69738462 10.6147692,6.38323077 9.19261538,4.96123077 C8.98276923,4.75107692 8.75292308,4.57292308 8.50969231,4.42492308 L7.00338462,5.93138462 C7.29015385,6.00015385 7.56230769,6.14461538 7.78584615,6.368 C8.43230769,7.01446154 8.43230769,8.06630769 7.78584615,8.71276923 L4.972,11.5264615 C4.32553846,12.1729231 3.27369231,12.1729231 2.62723077,11.5264615 C1.98076923,10.88 1.98076923,9.82815385 2.62723077,9.18169231 L3.454,8.35507692 C3.11323077,7.55338462 3.01907692,6.67153846 3.17030769,5.82492308 L3.17030769,5.82492308 Z" id="Shape"></path>
            </g>
        </g>
    </g>
</svg>