<?xml version="1.0" encoding="UTF-8" standalone="no"?>
<svg width="28px" height="28px" viewBox="0 0 28 28" version="1.1" xmlns="http://www.w3.org/2000/svg" xmlns:xlink="http://www.w3.org/1999/xlink">
    <!-- Generator: Sketch 3.8.1 (29687) - http://www.bohemiancoding.com/sketch -->
    <title>LinkedIn Icon</title>
    <desc>Created with Sketch.</desc>
    <defs>
        <polygon id="path-1" points="28 14.0002187 28 28 0 28 0 14.0002187 0 0.0004375 28 0.0004375 28 14.0002187"></polygon>
    </defs>
    <g id="Welcome" stroke="none" stroke-width="1" fill="none" fill-rule="evenodd">
        <g id="Mobile-Menu" transform="translate(-54.000000, -371.000000)">
            <g id="LinkedIn-Icon" transform="translate(54.000000, 371.000000)">
                <path d="M14.839125,12.9712625 L14.839125,12.9423875 C14.833875,12.9528875 14.826,12.9625125 14.819,12.9712625 L14.839125,12.9712625 Z" id="Fill-1" fill="#6C6E70"></path>
                <g id="Group-5">
                    <mask id="mask-2" fill="white">
                        <use xlink:href="#path-1"></use>
                    </mask>
                    <g id="Clip-4"></g>
                    <path d="M21,20.6906875 L17.99875,20.6906875 L17.99875,15.8606875 C17.99875,14.6479375 17.56475,13.8184375 16.478,13.8184375 C15.65025,13.8184375 15.155,14.3793125 14.938,14.9174375 C14.858375,15.1108125 14.839125,15.3776875 14.839125,15.6489375 L14.839125,20.6906875 L11.83875,20.6906875 C11.83875,20.6906875 11.87725,12.5094375 11.83875,11.6641875 L14.839125,11.6641875 L14.839125,12.9425625 C15.239,12.3248125 15.95125,11.4515625 17.544625,11.4515625 C19.518625,11.4515625 21,12.7404375 21,15.5141875 L21,20.6906875 Z M8.677375,10.4295625 L8.658125,10.4295625 C7.651,10.4295625 7,9.7356875 7,8.8694375 C7,7.9848125 7.672,7.3093125 8.696625,7.3093125 C9.723875,7.3093125 10.3565,7.9848125 10.374875,8.8694375 C10.374875,9.7356875 9.723875,10.4295625 8.677375,10.4295625 L8.677375,10.4295625 Z M7.17675,20.6906875 L10.178875,20.6906875 L10.178875,11.6641875 L7.17675,11.6641875 L7.17675,20.6906875 Z M14,0.0004375 C6.267625,0.0004375 0,6.2689375 0,14.0004375 C0,21.7328125 6.267625,28.0004375 14,28.0004375 C21.7315,28.0004375 28,21.7328125 28,14.0004375 C28,6.2689375 21.7315,0.0004375 14,0.0004375 L14,0.0004375 Z" id="Fill-3" fill="#FFFFFF" mask="url(#mask-2)"></path>
                </g>
            </g>
        </g>
    </g>
</svg>