<?xml version="1.0" encoding="utf-8"?>
<!-- Generator: Adobe Illustrator 19.2.1, SVG Export Plug-In . SVG Version: 6.00 Build 0)  -->
<svg version="1.1" id="Layer_1" xmlns="http://www.w3.org/2000/svg" xmlns:xlink="http://www.w3.org/1999/xlink" x="0px" y="0px"
	 viewBox="0 0 1294.7 1294.6" style="enable-background:new 0 0 1294.7 1294.6;" xml:space="preserve">
<style type="text/css">
	.st0{fill:#338488;}
	.st1{fill:#FDFDFD;}
	.st2{fill:#212222;}
	.st3{fill:#262425;}
	.st4{fill:#3B2B21;}
	.st5{fill:#C27932;}
	.st6{fill:#E3B033;}
	.st7{fill:#AB3C2D;}
	.st8{fill:#1D2734;}
	.st9{fill:#A46832;}
	.st10{fill:#3A4926;}
	.st11{fill:#DC9530;}
	.st12{fill:#C8482C;}
	.st13{fill:#263751;}
	.st14{fill:#7A2127;}
	.st15{fill:#4F4137;}
	.st16{fill:#578386;}
</style>
<path class="st0" d="M-17.1-22c443.5,0,887.1,0,1330.7,0c0,446.2,0,892.2,0,1338.6c-443.5,0-887.1,0-1330.7,0
	C-17.1,870.4-17.1,424.3-17.1-22z"/>
<g>
	<path class="st1" d="M467.7,972c0-5.9,0-11.8,0-17.7c0-0.9,0-1.8-0.1-2.7c-0.2-2-0.5-2.3-2.3-2.5c-0.7-0.1-1.5,0-2.2-0.1
		c-4.9-0.5-9.5-1.9-13.8-4.2c-4.1-2.2-7.4-5.4-9.9-9.3c-5.1-7.9-4.8-16.8,0.8-24.4c2.7-3.7,6.2-6.7,10.3-8.9
		c6.1-3.5,12.7-5.4,19.8-5.5c1,0,2.1,0,3.1-0.1c0.6,0,1.1-0.4,1.4-1c0.5-1.1,0.8-2.2,1.3-3.3c4.9-10.7,12.6-18.4,23.9-22.1
		c13.8-4.6,35.5-1.5,45.9,18.7c0.3,0.7,0.7,1.3,1,2c1.5,3.5,4.3,5.5,8,6.3c2.5,0.5,4.9,0.9,7.4,1.3c7.6,1.2,13.9,4.9,19,10.5
		c4.4,4.8,6.7,10.4,5.9,17c-0.6,5.1-2.9,9.6-6.5,13.3c-5.5,5.8-12.4,8.8-20.3,9.7c-1.2,0.1-2.4,0.1-3.5,0.2
		c-0.8,0.1-1.3,0.7-1.4,1.5c-0.1,1-0.1,2.1-0.2,3.1c-0.7,11.8-0.7,23.6-0.7,35.4c0,1.4,0.6,3.2-0.5,4.3c-1.1,1.2-2.8,0.1-4.2-0.1
		c-10.4-1.4-20.8-2.6-31.2-3.2c-7.2-0.4-14.4-0.4-21.6,0.1c-9.1,0.7-18.2,1.9-27.2,3.5c-1.7,0.3-2.1,0-2.1-1.8
		C467.8,985.4,467.8,978.7,467.7,972L467.7,972z"/>
	<path class="st2" d="M708.4,413.2c-10.2,0.1-19.6-1.5-28.9-4c-14.8-3.9-28.5-10.3-41.6-18.1c-0.8-0.5-1.5-1-2.2-1.5
		s-0.8-1.3-0.2-1.9c1.1-1.2,2.3-2.3,3.5-3.3c3.3-2.7,6.5-5.5,9.9-8.1c3.2-2.4,5.2-5.6,6.1-9.5c1.1-4.6,2-9.2,2.9-13.8
		c1.8-10.1,3.5-20.3,5.3-30.4c1-5.4,2.3-10.6,4.1-15.8c4-11.6,12-19.4,22.9-24.4c1.5-0.7,3-1.2,4.5-1.8c0.8-0.3,1.7-0.6,2.2-1.3
		c2.1-3,5.4-3.3,8.6-3.8c3.2-0.5,6.5-0.1,9.6,0.9c1.1,0.3,2.4,0.7,3.1,1.7c1.3,1.9,3.2,2.4,5.1,3.2c8.6,3.4,15.7,8.7,20.8,16.5
		c3.2,5,5,10.6,6.5,16.4c2.3,8.8,3.9,17.8,5.4,26.8c1.3,7.8,2.7,15.7,4.4,23.4c1.2,5.5,4,9.7,8.3,13.1c3.7,2.9,7.4,5.9,11.1,8.8
		c0.5,0.4,0.9,0.7,1.3,1.2c0.4,0.5,0.4,1.1-0.1,1.5c-0.8,0.6-1.6,1.2-2.5,1.8c-15.3,9.1-31.3,16.4-48.8,20.1
		C722.5,412.4,715.2,413.4,708.4,413.2z M728.8,345.3c-0.8-1.4-1.1-2.1-1.6-2.9c-1.3-2.3-2.6-4.6-4-6.9c-0.9-1.4-0.8-2.7,0.1-4
		c1-1.5,1.8-3,2.7-4.6c0.8-1.5,1.6-3,2.4-4.5c-0.8-0.8-1.5-0.7-2.2-0.7c-2.8,0-5.6,0-8.4,0.1c-1.6,0-2.7-0.4-3.5-2
		c-1.4-2.7-3-5.4-4.6-8c-0.3-0.6-0.5-1.5-1.4-1.4c-0.8,0.3-1,1.1-1.4,1.7c-1.4,2.3-2.8,4.5-3.9,6.9c-1.1,2.2-2.5,3.3-5.2,3.1
		c-2.5-0.3-5-0.1-7.5,0c-0.7,0-1.5-0.2-2.2,0.8c0.3,0.5,0.6,1.1,0.9,1.7c1.3,2.3,2.6,4.6,4,6.8c1,1.5,1.1,2.8,0.1,4.4
		c-1.5,2.3-2.9,4.8-4.2,7.2c-0.3,0.6-0.9,1.2-0.6,2c0.8,0.5,1.7,0.3,2.5,0.3c2.8,0,5.6,0.1,8.4,0c1.3,0,2.2,0.4,2.8,1.6
		c0.3,0.7,0.7,1.3,1.1,1.9c1.4,2.4,2.8,4.8,4.2,7.2c0.6,1,1.3,1,1.9-0.1c1.6-2.8,3.3-5.6,4.8-8.4c0.9-1.6,1.9-2.4,3.8-2.3
		C721.3,345.4,724.7,345.3,728.8,345.3z"/>
	<path class="st3" d="M949.8,642.3c-9.3-1.5-18.5-3.6-27.3-6.9c-6.5-2.4-12.7-5.5-18.3-9.7c-3.3-2.5-6.3-5.4-8.6-8.8
		c-1.4-2.1-2.4-4.4-3-6.8c-0.7-2.7-0.3-5.3,1-7.7c1.4-2.5,3.5-4,6.3-4.2c2.6-0.3,5.3-0.2,7.9,0.4c2.9,0.7,5.7,1.3,8.7,1.4
		c8.4,0.3,15.5-2.6,21.7-8.3c5.7-5.3,10-11.6,13.7-18.3c3.6-6.5,8-12.3,13.6-17.3c6.8-6,14.6-9.8,23.5-11.6c2.9-0.6,5.9-0.5,8.8,0.1
		c13.8,2.9,24.6,10.3,32.6,21.8c1.9,2.6,3.5,5.5,5.1,8.3c3.6,6.1,7.6,11.9,12.8,16.8c7.7,7.3,16.8,10,27.2,7.9
		c3.2-0.6,6.3-1.3,9.6-1.4c7.7-0.1,10.5,7.1,9.2,12.1c-1.1,4.3-3.3,7.8-6.3,11c-4.4,4.7-9.8,8-15.5,10.8c-9.6,4.8-19.8,7.5-30.2,9.5
		c-1.7,0.3-3.5,0.6-5.2,0.9c-5-0.4-9.9,1.2-14.9,1c-0.4,0-0.9,0.1-1.3,0.2c-1.8,0.7-3.8,0.6-5.7,0.6c-12.3,0-24.7,0-37,0
		c-4.5,0-9.1,0.5-13.6-0.8c-1-0.3-2-0.1-3.1-0.1c-0.9,0-1.8,0.1-2.6-0.1C955.9,642,952.8,642.4,949.8,642.3z M993,599.9
		c1.8,0,3.3,0.1,4.5-1.1c1.4-1.4,2.7-2.8,3.3-4.6c0.7-2.1,0.4-4.6,2.6-6.1c0.2-0.1,0.2-0.6,0.1-0.8c-0.4-1.9,0.5-3.3,1.5-4.8
		c3.3-5,2.2-10.7-2.5-14.5c-5-4-12.5-4.1-17.7-0.4c-4.2,3-7,9.1-2.9,15.1c0.2,0.4,0.5,0.7,0.8,1.1c0.5,0.6,0.8,1.3,0.6,2
		c-0.4,1.8,0.3,3.1,1.7,4.2c0.5,0.4,0.7,1,0.6,1.6c-0.4,2.5,1.3,4.1,2.5,5.9C989.4,599.1,991,600.4,993,599.9z M989.6,609.2
		c-1,0.6-1.8,1-2.5,1.4c-1.6,1-3.1,1.5-5,0.7c-0.6-0.3-1.4-0.2-2.2-0.2c-1.1,0.1-1.9,1.5-1.2,2.2c1.1,1.1,1.6,2.2,1.6,3.7
		c0,0.8,1.4,1.3,2.1,0.9c0.4-0.2,0.9-0.4,1.1-0.7c2-3.3,5.6-4.1,8.6-5.8c0.8-0.5,1.7-0.5,2.5,0c3,1.7,6.6,2.6,8.6,5.9
		c0.1,0.2,0.5,0.3,0.7,0.5c1.1,0.8,2.7,0.2,2.5-1.2c-0.1-1.4,0.4-2.2,1.4-2.9c0.5-0.4,0.5-1,0.3-1.6c-0.3-0.8-1-1-1.8-1
		c-0.7,0-1.5,0-2.2,0.3c-1.6,0.7-2.8,0.1-4.2-0.6c-0.9-0.5-1.9-0.8-2.7-1.8c2.5-1.5,4.8-3.4,8-3.2c0.6,0,1.2-0.2,1.7-0.4
		c1.3-0.4,1.7-2.1,0.6-2.7c-1.2-0.6-1.9-1.2-2-2.6c-0.1-0.8-0.8-1.2-1.6-1.3c-0.8,0-1.4,0.4-1.8,1.1c-0.2,0.4-0.5,0.8-0.5,1.2
		c-0.3,1.8-1.5,2.7-3,3.5c-6.6,3.1-4.1,3.2-10.8,0c-1.6-0.8-2.7-1.7-3-3.5c-0.1-0.5-0.5-1.1-0.8-1.5c-0.8-1-2.3-0.9-2.9,0.3
		c-0.5,0.8-0.1,2.1-1.4,2.5c-1,0.3-1.5,0.9-1.3,2c0.3,1,1.2,1.2,2.1,1.4c0.3,0.1,0.6,0.1,0.9,0.1C984.7,605.7,987,607.4,989.6,609.2
		z"/>
	<path class="st3" d="M704,1080.4c0-7.1,0.1-14.1,0-21.2c-0.1-3.6,0.2-7.1,0.8-10.5c1.4-7.5,5.7-13.1,12.3-16.9
		c4.9-2.8,10.2-4.3,15.9-5c8.2-1,16.5-0.7,24.7-0.5c7.1,0.2,14,1.4,20.4,4.9c7.9,4.4,12.5,10.9,13.4,20c0.3,3.2,0.5,6.5,0.5,9.7
		c0,14.7,0,29.5,0,44.2c0,4.4,0.3,4.6,3.9,2.3c4.5-2.9,8.8-5.9,13.2-8.9c1.3-0.9,2.6-1.9,4.2-2.4c2-0.6,3.5,0.4,3.6,2.6
		c0.1,2.7-0.6,5.3-1.7,7.7c-2.3,5.5-5.4,10.5-9.3,14.9c-3,3.4-6.7,5.8-10.6,7.9c-7.7,4.1-16,6.6-24.6,8.3c-5.3,1-10.7,1.6-16.2,2
		c-12.9,0.9-25.6-0.6-38-3.9c-8.4-2.3-16.5-5.6-23.3-11.3c-7-5.8-11.5-13.3-13.9-22c-0.3-1.2-0.3-2.6-0.3-3.9
		c0.1-1.7,1.4-2.6,3.1-2.2c1.8,0.4,3.2,1.5,4.6,2.5c4,2.7,8,5.5,12,8.2c1.1,0.7,2.3,1.4,3.4,2c0.7,0.4,1.5-0.1,1.5-0.9
		c0.1-1.2,0.1-2.4,0.1-3.5C704,1096.3,704,1088.4,704,1080.4z"/>
	<path class="st3" d="M804.1,728.2c4.4,0,8.8-0.1,13.3,0c7.4,0.3,14.7,0.6,21.9,2.5c3.9,1,7.5,2.4,10.9,4.6c3.6,2.3,6.2,5.4,8.4,9
		c0.8,1.3,1.4,2.7,1.5,4.1c0.4,3.5,0.8,7,0.8,10.5c0.1,3.2-0.3,6.5-0.5,9.7c-0.1,2.1-0.2,4.1-0.6,6.1c-0.3,1.6-0.4,3.2-0.3,4.8
		c0,2,1.2,2.8,3.2,2.6c1.7-0.2,3.1-1,4.3-2c1.7-1.4,3.4-2.9,5.1-4.2c2.1-1.6,4.3-3.1,6.5-4.6c1.4-0.9,2.9-1.5,4.5-1.7
		c1.4-0.2,2.6,0.8,2.7,2.3c0,1.9-0.5,3.8-1.3,5.6c-2.9,7.3-6.4,14.3-11.1,20.5c-6.5,8.7-15.3,14.2-25.5,17.3
		c-7.9,2.4-16.1,3.6-24.4,3.7c-7.1,0.1-14.2,0.2-21.2-0.1c-11.8-0.6-23.5-1.6-34.7-5.8c-7-2.6-13.3-6.2-18.8-11.4
		c-3-2.8-5.6-6.1-7.6-9.7c-3.4-6-6.3-12.3-8.4-18.9c-0.6-1.8-1-3.7-0.7-5.6c0.2-1.8,1.5-2.7,3.1-2c1.5,0.6,3,1.3,4.3,2.2
		c3,1.9,5.6,4.3,8.2,6.7c1.2,1.1,2.3,2.3,3.6,3.2c0.9,0.7,2,1.2,3.1,1.6c1.6,0.5,3-0.4,3.2-2.1c0.1-1.2,0.1-2.3,0.1-3.5
		c0-6.6,0-13.3,0-19.9c0-1.5,0.1-2.9,0.3-4.4c1.1-8.4,6.2-13.8,13.5-17.4c5.2-2.5,10.8-3.8,16.6-3.9c5.3-0.1,10.6,0,15.9,0
		C804.1,728.1,804.1,728.1,804.1,728.2z"/>
	<path class="st3" d="M550.4,1146.5c-15.5,0.3-30-2-44-6.9c-5.4-1.9-10.7-4.2-15.5-7.3c-9.5-6.1-16.1-14.4-19.9-25.1
		c-0.6-1.8-0.8-3.7-0.7-5.7c0.2-2.4,1.7-3.4,4-2.5c1.6,0.6,3.2,1.5,4.7,2.5c4.6,2.9,9.2,5.8,13.8,8.7c0.4,0.2,0.7,0.5,1.1,0.7
		c4.8,2.7,5.4,3.4,6.9-2.7c2.7-11.3,5.7-22.5,8.5-33.8c1.6-6.4,4.2-12.2,7.8-17.7c1.7-2.6,3.9-4.8,6.2-6.9c3.6-3.2,7.9-3.9,12.4-3.1
		c2.9,0.5,5,2.3,6.3,5.1c0.4,0.9,0.7,2,1.1,2.9c1,2.2,2.7,3.4,5.2,3.5c1.5,0.1,2.9,0.1,4.4,0c2.6-0.2,4.4-1.6,5.3-4
		c0.3-0.7,0.4-1.4,0.7-2.1c1.5-3.4,4-5.2,7.8-5.6c5.1-0.5,9.2,1.1,12.7,4.7c5.9,5.9,9.4,13.2,11.6,21c2.9,10.5,5.4,21.1,8,31.7
		c0.6,2.6,1.3,5.1,2.1,7.7c0.3,1.2,1.3,1.6,2.4,1.2c1.1-0.5,2.1-1,3.1-1.7c5.1-3.2,10.2-6.4,15.3-9.7c1.5-0.9,2.9-2,4.6-2.5
		c2.5-0.7,4.1,0.3,4.2,2.9c0.1,1.5-0.2,2.9-0.6,4.4c-1.9,7-5.9,12.8-10.5,18.2c-3.6,4.2-8,7.4-12.9,9.9c-10.2,5.3-21,8.5-32.2,10.5
		C566.2,1146.1,558,1146.7,550.4,1146.5z"/>
	<path class="st4" d="M576.6,855c-0.2-1,0.7-1.3,1.2-1.7c3.6-2.9,7.1-5.7,10.3-9c1.8-1.9,3-3.9,3.6-6.4c1.2-5,1.8-10.1,2.5-15.2
		c1.6-12.8,2.7-25.7,5.3-38.4c0.4-1.7,0.8-3.4,1.2-5.2c2.5-10.7,8.9-18.4,18.4-23.6c6.3-3.5,12.9-5.8,20.2-5.4c0.6,0,1.2,0.1,1.8,0
		c6.9-1.4,13.1,0.7,19.2,3.3c6.3,2.7,11.8,6.6,16,12.1c2,2.6,3.5,5.4,4.6,8.5c2.1,5.8,3.3,11.9,4.2,18c1.4,10,2.5,20.1,3.8,30.2
		c0.5,4.2,1.3,8.4,1.9,12.7c0.7,4.9,3.1,8.8,6.9,11.9c2.3,1.9,4.6,3.7,6.9,5.6c0.5,0.4,0.9,0.7,1.4,1.1c0.4,0.4,1,0.8,0.6,1.4
		c-0.2,0.3-0.7,0.3-1.1,0.4c-0.3,0.1-0.6,0-0.9,0c-0.7,0-1.5,0-2.2,0c-40.8,0-81.6,0-122.4,0C578.8,855.3,577.7,855.6,576.6,855z"/>
	<path class="st3" d="M692.1,465.4c0.1,0.4,0.2,0.9,0.1,1.3c-0.4,5.8-0.8,11.7-1.2,17.5c0,0.6-0.2,1.2-0.2,1.7
		c-0.4,6.4-0.7,12.9-1.1,19.3c-0.4,6.6-1,13.1-1.5,19.7c-0.4,6.3-0.7,12.6-1.1,18.9c-0.7,0.2-1.4,0.4-2.1,0.8
		c-5.3,2.6-10.9,4.5-16.4,6.3c-7.9,2.6-16,3.7-24.2,4.5c-5,0.4-10-0.4-14.9-1.1c-9-1.4-17.8-4-26.1-7.8c-2.3-1-4.6-1.8-7-2.7
		c-0.1-0.6-0.3-1.1-0.3-1.7c-0.4-6.7-0.7-13.5-1.2-20.2c-0.4-6-1-12-1.4-18c0-0.4-0.1-0.9-0.1-1.3c-0.4-6.4-0.5-12.9-1.2-19.3
		c-0.7-5.8-0.3-11.7-1.3-17.6c-0.1-0.4,0.1-0.9,0.1-1.3c0.1,0,0.3,0,0.4,0.1c7.3,4.8,15.7,6.4,24.1,7.7c4,0.6,8.1,1.5,12.2,1.1
		c0.7-0.1,1.5,0.1,2.2,0.3c1.7,0.6,3.5,0.6,5.2,0.5c6.9-0.2,13.8,0.5,20.7-0.8c3.3-0.6,6.7-0.3,10-0.8c6.6-1,13-2.1,19.2-4.4
		C687.5,467.3,689.8,466.4,692.1,465.4z"/>
	<path class="st5" d="M663.3,666.1c3.7,1.1,7.4,2.1,11,3.2c14.9,4.5,29.9,9.1,44.8,13.7c6.3,1.9,12.6,4,18.9,6.1
		c2.1,0.7,4.1,1.7,6.1,2.6c1.4,0.6,2.5,1.6,3.3,2.8c0.5,0.8,0.3,1.8-0.5,2.3c-1.6,1-3.4,1.6-5.3,2.2c-6.1,1.9-12.3,3.2-18.5,4.3
		c-10,1.8-20,3.5-30.1,4.6c-8.8,1-17.5,1.9-26.3,2.7c-24.7,2.3-49.4,1.8-74.2,1.5c-7.6-0.1-15.3-0.7-22.9-1.4
		c-4.4-0.4-8.8-0.6-13.2-1.1c-8-0.8-16.1-1.7-24.1-3.1c-3.9-0.7-7.8-1.5-11.7-2.3c-2.2-0.5-4.3-1.1-6.3-2.1c-1.9-1-2.1-2.3-0.6-3.9
		c1.5-1.7,3.5-2.7,5.5-3.6c2.8-1.2,5.7-2.4,8.6-3.4c12.5-4.4,25-8.8,37.5-13.2c9.9-3.5,19.7-6.9,29.6-10.4c1-0.3,2-0.5,2.8-1.3
		c1.3,0.1,2.7-0.1,3.9,0.3c2.6,0.7,5.2,0.7,7.8,0.7c13.3,0,26.7,0,40,0c1.3,0,2.7,0.2,3.9-0.1C656.9,666,660.1,666.3,663.3,666.1z"
		/>
	<path class="st6" d="M443,412.7c3.1-1.4,6.5-1.9,9.8-2.5c10.8-1.9,21.4-1.2,31.9,1.5c1,0.2,1.8,0.9,2.8,1.3c-1.3,0.9-1.6,2.5-2,3.8
		c-1.8,6-2.9,12.3-3.6,18.5c-0.5,4.2-1.4,8.4-1,12.7c0.1,0.7-0.1,1.5-0.4,2.2c-0.4,1.3-0.4,2.6-0.5,3.9c-0.2,6.7,0.3,13.5-0.8,20.2
		c-0.6,3.7-0.1,7.6-0.1,11.5c0,0.4,0,0.9,0.2,1.3c0.1,0.2,0.4,0.4,0.6,0.5c0.3,0.2,0.6,0,0.7-0.4c0.1-0.9,0.2-1.7,0.3-2.6
		c0.1-1.8-0.3-3.6,0.2-5.3c0.8-3.1,0.7-6.1,0.8-9.2c0-1,0.3-2,0.4-3c0.2-1.2,0.5-2.3,0.4-3.5c-0.2-3.8,1-7.5,1.2-11.4
		c0.2-3.5,0.9-7,1.6-10.4c1.2-6.2,2.1-12.4,4.3-18.4c0.7-1.8,1.3-3.6,2-5.4c10.1,5.8,16.9,14.4,21.5,24.9
		c4.6,10.4,7.4,21.3,8.6,32.6c0.4,3.7,0.7,7.3,0.7,11c-0.4,3.4-0.4,3.4-3.6,3.5c-2.1,0.1-4.2-0.2-6.1,0.3c-2.3,0.5-4.6,0.6-7,0.6
		c-3.7,0-7.4,0-11,0c-1.2,0-2.4,0-3.5,0.3c-2,0.6-4.1,0.6-6.1,0.6c-12.6,0-25.3,0-37.9,0c-3.1,0-6.2,0.2-9.2-0.7
		c-0.8-0.3-1.8-0.2-2.6-0.1c-8.7,0.5-17.3-0.7-25.9-0.9c-2.2-0.1-2.2-0.1-2.9-2.9c0.9-1.3,0.8-2.8,0.8-4.2c0.4-13.2,3.3-25.9,8.4-38
		c4.7-11.2,11.9-20.5,22.6-26.8c0.1,0.3,0.1,0.6,0.2,0.9c2.5,7.1,4.7,14.2,5.8,21.7c1.2,8.3,2.8,16.5,3.1,24.9c0,1,0.1,2.1,0.4,3
		c0.5,1.6,0.5,3.2,0.5,4.8c0,1.3-0.2,2.7,0.2,4c0.8,2.8,0.6,5.5,0.7,8.3c0,0.9,0.1,1.8,0.4,2.6c0.2,0.6,0.8,0.8,1.4,0.8
		c0.9-0.1,0.8-0.6,0.5-1.2c-0.8-1.4-0.4-2.9-0.5-4.3c-0.1-2.2,0.1-4.4-0.6-6.6c-0.3-1.1-0.2-2.3-0.3-3.5c-0.3-8.4,0.3-16.7-0.7-25.1
		c-0.7-5.8-1-11.7-1.8-17.5C446.6,424.7,445.3,418.6,443,412.7z M477.6,489v-0.3l-0.4,0.1L477.6,489z"/>
	<path class="st1" d="M771.1,504.4c-3.4,0.2-6.4-1-9.3-2.5c-5.7-2.9-8.4-7.6-8.1-14c0.2-4,1.1-7.9,2.6-11.6
		c2.1-5.4,5.1-10.3,8.7-14.8c9.2-11.7,20.8-20.4,34.6-26c19.4-7.8,38.6-6.9,57.4,2c11.9,5.7,21.9,13.7,30.1,24.1
		c3.4,4.3,6.2,9,8.3,14c1.8,4.4,3,8.9,2.9,13.7c-0.1,5-2.2,8.8-6.3,11.5c-3.4,2.1-7,3.8-11.2,3.4c-0.1-0.8-0.1-1.5-0.2-2.3
		c0.4-0.9,0.5-1.9,0.2-2.9c0.5-1.6,0.3-2.9-1.5-3.5c-1-0.3-1.9-0.8-2.9-1.1c-10.9-4.3-22.3-6.5-33.9-7.6
		c-16.5-1.6-32.9-0.9-49.2,2.5c-7.1,1.5-13.9,3.5-20.6,6.4c-1.7,0.7-2.1,1.9-1.6,3.5c-0.3,1.1-0.2,2.3,0.1,3.4
		C771.3,503.2,771.2,503.8,771.1,504.4z M816.3,464.5c-1.9,1.3-3.1,0.9-4.3,1c-0.9,0.1-1.8,0-2.6,0.2s-1.3,0.7-1.2,1.6
		c0,0.9,0.6,1.5,1.3,1.5c4.4,0.1,8.8,0.1,13.2,0.1c0.7,0,1.4-0.5,1.5-1.3s-0.2-1.5-1-1.7c-3.8-1-6-3.6-6.9-7.2
		c-0.3-1.3-1.2-1.5-2.3-1.5c-6,0-12,0-18.1,0c-1.7,0-2.7,0.9-2.5,1.8c0.3,1.3,1.4,1.3,2.4,1.3c4.6,0,9.1,0,13.7,0
		c1.1,0,2.3-0.3,3.4,0.5c-0.8,0.6-1.7,0.5-2.5,0.5c-2.4,0-4.7,0-7.1,0c-0.7,0-1.5,0-2.1,0.5c-0.5,0.4-0.8,0.9-0.7,1.5
		c0.1,0.4,0.5,0.9,0.8,1c0.8,0.2,1.7,0.3,2.6,0.3C807.8,464.5,811.6,464.5,816.3,464.5z M838.3,460.4c3-0.4,5.4-0.2,7.7-0.2
		c3.7,0,7.4,0,11-0.1c1.1,0,1.7-0.7,1.6-1.6c-0.1-0.9-0.7-1.2-1.5-1.4c-0.4-0.1-0.9-0.1-1.3-0.1c-5.9,0-11.8,0-17.7,0
		c-1.4,0-2.1,0.5-2.5,1.9c-0.9,3.4-2.9,5.7-6.4,6.7c-0.3,0.1-0.6,0.2-0.8,0.4c-0.5,0.4-0.8,0.9-0.7,1.5s0.6,1,1.1,1.2
		c0.4,0.2,0.9,0.2,1.3,0.2c3.8,0,7.7,0,11.5,0c0.4,0,0.9,0,1.3-0.2c0.5-0.3,0.9-0.7,0.9-1.4c0-0.7-0.4-1.3-0.9-1.4
		c-1-0.3-2-0.2-3-0.3c-1-0.1-2.2,0.3-3.5-1c3.9,0,7.3,0,10.7,0c1,0,2.1,0,3.1-0.2c0.6-0.1,1-0.6,1.1-1.2c0.1-0.8-0.4-1.4-1.1-1.7
		c-0.5-0.2-1.1-0.3-1.7-0.3c-1.6,0-3.2,0-4.9,0C842.2,461,840.6,461.5,838.3,460.4z"/>
	<path class="st3" d="M675.5,959.9c-7.8-3.1-15.6-6.2-23.4-9.3c-1-0.4-1.9-0.7-3-0.5c-0.1-8.1-0.1-16.2-0.2-24.4
		c3.4-2.6,7.2-4.5,10.9-6.7c19.6-11.5,39.2-22.8,58.8-34.2c2.5-1.5,5.2-2.9,7.6-4.4c1.8-1.1,3.4-1.2,5.3-0.1
		c5.9,3.6,11.9,7,17.9,10.5c15.4,9,30.8,17.9,46.2,26.9c11.2,6.5,22.4,13,33.6,19.6c1.1,0.6,2.4,1.1,3.1,2.3c-0.3,0.9-1.1,1-1.7,1.2
		c-14.4,5.7-28.7,11.4-43.1,17c-1.2,0.5-2.5,0.7-3.8,1.1c-1.1-0.8-1.1-2-1.1-3.2c0-2.8,0-5.6,0-8.4c-0.1-6.9,1-5.8-6.3-9.3
		c-0.5-0.3-1.1-0.3-1.7-0.6c-2-0.8-4.1-1.6-6.1-2.5c-6.4-2.7-13.2-4.3-20-5.2c-4.5-0.6-9-1.5-13.6-1c-0.8,0.1-1.8-0.2-2.6-0.4
		c-2.3-0.6-4.7-0.7-7,0c-1.4,0.4-2.9,0.6-4.4,0.5c-4.2-0.4-8.2,0.5-12.3,1.1c-6.8,1-13.5,2.8-20,5.3c-3.7,1.4-7.4,3-10.9,4.9
		c-1.4,0.8-2.2,1.8-2.2,3.5c0,1,0,2.1,0,3.1C675.5,951.1,675.5,955.5,675.5,959.9z"/>
	<path class="st1" d="M956.7,489.1c-1.1-0.3-2.3-0.4-3.4-0.8c-2-0.6-3.9-1.3-5.8-2.2c-5.9-3-8.5-7.9-8-14.4
		c0.3-3.8,1.2-7.6,2.6-11.1c2.7-6.6,6.5-12.5,11.2-17.9c12.5-14.1,27.8-23.5,46.4-27.1c13.7-2.6,27-0.7,39.8,4.7
		c13.1,5.6,24.2,14,33,25.2c4.1,5.1,7.4,10.6,9.5,16.8c1.2,3.6,2.1,7.4,2,11.2c-0.1,5.3-2.5,9.3-7,12c-3.2,1.9-6.7,3.1-10.4,3.2
		l-0.1,0.1c0-0.5-0.1-0.9-0.1-1.4c0.3-1.1,0.3-2.1,0.1-3.2c0.1-0.6,0.1-1.2,0.3-1.7c0.3-1.8-0.5-2.7-2.1-3.3
		c-1.4-0.5-2.7-1.1-4.1-1.6c-14.4-5.3-29.3-7.3-44.5-7.7c-11.3-0.4-22.6,0.6-33.8,2.6c-8,1.5-15.7,3.6-23.2,6.8
		c-1.8,0.8-2.6,1.8-2.2,3.7c0.1,0.4,0.1,0.9,0.2,1.3c-0.2,1-0.2,1.9,0.2,2.9c-0.1,0.7-0.2,1.4-0.4,2.2L956.7,489.1z M1011.8,429.1
		C1011.8,429.1,1011.8,429.2,1011.8,429.1c-2.4,0.1-4.7,0-7.1,0.1c-1.5,0.1-2.9,0.3-4.4,0.6c-3.9,0.9-5.2,2.4-5.6,6.3
		c-0.2,1.8-0.2,3.5-0.3,5.3c-0.3,4.8,1.3,9,4.2,12.7c3.2,4.1,7.1,7.4,11.4,10.4c1.4,1,2.4,0.7,3.6-0.2c3-2.1,5.9-4.4,8.5-7.1
		c5.5-5.5,7.7-12,6.8-19.7c-0.7-5.9-2.3-7.6-8.2-8.3c-1.2-0.1-2.4-0.2-3.5-0.2C1015.3,429.1,1013.6,429.1,1011.8,429.1z"/>
	<path class="st7" d="M237.4,492c-2-0.5-2.9-1.8-3.4-3.7c-0.9-3.2-0.8-6.5-0.4-9.7c0.6-5.8,1.6-11.6,3.2-17.3
		c3.5-12.2,9.7-22.7,18.7-31.6c6.9-6.9,15.2-11.6,24.7-13.9c14.7-3.6,28-0.5,40.2,8.1c7.6,5.3,13.3,12.5,17.9,20.5
		c5.1,8.8,8.4,18.2,9.9,28.2c0.4,2.8,0.7,5.5,0.9,8.3c0.2,2.5,0,5-0.6,7.5c-0.4,1.9-1.3,3.2-3.3,3.7c-4.4-0.3-8.8,0.1-13.2-0.9
		c-5.1-1.1-10.4-1.6-15.6-2.4c-3.3-0.5-6.7-1.2-10-1.2c-12.2,0.2-24.4-1-36.6,0.8c-4.9,0.7-9.9,1.4-14.8,2.1
		c-4.3,0.6-8.7,1.6-13.1,1.4C240.4,491.9,238.9,492,237.4,492z M291.3,472.5c3.7,0,7.3,0.1,11,0c7.3-0.2,12.6-5.7,12.6-13
		c0-0.6,0-1.2,0-1.8c-0.3-3.9-2.1-7-5.4-9.1c-2.6-1.7-5.6-2.6-8.8-2.6c-6.2,0-12.3,0.1-18.5,0c-2.1,0-4.1,0.4-6.1,1
		c-4.9,1.5-9.3,7.5-8.8,12.5c0.8,8.5,6.6,13.1,13.4,13C284.2,472.5,287.7,472.5,291.3,472.5z"/>
	<path class="st8" d="M489.8,339.3c-5.8-2.8-10.7-6.7-14.9-11.5c-0.5-0.5-0.9-1.2-1.3-1.8c-2.8-4.1-3-8.1-0.1-12.3
		c2.6-3.7,5.1-7.6,7.6-11.4c2.7-4,5.5-8,8.2-12c1.1-1.7,2.5-2.8,4.4-3.4c9.3-2.9,18.5-5.9,27.8-8.9c6.6-2.1,13.2-4.2,19.7-6.4
		c2.2-0.7,4.2-0.8,6.4,0c10.2,3.5,20.4,6.8,30.6,10.2c5.9,1.9,11.7,3.9,17.6,5.7c2.1,0.6,3.6,1.8,4.8,3.6c4.8,7.1,9.8,14,14.2,21.3
		c0.9,1.5,2,3,2.3,4.7c0.6,3.1,0.3,6.2-1.7,8.8c-1.9,2.6-3.9,5.1-6.6,7.1c-3,2.1-5.7,4.7-9.2,6.1c-0.6-0.5-1-1.1-1-1.9
		c0.1-2-1.1-2.8-2.7-3.6c-3-1.6-6.2-2.6-9.5-3.5c-6.8-1.9-13.7-3.3-20.6-4.3c-3.6-0.5-7.3-1.1-10.9-1c-8.9,0.1-17.9-0.9-26.8,0.8
		c-3.6-0.3-7,0.6-10.5,1.1c-8.4,1.4-16.6,3.5-24.6,6.7c-2.5,1-3.6,2.3-3.3,4.9C489.9,338.7,489.8,339,489.8,339.3z M530.7,290.7
		c-0.5,2.8-0.2,5.5-0.3,8.3c-0.1,3.4,1,6.4,2.9,9.1c2.6,3.6,5.9,6.5,9.6,9c1,0.7,1.9,0.6,2.8-0.1c3.5-2.3,6.5-5,9.1-8.3
		c1.4-1.8,2.4-3.7,3-5.9c0.7-2.7,0.5-8.8-0.4-12.3c-0.6,0.1-1.2,0-1.7,0.2c-2.7,1-5.1,0.4-7.6-1.1c-4.6-2.7-3.2-2.7-7.8,0
		c-2.6,1.5-5.1,2.1-8,1.2C532,290.7,531.5,290.7,530.7,290.7z"/>
	<path class="st5" d="M282.8,326.2c-0.1-2.8,0.6-5.6,1-8.3c1.7-9.6,3.4-19.1,5.2-28.7c1-5.6,3.2-10.7,5.9-15.6
		c1.9-3.5,4.4-6.7,7.4-9.3c1-0.9,2-1.7,3.2-2.4c4.7-2.7,8.6-2.1,12.3,1.9c1.2,1.3,2.2,2.8,3.3,4.1c4,4.8,7.1,5.2,12.1,1.4
		c0.8-0.6,1.6-1.3,2.3-2c1-0.9,1.9-1.9,2.8-2.8c5.7-5.6,11.1-5.1,16.9-0.4c3.2,2.6,5.7,5.9,7.7,9.6c3.2,5.7,5.4,11.8,6.5,18.2
		c1.6,9.4,3.1,18.9,4.6,28.3c0.3,1.9,0.6,3.8,0.9,5.7c-5.4,4.8-11.7,7.9-18.4,10.1c-5.2,1.7-10.5,2.8-15.9,3.7
		c-0.4-0.8-0.8-1.6-1.3-2.3c-4.5-7.4-18.1-8-22,1.6c-1.6,0.5-3.2,0.3-4.8,0C301.8,336.8,291.5,333.3,282.8,326.2z"/>
	<path class="st8" d="M814.3,341.7c-2.3-0.9-3.4-2.5-3.8-4.9c-0.3-2.2-0.5-4.4-0.3-6.6c1.2-15.2,5.3-29.5,14.6-41.9
		c7.4-9.8,16.4-17.6,28.4-21.4c13.9-4.3,27-2.6,39.4,4.8c8.4,5,14.7,12.1,19.9,20.3c6.3,10,9.9,21,11.4,32.6
		c0.5,3.8,0.2,7.6,0.2,11.5c0,2.6-1.1,4.5-3.6,5.5c-2.8,0-5.6-0.4-8.3-0.6c-5.1-0.4-10.1-1.6-15.2-2.1c-5.1-0.6-10.1-1.8-15.3-1.7
		c-0.4,0-0.9-0.1-1.3-0.2c-1.8-0.7-3.8-0.6-5.7-0.6c-7.6,0.3-15.3-0.8-22.9,0.8c-5.9-0.1-11.7,1.3-17.4,2.1
		C827.7,340.3,821,341.6,814.3,341.7z M867.7,296.5L867.7,296.5c-3.8,0-7.6,0.1-11.5,0c-4.4-0.2-7.7,1.7-10.1,5.2
		c-2.3,3.2-3.4,6.9-2,10.8c1.4,4,3.7,7.3,8,8.7c1.6,0.5,3,1,4.7,1c2.9,0,5.9,0,8.8,0c4.1,0,8.2,0,12.3,0c5.7-0.1,13.7-5.5,12.4-13.1
		c-0.1-0.4,0-0.9,0-1.3c0.2-5.8-5.4-11.4-11.3-11.2C875.4,296.6,871.5,296.5,867.7,296.5z"/>
	<path class="st2" d="M675.5,959.9c0-4.4,0.1-8.8,0.1-13.3c0-1,0-2.1,0-3.1c0-1.7,0.7-2.7,2.2-3.5c3.5-1.9,7.2-3.5,10.9-4.9
		c6.5-2.5,13.2-4.3,20-5.3c4-0.6,8.1-1.5,12.3-1.1c1.5,0.1,2.9,0,4.4-0.5c2.3-0.7,4.6-0.6,7,0c0.8,0.2,1.8,0.5,2.6,0.4
		c4.6-0.4,9.1,0.4,13.6,1c6.8,0.9,13.6,2.5,20,5.2c2,0.8,4.1,1.7,6.1,2.5c0.5,0.2,1.1,0.3,1.7,0.6c7.3,3.5,6.2,2.4,6.3,9.3
		c0,2.8,0,5.6,0,8.4c0,1.2,0,2.4,1.1,3.2c-1.4,1.2-1.2,2.9-1.2,4.5c0,8.1,0,16.2,0,24.3c0,1,0,2.1,0,3.1c0,1.8-0.3,2.7-2.7,1.5
		c-8.4-4.1-17.1-7.3-26.2-9.1c-6.2-1.2-12.5-2.1-18.8-2.3c-7.7-0.2-15.3-0.1-22.9,0.9c-10.7,1.5-21,4.5-30.8,9.1
		c-0.9,0.4-1.8,0.9-2.8,1.3c-2.2,1-2.6,0.8-2.7-1.5c0-5,0-10,0-15C675.5,970.5,675.5,965.2,675.5,959.9z"/>
	<path class="st1" d="M513.2,609.8c4.2,0.2,8.2-0.8,12.2-1.5c8.4-1.5,16.9-2.5,25.5-2.5c1.6,0,3.3,0,4.8,0.3
		c6.7,1.1,10.4,6.5,9.4,13.1c-0.4,2.5-1.5,4.8-2.9,6.9c-2.3,3.5-5.4,6.2-8.9,8.6c-5.5,3.8-11.5,6.5-17.9,8.6c-9,3-18.2,4.9-27.5,6.2
		c-19.9,2.7-40,2.9-60,1.6c-14.6-1-29-3.1-42.9-7.8c-5.9-2-11.6-4.4-16.9-7.7c-3.4-2.1-6.5-4.5-9.2-7.5c-2-2.2-3.6-4.7-4.6-7.5
		c-2.6-7.5,1.5-13.9,9.3-14.6c5.6-0.5,11.2-0.2,16.8,0.6c5.8,0.8,11.6,1.8,17.5,2.7c2.3,0.4,4.6,0.8,7,0.6c0.8,1.9,0.2,3.8,0.2,5.7
		c0,1.2,0.4,1.9,1.4,2.5c3.8,2.3,7.8,4.2,11.9,5.7c7.8,2.8,15.9,4.2,24.2,4.8c11.9,0.8,23.5-0.4,34.9-3.9c5.1-1.6,9.9-3.7,14.4-6.5
		c1-0.6,1.4-1.3,1.3-2.5C513.1,613.6,512.4,611.7,513.2,609.8z"/>
	<path class="st3" d="M1074.6,742.7c0.2,5-2.1,8.7-5.4,11.8c-3.1,3-6.8,5.2-10.7,6.9c-2,0.9-4.1,1.6-4.8,4.1
		c-0.2,0.7-1.1,0.9-1.9,0.6c-0.7-0.3-1.4-0.6-2-0.9c-9.6-4.5-19.7-6.8-30.1-8.1c-10.7-1.4-21.5-1.2-32.2-0.6
		c-9.4,0.5-18.7,1.9-28,3.8c-3.2,0.7-6.3,1.4-9.5,2c-2.6,0.5-3.1,0-2.7-2.8c0.1-0.4,0.2-0.9,0.3-1.3c0.4-2.4,0.3-2.6-2-2.8
		c-5.5-0.4-9.5-2.9-11.7-8c-2.7-6.2-0.6-13.8,4.8-17.8c3.6-2.6,7.6-4.5,11.8-6c8-2.9,16.4-4.8,24.8-6.2c4.9-0.8,9.9-1.6,14.9-1.9
		c0.9-0.1,1.7-0.3,2.6-0.5c0.8-0.2,1.2-0.9,1.1-1.7c-0.1-1.2-0.4-2.3-0.5-3.5c0-0.9,0.1-1.8,0.3-2.6c0.3-1.2,1.8-1.7,2.9-1
		c1.2,0.9,2.1,2.1,2.7,3.4c0.5,1.2,1.1,2.4,1.6,3.6c0.4,0.9,1.1,1.4,2.1,1.3c1.8-0.1,3.5,0,5.3-0.3c2.2-0.3,4.4-0.4,6.6-0.1
		c2.8,0.4,5.6,0.4,8.4,0.5c8.9,0.2,17.6,1.5,26.2,3.7c4.9,1.3,9.5,3,13.8,5.7c4.4,2.7,7.6,6.5,9.9,11
		C1074.2,737.6,1074.7,740.2,1074.6,742.7z"/>
	<path class="st9" d="M376.6,336.9c8.7-0.7,17.2-2.4,25.6-4.2c6-1.3,12.1-2.6,18.1-3.9c1-0.2,2-0.3,3.1-0.3c5.3-0.1,8.1,3.5,6.8,8.7
		c-1,4.1-3,7.6-5.6,10.9c-6.2,8.1-14.2,14.1-22.9,19c-14.4,8.2-29.9,12.8-46.2,15.3c-13.5,2.1-27,2.3-40.5,1.4
		c-19.8-1.3-38.9-5.9-56.7-15.2c-7.7-4.1-14.8-9.1-21.1-15.1c-3.7-3.6-6.9-7.7-9-12.5c-0.6-1.5-1.3-3-1.6-4.6
		c-0.9-4.2,1.7-7.6,6.1-8c1.6-0.1,3.2,0,4.8,0.3c6.9,1.5,13.8,3,20.7,4.5c6,1.3,12.1,2.4,18.2,3.1c1.3,0.1,2.6,0.5,3.9,0.7
		c-0.1,2.8-0.8,5.5-1.5,8.2c-0.3,1.5,0.1,2.6,1.2,3.5c0.6,0.5,1.2,0.8,1.8,1.2c2.4,1.8,5.2,2.7,7.7,4.3c7.5,4.7,15.6,8.1,24.1,10.6
		c4.6,1.4,9.4,2.3,14.3,2.3c2.5,0,4.9-0.3,7.4-0.7c6.5-0.8,12.7-2.8,18.5-5.4c7.1-3.2,14.1-6.6,20.8-10.7c1-0.6,1.8-1.4,2.7-2.2
		c0.6-0.5,1-1.3,0.7-2c-0.6-2-0.6-4.1-0.8-6.1c-0.1-1.1-1-1.8-1.9-2.3C375.9,337.5,376.3,337.2,376.6,336.9z"/>
	<path class="st3" d="M423.3,802.2c1.4-3,1.8-6.2,2.6-9.3c2.2-8.7,4.8-17.3,8-25.6c7-17.9,20.3-28,39.1-30.9c3-0.5,5.9,0.3,8.7,1
		c16.2,4,27.3,13.9,33.5,29.2c4.6,11.5,7.9,23.4,10.4,35.5c-2.9,0.7-5.8,1-8.7,1.4c-3.9,0.5-7.8,1.5-11.8,1.5c-0.7,0-1.5,0-2.2,0.2
		c-2.1,0.8-4.4,0.6-6.6,0.7c-1.2,0-2.4-0.2-3.5,0.2c-3,0.9-6.1,0.7-9.2,0.7c-5.4,0-10.9,0-16.3,0c-3.7,0-7.4,0.4-11-0.8
		c-0.8-0.3-1.8-0.2-2.6-0.1c-4.4,0.4-8.7-1-13.1-1.1c-3.8-0.1-7.5-1-11.3-1.6C427.3,802.9,425.3,802.6,423.3,802.2z"/>
	<path class="st7" d="M1000.2,1107.3c5,0.7,10,0.9,15,1.1c6.9,0.3,13.8,0.9,20.7,1.5c4.7,0.3,9.4,0.7,14.1,1.1
		c7.3,0.7,14.6,1.6,21.8,3.5c2.6,0.7,5.1,1.5,7.3,3.1c0.8,0.6,1.6,1.3,2.2,2.1c1.3,1.6,1,3.1-0.8,4.1c-1.1,0.6-2.4,1.1-3.6,1.6
		c-6.2,2.3-12.7,3.8-19.2,4.9c-9.1,1.6-18.3,3.1-27.5,4.3c-7.3,1-14.6,1.4-22,2.1c-23.8,2.3-47.7,1.9-71.5,1.6
		c-7.9-0.1-15.9-0.7-23.8-1.4c-4.1-0.4-8.2-0.5-12.3-1c-6.3-0.8-12.6-1.3-18.9-2.1c-7.9-1.1-15.7-2.4-23.5-4.1
		c-4.2-0.9-8.3-2.1-12.3-3.5c-1.4-0.5-2.8-1-3.9-2c-1-0.9-1.3-1.9-0.8-3.2c0.9-2.2,2.8-3.5,4.8-4.3c2.9-1.1,5.8-2.2,8.8-2.8
		c6.9-1.5,13.9-2.4,21-2.9c5-0.4,10-0.9,14.9-1.4c0.4,0,0.9-0.1,1.3-0.1c7.2-0.4,14.4-0.8,21.6-1.1c2.8-0.1,5.6-0.4,8.3-1.2
		c0.3,1.2,0.7,2.3,1.9,2.8c2,0.9,3.7,2.3,5.8,3.1c4.1,1.5,8.3,2.8,12.7,3.4c5.9,0.9,11.9,1.7,17.9,1.6c4.7-0.1,9.3-0.2,14-0.8
		c5.9-0.7,11.6-1.8,17.1-3.9C994.7,1112.1,998.3,1110.8,1000.2,1107.3z"/>
	<path class="st3" d="M352.8,945.6c7.6,2.9,15.4,4.9,23.2,7.2c2,0.6,3.9,1.3,5.8,2.2c2.4,1.1,3.3,3.1,3,5.8
		c-0.2,1.8-0.9,3.4-1.9,4.9c-2.9,4.4-7.1,6.9-11.7,9c-7.9,3.7-16.4,5.7-24.9,7.2c-10.3,1.7-20.7,2.8-31.1,2.9
		c-2.8,0-5.6,0.5-8.4,0.5c-11,0.1-22-0.5-33-1.4c-9.4-0.8-18.7-2.2-27.8-4.6c-5.1-1.3-10.1-3.1-14.8-5.6c-3.1-1.7-6-3.8-8.4-6.4
		c-1.6-1.8-2.6-3.9-3.1-6.3c-0.5-2.2,0.3-4.1,2.1-5.4c1.1-0.7,2.3-1.3,3.6-1.7c1.9-0.7,3.9-1.3,5.9-1.8c7-1.7,13.8-4.1,20.6-6.4
		c2.7,0.6,5.4,1.4,8.2,1.6c6.3,0.5,12.4,2.1,18.8,2c0.9,0,1.8,0,2.6,0.3c1.9,0.6,3.8,0.6,5.7,0.6c10.3,0,20.6,0,30.9,0
		c1,0,2.1,0.2,3.1-0.1c4.4-1.4,9-0.6,13.5-1.5c4.3-0.8,8.7-1.1,13-1.9C349.3,946.2,351.1,945.9,352.8,945.6z"/>
	<path class="st1" d="M366.9,782.9c-2.7,12.8-5.3,25.6-8,38.4c-0.1,0.6-0.3,1.1-0.4,1.7c-0.2,1.7-1.2,2.5-2.8,3
		c-6.3,2-12.7,3.8-19.1,5.2c-9.9,2.3-19.9,4-30,5.2c-7.4,0.8-14.7,0.3-22-0.8c-13.2-2-26.3-4.8-39.1-8.9c-6.2-2-4.9-0.9-6.4-7
		c-2.7-11-5.2-22-7.8-33.1c-0.3-1.3-0.6-2.6-0.5-3.9c16.3,5.6,33,8.8,50.2,9.5c13.7,0.5,27.4,0.7,41.1-0.4c13.4-1,26.5-3.5,39.4-7.4
		C363.3,784,365,783.1,366.9,782.9z M300.4,824.3c-0.1-4.3-0.1-8.3,0-12.2c0-1.3,0.6-1.6,2.1-1.3c0.6,0.1,1.1,0.4,1.7,0.4
		c1.1,0,1.9-1,1.8-2.5c0-1.3-0.7-2.2-1.7-2.1c-0.9,0-1.7,0.3-2.6,0.4c-0.9,0.1-1.5-0.9-1.2-1.8c0.3-0.9,1.2-1.3,1.6-2
		c0.7-1.1,1.2-2.3,0.8-3.7c-0.6-1.8-2-3.1-3.8-3.2c-1.8-0.2-3.2,0.5-4.1,2c-1,1.7-1,3.4,0.2,5c0.5,0.7,1.2,1.3,1.7,2
		c0.5,0.8-0.2,1.9-1.1,1.8c-0.9-0.1-1.7-0.3-2.6-0.4c-0.6-0.1-1.2,0.2-1.5,0.8c-0.6,0.9-0.7,1.9-0.1,2.9c0.5,0.9,1.3,1.1,2.3,0.9
		c0.6-0.1,1.1-0.4,1.7-0.5c0.8-0.1,1.5,0.2,1.5,1.1c0,3.7,0,7.4,0,11c0,1.1-0.7,1.5-1.7,1.3c-2.6-0.6-4.6-2-5.7-4.4
		c-0.4-0.8-0.3-1.1,0.8-1.4c0.4-0.1,0.8-0.2,1.6-0.3c-1.7-2.3-3.3-4.3-5-6.1c-0.8,0.2-1.1,0.7-1.3,1.3c-0.5,1.7-1,3.4-1.5,5.1
		c-0.1,0.4-0.3,1-0.1,1.2c0.5,0.6,1-0.1,1.4-0.2c0.8-0.3,1.2,0.2,1.4,0.7c0.7,1.7,1.7,3.1,3.1,4.2c1.4,1.1,2.9,2,4.3,3.1
		c1.5,1.1,2.8,2.4,4.4,3.8c2.2-2.6,4.6-4.4,7.2-6.1c1.6-1.1,2.9-2.5,3.7-4.3c0.6-1.3,1.2-1.9,2.6-1.1c0.6,0.4,0.7-0.4,0.7-0.7
		c-0.5-2.4-1.1-4.8-2.3-7.3c-1.5,1.2-2.5,2.7-3.6,4c-1.2,1.4-1.2,1.4,0.3,2.9c0.4,0.4,0.3,0.8,0.2,1.2
		C306.4,822.4,304.1,823.7,300.4,824.3z"/>
	<path class="st10" d="M759.8,630.7c-0.4-1.8-0.1-3.5,0.2-5.2c0.5-2.5,0.4-5,0.1-7.5c-0.8-6.2-0.9-12.3,0.3-18.4
		c2.3-12.3,12.1-20.9,24.7-22c13.8-1.2,27.6-0.6,41.5-0.5c4.3,0,8.7,0.6,13,2c10.9,3.8,17.3,12.9,18.1,24.3c0.3,4.5,0.1,9.1,0,13.7
		c-0.1,4.4-0.1,8.8,0.4,13.2c-1,0.2-2,0.5-3,0.5c-7.1-0.1-14.1,1-21.1,0.9c-20.1-0.1-40.3,0.8-60.4-0.6
		C768.9,630.7,764.4,630.8,759.8,630.7z M848.8,604.3c-2.4,0-4.6,1.9-4.7,4.2c-0.1,2.2,2.1,4.5,4.4,4.5c2.6,0,4.6-1.8,4.6-4.2
		C853.2,606.3,851.3,604.3,848.8,604.3z M769,613c2.6,0,4.5-1.9,4.6-4.3c0-2.5-1.8-4.4-4.4-4.4c-2.4,0-4.6,2-4.7,4.3
		C764.4,610.9,766.6,613,769,613z"/>
	<path class="st6" d="M284.8,1102.1c0.8-12.7,2.7-25.1,7.1-37.1c2.8-7.6,6.3-14.9,11.4-21.3c2.8-3.5,5.9-6.6,9.6-9.1
		c4.1-2.8,8.7-4.4,13.6-4.7c4.2-0.3,8.2,0.8,11.9,2.6c5.3,2.5,9.5,6.4,13.2,10.9c4.8,5.9,8.2,12.5,10.9,19.6
		c3.9,10.1,6.3,20.5,7.2,31.3c0.2,2.6,0.5,5.3,0.7,7.9C341.9,1102.1,313.4,1102.1,284.8,1102.1z"/>
	<path class="st1" d="M426.2,607.8c-0.1-4,0.7-7.9,1-11.9c0.7-7.9,1.6-15.8,2.5-23.7c0.6-5.1,2.7-9.6,5.9-13.6c1.3-1.6,2.9-3,4.7-4
		c3.8-2.1,7.6-2.2,11.3,0.1c1.9,1.2,3.6,2.6,5.4,3.9c2.1,1.6,4.2,3.2,6.4,4.7c2.9,2,6,2.1,9.1,0.3c2.2-1.3,4.3-2.5,6.4-3.9
		c2.2-1.4,4.3-3,6.6-4.4c5.7-3.4,10.9-2.9,15.7,1.7c4.8,4.5,7.2,10.4,7.8,16.8c1,9.5,1.8,19,2.7,28.6c0.2,1.8,0.2,3.5,0.2,5.3
		c-6.7,5-14.3,8-22.4,9.9c-10.9,2.5-21.8,3.1-32.9,1.5C445.8,617.6,435.3,614.6,426.2,607.8z M458,587.2c-0.9-0.2-1.6,0.1-1.8,0.9
		c-0.2,0.8,0.3,1.6,1.1,1.6c2.2,0.1,3.2,2,4.6,3.1c1.2,1,1.5,2.1,1.1,3.5c-0.6,1.9-0.3,4.1-2.1,5.6c-0.5,0.4,0.1,1.5,0.7,1.8
		c0.7,0.3,1.3,0,1.5-0.5c0.8-2.3,3-2.6,4.7-3.7c1.1-0.7,2.1-0.8,3.3-0.1c1.8,1.1,4.1,1.6,5,4c0.2,0.5,1,0.6,1.5,0.2
		c0.6-0.5,1-1.3,0.4-1.9c-1.9-1.5-1.5-3.7-2.1-5.7c-0.4-1.2-0.1-2.3,0.9-3.2c1.6-1.5,2.9-3.3,5.3-3.6c0.6-0.1,0.8-0.8,0.6-1.4
		c-0.2-0.6-0.8-1.2-1.3-0.9c-2.1,1.1-4.3,0.4-6.5,0.3c-1.1-0.1-2-0.6-2.4-1.7c-0.8-2-2.5-3.7-1.9-6.1c0.2-0.8-0.7-1.4-1.5-1.2
		c-0.6,0.1-1,0.5-1.1,1.1c0,0.1,0,0.3,0,0.4c-0.2,5.5-2,7.4-7.2,7.8C459.9,587.8,458.9,587.7,458,587.2z"/>
	<path class="st3" d="M253.7,931.4c0.2-4.9,1.6-9.6,2.8-14.3c1.7-6.4,3.9-12.6,7-18.5c2.1-4.1,4.9-7.7,8-11.1
		c3.4-3.6,7.4-4.5,12-3.7c3.9,0.7,7.8,1.4,11.7,2c4.4,0.7,8.8,0.7,13.2,0c3.9-0.6,7.8-1.3,11.7-2c0.3,0,0.6-0.1,0.9-0.1
		c4.5-0.8,8.3,0.4,11.5,3.9c3.8,4,6.8,8.5,9.2,13.4c4,8.3,6.5,17,8.2,26c0.3,1.7,0.6,3.5,0.8,5.2c-1.8,0.1-3.6-0.1-5.3,0.2
		c-6.5,1.2-13,2.3-19.6,2.4c-0.4,0-0.9,0-1.3,0.1c-2.7,1-5.5,0.6-8.3,0.7c-4.5,0.2-9.1-0.6-13.6,0.7c-0.4,0.1-0.9,0.1-1.3,0
		c-4-1.3-8.2-0.5-12.3-0.7c-2.5-0.1-5.1,0.4-7.5-0.2c-4.2-1.1-8.4-0.6-12.6-1.4C264.1,933.2,258.9,932.6,253.7,931.4z"/>
	<path class="st6" d="M933.9,852.5c1.1-6.5,2.2-13.1,3.4-19.5c0.6-2.9,1.5-5.7,2.3-8.5c1.6-5.6,5.4-9.3,10.3-12.1
		c4.3-2.4,8.8-4.2,13.4-5.5c4.3-1.2,8.6-1.9,13-2.4c3.1-0.4,6.2,0.3,9.2,0.7c6.4,1,12.6,2.8,18.6,5.5c2.3,1,4.5,2.3,6.5,3.8
		c3,2.3,5.3,5,6.6,8.6c1.7,4.6,2.9,9.3,3.8,14c0.9,4.9,1.6,9.9,2.4,14.8c-3.9,1.2-8,1.9-12,2.6c-4.6,0.8-9.2,1.6-13.9,2
		c-5.8,0.6-11.6,1.3-17.5,1.4c-4.6,0.1-9.1-0.3-13.6-0.7c-6.7-0.5-13.4-1.4-20-2.5C942.3,854.1,938.1,853.3,933.9,852.5z"/>
	<path class="st11" d="M284.8,1102.1c28.5,0,57.1,0,85.6,0c5.2,0,10.3,0.1,15.5,0.1c11.8,0,23.6,0,35.3,0c1,0,2.1,0,3.1,0
		c1.6,0.1,2.2,0.5,2.5,1.9c1.1,4.5,1.5,9-0.5,13.4c-1.1-1-2.2-1.9-3.3-2.9c-2-2-3.9-4-5.9-5.9c-1.4-1.3-1.9-1.3-3.3,0.1
		c-3.1,3.1-6.3,6.2-9.3,9.4c-1.6,1.7-2.9,3.6-4.4,5.4c0.5,0.3,0.7,0.5,0.9,0.6c1.8,0.4,3.1-0.4,4.3-1.6c2.7-2.9,5.5-5.7,8.4-8.5
		c1.5-1.5,2.1-1.5,3.7,0.1c2.5,2.5,4.9,5.1,7.3,7.7c-0.3,0.6-0.6,1.2-0.9,1.8c-0.9-0.8-1.8-1.5-2.6-2.3c-1.4-1.5-2.7-3.1-4-4.7
		c-1-1.1-1.8-1.2-3-0.2c-2.2,1.9-3.9,4.3-5.7,6.7c-0.1,0.1,0,0.6,0.1,0.7c0.2,0.2,0.6,0.2,0.8,0.2c0.4-0.1,0.8-0.3,1.1-0.6
		c1.2-1.1,2.3-2.3,3.5-3.4c1.4-1.3,1.9-1.3,3.3,0.1c1.8,1.7,3.5,3.5,5.6,5c-0.3,0.3-0.5,0.7-0.8,1c-2.1-0.1-4.1-0.1-6.2-0.1
		c-59,0-117.9,0-176.9,0c-1.9,0-3.8,0.1-5.7,0.1c-1.2-0.9-1.9-2.2-2.4-3.6c1.2-1.1,2.4-2.1,3.6-3.3c1.8-1.7,3.5-3.6,5.3-5.3
		c1.2-1.2,1.9-1.2,3-0.1c1.1,1,2.1,2.1,3,3.2c1.6,2.2,3.6,3.9,5.4,5.8c0.6,0.6,1.3,1.2,2.2,1.4c0.9,0.1,1.9,0.3,2.5-0.4
		c0.7-0.9-0.3-1.6-0.8-2.2c-0.4-0.4-0.8-0.8-1.2-1.3c-3.7-4-7.9-7.5-11.2-11.8c-0.7-1-1.7-1-2.6,0c-3.5,3.6-7.2,6.9-10.4,10.8
		c-2.5-4.9-2.2-9.9-1-15c0.3-1.4,1-1.9,2.5-1.9c1.2-0.1,2.3,0,3.5,0c15,0,30,0,45,0C281.3,1102.2,283.1,1102.2,284.8,1102.1z
		 M324.2,1124.2c0.1,0,0.2,0,0.4,0c0.4-0.1,0.9-0.2,1.1-0.5s0.1-0.9-0.1-1.2c-0.5-0.7-1.1-1.3-1.8-2c-2.8-2.8-5.6-5.6-8.3-8.5
		c-1.1-1.2-2.1-2.5-3.2-3.7c-0.7-0.8-1.5-0.8-2.3-0.1c-0.3,0.3-0.7,0.6-1,0.9c-4,4.1-8.1,8.2-12.1,12.2c-0.4,0.4-0.7,0.9-1.1,1.4
		c-0.3,0.5,0,1.2,0.6,1.3c1.5,0.3,2.9,0,4-1.2c2.4-2.6,5.1-4.8,7.3-7.7c0.5-0.7,1.1-1.4,1.8-1.9c0.7-0.7,1.6-0.7,2.4-0.1
		c1.4,1.1,2.5,2.4,3.7,3.8c1.7,2,3.6,3.9,5.4,5.8C321.9,1123.8,322.9,1124.3,324.2,1124.2z M360.8,1123.9c0.2-0.8-0.3-1.2-0.7-1.6
		c-1.6-1.7-3.1-3.5-4.7-5.3c-2.6-3-5.5-5.7-8.3-8.5c-1-1-1.7-1-2.7-0.1c-0.8,0.7-1.5,1.4-2.2,2.2c-3.5,3.8-7,7.5-10.5,11.3
		c-0.5,0.6-1.7,1.1-0.9,2.1c0.6,0.7,1.7,0.4,2.5,0.2c1.1-0.2,1.7-1.1,2.5-1.8c2.7-2.7,5.3-5.5,8.1-8.1c1.6-1.6,2.1-1.6,3.7-0.1
		c0.9,0.8,1.7,1.7,2.5,2.5c2.1,2.1,4.1,4.2,6.2,6.3C357.6,1124.2,359.1,1124.7,360.8,1123.9z M393.9,1124.2c0.7,0,1.3,0,1.7-0.6
		c0.4-0.6,0-1.2-0.4-1.6c-3.8-3.9-7.6-7.8-11.4-11.6c-2.7-2.7-3.3-4.5-6.5,0.2c-0.7,1-1.6,1.8-2.4,2.6c-2.5,2.5-5,5-7.4,7.6
		c-0.6,0.6-1.2,1.3-1.7,2c-0.4,0.5,0,1.2,0.7,1.3c1.4,0.3,2.7,0.2,3.7-0.9c1.6-1.7,3.3-3.3,4.8-5.2c1.4-1.7,2.9-3.3,4.6-4.8
		c0.8-0.7,1.7-0.6,2.4,0c1.4,1.1,2.5,2.4,3.7,3.8c1.7,2,3.6,3.9,5.4,5.8C391.7,1123.8,392.8,1124.3,393.9,1124.2z M260.6,1123.8
		c2,0.8,3.5,0.3,4.8-1.1c1.6-1.7,3.3-3.4,5-5c1.5-1.5,2.9-2.9,4.4-4.3c0.6-0.6,1.4-0.6,2-0.1c0.8,0.7,1.5,1.4,2.2,2.1
		c2.4,2.4,4.8,4.8,7.1,7.2c1.1,1.1,2.3,1.7,3.9,1.5c0.3,0,0.8-0.2,0.8-0.3c0-0.4,0-0.9-0.2-1.2c-4.3-4.6-8.3-9.5-12.9-13.8
		c-1.7-1.6-2.1-1.6-3.7-0.1c-0.6,0.6-1.3,1.2-1.9,1.9c-3.7,4-7.4,7.9-11.1,11.9C260.9,1122.9,260.8,1123.4,260.6,1123.8z
		 M345.5,1119.1c0.4,0.1,0.9,0.2,1.2,0.5c1.1,1,2.1,2,3.2,3c0.6,0.6,1.2,1.3,2.1,1.5c0.2,0,0.6-0.1,0.8-0.2c0.1-0.1,0.1-0.6,0-0.7
		c-2-2.3-4.1-4.6-6.2-6.9c-0.6-0.6-1.4-0.6-1.9,0c-2.1,2.3-4.1,4.6-6.2,6.9c-0.1,0.1-0.1,0.6,0,0.7c0.2,0.2,0.6,0.3,0.8,0.2
		c0.6-0.3,1.3-0.7,1.8-1.2c1.1-1,2.1-2.1,3.2-3.1C344.7,1119.5,345.1,1119.3,345.5,1119.1z M248,1123.5c0-0.3,0-0.7-0.1-0.8
		c-1.8-1.9-3.6-3.9-5.5-5.7c-0.9-0.9-1.9-0.9-2.8-0.1c-1.9,1.8-3.7,3.7-5.6,5.7c-0.3,0.3-0.3,0.8,0,1.2c0.5,0.5,1.2,0.4,1.6,0
		c0.7-0.7,1.3-1.5,2-2.3c2.8-3.1,3.6-3.3,6.3-0.4c0.7,0.8,1.4,1.5,2.2,2.2c0.3,0.3,0.7,0.5,1.1,0.6
		C247.5,1123.9,247.8,1123.6,248,1123.5z M387.7,1123.6c0-0.3,0.1-0.6,0-0.8c-1.7-2.2-3.7-4.2-5.8-6c-0.7-0.6-1.7-0.6-2.4,0
		c-2.1,2-4.2,4.1-6.2,6.2c-0.1,0.1-0.2,0.6-0.1,0.8c0.3,0.4,0.8,0.4,1.2,0.2c0.7-0.5,1.4-1,2-1.6c1-0.9,1.9-1.9,2.9-2.7
		c1-0.8,1.9-0.8,2.8-0.1c1.1,1,2.1,2.1,3.2,3c0.5,0.5,1.1,0.9,1.8,1.3C387.1,1123.9,387.4,1123.7,387.7,1123.6z M310.4,1119
		c1.1-0.1,1.7,0.3,2.2,0.8c1.4,1.3,2.8,2.6,4.2,3.9c0.2,0.1,0.6,0.2,0.8,0.1c0.5-0.2,0.5-0.8,0.2-1.1c-1.8-1.9-3.6-3.8-5.5-5.7
		c-1-1-2-1-3.1,0.1c-1.8,1.7-3.5,3.5-5.2,5.3c-0.2,0.2-0.3,0.9-0.2,1.2c0.5,0.6,1.1,0.3,1.5-0.1c1.3-1.2,2.5-2.5,3.8-3.6
		C309.5,1119.4,310.1,1119.2,310.4,1119z M283.1,1123.8c0-0.1,0.1-0.3,0-0.4c-1.8-2.5-4.1-4.5-6.4-6.6c-0.4-0.4-1.1-0.5-1.6-0.1
		c-2.3,2-4.5,4.1-6.4,6.5c-0.2,0.3-0.1,0.6,0.2,0.7c0.1,0.1,0.3,0.1,0.4,0.1c0.8,0,1.3-0.5,1.9-1c1.2-1.1,2.3-2.3,3.4-3.4
		c0.7-0.7,1.6-0.8,2.3-0.1c1.1,1,2.1,2,3.2,3c0.6,0.6,1.2,1.3,2.2,1.4C282.6,1124.1,282.8,1123.9,283.1,1123.8z"/>
	<path class="st12" d="M237.4,492c1.5,0,2.9-0.1,4.4-0.1c4.4,0.2,8.7-0.8,13.1-1.4c4.9-0.7,9.9-1.4,14.8-2.1
		c12.2-1.8,24.4-0.6,36.6-0.8c3.3-0.1,6.7,0.7,10,1.2c5.2,0.7,10.5,1.3,15.6,2.4c4.4,0.9,8.8,0.6,13.2,0.9
		c-0.7,6.1-1.4,12.3-1.3,18.5c0,5.6-3.3,9.8-8.6,11.5c-1.8,0.6-3.7,0.9-5.6,0.9c-6.5,0.1-12.9,0.1-19.4-0.7c-8.8-1-17.6-1.5-26.4-1
		c-4.1,0.2-8.2,0.7-12.3,1.2c-6.6,0.8-13.2,0.8-19.8,0.3c-1.6-0.1-3.2-0.6-4.7-1.1c-5-2-7.8-5.7-7.9-11.1c0-0.3,0-0.6,0-0.9
		C239.1,503.7,238.4,497.9,237.4,492z"/>
	<path class="st13" d="M814.3,341.7c6.8-0.1,13.4-1.4,20.1-2.4c5.8-0.9,11.5-2.2,17.4-2.1c7.6-1.6,15.3-0.6,22.9-0.8
		c1.9-0.1,3.8-0.1,5.7,0.6c0.4,0.2,0.9,0.2,1.3,0.2c5.2-0.1,10.2,1.2,15.3,1.7c5.1,0.6,10.1,1.7,15.2,2.1c2.8,0.2,5.5,0.6,8.3,0.6
		c-1,5.5-0.9,11.1-1,16.7c0,1.7-0.4,3.5-0.8,5.2c-1,3.6-3.8,5.5-6.9,7c-1.3,0.6-2.8,0.9-4.3,1.1c-2.5,0.3-5,0-7.5,0.7
		c-0.1,0-0.3,0.1-0.4,0c-4.6-1-9.4-0.3-14.1-1.1c-0.6-0.1-1.1-0.3-1.7-0.3c-7.2-0.3-14.4-1.7-21.6-0.8c-5.1,0.6-10.3,0.2-15.4,1.4
		c-1.4,0.3-2.9,0.2-4.4,0.2c-2.1,0.1-4.1,0.3-6.2,0.4c-3.7,0-7.3-0.3-11-0.8c-2.5-0.3-4.6-1.9-6.5-3.6c-1.2-1.1-2.1-2.5-2.5-4.1
		s-0.9-3.2-0.8-4.8C815.6,353.1,814.9,347.4,814.3,341.7z"/>
	<path class="st4" d="M232.3,618.7c0.7-7.5,2.9-14.7,5.6-21.7c2.1-5.4,4.7-10.4,8.3-15c7.7-10,17.6-16.3,30.1-18.5
		c16.9-3,31.4,1.7,43.5,13.7c5,4.9,8.5,10.9,11.2,17.3c3.1,7.3,5.2,15,6.6,22.8c0.1,0.4,0,0.9,0,1.3c-0.1,0-0.3,0-0.4-0.1
		c-4.4-0.8-4.5-0.8-4.7-5.1c-0.2-4-2.1-6.6-6-7.8c-4.2-1.4-8.6-1.8-13-2.1c-3.5-0.2-7,0.2-10.6,0.6c-5.5,0.7-10.3,2.3-13.9,6.7
		c-1,1.2-2.4,1.6-3.9,1.6c-2,0.1-3.4-0.8-4.6-2.2c-3.4-4-7.9-5.4-12.9-6c-0.9-0.1-1.8-0.1-2.6-0.3c-6.3-1.1-12.6-0.4-18.8,0.9
		c-6.8,1.5-7.9,2.9-8.9,9.6c-0.5,3.3-0.5,3.3-3.6,3.9C233.2,618.6,232.8,618.6,232.3,618.7z"/>
	<path class="st1" d="M231.7,780.3c0.4,0,0.9,0.1,1.3,0c5.1-1.4,10.3-2.5,15.6-3.3c1.6-0.2,2.7-0.8,3.7-2.1c2.1-2.9,4.5-5.4,7.1-7.8
		c12.6-11.6,27.4-17.2,44.5-15.8c16.1,1.3,29.1,8.7,39.4,21.1c0.6,0.7,1.1,1.4,1.6,2.1c1,1.6,2.5,2.2,4.4,2.5
		c4.1,0.6,8.1,1.5,12.1,2.4c1.6,0.3,3.2,0.7,4.6,1.6c-15.4,5.3-31.2,8.4-47.5,9.3c-6.8,0.4-13.5,0.3-20.3,0.4
		c-10.3,0.2-20.6-0.3-30.9-1.4c-11.3-1.2-22.3-3.8-33.1-7.3C233.2,781.5,232.2,781.3,231.7,780.3z"/>
	<path class="st6" d="M1024.9,856.1c12.9,0.5,25.8,0.6,38.7-0.3c4.7-0.4,9.4-0.4,14.1-0.4c3,0,5.8,0.6,8.3,2.5
		c0.3,0.7,0.9,1,1.6,1.1l0,0c0,1.2,0.1,2.4,0,3.5c-0.1,0.7-0.4,1.5-0.8,2c-1.3,1.6-2.8,3.1-4.8,3.8c-4.2,1.4-8.3,3.1-12.7,3.8
		c-9.5,1.6-19,3.5-28.8,3.7c-0.6,0-1.2,0-1.7,0.2c-2.1,0.8-4.4,0.6-6.6,0.6c-2.4,0-4.8-0.3-7,0.2c-2.9,0.6-5.8,0.6-8.8,0.7
		c-6.5,0.2-12.9-0.6-19.4,0.8c-0.7,0.2-1.5,0.1-2.2,0.1c-10.6,0-21.2,0-31.8,0c-1.2,0-2.4,0.1-3.5-0.2c-2.5-0.8-4.9-0.6-7.4-0.7
		c-4.3,0-8.5,0-12.8,0c-1.2,0-2.4,0.1-3.5-0.2c-2.7-0.8-5.5-0.6-8.3-0.7c-1.8,0-3.6,0.1-5.3-0.3c-2-0.5-4.1-0.6-6.1-0.6
		c-1.3,0-2.7,0-3.9-0.3c-1.6-0.4-3.2-0.5-4.8-0.5c-1,0-2.1-0.1-3.1-0.3c-4.8-0.8-9.5-1.6-14.3-2.3c-5.5-0.8-11-2.1-16-4.6
		c-2.9-1.4-5.5-3.5-5.7-7.2c0-0.2,0.2-0.4,0.4-0.6c0.7-0.1,1.2-0.4,1.4-1.1c2.8-2.5,6.4-2.7,9.8-3.1c1.7-0.2,3.5-0.1,5.3,0.1
		c11.4,1.1,22.8,0.8,34.3,0.8c4.2,0,8.5-0.1,12.7-0.1c0,2.1-0.6,4-1,6.1c-0.4,2-0.2,3.2,2.4,3.7c5.9,1.1,11.8,2.1,17.8,2.8
		c5.7,0.7,11.3,1.5,17.1,1.6c7.5,0,15,0,22.5-0.1c1.2,0,2.4,0,3.5-0.2c4.4-0.5,8.7-0.9,13.1-1.6c5.7-0.8,11.3-1.8,16.9-2.8
		c1.7-0.3,2.2-1.1,1.8-2.8C1025.8,860.7,1025,858.5,1024.9,856.1z"/>
	<path class="st4" d="M238.1,713.8c-0.4,0.2-0.8,0.4-1.2,0.6c-1.7,0.6-2.6,0.4-3.3-1.1c-1.3-2.7-1.6-5.6-1.9-8.5
		c-1-9.5-0.8-19.1-0.9-28.7c-0.1-13.4-0.1-26.8-0.1-40.2c0-1.8,0.1-3.5,0.2-5.3c1.3-0.3,2.6-0.6,3.8-0.9c4.7-1.2,4.8-1.2,7.1,2.9
		c2.3,4,5.7,6.4,10.2,6.8c6.3,0.7,12.3-0.3,18.1-2.7c0.9-0.4,1.8-1,2.6-1.6c2.2-1.7,3.4-4,4.4-6.5c0.9-2,1.8-4,2.7-6
		c0.6-1.2,1.3-2.3,2.3-3.2c1.9-1.8,4.2-1.7,5.7,0.3c1.1,1.5,2.1,3.2,2.9,4.9c0.9,1.7,1.6,3.5,2.3,5.3c1.6,4.2,4.7,6.6,8.9,7.9
		c5,1.5,10,2.1,15.2,1.8c2.9-0.2,5.4-1.4,7.5-3.3c1.7-1.5,2.9-3.3,4-5.2c1.2-2.2,1.8-2.4,4.3-1.9c1.9,0.4,3.7,0.8,5.6,1.2
		c0.7,1.4,0.7,2.8,0.7,4.3c0,18.7,0.2,37.3-0.1,56c-0.1,6.3-0.1,12.6-1.4,18.9c-0.2,0.9-0.4,1.7-0.6,2.6c-0.6,2.1-1.9,3.2-4.2,2.8
		c-1.3-2.1-1.8-4.4-2.1-6.7c-0.4-3.7-0.8-7.3-0.9-11c-0.2-13.4-0.3-26.8-0.4-40.2c0-4.5,0.2-3.6-4-4.8c-0.4-0.1-0.9-0.1-1.3-0.2
		c-7.1-1.4-14.2-2.3-21.4-2.9c-19.3-1.5-38.5-0.7-57.6,2.9c-1.6,0.3-3.1,0.6-4.6,1.3c0,1.8,0,3.5,0,5.1c-0.1,12.2,0,24.5-0.2,36.7
		C240.2,701.4,240,707.7,238.1,713.8z"/>
	<path class="st11" d="M868.2,860.4c0.2,3.8,2.7,5.8,5.7,7.2c5,2.5,10.5,3.7,16,4.6c4.8,0.7,9.5,1.6,14.3,2.3c1,0.2,2,0.3,3.1,0.3
		c1.6,0,3.2,0.1,4.8,0.5c1.3,0.3,2.6,0.3,3.9,0.3c2.1,0.1,4.1,0.1,6.1,0.6c1.7,0.4,3.5,0.2,5.3,0.3c2.8,0.1,5.6-0.2,8.3,0.7
		c1.1,0.3,2.3,0.2,3.5,0.2c4.3,0,8.5,0,12.8,0c2.5,0,5-0.1,7.4,0.7c1.1,0.3,2.3,0.2,3.5,0.2c10.6,0,21.2,0,31.8,0
		c0.7,0,1.5,0.1,2.2-0.1c6.4-1.5,12.9-0.6,19.4-0.8c2.9-0.1,5.8,0,8.8-0.7c2.3-0.5,4.7-0.2,7-0.2c2.2,0,4.4,0.2,6.6-0.6
		c0.5-0.2,1.2-0.2,1.7-0.2c9.7-0.2,19.2-2.1,28.8-3.7c4.4-0.7,8.5-2.3,12.7-3.8c2-0.7,3.5-2.2,4.8-3.8c0.4-0.5,0.7-1.3,0.8-2
		c0.1-1.2,0-2.4,0-3.5c2.6,1.7,3,4.2,2.2,7c-0.5,1.9-1.6,3.4-2.9,4.9c-3.4,3.7-7.5,6.2-11.9,8.3c-9.4,4.4-19.4,7-29.5,9
		c-11.7,2.3-23.5,3.8-35.5,4.6c-12.6,0.8-25.3,1.9-38,1.3c-8.8-0.4-17.7-0.6-26.5-1.3c-13.4-1.1-26.7-2.7-39.8-5.6
		c-8.9-2-17.7-4.6-25.9-8.7c-2.8-1.4-5.4-3-7.8-5c-2.1-1.7-3.9-3.6-4.9-6.2C866.3,864.8,866,862.4,868.2,860.4z"/>
	<path class="st12" d="M1054.9,276.2c0.5,0.9,1.2,1.7,1.6,2.6c6.7,12.9,13.3,25.9,19.9,38.9c2.3,4.5,2.3,4.6-0.5,8.8
		c-5.1,7.5-11.3,13.9-18.6,19.3c-7.6,5.7-15.7,10.3-24.8,13.2c-0.8,0.3-1.7,0.5-2.5,0.8c-4,1.4-8,1.4-12.1,0
		c-5.3-1.8-10.6-3.4-15.3-6.6c0.3-0.7,0.4-1.6,0.8-2c1.9-1.5,2.9-3.6,4.3-5.5c2.9-3.7,5.7-7.5,8.6-11.2c2.2-2.8,4.2-5.6,6.6-8.3
		c3.5-4,6.8-8.1,9.8-12.5c7.5-10.8,14.3-21.9,19.9-33.9C1053.2,278.6,1053.7,277.2,1054.9,276.2z M1018.6,355c0.6,0,1.2,0,1.8,0
		c0.7,0,1.6,0.2,2-0.5c0.6-1.1-0.7-1.3-1.2-1.9c-0.3-0.3-0.7-0.6-0.9-0.9c-1.1-2.6-3.2-3.1-5.8-2.9c-1.9,0.2-3.8,0.1-5.7,0.1
		c-0.4,0-0.9,0.1-1,0.7c-0.1,0.5,0.2,0.8,0.6,0.9c0.8,0.3,1.6,0.4,2.2,1.2C1012.6,353.7,1015.8,355,1018.6,355z M1029.5,355.2
		c2.3,0.7,4.5-2,7.2-2.6c0.6-1.5,2-2,3.3-2.5c0.3-0.1,0.4-0.5,0.1-0.7c-0.2-0.2-0.4-0.5-0.6-0.5c-2.9-0.1-5.8-0.1-8.8-0.1
		c-0.5,0-1.3,0.3-1.5,0.7c-1.1,1.6-2.3,3-3.7,4.2c-0.3,0.3-0.1,0.9,0.4,1C1026.8,354.9,1027.7,354.9,1029.5,355.2z"/>
	<path class="st9" d="M967.3,967.3c2.1-1,4.4-1.4,6.8-1.4c2.5,0,4.9,0,7.4,0s4.9,0.3,7.2,1.4c0,0.9-0.1,1.8-0.1,2.6
		c0,20.4,0,40.8,0,61.3c0,0.7,0,1.5,0,2.2c0.1,1.8,0.6,2.3,2.5,2.4c3.5,0.1,7.1,0,10.6,0c1.8,0,3.6,0.2,5.3-0.2
		c2.8-0.7,5.5-0.6,8.3-0.6c2.6,0,5.4,0.3,7.9-0.2c3.2-0.6,6.4-0.7,9.6-0.7c0.2,0.7,0.6,1.4,0.7,2.1c0.3,4.6,0.6,9.3,0.8,13.9
		c0,0.3-0.1,0.6-0.2,0.8c-3.9,0-7.9-0.4-11.8,0.7c-0.8,0.2-1.8,0.1-2.6,0.1c-2.6,0-5.3,0-7.9,0c-2.1,0-4.1,0-6.1,0.6
		c-1.2,0.4-2.6,0.3-3.9,0.3c-15.7,0-31.4,0-47.2,0c-1.3,0-2.7,0.1-3.9-0.2c-2.3-0.7-4.6-0.6-7-0.6c-3.2,0-6.5,0.4-9.7-0.2
		c-4.1-0.7-8.2-0.7-12.3-0.7c-0.2-3.5-0.4-7,0.4-10.5c0.5-2.1-0.2-4.4,0.9-6.4c2.4,0.1,4.8-0.2,7,0.3c2.8,0.6,5.5,0.6,8.3,0.7
		c3.8,0.1,7.6-0.3,11.4,0.8c0.8,0.2,1.8,0.1,2.6,0.1c3.4,0,6.8,0,10.2,0c4.9,0,4.9,0,4.9-4.9c0-0.9,0-1.8,0-2.6
		c0-17.4,0-34.7,0-52.1C967.4,973.2,967.3,970.3,967.3,967.3z M1014.7,1043.9c0.1-2.1-2.1-4.3-4.2-4.2c-1.8,0-3.9,2.2-3.9,4.1
		s2,3.9,4,4C1012.5,1047.8,1014.6,1045.9,1014.7,1043.9z M957.6,1044.7c0,2.3,1.6,3.9,3.7,4.1c2,0.1,4.2-2.3,4.1-4.3
		c-0.1-1.9-2.1-3.8-4.2-3.8C959.2,1040.6,957.6,1042.4,957.6,1044.7z M1031,1043.4c0.1-2.2-1.5-3.9-3.7-4c-2.4-0.1-4.2,1.6-4.2,4
		c0,2.2,1.7,3.8,3.9,3.8C1029.2,1047.2,1030.9,1045.6,1031,1043.4z M948.9,1043.8c0-2.3-1.9-4.3-4.1-4.2c-1.8,0.1-3.8,2.3-3.8,4.2
		c0.1,1.9,2,3.8,4.1,3.9C947.1,1047.8,948.8,1046,948.9,1043.8z M981.6,1011.1c0-2.3-1.9-4.3-4.1-4.2c-1.8,0.1-3.8,2.3-3.8,4.2
		c0.1,1.9,2,3.8,4.1,3.9C979.9,1015.1,981.6,1013.3,981.6,1011.1z M981.6,1044.5c-0.1-2.2-1.8-4-3.8-3.9s-4,2-4,3.9
		c0,2.1,2.2,4.1,4.3,4.1C980.1,1048.6,981.7,1046.8,981.6,1044.5z M990.4,1044.5c0,2.3,1.5,4.1,3.6,4.1c2.2,0.1,4.3-2,4.3-4.1
		c-0.1-1.9-2-3.8-4-3.9C992.2,1040.5,990.4,1042.3,990.4,1044.5z M981.6,978.2c0-2.3-1.6-4.1-3.6-4.1c-2.1,0-4.2,2.2-4.2,4.2
		s1.8,3.6,4.1,3.6C980.3,981.9,981.6,980.6,981.6,978.2z M932.7,1043.4c0.1-2.1-1.7-4-3.8-4.1c-2.2,0-3.9,1.6-4,3.8
		c-0.1,2.3,1.5,4,3.7,4C930.7,1047.3,932.6,1045.6,932.7,1043.4z M977.8,1023.5c-2.1-0.1-3.9,1.6-4,3.8c-0.1,2,1.8,3.9,3.9,4
		c2.1,0.1,3.9-1.6,3.9-3.8C981.6,1025.2,980,1023.5,977.8,1023.5z M978.1,998.5c2.1-0.1,3.7-2,3.5-4.2s-1.9-3.7-4.2-3.6
		c-2.1,0.1-3.8,2.1-3.6,4.2C974,996.9,976,998.6,978.1,998.5z"/>
	<path class="st3" d="M1065.6,496.4c-0.1,2.7-1.8,4.6-3.4,6.4c-3.7,4.2-8.4,7-13.3,9.2c-9.5,4.2-19.4,6.7-29.8,7.4
		c-3.4,0.3-6.7,0.9-10.1,0.7c-8.4-0.4-16.7-1.3-24.8-3.6c-7.4-2.2-14.3-5.4-20.3-10.4c-2.1-1.7-3.6-3.8-5.1-6
		c-0.7-1.1-1.3-2.3-1.2-3.7c5.1-1.5,10.1-3.2,15.2-4.4c10.3-2.3,20.6-4.7,31.3-4.5c1,0,2-0.2,3-0.4c2.9-0.6,5.8-0.7,8.7,0
		c1.3,0.3,2.6,0.5,3.9,0.4c4.5-0.4,8.8,0.5,13.1,1.1c6.1,0.8,12.1,2.3,18.1,3.7C1056,493.5,1060.8,495,1065.6,496.4z"/>
	<path class="st8" d="M879.9,512.3c-0.3,2.2-1.6,3.7-3,5.3c-3.9,4.4-8.7,7.4-14,9.8c-8.6,3.9-17.7,6-27.1,7.2
		c-5.1,0.6-10.2,1-15.4,0.7c-10-0.6-19.8-2.1-29.2-6c-4.6-2-9-4.4-12.8-7.7c-2.9-2.5-5.6-5.3-6.4-9.2c7.3-2,14.6-4.3,22.1-5.8
		c6.5-1.3,13-2,19.5-3c9.8,0.4,19.6-0.7,29.4,0.8c6.2,0.9,12.4,1.9,18.5,3.3C867.7,509,873.8,510.7,879.9,512.3z"/>
	<path class="st12" d="M1000.2,1107.3c-1.9,3.5-5.5,4.8-8.9,6.1c-5.5,2-11.2,3.2-17.1,3.9c-4.7,0.6-9.3,0.6-14,0.8
		c-6,0.2-11.9-0.7-17.9-1.6c-4.4-0.7-8.5-1.9-12.7-3.4c-2.1-0.8-3.8-2.2-5.8-3.1c-1.2-0.5-1.6-1.7-1.9-2.8c0.5-3.6,2.3-6.7,4-9.7
		c4.3-7.6,10.3-13.6,18.1-17.5c13-6.4,25.7-5.4,37.7,2.3C991.2,1088.1,997,1096.8,1000.2,1107.3z"/>
	<path class="st2" d="M598.4,348.8c0.3,1.9-0.6,3.4-1.6,4.9c-2.3,3.7-5.8,6.2-9.4,8.5c-5.5,3.5-11.5,5.9-17.8,7.6
		c-10.3,2.7-20.8,4.2-31.4,3.5c-11.4-0.7-22.5-2.6-32.7-8c-4-2.1-7.9-4.6-10.9-8.1c-2.1-2.4-4.3-4.9-4-8.5c1.2-0.1,2.3-0.2,3.5-0.4
		c4.8-0.7,9.5-1.7,14.3-2.2c4.8-0.4,9.6-1.4,14.5-1.1c0.7,0.1,1.4-0.2,2.2-0.3c1.3-0.2,2.6-0.4,3.9-0.4c10.2,0,20.3,0,30.5,0
		c1,0,2.1,0,3.1,0.3c2,0.6,4.1,0.5,6.1,0.6c1.2,0,2.4-0.1,3.5,0.1c5.8,1.1,11.6,1.2,17.4,2.4C592.5,348.2,595.4,349,598.4,348.8z"/>
	<path class="st2" d="M423.3,802.2c2,0.3,4,0.7,6.1,1c3.8,0.6,7.5,1.4,11.3,1.6c4.4,0.1,8.7,1.5,13.1,1.1c0.9-0.1,1.8-0.2,2.6,0.1
		c3.6,1.1,7.3,0.7,11,0.8c5.4,0.1,10.9,0,16.3,0c3.1,0,6.2,0.2,9.2-0.7c1.1-0.3,2.3-0.1,3.5-0.2c2.2,0,4.4,0.1,6.6-0.7
		c0.7-0.2,1.5-0.2,2.2-0.2c4,0,7.8-1,11.8-1.5c2.9-0.4,5.8-0.7,8.7-1.4c0.9,0.1,1.8,0.2,2.1,1.3c1.3,5.3,2.6,10.6,2.8,16.1
		c0.1,2.9-0.1,3.2-3.1,3.8c-4,0.8-8.1,1.5-12.2,2c-6.6,0.9-13.1,1.6-19.7,2.4c-0.1,0-0.3,0-0.4,0c-8.5,0.2-17,1.6-25.6,0.9
		c-6-0.5-12-0.7-18-1.3c-9.2-0.9-18.4-2.2-27.5-3.8c-0.6-0.1-1.2-0.1-1.8-0.2c-2.9-0.6-3.2-1-3.2-3.8c0.1-5.5,1.3-10.8,2.7-16.1
		C421.9,802.7,422.5,802.3,423.3,802.2z"/>
	<path class="st2" d="M687.1,560.5c5.5-2.7,10.2-6.4,15.2-9.8c1.5-1,3-1.9,4.5-2.8c0.6-0.4,1.4-0.6,2.1-0.7c1.3-0.3,2.7,0.8,2.8,2.1
		c0.2,1.9,0,3.8-0.5,5.7c-3.4,11.4-10.1,20.2-20.7,25.8c-7.7,4.1-16,6.7-24.6,8.3c-5.3,1.1-10.8,1.6-16.2,2.1
		c-6.7,0.6-13.3,0.2-19.8-0.3c-13.3-1.2-26.2-4.2-37.9-10.8c-9.7-5.5-16-13.7-19.3-24.3c-0.7-2.1-0.8-4.3-0.6-6.6
		c0.1-1.4,1.4-2.4,2.8-2.1c1.9,0.4,3.5,1.5,5.1,2.6c4.5,3.1,9,6.2,13.5,9.2c1.1,0.7,2.3,1.3,3.5,2c0.5,1.1,0.9,2.2,0.8,3.4
		c-0.1,2,1,3,2.6,3.6c2.9,1.2,5.7,2.4,8.6,3.5c10.5,3.9,21.3,6.7,32.7,6.4c3.2-0.1,6.5,0.1,9.7-0.3c10.3-1.4,20.2-4.2,29.6-8.3
		C686.7,566.7,686.9,567,687.1,560.5z"/>
	<path class="st7" d="M1054.9,276.2c-1.2,1-1.6,2.4-2.3,3.8c-5.5,11.9-12.4,23.1-19.9,33.9c-3,4.3-6.3,8.5-9.8,12.5
		c-2.3,2.7-4.4,5.5-6.6,8.3c-2.9,3.7-5.7,7.5-8.6,11.2c-1.4,1.8-2.4,4-4.3,5.5c-0.5,0.4-0.6,1.3-0.8,2c-0.8-0.3-1.7-0.6-2.4-1
		c-10.3-6-19.2-13.6-26.4-23.2c-1.1-1.4-2-2.9-3-4.4c-1.2-1.8-1.2-3.5-0.2-5.4c1.8-3.4,3.5-6.8,5.2-10.2c5.1-10,10.2-19.9,15.3-29.9
		c0.7-1.4,1.2-3,2.5-4.1c0.2,0.9,0.2,1.8,0.5,2.6c1.6,3.6,3.3,7.2,5.1,10.7c3,5.6,6.2,11,9.5,16.4c3.3,5.3,6.9,10.2,10.6,15.1
		c2.9,3.8,2.9,3.5,5.9,0.4c0.5-0.5,1.1-1,1.5-1.6c2.2-3.1,4.4-6.2,6.6-9.4c4.8-7.1,9.1-14.4,13.3-21.8c2.4-4.4,4.5-8.9,6.3-13.5
		C1054.2,274.3,1054.6,275.2,1054.9,276.2z"/>
	<path class="st5" d="M967.3,967.3c0,2.9,0.1,5.9,0.1,8.8c0,17.4,0,34.7,0,52.1c0,0.9,0,1.8,0,2.6c0,4.9,0,4.9-4.9,4.9
		c-3.4,0-6.8,0-10.2,0c-0.9,0-1.8,0.1-2.6-0.1c-3.8-1.1-7.6-0.7-11.4-0.8c-2.8,0-5.5,0-8.3-0.7c-2.3-0.5-4.7-0.2-7-0.3
		c0-3.7,0.8-7.3,1.4-10.9c0.3-1.9,0.6-3.8,0.9-5.6c0.4-1.1,1-2.1,1.3-3.3c2.4-8.7,5.5-17.1,10.4-24.7c0.2-0.4,0.3-0.8,0.5-1.2
		c2.9-3.2,5.6-6.7,8.8-9.7C952.4,973,959.2,969,967.3,967.3z"/>
	<path class="st5" d="M1032.8,1034c-3.2,0-6.4,0.1-9.6,0.7c-2.5,0.5-5.3,0.1-7.9,0.2c-2.8,0-5.5-0.1-8.3,0.6
		c-1.7,0.4-3.5,0.2-5.3,0.2c-3.5,0-7.1,0-10.6,0c-1.8,0-2.3-0.6-2.5-2.4c-0.1-0.7,0-1.5,0-2.2c0-20.4,0-40.8,0-61.3
		c0-0.9,0.1-1.8,0.1-2.6c7.4,1.3,13.7,4.9,19.3,9.7c3.2,2.8,6.2,5.8,8.7,9.3c0.5,0.7,1.2,1.3,1.8,1.9c0.3,0.7,0.5,1.4,0.9,2
		c3.6,5.6,6,11.7,8,18c1,3.1,1.9,6.1,2.9,9.2c0.7,3.7,1.3,7.4,2,11.1C1032.7,1030.3,1032.9,1032.1,1032.8,1034z"/>
	<path class="st14" d="M687.1,560.5c-0.2,6.5-0.3,6.2-6.2,8.7c-9.5,4.1-19.4,7-29.6,8.3c-3.2,0.4-6.5,0.2-9.7,0.3
		c-11.4,0.3-22.1-2.5-32.7-6.4c-2.9-1.1-5.7-2.3-8.6-3.5c-1.6-0.7-2.8-1.6-2.6-3.6c0.1-1.2-0.2-2.3-0.8-3.4c0.2-4.9,0-9.9-0.4-14.8
		c-0.1-0.7,0-1.4,0-2.2c2.3,0.9,4.7,1.6,7,2.7c8.3,3.8,17.1,6.4,26.1,7.8c4.9,0.7,9.9,1.6,14.9,1.1c8.2-0.7,16.3-1.9,24.2-4.5
		c5.6-1.9,11.1-3.7,16.4-6.3c0.7-0.3,1.4-0.5,2.1-0.8c0.7,0.9,0.6,1.9,0.5,2.9C686.9,551.4,687.1,556,687.1,560.5z"/>
	<path class="st2" d="M692.1,465.4c-2.3,0.9-4.6,1.9-6.9,2.8c-6.2,2.3-12.7,3.5-19.2,4.4c-3.4,0.5-6.8,0.2-10,0.8
		c-6.9,1.3-13.8,0.5-20.7,0.8c-1.8,0.1-3.5,0.1-5.2-0.5c-0.7-0.2-1.5-0.4-2.2-0.3c-4.2,0.4-8.2-0.5-12.2-1.1
		c-8.4-1.3-16.8-2.9-24.1-7.7c-0.1-0.1-0.3-0.1-0.4-0.1c-0.5-2.2,0.4-4,1.9-5.6c1.3-1.4,2.9-2.4,4.7-3.3c4.4-2.2,9.1-3.4,13.9-4.3
		c5.2-1,10.5-1.5,15.7-2c7.4-0.7,14.7-0.8,22-0.5c10.1,0.4,20.2,1.5,30.1,4.3c3.4,1,6.7,2.3,9.6,4.4
		C691.7,459.4,693.1,461.9,692.1,465.4z"/>
	<path class="st4" d="M937.5,988.2c-0.2,0.4-0.2,0.9-0.5,1.2c-4.9,7.6-8,16-10.4,24.7c-0.3,1.1-0.9,2.2-1.3,3.3
		c-7.8-2.9-14.8-7.1-21.1-12.5c-13.8-11.8-22-26.7-24.9-44.5c-2.3-14-0.3-27.5,5.4-40.5c1.1-2.6,2.5-5,3.8-7.5
		c0.3-0.6,0.6-1.4,1.6-1.4c0.1,0.4,0.2,0.8,0.1,1.2c-1,4.5-1.1,9.1-1.3,13.6c-0.3,6.2,0.4,12.3,1.8,18.4c1.7,7,4.1,13.8,7.7,20.2
		c3.3,6,7.5,11.2,13,15.4c5,3.8,10.7,6.1,16.8,7.4C931.3,987.8,934.4,988.1,937.5,988.2z"/>
	<path class="st13" d="M598.4,348.8c-3,0.2-5.9-0.6-8.7-1.2c-5.8-1.1-11.7-1.2-17.4-2.4c-1.1-0.2-2.3-0.1-3.5-0.1
		c-2.1,0-4.1,0-6.1-0.6c-1-0.3-2-0.3-3.1-0.3c-10.2,0-20.3,0-30.5,0c-1.3,0-2.6,0.3-3.9,0.4c-0.7,0.1-1.5,0.4-2.2,0.3
		c-4.9-0.3-9.7,0.6-14.5,1.1c-4.8,0.4-9.6,1.4-14.3,2.2c-1.2,0.2-2.3,0.3-3.5,0.4c-0.8-0.8-0.8-1.9-0.8-2.9c0-2.2-0.1-4.4-0.1-6.5
		c0-0.3,0.1-0.6,0-0.9c-0.3-2.6,0.8-3.9,3.3-4.9c7.9-3.3,16.2-5.3,24.6-6.7c3.4-0.6,6.9-1.4,10.5-1.1c8.9-1.7,17.9-0.7,26.8-0.8
		c3.6-0.1,7.3,0.5,10.9,1c7,0.9,13.9,2.4,20.6,4.3c3.3,0.9,6.5,1.9,9.5,3.5c1.5,0.8,2.8,1.6,2.7,3.6c0,0.8,0.4,1.4,1,1.9
		c-1,1.2-0.9,2.7-1,4.1C598.6,345.1,598.5,347,598.4,348.8z"/>
	<path class="st4" d="M1030.3,1017.3c-1-3.1-1.9-6.1-2.9-9.2c-2-6.3-4.4-12.4-8-18c-0.4-0.6-0.6-1.3-0.9-2c5-0.2,9.9-0.9,14.7-2.6
		c10.1-3.4,17.4-10.2,22.8-19.2c5.6-9.3,9-19.5,10.2-30.3c0.7-6.6,0.7-13.2-0.3-19.8c-0.2-1.3-0.2-2.6-0.2-4c0-0.2,0.3-0.5,0.5-0.5
		s0.6,0.1,0.7,0.3c0.9,1.4,1.8,2.7,2.5,4.2c3,6.1,5.2,12.5,6.6,19.1c1.4,7,1.6,14.1,0.9,21.1c-1.4,13.7-6.3,26.2-14.8,37.2
		c-8.1,10.5-18.2,18.3-30.5,23.2C1031.1,1017.1,1030.7,1017.2,1030.3,1017.3z"/>
	<path class="st12" d="M1053.1,273.8c-1.8,4.6-3.9,9.1-6.3,13.5c-4.1,7.5-8.5,14.7-13.3,21.8c-2.1,3.2-4.3,6.3-6.6,9.4
		c-0.4,0.6-1,1.1-1.5,1.6c-3.1,3.1-3,3.4-5.9-0.4c-3.8-4.9-7.4-9.9-10.6-15.1c-3.3-5.4-6.5-10.8-9.5-16.4c-1.9-3.5-3.5-7.1-5.1-10.7
		c-0.4-0.8-0.4-1.7-0.5-2.6c0.4-1.3,1.5-1.8,2.6-2.1c7.7-1.8,15.4-3.7,23.2-5.4c2.9-0.6,5.9-0.6,8.8,0c7.9,1.8,15.7,3.7,23.6,5.6
		C1052.4,273.2,1052.7,273.6,1053.1,273.8z"/>
	<path class="st11" d="M406.6,487.2c0.7,2.8,0.7,2.9,2.9,2.9c8.6,0.2,17.3,1.4,25.9,0.9c0.9,0,1.8-0.1,2.6,0.1c3,1,6.1,0.7,9.2,0.7
		c12.6,0,25.3,0,37.9,0c2.1,0,4.1,0.1,6.1-0.6c1.1-0.3,2.3-0.3,3.5-0.3c3.7,0,7.4,0,11,0c2.3,0,4.7-0.1,7-0.6c2-0.5,4.1-0.2,6.1-0.3
		c3.2-0.1,3.2-0.1,3.6-3.5c1.6,0.6,3.4,0.9,4.9,1.9c2,1.3,2.2,3.1,0.7,4.9c-1.4,1.6-3.2,2.6-5,3.6c-4.7,2.5-9.7,4.2-14.9,5.5
		c-9.3,2.4-18.7,3.8-28.3,4.6c-7.1,0.6-14.1,0.8-21.2,0.6c-14-0.5-27.9-2.3-41.3-6.3c-4.5-1.3-9-2.9-12.9-5.6
		c-1.2-0.8-2.4-1.7-3.3-2.9c-1.1-1.6-0.8-3.1,0.7-4.2C403.4,487.7,405,487.4,406.6,487.2z"/>
	<path class="st2" d="M253.7,931.4c5.1,1.2,10.4,1.8,15.5,2.8c4.2,0.8,8.5,0.3,12.6,1.4c2.3,0.6,5,0.1,7.5,0.2
		c4.1,0.2,8.2-0.6,12.3,0.7c0.4,0.1,0.9,0.2,1.3,0c4.5-1.3,9.1-0.5,13.6-0.7c2.8-0.1,5.6,0.2,8.3-0.7c0.4-0.1,0.9-0.1,1.3-0.1
		c6.6-0.2,13.1-1.2,19.6-2.4c1.7-0.3,3.5-0.2,5.3-0.2c1.1,4.4,1.3,8.8,1.9,13.3c-1.7,0.3-3.5,0.6-5.2,0.9c-4.3,0.8-8.7,1.1-13,1.9
		c-4.5,0.9-9.1,0.1-13.5,1.5c-0.9,0.3-2,0.1-3.1,0.1c-10.3,0-20.6,0-30.9,0c-1.9,0-3.8,0-5.7-0.6c-0.8-0.3-1.7-0.3-2.6-0.3
		c-6.3,0.1-12.5-1.5-18.8-2c-2.8-0.2-5.5-1.1-8.2-1.6c0.4-4,0.8-8.1,1.2-12.1C253.1,932.8,253.5,932.1,253.7,931.4z"/>
	<path class="st5" d="M375.5,337.9c0.9,0.5,1.7,1.2,1.9,2.3c0.2,2,0.2,4.1,0.8,6.1c0.2,0.7-0.2,1.5-0.7,2c-0.9,0.8-1.7,1.6-2.7,2.2
		c-6.6,4.1-13.6,7.6-20.8,10.7c-5.9,2.6-12,4.6-18.5,5.4c-2.5,0.3-4.9,0.6-7.4,0.7c-4.9,0-9.6-0.9-14.3-2.3
		c-8.5-2.5-16.6-5.9-24.1-10.6c-2.5-1.6-5.4-2.5-7.7-4.3c-0.6-0.4-1.3-0.8-1.8-1.2c-1.1-0.9-1.6-2-1.2-3.5c0.6-2.7,1.4-5.4,1.5-8.2
		c0.2-0.1,0.4-0.2,0.6-0.3c3.7,2.6,7.6,4.9,11.8,6.7c7,3,14.4,4.8,21.9,6c1,0.2,2.1,0.1,2.9,0.9c3.7,6.7,11,8.9,17.4,5.3
		c2.5-1.4,4.2-3.6,5.6-6c9.1-0.8,17.8-3.1,26.1-7.1C369.7,341.2,372.6,339.5,375.5,337.9z"/>
	<path class="st12" d="M1024.9,856.1c0,2.4,0.9,4.6,1.4,6.9c0.4,1.7-0.1,2.5-1.8,2.8c-5.6,1-11.3,2-16.9,2.8
		c-4.3,0.6-8.7,1.1-13.1,1.6c-1.2,0.1-2.3,0.2-3.5,0.2c-7.5,0-15,0.1-22.5,0.1c-5.7,0-11.4-0.9-17.1-1.6c-6-0.7-11.9-1.7-17.8-2.8
		c-2.6-0.5-2.8-1.7-2.4-3.7c0.4-2,1-4,1-6.1c0.6-1.3,1.2-2.6,1.7-3.8c4.2,0.8,8.4,1.5,12.5,2.3c6.6,1.1,13.3,2,20,2.5
		c4.5,0.3,9,0.8,13.6,0.7c5.9-0.2,11.7-0.8,17.5-1.4c4.7-0.5,9.3-1.3,13.9-2c4-0.7,8.1-1.4,12-2.6
		C1024,853.3,1024.5,854.7,1024.9,856.1z"/>
	<path class="st11" d="M418.5,1129.7c-2.9,3.4-6.9,4.9-11.1,5.9c-2.7,0.6-5.5,0.8-8.3,0.8c-21.6,0-43.3,0-64.9,0
		c-26.3,0-52.7,0-79,0.1c-3.7,0-7.4-0.5-10.8-1.8c-2.9-1.1-5.7-2.4-7.7-4.9c1.8-0.1,3.5-0.1,5.3-0.1c57.1,0,114.2,0,171.2,0
		C415,1129.6,416.8,1129.7,418.5,1129.7z"/>
	<path class="st10" d="M873.4,650.9c1.3,0.5,2.4,1.2,3.3,2.2c1.6,1.7,1.4,3.1-0.6,4.3c-2.1,1.2-4.3,2.1-6.6,2.4
		c-5.4,0.7-10.7,1.5-16.1,2.1c-4.5,0.5-9.1,0.3-13.6,1.3c-0.3,0.1-0.6,0.1-0.9,0.1c-14.5,0.8-29.1,1.5-43.6,0.8
		c-5.3-0.3-10.6-0.3-15.8-0.8c-7.3-0.7-14.6-1-21.9-2.3c-2.7-0.5-5.6-0.6-8.3-1.1c-2.2-0.4-4.3-1.1-6.3-1.9
		c-0.8-0.3-1.5-0.9-2.1-1.5c-0.7-0.7-0.7-1.6-0.2-2.4c1-1.5,2.2-2.8,4.1-3.1c1.1,0.3,2.3,0.7,3.4,0.8c6.7,0.6,13.4,1.4,20.2,1.8
		c6.7,0.4,13.5-0.1,20.3,0.9c15-0.2,30,0.6,45-0.5c7.9-0.6,15.9-0.2,23.8-1C862.6,652.3,868.1,652,873.4,650.9z"/>
	<path class="st9" d="M338.6,630.3c-1.9-0.4-3.7-0.8-5.6-1.2c-2.5-0.5-3.1-0.3-4.3,1.9c-1,2-2.3,3.7-4,5.2c-2.1,1.9-4.6,3.1-7.5,3.3
		c-5.2,0.3-10.3-0.2-15.2-1.8c-4.2-1.3-7.3-3.7-8.9-7.9c-0.7-1.8-1.4-3.6-2.3-5.3s-1.8-3.4-2.9-4.9c-1.6-2.1-3.8-2.1-5.7-0.3
		c-1,0.9-1.7,2-2.3,3.2c-0.9,2-1.8,4-2.7,6c-1,2.5-2.2,4.8-4.4,6.5c-0.8,0.6-1.7,1.3-2.6,1.6c-5.8,2.4-11.9,3.4-18.1,2.7
		c-4.5-0.5-7.9-2.8-10.2-6.8c-2.4-4.1-2.4-4.1-7.1-2.9c-1.3,0.3-2.6,0.6-3.8,0.9c-0.1-4.1,0.4-8.1,1.4-12c0.4-0.1,0.9-0.1,1.3-0.2
		c3.1-0.6,3.1-0.6,3.6-3.9c1-6.7,2.2-8.1,8.9-9.6c6.2-1.3,12.5-2.1,18.8-0.9c0.9,0.2,1.8,0.2,2.6,0.3c5,0.6,9.5,2,12.9,6
		c1.2,1.4,2.6,2.3,4.6,2.2c1.5-0.1,2.9-0.4,3.9-1.6c3.6-4.3,8.5-6,13.9-6.7c3.5-0.4,7-0.8,10.6-0.6c4.4,0.2,8.8,0.7,13,2.1
		c3.9,1.3,5.7,3.9,6,7.8c0.3,4.4,0.3,4.4,4.7,5.1c0.1,0,0.3,0,0.4,0.1C338.5,622.5,338.9,626.4,338.6,630.3z M310.9,607.8
		C310.9,607.7,310.9,607.7,310.9,607.8c-2.6,0-5.3,0-7.9,0c-1.8,0-3.5,0.5-5.1,1.1c-3.2,1.2-5.1,4.3-4.8,7.6
		c0.3,3.1,0.9,6.1,1.8,9.1c1.2,4.2,3.8,6.9,8.1,7.9c2.4,0.5,4.9,0.9,7.3,1.4c3.3,0.7,6.4,0.3,9.6-0.5c2.2-0.6,3.9-1.9,5-4
		c1.7-3.1,2.9-6.4,3.8-9.8c0.5-1.7,0.4-3.5,0.2-5.3c-0.5-3.3-2.2-5.7-5.6-6.6c-1.6-0.4-3.1-0.9-4.8-0.8
		C315.9,607.8,313.4,607.8,310.9,607.8z M259.2,607.7L259.2,607.7c-2.8,0.1-5.6,0.1-8.4,0.1c-1.7,0-3.3,0.3-4.7,1
		c-2.9,1.3-4.7,3.3-4.8,6.7c-0.2,4.5,0.8,8.7,2.7,12.8c2.1,4.5,5.5,6.7,10.4,6.9c1,0,2.1,0.1,3.1,0c4-0.5,7.8-1.2,11.6-2.5
		c2.1-0.7,3.5-2.1,4.5-4c1.9-3.6,2.9-7.4,3.2-11.4c0.5-5.4-2.4-8.2-7.8-9.4c-0.9-0.2-1.8-0.1-2.6-0.1
		C263.9,607.7,261.5,607.7,259.2,607.7z"/>
	<path class="st4" d="M949.8,642.3c3.1,0.1,6.2-0.2,9.2,0.8c0.8,0.3,1.7,0.1,2.6,0.1c1,0,2.1-0.2,3.1,0.1c4.5,1.2,9.1,0.8,13.6,0.8
		c12.3,0.1,24.7,0,37,0c1.9,0,3.8,0.1,5.7-0.6c0.4-0.2,0.9-0.2,1.3-0.2c5,0.2,9.9-1.4,14.9-1c0,3.4,0,6.8-0.1,10.1
		c-0.1,2.3-0.5,2.8-2.8,3.1c-7.4,1-14.9,1.6-22.3,2c-7.6,0.4-15.3,0.6-22.9,0.5c-8.9-0.1-17.9-0.4-26.8-1.4
		c-3.4-0.4-6.7-0.7-10.1-1.1c-1.7-0.2-2.3-0.8-2.3-2.6C949.8,649.3,949.8,645.8,949.8,642.3z"/>
	<path class="st2" d="M648.9,925.8c0.1,8.1,0.1,16.2,0.2,24.4c0,11.9,0,23.9,0,35.8c0,1.2,0,2.4,0,3.5c0,1.3,0.4,2.1,1.5,3
		c3.6,2.8,4,5.4,1.2,9c-1.1,1.4-1.1,2.6-0.8,4.1c1.1,4.1,2.1,8.3,3.2,12.4c0.2,0.9,0.4,1.7,0.5,2.6c0,0.3-0.4,0.8-0.7,1
		c-0.4,0.2-0.9,0.2-1.3,0.2c-4.3,0-8.5,0-12.8,0c-0.6,0-1.1-0.2-1.6-0.3c-0.3-1.7,0.3-3.1,0.6-4.5c0.9-3.7,1.8-7.4,2.8-11.1
		c0.4-1.6,0.3-3-0.8-4.5c-2.6-3.5-2.1-5.9,1.3-8.7c1-0.8,1.5-1.7,1.5-3s0-2.7,0-4c0-10.6,0-21.2,0-31.8c0-0.7,0-1.5,0-2.2
		c0-4.1,0-4.1-4-5.7c-3.4-1.4-6.9-2.6-10.3-4c-1.3-0.5-2.8-0.9-3.9-2.1c0.2-0.4,0.4-0.8,0.7-1c7-4.1,14-8.2,21-12.3
		C647.8,926.1,648.4,926,648.9,925.8z"/>
	<path class="st1" d="M238.1,713.8c1.9-6.1,2.2-12.5,2.3-18.8c0.2-12.2,0.2-24.4,0.2-36.7c0-1.6,0-3.2,0-5.1c1.5-0.7,3.1-1,4.6-1.3
		c19.1-3.7,38.3-4.4,57.6-2.9c7.2,0.6,14.3,1.5,21.4,2.9c0.4,0.1,0.9,0.1,1.3,0.2c4.2,1.2,4,0.3,4,4.8c0.1,13.4,0.2,26.8,0.4,40.2
		c0.1,3.7,0.5,7.3,0.9,11c0.3,2.3,0.8,4.6,2.1,6.7c-2-0.9-2.7-2.6-3.2-4.5c-1.4-4.5-2-9.2-2.4-13.9c-1.1-11.1-1.2-22.3-1.4-33.5
		c-0.1-4.8,0.6-4.8-4.8-6c-11.6-2.4-23.2-3.5-35-3.5c-11.5-0.1-22.9,0.7-34.2,2.9c-1.2,0.2-2.3,0.5-3.5,0.7c-4,0.9-4.1,0.9-4.1,5.2
		c-0.2,10-0.1,20-1.1,30c-0.4,4.1-1,8.2-1.6,12.2C241.1,707.9,240.1,711,238.1,713.8z"/>
	<path class="st4" d="M426.2,607.8c9.1,6.8,19.6,9.8,30.6,11.4c11,1.6,22,1,32.9-1.5c8.1-1.9,15.7-4.9,22.4-9.9
		c0.4,0.7,0.8,1.4,1.2,2.1c-0.8,1.9-0.2,3.8,0,5.7c0.1,1.2-0.3,1.9-1.3,2.5c-4.5,2.8-9.4,5-14.4,6.5c-11.4,3.5-23,4.7-34.9,3.9
		c-8.3-0.6-16.3-2-24.2-4.8c-4.2-1.5-8.2-3.4-11.9-5.7c-1-0.6-1.4-1.3-1.4-2.5c0-1.9,0.7-3.8-0.2-5.7
		C425.4,609.1,425.8,608.4,426.2,607.8z"/>
	<path class="st12" d="M418.5,1129.7c-1.8-0.1-3.5-0.2-5.3-0.2c-57.1,0-114.2,0-171.2,0c-1.8,0-3.5,0.1-5.3,0.1
		c-1.6-0.7-2.8-1.9-3.5-3.6c1.9,0,3.8-0.1,5.7-0.1c59,0,117.9,0,176.9,0c2.1,0,4.1,0.1,6.2,0.1
		C421.3,1127.8,420.2,1129,418.5,1129.7z"/>
	<path class="st10" d="M866.4,644.9c1.9,1,3.4,2.5,4.9,4.1c-1.7,1-3.5,1.4-5.5,1.4c-1.2,0-2.4-0.1-3.5,0.2c-5.9,1.3-12,0.2-18,1.5
		c-11.3,0.3-22.6-0.1-33.9,0.8c-4.6,0.4-9.1-0.6-13.6-0.6c-6.3,0-12.6-0.2-19-0.1c-6.3,0-12.6-0.8-18.9-1.1
		c-4.2-0.2-8.5-0.4-12.6-1.5c1.1-2.1,2.8-3.5,4.7-4.6c4.6,1.4,9.3,1.2,14,1.5c10.3,0.7,20.6,0.8,30.9,1.1c4.7,0.1,9.4,0.1,14.1,0
		c9.4-0.2,18.8,0.1,28.2-0.6c7.6-0.5,15.3-0.8,22.9-1.1C863,645.7,864.7,645.3,866.4,644.9z"/>
	<path class="st10" d="M861.3,638.6c1.8,1.1,3.2,2.6,3.7,4.7c-5.3,1.3-10.8,0.9-16.2,1.5c-7.4,0.8-15,0-22.5,1
		c-13.7-0.2-27.4,0.5-41.1-0.5c-8.6-0.7-17.4-0.1-26-1.1c-2.2-0.2-4.4-0.3-6.6-0.8c0.8-1.8,1.8-3.6,3.6-4.7c1.9,0.3,3.8,0.7,5.7,0.7
		c5.7,0.3,11.5,0,17.1,0.9c21.6-0.2,43.2,0.9,64.7-0.6C849.5,639.3,855.4,639.7,861.3,638.6z"/>
	<path class="st10" d="M757.1,637.1c0-1.9,1.1-3.3,1.8-4.9c9.3,0.2,18.5,1.3,27.7,1.2c13.8-0.1,27.7-0.1,41.5,0
		c10.2,0.1,20.3-0.9,30.4-1.2c1.3,1.3,2,2.9,1.9,4.8c-2.7-0.2-5.2,0.8-7.9,0.7c-10-0.1-19.9,1.3-29.9,1c-1.5-0.1-2.9,0-4.4,0
		c-13.8-0.2-27.6,0.5-41.4-0.7C770.3,637.6,763.6,638.1,757.1,637.1z"/>
	<path class="st2" d="M1065.6,496.4c-4.8-1.4-9.6-2.9-14.4-4c-6-1.4-12-3-18.1-3.7c-4.3-0.6-8.7-1.6-13.1-1.1
		c-1.3,0.1-2.6-0.1-3.9-0.4c-2.9-0.7-5.8-0.7-8.7,0c-1,0.2-2,0.5-3,0.4c-10.7-0.2-21,2.1-31.3,4.5c-5.1,1.2-10.2,2.9-15.2,4.4
		c-0.7-1.4-0.8-3-0.5-4.5c1.7,0.3,3.1-0.7,4.6-1.2c11.4-4,23.2-6.5,35.3-7.4c11.1-0.8,22.3-0.9,33.5,0.5c10.8,1.3,21.5,3.4,31.8,7.1
		c1.2,0.4,2.5,0.7,3.8,1C1066.3,493.5,1066.3,495,1065.6,496.4z"/>
	<path class="st2" d="M879.9,512.3c-6.1-1.6-12.2-3.3-18.3-4.7c-6.1-1.4-12.3-2.4-18.5-3.3c-9.8-1.5-19.6-0.4-29.4-0.8
		c-6.5,1-13,1.7-19.5,3c-7.5,1.5-14.8,3.7-22.1,5.8c-0.4-1.3-0.8-2.6-0.6-3.9c0.7-0.2,1.4-0.3,2.1-0.5c13.4-5.2,27.5-7.7,41.7-8.6
		c9.1-0.6,18.2-0.5,27.3,0.5c11.2,1.2,22.1,3.4,32.7,7c1.7,0.6,3.3,1.3,5.1,1.4C880.6,509.5,880.7,510.9,879.9,512.3z"/>
	<path class="st4" d="M375.5,337.9c-3,1.6-5.9,3.3-8.9,4.8c-8.3,3.9-17,6.2-26.1,7.1c-0.4-0.5-0.8-0.9-1.2-1.4
		c0.5-2.8,0.6-5.6-0.3-8.3c0.6-0.1,1.1-0.2,1.7-0.4c5.4-0.9,10.7-2,15.9-3.7c6.8-2.2,13.1-5.3,18.4-10.1c1.2,2.5,1.1,5.3,1.5,8
		c0.1,1,0.1,2,0.1,3C376.3,337.2,375.9,337.5,375.5,337.9z"/>
	<path class="st4" d="M317.5,350.4c-0.8-0.8-1.9-0.7-2.9-0.9c-7.5-1.2-14.9-3-21.9-6c-4.2-1.8-8.1-4.1-11.8-6.7
		c0.1-1.9,0.2-3.8,0.3-5.7c0.1-1.8,0.4-3.5,1.5-5c8.7,7.2,19,10.6,29.9,12.7c1.6,0.3,3.2,0.5,4.8,0c0.3,0.3,0.6,0.7,0.9,1
		c-1,3.2-1,6.3,0.1,9.4C318.2,349.7,317.8,350,317.5,350.4z"/>
	<path class="st5" d="M603.1,660.2c2-2.2,4.7-3.4,7.4-4.5c6.2-2.5,12.7-4.1,19.3-4.1c9,0.1,17.8,2,25.5,7c0.6,0.4,1.1,1,1.6,1.4
		c-1,0.9-2.2,0.8-3.3,0.8c-2.2,0-4.5-0.3-6.6,0.2c-3.5,0.8-7,0.7-10.5,0.7c-6,0-12.1,0-18.1,0c-1.2,0-2.4,0.1-3.5-0.2
		c-2.6-0.7-5.2-0.6-7.9-0.7C605.7,660.8,604.3,661.1,603.1,660.2z"/>
	<path class="st12" d="M603.1,660.2c1.2,0.9,2.5,0.6,3.8,0.7c2.6,0.1,5.3-0.1,7.9,0.7c1.1,0.3,2.3,0.2,3.5,0.2c6,0,12.1,0,18.1,0
		c3.5,0,7,0.1,10.5-0.7c2.1-0.5,4.4-0.2,6.6-0.2c1.2,0,2.4,0.1,3.3-0.8c1.1,0,2.3,0,3.4,0.1c2,0.1,2.6,0.6,2.8,2.5
		c0.1,1.1,0.1,2.3,0.2,3.4c-3.2,0.2-6.4-0.1-9.6,0.8c-1.2,0.4-2.6,0.1-3.9,0.1c-13.3,0-26.7,0-40,0c-2.6,0-5.3,0.1-7.8-0.7
		c-1.2-0.4-2.6-0.2-3.9-0.3C597.3,661,598,660.3,603.1,660.2z"/>
	<path class="st9" d="M880.5,508c-1.8-0.1-3.4-0.8-5.1-1.4c-10.6-3.6-21.5-5.8-32.7-7c-9.1-1-18.2-1.1-27.3-0.5
		c-14.3,1-28.3,3.5-41.7,8.6c-0.7,0.3-1.4,0.4-2.1,0.5c-0.3-1.1-0.2-2.1,0-3.2c1.5-0.5,3.1-0.9,4.6-1.4c15.6-5.4,31.7-7.8,48.1-8.1
		c4.7-0.1,9.4,0.2,14.1,0.6c11.4,0.8,22.5,2.8,33.3,6.1c2.9,0.9,5.9,1.9,8.8,2.8C880.5,506.1,880.5,507,880.5,508z"/>
	<path class="st9" d="M1066.1,491.9c-1.3-0.3-2.6-0.6-3.8-1c-10.3-3.7-20.9-5.8-31.8-7.1c-11.2-1.3-22.3-1.3-33.5-0.5
		c-12,0.9-23.8,3.4-35.3,7.4c-1.5,0.5-2.9,1.4-4.6,1.2c-0.2-0.9-0.3-1.8-0.5-2.8l0.1,0.2c1.1-0.3,2.3-0.6,3.4-1
		c5.3-2.1,10.9-3.6,16.5-4.8c10.5-2.3,21.1-3.8,31.9-3.8c6,0,12,0.1,18,0.6c12.1,1.1,23.8,3.4,35.3,7.3c1.5,0.5,3.1,0.8,4.7,1.2
		l0.1-0.1C1066.4,489.8,1066.2,490.9,1066.1,491.9z"/>
	<path class="st13" d="M231.7,780.3c0.5,1,1.6,1.3,2.5,1.6c10.8,3.5,21.8,6.1,33.1,7.3c10.3,1.1,20.5,1.6,30.9,1.4
		c6.8-0.1,13.5,0,20.3-0.4c16.3-0.9,32.1-4,47.5-9.3c0.7,0.5,0.9,1.3,1,2.1c-1.9,0.1-3.7,1-5.5,1.6c-12.9,3.9-26,6.4-39.4,7.4
		c-13.7,1-27.4,0.9-41.1,0.4c-17.2-0.7-33.9-3.8-50.2-9.5C230.1,781.2,230.1,781.2,231.7,780.3z"/>
	<path class="st2" d="M880.5,505.1c-2.9-0.9-5.9-1.9-8.8-2.8c-10.9-3.4-22-5.3-33.3-6.1c-4.7-0.3-9.4-0.6-14.1-0.6
		c-16.4,0.3-32.5,2.7-48.1,8.1c-1.5,0.5-3.1,0.9-4.6,1.4c0-0.3-0.1-0.5-0.4-0.7c0.1-0.6,0.2-1.3,0.2-1.9c13.9-5.8,28.4-8.6,43.3-9.6
		c9.5-0.6,19.1-0.6,28.7,0.5c8.1,0.9,16,2.2,23.8,4.4c4.5,1.2,9,2.8,13.5,4.1c0.1,0.8,0.1,1.5,0.2,2.3
		C880.6,504.5,880.5,504.8,880.5,505.1z"/>
	<path class="st5" d="M921.6,1050.9c4.1,0,8.2,0,12.3,0.7c3.1,0.6,6.4,0.1,9.7,0.2c2.3,0,4.7-0.1,7,0.6c1.2,0.4,2.6,0.2,3.9,0.2
		c15.7,0,31.4,0,47.2,0c1.3,0,2.7,0.1,3.9-0.3c2-0.6,4.1-0.6,6.1-0.6c2.6,0,5.3,0,7.9,0c0.9,0,1.8,0.1,2.6-0.1
		c3.9-1.1,7.9-0.7,11.8-0.7c0.3,1,0,1.8-0.9,2.2c-0.4,0.2-0.9,0.2-1.3,0.3c-4,0.3-7.9,0.6-11.9,0.9c-20.3,1.2-40.6,1.2-60.9,0.9
		c-9.8-0.2-19.7-0.5-29.5-1.5c-2-0.2-4.1-0.1-6.2-0.3C922,1053.2,921.9,1053,921.6,1050.9z"/>
	<path class="st11" d="M443,412.7c2.3,5.9,3.6,12.1,4.5,18.3c0.8,5.8,1.1,11.7,1.8,17.5c1.1,8.4,0.4,16.8,0.7,25.1
		c0,1.2-0.1,2.4,0.3,3.5c0.7,2.2,0.5,4.4,0.6,6.6c0.1,1.4-0.3,3,0.5,4.3c0.3,0.6,0.5,1.1-0.5,1.2c-0.6,0-1.3-0.2-1.4-0.8
		c-0.2-0.8-0.3-1.7-0.4-2.6c-0.1-2.8,0.1-5.6-0.7-8.3c-0.4-1.2-0.2-2.6-0.2-4c0-1.6,0-3.2-0.5-4.8c-0.3-1-0.3-2-0.4-3
		c-0.3-8.4-1.9-16.6-3.1-24.9c-1.1-7.5-3.3-14.6-5.8-21.7c-0.1-0.3-0.1-0.6-0.2-0.9C439.3,415.8,440.4,413.6,443,412.7z"/>
	<path class="st11" d="M491.8,418.2c-0.7,1.8-1.3,3.6-2,5.4c-2.2,5.9-3.1,12.2-4.3,18.4c-0.7,3.4-1.4,6.9-1.6,10.4
		c-0.2,3.8-1.4,7.5-1.2,11.4c0.1,1.2-0.2,2.3-0.4,3.5c-0.1,1-0.4,2-0.4,3c-0.1,3.1,0,6.1-0.8,9.2c-0.4,1.7-0.1,3.5-0.2,5.3
		c0,0.9-0.2,1.7-0.3,2.6c-0.1,0.4-0.4,0.5-0.7,0.4c-0.2-0.1-0.5-0.3-0.6-0.5c-0.1-0.4-0.2-0.9-0.2-1.3c0-3.8-0.5-7.7,0.1-11.5
		c1.1-6.7,0.6-13.5,0.8-20.2c0-1.3,0.1-2.6,0.5-3.9c0.2-0.7,0.4-1.5,0.4-2.2c-0.4-4.3,0.5-8.5,1-12.7c0.7-6.3,1.8-12.5,3.6-18.5
		c0.4-1.4,0.6-2.9,2-3.8C490,413.9,491,416,491.8,418.2z"/>
	<path class="st9" d="M746.3,649.5c4.1,1.1,8.4,1.4,12.6,1.5c6.3,0.2,12.6,1.1,18.9,1.1c6.3,0,12.6,0.1,19,0.1c4.6,0,9.1,1,13.6,0.6
		c11.3-1,22.6-0.6,33.9-0.8c5.9-1.3,12-0.2,18-1.5c1.1-0.3,2.3-0.2,3.5-0.2c2,0,3.8-0.4,5.5-1.4c0.9,0.4,1.6,1.1,2.1,2
		c-5.3,1.1-10.8,1.4-16.2,2c-7.9,0.8-15.9,0.4-23.8,1c-15,1.2-30,0.3-45,0.5c-6.7-1-13.5-0.5-20.3-0.9c-6.7-0.4-13.5-1.1-20.2-1.8
		c-1.2-0.1-2.3-0.5-3.4-0.8C745,650.3,745.6,649.8,746.3,649.5z"/>
	<path class="st9" d="M752.6,643.4c2.2,0.6,4.4,0.6,6.6,0.8c8.7,0.9,17.4,0.4,26,1.1c13.7,1,27.4,0.3,41.1,0.5c7.5-1,15-0.2,22.5-1
		c5.4-0.6,10.9-0.1,16.2-1.5c0.7,0.3,1.2,0.8,1.5,1.5c-1.7,0.4-3.4,0.8-5.2,0.8c-7.6,0.4-15.3,0.6-22.9,1.1
		c-9.4,0.7-18.8,0.4-28.2,0.6c-4.7,0.1-9.4,0.1-14.1,0c-10.3-0.3-20.6-0.3-30.9-1.1c-4.7-0.3-9.4-0.1-14-1.5
		C751.3,644.1,751.9,643.7,752.6,643.4z"/>
	<path class="st9" d="M757.1,637.1c6.6,1,13.2,0.5,19.8,1c13.8,1.2,27.6,0.4,41.4,0.7c1.5,0,2.9-0.1,4.4,0c10,0.3,19.9-1.1,29.9-1
		c2.6,0,5.2-0.9,7.9-0.7c0.6,0.4,0.7,0.9,0.8,1.6c-5.8,1-11.7,0.6-17.6,1.1c-21.6,1.5-43.2,0.5-64.7,0.6c-5.7-0.9-11.4-0.6-17.1-0.9
		c-1.9-0.1-3.8-0.5-5.7-0.7C756.2,638,756.5,637.5,757.1,637.1z"/>
	<path class="st9" d="M858.5,632.3c-10.1,0.3-20.2,1.3-30.4,1.2c-13.8-0.2-27.7-0.2-41.5,0c-9.3,0.1-18.5-0.9-27.7-1.2
		c0-0.7,0.4-1.2,0.9-1.5c4.6,0.1,9.1,0,13.7,0.3c20.1,1.5,40.3,0.6,60.4,0.6c7.1,0,14.1-1.1,21.1-0.9c1,0,2-0.3,3-0.5
		C858.5,630.8,858.5,631.6,858.5,632.3z"/>
	<path class="st12" d="M229.5,1119.3c3.1-3.9,6.9-7.2,10.4-10.8c1-1,1.9-1,2.6,0c3.3,4.3,7.5,7.8,11.2,11.8c0.4,0.4,0.8,0.8,1.2,1.3
		c0.6,0.6,1.5,1.3,0.8,2.2c-0.6,0.7-1.6,0.5-2.5,0.4s-1.6-0.7-2.2-1.4c-1.8-1.9-3.8-3.6-5.4-5.8c-0.9-1.2-1.9-2.2-3-3.2
		c-1.1-1.1-1.8-1.1-3,0.1c-1.8,1.7-3.5,3.6-5.3,5.3c-1.2,1.1-2.4,2.2-3.6,3.3C230.1,1121.6,229.7,1120.4,229.5,1119.3z"/>
	<path class="st12" d="M424.7,1121.8c-2.4-2.6-4.8-5.2-7.3-7.7c-1.6-1.6-2.1-1.6-3.7-0.1c-2.8,2.8-5.6,5.6-8.4,8.5
		c-1.2,1.3-2.5,2-4.3,1.6c-0.2,0-0.5-0.3-0.9-0.6c1.5-1.8,2.8-3.7,4.4-5.4c3-3.2,6.2-6.3,9.3-9.4c1.4-1.4,2-1.4,3.3-0.1
		c2,1.9,3.9,4,5.9,5.9c1,1,2.2,2,3.3,2.9C426.3,1119.1,425.9,1120.6,424.7,1121.8z"/>
	<path class="st9" d="M422.9,1125.1c-2.1-1.4-3.8-3.2-5.6-5c-1.4-1.4-2-1.4-3.3-0.1c-1.2,1.1-2.3,2.3-3.5,3.4
		c-0.3,0.3-0.7,0.5-1.1,0.6c-0.2,0.1-0.6,0-0.8-0.2c-0.1-0.1-0.2-0.6-0.1-0.7c1.8-2.3,3.5-4.7,5.7-6.7c1.2-1,2-1,3,0.2
		c1.4,1.5,2.6,3.1,4,4.7c0.8,0.9,1.8,1.6,2.6,2.3C423.6,1124.2,423.4,1124.8,422.9,1125.1z"/>
	<path class="st11" d="M870.1,858.7c-0.2,0.7-0.7,1-1.4,1.1C868.9,859.2,869.4,858.9,870.1,858.7z"/>
	<path class="st11" d="M1087.6,859c-0.7-0.1-1.3-0.4-1.6-1.1C1086.6,858,1087.3,858.3,1087.6,859z"/>
	<path class="st1" d="M728.8,345.3c-4.1,0-7.5,0.1-10.8,0c-1.9-0.1-3,0.7-3.8,2.3c-1.5,2.9-3.2,5.6-4.8,8.4
		c-0.6,1.1-1.3,1.1-1.9,0.1c-1.4-2.4-2.8-4.8-4.2-7.2c-0.4-0.6-0.8-1.3-1.1-1.9c-0.6-1.2-1.5-1.7-2.8-1.6c-2.8,0.1-5.6,0-8.4,0
		c-0.8,0-1.7,0.2-2.5-0.3c-0.3-0.8,0.2-1.4,0.6-2c1.4-2.4,2.7-4.9,4.2-7.2c1-1.6,0.9-2.9-0.1-4.4c-1.5-2.2-2.7-4.5-4-6.8
		c-0.4-0.6-0.7-1.2-0.9-1.7c0.7-1,1.5-0.8,2.2-0.8c2.5,0,5-0.2,7.5,0c2.6,0.3,4.1-0.8,5.2-3.1c1.2-2.4,2.6-4.6,3.9-6.9
		c0.4-0.6,0.6-1.4,1.4-1.7c0.9-0.1,1.1,0.9,1.4,1.4c1.6,2.6,3.2,5.3,4.6,8c0.8,1.6,1.9,2.1,3.5,2c2.8-0.1,5.6-0.1,8.4-0.1
		c0.7,0,1.5-0.1,2.2,0.7c-0.8,1.5-1.6,3-2.4,4.5c-0.9,1.5-1.7,3.1-2.7,4.6c-0.9,1.4-1,2.6-0.1,4c1.4,2.2,2.7,4.6,4,6.9
		C727.6,343.1,728,343.9,728.8,345.3z"/>
	<path class="st1" d="M993,599.9c-2,0.4-3.6-0.8-4.8-2.6s-2.9-3.4-2.5-5.9c0.1-0.6-0.1-1.2-0.6-1.6c-1.4-1.1-2.1-2.4-1.7-4.2
		c0.1-0.7-0.1-1.4-0.6-2c-0.3-0.3-0.5-0.7-0.8-1.1c-4.1-6-1.3-12.1,2.9-15.1c5.2-3.7,12.7-3.6,17.7,0.4c4.7,3.8,5.8,9.5,2.5,14.5
		c-1,1.5-1.9,2.9-1.5,4.8c0.1,0.3,0,0.7-0.1,0.8c-2.2,1.5-1.9,4-2.6,6.1c-0.6,1.8-1.9,3.3-3.3,4.6C996.3,600,994.8,599.9,993,599.9z
		 M998.7,586.5c0.3-0.1,0.9-0.2,1.4-0.4c0.9-0.4,1.4-1.1,1.2-2.1s-0.9-1.5-1.8-1.6c-0.6-0.1-1.2,0.1-1.7,0.2
		c-1.9,0.4-3.1,1.5-2.7,2.3C995.7,586.4,997,586.5,998.7,586.5z M988.1,586.5c1.6,0.1,2.6-0.2,3.4-0.9c0.5-0.4,0.6-1.1,0.2-1.5
		c-1.3-1.4-2.9-1.8-4.7-1.4c-0.7,0.2-1.2,0.8-1.3,1.6s0.2,1.5,1,1.8C987.3,586.3,988,586.4,988.1,586.5z M993.4,590.8
		c0.7,0,1.5,0.3,1.9-0.5c0.3-0.7-0.3-2.1-1.2-2.6c-0.3-0.2-0.9-0.3-1.2-0.1c-1,0.4-1.6,1.3-1.5,2.4c0,0.2,0.2,0.6,0.4,0.7
		C992.3,590.8,992.8,590.8,993.4,590.8z"/>
	<path class="st1" d="M989.6,609.2c-2.6-1.7-4.9-3.5-8.1-3.3c-0.3,0-0.6,0-0.9-0.1c-0.9-0.2-1.8-0.5-2.1-1.4c-0.3-1,0.3-1.7,1.3-2
		c1.4-0.4,1-1.7,1.4-2.5c0.6-1.1,2.2-1.3,2.9-0.3c0.3,0.5,0.8,1,0.8,1.5c0.3,1.8,1.4,2.7,3,3.5c6.7,3.2,4.2,3.2,10.8,0
		c1.6-0.7,2.8-1.6,3-3.5c0.1-0.4,0.3-0.8,0.5-1.2c0.4-0.7,1-1.1,1.8-1.1s1.5,0.4,1.6,1.3c0.2,1.3,0.8,2,2,2.6
		c1.1,0.6,0.7,2.3-0.6,2.7c-0.6,0.2-1.1,0.4-1.7,0.4c-3.2-0.2-5.5,1.7-8,3.2c0.8,1,1.8,1.3,2.7,1.8c1.3,0.7,2.6,1.3,4.2,0.6
		c0.7-0.3,1.4-0.3,2.2-0.3s1.5,0.2,1.8,1c0.2,0.6,0.2,1.2-0.3,1.6c-1,0.8-1.5,1.5-1.4,2.9c0.1,1.3-1.5,1.9-2.5,1.2
		c-0.2-0.2-0.6-0.3-0.7-0.5c-2-3.3-5.6-4.1-8.6-5.9c-0.8-0.5-1.7-0.5-2.5,0c-3,1.7-6.6,2.6-8.6,5.8c-0.2,0.3-0.7,0.5-1.1,0.7
		c-0.7,0.4-2.1-0.1-2.1-0.9c0-1.5-0.5-2.7-1.6-3.7c-0.8-0.7,0-2.2,1.2-2.2c0.7,0,1.5-0.1,2.2,0.2c1.8,0.8,3.4,0.3,5-0.7
		C987.8,610.1,988.6,609.7,989.6,609.2z"/>
	<polygon class="st11" points="477.6,489 477.2,488.8 477.6,488.7 	"/>
	<path class="st3" d="M771.2,499.1c-0.5-1.6-0.1-2.8,1.6-3.5c6.7-2.8,13.5-4.9,20.6-6.4c16.3-3.4,32.7-4.1,49.2-2.5
		c11.6,1.1,23,3.3,33.9,7.6c1,0.4,1.9,0.8,2.9,1.1c1.8,0.6,2,1.9,1.5,3.5c-1-0.3-2-0.6-2.9-0.9c-15.9-5.9-32.4-8.2-49.2-8.8
		c-8.2-0.2-16.4,0.5-24.6,1.6c-10.1,1.3-19.9,3.6-29.5,7.1C773.5,498.6,772.3,498.8,771.2,499.1z"/>
	<path class="st9" d="M771.2,499.1c1.1-0.3,2.3-0.6,3.4-1c9.5-3.5,19.4-5.8,29.5-7.1c8.2-1.1,16.3-1.8,24.6-1.6
		c16.8,0.5,33.3,2.9,49.2,8.8c1,0.4,2,0.6,2.9,0.9c0.3,1,0.2,1.9-0.2,2.9c-4.5-1.4-9-2.9-13.5-4.1c-7.8-2.1-15.8-3.5-23.8-4.4
		c-9.6-1.1-19.1-1.1-28.7-0.5c-14.9,1-29.4,3.8-43.3,9.6C771,501.4,770.9,500.3,771.2,499.1z"/>
	<path class="st5" d="M816.3,464.5c-4.7,0-8.5,0-12.3,0c-0.9,0-1.7-0.1-2.6-0.3c-0.3-0.1-0.7-0.6-0.8-1c-0.1-0.6,0.2-1.1,0.7-1.5
		c0.6-0.5,1.3-0.5,2.1-0.5c2.4,0,4.7,0,7.1,0c0.9,0,1.8,0.2,2.5-0.5c-1.1-0.8-2.3-0.4-3.4-0.5c-4.6,0-9.1,0-13.7,0
		c-1.1,0-2.1-0.1-2.4-1.3c-0.2-1,0.8-1.8,2.5-1.8c6,0,12,0,18.1,0c1.1,0,2,0.2,2.3,1.5c1,3.7,3.1,6.3,6.9,7.2c0.8,0.2,1.1,0.9,1,1.7
		c-0.1,0.9-0.8,1.3-1.5,1.3c-4.4,0-8.8,0-13.2-0.1c-0.8,0-1.3-0.6-1.3-1.5s0.5-1.4,1.2-1.6c0.9-0.2,1.8-0.1,2.6-0.2
		C813.1,465.4,814.3,465.8,816.3,464.5z"/>
	<path class="st5" d="M838.3,460.4c2.3,1.1,3.9,0.6,5.5,0.7s3.2,0,4.9,0c0.6,0,1.2,0.1,1.7,0.3c0.7,0.3,1.2,0.9,1.1,1.7
		c-0.1,0.6-0.5,1.1-1.1,1.2c-1,0.1-2,0.2-3.1,0.2c-3.4,0-6.7,0-10.7,0c1.3,1.3,2.5,0.9,3.5,1s2.1,0.1,3,0.3c0.5,0.1,0.9,0.7,0.9,1.4
		c0,0.7-0.4,1.1-0.9,1.4c-0.4,0.2-0.9,0.2-1.3,0.2c-3.8,0-7.7,0-11.5,0c-0.4,0-0.9,0-1.3-0.2c-0.5-0.2-1-0.6-1.1-1.2
		c-0.1-0.7,0.2-1.1,0.7-1.5c0.2-0.2,0.5-0.3,0.8-0.4c3.4-1,5.5-3.3,6.4-6.7c0.4-1.4,1.1-1.9,2.5-1.9c5.9,0,11.8,0,17.7,0
		c0.4,0,0.9,0,1.3,0.1c0.8,0.1,1.3,0.5,1.5,1.4c0.1,0.9-0.5,1.6-1.6,1.6c-3.7,0.1-7.4,0-11,0.1C843.6,460.2,841.3,460,838.3,460.4z"
		/>
	<path class="st3" d="M1011.8,429.1c1.8,0,3.5,0,5.3,0c1.2,0,2.4,0.1,3.5,0.2c6,0.7,7.5,2.4,8.2,8.3c0.9,7.7-1.4,14.2-6.8,19.7
		c-2.6,2.6-5.5,4.9-8.5,7.1c-1.2,0.8-2.2,1.1-3.6,0.2c-4.2-3-8.2-6.2-11.4-10.4c-2.9-3.8-4.5-7.9-4.2-12.7c0.1-1.8,0.1-3.5,0.3-5.3
		c0.4-3.9,1.7-5.4,5.6-6.3c1.4-0.3,2.9-0.6,4.4-0.6C1007.1,429.1,1009.4,429.2,1011.8,429.1C1011.8,429.2,1011.8,429.1,1011.8,429.1
		z M1010.6,449.4c0,0.2,0,1.4-0.1,2.5c-0.1,0.7-0.9,1.2-1.7,1c-0.1,0-0.3,0-0.4-0.1c-1.8-1.1-4.5-1.6-2.5-4.7c0.1-0.2,0-0.6-0.2-0.8
		c-0.8-0.9-1.5-1.8-2.4-2.6c-0.3-0.3-0.9-0.2-1.1,0.2c-0.4,0.8-0.7,1.6-1,2.4c-0.2,0.9-0.3,1.7,0.8,2.2c1.3,0.6,1.6,2.1,2.6,2.9
		c2.3,1.9,4.6,3.6,6.9,5.4c2.5-1.2,4.4-3.3,6.7-4.8c1.4-1,1.9-3,3.6-3.8c0.5-0.3,0.6-1,0.4-1.6c-0.2-0.8-0.5-1.7-0.8-2.5
		c-0.3-0.6-0.9-0.9-1.4-0.4c-1.2,1.3-3.4,2.2-1.6,4.6c0.1,0.2,0.1,0.6-0.1,0.8c-0.8,1.5-2.1,2.5-3.8,2.6c-0.4,0-0.9-0.2-1-0.7
		c-0.4-2.6-0.4-5.3,0-7.9c0-0.3,0.6-0.7,0.9-0.8c0.5-0.2,1.2-0.2,1.7-0.4c0.6-0.2,0.8-0.8,0.8-1.4s-0.2-1.2-0.8-1.5
		c-0.8-0.4-1.9,0-2.4-0.8c-0.6-1.1,0.6-1.8,0.9-2.7c0.1-0.1,0.1-0.3,0.2-0.4c0.4-1.3-0.1-2.6-1.2-3.5c-1.1-0.9-2.6-0.9-3.7-0.1
		c-1.1,0.8-1.7,2.3-1.4,3.5c0.2,0.7,0.7,1.3,0.9,2c0.5,1.1,0.3,1.4-1,1.8c-0.5,0.2-1.2,0.2-1.6,0.5c-0.8,0.5-0.7,2.2,0.2,2.6
		c0.3,0.1,0.6,0.2,0.8,0.2c0.7,0,1.5-0.1,2.1,0.4c0.7,0.7,0.6,1.6,0.6,2.5C1010.6,446.9,1010.6,447.6,1010.6,449.4z"/>
	<path class="st3" d="M956.9,484.2c-0.1-0.4-0.1-0.9-0.2-1.3c-0.3-1.9,0.4-2.9,2.2-3.7c7.5-3.2,15.2-5.3,23.2-6.8
		c11.2-2,22.4-3,33.8-2.6c15.2,0.5,30.1,2.5,44.5,7.7c1.4,0.5,2.7,1.2,4.1,1.6c1.6,0.5,2.5,1.5,2.1,3.3c-0.1,0.6-0.2,1.2-0.3,1.7
		c-2.1-0.7-4.1-1.4-6.2-2.2c-14.6-5.1-29.7-7-45-7.6c-8.1-0.3-16.1,0.4-24.1,1.5c-11,1.4-21.7,3.7-32,7.8
		C958.4,484,957.6,484.1,956.9,484.2z"/>
	<path class="st9" d="M956.9,484.2c0.7-0.2,1.5-0.3,2.1-0.5c10.3-4.1,21-6.4,32-7.8c8-1,16.1-1.8,24.1-1.5c15.3,0.6,30.4,2.5,45,7.6
		c2.1,0.7,4.1,1.4,6.2,2.2c0.2,1.1,0.2,2.1-0.1,3.2c-14-5.9-28.7-8.6-43.7-9.5c-9.4-0.6-18.8-0.6-28.2,0.6
		c-7.6,0.9-15.1,2.1-22.5,4.1c-5,1.4-9.8,3-14.7,4.5C956.7,486.2,956.7,485.2,956.9,484.2z"/>
	<path class="st3" d="M957.1,487.1c4.9-1.5,9.8-3.2,14.7-4.5c7.4-2,14.9-3.2,22.5-4.1c9.4-1.1,18.8-1.2,28.2-0.6
		c15,0.9,29.8,3.6,43.7,9.5c0,0.5,0.1,0.9,0.1,1.4c-1.6-0.4-3.2-0.7-4.7-1.2c-11.5-3.9-23.2-6.2-35.3-7.3c-6-0.6-12-0.7-18-0.6
		c-10.8,0-21.4,1.5-31.9,3.8c-5.6,1.2-11.1,2.7-16.5,4.8c-1.1,0.4-2.2,0.7-3.4,1C956.8,488.6,957,487.9,957.1,487.1z"/>
	<path class="st11" d="M291.3,472.5c-3.5,0-7.1,0-10.6,0c-6.8,0.1-12.7-4.5-13.4-13c-0.4-5,4-11.1,8.8-12.5c2-0.6,4-1,6.1-1
		c6.2,0.1,12.3,0.1,18.5,0c3.2,0,6.1,0.9,8.8,2.6c3.3,2.1,5.1,5.2,5.4,9.1c0,0.6,0,1.2,0,1.8c0,7.3-5.3,12.8-12.6,13
		C298.6,472.6,294.9,472.5,291.3,472.5z"/>
	<path class="st6" d="M530.7,290.7c0.8,0,1.3,0,1.7,0.1c2.9,0.9,5.4,0.3,8-1.2c4.7-2.7,3.2-2.7,7.8,0c2.4,1.4,4.8,2.1,7.6,1.1
		c0.5-0.2,1.1-0.2,1.7-0.2c0.9,3.5,1.1,9.7,0.4,12.3c-0.6,2.2-1.6,4.1-3,5.9c-2.5,3.3-5.6,6-9.1,8.3c-1,0.6-1.8,0.8-2.8,0.1
		c-3.7-2.5-7-5.4-9.6-9c-1.9-2.7-3.1-5.7-2.9-9.1C530.5,296.2,530.3,293.5,530.7,290.7z"/>
	<path class="st15" d="M318.4,339.9c-0.3-0.3-0.6-0.7-0.9-1c3.8-9.6,17.5-9,22-1.6c0.5,0.8,0.9,1.5,1.3,2.3
		c-0.6,0.1-1.1,0.2-1.7,0.4c-0.3-0.5-0.7-0.9-1-1.4c-3.8-6.3-13.6-7-18.3-0.4C319.3,338.7,318.8,339.3,318.4,339.9z"/>
	<path class="st13" d="M867.7,296.5c3.8,0,7.6,0.1,11.5,0c5.8-0.1,11.4,5.4,11.3,11.2c0,0.4-0.1,0.9,0,1.3c1.2,7.6-6.7,13-12.4,13.1
		c-4.1,0-8.2,0-12.3,0c-2.9,0-5.9,0-8.8,0c-1.7,0-3.1-0.4-4.7-1c-4.3-1.4-6.6-4.7-8-8.7c-1.4-3.9-0.3-7.6,2-10.8
		c2.4-3.4,5.7-5.3,10.1-5.2C860.1,296.6,863.9,296.5,867.7,296.5L867.7,296.5z"/>
	<path class="st13" d="M300.4,824.3c3.7-0.5,6-1.9,7.3-4.7c0.2-0.4,0.2-0.8-0.2-1.2c-1.5-1.4-1.5-1.5-0.3-2.9c1.1-1.3,2-2.9,3.6-4
		c1.2,2.5,1.8,4.9,2.3,7.3c0.1,0.3,0,1.1-0.7,0.7c-1.4-0.9-2.1-0.2-2.6,1.1c-0.8,1.8-2.1,3.3-3.7,4.3c-2.6,1.7-5,3.5-7.2,6.1
		c-1.6-1.4-2.9-2.6-4.4-3.8c-1.4-1.1-2.9-2-4.3-3.1s-2.4-2.6-3.1-4.2c-0.2-0.5-0.7-0.9-1.4-0.7c-0.5,0.2-1,0.9-1.4,0.2
		c-0.2-0.3,0-0.8,0.1-1.2c0.5-1.7,1-3.4,1.5-5.1c0.2-0.6,0.4-1.1,1.3-1.3c1.7,1.8,3.3,3.9,5,6.1c-0.8,0.1-1.2,0.2-1.6,0.3
		c-1.1,0.3-1.3,0.5-0.8,1.4c1.2,2.4,3.2,3.8,5.7,4.4c1,0.2,1.7-0.2,1.7-1.3c0-3.7,0-7.4,0-11c0-0.9-0.6-1.3-1.5-1.1
		c-0.6,0.1-1.1,0.4-1.7,0.5c-0.9,0.2-1.7,0-2.3-0.9c-0.6-1-0.5-2,0.1-2.9c0.3-0.5,0.9-0.8,1.5-0.8c0.9,0.1,1.7,0.3,2.6,0.4
		c0.9,0.1,1.6-1,1.1-1.8c-0.5-0.7-1.1-1.3-1.7-2c-1.2-1.6-1.2-3.3-0.2-5c0.9-1.5,2.3-2.2,4.1-2c1.8,0.2,3.2,1.4,3.8,3.2
		c0.4,1.4,0,2.6-0.8,3.7c-0.5,0.7-1.3,1.1-1.6,2c-0.3,0.9,0.3,1.9,1.2,1.8c0.9-0.1,1.7-0.4,2.6-0.4c1.1,0,1.7,0.8,1.7,2.1
		c0,1.5-0.7,2.6-1.8,2.5c-0.6,0-1.1-0.3-1.7-0.4c-1.5-0.3-2.1,0-2.1,1.3C300.3,816,300.3,819.9,300.4,824.3z M298.7,802
		c0.8,0,1.7-1,1.6-1.8s-1-1.6-1.9-1.5c-0.8,0.1-1.3,0.6-1.3,1.5C297,801.2,297.8,802.1,298.7,802z"/>
	<path class="st9" d="M848.8,604.3c2.5,0,4.4,2,4.3,4.5c-0.1,2.4-2.1,4.2-4.6,4.2c-2.3,0-4.5-2.3-4.4-4.5
		C844.2,606.2,846.4,604.3,848.8,604.3z M850.6,608.6c0-1.1-0.9-1.8-2-1.8c-1.1,0.1-2,0.9-2,1.8c0,1,0.9,1.7,2.1,1.8
		C849.8,610.5,850.6,609.7,850.6,608.6z"/>
	<path class="st9" d="M769,613c-2.3,0-4.5-2.2-4.5-4.4c0.1-2.3,2.2-4.3,4.7-4.3s4.4,1.9,4.4,4.4C773.5,611.1,771.5,613,769,613z
		 M771,608.7c0-1.1-0.8-1.9-1.9-1.8c-1.2,0-2,0.8-2.1,1.8c0,0.9,0.9,1.8,2,1.8S771,609.8,771,608.7z"/>
	<path class="st9" d="M458,587.2c0.9,0.4,1.9,0.5,2.9,0.4c5.2-0.4,6.9-2.3,7.2-7.8c0-0.1,0-0.3,0-0.4c0.1-0.6,0.5-1,1.1-1.1
		c0.7-0.1,1.6,0.5,1.5,1.2c-0.6,2.5,1.1,4.2,1.9,6.1c0.4,1,1.3,1.6,2.4,1.7c2.2,0.2,4.3,0.8,6.5-0.3c0.5-0.3,1.1,0.3,1.3,0.9
		c0.2,0.6,0,1.4-0.6,1.4c-2.4,0.3-3.7,2.2-5.3,3.6c-1,0.9-1.3,2-0.9,3.2c0.6,1.9,0.2,4.2,2.1,5.7c0.7,0.5,0.3,1.4-0.4,1.9
		c-0.5,0.4-1.3,0.3-1.5-0.2c-0.9-2.4-3.2-2.9-5-4c-1.2-0.7-2.2-0.6-3.3,0.1c-1.7,1.1-3.9,1.4-4.7,3.7c-0.2,0.5-0.8,0.8-1.5,0.5
		s-1.2-1.4-0.7-1.8c1.9-1.5,1.6-3.7,2.1-5.6c0.4-1.4,0.1-2.6-1.1-3.5c-1.5-1.2-2.4-3-4.6-3.1c-0.8,0-1.3-0.8-1.1-1.6
		C456.4,587.3,457.1,587.1,458,587.2z"/>
	<path class="st12" d="M324.2,1124.2c-1.4,0.1-2.4-0.4-3.2-1.3c-1.8-1.9-3.7-3.8-5.4-5.8c-1.1-1.4-2.3-2.7-3.7-3.8
		c-0.8-0.6-1.7-0.6-2.4,0.1c-0.7,0.6-1.3,1.2-1.8,1.9c-2.1,2.8-4.9,5.1-7.3,7.7c-1.1,1.2-2.5,1.5-4,1.2c-0.6-0.1-1-0.9-0.6-1.3
		c0.3-0.5,0.7-1,1.1-1.4c4-4.1,8-8.2,12.1-12.2c0.3-0.3,0.6-0.6,1-0.9c0.8-0.7,1.6-0.7,2.3,0.1c1.1,1.2,2,2.5,3.2,3.7
		c2.8,2.9,5.6,5.7,8.3,8.5c0.6,0.6,1.2,1.3,1.8,2c0.2,0.3,0.3,0.9,0.1,1.2c-0.2,0.3-0.7,0.4-1.1,0.5
		C324.5,1124.2,324.3,1124.2,324.2,1124.2z"/>
	<path class="st12" d="M360.8,1123.9c-1.8,0.9-3.3,0.3-4.6-1c-2.1-2.1-4.1-4.2-6.2-6.3c-0.8-0.8-1.6-1.7-2.5-2.5
		c-1.6-1.5-2-1.5-3.7,0.1c-2.7,2.7-5.4,5.4-8.1,8.1c-0.7,0.7-1.4,1.6-2.5,1.8c-0.9,0.2-2,0.5-2.5-0.2c-0.8-0.9,0.4-1.5,0.9-2.1
		c3.5-3.8,7-7.5,10.5-11.3c0.7-0.8,1.4-1.5,2.2-2.2c1-0.9,1.7-0.9,2.7,0.1c2.8,2.8,5.7,5.5,8.3,8.5c1.6,1.8,3,3.6,4.7,5.3
		C360.5,1122.6,361,1123,360.8,1123.9z"/>
	<path class="st12" d="M393.9,1124.2c-1.2,0.1-2.2-0.4-3-1.3c-1.8-1.9-3.7-3.8-5.4-5.8c-1.1-1.4-2.3-2.7-3.7-3.8
		c-0.8-0.6-1.7-0.6-2.4,0c-1.7,1.4-3.2,3-4.6,4.8c-1.5,1.8-3.2,3.5-4.8,5.2c-1,1.1-2.3,1.2-3.7,0.9c-0.6-0.1-1-0.9-0.7-1.3
		c0.5-0.7,1.1-1.4,1.7-2c2.5-2.5,5-5,7.4-7.6c0.8-0.8,1.7-1.6,2.4-2.6c3.2-4.7,3.8-2.9,6.5-0.2c3.8,3.9,7.6,7.8,11.4,11.6
		c0.4,0.4,0.8,1,0.4,1.6C395.3,1124.2,394.6,1124.2,393.9,1124.2z"/>
	<path class="st12" d="M260.6,1123.8c0.2-0.4,0.3-0.9,0.5-1.2c3.7-4,7.4-8,11.1-11.9c0.6-0.6,1.2-1.3,1.9-1.9c1.6-1.5,2-1.5,3.7,0.1
		c4.6,4.3,8.7,9.2,12.9,13.8c0.2,0.2,0.2,0.8,0.2,1.2c0,0.1-0.5,0.3-0.8,0.3c-1.6,0.2-2.8-0.4-3.9-1.5c-2.3-2.4-4.7-4.8-7.1-7.2
		c-0.7-0.7-1.5-1.5-2.2-2.1c-0.6-0.5-1.4-0.5-2,0.1c-1.5,1.4-2.9,2.9-4.4,4.3c-1.7,1.7-3.3,3.3-5,5
		C264.1,1124.2,262.6,1124.7,260.6,1123.8z"/>
	<path class="st9" d="M345.5,1119.1c-0.4,0.3-0.9,0.4-1.2,0.7c-1.1,1-2.1,2.1-3.2,3.1c-0.5,0.5-1.2,0.9-1.8,1.2
		c-0.2,0.1-0.6,0-0.8-0.2c-0.1-0.1-0.2-0.6,0-0.7c2-2.3,4.1-4.6,6.2-6.9c0.6-0.6,1.4-0.6,1.9,0c2.1,2.3,4.1,4.6,6.2,6.9
		c0.1,0.1,0.1,0.6,0,0.7c-0.2,0.2-0.5,0.3-0.8,0.2c-0.9-0.2-1.5-0.9-2.1-1.5c-1.1-1-2.1-2.1-3.2-3
		C346.4,1119.3,345.9,1119.2,345.5,1119.1z"/>
	<path class="st9" d="M248,1123.5c-0.2,0.1-0.5,0.4-0.7,0.3c-0.4-0.1-0.8-0.3-1.1-0.6c-0.8-0.7-1.5-1.4-2.2-2.2
		c-2.7-2.9-3.5-2.7-6.3,0.4c-0.7,0.8-1.3,1.6-2,2.3c-0.4,0.4-1.1,0.5-1.6,0c-0.3-0.3-0.3-0.9,0-1.2c1.8-1.9,3.7-3.8,5.6-5.7
		c0.9-0.8,1.9-0.8,2.8,0.1c1.9,1.8,3.7,3.8,5.5,5.7C248.1,1122.8,248,1123.2,248,1123.5z"/>
	<path class="st9" d="M387.7,1123.6c-0.2,0.1-0.6,0.4-0.7,0.3c-0.6-0.4-1.2-0.8-1.8-1.3c-1.1-1-2.1-2.1-3.2-3
		c-0.9-0.8-1.8-0.8-2.8,0.1s-1.9,1.9-2.9,2.7c-0.6,0.6-1.3,1.2-2,1.6c-0.4,0.2-0.9,0.2-1.2-0.2c-0.1-0.2-0.1-0.6,0.1-0.8
		c2-2.1,4.1-4.2,6.2-6.2c0.7-0.7,1.7-0.7,2.4,0c2.1,1.8,4.1,3.7,5.8,6C387.8,1122.9,387.7,1123.3,387.7,1123.6z"/>
	<path class="st9" d="M310.4,1119c-0.3,0.2-0.8,0.4-1.2,0.8c-1.3,1.2-2.5,2.4-3.8,3.6c-0.4,0.4-1,0.8-1.5,0.1
		c-0.2-0.2-0.1-0.9,0.2-1.2c1.7-1.8,3.4-3.6,5.2-5.3c1.1-1,2.1-1.1,3.1-0.1c1.9,1.8,3.7,3.7,5.5,5.7c0.3,0.3,0.3,0.9-0.2,1.1
		c-0.2,0.1-0.6,0.1-0.8-0.1c-1.4-1.3-2.8-2.6-4.2-3.9C312,1119.4,311.4,1119,310.4,1119z"/>
	<path class="st9" d="M283.1,1123.8c-0.3,0.1-0.5,0.3-0.8,0.3c-0.9-0.1-1.5-0.8-2.2-1.4c-1.1-1-2.1-2.1-3.2-3
		c-0.8-0.7-1.6-0.6-2.3,0.1c-1.2,1.1-2.3,2.3-3.4,3.4c-0.5,0.5-1.1,1-1.9,1c-0.1,0-0.3,0-0.4-0.1c-0.4-0.1-0.5-0.4-0.2-0.7
		c1.9-2.4,4.1-4.6,6.4-6.5c0.5-0.4,1.2-0.3,1.6,0.1c2.3,2.1,4.6,4.1,6.4,6.6C283.2,1123.5,283.1,1123.7,283.1,1123.8z"/>
	<path class="st11" d="M1018.6,355c-2.8,0-6-1.3-8-3.4c-0.7-0.7-1.4-0.9-2.2-1.2c-0.4-0.2-0.8-0.4-0.6-0.9c0.1-0.5,0.6-0.6,1-0.7
		c1.9-0.1,3.8,0,5.7-0.1c2.5-0.2,4.6,0.3,5.8,2.9c0.2,0.4,0.6,0.6,0.9,0.9c0.5,0.6,1.8,0.8,1.2,1.9c-0.4,0.7-1.3,0.5-2,0.5
		C1019.8,355,1019.2,355,1018.6,355z"/>
	<path class="st11" d="M1029.5,355.2c-1.8-0.2-2.7-0.3-3.5-0.4c-0.5-0.1-0.7-0.7-0.4-1c1.4-1.3,2.7-2.7,3.7-4.2
		c0.3-0.4,1-0.7,1.5-0.7c2.9,0,5.8,0,8.8,0.1c0.2,0,0.5,0.3,0.6,0.5c0.2,0.3,0.2,0.6-0.1,0.7c-1.4,0.5-2.7,1-3.3,2.5
		C1033.9,353.2,1031.8,355.9,1029.5,355.2z"/>
	<path class="st4" d="M1014.7,1043.9c-0.1,2-2.1,4-4.1,3.9s-4-2.1-4-4s2.1-4.1,3.9-4.1C1012.6,1039.6,1014.8,1041.8,1014.7,1043.9z"
		/>
	<path class="st4" d="M957.6,1044.7c0-2.3,1.6-4.1,3.7-4c2,0,4,1.9,4.2,3.8c0.1,2-2.1,4.4-4.1,4.3
		C959.2,1048.6,957.6,1046.9,957.6,1044.7z"/>
	<path class="st4" d="M1031,1043.4c-0.1,2.2-1.7,3.8-3.9,3.8c-2.2,0-3.9-1.6-3.9-3.8c0-2.4,1.8-4.1,4.2-4
		C1029.5,1039.5,1031,1041.2,1031,1043.4z"/>
	<path class="st4" d="M948.9,1043.8c0,2.3-1.7,4-3.8,3.9s-4-2-4.1-3.9s1.9-4.1,3.8-4.2C947,1039.5,948.9,1041.4,948.9,1043.8z"/>
	<path class="st4" d="M981.6,1011.1c0,2.3-1.7,4-3.8,3.9c-2-0.1-4-2-4.1-3.9c0-1.9,1.9-4.1,3.8-4.2
		C979.7,1006.8,981.6,1008.7,981.6,1011.1z"/>
	<path class="st4" d="M981.6,1044.5c0.1,2.3-1.5,4.1-3.5,4.2c-2.1,0.1-4.3-2-4.3-4.1c0-1.9,2-3.8,4-3.9
		C979.8,1040.5,981.5,1042.3,981.6,1044.5z"/>
	<path class="st4" d="M990.4,1044.5c0-2.2,1.8-4,3.8-3.9s4,2,4,3.9c0.1,2.1-2.1,4.2-4.3,4.1C991.9,1048.6,990.3,1046.8,990.4,1044.5
		z"/>
	<path class="st4" d="M981.6,978.2c0,2.4-1.3,3.8-3.7,3.8c-2.3,0-4.1-1.6-4.1-3.6c0-2.1,2.1-4.2,4.2-4.2
		C980,974.1,981.6,975.9,981.6,978.2z"/>
	<path class="st4" d="M932.7,1043.4c-0.1,2.2-1.9,3.9-4.1,3.8c-2.2-0.1-3.8-1.8-3.7-4s1.8-3.9,4-3.8
		C930.9,1039.4,932.7,1041.4,932.7,1043.4z"/>
	<path class="st4" d="M977.8,1023.5c2.2,0.1,3.8,1.8,3.8,4s-1.9,4-3.9,3.8c-2.1-0.1-4-2.1-3.9-4
		C973.9,1025.1,975.7,1023.4,977.8,1023.5z"/>
	<path class="st4" d="M978.1,998.5c-2.1,0.1-4.1-1.6-4.3-3.6c-0.2-2.1,1.5-4.1,3.6-4.2c2.3-0.1,4,1.4,4.2,3.6
		C981.7,996.5,980.2,998.4,978.1,998.5z"/>
	<path class="st15" d="M317.5,350.4c0.3-0.4,0.6-0.7,0.9-1.1c0.7,0.9,1.4,1.8,2.2,2.7c4.7,4.9,12.4,4.6,16.6-0.8
		c0.7-0.9,1.3-1.9,2-2.9c0.4,0.5,0.8,0.9,1.2,1.4c-1.4,2.4-3.1,4.6-5.6,6C328.5,359.3,321.2,357.1,317.5,350.4z"/>
	<path class="st15" d="M310.9,607.8c2.5,0,5,0,7.5,0c1.6,0,3.2,0.4,4.8,0.8c3.4,0.9,5.1,3.3,5.6,6.6c0.3,1.7,0.3,3.5-0.2,5.3
		c-0.9,3.4-2.1,6.7-3.8,9.8c-1.1,2.1-2.8,3.4-5,4c-3.2,0.8-6.3,1.3-9.6,0.5c-2.4-0.5-4.9-0.9-7.3-1.4c-4.3-1-6.9-3.7-8.1-7.9
		c-0.8-3-1.4-6-1.8-9.1c-0.4-3.4,1.6-6.4,4.8-7.6c1.6-0.6,3.3-1.1,5.1-1.1C305.6,607.8,308.3,607.7,310.9,607.8
		C310.9,607.7,310.9,607.7,310.9,607.8z"/>
	<path class="st15" d="M259.2,607.7c2.4,0,4.7,0,7.1,0c0.9,0,1.8,0,2.6,0.1c5.4,1.2,8.4,4,7.8,9.4c-0.4,4-1.4,7.8-3.2,11.4
		c-1,1.9-2.4,3.3-4.5,4c-3.8,1.3-7.7,2-11.6,2.5c-1,0.1-2.1,0-3.1,0c-4.9-0.2-8.2-2.4-10.4-6.9c-1.9-4.1-2.9-8.3-2.7-12.8
		c0.2-3.4,2-5.4,4.8-6.7c1.5-0.7,3.1-1,4.7-1C253.6,607.8,256.4,607.8,259.2,607.7L259.2,607.7z"/>
	<path class="st1" d="M339.3,348.3c-0.6,1-1.2,2-2,2.9c-4.2,5.4-11.9,5.7-16.6,0.8c-0.8-0.8-1.5-1.8-2.2-2.7
		c-1.1-3.1-1.2-6.3-0.1-9.4c0.4-0.6,0.9-1.1,1.3-1.7c4.6-6.6,14.5-5.9,18.3,0.4c0.3,0.5,0.7,1,1,1.4
		C339.9,342.7,339.8,345.5,339.3,348.3z"/>
	<path class="st15" d="M998.7,586.5c-1.6,0-3-0.2-3.6-1.6c-0.4-0.9,0.8-1.9,2.7-2.3c0.6-0.1,1.2-0.3,1.7-0.2
		c0.9,0.1,1.6,0.6,1.8,1.6s-0.3,1.7-1.2,2.1C999.5,586.4,999,586.5,998.7,586.5z"/>
	<path class="st15" d="M988.1,586.5c-0.1,0-0.9-0.2-1.5-0.5c-0.7-0.3-1-1-1-1.8c0.1-0.8,0.5-1.4,1.3-1.6c1.8-0.4,3.5,0,4.7,1.4
		c0.4,0.5,0.3,1.1-0.2,1.5C990.7,586.3,989.8,586.6,988.1,586.5z"/>
	<path class="st16" d="M993.4,590.8c-0.6-0.1-1.1,0-1.7-0.2c-0.2,0-0.4-0.4-0.4-0.7c0-1.1,0.5-2,1.5-2.4c0.3-0.1,0.9-0.1,1.2,0.1
		c0.9,0.5,1.5,1.9,1.2,2.6C994.9,591.2,994.1,590.9,993.4,590.8z"/>
	<path class="st9" d="M1010.6,449.4c0-1.7,0-2.5,0-3.2c0-0.9,0.1-1.8-0.6-2.5c-0.5-0.6-1.4-0.4-2.1-0.4c-0.3,0-0.6-0.1-0.8-0.2
		c-0.9-0.4-1-2.1-0.2-2.6c0.5-0.3,1.1-0.3,1.6-0.5c1.3-0.4,1.5-0.7,1-1.8c-0.3-0.7-0.7-1.3-0.9-2c-0.4-1.2,0.3-2.6,1.4-3.5
		c1.1-0.8,2.5-0.7,3.7,0.1c1.1,0.9,1.6,2.2,1.2,3.5c0,0.1-0.1,0.3-0.2,0.4c-0.3,0.9-1.6,1.6-0.9,2.7c0.5,0.8,1.7,0.3,2.4,0.8
		c0.5,0.3,0.8,0.9,0.8,1.5s-0.3,1.2-0.8,1.4c-0.5,0.2-1.2,0.2-1.7,0.4c-0.4,0.1-0.9,0.5-0.9,0.8c-0.4,2.6-0.5,5.2,0,7.9
		c0.1,0.5,0.6,0.7,1,0.7c1.7-0.2,3-1.2,3.8-2.6c0.1-0.2,0.2-0.7,0.1-0.8c-1.8-2.4,0.5-3.3,1.6-4.6c0.5-0.5,1.1-0.2,1.4,0.4
		c0.3,0.8,0.6,1.7,0.8,2.5c0.2,0.6,0.1,1.3-0.4,1.6c-1.7,0.9-2.1,2.8-3.6,3.8c-2.2,1.6-4.2,3.6-6.7,4.8c-2.3-1.8-4.6-3.6-6.9-5.4
		c-1-0.8-1.3-2.4-2.6-2.9c-1.1-0.5-1-1.3-0.8-2.2c0.2-0.8,0.6-1.7,1-2.4c0.2-0.4,0.8-0.5,1.1-0.2c0.8,0.8,1.6,1.7,2.4,2.6
		c0.2,0.2,0.3,0.6,0.2,0.8c-2.1,3.1,0.7,3.6,2.5,4.7c0.1,0.1,0.3,0.1,0.4,0.1c0.7,0.2,1.6-0.3,1.7-1
		C1010.6,450.7,1010.6,449.6,1010.6,449.4z M1010.9,435.5c0.2,0.4,0.5,0.6,0.9,0.5c0.4-0.2,0.5-0.6,0.3-1c-0.1-0.2-0.4-0.3-0.6-0.3
		C1011.1,434.8,1010.9,435,1010.9,435.5z"/>
	<path class="st1" d="M298.7,802c-0.8,0-1.6-0.8-1.6-1.7c0-0.8,0.5-1.3,1.3-1.5c0.9-0.1,1.8,0.6,1.9,1.5
		C300.3,801.1,299.5,802,298.7,802z"/>
	<path class="st10" d="M850.6,608.6c0,1.1-0.8,1.9-1.9,1.9c-1.1,0-2-0.8-2.1-1.8c0-0.9,0.9-1.8,2-1.8
		C849.7,606.8,850.6,607.5,850.6,608.6z"/>
	<path class="st10" d="M771,608.7c0,1.1-0.9,1.8-2,1.8c-1.1-0.1-2-0.9-2-1.8c0-1,0.9-1.7,2.1-1.8C770.2,606.8,771,607.6,771,608.7z"
		/>
	<path class="st3" d="M1010.9,435.5c-0.1-0.5,0.2-0.8,0.6-0.8c0.2,0,0.6,0.1,0.6,0.3c0.2,0.4,0.1,0.8-0.3,1
		C1011.5,436.2,1011.1,435.9,1010.9,435.5z"/>
</g>
</svg>
