<?xml version="1.0" encoding="UTF-8" standalone="no"?>
<svg width="28px" height="28px" viewBox="0 0 28 28" version="1.1" xmlns="http://www.w3.org/2000/svg" xmlns:xlink="http://www.w3.org/1999/xlink">
    <!-- Generator: Sketch 3.8.1 (29687) - http://www.bohemiancoding.com/sketch -->
    <title>Twitter Icon</title>
    <desc>Created with Sketch.</desc>
    <defs>
        <polygon id="path-1" points="0.0002625 28 28 28 28 0.0002625 0.0002625 0.0002625"></polygon>
    </defs>
    <g id="Welcome" stroke="none" stroke-width="1" fill="none" fill-rule="evenodd">
        <g id="Mobile-Menu" transform="translate(-99.000000, -371.000000)">
            <g id="Twitter-Icon" transform="translate(99.000000, 371.000000)">
                <mask id="mask-2" fill="white">
                    <use xlink:href="#path-1"></use>
                </mask>
                <g id="Clip-2"></g>
                <path d="M19.5670125,11.1460125 C19.5731375,11.2693875 19.5757625,11.3918875 19.5757625,11.5170125 C19.5757625,15.3127625 16.6865125,19.6895125 11.4032625,19.6895125 C9.7801375,19.6895125 8.2716375,19.2143875 7.0002625,18.3988875 C7.2251375,18.4242625 7.4535125,18.4382625 7.6853875,18.4382625 C9.0320125,18.4382625 10.2692625,17.9806375 11.2518875,17.2097625 C9.9953875,17.1852625 8.9348875,16.3548875 8.5700125,15.2147625 C8.7450125,15.2471375 8.9243875,15.2663875 9.1098875,15.2663875 C9.3723875,15.2663875 9.6261375,15.2305125 9.8658875,15.1657625 C8.5533875,14.9006375 7.5620125,13.7403875 7.5620125,12.3491375 L7.5620125,12.3132625 C7.9505125,12.5285125 8.3932625,12.6571375 8.8640125,12.6720125 C8.0931375,12.1575125 7.5865125,11.2772625 7.5865125,10.2815125 C7.5865125,9.7547625 7.7282625,9.2612625 7.9750125,8.8368875 C9.3907625,10.5755125 11.5082625,11.7182625 13.8952625,11.8381375 C13.8462625,11.6281375 13.8208875,11.4093875 13.8208875,11.1836375 C13.8208875,9.5972625 15.1062625,8.3127625 16.6935125,8.3127625 C17.5186375,8.3127625 18.2658875,8.6610125 18.7891375,9.2183875 C19.4427625,9.0897625 20.0578875,8.8508875 20.6135125,8.5210125 C20.3982625,9.1930125 19.9441375,9.7547625 19.3508875,10.1100125 C19.9318875,10.0417625 20.4857625,9.8868875 21.0002625,9.6593875 C20.6152625,10.2351375 20.1287625,10.7408875 19.5670125,11.1460125 M14.0002625,0.0002625 C6.2687625,0.0002625 0.0002625,6.2687625 0.0002625,14.0002625 C0.0002625,21.7335125 6.2687625,28.0002625 14.0002625,28.0002625 C21.7317625,28.0002625 28.0002625,21.7335125 28.0002625,14.0002625 C28.0002625,6.2687625 21.7317625,0.0002625 14.0002625,0.0002625" id="Fill-1" fill="#FFFFFF" mask="url(#mask-2)"></path>
            </g>
        </g>
    </g>
</svg>